<svg height="84" viewBox="0 0 126 84" width="126" xmlns="http://www.w3.org/2000/svg"><linearGradient id="a" gradientUnits="userSpaceOnUse" spreadMethod="reflect" x1="103.88" x2="122.06" y1="10.76" y2="51.92"><stop offset="0" stop-color="#e0e0e0"/><stop offset="1" stop-color="#757575"/></linearGradient><linearGradient id="b" gradientUnits="userSpaceOnUse" x1="60.44" x2="57.2" y1="78.14" y2="60.74"><stop offset="0" stop-color="#004d0a"/><stop offset="1" stop-color="#179731"/></linearGradient><linearGradient id="c" gradientUnits="userSpaceOnUse" spreadMethod="reflect" x1="45.47" x2="79.14" y1="52.83" y2="77.53"><stop offset="0" stop-color="#a2a2a2"/><stop offset="1" stop-color="#eee"/></linearGradient><linearGradient id="d" gradientUnits="userSpaceOnUse" spreadMethod="reflect" x1="100.25" x2="103.49" y1="-8.57" y2="-.38"><stop offset="0" stop-color="#002580"/><stop offset="1" stop-color="#3042e4"/></linearGradient><path d="m10.16 6.35c-.81 0-1.61.16-2.35.47-.75.31-1.42.76-1.99 1.33s-1.03 1.25-1.34 1.99c-.3.75-.46 1.55-.46 2.35v39.35h117.97v-39.35c0-.8-.16-1.6-.47-2.35-.31-.74-.76-1.42-1.33-1.99s-1.25-1.02-1.99-1.33c-.75-.31-1.55-.47-2.35-.47z" fill="url(#a)" stroke="#898989"/><path d="m4.01 52.84v18.67c0 3.39 2.75 6.14 6.14 6.14h105.69c3.4 0 6.14-2.75 6.14-6.14v-18.67z" fill="url(#b)" stroke="#075a17"/><g fill="url(#c)"><path d="m41.53 61.12h3.15v9.84h-3.15zm0-3.83h3.15v2.57h-3.15z"/><path d="m57.59 64.97v5.99h-3.16v-.98-3.61q0-1.27-.06-1.76-.05-.48-.19-.71-.18-.31-.5-.47-.32-.18-.72-.18-.98 0-1.55.76-.56.76-.56 2.1v4.84h-3.15v-9.84h3.15v1.44q.71-.86 1.51-1.27.8-.41 1.77-.41 1.71 0 2.58 1.05.89 1.05.89 3.04z"/><path d="m63.95 58.33v2.79h3.24v2.25h-3.24v4.17q0 .69.27.93.27.24 1.08.24h1.62v2.25h-2.7q-1.86 0-2.65-.77-.77-.78-.77-2.65v-4.17h-1.56v-2.25h1.56v-2.79z"/><path d="m78.94 66.02v.9h-7.36q.11 1.11.8 1.66.69.55 1.92.55.99 0 2.03-.29 1.05-.3 2.14-.9v2.43q-1.12.42-2.23.63-1.12.22-2.23.22-2.67 0-4.16-1.35-1.48-1.36-1.48-3.81 0-2.41 1.45-3.79 1.46-1.38 4.01-1.38 2.32 0 3.71 1.4 1.4 1.4 1.4 3.74zm-3.23-1.05q0-.9-.53-1.44-.52-.55-1.36-.55-.91 0-1.49.52-.57.51-.71 1.48z"/><path d="m81.33 57.29h3.14v13.68h-3.14z"/></g><g fill="url(#d)" stroke-width=".42" transform="matrix(2.41 0 0 2.41 -188.56 27.6)"><path d="m91.68-5.09v11.84h-3.08v-11.84z"/><path d="m95.42 4.33v2.42h-2.23v-2.42z"/><path d="m103.2 4.73v2.02h-6.49v-1.69q2.89-4.72 3.43-5.84.55-1.13.55-1.75 0-.48-.17-.72-.16-.24-.5-.24-.34 0-.5.26-.16.26-.16 1.05v1.13h-2.65v-.43q0-.99.1-1.56.1-.58.5-1.13.4-.56 1.05-.84.64-.29 1.54-.29 1.76 0 2.66.88.91.87.91 2.21 0 1.02-.51 2.15-.5 1.13-2.99 4.81z"/><path d="m112.06-1.94h-2.95q0-.83-.02-1.04-.01-.22-.18-.37-.15-.15-.42-.15-.23 0-.37.14-.15.14-.17.36-.02.22-.02.88v1.89q.23-.48.67-.71.44-.24 1.08-.24.81 0 1.43.44.62.44.79 1.05.17.61.17 1.66v.94q0 1.24-.1 1.85-.1.61-.51 1.13-.41.51-1.13.8-.72.29-1.67.29-1.19 0-1.95-.33-.76-.33-1.18-.94-.41-.62-.48-1.3-.07-.68-.07-2.64v-1.65q0-2.11.06-2.82.07-.72.51-1.35.45-.64 1.21-.95.77-.32 1.78-.32 1.24 0 2.04.4.8.4 1.14 1.13.34.73.34 1.84zm-2.95 3.69q0-.63-.14-.86-.14-.23-.45-.23-.31 0-.45.23-.14.22-.14.87v2.14q0 .78.13 1.02.14.24.45.24.19 0 .39-.18.2-.19.2-1.01z"/><path d="m119.25.04q.67.23 1 .75.33.51.33 2.41 0 1.41-.32 2.19-.32.77-1.11 1.18-.79.4-2.02.4-1.4 0-2.21-.47-.8-.48-1.05-1.15-.25-.69-.25-2.38v-.92h2.95v1.92q0 .77.09.98.1.2.41.2.34 0 .45-.26.11-.26.11-1.37v-.82q0-.68-.15-.99-.15-.31-.45-.41-.3-.1-1.16-.12v-1.72q1.05 0 1.3-.08.25-.08.36-.35.11-.27.11-.85v-.66q0-.62-.13-.82-.12-.2-.39-.2-.31 0-.42.21-.11.2-.11.88v.97h-2.95v-1.01q0-1.7.77-2.29.77-.6 2.46-.6 2.11 0 2.86.83.75.83.75 2.29 0 .99-.27 1.44-.27.44-.95.8z"/></g></svg>