<svg height="84" viewBox="0 0 126 84" width="126" xmlns="http://www.w3.org/2000/svg"><linearGradient id="a" gradientUnits="userSpaceOnUse" spreadMethod="reflect" x1="103.88" x2="122.06" y1="10.76" y2="51.92"><stop offset="0" stop-color="#e0e0e0"/><stop offset="1" stop-color="#757575"/></linearGradient><linearGradient id="b" gradientUnits="userSpaceOnUse" x1="60.44" x2="57.2" y1="78.14" y2="60.74"><stop offset="0" stop-color="#004d0a"/><stop offset="1" stop-color="#179731"/></linearGradient><linearGradient id="c" gradientUnits="userSpaceOnUse" spreadMethod="reflect" x1="31.26" x2="32.98" y1="52.83" y2="65.28"><stop offset="0" stop-color="#a2a2a2"/><stop offset="1" stop-color="#eee"/></linearGradient><linearGradient id="d" gradientUnits="userSpaceOnUse" spreadMethod="reflect" x1="102.67" x2="105.91" y1="-8.57" y2="-.38"><stop offset="0" stop-color="#002580"/><stop offset="1" stop-color="#3042e4"/></linearGradient><path d="m10.16 6.35c-.81 0-1.61.16-2.35.47-.75.31-1.42.76-1.99 1.33s-1.03 1.25-1.34 1.99c-.3.75-.46 1.55-.46 2.35v39.35h117.97v-39.35c0-.8-.16-1.6-.47-2.35-.31-.74-.76-1.42-1.33-1.99s-1.25-1.02-1.99-1.33c-.75-.31-1.55-.47-2.35-.47z" fill="url(#a)" stroke="#898989"/><path d="m4.01 52.84v18.67c0 3.39 2.75 6.14 6.14 6.14h105.69c3.4 0 6.14-2.75 6.14-6.14v-18.67z" fill="url(#b)" stroke="#075a17"/><g fill="url(#c)"><path d="m25.89 59.3h3.02l3.09 8.61 3.09-8.61h3.02l-4.32 11.67h-3.58z"/><path d="m44.4 59.3h3.01v11.66h-3.01z"/><path d="m58.1 61.58v7.12h1.08q1.84 0 2.81-.91.98-.91.98-2.66 0-1.73-.97-2.64-.97-.91-2.82-.91zm-3.01-2.28h3.17q2.66 0 3.95.38 1.3.38 2.23 1.28.82.79 1.22 1.82.4 1.03.4 2.34 0 1.32-.4 2.36-.4 1.03-1.22 1.82-.94.91-2.25 1.29-1.31.38-3.94.38h-3.16z"/><path d="m73.12 59.3h8.12v2.27h-5.11v2.17h4.8v2.27h-4.8v2.67h5.28v2.27h-8.29z"/><path d="m94.11 61.27q-1.38 0-2.13 1.02-.76 1.02-.76 2.86 0 1.84.76 2.85.76 1.02 2.13 1.02 1.38 0 2.14-1.02.76-1.02.76-2.85 0-1.84-.76-2.86-.76-1.02-2.14-1.02zm0-2.18q2.81 0 4.41 1.61 1.59 1.61 1.59 4.45 0 2.83-1.59 4.44-1.59 1.61-4.41 1.61-2.8 0-4.41-1.61-1.59-1.61-1.59-4.44 0-2.84 1.59-4.45 1.6-1.61 4.41-1.61z"/></g><g fill="url(#d)" stroke-width=".42" transform="matrix(2.41 0 0 2.41 -188.56 27.6)"><path d="m94.79-5.09v7.91q0 1.78-.04 2.29-.04.5-.34.91-.29.41-.8.57-.5.15-1.53.15h-1.54v-2.06q.28.02.4.02.33 0 .52-.16.19-.16.22-.39.03-.23.03-.91v-8.32z"/><path d="m96.6-5.09h3.1q1.26 0 1.93.2.68.2 1.02.57.34.37.46.91.12.53.12 1.64v1.03q0 1.13-.23 1.65-.23.52-.86.8-.62.28-1.63.28h-.83v4.77h-3.08zm3.08 2.02v3.01q.13.01.23.01.42 0 .58-.2.17-.21.17-.87v-.97q0-.61-.19-.79-.19-.18-.79-.18z"/><path d="m104.74-5.09h5.13v2.37h-2.05v2.24h1.92v2.26h-1.92v2.6h2.26v2.37h-5.34z"/><path d="m118.64-.73h-3.08v-1.08q0-1.02-.09-1.27-.09-.26-.42-.26-.29 0-.39.22-.1.22-.1 1.13v5.68q0 .8.1 1.05.1.25.41.25.34 0 .45-.29.12-.29.12-1.11v-1.4h-.62v-1.8h3.6v6.36h-1.94l-.29-.85q-.31.55-.8.83-.48.27-1.13.27-.77 0-1.45-.37-.67-.38-1.02-.94-.35-.56-.44-1.16-.09-.61-.09-1.83v-3.52q0-1.7.18-2.46.18-.77 1.05-1.4.87-.64 2.24-.64 1.35 0 2.24.56.89.56 1.16 1.32.27.76.27 2.21z"/></g></svg>