<svg height="84" viewBox="0 0 126 84" width="126" xmlns="http://www.w3.org/2000/svg"><linearGradient id="a" gradientUnits="userSpaceOnUse" spreadMethod="reflect" x1="103.88" x2="122.06" y1="10.76" y2="51.92"><stop offset="0" stop-color="#e0e0e0"/><stop offset="1" stop-color="#757575"/></linearGradient><linearGradient id="b" gradientUnits="userSpaceOnUse" x1="60.44" x2="57.2" y1="78.14" y2="60.74"><stop offset="0" stop-color="#004d0a"/><stop offset="1" stop-color="#179731"/></linearGradient><linearGradient id="c" gradientUnits="userSpaceOnUse" spreadMethod="reflect" x1="31.26" x2="32.98" y1="52.83" y2="65.28"><stop offset="0" stop-color="#a2a2a2"/><stop offset="1" stop-color="#eee"/></linearGradient><linearGradient id="d" gradientUnits="userSpaceOnUse" spreadMethod="reflect" x1="98.97" x2="104.83" y1="-10.13" y2=".29"><stop offset="0" stop-color="#002580"/><stop offset="1" stop-color="#3042e4"/></linearGradient><path d="m10.16 6.35c-.81 0-1.61.16-2.35.47-.75.31-1.42.76-1.99 1.33s-1.03 1.25-1.34 1.99c-.3.75-.46 1.55-.46 2.35v39.35h117.97v-39.35c0-.8-.16-1.6-.47-2.35-.31-.74-.76-1.42-1.33-1.99s-1.25-1.02-1.99-1.33c-.75-.31-1.55-.47-2.35-.47z" fill="url(#a)" stroke="#898989"/><path d="m4.01 52.84v18.67c0 3.39 2.75 6.14 6.14 6.14h105.69c3.4 0 6.14-2.75 6.14-6.14v-18.67z" fill="url(#b)" stroke="#075a17"/><g fill="url(#c)"><path d="m25.89 59.3h3.02l3.09 8.61 3.09-8.61h3.02l-4.32 11.67h-3.58z"/><path d="m44.4 59.3h3.01v11.66h-3.01z"/><path d="m58.1 61.58v7.12h1.08q1.84 0 2.81-.91.98-.91.98-2.66 0-1.73-.97-2.64-.97-.91-2.82-.91zm-3.01-2.28h3.17q2.66 0 3.95.38 1.3.38 2.23 1.28.82.79 1.22 1.82.4 1.03.4 2.34 0 1.32-.4 2.36-.4 1.03-1.22 1.82-.94.91-2.25 1.29-1.31.38-3.94.38h-3.16z"/><path d="m73.12 59.3h8.12v2.27h-5.11v2.17h4.8v2.27h-4.8v2.67h5.28v2.27h-8.29z"/><path d="m94.11 61.27q-1.38 0-2.13 1.02-.76 1.02-.76 2.86 0 1.84.76 2.85.76 1.02 2.13 1.02 1.38 0 2.14-1.02.76-1.02.76-2.85 0-1.84-.76-2.86-.76-1.02-2.14-1.02zm0-2.18q2.81 0 4.41 1.61 1.59 1.61 1.59 4.45 0 2.83-1.59 4.44-1.59 1.61-4.41 1.61-2.8 0-4.41-1.61-1.59-1.61-1.59-4.44 0-2.84 1.59-4.45 1.6-1.61 4.41-1.61z"/></g><g fill="url(#d)" stroke-width=".42" transform="matrix(2.41 0 0 2.41 -188.56 27.6)"><path d="m93.3-3.77v10.52h-2.39v-7.1l-.96 7.1h-1.7l-1-6.94v6.94h-2.39v-10.52h3.54q.16.95.33 2.23l.38 2.68.62-4.91z"/><path d="m98.16 1.53v1.81h-3.45v-1.81z"/><path d="m102.91-3.77v7.03q0 1.58-.03 2.03-.03.45-.3.81-.26.36-.71.51-.45.14-1.36.14h-1.38v-1.84q.25.02.36.02.29 0 .46-.14.17-.14.19-.35.03-.21.03-.81v-7.4z"/><path d="m104.59-3.77h2.75q1.12 0 1.72.18.6.18.9.51.31.33.41.81.11.47.11 1.46v.92q0 1.01-.21 1.47-.21.46-.77.71-.55.25-1.45.25h-.73v4.24h-2.74zm2.74 1.8v2.68q.12.01.2.01.38 0 .52-.18.15-.19.15-.77v-.88q0-.54-.17-.7-.17-.16-.7-.16z"/><path d="m111.89-3.77h4.56v2.1h-1.83v1.99h1.71v2.01h-1.71v2.31h2.01v2.1h-4.74z"/><path d="m124.32.1h-2.74v-.95q0-.9-.08-1.13-.08-.23-.37-.23-.25 0-.34.19-.09.19-.09 1v5.05q0 .71.09.94.09.22.36.22.3 0 .4-.25.11-.25.11-.99v-1.25h-.55v-1.6h3.2v5.65h-1.72l-.25-.75q-.28.49-.71.73-.42.24-1 .24-.69 0-1.29-.33-.6-.34-.91-.83-.31-.49-.39-1.03-.08-.55-.08-1.63v-3.13q0-1.51.16-2.19.16-.68.93-1.25.77-.57 1.99-.57 1.2 0 1.99.49.79.49 1.03 1.18.24.68.24 1.97z"/></g></svg>