<svg viewBox="0 0 126 84" xmlns="http://www.w3.org/2000/svg"><linearGradient id="a" gradientUnits="userSpaceOnUse" spreadMethod="reflect" x1="103.88" x2="122.06" y1="10.76" y2="51.92"><stop offset="0" stop-color="#e0e0e0"/><stop offset="1" stop-color="#757575"/></linearGradient><linearGradient id="b" gradientUnits="userSpaceOnUse" x1="60.44" x2="57.2" y1="78.14" y2="60.74"><stop offset="0" stop-color="#004d0a"/><stop offset="1" stop-color="#179731"/></linearGradient><linearGradient id="c" gradientUnits="userSpaceOnUse" spreadMethod="reflect" x1="19.23" x2="27.19" y1="19.78" y2="33.65"><stop offset="0" stop-color="#002580"/><stop offset="1" stop-color="#3042e4"/></linearGradient><linearGradient id="d" gradientUnits="userSpaceOnUse" spreadMethod="reflect" x1="105.41" x2="103.33" y1="68.33" y2="54.19"><stop offset="0" stop-color="#a2a2a2"/><stop offset="1" stop-color="#eee"/></linearGradient><path d="m10.16 6.35a6.09 6.09 0 0 0 -4.34 1.8 6.23 6.23 0 0 0 -1.34 1.99c-.3.75-.46 1.55-.46 2.35v39.35h117.97v-39.35a6.16 6.16 0 0 0 -6.14-6.14z" fill="url(#a)" stroke="#898989"/><path d="m4.01 52.84v18.67a6.14 6.14 0 0 0 6.14 6.14h105.69c3.4 0 6.14-2.75 6.14-6.14v-18.67z" fill="url(#b)" stroke="#075a17"/><path d="m8.99 37.8v1.02h-1.66q-.6 0-.84-.1-.25-.08-.34-.26-.08-.18-.08-.66-.75-.02-1.28-.39-.54-.37-.71-.94-.17-.57-.17-1.7v-2.61q0-.86.1-1.31.1-.45.42-.85.32-.4.82-.6t1.1-.2q.74 0 1.31.24.58.25.86.64.29.38.37.8.1.41.1 1.23v2.74q0 1.12-.12 1.52-.1.4-.42.65-.3.23-.82.35.01.29.11.36t.49.07zm-2.2-6.26q0-.6-.07-.75-.06-.17-.27-.17-.17 0-.26.14-.09.13-.09.78v3.93q0 .74.06.91.06.17.28.17.22 0 .29-.2t.06-.94zm7.77-.65v6.91h-2.14l.03-.57q-.21.35-.54.52-.31.18-.73.18-.48 0-.79-.17t-.46-.44q-.15-.28-.18-.58-.04-.3-.04-1.19v-4.65h2.1v4.7q0 .81.05.96.05.15.27.15.24 0 .28-.15.04-.16.04-1v-4.66zm2.94-1.52v1.1h-2.18v-1.1zm0 1.52v6.91h-2.18v-6.9zm5.4 2.61h-2v-.8q0-.41-.06-.56-.07-.15-.25-.15t-.24.13q-.07.13-.07.58v3.26q0 .37.1.56.09.18.27.18.22 0 .29-.19.08-.2.08-.73v-.82h1.87q0 .83-.06 1.24-.05.41-.35.85-.3.43-.77.66-.47.22-1.17.22-.89 0-1.4-.3-.53-.31-.75-.86-.21-.55-.21-1.56v-1.97q0-.88.18-1.32.17-.45.75-.8.58-.35 1.4-.35.83 0 1.41.34.59.35.78.88.2.54.2 1.51zm5.14-2.61-.85 2.76 1.1 4.15h-2.02l-.65-3v3h-2.1v-8.43h2.1v3.54l.65-2.02zm5.06-1.52v1.69h-1.3v6.74h-2.2v-6.74h-1.3v-1.69zm2.6 0v1.1h-2.17v-1.1zm0 1.52v6.91h-2.17v-6.9zm2.83 0-.04.66q.25-.4.58-.59.34-.2.78-.2.84 0 1.32.79.27-.4.6-.59.34-.2.74-.2.54 0 .89.27.35.26.45.64.1.37.1 1.22v4.91h-2.04v-4.5q0-.89-.06-1.1-.06-.21-.28-.21-.22 0-.3.2-.05.22-.05 1.1v4.51h-2.05v-4.39q0-1.01-.05-1.22-.05-.2-.27-.2-.14 0-.24.1-.1.11-.1.27-.02.15-.02.65v4.8h-2.04v-6.92zm10.92 3.58h-2.73v1.5q0 .46.07.6.07.13.26.13.24 0 .32-.17.08-.19.08-.7v-.91h2v.5q0 .65-.09 1-.08.34-.37.73-.3.39-.76.58-.45.2-1.14.2-.67 0-1.18-.2-.5-.19-.8-.52-.27-.34-.38-.74-.11-.4-.11-1.18v-2.01q0-.91.24-1.43.25-.53.8-.8.56-.28 1.28-.28.89 0 1.46.33.58.34.81.9.23.55.23 1.55zm-2.11-1.13v-.5q0-.54-.06-.7t-.24-.15q-.21 0-.27.14-.05.13-.05.7v.51zm10.93-9.24v2.99l-2.17 10.71h-3.4l2.43-11.24h-3.38v-2.46z" fill="url(#c)" transform="matrix(1.85 0 0 1.85 5.88 -27.98)"/><path d="m17 59.29h3.34l2.33 5.46 2.33-5.46h3.35v10.2h-2.5v-7.46l-2.34 5.5h-1.67l-2.35-5.5v7.46h-2.5zm13.93 0h4.36q1.95 0 2.99.87 1.05.86 1.05 2.46t-1.05 2.47q-1.04.86-2.99.86h-1.73v3.54h-2.63zm2.63 1.9v2.85h1.44q.77 0 1.19-.36.41-.38.41-1.06t-.41-1.06q-.42-.37-1.19-.37zm7.63-1.9h7.1v1.99h-4.47v1.9h4.2v1.99h-4.2v2.33h4.62v2h-7.25zm18.73 9.44q-.98.48-2.04.72t-2.19.24q-2.55 0-4.04-1.42-1.49-1.43-1.49-3.87 0-2.47 1.52-3.88t4.16-1.42q1.01 0 1.94.2.94.19 1.77.56v2.11q-.86-.48-1.7-.72-.85-.24-1.7-.24-1.57 0-2.42.88-.85.88-.85 2.51 0 1.62.82 2.5.82.88 2.33.88.41 0 .76-.04.36-.06.64-.17v-1.97h-1.6v-1.76h4.1zm1.79-4.26h4.3v1.99h-4.3zm10.21-3.02-2.88 4.28h2.88zm-.44-2.16h2.93v6.44h1.45v1.9h-1.45v1.86h-2.49v-1.86h-4.53v-2.25zm8.62 0h1.52l-3.6 11.5h-1.52zm9 8.34h-4.12l-.65 1.86h-2.63l3.78-10.2h3.14l3.78 10.2h-2.65zm-3.46-1.89h2.8l-1.4-4.06zm5.93-6.45h2.65l2.7 7.53 2.7-7.53h2.65l-3.78 10.2h-3.14zm20.15 9.64q-.72.38-1.51.57-.79.2-1.64.2-2.55 0-4.04-1.43-1.5-1.43-1.5-3.87 0-2.45 1.5-3.87 1.49-1.43 4.04-1.43.85 0 1.64.2.79.19 1.51.56v2.11q-.73-.5-1.44-.73-.71-.23-1.5-.23-1.4 0-2.21.9t-.81 2.5q0 1.57.8 2.47t2.22.9q.79 0 1.5-.23.7-.23 1.44-.73z" fill="url(#d)" transform="translate(-1.36 .57)"/></svg>