<svg viewBox="0 0 126 84" xmlns="http://www.w3.org/2000/svg"><linearGradient id="a" gradientUnits="userSpaceOnUse" spreadMethod="reflect" x1="103.88" x2="122.06" y1="10.76" y2="51.92"><stop offset="0" stop-color="#e0e0e0"/><stop offset="1" stop-color="#757575"/></linearGradient><linearGradient id="b" gradientUnits="userSpaceOnUse" x1="60.44" x2="57.2" y1="78.14" y2="60.74"><stop offset="0" stop-color="#004d0a"/><stop offset="1" stop-color="#179731"/></linearGradient><linearGradient id="c" gradientUnits="userSpaceOnUse" spreadMethod="reflect" x1="96.45" x2="87.76" y1="69.72" y2="49.94"><stop offset="0" stop-color="#a2a2a2"/><stop offset="1" stop-color="#eee"/></linearGradient><linearGradient id="d" gradientUnits="userSpaceOnUse" spreadMethod="reflect" x1="25.35" x2="36.59" y1="2.96" y2="20.26"><stop offset="0" stop-color="#002580"/><stop offset="1" stop-color="#3042e4"/></linearGradient><path d="m10.16 6.35a6.09 6.09 0 0 0 -4.34 1.8 6.23 6.23 0 0 0 -1.34 1.99c-.3.75-.46 1.55-.46 2.35v39.35h117.97v-39.35a6.16 6.16 0 0 0 -6.14-6.14z" fill="url(#a)" stroke="#898989"/><path d="m4.01 52.84v18.67a6.14 6.14 0 0 0 6.14 6.14h105.69c3.4 0 6.14-2.75 6.14-6.14v-18.67z" fill="url(#b)" stroke="#075a17"/><path d="m25.91 58.43h3.4l3.48 9.69 3.48-9.69h3.4l-4.87 13.13h-4.04zm18.49 0h3.4v13.13h-3.4zm13.09 2.57v8h1.21q2.08 0 3.17-1.03 1.1-1.03 1.1-2.99 0-1.95-1.1-2.97t-3.17-1.02zm-3.38-2.57h3.56q3 0 4.45.43 1.47.43 2.51 1.45.93.88 1.38 2.04.44 1.16.44 2.63 0 1.49-.44 2.66-.45 1.16-1.38 2.04-1.05 1.02-2.53 1.45-1.47.43-4.43.43h-3.56zm17.94 0h9.13v2.57h-5.75v2.44h5.4v2.56h-5.4v3h5.94v2.57h-9.32zm21.29 2.22q-1.55 0-2.4 1.14t-.85 3.22q0 2.06.85 3.2t2.4 1.15q1.55 0 2.4-1.14t.86-3.22q0-2.08-.85-3.22t-2.41-1.14zm0-2.45q3.16 0 4.95 1.8 1.8 1.82 1.8 5 0 3.19-1.8 5-1.79 1.81-4.95 1.81t-4.96-1.8q-1.8-1.82-1.8-5 0-3.2 1.8-5 1.8-1.81 4.96-1.81z" fill="url(#c)"/><g fill="url(#d)" transform="matrix(1.13 0 0 1.13 18.07 9.26)"><path d="m22.35 7.6a5.9 5.9 0 0 0 -2.3.45 8.2 8.2 0 0 0 -2.39 1.61 2.72 2.72 0 0 0 -1.2-1.52 3.76 3.76 0 0 0 -2.01-.54c-1.66 0-3.14.69-4.47 2.07l-.05-.06.38-1.73h-4.31l-2.59 12.08h4.66l1.24-5.8a4.65 4.65 0 0 1 1.16-2.45c.52-.48 1.02-.72 1.48-.72.63 0 .93.3.93.92 0 .13 0 .31-.03.56-.04.27-.21 1.07-.49 2.42l-1.1 5.06h4.66l1.14-5.36a6.75 6.75 0 0 1 1.07-2.73 2.08 2.08 0 0 1 1.72-.87c.6 0 .88.32.88.95 0 .09-.01.27-.04.52-.04.25-.18 1.02-.47 2.34l-1.11 5.15-2.1 9.77h4.65l1.34-6.22a4.33 4.33 0 0 0 3.83 1.9 4.9 4.9 0 0 0 4.12-2.28 8.96 8.96 0 0 0 1.63-5.36 5.7 5.7 0 0 0 -1.07-3.65 3.8 3.8 0 0 0 -3.13-1.35c-.73 0-1.36.1-1.89.32-.42.16-.9.47-1.43.91l.42-1.96c.1-.47.16-.95.16-1.43 0-.83-.28-1.54-.83-2.12-.54-.57-1.36-.88-2.45-.88zm29.34 5.16c-1.77 0-3.22.71-4.38 2.13a7.55 7.55 0 0 0 -1.26 2.2c.04.24.05.49.05.74 0 .47-.1 1.28-.31 2.43h-.19a4.98 4.98 0 0 0 1.1 3.08 3.6 3.6 0 0 0 2.93 1.31c1.37 0 2.56-.53 3.59-1.6l.03.04-.39 1.81a3.55 3.55 0 0 1 -.83 1.76c-.36.38-.82.58-1.39.58-.85 0-1.3-.4-1.35-1.23l-4.4-.62c-.02.1-.02.29-.02.55 0 .83.26 1.59.81 2.3.55.72 1.2 1.18 1.96 1.41s1.84.34 3.21.34c1.97 0 3.47-.38 4.5-1.12 1.03-.75 1.79-2.25 2.26-4.5l2.4-11.33h-4.29l-.36 1.7a4.38 4.38 0 0 0 -3.67-1.98zm-26.72 1.3-.09.08a1.63 1.63 0 0 1 .1-.08zm1.51 1.72c.44 0 .8.17 1.12.5.31.33.46.85.46 1.6a6.2 6.2 0 0 1 -.73 3.11c-.48.85-1.06 1.29-1.74 1.29-.46 0-.87-.17-1.23-.53-.36-.34-.54-.88-.54-1.59a9.3 9.3 0 0 1 .02-.61l.33-1.51c.1-.28.21-.55.34-.82.46-.95 1.12-1.44 1.97-1.44zm26.26.05c.44 0 .82.16 1.13.49.3.31.45.73.45 1.23a6.1 6.1 0 0 1 -.64 2.6c-.44.93-1.08 1.4-1.93 1.4a1.6 1.6 0 0 1 -1.19-.5 1.9 1.9 0 0 1 -.45-1.33c0-.99.26-1.88.78-2.68.53-.81 1.15-1.2 1.85-1.2z"/><path d="m45.37 22a5.96 5.96 0 0 1 -2.64 2.59 9.4 9.4 0 0 1 -4.1.8c-2.37 0-4.06-.54-5.06-1.62a5.53 5.53 0 0 1 -1.51-3.93 6.9 6.9 0 0 1 2.61-5.44 6.63 6.63 0 0 1 2.38-1.3 9.73 9.73 0 0 1 2.74-.34c2.26 0 3.87.49 4.84 1.47a4.86 4.86 0 0 1 1.47 3.6c0 .47-.1 1.28-.31 2.43h-9.2c.13 1.61.85 2.41 2.18 2.41.89 0 1.6-.35 2.14-1.09zm-3.86-3.99c.05-.17.08-.4.08-.7 0-.6-.19-1.07-.55-1.38a2.03 2.03 0 0 0 -1.37-.48c-.56 0-1.09.23-1.56.65a3.87 3.87 0 0 0 -1.09 1.9z"/><path d="m74.58 27.88-7.56-.38.35-2.78 1.55-.4 1.87-10.75-3.89 2.3.7-3.9 5.6-3.57 2.64.13-2.73 16.29 1.94.57z"/></g></svg>