<svg viewBox="0 0 126 84" xmlns="http://www.w3.org/2000/svg"><linearGradient id="a" gradientUnits="userSpaceOnUse" spreadMethod="reflect" x1="103.88" x2="122.06" y1="10.76" y2="51.92"><stop offset="0" stop-color="#e0e0e0"/><stop offset="1" stop-color="#757575"/></linearGradient><linearGradient id="b" gradientUnits="userSpaceOnUse" x1="60.44" x2="57.2" y1="78.14" y2="60.74"><stop offset="0" stop-color="#004d0a"/><stop offset="1" stop-color="#179731"/></linearGradient><linearGradient id="c" gradientUnits="userSpaceOnUse" spreadMethod="reflect" x1="17.73" x2="25.52" y1="27.43" y2="38.94"><stop offset="0" stop-color="#002580"/><stop offset="1" stop-color="#3042e4"/></linearGradient><linearGradient id="d" gradientUnits="userSpaceOnUse" spreadMethod="reflect" x1="25.6" x2="38.9" y1="47.74" y2="73.31"><stop offset="0" stop-color="#a2a2a2"/><stop offset="1" stop-color="#eee"/></linearGradient><path d="m10.16 6.35a6.09 6.09 0 0 0 -4.34 1.8 6.23 6.23 0 0 0 -1.34 1.99c-.3.75-.46 1.55-.46 2.35v39.35h117.97v-39.35a6.16 6.16 0 0 0 -6.14-6.14z" fill="url(#a)" stroke="#898989"/><path d="m4.01 52.84v18.67a6.14 6.14 0 0 0 6.14 6.14h105.69c3.4 0 6.14-2.75 6.14-6.14v-18.67z" fill="url(#b)" stroke="#075a17"/><path d="m22.26 32.57q.72.24 1.07.8.35.54.35 2.58 0 1.5-.34 2.34-.34.83-1.19 1.27-.84.43-2.16.43-1.5 0-2.36-.5-.85-.51-1.13-1.24-.26-.73-.26-2.54v-1h3.15v2.06q0 .82.1 1.04.1.22.44.22.36 0 .48-.28t.12-1.47v-.87q0-.73-.17-1.07-.16-.33-.48-.43-.32-.11-1.24-.13v-1.83q1.12 0 1.39-.09t.38-.37q.12-.3.12-.91v-.7q0-.67-.14-.88-.14-.21-.43-.21-.32 0-.45.23-.12.22-.12.94v1.04h-3.15v-1.08q0-1.81.83-2.44.82-.64 2.63-.64 2.26 0 3.06.88.8.88.8 2.45 0 1.07-.28 1.54-.3.47-1.02.86zm8.64-5.48v1.65h-3.25v-1.65zm0 2.28v10.37h-3.25v-10.37zm10.46 0-1.48 10.36h-4.12l-1.58-10.36h2.82l.88 7.56q.1-.83.34-4.06.14-1.8.32-3.5zm9.54 0-1.26 4.95 1.52 5.42h-3.06q-.45-2.05-.69-3.53-.31 1.85-.68 3.53h-2.64l1.36-5.42-1.36-4.95h2.64q.64 3.17.68 3.6.46-2.65.69-3.6z" fill="url(#c)" transform="matrix(2.16 0 0 2.16 -9.63 -42.67)"/><path d="m15.38 60.2h3.35l2.33 5.46 2.34-5.46h3.34v10.2h-2.49v-7.46l-2.35 5.5h-1.67l-2.35-5.5v7.46h-2.5zm13.94 0h4.36q1.95 0 3 .87 1.04.86 1.04 2.46t-1.05 2.47q-1.04.86-2.99.86h-1.73v3.54h-2.63zm2.63 1.9v2.86h1.45q.77 0 1.19-.37.41-.38.41-1.06 0-.69-.41-1.06t-1.19-.36zm7.63-1.9h7.1v1.99h-4.48v1.9h4.2v1.99h-4.2v2.33h4.62v2h-7.25zm18.73 9.45q-.98.47-2.04.71t-2.19.24q-2.55 0-4.04-1.42-1.49-1.43-1.49-3.87 0-2.47 1.52-3.88 1.52-1.43 4.16-1.43 1.01 0 1.94.2.94.19 1.77.56v2.12q-.86-.49-1.7-.73t-1.7-.24q-1.56 0-2.42.88-.85.88-.85 2.51 0 1.62.82 2.5.82.89 2.33.89.41 0 .76-.05.36-.06.64-.17v-1.97h-1.6v-1.76h4.1zm1.79-4.27h4.3v1.99h-4.3zm10.21-3.01-2.88 4.27h2.88zm-.44-2.17h2.93v6.44h1.46v1.9h-1.46v1.86h-2.5v-1.86h-4.5v-2.24zm8.63 0h1.5l-3.6 11.5h-1.5zm8.99 8.35h-4.12l-.64 1.85h-2.65l3.78-10.2h3.14l3.78 10.2h-2.65zm-3.46-1.9h2.8l-1.4-4.06zm15.2-6.13v2.16q-.84-.38-1.64-.57-.8-.19-1.5-.19-.95 0-1.4.26-.45.26-.45.8 0 .42.3.65.3.23 1.1.39l1.13.23q1.7.34 2.42 1.03.71.7.71 1.99 0 1.69-1 2.51-1 .82-3.06.82-.97 0-1.94-.18-.98-.19-1.96-.55v-2.22q.98.52 1.89.79.91.26 1.76.26.86 0 1.32-.3.46-.28.46-.81 0-.48-.32-.74-.3-.26-1.23-.46l-1.02-.23q-1.53-.33-2.24-1.05-.7-.71-.7-1.93 0-1.53.98-2.35.98-.82 2.83-.82.84 0 1.73.13.88.13 1.83.38zm2.98-.32h4.37q1.95 0 2.99.87 1.04.86 1.04 2.46t-1.04 2.47q-1.04.86-3 .86h-1.73v3.54h-2.63zm2.63 1.9v2.86h1.46q.76 0 1.18-.37.42-.38.42-1.06 0-.69-.42-1.06-.42-.36-1.18-.36z" fill="url(#d)"/></svg>