<svg viewBox="0 0 126 84" xmlns="http://www.w3.org/2000/svg"><linearGradient id="a" gradientUnits="userSpaceOnUse" spreadMethod="reflect" x1="103.88" x2="122.06" y1="10.76" y2="51.92"><stop offset="0" stop-color="#e0e0e0"/><stop offset="1" stop-color="#757575"/></linearGradient><linearGradient id="b" gradientUnits="userSpaceOnUse" x1="60.44" x2="57.2" y1="78.14" y2="60.74"><stop offset="0" stop-color="#004d0a"/><stop offset="1" stop-color="#179731"/></linearGradient><linearGradient id="c" gradientUnits="userSpaceOnUse" spreadMethod="reflect" x1="105.41" x2="103.33" y1="68.33" y2="54.19"><stop offset="0" stop-color="#a2a2a2"/><stop offset="1" stop-color="#eee"/></linearGradient><linearGradient id="d" gradientUnits="userSpaceOnUse" spreadMethod="reflect" x1="-6.22" x2="10.77" y1="-22.25" y2="-6.3"><stop offset="0" stop-color="#002580"/><stop offset="1" stop-color="#3042e4"/></linearGradient><path d="m10.16 6.35a6.09 6.09 0 0 0 -4.34 1.8 6.23 6.23 0 0 0 -1.34 1.99c-.3.75-.46 1.55-.46 2.35v39.35h117.97v-39.35a6.16 6.16 0 0 0 -6.14-6.14z" fill="url(#a)" stroke="#898989"/><path d="m4.01 52.84v18.67a6.14 6.14 0 0 0 6.14 6.14h105.69c3.4 0 6.14-2.75 6.14-6.14v-18.67z" fill="url(#b)" stroke="#075a17"/><path d="m17 59.29h3.34l2.33 5.46 2.33-5.46h3.35v10.2h-2.5v-7.46l-2.34 5.5h-1.67l-2.35-5.5v7.46h-2.5zm13.93 0h4.36q1.95 0 2.99.87 1.05.86 1.05 2.46t-1.05 2.47q-1.04.86-2.99.86h-1.73v3.54h-2.63zm2.63 1.9v2.85h1.44q.77 0 1.19-.36.41-.38.41-1.06t-.41-1.06q-.42-.37-1.19-.37zm7.63-1.9h7.1v1.99h-4.47v1.9h4.2v1.99h-4.2v2.33h4.62v2h-7.25zm18.73 9.44q-.98.48-2.04.72t-2.19.24q-2.55 0-4.04-1.42-1.49-1.43-1.49-3.87 0-2.47 1.52-3.88t4.16-1.42q1.01 0 1.94.2.94.19 1.77.56v2.11q-.86-.48-1.7-.72-.85-.24-1.7-.24-1.57 0-2.42.88-.85.88-.85 2.51 0 1.62.82 2.5.82.88 2.33.88.41 0 .76-.04.36-.06.64-.17v-1.97h-1.6v-1.76h4.1zm1.79-4.26h4.3v1.99h-4.3zm10.21-3.02-2.88 4.28h2.88zm-.44-2.16h2.93v6.44h1.45v1.9h-1.45v1.86h-2.49v-1.86h-4.53v-2.25zm8.62 0h1.52l-3.6 11.5h-1.52zm9 8.34h-4.12l-.65 1.86h-2.63l3.78-10.2h3.14l3.78 10.2h-2.65zm-3.46-1.89h2.8l-1.4-4.06zm5.93-6.45h2.65l2.7 7.53 2.7-7.53h2.65l-3.78 10.2h-3.14zm20.15 9.64q-.72.38-1.51.57-.79.2-1.64.2-2.55 0-4.04-1.43-1.5-1.43-1.5-3.87 0-2.45 1.5-3.87 1.49-1.43 4.04-1.43.85 0 1.64.2.79.19 1.51.56v2.11q-.73-.5-1.44-.73-.71-.23-1.5-.23-1.4 0-2.21.9t-.81 2.5q0 1.57.8 2.47t2.22.9q.79 0 1.5-.23.7-.23 1.44-.73z" fill="url(#c)" transform="translate(-1.36)"/><path d="m-7.74-13.18v9.49h-2.16l-1.28-4.31v4.31h-2.06v-9.49h2.06l1.38 4.28v-4.28zm6.28 5.74h-3.07v1.68q0 .53.08.68t.3.15q.26 0 .35-.2.1-.2.1-.78v-1.03h2.24v.58q0 .72-.1 1.1-.08.4-.42.83-.33.44-.85.66-.5.22-1.28.22-.75 0-1.32-.22t-.9-.59q-.32-.38-.44-.83-.12-.46-.12-1.32v-2.27q0-1.02.27-1.6.28-.6.9-.9.63-.33 1.45-.33 1 0 1.64.39.65.37.9 1 .27.62.27 1.75zm-2.37-1.26v-.57q0-.6-.07-.78-.06-.18-.26-.18-.25 0-.3.15-.07.15-.07.8v.58zm5.52-2.76-.1 1.01q.52-1.1 1.5-1.16v2.74q-.65 0-.96.18-.3.17-.37.49-.07.3-.07 1.44v3.07h-2.37v-7.78zm7.27 2.73v1.9q0 1.05-.1 1.54t-.45.92q-.35.42-.9.62-.53.2-1.24.2-.78 0-1.33-.17-.54-.17-.85-.52-.3-.35-.42-.84-.13-.5-.13-1.5v-1.98q0-1.09.23-1.7t.85-.98 1.55-.37q.8 0 1.37.24.57.24.88.62t.43.79q.11.4.11 1.23zm-2.36-.59q0-.6-.07-.75-.06-.16-.27-.16-.22 0-.29.16-.07.15-.07.75v3.51q0 .55.07.72.07.16.28.16.21 0 .28-.15.07-.15.07-.65zm5.33-3.86h1.84q1.8 0 2.42.17.63.16.96.54t.4.84q.1.45.1 1.8v3.32q0 1.28-.13 1.71-.12.43-.42.68-.3.24-.74.34-.44.09-1.32.09h-3.11zm2.46 1.63v6.24q.54 0 .66-.21.12-.22.12-1.17v-3.69q0-.64-.04-.82-.04-.18-.18-.27-.15-.08-.56-.08zm6.54-1.63v1.24h-2.44v-1.24zm0 1.71v7.78h-2.44v-7.78zm6.22.01v5.98q0 1.22-.06 1.57-.05.36-.4.75-.33.4-.94.6-.6.21-1.52.21-1.13 0-1.82-.38-.69-.39-.7-1.51h2.29q0 .52.37.52.27 0 .36-.16.09-.16.09-.67v-.58q-.3.27-.65.41-.33.15-.7.15-.64 0-1.05-.26-.41-.26-.57-.68-.15-.42-.15-1.2v-2.82q0-1.1.4-1.59t1.21-.49q.45 0 .81.19.37.18.66.54l.17-.59zm-2.37 2.06q0-.54-.07-.68-.06-.15-.27-.15-.2 0-.29.17-.08.17-.08.66v2.61q0 .52.06.68.07.15.27.15.24 0 .3-.18.08-.2.08-.85zm5.66-3.78v1.24h-2.43v-1.24zm0 1.71v7.78h-2.43v-7.78zm3.34-1.03v1.22h.64v1.23h-.64v4.16q0 .77.08.86.08.09.66.09v1.25h-.95q-.81 0-1.16-.06-.34-.07-.6-.31-.27-.25-.34-.56-.06-.32-.06-1.48v-3.95h-.51v-1.23h.51v-1.22zm3.28 4.05h-2.22v-.52q0-.9.2-1.4.21-.49.84-.86t1.63-.38q1.2 0 1.81.43.61.42.73 1.05.13.61.13 2.54v3.9h-2.3v-.7q-.22.43-.57.64-.34.2-.81.2-.62 0-1.15-.34-.51-.36-.51-1.53v-.64q0-.88.27-1.2t1.37-.73q1.16-.46 1.25-.62.08-.15.08-.64 0-.6-.1-.8-.08-.18-.3-.18-.23 0-.3.16-.05.15-.05.8zm.75 1.06q-.57.42-.66.7-.1.28-.1.8 0 .61.09.79.08.17.31.17.22 0 .29-.13.07-.14.07-.73zm5.62-5.79v9.49h-2.44v-9.49z" fill="url(#d)" transform="matrix(1.79 0 0 1.79 35.96 45.39)"/></svg>