<svg viewBox="0 0 126 84" xmlns="http://www.w3.org/2000/svg"><linearGradient id="a" gradientUnits="userSpaceOnUse" spreadMethod="reflect" x1="103.88" x2="122.06" y1="10.76" y2="51.92"><stop offset="0" stop-color="#e0e0e0"/><stop offset="1" stop-color="#757575"/></linearGradient><linearGradient id="b" gradientUnits="userSpaceOnUse" x1="60.44" x2="57.2" y1="78.14" y2="60.74"><stop offset="0" stop-color="#004d0a"/><stop offset="1" stop-color="#179731"/></linearGradient><linearGradient id="c" gradientUnits="userSpaceOnUse" spreadMethod="reflect" x1="37.73" x2="71.4" y1="51.36" y2="76.06"><stop offset="0" stop-color="#a2a2a2"/><stop offset="1" stop-color="#eee"/></linearGradient><linearGradient id="d" gradientUnits="userSpaceOnUse" spreadMethod="reflect" x1="40.21" x2="46.77" y1="-15.81" y2="-6.41"><stop offset="0" stop-color="#002580"/><stop offset="1" stop-color="#3042e4"/></linearGradient><path d="m10.16 6.35a6.09 6.09 0 0 0 -4.34 1.8 6.23 6.23 0 0 0 -1.34 1.99c-.3.75-.46 1.55-.46 2.35v39.35h117.97v-39.35a6.16 6.16 0 0 0 -6.14-6.14z" fill="url(#a)" stroke="#898989"/><path d="m4.01 52.84v18.67a6.14 6.14 0 0 0 6.14 6.14h105.69c3.4 0 6.14-2.75 6.14-6.14v-18.67z" fill="url(#b)" stroke="#075a17"/><path d="m33.56 59.29h3.35l2.33 5.46 2.34-5.46h3.34v10.2h-2.49v-7.46l-2.35 5.5h-1.68l-2.35-5.5v7.46h-2.5zm13.94 0h4.36q1.95 0 3 .87 1.04.86 1.04 2.46t-1.05 2.47q-1.04.86-2.99.86h-1.73v3.54h-2.63zm2.63 1.9v2.85h1.45q.77 0 1.19-.36.41-.38.41-1.06t-.41-1.06q-.42-.37-1.19-.37zm7.63-1.9h7.1v1.99h-4.47v1.9h4.2v1.99h-4.2v2.33h4.61v2h-7.25zm18.74 9.44q-.99.48-2.05.72-1.06.24-2.19.24-2.55 0-4.04-1.42-1.49-1.43-1.49-3.87 0-2.47 1.52-3.88t4.16-1.42q1.01 0 1.94.2.94.19 1.77.56v2.11q-.86-.48-1.7-.72t-1.7-.24q-1.56 0-2.42.88-.85.88-.85 2.51 0 1.62.82 2.5.82.88 2.33.88.41 0 .76-.04.36-.06.64-.17v-1.97h-1.6v-1.76h4.1zm1.78-4.26h4.3v1.99h-4.3zm10.22-3.02-2.9 4.28h2.9zm-.45-2.16h2.93v6.44h1.46v1.9h-1.46v1.86h-2.49v-1.86h-4.52v-2.25z" fill="url(#c)"/><path d="m43.5-15.81 1.88 12.65h-3.37l-.16-2.28h-1.18l-.2 2.28h-3.4l1.67-12.65zm-1.75 8.13c-.17-1.43-.33-3.2-.5-5.3-.33 2.41-.54 4.18-.62 5.3zm13.15-8.13-1.67 12.65h-5l-1.9-12.65h3.47c.4 3.49.69 6.43.86 8.84.22-3.16.47-5.78.77-8.84zm9.49 5.51h-3.3v-2.2c0-.64-.03-1.04-.1-1.2s-.22-.24-.46-.24c-.27 0-.45.1-.52.3-.07.19-.1.6-.1 1.24v5.88c0 .61.03 1.01.1 1.2s.23.28.5.28c.24 0 .4-.09.47-.28.08-.19.12-.63.12-1.32v-1.58h3.29v.49c0 1.31-.1 2.23-.29 2.78-.18.55-.59 1.03-1.22 1.44s-1.41.61-2.34.61c-.96 0-1.75-.17-2.38-.52s-1.04-.83-1.24-1.45c-.2-.61-.3-1.54-.3-2.78v-3.7c0-.91.03-1.6.09-2.05s.24-.89.55-1.32c.31-.42.74-.75 1.29-.99.55-.25 1.19-.37 1.9-.37.97 0 1.77.19 2.4.57.63.37 1.04.84 1.24 1.4s.3 1.43.3 2.61z" fill="url(#d)" transform="matrix(2.41 0 0 2.41 -59.3 52.18)"/></svg>