<svg viewBox="0 0 126 84" xmlns="http://www.w3.org/2000/svg"><linearGradient id="a" gradientUnits="userSpaceOnUse" spreadMethod="reflect" x1="103.88" x2="122.06" y1="10.76" y2="51.92"><stop offset="0" stop-color="#e0e0e0"/><stop offset="1" stop-color="#757575"/></linearGradient><linearGradient id="b" gradientUnits="userSpaceOnUse" x1="60.44" x2="57.2" y1="78.14" y2="60.74"><stop offset="0" stop-color="#004d0a"/><stop offset="1" stop-color="#179731"/></linearGradient><linearGradient id="c" gradientUnits="userSpaceOnUse" spreadMethod="reflect" x1="14.17" x2="29.44" y1="22.11" y2="37.95"><stop offset="0" stop-color="#002580"/><stop offset="1" stop-color="#3042e4"/></linearGradient><linearGradient id="d" gradientUnits="userSpaceOnUse" spreadMethod="reflect" x1="25.6" x2="38.9" y1="47.43" y2="73"><stop offset="0" stop-color="#a2a2a2"/><stop offset="1" stop-color="#eee"/></linearGradient><path d="m10.16 6.35a6.09 6.09 0 0 0 -4.34 1.8 6.23 6.23 0 0 0 -1.34 1.99c-.3.75-.46 1.55-.46 2.35v39.35h117.97v-39.35a6.16 6.16 0 0 0 -6.14-6.14z" fill="url(#a)" stroke="#898989"/><path d="m4.01 52.84v18.67a6.14 6.14 0 0 0 6.14 6.14h105.69c3.4 0 6.14-2.75 6.14-6.14v-18.67z" fill="url(#b)" stroke="#075a17"/><path d="m9.78 28.46v9.49h-2.16l-1.29-4.31v4.3h-2.06v-9.48h2.06l1.39 4.27v-4.27zm6.27 5.74h-3.05v1.68q0 .53.08.68t.29.15q.27 0 .36-.2.1-.2.1-.78v-1.03h2.23v.58q0 .72-.09 1.1-.09.4-.42.83-.33.44-.85.66-.51.22-1.28.22-.75 0-1.33-.22t-.9-.59q-.31-.38-.43-.83-.13-.46-.13-1.33v-2.26q0-1.02.28-1.6.27-.6.9-.91.63-.32 1.44-.32 1 0 1.64.38.65.38.91 1 .26.63.26 1.76zm-2.37-1.27v-.56q0-.6-.06-.78-.07-.18-.27-.18-.24 0-.3.15t-.06.8v.57zm5.52-2.76-.1 1.02q.52-1.1 1.5-1.16v2.74q-.65 0-.95.18-.3.17-.38.49-.07.3-.07 1.44v3.07h-2.37v-7.78zm7.28 2.73v1.9q0 1.06-.1 1.55-.11.49-.46.91-.34.43-.89.63-.54.2-1.24.2-.79 0-1.33-.17-.55-.18-.85-.52-.3-.35-.43-.85t-.13-1.48v-2q0-1.08.24-1.69t.84-.98 1.56-.37q.8 0 1.37.24.57.24.88.62t.42.78q.12.4.12 1.23zm-2.37-.58q0-.6-.06-.75-.07-.16-.28-.16-.2 0-.28.16-.07.15-.07.75v3.5q0 .56.07.73.07.16.28.16.2 0 .27-.15t.07-.66zm5.33-3.86h1.85q1.79 0 2.41.17.64.16.96.54t.41.83q.09.46.09 1.8v3.33q0 1.28-.13 1.71-.11.43-.41.68-.3.24-.74.34-.44.09-1.32.09h-3.12zm2.47 1.63v6.24q.53 0 .66-.21.12-.22.12-1.17v-3.69q0-.64-.04-.82-.04-.18-.19-.27-.14-.08-.55-.08zm6.53-1.63v1.24h-2.43v-1.24zm0 1.71v7.78h-2.43v-7.78zm6.23 0v6q0 1.2-.06 1.56-.06.35-.4.75t-.94.6q-.6.21-1.53.21-1.13 0-1.81-.39-.69-.38-.71-1.5h2.3q0 .51.37.51.27 0 .36-.15.08-.16.08-.67v-.58q-.3.27-.64.41-.33.14-.7.14-.64 0-1.06-.25-.4-.26-.56-.68-.15-.42-.15-1.2v-2.82q0-1.1.4-1.59t1.2-.49q.45 0 .82.18.37.19.65.55l.17-.59zm-2.38 2.07q0-.54-.06-.68-.06-.15-.27-.15-.2 0-.3.17-.08.16-.08.66v2.61q0 .52.07.68.06.15.27.15.23 0 .3-.19.07-.18.07-.85zm5.67-3.78v1.24h-2.44v-1.24zm0 1.71v7.78h-2.44v-7.78zm3.34-1.03v1.22h.64v1.23h-.64v4.16q0 .77.08.86.08.09.66.09v1.25h-.96q-.8 0-1.15-.06-.35-.08-.61-.32-.27-.24-.33-.55-.06-.32-.06-1.48v-3.94h-.51v-1.23h.5v-1.22zm3.28 4.05h-2.23v-.53q0-.9.2-1.39.22-.49.85-.86t1.63-.38q1.2 0 1.8.43.62.42.74 1.04.12.62.12 2.55v3.9h-2.3v-.7q-.22.42-.56.63-.34.2-.82.2-.62 0-1.14-.34-.52-.35-.52-1.53v-.63q0-.88.28-1.2t1.36-.73q1.17-.46 1.25-.62.08-.16.08-.64 0-.61-.09-.8-.09-.18-.3-.18-.24 0-.3.16-.06.15-.06.8zm.75 1.06q-.57.42-.67.7-.08.28-.08.8 0 .61.07.79.08.17.32.17.22 0 .28-.13.07-.14.07-.73zm5.61-5.79v9.49h-2.43v-9.49z" fill="url(#c)" transform="matrix(1.85 0 0 1.85 2.75 -30.64)"/><path d="m15.38 59.88h3.35l2.33 5.46 2.34-5.46h3.34v10.2h-2.49v-7.46l-2.35 5.5h-1.67l-2.35-5.5v7.47h-2.5zm13.94 0h4.36q1.95 0 3 .87 1.04.86 1.04 2.46t-1.05 2.47q-1.04.87-2.99.87h-1.73v3.54h-2.63zm2.63 1.9v2.86h1.45q.77 0 1.19-.37.41-.38.41-1.06t-.41-1.05q-.42-.37-1.19-.37zm7.63-1.9h7.1v1.99h-4.48v1.9h4.2v1.99h-4.2v2.34h4.62v1.99h-7.25zm18.73 9.45q-.98.48-2.04.72t-2.19.24q-2.55 0-4.04-1.43-1.49-1.42-1.49-3.86 0-2.47 1.52-3.89t4.16-1.41q1.01 0 1.94.19.94.19 1.77.57v2.1q-.86-.48-1.7-.72t-1.7-.24q-1.56 0-2.42.89-.85.87-.85 2.5t.82 2.5q.82.89 2.33.89.41 0 .76-.05.36-.05.64-.16v-1.99h-1.6v-1.76h4.1zm1.79-4.27h4.3v2h-4.3zm10.21-3.01-2.88 4.27h2.88zm-.44-2.17h2.93v6.44h1.46v1.9h-1.46v1.87h-2.5v-1.86h-4.5v-2.26zm8.63 0h1.5l-3.6 11.5h-1.5zm8.99 8.35h-4.12l-.64 1.86h-2.65l3.78-10.2h3.14l3.78 10.2h-2.65zm-3.46-1.9h2.8l-1.4-4.06zm15.2-6.13v2.16q-.84-.37-1.64-.56-.8-.2-1.5-.2-.95 0-1.4.26-.45.26-.45.81 0 .41.3.64.3.23 1.1.4l1.13.22q1.7.34 2.42 1.04.71.7.71 1.98 0 1.69-1 2.52-1 .82-3.06.82-.97 0-1.94-.19-.98-.18-1.96-.55v-2.22q.98.52 1.89.79.91.26 1.76.26.86 0 1.32-.29.46-.29.46-.82 0-.48-.32-.74-.3-.26-1.23-.46l-1.02-.23q-1.53-.33-2.24-1.04-.7-.72-.7-1.94 0-1.52.98-2.34.98-.82 2.83-.82.84 0 1.73.13.88.12 1.83.37zm2.98-.32h4.37q1.95 0 2.99.87 1.04.86 1.04 2.46t-1.04 2.47q-1.04.87-3 .87h-1.73v3.54h-2.63zm2.63 1.9v2.86h1.46q.76 0 1.18-.37.42-.38.42-1.06t-.42-1.05q-.42-.37-1.18-.37z" fill="url(#d)"/></svg>