<svg viewBox="0 0 126 84" xmlns="http://www.w3.org/2000/svg"><linearGradient id="a" gradientUnits="userSpaceOnUse" spreadMethod="reflect" x1="103.88" x2="122.06" y1="10.76" y2="51.92"><stop offset="0" stop-color="#e0e0e0"/><stop offset="1" stop-color="#757575"/></linearGradient><linearGradient id="b" gradientUnits="userSpaceOnUse" x1="60.44" x2="57.2" y1="78.14" y2="60.74"><stop offset="0" stop-color="#004d0a"/><stop offset="1" stop-color="#179731"/></linearGradient><linearGradient id="c" gradientUnits="userSpaceOnUse" spreadMethod="reflect" x1="23.4" x2="31.46" y1="22.12" y2="33.38"><stop offset="0" stop-color="#002580"/><stop offset="1" stop-color="#3042e4"/></linearGradient><linearGradient id="d" gradientUnits="userSpaceOnUse" spreadMethod="reflect" x1="105.41" x2="103.33" y1="68.33" y2="54.19"><stop offset="0" stop-color="#a2a2a2"/><stop offset="1" stop-color="#eee"/></linearGradient><path d="m10.16 6.35a6.09 6.09 0 0 0 -4.34 1.8 6.23 6.23 0 0 0 -1.34 1.99c-.3.75-.46 1.55-.46 2.35v39.35h117.97v-39.35a6.16 6.16 0 0 0 -6.14-6.14z" fill="url(#a)" stroke="#898989"/><path d="m4.01 52.84v18.67a6.14 6.14 0 0 0 6.14 6.14h105.69c3.4 0 6.14-2.75 6.14-6.14v-18.67z" fill="url(#b)" stroke="#075a17"/><path d="m22.09 28.77-1.26 4.95 1.52 5.42h-3.07q-.45-2.05-.69-3.53-.3 1.85-.68 3.53h-2.64l1.36-5.42-1.36-4.95h2.64q.64 3.17.68 3.6.46-2.65.7-3.6zm7.49 8.21v2.16h-6.95v-1.8q3.09-5.05 3.67-6.25.58-1.2.58-1.87 0-.52-.18-.77-.17-.26-.53-.26t-.54.28q-.17.29-.17 1.12v1.2h-2.83v-.46q0-1.06.11-1.67.11-.62.54-1.2.43-.6 1.12-.9.69-.31 1.65-.31 1.88 0 2.84.94.97.92.97 2.35 0 1.09-.55 2.3-.54 1.21-3.2 5.14zm8.8-7.13h-3.15q0-.88-.03-1.1-.01-.24-.18-.4-.17-.16-.46-.16-.24 0-.4.15-.15.15-.18.38-.02.24-.02.95v2.02q.24-.51.71-.76.47-.26 1.16-.26.87 0 1.53.47t.84 1.12q.18.66.18 1.78v1q0 1.33-.1 1.98-.1.65-.55 1.2-.43.55-1.2.86-.77.3-1.8.3-1.27 0-2.08-.35t-1.26-1q-.44-.67-.51-1.4-.08-.73-.08-2.82v-1.75q0-2.26.07-3.01.07-.77.54-1.45.48-.68 1.3-1.02.83-.34 1.9-.34 1.34 0 2.19.43.85.43 1.22 1.21.36.78.36 1.97zm-3.15 3.95q0-.68-.15-.93t-.49-.25q-.32 0-.48.25-.15.23-.15.93v2.28q0 .84.14 1.1.15.26.49.26.2 0 .42-.2.22-.2.22-1.08zm10.67-7.31v8.27h.9v2.15h-.9v2.23h-3.16v-2.24h-3.74v-2.15l2.73-8.27zm-3.16 8.27v-5.39l-1.39 5.39z" fill="url(#c)" transform="matrix(2.02 0 0 2.02 .33 -35.7)"/><path d="m17 59.29h3.34l2.33 5.46 2.33-5.46h3.35v10.2h-2.5v-7.46l-2.34 5.5h-1.67l-2.35-5.5v7.46h-2.5zm13.93 0h4.36q1.95 0 2.99.87 1.05.86 1.05 2.46t-1.05 2.47q-1.04.86-2.99.86h-1.73v3.54h-2.63zm2.63 1.9v2.85h1.44q.77 0 1.19-.36.41-.38.41-1.06t-.41-1.06q-.42-.37-1.19-.37zm7.63-1.9h7.1v1.99h-4.47v1.9h4.2v1.99h-4.2v2.33h4.62v2h-7.25zm18.73 9.44q-.98.48-2.04.72t-2.19.24q-2.55 0-4.04-1.42-1.49-1.43-1.49-3.87 0-2.47 1.52-3.88t4.16-1.42q1.01 0 1.94.2.94.19 1.77.56v2.11q-.86-.48-1.7-.72-.85-.24-1.7-.24-1.57 0-2.42.88-.85.88-.85 2.51 0 1.62.82 2.5.82.88 2.33.88.41 0 .76-.04.36-.06.64-.17v-1.97h-1.6v-1.76h4.1zm1.79-4.26h4.3v1.99h-4.3zm10.21-3.02-2.88 4.28h2.88zm-.44-2.16h2.93v6.44h1.45v1.9h-1.45v1.86h-2.49v-1.86h-4.53v-2.25zm8.62 0h1.52l-3.6 11.5h-1.52zm9 8.34h-4.12l-.65 1.86h-2.63l3.78-10.2h3.14l3.78 10.2h-2.65zm-3.46-1.89h2.8l-1.4-4.06zm5.93-6.45h2.65l2.7 7.53 2.7-7.53h2.65l-3.78 10.2h-3.14zm20.15 9.64q-.72.38-1.51.57-.79.2-1.64.2-2.55 0-4.04-1.43-1.5-1.43-1.5-3.87 0-2.45 1.5-3.87 1.49-1.43 4.04-1.43.85 0 1.64.2.79.19 1.51.56v2.11q-.73-.5-1.44-.73-.71-.23-1.5-.23-1.4 0-2.21.9t-.81 2.5q0 1.57.8 2.47t2.22.9q.79 0 1.5-.23.7-.23 1.44-.73z" fill="url(#d)" transform="translate(-1.36 1.22)"/></svg>