<svg viewBox="0 0 126 84" xmlns="http://www.w3.org/2000/svg"><linearGradient id="a" gradientUnits="userSpaceOnUse" spreadMethod="reflect" x1="103.88" x2="122.06" y1="10.76" y2="51.92"><stop offset="0" stop-color="#e0e0e0"/><stop offset="1" stop-color="#757575"/></linearGradient><linearGradient id="b" gradientUnits="userSpaceOnUse" x1="60.44" x2="57.2" y1="78.14" y2="60.74"><stop offset="0" stop-color="#004d0a"/><stop offset="1" stop-color="#179731"/></linearGradient><linearGradient id="c" gradientUnits="userSpaceOnUse" x1="60.72" x2="58.6" y1="58.77" y2="45.99"><stop offset="0" stop-color="#a2a2a2"/><stop offset="1" stop-color="#eee"/></linearGradient><linearGradient id="d" gradientUnits="userSpaceOnUse" spreadMethod="reflect" x1="38.18" x2="48.57" y1="-9.48" y2="6.79"><stop offset="0" stop-color="#002580"/><stop offset="1" stop-color="#3042e4"/></linearGradient><path d="m4.01 52.84v18.67a6.14 6.14 0 0 0 6.14 6.14h105.69c3.4 0 6.14-2.75 6.14-6.14v-18.67z" fill="url(#b)" stroke="#075a17"/><path d="m10.16 6.35a6.09 6.09 0 0 0 -4.34 1.8 6.23 6.23 0 0 0 -1.34 1.99c-.3.75-.46 1.55-.46 2.35v39.35h117.97v-39.35a6.16 6.16 0 0 0 -6.14-6.14z" fill="url(#a)" stroke="#898989"/><path d="m11.44 48.68h5.24l2.02 7.84 2.01-7.84h5.22v12.88h-3.25v-9.83l-2.52 9.83h-2.96l-2.51-9.83v9.83h-3.26zm26.63 12.88h-3.34v-1.51q-.75.93-1.51 1.33t-1.87.4q-1.47 0-2.32-.89-.83-.89-.83-2.72v-5.94h3.6v5.13q0 .88.32 1.25t.91.37q.64 0 1.05-.5.41-.49.41-1.76v-4.5h3.58zm2.29-12.88h3.59v12.88h-3.59zm10.19 0v3.55h1.97v2.6h-1.97v3.32q0 .6.11.8.18.3.62.3.4 0 1.1-.24l.27 2.47q-1.33.3-2.48.3-1.33 0-1.97-.35-.63-.34-.94-1.04-.3-.7-.3-2.27v-3.28h-1.31v-2.61h1.31v-1.73zm3.8 0h3.58v2.43h-3.58zm0 3.55h3.58v9.33h-3.58zm4.83-3.55h4.17l2.9 9.27 2.85-9.27h4.05l-4.78 12.88h-4.32zm15.46 0h3.58v2.43h-3.58zm0 3.55h3.58v9.33h-3.58zm16.22 5.55h-7.16q.1.86.47 1.28.52.61 1.35.61.53 0 1-.26.3-.17.63-.6l3.52.33q-.8 1.41-1.95 2.02-1.14.61-3.28.61-1.85 0-2.91-.52-1.07-.52-1.77-1.66t-.7-2.68q0-2.19 1.4-3.54t3.88-1.35q2 0 3.16.6 1.16.6 1.77 1.76t.6 3zm-3.63-1.71q-.1-1.04-.57-1.49-.44-.45-1.18-.45-.86 0-1.37.68-.32.42-.4 1.26zm4.22-3.84h3.47l1.5 5.88 1.9-5.88h3.22l1.97 5.88 1.5-5.88h3.44l-3.43 9.33h-3.19l-1.89-5.62-1.82 5.62h-3.2z" fill="url(#c)" opacity=".99" transform="translate(3.05 10)"/><path d="m44.19-4.96v14.76h-3.35v-9.96l-1.34 9.96h-2.38l-1.42-9.74v9.74h-3.35v-14.76h4.97q.22 1.33.46 3.14l.53 3.75.88-6.89zm7.16 11.76v3h-2.78v-3zm13.52-11.76-1.95 14.76h-5.82l-2.22-14.76h4.05q.7 6.1 1 10.31.3-4.26.63-7.56l.26-2.75zm6.28 11.76v3h-2.78v-3zm13.36-5.32h-3.83v-2.58q0-1.12-.13-1.4-.12-.28-.54-.28-.47 0-.6.34-.13.33-.13 1.46v6.85q0 1.07.13 1.4.13.33.57.33.43 0 .56-.33.14-.33.14-1.54v-1.83h3.83v.58q0 2.28-.33 3.24-.31.96-1.43 1.68-1.1.72-2.72.72-1.69 0-2.78-.61-1.1-.61-1.45-1.69-.36-1.08-.36-3.25v-4.32q0-1.6.11-2.4.11-.8.65-1.53.55-.74 1.5-1.16.97-.43 2.22-.43 1.7 0 2.8.66 1.1.65 1.45 1.64.34.97.34 3.04z" fill="url(#d)" transform="matrix(1.42 0 0 1.42 -20.22 27.65)"/></svg>