<svg height="84" viewBox="0 0 126 84" width="126" xmlns="http://www.w3.org/2000/svg"><linearGradient id="a" gradientUnits="userSpaceOnUse" spreadMethod="reflect" x1="103.88" x2="122.06" y1="10.76" y2="51.92"><stop offset="0" stop-color="#e0e0e0"/><stop offset="1" stop-color="#757575"/></linearGradient><linearGradient id="b" gradientUnits="userSpaceOnUse" x1="60.44" x2="57.2" y1="78.14" y2="60.74"><stop offset="0" stop-color="#004d0a"/><stop offset="1" stop-color="#179731"/></linearGradient><linearGradient id="c" gradientUnits="userSpaceOnUse" spreadMethod="reflect" x1="21.49" x2="23.21" y1="52.83" y2="65.28"><stop offset="0" stop-color="#a2a2a2"/><stop offset="1" stop-color="#eee"/></linearGradient><linearGradient id="d" gradientUnits="userSpaceOnUse" spreadMethod="reflect" x1="106.51" x2="110.78" y1="-10.53" y2=".29"><stop offset="0" stop-color="#002580"/><stop offset="1" stop-color="#3042e4"/></linearGradient><path d="m10.16 6.35c-.81 0-1.61.16-2.35.47-.75.31-1.42.76-1.99 1.33s-1.03 1.25-1.34 1.99c-.3.75-.46 1.55-.46 2.35v39.35h117.97v-39.35c0-.8-.16-1.6-.47-2.35-.31-.74-.76-1.42-1.33-1.99s-1.25-1.02-1.99-1.33c-.75-.31-1.55-.47-2.35-.47z" fill="url(#a)" stroke="#898989"/><path d="m4.01 52.84v18.67c0 3.39 2.75 6.14 6.14 6.14h105.69c3.4 0 6.14-2.75 6.14-6.14v-18.67z" fill="url(#b)" stroke="#075a17"/><g fill="url(#c)"><path d="m17.51 59.3h3.83l2.66 6.24 2.67-6.24h3.82v11.66h-2.84v-8.53l-2.69 6.29h-1.91l-2.69-6.29v8.53h-2.85z"/><path d="m38.17 59.3h4.99q2.23 0 3.41.99 1.2.98 1.2 2.81 0 1.84-1.2 2.83-1.19.98-3.41.98h-1.98v4.05h-3.01zm3.01 2.18v3.26h1.66q.88 0 1.35-.42.48-.43.48-1.21 0-.78-.48-1.2-.48-.42-1.35-.42z"/><path d="m54.64 59.3h8.12v2.27h-5.11v2.17h4.8v2.27h-4.8v2.67h5.28v2.27h-8.29z"/><path d="m80.79 70.1q-1.13.55-2.34.82-1.21.27-2.5.27-2.91 0-4.62-1.63-1.7-1.63-1.7-4.42 0-2.82 1.73-4.44 1.73-1.62 4.75-1.62 1.16 0 2.23.22 1.07.22 2.02.65v2.41q-.98-.55-1.95-.83-.96-.27-1.93-.27-1.8 0-2.77 1.01-.97 1-.97 2.87 0 1.85.94 2.86.94 1.01 2.66 1.01.47 0 .87-.05.41-.06.73-.19v-2.27h-1.84v-2.02h4.69z"/><path d="m87.58 65.22h4.91v2.27h-4.91z"/><path d="m103.98 61.78-3.3 4.88h3.3zm-.5-2.48h3.34v7.36h1.66v2.18h-1.66v2.13h-2.84v-2.13h-5.17v-2.58z"/></g><g fill="url(#d)" stroke-width=".42" transform="matrix(2.41 0 0 2.41 -188.56 27.6)"><path d="m101.1-3.77-1.22 10.52h-3.42q-.46-2.43-.82-5.51-.16 1.32-.76 5.51h-3.4l-1.22-10.52h2.66l.28 3.67.29 3.54q.15-2.75.75-7.21h2.85q.06.46.3 3.47l.3 4q.23-3.81.76-7.46z"/><path d="m110.7-3.77v10.52h-2.39v-7.1l-.95 7.1h-1.7l-1.01-6.94v6.94h-2.39v-10.52h3.54q.16.95.33 2.23l.38 2.68.62-4.91z"/><path d="m118.92-3.77-1.39 10.52h-4.15l-1.58-10.52h2.88q.5 4.35.71 7.35.21-3.03.45-5.39l.19-1.96z"/></g></svg>