<svg viewBox="0 0 126 84" xmlns="http://www.w3.org/2000/svg"><linearGradient id="a" gradientUnits="userSpaceOnUse" spreadMethod="reflect" x1="103.88" x2="122.06" y1="10.76" y2="51.92"><stop offset="0" stop-color="#e0e0e0"/><stop offset="1" stop-color="#757575"/></linearGradient><linearGradient id="b" gradientUnits="userSpaceOnUse" x1="60.44" x2="57.2" y1="78.14" y2="60.74"><stop offset="0" stop-color="#004d0a"/><stop offset="1" stop-color="#179731"/></linearGradient><linearGradient id="c" gradientUnits="userSpaceOnUse" x1="60.72" x2="58.6" y1="58.77" y2="45.99"><stop offset="0" stop-color="#a2a2a2"/><stop offset="1" stop-color="#eee"/></linearGradient><linearGradient id="d" gradientUnits="userSpaceOnUse" spreadMethod="reflect" x1="5.66" x2="86.79" y1="1.88" y2="228.44"><stop offset="0" stop-color="#002580"/><stop offset="1" stop-color="#3042e4"/></linearGradient><path d="m4.01 52.84v18.67a6.14 6.14 0 0 0 6.14 6.14h105.69c3.4 0 6.14-2.75 6.14-6.14v-18.67z" fill="url(#b)" stroke="#075a17"/><path d="m10.16 6.35a6.09 6.09 0 0 0 -4.34 1.8 6.23 6.23 0 0 0 -1.34 1.99c-.3.75-.46 1.55-.46 2.35v39.35h117.97v-39.35a6.16 6.16 0 0 0 -6.14-6.14z" fill="url(#a)" stroke="#898989"/><path d="m11.69 62.1v-14.3h7.37q2.05 0 3.14.35 1.08.35 1.74 1.3.67.95.67 2.32 0 1.2-.51 2.06-.5.86-1.4 1.4-.56.34-1.55.57.8.26 1.15.52.25.18.7.75.48.58.63.9l2.14 4.14h-5l-2.36-4.37q-.45-.85-.8-1.1-.48-.34-1.09-.34h-.39v5.81zm4.44-8.51h1.87q.3 0 1.17-.2.44-.09.71-.45.28-.36.28-.83 0-.7-.43-1.06-.44-.37-1.66-.37h-1.94zm13.3-5.8h4.63l3.22 10.3 3.17-10.3h4.5l-5.32 14.31h-4.8zm31.84 3.22-3.96.49q-.15-.83-.52-1.17-.36-.35-.9-.35-.97 0-1.5.98-.4.7-.58 3 .71-.71 1.46-1.06.76-.35 1.74-.35 1.92 0 3.23 1.37 1.33 1.37 1.33 3.47 0 1.41-.67 2.58-.67 1.18-1.86 1.78-1.18.6-2.97.6-2.14 0-3.44-.73t-2.08-2.34q-.77-1.61-.77-4.26 0-3.87 1.63-5.67 1.63-1.8 4.52-1.8 1.7 0 2.7.4.99.38 1.64 1.15.66.76 1 1.91zm-7.32 6.38q0 1.16.58 1.82.59.66 1.44.66.78 0 1.3-.6.53-.6.53-1.78 0-1.2-.54-1.84-.56-.65-1.36-.65-.83 0-1.4.62-.55.61-.55 1.76zm13.15-2.5q0-4.08 1.46-5.72 1.48-1.63 4.48-1.63 1.45 0 2.38.36.92.36 1.51.93.59.57.92 1.2.34.63.54 1.47.4 1.6.4 3.34 0 3.9-1.31 5.7-1.32 1.8-4.54 1.8-1.81 0-2.92-.57t-1.83-1.69q-.52-.79-.81-2.16-.28-1.37-.28-3.03zm3.94 0q0 2.74.48 3.75.49 1 1.4 1 .61 0 1.05-.43.45-.43.66-1.34.21-.92.21-2.87 0-2.85-.49-3.82-.48-.99-1.44-.99-.99 0-1.43 1-.44 1-.44 3.7z" fill="url(#c)" transform="translate(17.76 10.34)"/><path d="m120.14 26.11c-3.37-.03-6.4 0-8.52.13-7.68.43-20.59 2.16-28.83 3.87-41.81 8.64-72.21 28.08-79.9 51.12-6.88 20.63 2.03 40.26 25.38 55.9 14.78 9.89 37.26 19 58.38 23.66 1.69.37 3.54.8 4.13.96 2.93.77 11.94 2.23 17.24 2.8 6.71.7 7.95.8 10.6.81 3.85 0 4.91.63 4.63 2.73-.1.8-.33 1.2-3.36 6.22a792.6 792.6 0 0 0 -11.08 19.58 595.22 595.22 0 0 1 -3.54 6.34c-2.37 4.12-.66 7.84 2.9 6.35 1.17-.49 11.01-6.38 40.56-24.2l19.85-11.97 15.58-9.37c3.64-2.2 9.26-5.57 12.47-7.48 10.44-6.22 16.75-10.3 22-14.2 4.87-3.64 5.36-4.7 1.85-4.07a117.6 117.6 0 0 1 -25.32 1.25c-7.1-.56-6.71-.62-10.7 1.63-1.02.57-5.58 2.94-10.13 5.27-4.56 2.33-9.37 4.8-10.7 5.5-1.34.7-6.83 3.52-12.2 6.24l-12.7 6.47c-3.27 1.69-4.69 2.12-5.79 1.76-1.47-.49-1.41-1.28.32-4.3 4.61-8.05 6.21-11.24 6.21-12.4 0-2-.18-2.08-6.62-2.23-61.57-1.45-106.63-25.65-100.33-53.9 3.75-16.83 24.23-31.22 54.56-38.36 5.68-1.33 6.66-1.55 8.16-1.77a118.62 118.62 0 0 1 6.68-1.06c18.29-2.55 46.36-1.73 63.06 1.85 10.73 2.3 15.9 3.94 23.97 7.56 2.9 1.3 3.61 1.43 5.3.92 7.4-2.25 19.05-2.78 27.95-1.27 6.1 1.04 5.18-.7-3.48-6.66-16.27-11.18-42.87-20.26-69.53-23.74a60.98 60.98 0 0 1 -3.3-.49c-2.32-.7-15.64-1.36-25.76-1.45zm268.73 20.39c-.5-.27-27.04-.25-27.5.02-.68.4-.7.47-3.09 9.34l-3.66 13.62-2.18 8.08-1.09 4-.95 3.5c-.94 3.54-1.44 5.44-2.03 7.6-.34 1.23-1.07 4-1.64 6.13-.57 2.15-1.46 5.38-1.96 7.2a836.54 836.54 0 0 0 -2.34 8.67l-1.07 4-1.18 4.38c-1.01 3.72-1 4.14.17 4.47 1.08.3 25.82.25 26.69-.05 1.01-.36 1.68-2.23 4-11.33l1.27-4.77a2319.94 2319.94 0 0 0 5.3-19.57c.33-1.18 1-3.73 1.52-5.65l3.9-14.51c2.61-9.6 4.78-17.62 6.08-22.5.4-1.49.32-2.33-.24-2.63zm-80.55 20.58c-3.56-.15-7.24-.13-10.87.07-18.07.99-27.75 5.52-32.44 15.21-1.95 4.02-2.74 3.76 11.25 3.84 14.17.07 13.71.11 14.86-1.19 3.6-4.08 5.46-4.87 11.4-4.89 6.35-.02 9.53 1.78 9.5 5.34-.05 4.88-4.6 6.5-19.64 7-26.06.87-37.7 6.5-39.04 18.9-.87 8.14 3.77 13.87 13.15 16.26 10.47 2.66 23.37 1.32 31.65-3.3 3.2-1.8 3.84-1.68 3.61.7-.11 1.25-.1 1.38.35 1.82l.5.48h12.6c13.47 0 13.2.02 13.9-.97.2-.26 1.16-3.56 2.14-7.3a302.69 302.69 0 0 1 3.6-12.95l1.15-4.2c5.54-19.59 5.11-25.03-2.38-29.48-4.88-2.9-14.6-4.87-25.29-5.34zm-93.95.05c-2-.04-4.03.04-6.03.24-9.37.95-14.36 2.11-20.53 4.83-13.97 6.14-21.23 16.68-21.23 30.78 0 17.6 14.2 26.8 40.6 26.23 17.95-.38 30.03-5.19 36.14-14.36 1.54-2.31 1.75-2.92 1.25-3.54l-.35-.44-12.22-.06c-13.95-.07-13.77-.08-15.64 1.3-6.62 4.87-18.12 3.76-21.2-2.06-1.17-2.21-1.73-4.94-1.21-5.9.48-.9-.4-.86 27.57-.97 30.04-.1 26.97.08 27.77-1.7 1.95-4.36.93-14.53-1.93-19.34-5.13-8.64-18.92-14.7-32.99-15zm-48.9.35c-2.5-.12-5.35-.09-7.16.16-4.85.65-11.37 3.53-15.2 6.72-3.03 2.52-3.94 2.08-3.05-1.45 1.11-4.44 2.52-4.01-13.12-4.01h-13.03l-.62.55c-.55.5-.72.93-1.64 4.42-.57 2.14-1.38 5.25-1.83 6.91l-1.57 5.84c-.4 1.56-1.06 4-1.46 5.45l-1.08 4a2959.43 2959.43 0 0 0 -3.2 11.98l-2.76 10.32c-2.4 8.88-2.39 8.79-1.04 9.15 1.53.42 26.76.17 27.24-.27s.88-1.61 2.18-6.45a2030.97 2030.97 0 0 0 4-14.96c3.15-11.9 6.85-16.5 15-18.68l2.3-.61 5.93-.05c5.5-.04 5.95-.06 6.42-.41.59-.44.37-.03 7.95-14.15 1.53-2.82 1.64-3.27.98-3.7-.54-.36-2.73-.64-5.24-.76zm47.55 13.86c.9.06 1.79.2 2.65.42 4.36 1.12 6.98 3.6 7.24 6.9.26 3.15.8 3.03-13.2 3.03s-13.7.07-12.24-2.9c2.33-4.77 9.24-7.92 15.55-7.45zm93.66 20.86c1.78.96-1.66 8.37-5.08 10.94-4.81 3.62-14.63 3.96-17.96.62-1.96-1.95-1.69-4.97.61-7.1 2.13-1.99 4.53-2.7 10.6-3.1a70.6 70.6 0 0 0 9.32-1.34c.95-.24 2.09-.24 2.51-.02zm3.35 42.64-3.03 15.25h26.6l2.96-15.26zm79.12 0-4.73 24.48c-.28-.18-.49-.47-.77-.63-6.1-2.83-11.14-3.33-17.34-3.35-4.56 0-9.43 2.03-13.44 4.3-3.98 2.26-7.55 5.58-10.72 9.97a41.13 41.13 0 0 0 -5.81 11.6 43.9 43.9 0 0 0 -2 13.15c0 7.22 1.92 12.91 5.76 17.1 8 6.5 18.84 6.36 23.34 6.28 3.62 0 6.96-.78 10.02-2.29l-.15.77h26.58l15.86-81.38zm-177.15 3.29 13.7 78.08h31.73l44.09-78.08h-28.46l-26.4 47.63-7.79-47.63h-19.15zm242.1 17.58c-6.1 0-11.67 1.09-16.69 3.25a35.18 35.18 0 0 0 -12.86 9.5 38.27 38.27 0 0 0 -6.98 11.57 36.66 36.66 0 0 0 -2.35 12.98c0 7.7 2.48 13.66 7.43 17.88 10.25 6.34 18.34 6.29 28.89 6.33a80.34 80.34 0 0 0 27.42-4.97l3.44-15.9c-10.2 4.5-18.85 7.56-29.77 8.07-3.26.06-6.4-1.44-7.37-2.46-2.27-1.88-3.4-4.74-3.4-8.54 0-.2.01-.5.05-.88.04-.42.05-.73.05-.94h43.85l.63-2.98c.42-1.85.7-3.56.87-5.1.2-1.57.31-3.04.31-4.43 0-7.15-2.32-12.85-7-17.07-9.22-6.32-16.7-6.26-26.52-6.3zm75.66 0a40 40 0 0 0 -16.03 3.14 34.34 34.34 0 0 0 -12.46 9.2c-3 3.5-5.29 7.34-6.9 11.56a35.67 35.67 0 0 0 -2.43 12.86c0 7.64 2.5 13.7 7.45 18.12 9.87 6.54 17.73 6.58 28.1 6.63 5.96 0 11.38-1.05 16.23-3.14a34.58 34.58 0 0 0 12.6-9.3c3-3.45 5.29-7.26 6.86-11.4a36.46 36.46 0 0 0 2.35-12.92c0-7.64-2.51-13.7-7.5-18.12-9.94-6.55-17.84-6.58-28.27-6.63zm-224.12 1.91-11.38 58.6h26.47l11.46-58.6zm337.38.24c-10.1 10.72-24.41 20.1-42.9 28.16l-4.04 19.13c4.63-1 9.88-2.69 15.7-5.08a94.07 94.07 0 0 0 15.54-7.9l-15.91 75.92h21.59l23.08-110.22zm60.85 0c-10.11 10.72-24.4 20.1-42.88 28.16l-4.04 19.13c4.63-1 9.86-2.69 15.69-5.08a94.26 94.26 0 0 0 15.54-7.9l-15.9 75.92h21.59l23.09-110.22zm-248.17 10.89a5.54 5.54 0 0 1 4.15 2.32 13.27 13.27 0 0 1 1.17 8.96h-16.5c1.37-3.9 3.3-6.85 5.85-8.83 1.56-1.23 3.02-2.37 5.33-2.45zm76.07 1.25c1.43.18 2.76.96 3.87 1.98 1.7 1.92 2.55 4.7 2.55 8.37 0 6.84-1.58 12.46-4.72 16.89-4.77 7.36-8.94 6.13-11.7 3.7-1.67-1.94-2.5-4.77-2.5-8.47 0-6.8 1.56-12.4 4.7-16.8 2.67-4.62 5.4-5.97 7.8-5.67zm-156.52 1.81c.8.12 1.44.38 1.83.73 1.7 1.81 2.57 4.33 2.57 7.57 0 7.15-1.51 12.95-4.54 17.38-4.02 7.32-8.78 6.53-11.24 3.87-1.64-1.88-2.46-4.6-2.46-8.16 0-6.84 1.52-12.44 4.59-16.8 3.02-3.96 6.86-4.93 9.25-4.59z" fill="url(#d)" transform="matrix(.12 0 0 .12 19.43 13.2)"/></svg>