<svg height="84" viewBox="0 0 126 84" width="126" xmlns="http://www.w3.org/2000/svg"><linearGradient id="a" gradientUnits="userSpaceOnUse" spreadMethod="reflect" x1="103.88" x2="122.06" y1="10.76" y2="51.92"><stop offset="0" stop-color="#e0e0e0"/><stop offset="1" stop-color="#757575"/></linearGradient><linearGradient id="b" gradientUnits="userSpaceOnUse" x1="60.44" x2="57.2" y1="78.14" y2="60.74"><stop offset="0" stop-color="#004d0a"/><stop offset="1" stop-color="#179731"/></linearGradient><linearGradient id="c" gradientUnits="userSpaceOnUse" spreadMethod="reflect" x1="24.72" x2="58.39" y1="51.36" y2="76.06"><stop offset="0" stop-color="#a2a2a2"/><stop offset="1" stop-color="#eee"/></linearGradient><linearGradient id="d" gradientUnits="userSpaceOnUse" spreadMethod="reflect" x1="100.15" x2="103.39" y1="-8.57" y2="-.38"><stop offset="0" stop-color="#002580"/><stop offset="1" stop-color="#3042e4"/></linearGradient><path d="m10.16 6.35c-.81 0-1.61.16-2.35.47-.75.31-1.42.76-1.99 1.33s-1.03 1.25-1.34 1.99c-.3.75-.46 1.55-.46 2.35v39.35h117.97v-39.35c0-.8-.16-1.6-.47-2.35-.31-.74-.76-1.42-1.33-1.99s-1.25-1.02-1.99-1.33c-.75-.31-1.55-.47-2.35-.47z" fill="url(#a)" stroke="#898989"/><path d="m4.01 52.84v18.67c0 3.39 2.75 6.14 6.14 6.14h105.69c3.4 0 6.14-2.75 6.14-6.14v-18.67z" fill="url(#b)" stroke="#075a17"/><g fill="url(#c)"><path d="m27.65 59.61v2.16q-.84-.38-1.64-.57-.8-.19-1.51-.19-.94 0-1.39.26-.45.26-.45.81 0 .41.3.64.31.23 1.11.39l1.12.23q1.7.34 2.42 1.04.72.7.72 1.98 0 1.69-1 2.52-1 .82-3.06.82-.97 0-1.95-.18-.98-.18-1.96-.55v-2.22q.98.52 1.89.79.92.26 1.76.26.86 0 1.32-.29.46-.29.46-.82 0-.48-.31-.74-.31-.26-1.24-.46l-1.02-.23q-1.53-.33-2.24-1.05-.7-.72-.7-1.93 0-1.52.98-2.34.98-.82 2.83-.82.84 0 1.73.13.89.12 1.84.38z"/><path d="m35.3 61.01q-1.2 0-1.87.89-.66.89-.66 2.5 0 1.61.66 2.5.66.89 1.87.89 1.21 0 1.87-.89.66-.89.66-2.5 0-1.61-.66-2.5-.66-.89-1.87-.89zm0-1.91q2.46 0 3.86 1.41 1.39 1.41 1.39 3.89 0 2.47-1.39 3.88-1.39 1.41-3.86 1.41-2.45 0-3.86-1.41-1.39-1.41-1.39-3.88 0-2.48 1.39-3.89 1.4-1.41 3.86-1.41z"/><path d="m46.28 63.81q.83 0 1.18-.31.36-.31.36-1.01 0-.7-.36-1-.36-.3-1.18-.3h-1.11v2.62zm-1.11 1.82v3.86h-2.63v-10.2h4.02q2.02 0 2.95.68.94.68.94 2.14 0 1.01-.49 1.66-.49.65-1.47.96.54.12.96.56.43.43.87 1.31l1.43 2.9h-2.8l-1.25-2.54q-.37-.77-.76-1.05-.38-.28-1.03-.28z"/><path d="m53.32 59.29h7.1v1.99h-4.47v1.9h4.2v1.99h-4.2v2.34h4.62v1.99h-7.25z"/><path d="m62.88 59.29h2.94l3.71 7v-7h2.5v10.21h-2.94l-3.71-7v7h-2.5z"/><path d="m81.7 59.61v2.16q-.84-.38-1.64-.57-.8-.19-1.51-.19-.94 0-1.39.26-.45.26-.45.81 0 .41.3.64.31.23 1.11.39l1.12.23q1.7.34 2.42 1.04.72.7.72 1.98 0 1.69-1 2.52-1 .82-3.06.82-.97 0-1.95-.18-.98-.18-1.96-.55v-2.22q.98.52 1.89.79.92.26 1.76.26.86 0 1.32-.29.46-.29.46-.82 0-.48-.31-.74-.31-.26-1.24-.46l-1.02-.23q-1.53-.33-2.24-1.05-.7-.72-.7-1.93 0-1.52.98-2.34.98-.82 2.83-.82.84 0 1.73.13.89.12 1.84.38z"/><path d="m89.34 61.01q-1.2 0-1.87.89-.66.89-.66 2.5 0 1.61.66 2.5.66.89 1.87.89 1.21 0 1.87-.89.66-.89.66-2.5 0-1.61-.66-2.5-.66-.89-1.87-.89zm0-1.91q2.46 0 3.86 1.41 1.39 1.41 1.39 3.89 0 2.47-1.39 3.88-1.39 1.41-3.86 1.41-2.45 0-3.86-1.41-1.39-1.41-1.39-3.88 0-2.48 1.39-3.89 1.4-1.41 3.86-1.41z"/><path d="m96.58 59.29h2.94l3.71 7v-7h2.5v10.21h-2.94l-3.71-7v7h-2.5z"/></g><g fill="url(#d)" stroke-width=".42" transform="matrix(2.41 0 0 2.41 -188.56 27.6)"><path d="m95.03-1.51h-2.86v-.88q0-.61-.11-.78-.11-.17-.37-.17-.28 0-.42.23-.14.23-.14.69 0 .59.16.89.15.3.87.72 2.05 1.22 2.59 2 .53.78.53 2.52 0 1.26-.3 1.86-.29.6-1.14 1.01-.85.4-1.97.4-1.24 0-2.11-.47-.87-.45-1.14-1.17-.27-.73-.27-2.06v-.77h2.86v1.44q0 .67.12.86.12.19.43.19.31 0 .45-.24.15-.24.15-.72 0-1.05-.29-1.37-.28-.32-1.43-1.08-1.15-.76-1.52-1.1-.37-.34-.62-.95-.24-.61-.24-1.55 0-1.36.34-1.99.35-.63 1.13-.98.77-.36 1.87-.36 1.2 0 2.04.39.85.39 1.12.98.28.58.28 2z"/><path d="m104.18-5.09-1.56 11.84h-4.67l-1.78-11.84h3.24q.56 4.89.8 8.27.24-3.41.5-6.07l.21-2.2z"/><path d="m112.37 6.75v1.43h-2.32q-.84 0-1.18-.13-.35-.13-.47-.38-.12-.26-.12-.92-1.05-.03-1.8-.55-.75-.52-.99-1.32-.24-.8-.24-2.39v-3.67q0-1.21.14-1.83.15-.64.59-1.19.45-.56 1.15-.85.7-.29 1.56-.29 1.03 0 1.83.35.81.35 1.21.89.4.54.52 1.13.12.58.12 1.72v3.84q0 1.58-.15 2.14-.15.56-.59.9-.43.33-1.15.5.02.39.16.5.15.1.68.1zm-3.08-8.79q0-.83-.1-1.05-.09-.23-.37-.23-.24 0-.37.19-.12.18-.12 1.1v5.51q0 1.03.08 1.27.09.24.39.24.31 0 .4-.28.09-.28.09-1.32z"/><path d="m119.6.04q.67.23 1 .75.33.51.33 2.41 0 1.41-.32 2.19-.32.77-1.11 1.18-.79.4-2.02.4-1.4 0-2.21-.47-.8-.46-1.06-1.14-.25-.69-.25-2.38v-.93h2.95v1.92q0 .77.09.98.1.2.41.2.34 0 .45-.26.11-.26.11-1.37v-.82q0-.68-.15-.99-.15-.31-.45-.41-.3-.1-1.16-.12v-1.72q1.05 0 1.3-.08.25-.08.36-.35.11-.27.11-.85v-.66q0-.62-.13-.82-.12-.2-.39-.2-.31 0-.42.21-.11.2-.11.88v.97h-2.95v-1.01q0-1.7.77-2.29.77-.6 2.46-.6 2.11 0 2.86.83.75.83.75 2.29 0 .99-.27 1.44-.27.44-.95.8z"/></g></svg>