<svg viewBox="0 0 69 58" xmlns="http://www.w3.org/2000/svg"><path d="m51 14.28h3.97v4.22h-3.96z" fill="#5fd38d"/><path d="m51 31.17v-4.22h3.97v-4.22h-3.96v-4.23h-3.97v-4.22h3.97v-4.22h-47.59v38h55.52v-4.21h-3.97v-4.23h3.97v-4.22h-3.97v-4.23zm3.97-21.11h3.97v4.22h-3.97z" fill="#5fd38d"/><path d="m62.9 18.5h3.97v4.23h-3.97z" fill="#0b0b0b"/><path d="m62.9 26.95h3.97v4.22h-3.97z"/><path d="m62.9 43.85h3.97v4.22h-3.97z" fill="#5fd38d"/><path d="m54.97 18.5h3.97v4.23h-3.97zm3.97 4.23h3.96v4.22h-3.96z"/><path d="m54.97 26.95h3.97v4.22h-3.97zm3.97 12.67h3.96v4.23h-3.96zm0-8.45h3.96v4.23h-3.96z" fill="#5fd38d"/><path d="m48 14h-48v36h56" fill="none" stroke="#060000" stroke-linejoin="round" stroke-miterlimit="10" stroke-width="2.59" transform="matrix(.99 0 0 1.06 3.42 -4.73)"/><path d="m19.28 19.78v18.98h-4.93v-7.97h-1.48v7.97h-4.93v-18.98h4.93v6.79h1.48v-6.79zm4.99 15.11v3.87h-3.57v-3.87zm11.49.63v3.24h-10.42v-2.71q4.63-7.57 5.5-9.36.88-1.81.88-2.82 0-.77-.27-1.15-.26-.38-.8-.38t-.81.42q-.26.42-.26 1.68v1.8h-4.24v-.7q0-1.59.16-2.5.17-.93.81-1.82.65-.89 1.68-1.34 1.03-.46 2.47-.46 2.83 0 4.27 1.4 1.45 1.4 1.45 3.54 0 1.63-.82 3.45-.8 1.82-4.8 7.71zm13.21-10.7h-4.74q0-1.32-.03-1.66-.03-.35-.29-.59-.24-.23-.68-.23-.36 0-.6.22-.23.22-.26.57-.04.36-.04 1.42v3.03q.37-.77 1.07-1.14.7-.39 1.73-.39 1.3 0 2.3.7t1.27 1.7.27 2.65v1.51q0 2-.16 2.97-.15.97-.82 1.8-.65.82-1.81 1.28-1.15.46-2.69.46-1.9 0-3.13-.53t-1.88-1.51q-.66-1-.78-2.09-.1-1.09-.1-4.23v-2.62q0-3.39.1-4.53.1-1.14.81-2.16.72-1.02 1.95-1.53 1.24-.51 2.86-.51 1.99 0 3.27.64 1.27.65 1.82 1.82t.56 2.95zm-4.74 5.92q0-1-.22-1.38t-.73-.38q-.5 0-.72.37-.23.35-.23 1.39v3.43q0 1.26.21 1.64.23.4.73.4.3 0 .63-.3t.33-1.62zm16.02-10.96v12.4h1.35v3.24h-1.35v3.34h-4.73v-3.34h-5.63v-3.24l4.1-12.4zm-4.73 12.4v-8.07l-2.09 8.07z"/></svg>