<svg viewBox="0 0 126 84" xmlns="http://www.w3.org/2000/svg"><linearGradient id="a" gradientUnits="userSpaceOnUse" spreadMethod="reflect" x1="103.88" x2="122.06" y1="10.76" y2="51.92"><stop offset="0" stop-color="#e0e0e0"/><stop offset="1" stop-color="#757575"/></linearGradient><linearGradient id="b" gradientUnits="userSpaceOnUse" x1="60.44" x2="57.2" y1="78.14" y2="60.74"><stop offset="0" stop-color="#004d0a"/><stop offset="1" stop-color="#179731"/></linearGradient><linearGradient id="c" gradientUnits="userSpaceOnUse" spreadMethod="reflect" x1="96.45" x2="87.76" y1="69.72" y2="49.94"><stop offset="0" stop-color="#a2a2a2"/><stop offset="1" stop-color="#eee"/></linearGradient><linearGradient id="d" gradientUnits="userSpaceOnUse" spreadMethod="reflect" x1="-17.2" x2="33.49" y1="-67.35" y2="29.31"><stop offset="0" stop-color="#002580"/><stop offset="1" stop-color="#3042e4"/></linearGradient><path d="m10.16 6.35a6.09 6.09 0 0 0 -4.34 1.8 6.23 6.23 0 0 0 -1.34 1.99c-.3.75-.46 1.55-.46 2.35v39.35h117.97v-39.35a6.16 6.16 0 0 0 -6.14-6.14z" fill="url(#a)" stroke="#898989"/><path d="m4.01 52.84v18.67a6.14 6.14 0 0 0 6.14 6.14h105.69c3.4 0 6.14-2.75 6.14-6.14v-18.67z" fill="url(#b)" stroke="#075a17"/><path d="m25.91 58.43h3.4l3.48 9.69 3.48-9.69h3.4l-4.87 13.13h-4.04zm18.49 0h3.4v13.13h-3.4zm13.09 2.57v8h1.21q2.08 0 3.17-1.03 1.1-1.03 1.1-2.99 0-1.95-1.1-2.97t-3.17-1.02zm-3.38-2.57h3.56q3 0 4.45.43 1.47.43 2.51 1.45.93.88 1.38 2.04.44 1.16.44 2.63 0 1.49-.44 2.66-.45 1.16-1.38 2.04-1.05 1.02-2.53 1.45-1.47.43-4.43.43h-3.56zm17.94 0h9.13v2.57h-5.75v2.44h5.4v2.56h-5.4v3h5.94v2.57h-9.32zm21.29 2.22q-1.55 0-2.4 1.14t-.85 3.22q0 2.06.85 3.2t2.4 1.15q1.55 0 2.4-1.14t.86-3.22q0-2.08-.85-3.22t-2.41-1.14zm0-2.45q3.16 0 4.95 1.8 1.8 1.82 1.8 5 0 3.19-1.8 5-1.79 1.81-4.95 1.81t-4.96-1.8q-1.8-1.82-1.8-5 0-3.2 1.8-5 1.8-1.81 4.96-1.81z" fill="url(#c)"/><g fill="url(#d)" stroke-width="0" transform="matrix(1.09 0 0 1.09 29.51 3.4)"><path d="m13 26.88.56 3.66h.15l.62-3.7 4.12-12.6h4.43l-8 21.68h-3.01l-8.07-21.69h4.9zm11.52-12.43c.86-.17 1.8-.29 2.83-.37 1.04-.1 2.08-.16 3.1-.16 1.07 0 2.14.1 3.2.28 1.1.16 2.07.51 2.93 1.05a5.8 5.8 0 0 1 2.09 2.18 7 7 0 0 1 .83 3.63c0 1.35-.24 2.5-.7 3.45a6.59 6.59 0 0 1 -1.88 2.27 7.55 7.55 0 0 1 -2.68 1.3 11.72 11.72 0 0 1 -3.57.4h-.7a13517.51 13517.51 0 0 1 -1.24-.13v7.41h-4.21zm6.27 3.1c-.4 0-.8.02-1.17.07a8 8 0 0 0 -.89.09v6.98l.37.06.52.06a3832.22 3832.22 0 0 0 .93 0c.55 0 1.1-.05 1.63-.15.55-.1 1.04-.29 1.47-.55.44-.3.77-.68 1.02-1.17.27-.5.4-1.14.4-1.94 0-.68-.12-1.23-.37-1.66a2.93 2.93 0 0 0 -.98-1.08 3.63 3.63 0 0 0 -1.36-.55 7.98 7.98 0 0 0 -1.57-.16"/><path d="m452.57 537.2c0-6.16.9-11.84 2.72-17.03 1.93-5.2 4.65-9.6 8.15-13.23a37.48 37.48 0 0 1 13.05-8.7c5.2-2.17 11.11-3.26 17.76-3.26 13.65 0 24.34 4.1 32.07 12.32 7.85 8.1 11.78 19.93 11.78 35.52 0 14.01-1.82 26.15-5.44 36.42-3.5 10.14-8.27 18.66-14.31 25.55a61.47 61.47 0 0 1 -20.66 15.58 73.3 73.3 0 0 1 -24.83 6.52l-5.07-18.48a59.82 59.82 0 0 0 17.76-4.9 50.8 50.8 0 0 0 13.4-8.87 46.19 46.19 0 0 0 9.07-12.14 51.59 51.59 0 0 0 5.07-14.68c-2.9 3.14-6.04 5.32-9.42 6.53-3.26 1.2-7.67 1.8-13.23 1.8-4.59 0-9.18-.78-13.77-2.35a37.22 37.22 0 0 1 -12.14-7.06 39.79 39.79 0 0 1 -8.7-12.14c-2.17-4.96-3.26-10.76-3.26-17.4m22.83-1.27c0 6.89 1.93 12.08 5.8 15.59 3.87 3.5 8.7 5.25 14.5 5.25 4.95 0 9-.79 12.14-2.36a19.73 19.73 0 0 0 7.24-5.8c.37-2.53.55-4.95.55-7.24 0-3.38-.43-6.7-1.27-9.97a26.06 26.06 0 0 0 -3.99-8.7 17.81 17.81 0 0 0 -6.7-5.98c-2.66-1.57-5.86-2.35-9.6-2.35-5.92 0-10.52 1.93-13.78 5.8-3.26 3.74-4.89 9-4.89 15.76" transform="matrix(.17 0 0 .17 -35.83 -70.23)"/></g></svg>