<svg height="84" viewBox="0 0 126 84" width="126" xmlns="http://www.w3.org/2000/svg"><linearGradient id="a" gradientUnits="userSpaceOnUse" spreadMethod="reflect" x1="103.88" x2="122.06" y1="10.76" y2="51.92"><stop offset="0" stop-color="#e0e0e0"/><stop offset="1" stop-color="#757575"/></linearGradient><linearGradient id="b" gradientUnits="userSpaceOnUse" x1="60.44" x2="57.2" y1="78.14" y2="60.74"><stop offset="0" stop-color="#004d0a"/><stop offset="1" stop-color="#179731"/></linearGradient><linearGradient id="c" gradientUnits="userSpaceOnUse" spreadMethod="reflect" x1="19.61" x2="21.33" y1="52.83" y2="65.28"><stop offset="0" stop-color="#a2a2a2"/><stop offset="1" stop-color="#eee"/></linearGradient><linearGradient id="d" gradientUnits="userSpaceOnUse" spreadMethod="reflect" x1="103.55" x2="108.25" y1="-10.14" y2=".29"><stop offset="0" stop-color="#002580"/><stop offset="1" stop-color="#3042e4"/></linearGradient><path d="m10.16 6.35c-.81 0-1.61.16-2.35.47-.75.31-1.42.76-1.99 1.33s-1.03 1.25-1.34 1.99c-.3.75-.46 1.55-.46 2.35v39.35h117.97v-39.35c0-.8-.16-1.6-.47-2.35-.31-.74-.76-1.42-1.33-1.99s-1.25-1.02-1.99-1.33c-.75-.31-1.55-.47-2.35-.47z" fill="url(#a)" stroke="#898989"/><path d="m4.01 52.84v18.67c0 3.39 2.75 6.14 6.14 6.14h105.69c3.4 0 6.14-2.75 6.14-6.14v-18.67z" fill="url(#b)" stroke="#075a17"/><g fill="url(#c)"><path d="m15.63 59.3h3.83l2.66 6.24 2.67-6.24h3.82v11.66h-2.84v-8.53l-2.69 6.29h-1.91l-2.69-6.29v8.53h-2.85z"/><path d="m32.89 62.22h2.8v8.75h-2.8zm0-3.41h2.8v2.28h-2.8z"/><path d="m46.9 62.49v2.28q-.57-.39-1.15-.58-.57-.19-1.19-.19-1.17 0-1.83.69-.65.68-.65 1.91 0 1.23.65 1.91.66.68 1.83.68.66 0 1.24-.2.59-.2 1.09-.58v2.29q-.66.24-1.34.36-.67.13-1.35.13-2.37 0-3.7-1.21-1.34-1.22-1.34-3.38 0-2.16 1.34-3.38 1.34-1.22 3.7-1.22.69 0 1.35.13.67.12 1.34.36z"/><path d="m57.27 64.6q-.37-.17-.73-.25-.36-.09-.73-.09-1.08 0-1.66.7-.58.69-.58 1.98v4.03h-2.8v-8.75h2.8v1.44q.54-.86 1.23-1.25.7-.4 1.68-.4.14 0 .3.02.16.01.48.05z"/><path d="m64.29 64.01q-.93 0-1.42.67-.48.66-.48 1.92 0 1.26.48 1.93.49.66 1.42.66.91 0 1.4-.66.48-.67.48-1.93 0-1.26-.48-1.92-.48-.67-1.4-.67zm0-2q2.26 0 3.52 1.22 1.27 1.22 1.27 3.38 0 2.16-1.27 3.38-1.27 1.22-3.52 1.22-2.27 0-3.55-1.22-1.27-1.22-1.27-3.38 0-2.16 1.27-3.38 1.28-1.22 3.55-1.22z"/><path d="m79.41 62.49v2.13q-.9-.38-1.73-.56-.84-.19-1.58-.19-.8 0-1.19.2-.38.2-.38.61 0 .34.29.52.3.18 1.05.27l.49.07q2.15.27 2.89.9.74.63.74 1.96 0 1.4-1.03 2.1-1.03.7-3.08.7-.87 0-1.8-.14-.92-.13-1.9-.41v-2.13q.84.41 1.71.61.88.2 1.79.2.82 0 1.23-.23.41-.23.41-.67 0-.38-.29-.55-.28-.19-1.13-.29l-.49-.06q-1.87-.23-2.62-.87-.75-.63-.75-1.92 0-1.39.95-2.06.95-.67 2.92-.67.77 0 1.63.12.85.12 1.85.37z"/><path d="m87.72 64.01q-.93 0-1.42.67-.48.66-.48 1.92 0 1.26.48 1.93.49.66 1.42.66.91 0 1.4-.66.48-.67.48-1.93 0-1.26-.48-1.92-.48-.67-1.4-.67zm0-2q2.26 0 3.52 1.22 1.27 1.22 1.27 3.38 0 2.16-1.27 3.38-1.27 1.22-3.52 1.22-2.27 0-3.55-1.22-1.27-1.22-1.27-3.38 0-2.16 1.27-3.38 1.28-1.22 3.55-1.22z"/><path d="m101.77 58.81v1.84h-1.55q-.59 0-.83.22-.23.21-.23.74v.61h2.39v2h-2.39v6.75h-2.8v-6.75h-1.39v-2h1.39v-.61q0-1.43.8-2.11.8-.69 2.47-.69z"/><path d="m107.49 59.73v2.48h2.88v2h-2.88v3.71q0 .61.24.83.24.21.96.21h1.44v2h-2.4q-1.66 0-2.35-.69-.69-.7-.69-2.35v-3.71h-1.39v-2h1.39v-2.48z"/></g><g fill="url(#d)" stroke-width=".42" transform="matrix(2.41 0 0 2.41 -188.56 27.6)"><path d="m98.57-3.77-1.22 10.52h-3.42q-.46-2.43-.82-5.51-.16 1.32-.76 5.51h-3.4l-1.22-10.52h2.66l.28 3.67.29 3.54q.15-2.75.75-7.21h2.85q.06.46.3 3.47l.3 4q.23-3.81.76-7.46z"/><path d="m108.17-3.77v10.52h-2.39v-7.1l-.95 7.1h-1.7l-1.01-6.94v6.94h-2.39v-10.52h3.54q.16.95.33 2.23l.38 2.68.62-4.91z"/><path d="m116.39-3.77-1.39 10.52h-4.15l-1.58-10.52h2.88q.5 4.35.71 7.35.21-3.03.45-5.39l.19-1.96z"/><path d="m121.45-3.77v10.52h-2.62v-5.64q0-1.22-.06-1.47-.06-.25-.32-.37-.26-.13-1.17-.13h-.26v-1.23q1.9-.41 2.89-1.68z"/></g></svg>