<svg height="89.5mm" viewBox="0 0 149 89.5" width="149mm" xmlns="http://www.w3.org/2000/svg"><g transform="translate(113 -123)"><g stroke-width="0" transform="matrix(.54 0 0 1 15.4 1.35)"><path d="m-10.5 127a43.1 40.4 0 0 0 -7.24.58 43.1 40.4 0 0 1 41.7 40.4 43.1 40.4 0 0 1 -35.9 39.9 43.1 40.4 0 0 0 1.34.06 43.1 40.4 0 0 0 43.1-40.4 43.1 40.4 0 0 0 -43.1-40.4z"/><path d="m-30.6 137a31.8 29.9 0 0 0 -5.34.43 31.8 29.9 0 0 1 30.8 29.8 31.8 29.9 0 0 1 -26.5 29.4 31.8 29.9 0 0 0 .99.05 31.8 29.9 0 0 0 31.8-29.9 31.8 29.9 0 0 0 -31.8-29.9z"/><path d="m-45.3 148a20.1 18.9 0 0 0 -3.38.27 20.1 18.9 0 0 1 19.5 18.8 20.1 18.9 0 0 1 -16.7 18.6 20.1 18.9 0 0 0 .63.03 20.1 18.9 0 0 0 20.1-18.9 20.1 18.9 0 0 0 -20.1-18.9z"/></g><path d="m-71.9 137c-1.76 0-3.17 1.42-3.17 3.17v1.27c0 1.76 1.42 3.17 3.17 3.17h16.3c1.76 0 3.17-1.42 3.17-3.17v-1.27c0-1.76-1.42-3.17-3.17-3.17zm.05 8.75c-1.76 0-3.17 1.42-3.17 3.17v1.27c0 1.76 1.42 3.17 3.17 3.17h16.3c1.76 0 3.17-1.42 3.17-3.17v-1.27c0-1.76-1.42-3.17-3.17-3.17zm-.11 8.89c-1.76 0-3.17 1.42-3.17 3.17v1.27c0 1.76 1.42 3.17 3.17 3.17h16.3c1.76 0 3.17-1.42 3.17-3.17v-1.27c0-1.76-1.42-3.17-3.17-3.17zm-25.5.01c-1.76 0-3.17 1.42-3.17 3.17v1.27c0 1.76 1.42 3.17 3.17 3.17h16.3c1.76 0 3.17-1.42 3.17-3.17v-1.27c0-1.76-1.42-3.17-3.17-3.17zm49.4 8.84c-1.76 0-3.17 1.42-3.17 3.17v1.27c0 1.76 1.42 3.17 3.17 3.17h16.3c1.76 0 3.17-1.42 3.17-3.17v-1.27c0-1.76-1.42-3.17-3.17-3.17zm-49.4.07c-1.76 0-3.17 1.42-3.17 3.17v1.27c0 1.76 1.42 3.17 3.17 3.17h16.3c1.76 0 3.17-1.42 3.17-3.17v-1.27c0-1.76-1.42-3.17-3.17-3.17zm25.1.11c-1.76 0-3.17 1.42-3.17 3.17v1.27c0 1.76 1.42 3.17 3.17 3.17h16.3c1.76 0 3.17-1.42 3.17-3.17v-1.27c0-1.76-1.42-3.17-3.17-3.17zm24.1 8.72c-1.76 0-3.17 1.42-3.17 3.17v1.27c0 1.76 1.42 3.17 3.17 3.17h16.3c1.76 0 3.17-1.42 3.17-3.17v-1.27c0-1.76-1.42-3.17-3.17-3.17zm-49.4.07c-1.76 0-3.17 1.42-3.17 3.17v1.27c0 1.76 1.42 3.17 3.17 3.17h16.3c1.76 0 3.17-1.42 3.17-3.17v-1.27c0-1.76-1.42-3.17-3.17-3.17zm25.1.11c-1.76 0-3.17 1.42-3.17 3.17v1.27c0 1.76 1.42 3.17 3.17 3.17h16.3c1.76 0 3.17-1.42 3.17-3.17v-1.27c0-1.76-1.42-3.17-3.17-3.17zm24.2 8.57c-1.76 0-3.17 1.42-3.17 3.17v1.27c0 1.76 1.42 3.17 3.17 3.17h16.3c1.76 0 3.17-1.42 3.17-3.17v-1.27c0-1.76-1.42-3.17-3.17-3.17zm-49.4.07c-1.76 0-3.17 1.42-3.17 3.17v1.27c0 1.76 1.42 3.17 3.17 3.17h16.3c1.76 0 3.17-1.42 3.17-3.17v-1.27c0-1.76-1.42-3.17-3.17-3.17zm25.1.11c-1.76 0-3.17 1.42-3.17 3.17v1.27c0 1.76 1.42 3.17 3.17 3.17h16.3c1.76 0 3.17-1.42 3.17-3.17v-1.27c0-1.76-1.42-3.17-3.17-3.17zm24.1 8.72c-1.76 0-3.17 1.42-3.17 3.17v1.27c0 1.76 1.42 3.17 3.17 3.17h16.3c1.76 0 3.17-1.42 3.17-3.17v-1.27c0-1.76-1.42-3.17-3.17-3.17zm-49.4.07c-1.76 0-3.17 1.42-3.17 3.17v1.27c0 1.76 1.42 3.17 3.17 3.17h16.3c1.76 0 3.17-1.42 3.17-3.17v-1.27c0-1.76-1.42-3.17-3.17-3.17zm25.1.11c-1.76 0-3.17 1.42-3.17 3.17v1.27c0 1.76 1.42 3.17 3.17 3.17h16.3c1.76 0 3.17-1.42 3.17-3.17v-1.27c0-1.76-1.42-3.17-3.17-3.17z" fill="#555" stroke-width="1.78"/></g></svg>