<svg height="89.5mm" viewBox="0 0 149 89.5" width="149mm" xmlns="http://www.w3.org/2000/svg"><g transform="translate(113 -123)"><g stroke-width="0" transform="matrix(.54 0 0 1 15.4 1.35)"><path d="m-10.5 127a43.1 40.4 0 0 0 -7.24.58 43.1 40.4 0 0 1 41.7 40.4 43.1 40.4 0 0 1 -35.9 39.9 43.1 40.4 0 0 0 1.34.06 43.1 40.4 0 0 0 43.1-40.4 43.1 40.4 0 0 0 -43.1-40.4z"/><path d="m-30.6 137a31.8 29.9 0 0 0 -5.34.43 31.8 29.9 0 0 1 30.8 29.8 31.8 29.9 0 0 1 -26.5 29.4 31.8 29.9 0 0 0 .99.05 31.8 29.9 0 0 0 31.8-29.9 31.8 29.9 0 0 0 -31.8-29.9z"/><path d="m-45.3 148a20.1 18.9 0 0 0 -3.38.27 20.1 18.9 0 0 1 19.5 18.8 20.1 18.9 0 0 1 -16.7 18.6 20.1 18.9 0 0 0 .63.03 20.1 18.9 0 0 0 20.1-18.9 20.1 18.9 0 0 0 -20.1-18.9z"/></g><path d="m-69.4 133c-1.22 0-2.19.98-2.19 2.19v.88c0 1.22.98 2.19 2.19 2.19h11.3c1.22 0 2.19-.98 2.19-2.19v-.88c0-1.22-.98-2.19-2.19-2.19zm.04 6.05c-1.22 0-2.19.98-2.19 2.19v.88c0 1.22.98 2.19 2.19 2.19h11.3c1.22 0 2.19-.98 2.19-2.19v-.88c0-1.22-.98-2.19-2.19-2.19zm-.07 6.15c-1.22 0-2.19.98-2.19 2.19v.88c0 1.22.98 2.19 2.19 2.19h11.3c1.22 0 2.19-.98 2.19-2.19v-.88c0-1.22-.98-2.19-2.19-2.19zm-17.6 0c-1.22 0-2.19.98-2.19 2.19v.88c0 1.22.98 2.19 2.19 2.19h11.3c1.22 0 2.19-.98 2.19-2.19v-.88c0-1.22-.98-2.19-2.19-2.19zm34.2 6.12c-1.22 0-2.19.98-2.19 2.19v.88c0 1.22.98 2.19 2.19 2.19h11.3c1.22 0 2.19-.98 2.19-2.19v-.88c0-1.22-.98-2.19-2.19-2.19zm-34.2.05c-1.22 0-2.19.98-2.19 2.19v.88c0 1.22.98 2.19 2.19 2.19h11.3c1.22 0 2.19-.98 2.19-2.19v-.88c0-1.22-.98-2.19-2.19-2.19zm17.4.07c-1.22 0-2.19.98-2.19 2.19v.88c0 1.22.98 2.19 2.19 2.19h11.3c1.22 0 2.19-.98 2.19-2.19v-.88c0-1.22-.98-2.19-2.19-2.19zm16.7 6.03c-1.22 0-2.19.98-2.19 2.19v.88c0 1.22.98 2.19 2.19 2.19h11.3c1.22 0 2.19-.98 2.19-2.19v-.88c0-1.22-.98-2.19-2.19-2.19zm-34.2.05c-1.22 0-2.19.98-2.19 2.19v.88c0 1.22.98 2.19 2.19 2.19h11.3c1.22 0 2.19-.98 2.19-2.19v-.88c0-1.22-.98-2.19-2.19-2.19zm17.4.07c-1.22 0-2.19.98-2.19 2.19v.88c0 1.22.98 2.19 2.19 2.19h11.3c1.22 0 2.19-.98 2.19-2.19v-.88c0-1.22-.98-2.19-2.19-2.19zm16.7 5.93c-1.22 0-2.19.98-2.19 2.19v.88c0 1.22.98 2.19 2.19 2.19h11.3c1.22 0 2.19-.98 2.19-2.19v-.88c0-1.22-.98-2.19-2.19-2.19zm-34.2.05c-1.22 0-2.19.98-2.19 2.19v.88c0 1.22.98 2.19 2.19 2.19h11.3c1.22 0 2.19-.98 2.19-2.19v-.88c0-1.22-.98-2.19-2.19-2.19zm17.4.07c-1.22 0-2.19.98-2.19 2.19v.88c0 1.22.98 2.19 2.19 2.19h11.3c1.22 0 2.19-.98 2.19-2.19v-.88c0-1.22-.98-2.19-2.19-2.19zm16.7 6.03c-1.22 0-2.19.98-2.19 2.19v.88c0 1.22.98 2.19 2.19 2.19h11.3c1.22 0 2.19-.98 2.19-2.19v-.88c0-1.22-.98-2.19-2.19-2.19zm-34.2.05c-1.22 0-2.19.98-2.19 2.19v.88c0 1.22.98 2.19 2.19 2.19h11.3c1.22 0 2.19-.98 2.19-2.19v-.88c0-1.22-.98-2.19-2.19-2.19zm17.4.07c-1.22 0-2.19.98-2.19 2.19v.88c0 1.22.98 2.19 2.19 2.19h11.3c1.22 0 2.19-.98 2.19-2.19v-.88c0-1.22-.98-2.19-2.19-2.19z" fill="#555" stroke-width="1.23"/><text style="font-family:Impact;font-size:33.8;font-weight:bold;letter-spacing:0;stroke:#000;stroke-width:.34;word-spacing:0" x="-97.42" y="205.86"><tspan font-size="33.8" stroke-width=".34" x="-97.42" y="205.86">kbps</tspan></text></g></svg>