<svg viewBox="0 0 16 16" xmlns="http://www.w3.org/2000/svg"><path d="m2.5 2c-.82 0-1.5.68-1.5 1.5v8c0 .82 1.21 1.64 1.21 1.64-.16 1.27-.75 1.66-.18 2.58.29.4 5.62-2.72 5.62-2.72h5.85c.82 0 1.5-.68 1.5-1.5v-8c0-.82-.68-1.5-1.5-1.5zm0 1h11c.28 0 .5.22.5.5v8c0 .28-.22.5-.5.5h-6.15l-4.75 2.57.67-1.9c-.45-.32-1.03-.93-1.27-1.17v-8c0-.28.22-.5.5-.5zm.61 2.41c-.12.13-.11.39-.11.67v2.92h1v-1h2v1h1v-3.21c0-.15-.06-.29-.17-.38l-1.5-1.29c-.09-.08-.83-.02-.95-.02zm.89.45.81-.86 1.19 1.02v.98h-2zm6 .14v1h-2v1h2.88c-.11.19-.23.39-.38.6-.07.1-.16.18-.24.28-.36-.34-.63-.63-.63-.63l-.76.64s.28.3.65.65c-.42.28-.92.46-1.52.46v1c.93 0 1.7-.34 2.3-.79.58.41 1.28.79 2.08.79v-1c-.41 0-.9-.22-1.34-.51.08-.1.18-.2.26-.3.32-.43.55-.86.7-1.19h1v-1h-2v-1z"/></svg>