<svg height="89.55mm" viewBox="0 0 148.81 89.55" width="148.81mm" xmlns="http://www.w3.org/2000/svg"><path d="m9.39 2h7.48s14.57 11.25 14.27 43.83-14.27 41.7-14.27 41.7h-7.48z" fill="#808080"/><path d="m102.72 4.15a43.09 40.44 0 0 0 -7.24.58 43.09 40.44 0 0 1 41.74 40.38 43.09 40.44 0 0 1 -35.85 39.86 43.09 40.44 0 0 0 1.34.06 43.09 40.44 0 0 0 43.09-40.44 43.09 40.44 0 0 0 -43.09-40.44z"/><path d="m82.62 14.36a31.81 29.86 0 0 0 -5.34.43 31.81 29.86 0 0 1 30.82 29.81 31.81 29.86 0 0 1 -26.47 29.43 31.81 29.86 0 0 0 .99.05 31.81 29.86 0 0 0 31.81-29.86 31.81 29.86 0 0 0 -31.81-29.86z"/><path d="m67.9 25.05a20.11 18.88 0 0 0 -3.38.27 20.11 18.88 0 0 1 19.49 18.85 20.11 18.88 0 0 1 -16.73 18.61 20.11 18.88 0 0 0 .63.03 20.11 18.88 0 0 0 20.11-18.88 20.11 18.88 0 0 0 -20.11-18.88z"/><path d="m45.9 53.43c-.05-4.89.5-6.24 3.69-8.99 4.89-4.34 5.99-6.04 5.99-9.53 0-5.19-3.84-8.69-9.53-8.69-5.64 0-9.73 3.09-9.73 7.39 0 2.2 1.4 3.84 3.24 3.84 1.6 0 2.84-1.2 2.84-2.75 0-1-.5-1.85-1.45-2.65-.75-.6-.8-.7-.8-1.1 0-1.3 2.2-2.5 4.59-2.5 3.54 0 5.59 2.3 5.59 6.14 0 2.05-.6 3.94-1.6 5.39-3.69 5.04-3.69 5.04-4.34 6.79-.5 1.4-.7 2.7-.7 5.04v1.6zm-1.2 4.04c-1.75 0-3.15 1.4-3.15 3.09 0 1.75 1.4 3.15 3.09 3.15 1.75 0 3.15-1.4 3.15-3.15 0-1.7-1.4-3.09-3.09-3.09z"/></svg>