<svg enable-background="new 0 0 60 60" viewBox="0 0 60 60" xmlns="http://www.w3.org/2000/svg"><path d="m49.55 0h-12.55-14-12.55l-10.45 16.71v43.29h23 14 23v-43.29zm-1.11 2 8.75 14h-20.19l-2.54-14zm-18.44 0 2.74.03 2.26 13.97h-5-5l1.81-13.97zm3.93 21.66c-1.26 1.4-2.9 2.62-4.03 3.96-.82-.52-2.88-2.92-3.83-3.96l-.07-.07-1 1v-6.59c3.82.05 6.77.06 10 0v6.59l-1-1zm-22.38-21.66 13.45-.06-2 14.06h-20.2zm13.45 56v-3.59l1 1 4-4 4 4 1-1v3.59zm12 0v-8.41l-3 3-4-4-4 4-3-3v8.41h-21v-40h21v11.41l3-3 4 4 4-4 3 3v-11.41h21v40z"/><g transform="matrix(-.01 1 -1 -.01 32.15 14.78)"><path d="m4.86 16h2.78l1.93 6.18 1.9-6.18h2.7l-3.19 8.59h-2.87z"/><path d="m15.15 16h2.38v1.62h-2.38zm0 2.37h2.38v6.22h-2.38z"/><path d="m25.63 16v8.59h-2.23v-.92q-.47.59-.86.79-.52.27-1.15.27-1.27 0-1.95-.97-.67-.97-.67-2.35 0-1.55.74-2.37.74-.82 1.89-.82.56 0 1.01.19.46.19.81.56v-2.97zm-2.39 5.46q0-.73-.31-1.09-.31-.36-.79-.36-.42 0-.7.35-.28.35-.28 1.16 0 .76.29 1.12.29.35.72.35.46 0 .76-.36.3-.36.3-1.17z"/><path d="m34 22.07h-4.78q.06.57.31.86.35.4.9.4.35 0 .67-.18.19-.11.42-.39l2.35.22q-.54.94-1.3 1.35-.76.4-2.19.4-1.24 0-1.95-.35-.71-.35-1.18-1.11-.46-.76-.46-1.79 0-1.46.93-2.36.94-.9 2.58-.9 1.34 0 2.11.4.77.4 1.18 1.17.4.77.4 2zm-2.43-1.14q-.07-.69-.38-.99-.3-.3-.79-.3-.57 0-.91.45-.22.28-.28.84z"/><path d="m34.81 21.49q0-1.42.96-2.34.96-.93 2.6-.93 1.87 0 2.82 1.08.77.87.77 2.15 0 1.44-.96 2.36-.95.91-2.63.91-1.5 0-2.43-.76-1.13-.94-1.13-2.47zm2.39-.01q0 .83.33 1.23.34.4.85.4.52 0 .84-.39.33-.39.33-1.26 0-.81-.33-1.2-.33-.4-.83-.4-.52 0-.86.4-.34.4-.34 1.22z"/></g><text x="4.32" y="29.24"><tspan x="4.32" y="33.49"/></text><text x="11.95" y="44.75"><tspan x="11.95" y="48.99"/></text><g transform="matrix(-.01 1 -1 -.01 79.25 -.91)"><path d="m26.76 31.3h-3.02l-.42 1.42h-2.71l3.23-8.59h2.89l3.23 8.59h-2.78zm-.56-1.86-.95-3.09-.94 3.09z"/><path d="m37.09 32.72h-2.23v-1.01q-.5.62-1.01.88-.5.26-1.24.26-.98 0-1.55-.59-.56-.59-.56-1.82v-3.96h2.4v3.42q0 .59.22.83.22.25.61.25.43 0 .7-.33.28-.33.28-1.18v-2.99h2.38z"/><path d="m45.12 24.13v8.59h-2.23v-.92q-.47.59-.86.79-.52.27-1.15.27-1.27 0-1.95-.97-.67-.97-.67-2.35 0-1.55.74-2.37.74-.82 1.89-.82.56 0 1.01.19.46.19.81.56v-2.98zm-2.39 5.46q0-.73-.31-1.09-.31-.36-.79-.36-.42 0-.7.35-.28.35-.28 1.16 0 .76.29 1.12.29.35.72.35.46 0 .76-.36.3-.36.3-1.17z"/><path d="m46.67 24.13h2.38v1.62h-2.38zm0 2.37h2.38v6.22h-2.38z"/><path d="m50.29 29.63q0-1.42.96-2.34.96-.93 2.6-.93 1.87 0 2.82 1.08.77.87.77 2.15 0 1.44-.96 2.36-.95.91-2.63.91-1.5 0-2.43-.76-1.14-.94-1.14-2.47zm2.39-.01q0 .83.33 1.23.34.4.85.4.52 0 .84-.39.33-.39.33-1.26 0-.81-.33-1.2-.33-.4-.83-.4-.52 0-.86.4-.34.4-.34 1.22z"/></g><g transform="matrix(.84 .54 -.54 .84 0 0)"><path d="m33.86 13.18h7.17v1.89h-2.41v5.75h-2.36v-5.75h-2.41z"/><path d="m47.47 18.58h-4.25q.06.51.28.76.31.36.8.36.31 0 .59-.16.17-.1.37-.35l2.09.19q-.48.83-1.16 1.2-.68.36-1.94.36-1.1 0-1.73-.31-.63-.31-1.05-.98-.41-.68-.41-1.59 0-1.3.83-2.1.83-.8 2.3-.8 1.19 0 1.88.36.69.36 1.05 1.04.36.68.36 1.78zm-2.16-1.02q-.06-.61-.33-.88-.27-.27-.7-.27-.51 0-.81.4-.19.25-.24.74z"/><path d="m47.7 15.28h2.52l.88 1.54 1.02-1.54h2.34l-1.89 2.64 2.02 2.9h-2.47l-1.02-1.78-1.2 1.78h-2.3l2.01-2.9z"/><path d="m57.87 13.18v2.1h1.17v1.55h-1.17v1.96q0 .35.07.47.1.18.36.18.23 0 .66-.14l.16 1.46q-.79.17-1.47.17-.79 0-1.17-.2-.38-.2-.56-.61-.18-.42-.18-1.34v-1.95h-.78v-1.55h.78v-1.02z"/></g></svg>