<svg viewBox="0 0 384 512" xmlns="http://www.w3.org/2000/svg"><path d="m384 144.56v319.44c0 26.5-21.5 48-48 48h-288c-26.5 0-48-21.5-48-48v-416c0-26.5 21.5-48 48-48h204.1c12.7 0 20.35 10.82 28.91 20.24l81.6 89.65c9 8.9 21.39 21.97 21.39 34.67zm-130.3-106.08-.38 97.58 89.52 2.3zm97.49 439.62v-311.86l-99.96-1.15c-13.3-.15-29.32-15.79-29.13-29.36l2.5-103.23-189.62-1.86 1.09 447.46z" fill="#aeaeae"/><path d="m82.82 254.23c-6.27.01-11.35.04-12.71.09-11.29.05-11.15 6.7-11.22 13.61s.97 13.22 11.44 13.12c2.26.08 10.06.19 21.1.23v.01c12.28.06 29.86.03 32.59-.07 11.29-.05 11.15-6.7 11.22-13.61s-.97-13.22-11.44-13.12c-2.26-.08-10.06-.19-21.1-.23 0 0 0-.01-.01-.01-6.14-.03-13.6-.04-19.88-.03z"/><path d="m177.96 253.76c-6.27.01-11.35.04-12.71.09-11.29.05-11.15 6.7-11.22 13.61s.97 13.22 11.44 13.12c2.26.08 10.06.19 21.1.23 0 .01 0 .01.01.01 12.28.06 29.86.03 32.59-.07 11.29-.05 11.15-6.7 11.22-13.61s-.97-13.22-11.44-13.12c-2.26-.08-10.06-.19-21.1-.23 0 0 0-.01-.01-.01-6.14-.03-13.6-.04-19.88-.03z"/><path d="m274.35 253.76c-6.27.01-11.35.04-12.71.09-11.29.05-11.15 6.7-11.22 13.61s.97 13.22 11.44 13.12c2.26.08 10.06.19 21.1.23 0 .01 0 .01.01.01 12.28.06 29.86.03 32.59-.07 11.29-.05 11.15-6.7 11.22-13.61s-.97-13.22-11.44-13.12c-2.26-.08-10.06-.19-21.1-.23 0 0 0-.01-.01-.01-6.14-.03-13.6-.04-19.88-.03z"/><g fill="#737373" fill-rule="evenodd"><path d="m149.88 234.31h40.41 42.03l-42.31-37.42z"/><path d="m232.19 302.39h-40.41-42.03l42.31 37.42z"/></g></svg>