<svg viewBox="0 0 512 512" xmlns="http://www.w3.org/2000/svg"><path d="m316.85 197.87c59.75 59.81 66.82 139.6 8.25 198.49-.11.12-.42.39-.55.51l-70.57 69.06c-59.9 58.62-133.66 49.25-192.92-10.02-59.27-59.26-60.69-128.87-1.42-188.13l32.77-36.02c9.36-10.29 25.7-2.22 26.21 11.69.65 17.72-1.6 20.34 4.27 37.53 1.99 5.82.57 12.26-3.78 16.61l-13.09 13.09c-28.03 28.03-28.9 73.66-1.16 101.96 28.02 28.58 74.09 28.75 102.33.51l67.2-67.19c28.19-28.19 28.07-73.76 0-101.83-3.7-3.69-7.43-6.56-10.34-8.57-4.18-2.87-6.75-7.54-6.95-12.61-.4-10.57 3.35-21.46 11.7-29.81l8.04-8.04c5.52-5.52 15.27-7.83 21.67-3.36 7.33 5.12 12.03 9.79 18.35 16.11z"/><path d="m203.23 323.22c-62.18-57.28-72.56-136.7-16.49-197.98.1-.12.41-.41.52-.53l67.64-71.93c57.42-61.06 131.5-54.76 193.17 1.99 61.68 56.75 66 126.24 9.24 187.91l-31.24 37.35c-8.93 10.67-25.59 3.28-26.67-10.59-1.38-17.68.75-20.39-5.82-37.32-2.23-5.73-1.08-12.23 3.09-16.75l12.53-13.62c26.84-29.17 25.82-74.81-3.08-101.93-29.19-27.39-75.22-25.64-102.26 3.74l-64.35 69.92c-27 29.34-24.98 74.86 4.23 101.74 3.85 3.54 7.7 6.25 10.69 8.13 4.29 2.69 7.06 7.26 7.46 12.31.83 10.54-2.45 21.58-10.45 30.27l-7.7 8.37c-5.29 5.75-14.93 8.45-21.51 4.26-7.54-4.81-12.43-9.28-19.01-15.34z"/></svg>