<svg viewBox="0 0 16 16" xmlns="http://www.w3.org/2000/svg"><path d="m2.5 2c-.82 0-1.5.68-1.5 1.5v8c0 .82.72 1.5 1.23 1.5.74 0 1.82-.01 3.08-.01.24 0-.87 1.35-.62 1.35h6.38c.19 0-.77-1.35-.58-1.35 1.14.01 1.94.01 3.01.01.82 0 1.5-.68 1.5-1.5v-8c0-.82-.68-1.5-1.5-1.5zm0 1h11c.28 0 .5.22.5.5v8c0 .28-.22.5-.5.5-3.57.11-3.69.04-10.92.17-.39-.04-.55-.28-.58-.67v-8c0-.28.22-.5.5-.5z"/><path d="m8.71 8.8-2.14 2.71.25.3c1.23-.88 1.19-1.36 2.46-2.97z"/><path d="m9.69 9.28.88.99-.92.75.14.42s1.32-.57 1.35-1.16c.02-.59-1.25-1.29-1.25-1.29z"/><path d="m6.06 9.37-.88.99.92.75-.14.42s-1.32-.57-1.35-1.16 1.24-1.29 1.24-1.29z"/></svg>