<svg viewBox="0 0 16 16" xmlns="http://www.w3.org/2000/svg"><path d="m2.5 2c-.82 0-1.5.68-1.5 1.5v8c0 .82.72 1.5 1.23 1.5.74 0 1.82-.01 3.08-.01.24 0-.87 1.35-.62 1.35h6.38c.19 0-.77-1.35-.58-1.35 1.14.01 1.94.01 3.01.01.82 0 1.5-.68 1.5-1.5v-8c0-.82-.68-1.5-1.5-1.5zm0 1h11c.28 0 .5.22.5.5v8c0 .28-.22.5-.5.5-3.57.11-3.69.04-10.92.17-.39-.04-.55-.28-.58-.67v-8c0-.28.22-.5.5-.5zm2.43 6.39c-.06.07-.06.2-.06.35v1.51h.52v-.52h1.04v.52h.51v-1.66c0-.08-.03-.15-.09-.2l-.78-.66c-.04-.04-.43-.02-.49-.02zm.46.24.42-.45.61.53v.51h-1.03zm3.71-1.07v.55h-1.1v.55h1.58c-.06.11-.12.22-.21.33-.04.05-.09.1-.13.15-.2-.18-.34-.34-.34-.34l-.42.35s.15.17.36.36c-.24.15-.51.25-.84.25v.55c.51 0 .93-.19 1.26-.44.32.23.7.44 1.14.44v-.55c-.22 0-.49-.12-.74-.28.05-.06.1-.11.14-.17.18-.24.3-.47.39-.65h.55v-.55h-1.09v-.55z"/></svg>