<svg viewBox="0 0 16 16" xmlns="http://www.w3.org/2000/svg"><g fill="#00ced4" transform="matrix(.19 0 0 .25 1.89 -.51)"><path d="m48 26v-4h-4v-4h4v-4h-4-4-40v36h40 4 4 4 4v-4h-4v-4h4v-4h-4v-4h-4v-4h4v-4z" fill="#cfcfcf"/><path d="m48 18h4v4h-4z" fill="#a8a8a8"/><path d="m52 14h4v4h-4z" fill="#dcdcdc"/><path d="m60 22h4v4h-4z" fill="#000d0d"/><path d="m60 30h4v4h-4z" fill="#b5b5b5"/><path d="m60 46h4v4h-4z" fill="#00ced4"/><path d="m52 22h4v4h-4z" fill="#515151"/><path d="m56 26h4v4h-4z" fill="#7b8282"/><path d="m52 30h4v4h-4z" fill="#bdc2c2"/><path d="m56 42h4v4h-4z" fill="#c2c2c2"/><path d="m56 34h4v4h-4z" fill="#585858"/><g fill="#000"><path d="m56 18h4v4h-4z"/><path d="m60 38h4v4h-4z"/><path d="m60 46h4v4h-4z"/><path d="m60 14h4v4h-4z"/><path d="m6.56 18.16c-1.34.23-1.46.79-1.06 2.36 1.11 3.07 2.02 6.73 2.97 8.62.65 1.06.61 2.77 2.73 2.32 2.13-.45.75-2.61.61-3.51-.29-1.26-.76-2.96-.19-3.71.57-.76 3.71 1.38 5.59 2.36 3.92 2.02 8.47 4.37 11.97 5.93 7.65 3.67 16.86 8.38 16.62 9.09-.24.7-5.01.64-6.77.71-2.74.12-3.07.25-2.86 1.69s4.17 1.12 6.45 1.2c4.09.09 6.54.02 9.52-.08s3.36-.4 2.83-2.51c-1.11-3.07-2.02-6.74-2.97-8.63-.65-1.06-.61-2.77-2.73-2.32-2.13.45-.75 2.61-.61 3.51.29 1.26.76 2.96.19 3.71-.57.76-3.71-1.38-5.59-2.36-3.92-2.02-8.47-4.37-11.97-5.93-7.65-3.67-16.86-8.38-16.62-9.09.24-.7 5.01-.64 6.77-.71 2.74-.12 3.07-.25 2.86-1.69s-4.17-1.12-6.45-1.2c-4.09-.09-6.54-.02-9.52.08-.74.03-1.33.07-1.77.14z"/></g></g><path d="m2.5 2c-.82 0-1.5.68-1.5 1.5v8c0 .82.72 1.5 1.23 1.5.74 0 1.82-.01 3.08-.01.24 0-.87 1.35-.62 1.35h6.38c.19 0-.77-1.35-.58-1.35 1.14.01 1.94.01 3.01.01.82 0 1.5-.68 1.5-1.5v-8c0-.82-.68-1.5-1.5-1.5zm0 1h11c.28 0 .5.22.5.5v8c0 .28-.22.5-.5.5-3.84-.03-6.24.08-10.89 0-.38-.04-.61-.31-.64-.7l.03-7.8c0-.28.22-.5.5-.5z"/></svg>