<svg viewBox="0 0 16 16" xmlns="http://www.w3.org/2000/svg"><g fill="#00ced4" transform="matrix(.19 0 0 .25 1.89 -.51)"><path d="m48 26v-4h-4v-4h4v-4h-4-4-40v36h40 4 4 4 4v-4h-4v-4h4v-4h-4v-4h-4v-4h4v-4z" fill="#4f4f4f"/><path d="m48 18h4v4h-4z" fill="#484848"/><path d="m52 14h4v4h-4z" fill="#1c1c1c"/><path d="m60 22h4v4h-4z" fill="#000d0d"/><path d="m60 30h4v4h-4z" fill="#151515"/><path d="m60 46h4v4h-4z" fill="#505e54"/><path d="m52 22h4v4h-4z" fill="#515151"/><path d="m56 26h4v4h-4z" fill="#505050"/><path d="m52 30h4v4h-4z" fill="#5d5252"/><path d="m56 42h4v4h-4z" fill="#525252"/><path d="m56 34h4v4h-4z" fill="#585858"/><path d="m56 18h4v4h-4z" fill="#101010"/><path d="m60 38h4v4h-4z" fill="#505050"/><path d="m60 46h4v4h-4z" fill="#505050"/><path d="m60 14h4v4h-4z" fill="#101010"/></g><path d="m2.5 2c-.82 0-1.5.68-1.5 1.5v8c0 .82.72 1.5 1.23 1.5.74 0 1.82-.01 3.08-.01.24 0-.87 1.35-.62 1.35h6.38c.19 0-.77-1.35-.58-1.35 1.14.01 1.94.01 3.01.01.82 0 1.5-.68 1.5-1.5v-8c0-.82-.68-1.5-1.5-1.5zm0 1h11c.28 0 .5.22.5.5v8c0 .28-.22.5-.5.5-3.84-.03-6.24.08-10.89 0-.38-.04-.61-.31-.64-.7l.03-7.8c0-.28.22-.5.5-.5z"/></svg>