<svg height="58" viewBox="0 0 69 58" width="69" xmlns="http://www.w3.org/2000/svg"><g transform="translate(3 5)"><g fill="#00ced4" transform="matrix(.99 0 0 1.06 .42 -9.73)"><g fill="#00ced4"><path d="m48 18h4v4h-4z"/><path d="m52 42h4v-4h-4v-4h-4v-4h4v-4h-4v-4h-4v-4h4v-4h-4-4-40v36h40 4 4 4 4v-4h-4z"/><path d="m52 14h4v4h-4z"/></g><path d="m60 22h4v4h-4z" fill="#000d0d"/><g fill="#00ced4"><path d="m60 30h4v4h-4z"/><path d="m60 46h4v4h-4z"/><path d="m52 22h4v4h-4z"/><path d="m56 26h4v4h-4z"/><path d="m52 30h4v4h-4z"/><path d="m56 42h4v4h-4z"/><path d="m56 34h4v4h-4z"/></g><g fill="#000"><path d="m56 18h4v4h-4z"/><path d="m60 38h4v4h-4z"/><path d="m60 46h4v4h-4z"/><path d="m60 14h4v4h-4z"/></g><path d="m48 14h-48v36h56" stroke="#000" stroke-linejoin="round" stroke-miterlimit="10" stroke-width="2.44" transform="matrix(1 0 0 1.08 .02 -2.56)"/></g><text x="33.2" y="16.39"><tspan x="33.2" y="16.39"/></text></g></svg>