<svg height="89.5mm" viewBox="0 0 149 89.5" width="149mm" xmlns="http://www.w3.org/2000/svg"><g transform="translate(113 -123)"><path d="m-45.6 131c-1.08 0-1.95.87-1.95 1.95v.78c0 1.08.87 1.95 1.95 1.95h10c1.08 0 1.95-.87 1.95-1.95v-.78c0-1.08-.87-1.95-1.95-1.95zm.03 5.37c-1.08 0-1.95.87-1.95 1.95v.78c0 1.08.87 1.95 1.95 1.95h10c1.08 0 1.95-.87 1.95-1.95v-.78c0-1.08-.87-1.95-1.95-1.95zm-.07 5.46c-1.08 0-1.95.87-1.95 1.95v.78c0 1.08.87 1.95 1.95 1.95h10c1.08 0 1.95-.87 1.95-1.95v-.78c0-1.08-.87-1.95-1.95-1.95zm-15.7 0c-1.08 0-1.95.87-1.95 1.95v.78c0 1.08.87 1.95 1.95 1.95h10c1.08 0 1.95-.87 1.95-1.95v-.78c0-1.08-.87-1.95-1.95-1.95zm30.3 5.43c-1.08 0-1.95.87-1.95 1.95v.78c0 1.08.87 1.95 1.95 1.95h10c1.08 0 1.95-.87 1.95-1.95v-.78c0-1.08-.87-1.95-1.95-1.95zm-30.3.04c-1.08 0-1.95.87-1.95 1.95v.78c0 1.08.87 1.95 1.95 1.95h10c1.08 0 1.95-.87 1.95-1.95v-.78c0-1.08-.87-1.95-1.95-1.95zm15.4.06c-1.08 0-1.95.87-1.95 1.95v.78c0 1.08.87 1.95 1.95 1.95h10c1.08 0 1.95-.87 1.95-1.95v-.78c0-1.08-.87-1.95-1.95-1.95zm14.8 5.36c-1.08 0-1.95.87-1.95 1.95v.78c0 1.08.87 1.95 1.95 1.95h10c1.08 0 1.95-.87 1.95-1.95v-.78c0-1.08-.87-1.95-1.95-1.95zm-30.3.04c-1.08 0-1.95.87-1.95 1.95v.78c0 1.08.87 1.95 1.95 1.95h10c1.08 0 1.95-.87 1.95-1.95v-.78c0-1.08-.87-1.95-1.95-1.95zm15.4.06c-1.08 0-1.95.87-1.95 1.95v.78c0 1.08.87 1.95 1.95 1.95h10c1.08 0 1.95-.87 1.95-1.95v-.78c0-1.08-.87-1.95-1.95-1.95zm14.9 5.26c-1.08 0-1.95.87-1.95 1.95v.78c0 1.08.87 1.95 1.95 1.95h10c1.08 0 1.95-.87 1.95-1.95v-.78c0-1.08-.87-1.95-1.95-1.95zm-30.3.04c-1.08 0-1.95.87-1.95 1.95v.78c0 1.08.87 1.95 1.95 1.95h10c1.08 0 1.95-.87 1.95-1.95v-.78c0-1.08-.87-1.95-1.95-1.95zm15.4.06c-1.08 0-1.95.87-1.95 1.95v.78c0 1.08.87 1.95 1.95 1.95h10c1.08 0 1.95-.87 1.95-1.95v-.78c0-1.08-.87-1.95-1.95-1.95zm14.8 5.36c-1.08 0-1.95.87-1.95 1.95v.78c0 1.08.87 1.95 1.95 1.95h10c1.08 0 1.95-.87 1.95-1.95v-.78c0-1.08-.87-1.95-1.95-1.95zm-30.3.04c-1.08 0-1.95.87-1.95 1.95v.78c0 1.08.87 1.95 1.95 1.95h10c1.08 0 1.95-.87 1.95-1.95v-.78c0-1.08-.87-1.95-1.95-1.95zm15.4.06c-1.08 0-1.95.87-1.95 1.95v.78c0 1.08.87 1.95 1.95 1.95h10c1.08 0 1.95-.87 1.95-1.95v-.78c0-1.08-.87-1.95-1.95-1.95z" fill="#555" stroke-width="1.09"/><text style="font-family:Impact;font-size:33.8;font-weight:bold;letter-spacing:0;stroke:#000;stroke-width:.34;word-spacing:0" x="-72.41" y="200.85"><tspan font-size="33.8" stroke-width=".34" x="-72.41" y="200.85">kbps</tspan></text></g></svg>