<svg height="89.5mm" viewBox="0 0 149 89.5" width="149mm" xmlns="http://www.w3.org/2000/svg"><g stroke-width="1.35"><path d="m123 36c-1.33 0-2.4 1.08-2.4 2.4v.96c0 1.33 1.08 2.4 2.4 2.4h12.4c1.33 0 2.4-1.08 2.4-2.4v-.96c0-1.33-1.08-2.4-2.4-2.4zm-18.1.02c-1.33 0-2.4 1.08-2.4 2.4v.96c0 1.33 1.08 2.4 2.4 2.4h12.4c1.33 0 2.4-1.08 2.4-2.4v-.96c0-1.33-1.08-2.4-2.4-2.4zm-19.3.01c-1.33 0-2.4 1.08-2.4 2.4v.96c0 1.33 1.08 2.4 2.4 2.4h12.4c1.33 0 2.4-1.08 2.4-2.4v-.96c0-1.33-1.08-2.4-2.4-2.4zm37.5 6.7c-1.33 0-2.4 1.08-2.4 2.4v.96c0 1.33 1.08 2.4 2.4 2.4h12.4c1.33 0 2.4-1.08 2.4-2.4v-.96c0-1.33-1.08-2.4-2.4-2.4zm-37.5.05c-1.33 0-2.4 1.08-2.4 2.4v.96c0 1.33 1.08 2.4 2.4 2.4h12.4c1.33 0 2.4-1.08 2.4-2.4v-.96c0-1.33-1.08-2.4-2.4-2.4zm19 .08c-1.33 0-2.4 1.08-2.4 2.4v.96c0 1.33 1.08 2.4 2.4 2.4h12.4c1.33 0 2.4-1.08 2.4-2.4v-.96c0-1.33-1.08-2.4-2.4-2.4zm18.3 6.61c-1.33 0-2.4 1.08-2.4 2.4v.96c0 1.33 1.08 2.4 2.4 2.4h12.4c1.33 0 2.4-1.08 2.4-2.4v-.96c0-1.33-1.08-2.4-2.4-2.4zm-37.5.05c-1.33 0-2.4 1.08-2.4 2.4v.96c0 1.33 1.08 2.4 2.4 2.4h12.4c1.33 0 2.4-1.08 2.4-2.4v-.96c0-1.33-1.08-2.4-2.4-2.4zm19 .08c-1.33 0-2.4 1.08-2.4 2.4v.96c0 1.33 1.08 2.4 2.4 2.4h12.4c1.33 0 2.4-1.08 2.4-2.4v-.96c0-1.33-1.08-2.4-2.4-2.4zm18.3 6.5c-1.33 0-2.4 1.08-2.4 2.4v.96c0 1.33 1.08 2.4 2.4 2.4h12.4c1.33 0 2.4-1.08 2.4-2.4v-.96c0-1.33-1.08-2.4-2.4-2.4zm-37.5.05c-1.33 0-2.4 1.08-2.4 2.4v.96c0 1.33 1.08 2.4 2.4 2.4h12.4c1.33 0 2.4-1.08 2.4-2.4v-.96c0-1.33-1.08-2.4-2.4-2.4zm19 .08c-1.33 0-2.4 1.08-2.4 2.4v.96c0 1.33 1.08 2.4 2.4 2.4h12.4c1.33 0 2.4-1.08 2.4-2.4v-.96c0-1.33-1.08-2.4-2.4-2.4zm18.3 6.61c-1.33 0-2.4 1.08-2.4 2.4v.96c0 1.33 1.08 2.4 2.4 2.4h12.4c1.33 0 2.4-1.08 2.4-2.4v-.96c0-1.33-1.08-2.4-2.4-2.4zm-37.5.05c-1.33 0-2.4 1.08-2.4 2.4v.96c0 1.33 1.08 2.4 2.4 2.4h12.4c1.33 0 2.4-1.08 2.4-2.4v-.96c0-1.33-1.08-2.4-2.4-2.4zm19 .08c-1.33 0-2.4 1.08-2.4 2.4v.96c0 1.33 1.08 2.4 2.4 2.4h12.4c1.33 0 2.4-1.08 2.4-2.4v-.96c0-1.33-1.08-2.4-2.4-2.4z" fill="#999"/><path d="m34.5 22c-1.33 0-2.4 1.08-2.4 2.4v.96c0 1.33 1.08 2.4 2.4 2.4h12.4c1.33 0 2.4-1.08 2.4-2.4v-.96c0-1.33-1.08-2.4-2.4-2.4zm.04 6.63c-1.33 0-2.4 1.08-2.4 2.4v.96c0 1.33 1.08 2.4 2.4 2.4h12.4c1.33 0 2.4-1.08 2.4-2.4v-.96c0-1.33-1.08-2.4-2.4-2.4zm-.08 6.74c-1.33 0-2.4 1.08-2.4 2.4v.96c0 1.33 1.08 2.4 2.4 2.4h12.4c1.33 0 2.4-1.08 2.4-2.4v-.96c0-1.33-1.08-2.4-2.4-2.4zm-19.3.01c-1.33 0-2.4 1.08-2.4 2.4v.96c0 1.33 1.08 2.4 2.4 2.4h12.4c1.33 0 2.4-1.08 2.4-2.4v-.96c0-1.33-1.08-2.4-2.4-2.4zm37.5 6.7c-1.33 0-2.4 1.08-2.4 2.4v.96c0 1.33 1.08 2.4 2.4 2.4h12.4c1.33 0 2.4-1.08 2.4-2.4v-.96c0-1.33-1.08-2.4-2.4-2.4zm-37.5.05c-1.33 0-2.4 1.08-2.4 2.4v.96c0 1.33 1.08 2.4 2.4 2.4h12.4c1.33 0 2.4-1.08 2.4-2.4v-.96c0-1.33-1.08-2.4-2.4-2.4zm19 .08c-1.33 0-2.4 1.08-2.4 2.4v.96c0 1.33 1.08 2.4 2.4 2.4h12.4c1.33 0 2.4-1.08 2.4-2.4v-.96c0-1.33-1.08-2.4-2.4-2.4zm18.3 6.61c-1.33 0-2.4 1.08-2.4 2.4v.96c0 1.33 1.08 2.4 2.4 2.4h12.4c1.33 0 2.4-1.08 2.4-2.4v-.96c0-1.33-1.08-2.4-2.4-2.4zm-37.5.05c-1.33 0-2.4 1.08-2.4 2.4v.96c0 1.33 1.08 2.4 2.4 2.4h12.4c1.33 0 2.4-1.08 2.4-2.4v-.96c0-1.33-1.08-2.4-2.4-2.4zm19 .08c-1.33 0-2.4 1.08-2.4 2.4v.96c0 1.33 1.08 2.4 2.4 2.4h12.4c1.33 0 2.4-1.08 2.4-2.4v-.96c0-1.33-1.08-2.4-2.4-2.4zm18.3 6.5c-1.33 0-2.4 1.08-2.4 2.4v.96c0 1.33 1.08 2.4 2.4 2.4h12.4c1.33 0 2.4-1.08 2.4-2.4v-.96c0-1.33-1.08-2.4-2.4-2.4zm-37.5.05c-1.33 0-2.4 1.08-2.4 2.4v.96c0 1.33 1.08 2.4 2.4 2.4h12.4c1.33 0 2.4-1.08 2.4-2.4v-.96c0-1.33-1.08-2.4-2.4-2.4zm19 .08c-1.33 0-2.4 1.08-2.4 2.4v.96c0 1.33 1.08 2.4 2.4 2.4h12.4c1.33 0 2.4-1.08 2.4-2.4v-.96c0-1.33-1.08-2.4-2.4-2.4zm18.3 6.61c-1.33 0-2.4 1.08-2.4 2.4v.96c0 1.33 1.08 2.4 2.4 2.4h12.4c1.33 0 2.4-1.08 2.4-2.4v-.96c0-1.33-1.08-2.4-2.4-2.4zm-37.5.05c-1.33 0-2.4 1.08-2.4 2.4v.96c0 1.33 1.08 2.4 2.4 2.4h12.4c1.33 0 2.4-1.08 2.4-2.4v-.96c0-1.33-1.08-2.4-2.4-2.4zm19 .08c-1.33 0-2.4 1.08-2.4 2.4v.96c0 1.33 1.08 2.4 2.4 2.4h12.4c1.33 0 2.4-1.08 2.4-2.4v-.96c0-1.33-1.08-2.4-2.4-2.4z" fill="#555"/></g></svg>