<svg height="480.7" width="640.7" xmlns="http://www.w3.org/2000/svg" xmlns:xlink="http://www.w3.org/1999/xlink"><clipPath id="a"><rect height="480" rx="45" width="640" x=".35" y=".35"/></clipPath><g clip-path="url(#a)" transform="matrix(.93 0 0 .93 22.52 17.02)"><g transform="matrix(.92 0 0 1.06 -25.15 -270.85)"><path d="m27.47 556.76h699.88v150.87h-699.88z" fill="#078930"/><path d="m27.47 405.89h699.88v150.87h-699.88z" fill="#fff"/><path d="m27.47 255.02h699.88v150.87h-699.88z" fill="#0f47af"/><path d="m27.47 255.03v452.59l226.24-226.3z" fill="#da121a"/><g id="b" stroke="#666" stroke-linecap="round" stroke-linejoin="round" stroke-width=".5"><path d="m407.55 527.17c-.9.03-1.6.34-1.96.93-.37.61-.11 1.32.48 2.06 1.52-.11 3.72.6 6.07 2.01 2.17 1.3 3.72 2.78 4.33 4.14.45-.02.82-.16 1.1-.53 1.4-1.81-.56-4.42-4.16-6.57-2.25-1.35-4.35-2.07-5.86-2.03zm56.06-61.82c-12.37 9.3-22.33 19.29-26.54 23.74-6.77 7.17-19.96 23.53-28.88 38.13 1.44.14 3.27.82 5.21 1.98 1.64.98 2.93 2.06 3.73 3.11 2.86-7.81 15-23.55 24.19-36.34 5.85-8.14 15-16.45 26.2-26.37-.86-2.01-1.85-3.31-3.92-4.26z" fill="#ae6c1e"/><path d="m473.13 464.63c-.77-1.68-1.66-2.84-3.35-3.71m.55 6.19c-.82-1.86-1.76-3.1-3.66-4.02m-3.06 2.26c7.89-5.93 16.76-11.59 25.75-15.38-7.84 7.31-15.2 13.75-21.84 19.63-.86-2.01-1.84-3.31-3.91-4.25zm-56.63 69.72c-1.11 1.03-1.89 1.52-2.94 1.94-.12 1.18-.76 5.18-1.27 7.15 1.28.19 2.41.83 3.23 1.75 1.29-1.5 4.35-4.43 5.28-5.21-.22-.97-.26-1.83-.12-3.04-.75-.45-1.5-.93-2.22-1.34-.67-.38-1.34-.81-1.96-1.24zm.4 14.42a5.39 5.39 0 1 1 -10.78 0 5.39 5.39 0 1 1 10.78 0zm-3.06-18.43c-.92 1.52 1.87 3.69 4.63 5.25s6.07 4.08 7.36 2.42c1.4-1.81-.57-4.41-4.17-6.57s-6.86-2.69-7.82-1.1z" fill="#d8e5ea"/></g><path d="m449.45 430.12-12.93.1-22.6-.37 18.7 12.7 10.52 7.52 10.41-7.68 18.5-12.99zm-6.63-21.61-6.3 21.71-3.9 12.33-7.33 21.38 17.86-13.86 18.07 13.58-7.66-21.27z" fill="none" stroke="#f00" stroke-linejoin="round" stroke-width="2"/><use height="452.62" transform="matrix(-1 0 0 1 885.95 0)" width="699.88" xlink:href="#b"/></g></g></svg>