<svg height="480.7" viewBox="0 0 640.701 480.701" width="640.7" xmlns="http://www.w3.org/2000/svg"><clipPath id="a"><rect height="480" rx="45" width="640" x=".35" y=".35"/></clipPath><g clip-path="url(#a)" transform="matrix(.93 0 0 .93 22.52 17.02)"><path d="m0 0h638.705v480.701h-638.705z" fill="#00993e" stroke-width="1.302"/><g fill="#fff" transform="scale(1.07 1.61)"><path d="m0 42.86h600v42.86h-600z"/><path d="m0 128.57h600v42.86h-600z"/><path d="m0 214.29h600v42.86h-600z"/></g><path d="m0 0h324.542v206.816h-324.542z" fill="#c8312a" stroke-width="1.513"/><g fill="#fff" transform="scale(1.43 1.61)"><path d="m96.35 71.82s-1.97.82-.62 16.51c1.1 12.91 5.7 17.12 5.7 17.12l2.01 7.99 19.06.08s.35-4.95 1.08-6.51c1.81-3.85 9-8.24 12.08-14.88 3.31-4.05 1.65-12.3 8.3-20.27 3.3-3.96-3.87-2.28-3.87-2.28-3.93 2.61-5.85 5.67-6.84 7.81-.67 4.12-3.75 7.56-4.04 4.57 0 0-1.12-5.17-4.48-15.23-.33-2.98-1.77-13.29-2.08-21.15-.22-5.12-4.7-5.43-5.07-.23l-.54 20.6-1.07-23.79c-.46-6.73-5.55-5.73-5.77-.16l-.22 24.77-.93-24.01c-1.38-4.59-5.01-1.87-5.07 3.1l-.62 23.36s-.78-12.79-.96-18.2c-.17-3.25-3.97-3.01-4.33 1.64-.52 6.72-1.33 12.2-1.72 19.16z"/><path d="m108.21 27.97 5.79-17.83 5.79 17.83-15.17-11.02h18.75z"/><path d="m153.26 35.08-15.17-11.02h18.75l-15.17 11.02 5.79-17.83z"/><path d="m181.9 56.27-15.17-11.02h18.75l-15.17 11.02 5.79-17.83z"/><path d="m198.48 86.2-15.17-11.02h18.75l-15.17 11.02 5.79-17.83z"/><path d="m74.74 35.08 15.17-11.02h-18.75l15.17 11.02-5.79-17.83z"/><path d="m46.1 56.27 15.17-11.02h-18.75l15.17 11.02-5.8-17.83z"/><path d="m29.52 86.2 15.17-11.02h-18.75l15.17 11.02-5.79-17.83z"/></g></g></svg>