<svg height="481" viewBox="0 0 107 80.1" width="641" xmlns="http://www.w3.org/2000/svg"><clipPath id="a"><rect height="80" rx="7.5" width="107" x=".06" y=".06"/></clipPath><g clip-path="url(#a)" transform="matrix(.93 0 0 .93 3.75 2.84)"><g stroke-width=".67" transform="scale(.71 .8)"><path d="m0 0h150v100h-150z" fill="#f93"/><path d="m0 33.3h150v66.7h-150z" fill="#fff"/><path d="m0 66.7h150v33.3h-150z" fill="#128807"/></g></g><path d="m58.7 27.8c-1.26-.04-2.4.101-3.42.422-1.41.462-2.11 1.23-2.11 2.29 0 1.79 1.46 2.68 4.38 2.68.211 0 .532-.01.964-.03s.759-.031.98-.031c1.75 0 2.62.402 2.62 1.21 0 .233-.074.469-.215.708h-44.8l1.24 1.27h4.47c.964.141 1.72.523 2.27 1.15-1.23.492-1.84 1.25-1.84 2.27 0 .683.175 1.26.527 1.73.362.472.874.708 1.54.708.552 0 1.03-.2 1.43-.602.385-.385.58-.842.596-1.36-.011-.002-.039-.198-.084-.594-.02-.261.021-.427.121-.497.804.07 1.44.442 1.91 1.11.472.663.709 1.42.709 2.26 0 .884-.316 1.6-.949 2.15-.623.552-1.39.828-2.29.828-1.63 0-3.19-.944-4.69-2.83-1.11-1.4-2.03-3.08-2.76-5.06l-1.1-.558c.904 2.63 1.97 4.88 3.21 6.73 1.81 2.71 3.69 4.07 5.65 4.07 1.66 0 2.82-.627 3.48-1.88.121-.311.246-.607.377-.889.733.613 1.4 1.54 2 2.77.613 1.24.949 2.35 1.01 3.33l.739.557v-15.4h1.99c.04.783.336 1.21.889 1.27l2.12.241c1.69.352 2.53 1.32 2.53 2.91 0 .221-.02.437-.06.648-1.52 1.91-2.37 2.86-2.56 2.86-.452 0-.863-.523-1.23-1.57l-.949.618c1.38 2.28 2.43 3.4 3.15 3.36.573-.02 1.12-.382 1.66-1.08.472-.653.824-1.14 1.05-1.48 1.18-1.65 2.05-2.48 2.62-2.5.291-.02.688.191 1.19.633s.868.769 1.1.98l-.015 7.34 1.13 1.12-.045-15.3h2.15c.02.683.593 1.3 1.72 1.85l2.59 1.02c1.05.593 1.66 1.41 1.82 2.46.04.251-.05.552-.271.904-.472-.191-.924-.287-1.36-.287-.723 0-1.34.261-1.84.784-.502.512-.753 1.12-.753 1.84 0 .763.261 1.39.783 1.88.522.492 1.17.738 1.93.738.944 0 1.83-.532 2.65-1.6 1.38.512 2.3 1.35 2.77 2.5.452 1.24.783 2.16.994 2.77l.557.391v-15.3h3.86v14.2l1.73 1.72-.407-15.9h2.07c.081.078.16.151.232.211.291.432.804.754 1.54.964.643.1 1.27.211 1.88.332.783.271 1.47.778 2.05 1.52-1.39 1.12-2.81 2.39-4.26 3.8l1.57 1.91c1.63.121 3.21.778 4.76 1.97 1.63 1.28 2.55 2.68 2.77 4.22l.647.376v-15.3h.718l.005.03c.593-.06 1.31.337 2.14 1.19.834.854 1.25 1.58 1.25 2.17l.031 10.8 1.81 1.87-.422-16.3c.452.181.808.271 1.07.271h1.49l-1.23-1.27c-1.03-.04-1.6-.668-1.7-1.88-.352-.352-.638-.588-.859-.709v5.5c-.923-1.75-1.93-2.71-3.02-2.9l-.006-.006h-.036c-.117-.018-.236-.03-.355-.03-.094 0-.173.012-.245.03h-13.9c-.653-2.45-1.6-4.2-2.83-5.24-1.46-1.24-3.7-1.9-6.72-2zm-31.3 12.4c.004.001.006-.021.006-.067 0 .023-.006.044-.006.067zm31.4-11c2.02.007 3.69.343 5 1.01 1.89.964 2.92 2.57 3.1 4.81h-3.85c-.032-2.61-1.53-3.92-4.5-3.92-.311 0-.778.035-1.4.105-.633.07-1.11.106-1.42.106-1.08 0-1.63-.216-1.63-.648 0-.844 1.27-1.33 3.8-1.45.304-.013.6-.018.889-.017zm-33.2 7.08h7.77v10.3c-.673-1.46-1.34-2.58-2-3.36-.331-3.56-2-5.53-5-5.92-.321-.452-.578-.804-.768-1.05zm15.7 0h6.95l-.076 5.59c-.382-.542-.823-1.07-1.33-1.58-.552-.613-1.06-.939-1.54-.979-.492-.06-1.21.322-2.15 1.15v-.904c0-1.3-.618-2.39-1.85-3.27zm13.2 0h7.22v10.8c-.984-1.53-1.78-2.54-2.4-3.03.02-.241.03-.477.03-.708 0-1.38-.567-2.68-1.7-3.92-1.38-1.42-2.43-2.48-3.15-3.18zm20.4 0h5.24v11.5c-2.12-2.26-3.94-3.76-5.47-4.51 2.29-2.02 3.44-3.06 3.44-3.12zm.949 11.6c-.372 0-.688.131-.949.392-.251.251-.376.562-.376.934s.125.693.376.964c.261.261.578.391.949.391.372 0 .684-.13.935-.391.261-.271.391-.593.391-.964 0-.372-.13-.683-.391-.934-.251-.261-.563-.392-.935-.392z"/></svg>