<svg height="481" viewBox="0 0 6.41 4.81" width="641" xmlns="http://www.w3.org/2000/svg"><clipPath id="a"><rect height="4.8" rx=".45" width="6.4"/></clipPath><g clip-path="url(#a)" transform="matrix(.93 0 0 .93 .23 .17)"><g stroke-width=".69" transform="matrix(1.33 0 0 1 -1.07 .03)"><path d="m.8 0h4.8v4.8h-4.8" fill="#fff"/><path d="m.8 1.37v1.37l2.06 2.06h1.37m0-4.8h-1.37l2.74 2.74v-1.37" fill="#742c64"/><path d="m1.49 0h1.37l2.74 2.74v1.37m-4.11-.69h-.69v1.37h2.06" fill="#eb7711"/><path d="m1.49 0h.69v1.37h1.37v1.37h1.37v1.37h.69v-.69h-1.37v-1.37h-1.37v-1.37h-1.37m-.69 3.43h.69v.69h-.69" fill="#fcdd09"/><path d="m.8.68v.69l3.43 3.43h.69v-.69h-.69v-.69h-.69v-.69h-.69v-.69h-.69v-.69h-.69v-.69m2.74-.69h1.37v1.37" fill="#078930"/><path d="m.8 1.37h.69v1.37h1.37v1.37h1.37v.69h-.69v-1.37h-1.37v-1.37h-1.37m3.43-2.06h.69v1.37h.69v-.69h-1.37" fill="#0f47af"/><path d="m2.86 0h.69v1.37h1.37v1.37h.69v-.69h-1.37v-1.37h-1.37m-2.06 2.06h.69v1.37h1.37v.69h-.69v-1.37h-1.37" fill="#da121a"/></g></g><path d="m3.34 3.12h-.314l-.125-.325h-.572l-.118.325h-.307l.558-1.43h.306zm-.532-.566-.197-.531-.193.531z"/><path d="m3.69 3.12v-.603l-.524-.829h.339l.337.566.33-.566h.333l-.526.831v.601z"/></svg>