<svg height="481" viewBox="0 0 641 481" width="641" xmlns="http://www.w3.org/2000/svg" xmlns:xlink="http://www.w3.org/1999/xlink"><clipPath id="a"><rect height="480" rx="45" width="640" x=".35" y=".35"/></clipPath><g clip-path="url(#a)" transform="matrix(.93 0 0 .93 22.5 17)"><g stroke-width="1.63" transform="matrix(.74 0 0 .74 11.5 -127)"><g stroke-width="1.83"><path d="m-41.9 168h1037v330h-1037z" fill="#d21034"/><path d="m-41.9 498h1037v330h-1037z" fill="#009543"/><path d="m-41.9 168 603 330-603 330z"/><path d="m-41.9 439h1037v118h-1037z"/><path d="m-41.9 214 518 283-518 283z" fill="#fdce12"/><path d="m-41.9 480h1037v34.8h-1037z" fill="#fdce12"/><path d="m-41.9 254 446 244-446 244z"/><path d="m84.1 561v37.6c30.8 0 91.3-25.1 91.3-106 0-80.8-64.5-95.8-83.8-95.8s-78.9 14.7-78.9 80.8 58.5 72.2 70 72.2 54.7-11 49.8-60.6c0 14.1-15 43.7-46.4 43.7s-51-24.8-51-49.3 19-57.2 52.1-57.2 57.3 31.2 57.3 62.7-23.3 71.6-60.5 71.6z" fill="#fdce12"/></g><g id="b" fill="#fdce12" transform="matrix(1.09 0 0 1.16 -41.9 168)"><path d="m90.7 297 1.68 1.09s13.4-30.5 49.3-52.2c-4.56 2.48-28.6 14.5-51 51.1z" stroke="#fdce12"/><path d="m94.2 292s-4.16-8.52-.495-12.3c3.66-3.76 1.98 10 1.98 10l1.58-2.28s-2.48-10.4.297-12.6c2.77-2.18 1.39 10 1.39 10l1.68-2.18s-1.78-10.1.891-12c2.67-1.88.991 9.51.991 9.51l1.98-2.28s-1.48-9.6 1.78-11.9c3.27-2.28.396 9.11.396 9.11l2.18-2.38s-.99-8.81 1.78-10.8c2.77-1.98.396 8.32.396 8.32l1.98-2.08s-.594-8.22 2.08-10.1c2.67-1.88.198 7.82.198 7.82l2.08-1.98s-.495-8.22 2.87-9.8-.594 7.72-.594 7.72l2.28-1.98s.693-9.6 3.56-10.5c2.87-.891-1.29 8.52-1.29 8.52l2.08-1.68s1.09-8.22 4.26-9.21-1.98 7.52-1.98 7.52l2.08-1.58s2.28-8.22 5.25-9.11c2.97-.891-3.07 7.72-3.07 7.72l1.98-1.39s3.27-7.43 5.94-7.92c2.67-.495-2.97 6.14-2.97 6.14l2.48-1.48s4.26-7.72 5.74-5.35c1.48 2.38-5.94 5.84-5.94 5.84l-2.48 1.39s9.01-4.26 10.1-2.08-12.4 3.56-12.4 3.56l-2.18 1.48s9.01-2.48 7.92-.198c-1.09 2.28-10 1.78-10 1.78l-2.08 1.48s9.01-2.18 7.82-.099-10 1.88-10 1.88l-2.18 1.78s8.81-2.28 7.52.396c-1.29 2.67-11.3 2.57-11.3 2.57l-2.48 2.28s9.31-3.17 8.52-.693c-.792 2.48-11.4 3.76-11.4 3.76l-2.38 2.38s10-3.37 7.03-.297c-2.97 3.07-10.2 3.86-10.2 3.86l-2.87 3.46s9.9-5.94 8.52-2.57c-1.39 3.37-11.1 5.64-11.1 5.64l-1.98 2.38s8.91-5.15 8.02-2.28c-.891 2.87-10.4 5.94-10.4 5.94l-1.58 2.18s10.5-6.24 9.6-3.07c-.891 3.17-10.9 5.45-10.9 5.45l-1.29 1.98s9.7-5.54 9.8-2.87-11.4 5.35-11.4 5.35z"/></g><use height="100%" transform="matrix(-1 0 0 1 176 0)" width="100%" xlink:href="#b"/></g></g></svg>