<svg height="481" viewBox="0 0 641 481" width="641" xmlns="http://www.w3.org/2000/svg"><clipPath id="a"><rect height="480" rx="45" width="640" x=".35" y=".35"/></clipPath><g clip-path="url(#a)" transform="matrix(.93 0 0 .93 22.5 17)"><g transform="matrix(.74 0 0 .74 11.5 -127)"><path d="m-99.4 170v644h1030v-644z" fill="#f4e109" stroke-width=".894"/><path d="m434 725 496 50.3v-568h-993v568" fill="#da251c" stroke-width=".894"/><g fill="#29166f" transform="matrix(.89 0 0 .9 -99.4 170)"><path d="m597 359v-317h-278z"/><path d="m597 359 555-317h-278z"/><path d="m1152 200v159h-1110v159z"/><path d="m1152 676v-159l-1110-317v-159z"/></g><g stroke-width=".894"><path d="m252 465 91.3 15.9c-.365 3.34-.565 6.72-.565 10.2 0 3.46.201 6.88.572 10.2l-91.2 15.9 92-10.3c1.04 6 2.65 11.8 4.78 17.3l-84.2 38.7 86.4-33.5c1.13 2.48 2.36 4.91 3.7 7.27h160c1.34-2.36 2.57-4.79 3.7-7.27l86.4 33.5-84.2-38.7c2.13-5.54 3.74-11.3 4.78-17.3l92 10.3-91.2-15.9c.37-3.36.573-6.78.573-10.2 0-3.43-.203-6.82-.565-10.2l91.3-15.9-92.1 10.3c-1.03-6.01-2.63-11.8-4.76-17.4l84.3-38.6-86.4 33.4c-2.88-6.34-6.45-12.3-10.6-17.8l70-61-73.5 56.6c-9.22-10.7-20.8-19.2-34-24.7l30.4-87.9-35.6 85.9c-9.44-3.29-19.6-5.11-30.1-5.11-10.6 0-20.7 1.81-30.1 5.11l-35.6-85.9 30.4 87.9c-13.2 5.53-24.8 14.1-34 24.7l-73.5-56.6 70 61c-4.17 5.47-7.74 11.4-10.6 17.8l-86.4-33.4 84.3 38.6c-2.13 5.55-3.73 11.4-4.76 17.4z" fill="#f4e109"/><path d="m434 491 496 284h-993z" fill="#fff"/><path d="m464 701c0 16.3-13.2 29.6-29.6 29.6-16.3 0-29.6-13.3-29.6-29.6s13.2-29.6 29.6-29.6c16.3 0 29.6 13.3 29.6 29.6z" fill="#f1c700"/><path d="m460 701c0 13.9-11.3 25.2-25.1 25.2s-25.1-11.3-25.1-25.2 11.3-25.2 25.1-25.2 25.1 11.3 25.1 25.2z"/><path d="m456 701c0 11.7-9.47 21.2-21.2 21.2-11.7 0-21.2-9.48-21.2-21.2s9.47-21.2 21.2-21.2c11.7 0 21.2 9.48 21.2 21.2z" fill="#e87817"/><path d="m456 702c0 11.7-9.47 21.2-21.2 21.2-11.7 0-21.2-9.48-21.2-21.2 0-5.85 4.74-10.6 10.6-10.6s10.6 4.76 10.6 10.6c0 5.85 4.74 10.6 10.6 10.6 5.85 0 10.6-4.75 10.6-10.6z" fill="#29166f"/><path d="m427 701c0 1.67-1.35 3.03-3.02 3.03s-3.02-1.35-3.02-3.03c0-1.67 1.35-3.03 3.02-3.03s3.02 1.36 3.02 3.03z" fill="#e87817"/><path d="m448 701c0 1.67-1.35 3.03-3.02 3.03s-3.03-1.35-3.03-3.03c0-1.67 1.35-3.03 3.03-3.03 1.67 0 3.02 1.36 3.02 3.03z" fill="#29166f"/></g></g></g></svg>