<svg height="481" viewBox="0 0 641 481" width="641" xmlns="http://www.w3.org/2000/svg"><clipPath id="a"><rect height="480" rx="45" width="640" x=".35" y=".35"/></clipPath><g clip-path="url(#a)" transform="matrix(.93 0 0 .93 22.5 17)"><g stroke-width="1.63" transform="matrix(.74 0 0 .74 11.5 -127)"><path d="m-29.5 156h1026v677h-1026z" fill="#fffefe" opacity=".994" stroke="#474747" stroke-width="1.43"/><g fill-rule="evenodd"><g stroke-width=".955pt"><path d="m430 156h555v67.7h-555z"/><path d="m430 308h555v67.7h-555z"/><path d="m-30.2 460h1015v67.7h-1015z"/><path d="m-30.2 613h1015v67.7h-1015z"/><path d="m-30.2 765h1015v67.7h-1015z"/></g><path d="m60.2 3.54-7.09 17.7 7.09 10.6 7.09-10.6zm0 28.3 10.6 7.09 17.7-7.09-17.7-7.09zm0 0-31.9 78 24.8-10.6 7.09 14.2 7.09-14.2 24.8 10.6zm0 0-10.6-7.09-17.7 7.09 17.7 7.09zm120-28.3-7.09 17.7 7.09 10.6 7.09-10.6zm0 28.3-10.6-7.09-17.7 7.09 17.7 7.09zm0 .002-31.9 78 24.8-10.6 7.09 14.2 7.09-14.2 24.8 10.6-31.9-78zm241-28.3-7.09 17.7 7.09 10.6 7.09-10.6zm0 28.3 10.6 7.09 17.7-7.09-17.7-7.09zm-117-26.5-7.09 17.7 7.08 10.6-10.6-7.08-17.7 7.09 17.7 7.09 10.6-7.09 7.09-10.6zm-113 19.4-10.6 7.09 10.6 7.09 17.7-7.09zm220 0-17.7 7.09 17.7 7.09 10.6-7.09zm10.6 7.09-31.9 78 24.8-10.6 7.09 14.2 7.09-14.2 24.8 10.6-31.9-78zm-106-5.22-10.6 7.09 10.6 7.09 17.7-7.09zm-10.6 7.09-31.9 78 24.8-10.6 7.09 14.2 7.09-14.2 24.8 10.6zm-184 72.5-7.09 17.7 7.08 10.6-10.6-7.08-17.7 7.09 17.7 7.09 10.6-7.09 7.09-10.6zm120 0-7.09 17.7 7.09 10.6 7.09-10.6zm0 28.3-10.6-7.09-17.7 7.09 17.7 7.09 10.6-7.09-31.9 78 24.8-10.6 7.09 14.2 7.09-14.2 24.8 10.6-31.9-78v-.002zm.002 0 10.6 7.09 17.7-7.09-17.7-7.09zm120-28.3-7.09 17.7 7.09 10.6 7.09-10.6zm-10.6 21.3-17.7 7.09 17.7 7.09 10.6-7.09zm10.6 7.09-31.9 78 24.8-10.6 7.09 14.2 7.09-14.2 24.8 10.6-31.9-78zm10.6-7.09-10.6 7.09 10.6 7.09 17.7-7.09zm-241 .002-10.6 7.09 10.6 7.09 17.7-7.09zm-10.6 7.09-31.9 78 24.8-10.6 7.09 14.2 7.09-14.2 24.8 10.6zm-60.2 67.3-7.09 17.7 7.09 10.6 7.09-10.6zm0 28.3 10.6 7.09 17.7-7.09-17.7-7.09zm0 0-31.9 78 24.8-10.6 7.09 14.2 7.09-14.2 24.8 10.6zm0 0-10.6-7.09-17.7 7.09 17.7 7.09zm120-28.3-7.09 17.7 7.08 10.6-10.6-7.08-17.7 7.09 17.7 7.09 10.6-7.09 7.09-10.6zm120 0-7.09 17.7 7.08 10.6-10.6-7.08-17.7 7.09 17.7 7.09 10.6-7.09 7.09-10.6zm120 0-7.09 17.7 7.09 10.6 7.09-10.6zm0 28.3-10.6-7.09-17.7 7.09 17.7 7.09 10.6-7.09-31.9 78 24.8-10.6 7.09 14.2 7.09-14.2 24.8 10.6-31.9-78v-.002zm.002 0 10.6 7.09 17.7-7.09-17.7-7.09zm-230-7.09-10.6 7.09 10.6 7.09 17.7-7.09zm-10.6 7.09-31.9 78 24.8-10.6 7.09 14.2 7.09-14.2 24.8 10.6zm131-7.09-10.6 7.09 10.6 7.09 17.7-7.09zm-10.6 7.09-31.9 78 24.8-10.6 7.09 14.2 7.09-14.2 24.8 10.6z" transform="matrix(.96 0 0 .96 -30.2 156)"/></g></g></g></svg>