<svg height="480.7" viewBox="0 0 640.701 480.701" width="640.7" xmlns="http://www.w3.org/2000/svg" xmlns:xlink="http://www.w3.org/1999/xlink"><clipPath id="a"><rect height="480" rx="45" width="640" x=".35" y=".35"/></clipPath><g clip-path="url(#a)" transform="matrix(.93 0 0 .93 22.52 17.02)"><g stroke-width="1.001"><path d="m0 0h640.701v480.701h-640.701z" fill="#d0103a"/><path d="m0 0h435.476v480.701h-435.476z" fill="#fedf00"/><path d="m0 0h205.225v480.701h-205.225z" fill="#0018a8"/><path d="m300.329 137.2c8.009 0 11.012 6.009 19.021 6.009 5.005 0 8.009-1.001 12.013-4.006l8.009-2.003c3.003 0 5.005 1.001 7.008 4.006 1.001 1.001 2.002 5.007 1.001 6.009a40.044 40.058 0 0 1 -2.002 9.013l-2.002 4.006c0 4.006 6.007 5.007 10.011 6.009 0 0 7.008 0 12.013-5.007-3.003 0-5.005-2.003-5.005-4.006 0-3.004 2.002-4.006 4.004-5.007h2.002l1.001-1.001 3.003-2.003 3.003 1.001h4.004a5.005 5.007 0 0 1 2.002 0l2.002 2.003 3.003-1.001 5.005 2.003 1.001 2.003a6.007 6.009 0 0 1 5.005 3.004l1.001 1.001 2.002 1.001a6.007 6.009 0 0 1 2.002 5.007v2.003c-2.002 6.009-6.007 9.013-11.012 14.02-2.002 3.004-3.003 5.007-3.003 8.012l1.001 2.003c0-1.001 0-3.004 2.002-3.004a4.004 4.006 0 0 1 4.004 4.006 5.005 5.007 0 0 1 0 1.001 10.011 10.015 0 0 1 4.004-1.001h1.001c4.004 0 7.008 2.003 10.011 4.006a21.023 21.031 0 0 1 7.008 17.025c-1.001 5.007 0 14.02-14.015 18.026 3.003 1.001 4.004 3.004 4.004 5.007a5.005 5.007 0 0 1 -4.004 5.007 4.004 4.006 0 0 1 -3.003-1.001c-3.003 3.004-4.004 5.007-4.004 9.013l2.002 6.009 3.003 6.009c1.001-2.003 2.002-3.004 4.004-3.004l4.004 2.003v2.003l2.002 1.001v3.004l1.001 1.001 1.001 3.004c0 3.004-3.003 5.007-6.007 5.007h-2.002l4.004 4.006a18.02 18.026 0 0 1 3.003 10.015 22.024 22.032 0 0 1 -3.003 12.018 20.022 20.029 0 0 1 -7.008 8.012 35.038 35.051 0 0 1 -16.018 6.009 74.081 74.108 0 0 1 -11.012 2.003l-14.015 1.001c-7.008 0-12.013 1.001-17.019 6.009 2.002 2.003 4.004 4.006 4.004 7.01s-2.002 5.007-5.005 6.009h-2.002l-1.001 2.003a6.007 6.009 0 0 1 -4.004 1.001 8.009 8.012 0 0 1 -6.007-3.004c-2.002 2.003-3.003 4.006-6.007 5.007l-2.002 1.001-3.003-1.001a23.025 23.034 0 0 1 -5.005-4.006l-6.007 2.003a7.008 7.01 0 0 1 -4.004-1.001l-1.001-2.003h-3.003c-3.003-2.003-5.005-4.006-5.005-7.01s2.002-5.007 5.005-6.009c-5.005-5.007-10.011-6.009-17.019-6.009l-14.015-1.001-11.012-2.003c-3.003 0-5.005 0-8.009-2.003-11.012-4.006-17.019-11.016-18.02-22.032l-1.001-3.004c0-5.007 3.003-9.013 7.008-13.019h-3.003c-2.002-1.001-4.004-3.004-4.004-6.009v-3.004l1.001-1.001 1.001-2.003 1.001-2.003c1.001-2.003 2.002-3.004 4.004-3.004l4.004 2.003 3.003-3.004a16.018 16.023 0 0 0 1.001-14.02c0-1.001 0-2.003-2.002-3.004l-3.003 1.001c-3.003 0-5.005-2.003-5.005-5.007a5.005 5.007 0 0 1 3.003-5.007l-5.005-2.003-5.005-6.009-2.002-5.007a19.021 19.028 0 0 1 -1.001-8.012c1.001-5.007 2.002-8.012 5.005-12.018l6.007-5.007 6.007-1.001h2.002a7.008 7.01 0 0 1 3.003 1.001h1.001l-1.001-1.001c0-2.003 2.002-4.006 4.004-4.006l3.003 2.003 1.001-2.003c0-3.004-2.002-5.007-4.004-8.012-5.005-6.009-11.012-8.012-11.012-16.023 0-2.003 1.001-4.006 3.003-5.007h2.002l1.001-1.001 1.001-2.003 3.003-2.003 1.001-1.001c2.002-2.003 3.003-2.003 5.005-2.003h2.002l2.002 1.001 1.001-2.003a4.004 4.006 0 0 1 2.002 0h4.004l3.003-1.001 2.002 1.001c2.002 0 2.002 1.001 3.003 2.003h1.001c3.003 1.001 5.005 3.004 5.005 5.007l-2.002 4.006-3.003 1.001a16.018 16.023 0 0 0 12.013 3.004c4.004 0 9.01-1.001 9.01-6.009l-2.002-4.006a19.021 19.028 0 0 1 -2.002-9.013c0-3.004 0-4.006 2.002-7.01 1.001-2.003 3.003-2.003 6.007-2.003z" fill="#c7b37f"/></g><g fill="#fedf00" transform="matrix(.64 0 0 .64 0 16.02)"><path d="m413 249h82v82h-82z" fill="#d52b1e"/><path id="b" d="m451 314-1 5-2 4a13 13 0 0 1 -3 4l-6 2c-6-1-8-7-10-11-1-6-4-8-7-6v4a9 9 0 0 0 4 3l-3 4s-6-1-8-8c0-2 1-7 5-8 6-2 9 2 11 5 2 4 3 12 9 11 3-1 5-5 5-8l2-2z" fill="#fff"/><use height="100%" transform="matrix(-1 0 0 1 908 0)" width="100%" xlink:href="#b"/><path d="m461 279 11-12 2-3h-3v-2l3-1v-2h-3v-2h1l2-1h1c2-3 10-6 15-1 4 4 3 11-2 13a6 6 0 0 1 -7-1l2-4c3 2 5 0 5-2 0-3-2-4-4-5s-4 1-5 3l-1 4v4a9 9 0 0 1 -3 3l-11 12-43 47-3-3z"/><path d="m430 283s2 13 11 34c5-2 8-3 13-3l12 2a171 171 0 0 0 12-33l-24-31-25 31z" fill="#fff"/><path d="m456 262 17 22s-2 11-9 26l-8-1zm-5 0-16 22s2 11 9 26l7-1z"/></g><g fill="#d52b1e"><path d="m322 176h53v52h-53z" fill="#fedf00"/><path d="m330 176h7v52h-7zm15 0h7v52h-7zm15 0h8v52h-8z"/></g><g fill="#d52b1e" stroke="#d52b1e" stroke-width=".5"><path d="m264 274 2 4 2 4a15 15 0 0 0 4 3 33 33 0 0 0 15 2l7-1a71 71 0 0 1 11 0h5l7 2v-54h-53v39z" fill="#fedf00" stroke="none"/><path d="m270 283 3 2 3 1v-52h-6zm30 3v-52h-6v52zm11-52h-6v52l6 1zm-23 0v53h-6v-53z" stroke-width=".3"/></g><path d="m375.411 274.4a13.014 13.019 0 0 1 -2.002 4.006l-2.002 4.006a17.019 17.025 0 0 1 -9.01 4.006 33.036 33.048 0 0 1 -10.011 1.001l-7.008-1.001h-7.008a40.044 40.058 0 0 0 -4.004 0 53.058 53.077 0 0 0 -12.013 3.004v-55.08h53.058v39.057z" fill="#fedf00" stroke-width="1.001"/><path d="m264.289 176.257h53.058v52.076h-53.058zm58.064 0h53.058v52.076h-53.058zm-58.064 98.143 2.002 4.006 2.002 4.006a15.016 15.022 0 0 0 4.004 3.004 33.036 33.048 0 0 0 15.016 2.003l7.008-1.001a71.078 71.104 0 0 1 11.012 0h5.005l7.008 2.003v-54.079h-53.058v39.057zm111.122 0a13.014 13.019 0 0 1 -2.002 4.006l-2.002 4.006a15.016 15.022 0 0 1 -4.004 3.004l-5.005 1.001a33.036 33.048 0 0 1 -10.011 1.001l-7.008-1.001a71.078 71.104 0 0 0 -7.008 0 41.045 41.06 0 0 0 -4.004 0h-5.005l-7.008 2.003v-54.079h53.058z" fill="none" stroke="#703d29" stroke-width=".501"/></g></svg>