<svg height="480.7" viewBox="0 0 640.701 480.701" width="640.7" xmlns="http://www.w3.org/2000/svg"><clipPath id="a"><rect height="480" rx="45" width="640" x=".35" y=".35"/></clipPath><g clip-path="url(#a)" transform="matrix(.93 0 0 .93 22.52 17.02)"><g fill-rule="evenodd" stroke-width="1pt" transform="translate(0 -1)"><path d="m0 1h640v480h-640z"/><path d="m427 1h213v480h-213z" fill="#090"/><path d="m213 1h214v480h-214z" fill="#bf0000"/></g><g fill="#fff"><path d="m320.351 192.28c-23.025 0-10.011 23.034-10.011 23.034l-9.01 6.009-1.001-23.034h-9.01v71.104l-15.016 20.029h89.097l-15.016-18.026v-72.105l-9.01-1.001-1.001 23.034-7.008-6.009s9.01-23.034-13.014-23.034zm2.002 33.048c23.025-1.001 16.018 33.048 16.018 43.063h-34.037c1.001-12.018-6.007-43.063 18.02-43.063z" fill-rule="evenodd" stroke-width="1.001"/><path d="m318.348 156.228a95.104 95.139 0 0 0 -94.103 94.137 95.104 95.139 0 0 0 94.103 95.139 95.104 95.139 0 0 0 95.104-95.139 95.104 95.139 0 0 0 -95.104-94.137zm1.001 17.025a63.069 73.107 0 0 1 63.069 74.108 63.069 73.107 0 0 1 -63.069 73.107 63.069 73.107 0 0 1 -63.069-73.107 63.069 73.107 0 0 1 63.069-74.108z" stroke="#000" stroke-width=".3"/></g></g></svg>