<svg height="480.7" viewBox="0 0 640.701 480.701" width="640.7" xmlns="http://www.w3.org/2000/svg"><clipPath id="a"><rect height="480" rx="45" width="640" x=".35" y=".35"/></clipPath><g clip-path="url(#a)" stroke-width="1.001" transform="matrix(.93 0 0 .93 22.52 17.02)"><path d="m0 0h640.701v480.701h-640.701z" fill="#3f9c35"/><path d="m0 0h640.701v320.467h-640.701z" fill="#ed2939"/><path d="m0 0h640.701v160.234h-640.701z" fill="#00b9e4"/><ellipse cx="304.23" cy="240.35" fill="#fff" rx="72.08" ry="72.11"/><ellipse cx="320.25" cy="240.35" fill="#ed2939" rx="60.07" ry="60.09"/><path d="m384.32 200.292 7.708 21.531 20.623-9.814-9.811 20.73 21.524 7.611-21.524 7.711 9.811 20.63-20.623-9.814-7.708 21.531-7.708-21.531-20.623 9.814 9.811-20.63-21.524-7.711 21.524-7.711-9.811-20.63 20.623 9.814z" fill="#fff"/></g></svg>