<svg height="480.7" viewBox="0 0 640.701 480.701" width="640.7" xmlns="http://www.w3.org/2000/svg"><clipPath id="a"><rect height="480" rx="45" width="640" x=".35" y=".35"/></clipPath><g clip-path="url(#a)" transform="matrix(.93 0 0 .93 22.52 17.02)"><path d="m0 0h640v480h-640z" fill="#fff" fill-rule="evenodd"/><path d="m640 410-548-410h-92v68l550 412h90z" fill="#09c"/><path d="m316 352c-64 0-62-60-62-60v-93h124v93s3 60-62 60" fill="#005bbf"/><path d="m297 401c-60 0-58-56-58-56v-87h116v87s2 56-58 56z" fill="none" stroke="#000" transform="matrix(1.07 0 0 1.07 0 -76)"/><path d="m316 141s-13-6-26 3c0 0-22-3-24 18v3l1 2 1 1v2l1 3 1 5 1 4 2 4v5l2 2c2 0 17 5 40 5s32-2 41-5c2-1 2-2 2-3v-3l3-5v-4l2-5 1-3 1-3a4 4 0 0 1 2-1s1-6 0-9c-1-2-5-14-21-11 0 0-12-10-30-5" fill="#d81126"/><path d="m296 203s-12-6-24 3c0 0-21-3-23 17l1 3v2l1 1v2l1 2 1 5 1 4 2 3v5l2 2c1 0 16 5 38 5 21-1 29-2 38-5l2-2v-4s3-4 2-5v-3l3-5 1-3v-2a4 4 0 0 1 2-2s1-5 0-7c-1-3-4-14-20-11 0 0-11-9-28-5z" fill="none" stroke="#000" stroke-width="1.5" transform="matrix(1.07 0 0 1.07 0 -76)"/><path d="m360 181c-50-16-89-1-89-1l1 3 1 2v3c0 1 0 4 2 4 0 0 35-13 81 1l1-3a9 9 0 0 1 1-4z" fill="#bcac0b"/><path d="m314 265h-22s-2 19 14 25v2h4v2s-6 6-1 12v2h1v4h1v5s-1 18-19 26v2h48v-2c-18-8-19-26-19-26v-5h1v-4h1v-2c6-6-1-12-1-12v-2h4v-2c17-6 15-25 15-25z" fill="#c8b100" fill-opacity=".9"/><path d="m294 319h-20s-2 19 13 24v2h4v2s-6 5-1 11v2h1v3h1v5s-1 17-18 25v1h45v-1c-17-8-18-25-18-25v-5h1v-3h1v-2c5-6-1-11-1-11v-2h4v-2c15-5 13-24 13-24z" fill="none" stroke="#000" transform="matrix(1.07 0 0 1.07 0 -76)"/><path d="m316 264a14 14 0 1 0 0-28 14 14 0 0 0 0 28" fill="#ccc"/><path d="m297 318a13 13 0 1 0 0-26 13 13 0 0 0 0 26z" fill="none" stroke="#000" transform="matrix(1.07 0 0 1.07 0 -76)"/><path d="m284 223h-9v-9h-7v9h-9v8h9v8h7v-8h9z" fill="#ccc"/><path d="m266 280h-8v-8h-7v8h-8v7h8v8h7v-8h8z" fill="none" stroke="#000" transform="matrix(1.07 0 0 1.07 0 -76)"/><path d="m374 223h-8v-9h-8v9h-9v8h9v8h8v-8h8z" fill="#ccc"/><path d="m351 280h-8v-8h-8v8h-8v7h9v8h7v-8h8z" fill="none" stroke="#000" transform="matrix(1.07 0 0 1.07 0 -76)"/><path d="m329 212h-9v-9h-8v9h-8v8h8v8h8v-8h9z" fill="#ccc"/><path d="m308 270h-8v-8h-7v8h-8v7h8v8h7v-8h8z" fill="none" stroke="#000" transform="matrix(1.07 0 0 1.07 0 -76)"/><path d="m284 261h-9v-9h-7v9h-9v7h9v9h7v-9h9z" fill="#ccc"/><path d="m266 315h-8v-8h-7v8h-8v7h8v8h7v-8h8z" fill="none" stroke="#000" transform="matrix(1.07 0 0 1.07 0 -76)"/><path d="m374 261h-8v-9h-8v9h-9v7h9v9h8v-9h8z" fill="#ccc"/><path d="m351 315h-8v-8h-8v8h-8v7h9v8h7v-8h8z" fill="none" stroke="#000" transform="matrix(1.07 0 0 1.07 0 -76)"/><path d="m284 298h-9v-8h-7v8h-9v8h9v9h7v-9h9z" fill="#ccc"/><path d="m266 351h-8v-8h-7v8h-8v7h8v8h7v-8h8z" fill="none" stroke="#000" transform="matrix(1.07 0 0 1.07 0 -76)"/><path d="m374 298h-8v-8h-8v8h-9v8h9v9h8v-9h8z" fill="#ccc"/><path d="m351 351h-8v-8h-8v8h-8v7h9v8h7v-8h8z" fill="none" stroke="#000" transform="matrix(1.07 0 0 1.07 0 -76)"/><path d="m316 122a8 8 0 1 0 0-16 8 8 0 0 0 0 16" fill="#005bbf"/><path d="m297 186a8 8 0 1 0 0-16 8 8 0 0 0 0 16z" fill="none" stroke="#000" transform="matrix(1.07 0 0 1.07 0 -76)"/><path d="m324 113h-7v-12h3v-2h-3v-2h-2v2h-3v2h3v12h-6v1h15z" fill="#fc0"/><path d="m304 177h-7v-11h3v-2h-3v-2h-2v2h-2v2h2v11h-6v1h15z" fill="#bcac0b" stroke="#000" stroke-width=".5" transform="matrix(1.07 0 0 1.07 0 -76)"/><path d="m283 132 10 1s-4 5-4 11l2 6 2 7h1s1-5-1-8a11 11 0 0 1 -1-11c2-4 5-5 5-5 3 1 10 0 12-2 2-1 3-3-1-3-3 0-9 0-14 3 0 0-2-3-13-1-11 1-19 6-22 16-1 5 4 16 8 18v-3s-7-8-5-16 11-13 21-13" fill="#fc0"/><path d="m265 195s6-1 9 1c0 0-3 4-3 10l2 6c1 1 2 4 1 6h1s2-4 0-7a10 10 0 0 1 -1-10l4-6c3 2 10 0 12-1s3-3-1-3c-3 0-9 0-13 3 0 0-2-3-13-2-10 2-18 6-20 16-1 4 3 14 7 17l1-3s-7-8-5-15 10-12 19-12z" fill="#bcac0b" stroke="#000" stroke-width=".7" transform="matrix(1.07 0 0 1.07 0 -76)"/><path d="m304 131 3-1h-3l-4 1z" fill="#fff"/><path d="m278 195s-2 2 0 0 7-3 9-2c3 0 0 1-1 1h-5" fill="none" stroke="#000" stroke-width=".7" transform="matrix(1.07 0 0 1.07 0 -76)"/><path d="m350 133s-7-1-10 1a16 16 0 0 1 1 17c-1 1-2 4-1 7h-1s-2-5 0-8a11 11 0 0 0 1-11 13 13 0 0 0 -4-6c-4 2-11 0-13-1s-3-3 1-4c4 0 10 0 14 4 0 0 2-3 14-2 11 1 19 6 21 16 2 5-3 16-7 19l-1-3s8-9 5-16c-2-8-11-13-20-13" fill="#fc0"/><path d="m328 196h-9a15 15 0 0 1 1 16l-2 7h-1s-1-5 1-7a10 10 0 0 0 1-11 13 13 0 0 0 -4-5c-4 1-10 0-12-1-2-2-3-3 1-4 3 0 9 0 13 3 0 0 2-2 13-1 10 1 18 6 20 15 1 5-3 15-7 17l-1-2s7-8 5-15c-2-8-10-12-19-12z" fill="#bcac0b" stroke="#000" stroke-width=".7" transform="matrix(1.07 0 0 1.07 0 -76)"/><path d="m329 131h-4l4-1 3 1z" fill="#fff"/><path d="m315 196s2 2 0 0-7-3-9-3c-3 1 0 1 1 1h5" fill="none" stroke="#000" stroke-width=".7" transform="matrix(1.07 0 0 1.07 0 -76)"/><path d="m311 126v24c-1 2 2 6 5 7 0 0 5-2 5-7v-25h-2v22c0 2-1 6-3 6 0 0-4 0-4-6v-22z" fill="#fc0"/><path d="m291 189v23c0 2 3 5 5 6 0 0 5-2 5-6v-24h-1v21c0 2-2 5-4 6 0 0-3-1-4-6v-20z" fill="#bcac0b" stroke="#000" stroke-width=".7" transform="matrix(1.07 0 0 1.07 0 -76)"/><path d="m271 171s0 7 5 6 4-7 4-7l1-1s1 6 6 6c4-1 4-9 4-10h1s2 8 7 7 5-7 5-7 1 6 6 6c4 0 5-2 4-8h3s-1 8 4 8 6-4 6-5h1s0 6 4 6c5 0 5-5 5-7h5s-5 8 2 9c6 1 6-5 6-5h2s-1 8 3 8c4 1 6-1 6-7l2 1s-2 10-8 8c-4-1-5-5-5-6 0 0-2 4-7 3s-4-5-4-6c0 0-3 5-7 4s-5-2-5-5c0 0-2 4-6 4-3 0-5-2-5-4 0 0-1 4-6 4-3 0-5-1-6-3 0 0-1 3-5 4-3 0-6-1-7-4 0 0 0 5-5 6s-6-3-6-3-1 5-4 6c-4 0-6-1-7-5l-1-5z" fill="#fc0"/><path d="m254 231s0 7 4 6 5-7 5-7h1s0 5 5 5c4-1 4-8 3-9l1-1s2 9 7 7c5-1 5-6 5-6s1 6 5 5c4 0 5-1 5-7h2s-1 8 4 8c5-1 5-5 5-5h1s0 5 5 5c4 0 4-4 4-6h4s-4 7 2 8 6-4 6-4h2s-1 7 3 7c3 0 5-1 5-6h2s-1 9-8 8c-3-1-4-5-4-6 0 0-2 4-7 3-4-1-4-5-4-6 0 0-2 5-6 4s-5-2-5-4c0 0-2 4-5 3-3 0-5-2-5-4 0 0-1 4-5 4-3 0-5-1-6-3 0 0-1 4-5 4-3 0-5-1-6-4 0 0-1 5-5 6s-5-2-5-2-1 3-5 4c-3 1-5 0-6-4l-1-5z" fill="#bcac0b" stroke="#000" stroke-width=".7" transform="matrix(1.07 0 0 1.07 0 -76)"/><path d="m281 171a2 2 0 1 0 0-4 2 2 0 0 0 0 4" fill="#fc0"/><path d="m263 231a2 2 0 1 0 0-3 2 2 0 0 0 0 3z" fill="#bcac0b" stroke="#000" stroke-width=".7" transform="matrix(1.07 0 0 1.07 0 -76)"/><path d="m304 167a2 2 0 1 0 0-3 2 2 0 0 0 0 3" fill="#fc0"/><path d="m285 228a2 2 0 1 0 0-3 2 2 0 0 0 0 3z" fill="#bcac0b" stroke="#000" stroke-width=".7" transform="matrix(1.07 0 0 1.07 0 -76)"/><path d="m328 168a2 2 0 1 0 0-4 2 2 0 0 0 0 4" fill="#fc0"/><path d="m307 229a2 2 0 1 0 0-4 2 2 0 0 0 0 3z" fill="#bcac0b" stroke="#000" stroke-width=".7" transform="matrix(1.07 0 0 1.07 0 -76)"/><path d="m351 172a2 2 0 1 0 0-4 2 2 0 0 0 0 4" fill="#fc0"/><path d="m329 232a2 2 0 1 0 0-3 2 2 0 0 0 0 3z" fill="#bcac0b" stroke="#000" stroke-width=".7" transform="matrix(1.07 0 0 1.07 0 -76)"/><path d="m315 165h-2c0 2-4 3-4 3l1-3c-4-1-4-3-4-3l4-1-1-3c3 0 5 2 5 2s-3-1-2-5l2 1s0-5 2-6c2 1 2 6 2 6l2-1c0 4-2 5-2 5l4-2v3l4 1s0 2-4 3v3s-3-1-3-3z" fill="#fc0"/><path d="m295 226h-1c-1 2-4 2-4 2l1-2c-4-1-4-3-4-3l4-1-1-3 4 2s-2-1-2-5l2 1s0-4 2-5c2 1 2 5 2 5l2-1c0 4-2 5-2 5l4-2v3l4 1s0 2-4 3v3s-3-1-3-3z" fill="#bcac0b" stroke="#000" stroke-width=".7" transform="matrix(1.07 0 0 1.07 0 -76)"/><path d="m316 166a3 3 0 1 0 0-6 3 3 0 0 0 0 6" fill="#fff"/><path d="m296 227a3 3 0 1 0 0-6 3 3 0 0 0 0 6z" fill="none" stroke="#000" stroke-width=".4" transform="matrix(1.07 0 0 1.07 0 -76)"/><path d="m340 167 2 1 3 3v-3c4 0 5-2 5-2l-4-2 1-3-5 2s3-1 4-5h-3v-5h-1c-2 0-3 4-3 4l-2-1c-1 4 1 6 1 6l-3-4v4h-5s0 2 4 3l-2 3 5-1z" fill="#fc0"/><path d="m319 228h2c0 2 3 3 3 3v-2l4-2-4-2 2-3-5 1c0 1 3 0 3-4h-2s1-4-1-5c-2 0-3 4-3 4l-2-1c-1 4 1 6 1 6s-1-3-3-3v3h-4s-1 1 3 3l-1 3s3 0 4-2l1 1z" fill="#bcac0b" stroke="#000" stroke-width=".7" transform="matrix(1.07 0 0 1.07 0 -76)"/><path d="m339 168a3.162 3.162 0 1 1 2-6 3.162 3.162 0 0 1 -2 6" fill="#fff"/><path d="m318 229a3.041 3.041 0 1 1 1-6 3.041 3.041 0 0 1 -1 6z" fill="none" stroke="#000" stroke-width=".4" transform="matrix(1.07 0 0 1.07 0 -76)"/><path d="m290 167h-1c0 2-4 3-4 3v-3c-4 0-4-2-4-2l4-2-1-3 5 2s-3-1-3-5h2l1-5h1c2 0 2 5 2 5l2-1c1 4-1 6-1 6l4-4v4s3-1 4 1l-4 3 1 3-4-3-2 1z" fill="#fc0"/><path d="m272 228h-1l-3 3v-3l-4-2 3-2-1-3c3 0 5 2 5 2s-3-1-3-5l2 1 1-5h1l2 4 2-1c1 4-2 6-2 6l4-3v3s3-1 4 1l-3 2 1 3s-4 0-4-2h-2z" fill="#bcac0b" stroke="#000" stroke-width=".7" transform="matrix(1.07 0 0 1.07 0 -76)"/><path d="m291 168a3.5 3.5 0 1 0 0-7 3.5 3.5 0 0 0 0 7" fill="#fff"/><path d="m273 228a3.041 3.041 0 1 0 -1-6 3.041 3.041 0 0 0 1 6z" fill="none" stroke="#000" stroke-width=".4" transform="matrix(1.07 0 0 1.07 0 -76)"/><path d="m363 174s-1-2-3-1l-3 1v-3l-3-3s1-2 5-1v-3s4 1 4 3c0 0-2-4 0-6 0 0 2 0 2 2 0 0 1-3 5-3l-2 4-3 3-1 3v2z" fill="#fc0"/><path d="m340 234s-1-2-2-1l-3 1v-3s-3-1-3-3l4-1 1-2s3 1 3 3c0 0-1-4 1-6l1 2s1-3 5-2l-2 3-3 3v2l-1 2z" fill="#bcac0b" stroke="#000" stroke-width=".7" transform="matrix(1.07 0 0 1.07 0 -76)"/><path d="m360 170a3 3 0 0 1 5-2l-1 2v2a3 3 0 0 1 -1 1 3 3 0 0 1 -3-3" fill="#fff"/><path d="m338 230a3 3 0 0 1 4-2v2l-1 2a3 3 0 0 1 0 2h-1a3 3 0 0 1 -2-4z" fill="none" stroke="#000" stroke-width=".4" transform="matrix(1.07 0 0 1.07 0 -76)"/><path d="m269 173s1-2 3-1l3 1v-3l3-3s-1-2-5-1v-2s-3 0-3 2c0 0 1-3-1-6l-1 2s-1-4-6-3l3 4 2 3 1 3v2z" fill="#fc0"/><path d="m252 233s1-2 3-1l3 1v-2l3-3s-2-2-5-1v-3s-3 1-3 3c0 0 1-3-1-6l-1 2s-1-3-5-3l2 4 2 3 1 2v2z" fill="#bcac0b" stroke="#000" stroke-width=".7" transform="matrix(1.07 0 0 1.07 0 -76)"/><path d="m272 169a3 3 0 0 0 -5-2l1 2v2l1 2a3 3 0 0 0 3-4" fill="#fff"/><g fill="none" stroke="#000"><path d="m255 229a3 3 0 0 0 -5-2l1 2v2l1 2a3 3 0 0 0 3-4z" stroke-width=".4" transform="matrix(1.07 0 0 1.07 0 -76)"/><path d="m257 252s34-14 77 0" stroke-width="1.5" transform="matrix(1.07 0 0 1.07 0 -76)"/><path d="m338 241c-47-15-84-1-84-1" stroke-width=".5" transform="matrix(1.07 0 0 1.07 0 -76)"/></g></g></svg>