<svg height="480.7" viewBox="0 0 640.701 480.701" width="640.7" xmlns="http://www.w3.org/2000/svg"><clipPath id="a"><rect height="480" rx="45" width="640" x=".35" y=".35"/></clipPath><g clip-path="url(#a)" stroke-width="1.001" transform="matrix(.93 0 0 .93 22.52 17.02)"><path d="m0 0h640.701v480.701h-640.701z" fill="#012169"/><path d="m75.082 0 244.267 181.264 243.267-181.264h78.085v62.091l-240.263 179.261 240.263 178.26v61.089h-80.088l-240.262-179.261-239.262 179.261h-81.089v-60.088l239.262-178.26-239.262-178.26v-64.093z" fill="#fff"/><path d="m424.464 281.41 216.237 159.233v40.058l-271.297-199.291zm-184.201 20.03 6.006 35.051-192.21 144.21h-54.059zm400.438-301.44v3.004l-249.273 188.275 2.002-44.064 197.216-147.215zm-640.701 0 239.262 176.257h-60.066l-179.196-134.196z" fill="#c8102e"/><path d="m241.264 0v480.701h160.175v-480.701zm-241.264 160.234v160.233h640.701v-160.233z" fill="#fff"/><path d="m0 193.282v96.14h640.701v-96.14zm273.299-193.282v480.701h96.105v-480.701z" fill="#c8102e"/></g></svg>