<svg height="480.7" viewBox="0 0 640.701 480.701" width="640.7" xmlns="http://www.w3.org/2000/svg"><clipPath id="a"><rect height="480" rx="45" width="640" x=".35" y=".35"/></clipPath><g clip-path="url(#a)" transform="matrix(.93 0 0 .93 22.52 17.02)"><g fill-rule="evenodd" stroke-width="6.7"><path d="m0 0h640v53.3h-640z" fill="#005bae"/><path d="m0 53.3h640v53.4h-640z" fill="#fff"/><path d="m0 106.7h640v53.3h-640z" fill="#005bae"/><path d="m0 160h640v53.3h-640z" fill="#fff"/></g><path d="m0 0h266.992v267.089h-266.992z" fill="#005bae" stroke-width=".901"/><g fill-rule="evenodd"><g stroke-width="6.7"><path d="m0 213.3h640v53.4h-640z" fill="#005bae"/><path d="m0 266.7h640v53.3h-640z" fill="#fff"/><path d="m0 320h640v53.3h-640z" fill="#005bae"/><path d="m0 373.3h640v53.4h-640z" fill="#fff"/></g><g fill="#fff" stroke-width="6.93"><path d="m106.6 0h53.3v266.5h-53.3z"/><path d="m0 106.6h266.5v53.3h-266.5z"/></g></g><path d="m0 427.323h640.701v53.378h-640.701z" fill="#005bae" stroke-width=".601"/></g></svg>