<svg height="480.7" viewBox="0 0 640.701 480.701" width="640.7" xmlns="http://www.w3.org/2000/svg"><clipPath id="a"><rect height="480" rx="45" width="640" x=".35" y=".35"/></clipPath><g clip-path="url(#a)" stroke-width="1.001" transform="matrix(.93 0 0 .93 22.52 17.02)"><path d="m0 0h640.701v480.701h-640.701z" fill="#171796"/><path d="m0 0h640.701v320.467h-640.701z" fill="#fff"/><path d="m0 0h640.701v160.234h-640.701zm320.351 364.532c51.056 0 93.102-42.061 93.102-93.136v-111.162h-186.204v111.162c0 51.074 42.046 93.136 93.102 93.136z" fill="#f00"/><path d="m320.351 363.53a92.101 92.134 0 0 0 92.101-92.134v-109.159h-183.201v109.159a92.101 92.134 0 0 0 91.1 92.134z" fill="#fff"/><path d="m267.292 165.241h-35.038v39.057h35.038zm0 78.114h35.038v-39.057h-35.038zm-35.038 28.041 1.001 10.015h34.037v-38.056h-35.038zm106.116-28.041h-36.039v38.056h36.039zm0 77.112h35.038v-39.057h-35.038zm35.038 21.031a89.097 89.13 0 0 0 20.022-21.031h-20.022zm-106.116-21.031h35.038v-39.057h-35.038zm-20.022 0a89.097 89.13 0 0 0 20.022 21.031v-21.031zm79.087 39.057 12.013-2.003v-37.054h-36.039v37.054a87.095 87.127 0 0 0 12.013 2.003zm81.089-78.114 1.001-10.015v-28.041h-35.038v38.056zm-69.076-38.056h35.038v-39.057h-35.038zm0-78.114h-36.039v39.057h36.039zm70.077 39.057v-39.057h-35.038v39.057z" fill="#f00"/><path d="m410.449 159.232 22.024-50.073-17.018-26.038-27.03 10.015-20.022-22.032-25.027 14.02-23.025-18.026-23.026 18.026-25.027-15.022-20.022 23.034-27.03-11.016-17.019 27.039 22.024 50.073a218.239 218.318 0 0 1 90.099-19.028c32.035 0 63.069 6.009 90.099 19.028z" fill="#fff"/><path d="m253.277 95.139-27.03-10.015-16.018 24.035 6.007 14.02 15.016 34.05a220.241 220.321 0 0 1 35.038-12.018z" fill="#0093dd"/><path d="m298.326 87.127-26.028-14.02-19.021 22.032 13.014 50.073a220.241 220.321 0 0 1 36.04-6.009z" fill="#171796"/><path d="m263.288 132.193a232.254 232.339 0 0 1 38.042-6.009l-1.001-13.019a246.269 246.359 0 0 0 -41.045 7.01zm-7.008-25.037a258.283 258.377 0 0 1 43.047-7.01l-2.002-13.019a271.297 271.396 0 0 0 -44.048 8.012z" fill="#f00"/><path d="m343.376 87.127-23.025-18.026-22.025 18.026 4.005 52.076a222.243 222.324 0 0 1 36.039 0z" fill="#0093dd"/><path d="m387.424 95.139-19.021-22.032-25.027 14.02-5.006 52.076a220.241 220.321 0 0 1 37.041 6.009z" fill="#171796"/><path d="m409.448 157.229 21.023-47.069-15.016-25.037-28.031 10.015-13.014 50.073a219.24 219.32 0 0 1 35.038 11.016z" fill="#0093dd"/><path d="m383.42 113.165a252.276 252.368 0 0 1 39.043 14.02l-8.009 18.026a232.254 232.339 0 0 0 -36.039-13.019z" fill="#fff"/><path d="m415.455 142.207 6.007-12.018a249.273 249.364 0 0 0 -39.043-14.02l-3.003 13.019a236.258 236.345 0 0 1 37.041 13.019z" fill="#f00"/></g></svg>