<svg height="480.7" viewBox="0 0 640.701 480.701" width="640.7" xmlns="http://www.w3.org/2000/svg" xmlns:xlink="http://www.w3.org/1999/xlink"><clipPath id="a"><rect height="480" rx="45" width="640" x=".35" y=".35"/></clipPath><g clip-path="url(#a)" transform="matrix(.93 0 0 .93 22.52 17.02)"><g stroke-width="1.001"><path d="m0 0h640.701v160.234h-640.701z" fill="#f93"/><path d="m0 160.234h640.701v160.233h-640.701z" fill="#fff"/><path d="m0 320.467h640.701v160.234h-640.701z" fill="#128807"/></g><g transform="matrix(3.2 0 0 3.2 320.35 240.35)"><circle fill="#008" r="20"/><circle fill="#fff" r="17.5"/><circle fill="#008" r="3.5"/><g id="b"><g id="c"><g id="d"><g id="e" fill="#008"><circle r=".9" transform="matrix(.99 .13 -.13 .99 17.35 2.29)"/><path d="m0 17.5.6-10.5-.6-5-.6 5z"/></g><use height="100%" transform="matrix(.97 .26 -.26 .97 0 0)" width="100%" xlink:href="#e"/></g><use height="100%" transform="matrix(.87 .5 -.5 .87 0 0)" width="100%" xlink:href="#d"/></g><use height="100%" transform="matrix(.5 .87 -.87 .5 0 0)" width="100%" xlink:href="#c"/></g><use height="100%" transform="matrix(-.5 .87 -.87 -.5 0 0)" width="100%" xlink:href="#b"/><use height="100%" transform="matrix(-.5 -.87 .87 -.5 0 0)" width="100%" xlink:href="#b"/></g></g></svg>