<svg height="480.7" viewBox="0 0 640.701 480.701" width="640.7" xmlns="http://www.w3.org/2000/svg"><clipPath id="a"><rect height="480" rx="45" width="640" x=".35" y=".35"/></clipPath><clipPath id="b"><path d="m-85 0h682v512h-682z"/></clipPath><g clip-path="url(#a)" transform="matrix(.93 0 0 .93 22.52 17.02)"><g clip-path="url(#b)" fill-rule="evenodd" transform="matrix(.94 0 0 .94 79.85 0)"><path d="m-192 0h896v512h-896z" fill="#fff"/><path d="m-192 344h896v168h-896z" fill="#da0000"/><path d="m-192 0h896v168h-896z" fill="#239f40"/><g stroke-width="1pt"><path d="m-69 340h6v10h-6zm161 0h6v10h-6zm-284 0h6v10h-6zm82 0h6v10h-6zm80 0h6v10h-6zm40 0h6v10h-6zm41 0h6v10h-6zm81 0h6v10h-6zm203 0h6v10h-6zm-162 0h6v10h-6zm40 0h6v10h-6zm40 0h6v10h-6zm41 0h6v10h-6zm323 0h6v10h-6zm-243 0h6v10h-6zm41 0h6v10h-6zm41 0h6v10h-6zm39 0h6v10h-6zm41 0h6v10h-6zm41 0h6v10h-6zm119 0h6v10h-6zm-38 0h6v10h-6zm-809 0h6v10h-6z" fill="#d90000"/><path d="m-69 163h6v10h-6zm161 0h6v10h-6zm-284 0h6v10h-6zm82 0h6v10h-6zm80 0h6v10h-6zm40 0h6v10h-6zm41 0h6v10h-6zm81 0h6v10h-6zm203 0h6v10h-6zm-162 0h6v10h-6zm40 0h6v10h-6zm40 0h6v10h-6zm41 0h6v10h-6zm323 0h6v10h-6zm-243 0h6v10h-6zm41 0h6v10h-6zm41 0h6v10h-6zm39 0h6v10h-6zm41 0h6v10h-6zm41 0h6v10h-6zm119 0h6v10h-6zm-38 0h6v10h-6zm-809 0h6v10h-6z" fill="#239e3f"/></g><g fill="#da0000"><path d="m280 198c8 10 34 67-16 105-24 17-9 18-8 21 38-20 50-47 50-72 0-24-13-46-26-54z"/><path d="m285 195a73 73 0 0 1 16 112c27-6 62-86-16-112zm-58 0a73 73 0 0 0 -15 112c-28-6-62-86 15-112z"/><path d="m232 198c-8 10-34 67 16 105 23 17 9 18 8 21-38-20-50-47-50-72 0-24 13-46 26-54z"/><path d="m304 319c-15 0-33-2-47-9l6 12c13 1 32 2 41-3zm-95 0c15 0 34-2 48-9l-7 12c-13 1-31 2-41-3zm27-139c4 8 11 10 20 5 6 4 16 4 19-4 2 20-18 15-19 11-8 8-22 3-19-12z"/><path d="m256 332 8-9 1-120-9-9-9 8 2 121z"/></g></g></g></svg>