<svg height="480.7" viewBox="0 0 640.701 480.701" width="640.7" xmlns="http://www.w3.org/2000/svg" xmlns:xlink="http://www.w3.org/1999/xlink"><defs><path id="a" d="m-28.6 47.5 1.8 1 46.7-81c2.7-.6 4.2-3.2 5.7-5.8 1-1.8 5-8.7 6.7-17.7a58 58 0 0 0 -11.9 14.7c-1.5 2.6-3 5.2-2.3 7.9z" stroke-miterlimit="10"/><clipPath id="b"><rect height="480" rx="45" width="640" x=".35" y=".35"/></clipPath></defs><g clip-path="url(#b)" transform="matrix(.93 0 0 .93 22.52 17.02)"><path d="m60.248 0h580v480.701h-580z" fill="#fff" stroke-width=".953"/><path d="m60.248 0h580v144.21h-580z" stroke-width=".953"/><path d="m60.248 336.491h580v144.21h-580z" fill="#060" stroke-width=".953"/><g id="c" transform="matrix(2.72 0 0 3 350.25 240.35)"><use height="100%" stroke="#000" width="100%" xlink:href="#a"/><use fill="#fff" height="100%" width="100%" xlink:href="#a"/></g><use height="100%" transform="matrix(-1 0 0 1 700.5 0)" width="100%" xlink:href="#c"/><path d="m640.701 168.245h-238.797c-8.156-24.035-35.343-72.105-51.656-72.105-16.312 0-43.5 48.07-51.656 72.105h-238.525v144.21h238.525c8.156 24.035 35.344 72.105 51.656 72.105s43.5-48.07 51.656-72.105h238.797z" fill="#b00" stroke-width=".953"/><path id="d" d="m401.904 312.456c8.156-24.035 13.594-48.07 13.594-72.105s-5.438-48.07-13.594-72.105c-8.156 24.035-13.594 48.07-13.594 72.105s5.438 48.07 13.594 72.105" stroke-width=".953"/><use height="100%" transform="matrix(-1 0 0 1 700.5 0)" width="100%" xlink:href="#d"/><g fill="#fff" transform="matrix(2.72 0 0 3 350.25 240.35)"><ellipse rx="4" ry="6"/><path id="e" d="m1 5.8s4 8 4 21-4 21-4 21z"/><use height="100%" transform="scale(-1)" width="100%" xlink:href="#e"/><use height="100%" transform="scale(-1 1)" width="100%" xlink:href="#e"/><use height="100%" transform="scale(1 -1)" width="100%" xlink:href="#e"/></g></g></svg>