<svg height="480.7" viewBox="0 0 640.701 480.701" width="640.7" xmlns="http://www.w3.org/2000/svg"><clipPath id="a"><rect height="480" rx="45" width="640" x=".35" y=".35"/></clipPath><g clip-path="url(#a)" transform="matrix(.93 0 0 .93 22.52 17.02)"><g fill-rule="evenodd"><path d="m0 0h640v480h-640z" fill="#6fdcff"/><g fill="#ffe400"><path d="m60.2 467c9.4 24.8 41.2-13.4 13.5-16.4-20.3-4.7 1.3-37 5.9-17.2-10.4-1.5-10.7 4.7 0 4.4 8.8 4.6-9.3 16.2 4.8 10.2 7.3-14.9-9.7-37.3-23.2-19.1-11 16.8 24.8 23 16.4 39.4-13.3 10-18.1-24.2-20.7-3.9-9.4 14.6-29.6-3.9-11-12.1 13.6-6.4 19.4-29.6-1.4-29-18.2-5.1-14.8 32.6-5.3 22.6-14.7-11.4 16.5-6 4.7-14-15 4.7 5-13.2 9 .1 4.4 15.6-36.2 28.3-13.4 41.7 7.2 2.9 17.2.8 20.7-6.7z"/><path d="m59.1 343.3c5.2-23.4 46.7-7.7 29.7 12.7-8.2 19.2-22.7 36.5-24.8 57.7 3.7 10.9 25.8-3.8 7.7-2.2-2-6.2 20.6-3.3 6.3-13.7 13.5-5 10.6 32.4-8.7 23.8-20.4-5.2-4.4-25.9.3-37.5 6-12.8 12-25.7 17.7-38.6.3-21.8-37.4 1.9-14.4 4.4-5.8 1.4-17.6 6.2-6.2 10-6.7 8.3-10.5 8-14.6-1 12-7.1-19.3-9 .5-12.2 1.7-17.4-35.2-9.1-17.9 8.4 8.2 17.8 16.8 35.4 24.5 53.4 2.8 21-37.1 15.8-25.8-3.9-6.5-9.5 14-10.3 2.5-.5-2.3 7.5 18.7 1.4 8.1 9.1-15.7-3.3 7.8 13.1 9.5-1.5 0-16.2-13.1-29.2-18.7-44-10.3-12.6-15.1-38.8 9-36 6.7.6 13.4 4.9 15.3 11.6z"/><path d="m59.1 319.4c5.2 23.4 46.7 7.7 29.7-12.7-8.2-19.2-22.8-36.7-24.8-57.7 3.7-10.9 25.8 3.8 7.7 2.2-2 6.1 20.6 3.3 6.3 13.7 13.5 5 10.6-32.4-8.7-23.8-20.4 5.2-4.4 25.9.3 37.4 6 12.9 12 25.7 17.7 38.6.3 21.8-37.4-1.9-14.4-4.4-5.8-1.4-17.6-6.2-6.2-10-6.7-8.3-10.5-8-14.6 1 12 7.1-19.3 9 .5 12.2 1.7 17.4-35.2 9.1-18-8.4 8.3-17.7 17.2-35.2 24.3-53.4-.7-25.9-39.1-9.8-26 10.2 14.7 8-6-12.8 9.4-9.9 11.1-1-1-5.2-4.2-4.7 10.1-15.6 23 9.3 10.8 18-8.5 16.5-17.6 32.7-24.2 50.1 1.8 17.8 30 17.3 34.4 1.6z"/><path d="m59.1 160.6c5.2-23.4 46.7-7.7 29.7 12.7-8.3 18.4-20.7 35.1-25 55-1 15.2 28-.7 8 .6-2.3-6.2 20.5-3.4 6.2-13.8 13.5-5 10.6 32.4-8.7 23.8-20.3-5.2-4.4-25.8.3-37.4 6-12.9 12-25.7 17.7-38.6 2.9-21.9-38.6 1.7-14.4 2.8-13 2.2-4.7 21-16.4 17 .2-5.7-10-3-1-8.8 3.7-7.2-21.2-5.9-4.1-8.3 11.4-12.3-27-18.5-19.8.7 9.3 19.7 19.2 39.3 27.3 59.6-.7 25.9-39.1 9.8-26-10.2 14.7-8-6 12.8 9.4 9.9 11.1 1-1.1 5.2-4.2 4.7 10 15.6 23-9.3 10.8-18-8.5-16.5-17.6-32.7-24.2-50.1 1.8-17.7 30-17.3 34.4-1.6z"/><path d="m59.1 136.7c5.1 23.4 46.7 7.7 29.7-12.7-8.2-19.2-22.8-36.6-24.8-57.7 3.7-11 25.8 4 7.8 2.2-2.2 6.1 20.5 3.3 6.2 13.7 13.4 5 10.6-32.4-8.7-23.8-20.3 5.2-4.3 25.9.3 37.6 6 12.8 12 25.7 17.7 38.6.4 22-37.3-1.9-14.5-4.3-5.8-1.7-17.1-6.5-6-10.3-7-7.8-10.6-8-14.7 1.2 12 7.2-19.4 9 .5 12.2 1.6 17.4-35.2 9.1-17.9-8.4 8.2-17.8 16.8-35.4 24.5-53.4 2.8-21-37.1-15.8-25.8 3.9-6.5 9.5 14 10.3 2.5.5-2.2-7.5 18.8-1.5 8-9.1-15.6 3.5 7.9-13.2 9.6 1.5 0 16.1-13.1 29.2-18.7 44-10.3 12.6-15.1 38.8 9 36.1 6.7-.7 13.4-5 15.3-11.7z"/><path d="m60.2 13c9.4-24.8 41.2 13.4 13.5 16.4-20.3 4.7 1.3 37 5.9 17.2-10.4 1.5-10.7-4.8 0-4.4 8.8-4.7-9.3-16.2 4.8-10.2 7.3 15-9.7 37.4-23.3 19.2-11.1-16.8 24.9-23 16.5-39.5-13.3-10-18.1 24.2-20.7 3.9-8-14-29.1 2-12.4 10.6 4.5 5.4 11 9.4 14 15.7 5.4 22-37.7 17.5-25.5-3.3-5-9.8 14-8.6 2.8.2-2.1 7.5 19 1.4 8.1 9.1-15-4.6 5 13.3 9 0 4.4-15.6-36.2-28.3-13.4-41.7 7.2-2.9 17.3-.8 20.7 6.8z"/><g transform="matrix(1.07 0 0 1.07 -194.7 8.3)"><rect height="161.3" rx="85.1" ry="80.7" width="170.2" x="425.9" y="104.5"/><path d="m507 56.4c-.8 0-4.6 26.8-6 32.8-1.4 13.5 18 13 14.8-.5l-8.8-32.4zm6.8 259.8c.7 0 6.5-26.5 8.4-32.4 2.3-13.3-17.1-14-15-.4zm-135.6-131.6c0 .7 27.9 6.3 34.1 8.1 14 2.3 15-16 .6-14l-34.7 6zm271.7 3.2c0-.7-28.2-5.3-34.5-6.9-14.1-1.7-14.2 16.6 0 14.1zm-243.1-88.2c-.5.5 17.9 21.3 21.6 26.4 9.6 10 22.3-4 9.6-10.8l-31.2-15.5zm211.1 171c.5-.5-19.7-19.7-23.9-24.4-10.5-9.2-21.8 5.7-8.6 11.5l32.5 13zm-169-200c-.6.3 8 26.1 9.4 32.2 4.8 12.7 22.2 4.4 13.2-6.5l-22.5-25.7zm123.1 232.4c.7-.3-6-26.6-6.9-32.7-3.9-13-21.8-6-13.7 5.6l20.7 27zm30.3-214.4c-.6-.5-22.8 16.6-28.2 20-10.7 9 3.8 21.2 11.2 9.3zm-183 193.7c.5.5 24-15 29.6-18.1 11.3-8.2-2.2-21.4-10.5-10l-19 28.1zm-35-144.1c-.3.6 24 14.7 29.3 18.4 12.5 6.5 19.8-10.5 5.5-13.2zm253.7 98.4c.3-.6-23-16.3-28-20.3-12-7.4-20.5 9.1-6.4 12.7zm-80.6-172.9c-.7-.2-14.6 23.4-18.3 28.5a7.8 7.8 0 0 0 14 4.7zm-93.9 244.3c.7.3 16.3-22.4 20.3-27.3 7.3-11.6-10.4-19-13.7-5.6zm-77.5-69.3c.3.6 28-6 34.5-7 13.6-3.8 6-20.6-6-12.8zm252.1-102.7c-.2-.6-28.3 4.1-34.8 4.7-14 2.9-7.5 20.2 5 13.2z"/><path d="m534.6 58.1c-.7-.1-10.1 25.4-12.9 31-4.1 13 15 16.2 14.7 2.4l-1.7-33.5zm-48.5 255.9c.7.2 12-24.7 15.2-30.2 5-12.6-13.8-17-14.5-3.3l-.8 33.5zm-9.7-253.4c-.7.2 1.9 27.2 1.9 33.4 1.9 13.3 20.6 8.7 14.4-3.7zm68 251.9c.7-.1 0-27.2.5-33.4-.9-13.5-20-10.1-14.6 2.7l14 30.7zm-116.2-229.5c-.6.4 12.7 24.3 15.2 30 7.2 11.7 22.7.7 11.8-8.6zm164.8 207.9c.6-.4-11-25.2-13-31-6.3-12.1-22.5-2.1-12.4 7.8zm-200-174.3c-.4.6 21.1 18.4 25.6 23 11.1 8.4 21.4-7.2 7.8-12.1zm234.2 139.7c.4-.6-19.7-19.8-23.9-24.6-10.4-9.1-21.8 5.8-8.6 11.6zm-249.6-97.8c-.2.7 26.3 10.8 32.1 13.7 13.4 4.5 17.7-13.4 3.1-13.8zm267.4 57.8c.3-.6-25.4-12.4-31-15.7-13-5.4-18.7 12.2-4.2 13.6zm-268.3-6.3c.1.6 28.7.2 35.2.7 14.2-.7 10.8-18.8-2.8-13.9zm270.2-45c0-.7-28.6-2.2-35-3.1-14.3-.2-12.2 18.1 1.7 14l33.3-11zm-245.7 98.4c.4.6 26-11.6 32-13.9 12.4-6.5 1-21.4-8.9-11.3zm222.3-152.3c-.4-.6-26.7 9.9-33 11.8-12.9 5.7-2.6 21.3 8 11.9zm-180.7 187.7c.6.3 18.9-20.5 23.5-24.9 8.7-10.7-8-20-12.9-7zm139.7-223.8c-.5-.4-20.3 19.1-25.2 23.2-9.4 10.1 6.6 20.5 12.4 7.9l12.7-31.1z"/><g transform="matrix(2.18 0 0 2.06 -405 -272.6)"><path d="m360.1 247.9c-4.7 25.5 38.9 42.5 42.2 47.2-24.3-3.1-40.5-26.6-53-44.2-1-11 6.7 12.5 2.4-4.3-.7-20.6-1.2-.6 5.1 4 2.6-4.2 1.6-13 3.3-2.7zm-9.8 12.8c-11.4-16.7 5 11.8-7.2 2.7-1.5 15.8 31 42 33.9 33.5-15.6-6.2-30.3-20.7-26.7-36.2zm46.1 49.2c4.7-10.2 14.8-.3 0 0zm12.5-5.1c13.7-18.3 40.2-18.3 55.2-35.6 10.8-12.4 18.7-22.4 30-27.1 7.3-13.8 9-12.6 2.5 1.5-1 10.2 19.3-20 7.8.2-10.4 13.8-.3 14 9.4 6.2-2.7 3.5-20.6 18-6.2 12.4-16.3 6-9.3 9.2-3.4 8-8.8 4.5-10.6 10-10.2 9 3.2 3.6-15.5 4.2-3 5-11.3 3.3-19.2 6-3 3.7-8.6 4.7-20.5 6.2-15.5 10.3-26.7 14.2-8.4-12.5 7.5-16.2 4-3 17.4-28.3-2.5-18.8-19.8 18.4-43.9 30.7-68.6 41.4zm-15.8 7c8.4 8.4 40.3-4.2 13.6-.7-4.5.3-9 .7-13.6.7z"/><rect height="3" rx="1.7" ry="1.5" width="3.4" x="401.7" y="309.1"/><path d="m445 307.7c7.1 2.7 15 1.7 22.2 4.5 1.5.5 3.6 2.2.7 2.4-2.2.5-5.2-1.4-6.9.6.3 1.3 0 1.4-1.3 1-1.8-.3-2.4 2.4-4.5 1.6-6.3 3.8-13.8 3-20.8 4-2 .7-3.8-.1-5.8-.2-5.3-.4-10.7.7-15.9-1-2.6-.5-2.8-3.8-.4-4.8 2.6-1.7 6-2.7 9-1.6 2.1.5 4.4-.4 6.5-.9 5.4-1.6 10.5-4 16-5.3z"/></g></g></g></g></g></svg>