<svg height="480.7" viewBox="0 0 640.701 480.701" width="640.7" xmlns="http://www.w3.org/2000/svg" xmlns:xlink="http://www.w3.org/1999/xlink"><clipPath id="a"><rect height="480" rx="45" width="640" x=".35" y=".35"/></clipPath><g clip-path="url(#a)" transform="matrix(.93 0 0 .93 22.52 17.02)"><path d="m0 0h640.701v480.701h-640.701z" fill="#ffb700" stroke-width="1.001"/><path d="m26.729 240.351 88.097-213.612h88.096v427.223h-88.096z" fill="#ff5b00" stroke-width="1.001"/><path d="m26.729 26.739h88.097v427.223h-88.097z" fill="#005641" stroke-width="1.001"/><path d="m229.551 26.739h387.124v427.223h-387.124z" fill="#8d2029" stroke-width="1.001"/><path id="b" d="m579.935 409.197s3.604 7.311 7.608 10.415c6.007 4.406 18.02 4.006 23.326 9.314 6.107 6.109-.501 14.221-.501 15.022l.4 4.206s-4.205 0-6.007.3c-2.603.401-3.604 2.604-8.609 2.303-12.313-.801-11.813-12.018-12.514-21.531-.601-3.605-2.002-8.412-2.903-12.018-.701-3.004-.801-8.012-.801-8.012z" fill="#ffb700" stroke="#000" stroke-width="1.101"/><use height="100%" transform="matrix(-1 0 0 1 846.23 0)" width="100%" xlink:href="#b"/><use height="100%" transform="matrix(1 0 0 -1 0 480.7)" width="100%" xlink:href="#b"/><use height="100%" transform="matrix(-1 0 0 -1 846.33 480.7)" width="100%" xlink:href="#b"/><g transform="translate(0 -76.11)"><use height="100%" stroke="#000" stroke-width="5.6" width="100%" xlink:href="#c"/><g id="c" fill="#ffb700"><path d="m363.5 415.8c19 4 39.8-.8 44.4-21.7-6.8-16.8 5.2-27.4 10.8-41.7-8.3 26.9 25-.3 37 1.5 21-4.2 33.1 15.6 49.3 24.5 18.5 10.4 5.8 26.2-3.8 35.2 13.2 8.7 31.1.5 29-15 6-18-11.2-35.8 2.4-53.9 12-19-10.8-36.8 2.3-55.3 6.5-19.6-20.2-25.8-34.3-20.8-12.2 3.9-39.8 1-37.2-13.4-7.9 1-23.8-4-9.5-11.5 12-7.8 21.5-6 24.7 8.3 3-3 10.5-19 12.9-4.3 2.5 13.1 24.4-3.8 32 10.8 9.4 13.9 29.6-7.7 8.5-7.3-16 3.3-24-20-41-20.7-16.6-6-47-4.8-50 17.1.5 16 4.4 32.6 23.4 27.1a80.2 80.2 0 0 0 45.5-.5c24.1-4.5 18.8 30-3 24.8-22.7.3-45.5 3-68.3 2-4.1 20.3-26.8 7.9-37.7 10.2-8 7.6-30.8-3.4-22.2-4 12.7 9.8 31.3-6.2 43.5 6 9.8.8 20.1-15.5 5.7-16.7 14.2-10.7-17.1-18.6-16.3-15.8 8-5.4 29.8 12.3 19.7-7.2-3.3-3.7-16.5-4-6.8-10.4 1.9 17.8 19.7 6.2 10.5-6.4 5.7-16.2-3.7-24-19.7-22-17.7-3.8-32.7 5-47.5 11.8-10.9.4-28.1-10.2-21.2 9 3.8 18.6 37.3 4.2 30 27.7-7.3 3-31-15-28.4 3 7.5 5 41.2 7 20 19.3-20.6 11.4-23.9 41.9-6.9 57.9 6 10.1 23 11.1 17.4-4.5-2.2 14.8 14.2 28.7 4.3 42.7-2.8 7-30.7 3.3-19.5 14.2z"/><path d="m460.5 415.5a142 142 0 0 0 32-.4c1-9.7-.9-19.8 7.6-26.6-7.6-3.5-9.8-8.9-6.6-16-8.4-7.4-20.5-23-32.2-15.7.9 14 17.3 21.7 16 36.4 4.1 14.7-11.5 14.4-19.5 18.2-3.2 3-2.3 8.3 2.7 4.1zm-142.2-24c2.4-4.3 7.4-6.7 5.4-10 9.5-4.8 3.5-6.4-2.5-7.7.7-8.4-3.1-17.4 5.2-18.7-5.4-6.2-27.4-3.5-12.8 4.4-1.2 7.7-1.2 18.6-9 17 5.4 3 5.9 9.3 5.6 9.4 3.7 0 4.5 8.9 8.1 5.6zm38.2-16.6c8.7-1.3 8.7-12.7 1-15.2a92.3 92.3 0 0 0 -20-25c-2.8-4.7-13-11.5-15.6-4.7 4-.1 11.6-.2 5 4.7-3.6 4.7.3 6.2 2.2 1 1 1.4-7.6 13.2-1.2 6.9 4.5-4.9-.7 9.7 3 12.3 1.3 5.8-.5 13.8 8.2 10 5 3.7 9.8 13.3 17.4 10zm-33.3-26.1c-1.6-7.1-17.3-2.9-6.5 1.2 2.2.6 4.8.4 6.5-1.2z"/><path d="m327.1 348.6c3.2-6.3-7.2 2.6 0 0zm-3.7-5.1c-1.1-4.5-12.7-6.8-10.5-.7 2.5 2.6 7.6 2.7 10.5.7zm0-5.3c-2.8-3.2-11.7-8.2-13-2.1 2.5 4.1 9 3.8 13 2.1zm3.6-4.9c2.4-4.6-6.1 2-.4.6zm-3.6-.3c-.7-4.7-13-6.2-9.6-.5 2.6 2 6.9 2.3 9.6.5zm5-7.4c6.4-.3 6.5-10.3 1.4-12.5-6.7-2.3-3.7 6.4-7.8 8.4-3.6 2.1-10.4 1.5-11.1-3.6 1.1-7.4-9.7-5-9.6 1 .4 4.4 5.4 6.7 9.4 7.7 5.8 1.3 12 .6 17.7-1z"/><path d="m324.3 319.8c-1-10 3.2-19.8 1.5-30a372 372 0 0 1 6.5-73c-9.4 2.1-14.5 14.7-17.5 23.5-5.7 21-4.2 43.2-4.2 64.9.5 9.5-.2 21.4 13.7 14.6zm56.1-35.4c-2.3-11.7-18-5.2-25-12.2-6.7-5.6-13.7.8-3.8 4.6 9.3.3 16.7 4.8 24.2 7.5z"/><path d="m412.4 248.6c-1-1-.2-1.2 4.3-1.3 5.6-.1 9-1 13-3.6 3.2-2 4.1-1.6 1 .5-2.7 2-7 3.4-11.3 3.8l-5.1.7c-.8.2-1.7.1-2-.1z" fill="#000"/></g></g></g></svg>