<svg height="480.7" viewBox="0 0 640.701 480.701" width="640.7" xmlns="http://www.w3.org/2000/svg"><clipPath id="a"><rect height="480" rx="45" width="640" x=".35" y=".35"/></clipPath><g clip-path="url(#a)" transform="matrix(.93 0 0 .93 22.52 17.02)"><g stroke-width="1.001"><path d="m0 0h640.701v480.701h-640.701z" fill="#fff"/><path d="m0 336.491h640.701v144.21h-640.701z" fill="#009543"/><path d="m0 0h640.701v144.21h-640.701z" fill="#00209f"/></g><path d="m319.95 153.223c-2.703 0-5.406 3.004-5.406 3.004l.3 32.447-10.311 10.716h8.309v18.527l-49.054 66.096-7.208-2.604-12.714 27.039s31.334 19.629 76.784 19.028c49.855-.501 76.984-19.929 76.984-19.929l-13.014-26.639-6.507 2.804-49.654-65.696v-19.128h8.209l-11.212-10.615v-32.247s-2.703-3.004-5.506-2.904z" stroke="#000" stroke-width="1.602"/><path d="m337.069 230.736h-33.937s-12.213-25.938-10.311-44.064c2.002-18.427 12.614-27.14 26.629-27.34 16.618-.1 25.228 8.112 27.83 26.639 2.603 18.327-10.211 44.765-10.211 44.765z" fill="none" stroke="#000" stroke-width="8.01"/><path d="m260.785 292.527c-.601.701-4.705 8.913-4.705 8.913l7.008-1.502zm4.004 10.515-7.408 2.404 8.91 3.505zm3.304-10.315 3.704 10.916 9.01-2.604-2.303-5.208zm5.806 14.822 1.201 4.406 12.013 3.004-4.805-10.215zm13.214-9.314 4.305 10.215 9.01-3.505-3.003-4.507zm6.007 13.92 1.402 3.806 14.015 2.003-5.906-9.213-9.611 3.405zm13.415-11.016 5.206 9.113 13.014-4.807-1.402-3.505-16.818-.701zm7.608 12.418 2.703 4.807 16.218-.501-6.007-9.013-13.014 4.707zm17.119-12.018 4.405 7.611 10.411-5.007-2.803-4.006zm17.019 5.808-10.311 5.107 2.703 4.507 13.815-2.203zm3.304-8.012 5.306 6.71 8.71-6.91-3.003-3.004zm15.917 3.505-8.309 6.309 2.202 3.906 11.412-3.004zm11.412-13.019 2.002 2.904-5.706 8.512-5.906-7.611zm3.904 7.311 3.504 7.01-7.008 2.404-.601-3.305 4.004-6.009z" fill="#fff" stroke-width="1.001"/></g></svg>