<svg height="480.7" viewBox="0 0 640.701 480.701" width="640.7" xmlns="http://www.w3.org/2000/svg" xmlns:xlink="http://www.w3.org/1999/xlink"><defs><path id="a" d="m0-4.42 1.77 4.42h-3.54z" fill="#fff" stroke-width="8.84"/><clipPath id="b"><rect height="480" rx="45" width="640" x=".35" y=".35"/></clipPath></defs><g clip-path="url(#b)" transform="matrix(.93 0 0 .93 22.52 17.02)"><g stroke-width="1.001"><path d="m0 0h640.701v160.3h-640.701z" fill="#fecb00"/><path d="m0 320.501h640.701v160.2h-640.701z" fill="#ea2839"/><path d="m0 160.3h640.701v160.201h-640.701z" fill="#34b233"/></g><g transform="matrix(40.04 0 0 40.05 320.35 256.42)"><use transform="matrix(-.81 -.59 .59 -.81 0 0)" width="18" xlink:href="#a"/><use height="12" transform="matrix(.31 -.95 .95 .31 0 0)" width="18" xlink:href="#a"/><use height="12" width="18" xlink:href="#a"/><use height="12" transform="matrix(.31 .95 -.95 .31 0 0)" width="18" xlink:href="#a"/><use height="12" transform="matrix(-.81 .59 -.59 -.81 0 0)" width="18" xlink:href="#a"/></g></g></svg>