<svg height="480.7" viewBox="0 0 640.701 480.701" width="640.7" xmlns="http://www.w3.org/2000/svg" xmlns:xlink="http://www.w3.org/1999/xlink"><clipPath id="a"><rect height="480" rx="45" width="640" x=".35" y=".35"/></clipPath><g clip-path="url(#a)" transform="matrix(.93 0 0 .93 22.52 17.02)"><path d="m0 0h640.701v480.701h-640.701z" fill="#cc0001" stroke-width="1.001"/><path id="b" d="m0 446.451h640.701v34.25h-640.701z" fill="#fff" stroke-width="1.001"/><use height="100%" transform="translate(0 -68.7)" width="100%" xlink:href="#b"/><use height="100%" transform="translate(0 -137.4)" width="100%" xlink:href="#b"/><use height="100%" transform="translate(0 -206.1)" width="100%" xlink:href="#b"/><use height="100%" transform="translate(0 -274.7)" width="100%" xlink:href="#b"/><use height="100%" transform="translate(0 -343.5)" width="100%" xlink:href="#b"/><use height="100%" transform="translate(0 -412.1)" width="100%" xlink:href="#b"/><path d="m0 0h373.008v274.701h-373.008z" fill="#010066" stroke-width="1.001"/><g fill="#fc0"><path d="m149.7 48.5c-49 0-88.9 39.7-88.9 88.6a88.8 88.8 0 0 0 89 88.6 88.7 88.7 0 0 0 48-14 78.9 78.9 0 0 1 -25.8 4.2 78.7 78.7 0 0 1 -78.8-78.5 78.7 78.7 0 0 1 106.2-73.7 88.7 88.7 0 0 0 -49.7-15.2z"/><path d="m297.1 183.2-37.4-19.5 11 40-25-33.5-7.8 40.7-7.7-40.7-25.1 33.4 11.2-40-37.6 19.5 28-31.3-42.5 1.6 39-16.3-39-16.5 42.5 1.7-27.8-31.3 37.4 19.5-11-40 25 33.5 7.8-40.7 7.7 40.7 25.1-33.3-11.2 39.9 37.6-19.4-28 31.2 42.5-1.6-39 16.4 39 16.5-42.5-1.8z"/></g></g></svg>