<svg height="480.7" viewBox="0 0 640.701 480.701" width="640.7" xmlns="http://www.w3.org/2000/svg" xmlns:xlink="http://www.w3.org/1999/xlink"><defs><clipPath id="a"><path d="m0 0h600v300h-600z"/></clipPath><clipPath id="b"><path d="m0 0 300 150h-300zm300 0h300l-300 150zm0 150h300v150zm0 0v150h-300z"/></clipPath><g id="c"><g id="d"><path d="m0-.3v.5l1-.5z"/><path d="m0 0v-.5l1 .5z" transform="matrix(.81 -.59 .59 .81 .21 .26)"/></g><use height="100%" transform="scale(-1 1)" width="100%" xlink:href="#d"/><use height="100%" transform="matrix(.31 .95 -.95 .31 0 0)" width="100%" xlink:href="#d"/><use height="100%" transform="matrix(.31 -.95 .95 .31 0 0)" width="100%" xlink:href="#d"/><use height="100%" transform="matrix(-.31 .95 .95 .31 0 0)" width="100%" xlink:href="#d"/></g><clipPath id="e"><rect height="480" rx="45" width="640" x=".35" y=".35"/></clipPath></defs><g clip-path="url(#e)" transform="matrix(.93 0 0 .93 22.52 17.02)"><path d="m0 0h640.701v480.701h-640.701z" fill="#00247d" fill-rule="evenodd" stroke-width="1.001"/><g transform="matrix(.67 0 0 .67 -93.1 36.15)"><use fill="#fff" height="100%" transform="matrix(45.4 0 0 45.4 900 120)" width="100%" xlink:href="#c"/><use fill="#cc142b" height="100%" transform="matrix(30 0 0 30 900 120)" width="100%" xlink:href="#c"/></g><g transform="matrix(.09 .66 -.66 .09 584.28 -422.02)"><use fill="#fff" height="100%" transform="matrix(5.62 -40.01 40.01 5.62 900.01 119.95)" width="100%" xlink:href="#c"/><use fill="#cc142b" height="100%" transform="matrix(3.48 -24.76 24.76 3.48 900.01 119.95)" width="100%" xlink:href="#c"/></g><g transform="matrix(.09 .66 -.66 .09 584.28 -422.02)"><use fill="#fff" height="100%" transform="matrix(6.32 -44.96 44.96 6.32 900.06 380)" width="100%" xlink:href="#c"/><use fill="#cc142b" height="100%" transform="matrix(4.18 -29.71 29.71 4.18 900.06 380)" width="100%" xlink:href="#c"/></g><g transform="matrix(.67 0 0 .67 -93.1 36.15)"><use fill="#fff" height="100%" transform="matrix(50.4 0 0 50.4 900 480)" width="100%" xlink:href="#c"/><use fill="#cc142b" height="100%" transform="matrix(35 0 0 35 900 480)" width="100%" xlink:href="#c"/></g><path clip-path="url(#a)" d="m0 0 600 300m-600 0 600-300" stroke="#fff" stroke-width="60" transform="scale(.61 .73)"/><path clip-path="url(#b)" d="m0 0 600 300m-600 0 600-300" stroke="#cc142b" stroke-width="40" transform="scale(.61 .73)"/><path clip-path="url(#a)" d="m151.7 0v79.4h-151.7v60.6h151.7v79.4h60.7v-79.3h151.6v-60.7h-151.6v-79.4z" fill="#fff"/><path d="m163.979 0v91.634h-163.979v36.453h163.979v91.634h36.44v-91.534h164.08v-36.553h-164.08v-91.634z" fill="#cc142b" stroke-width="1.001"/></g></svg>