<svg height="480.7" viewBox="0 0 640.701 480.701" width="640.7" xmlns="http://www.w3.org/2000/svg" xmlns:xlink="http://www.w3.org/1999/xlink"><clipPath id="a"><rect height="480" rx="45" width="640" x=".35" y=".35"/></clipPath><g clip-path="url(#a)" transform="matrix(.93 0 0 .93 22.52 17.02)"><g stroke-width="1.001"><path d="m0 0h640.701v480.701h-640.701z" fill="#20603d"/><path d="m0 0h640.701v360.526h-640.701z" fill="#fad201"/><path d="m0 0h640.701v240.351h-640.701z" fill="#00a1de"/></g><g transform="matrix(.67 0 0 .67 511.56 125.58)"><g id="b"><path id="c" d="m116.1 0-80.4 4.7 76.4 25.4-78.8-16.3 67.3 44.2-72-36.2 53.4 60.3-60.1-53.5 36.2 72-44.3-67.3 16.2 78.7-25.3-76.3-4.7 80.4-1-117.1z" fill="#e5be01"/><use height="100%" transform="scale(1 -1)" width="100%" xlink:href="#c"/></g><use height="100%" transform="scale(-1 1)" width="100%" xlink:href="#b"/><circle fill="#e5be01" r="34.3" stroke="#00a1de" stroke-width="3.4"/></g></g></svg>