<svg height="480.7" viewBox="0 0 640.701 480.701" width="640.7" xmlns="http://www.w3.org/2000/svg"><clipPath id="a"><rect height="480" rx="45" width="640" x=".35" y=".35"/></clipPath><g clip-path="url(#a)" stroke-width="1.001" transform="matrix(.93 0 0 .93 22.52 17.02)"><path d="m0 0h640.701v480.701h-640.701z" fill="#ee1c25"/><path d="m0 0h640.701v320.467h-640.701z" fill="#0b4ea2"/><path d="m0 0h640.701v160.234h-640.701z" fill="#fff"/><path d="m233.255 371.342c-43.047-20.73-104.715-61.99-104.715-143.409 0-81.519 4.004-118.573 4.004-118.573h201.52s3.904 37.054 3.904 118.573-61.667 122.579-104.715 143.409z" fill="#fff"/><path d="m233.255 360.526c-39.543-19.028-96.105-56.883-96.105-131.592s3.604-108.759 3.604-108.759h185.002s3.504 34.05 3.504 108.759c.1 74.809-56.462 112.564-96.005 131.592z" fill="#ee1c25"/><path d="m241.664 209.305c10.712.2 31.635.601 50.155-5.608 0 0-.4 6.71-.4 14.421s.501 14.421.501 14.421c-17.019-5.708-38.142-5.808-50.255-5.708v41.26h-16.818v-41.26c-12.013-.1-33.136 0-50.155 5.708 0 0 .501-6.71.501-14.421 0-7.811-.501-14.421-.501-14.421 18.52 6.209 39.443 5.808 50.055 5.608v-25.938c-9.711 0-23.726.401-39.643 5.708 0 0 .501-6.61.501-14.421 0-7.711-.501-14.421-.501-14.421 15.917 5.308 29.933 5.808 39.643 5.708-.501-16.424-5.306-37.054-5.306-37.054s9.911.701 13.815.701c4.004 0 13.815-.701 13.815-.701s-4.805 20.63-5.306 37.054c9.711.1 23.726-.401 39.643-5.708 0 0-.501 6.71-.501 14.421 0 7.811.501 14.421.501 14.421a119.13 119.174 0 0 0 -39.743-5.708v26.038z" fill="#fff"/><path d="m233.255 263.685c-19.922 0-30.533 27.54-30.533 27.54s-6.007-13.019-22.224-13.019c-11.012 0-19.021 9.714-24.227 18.827 20.022 31.746 51.957 51.375 76.984 63.493 25.027-12.018 57.062-31.746 76.984-63.493-5.206-9.013-13.214-18.827-24.227-18.827-16.218 0-22.224 13.019-22.224 13.019s-10.512-27.54-30.533-27.54z" fill="#0b4ea2"/></g></svg>