<svg height="480.7" viewBox="0 0 640.701 480.701" width="640.7" xmlns="http://www.w3.org/2000/svg" xmlns:xlink="http://www.w3.org/1999/xlink"><clipPath id="a"><rect height="480" rx="45" width="640" x=".35" y=".35"/></clipPath><g clip-path="url(#a)" transform="matrix(.93 0 0 .93 22.52 17.02)"><path d="m0 0h640.701v480.701h-640.701z" fill="#060" stroke-width="1.001"/><path d="m0 0h640.701v343.401h-640.701z" fill="#fff" stroke-width="1.001"/><path d="m0 0h640.701v137.3h-640.701z" fill="#c00" stroke-width="1.001"/><path d="m301.129 233.941a8.609 8.613 0 0 1 16.018 4.006v34.45h6.407v-34.35a8.609 8.613 0 0 1 16.018-4.006 20.222 20.23 0 1 0 -38.442 0" fill="#f8c300" stroke-width="1.001"/><path d="m305.735 225.028a13.715 13.72 0 0 1 14.616 6.509 13.715 13.72 0 0 1 14.616-6.509 14.716 14.721 0 0 0 -29.232 0" fill="#fff" stroke-width="1.001"/><path id="b" d="m317.147 258.677a26.028 26.038 0 0 1 -43.848 16.624 27.03 27.039 0 0 1 -41.045 12.018c2.503 25.037 40.044 19.929 42.847-4.406 11.713 20.73 37.641 14.721 45.25-10.615z" fill="#f8c300" stroke-width="1.001"/><use fill="#f8c300" height="100%" transform="matrix(-1 0 0 1 640.7 0)" width="100%" xlink:href="#b"/><path id="c" d="m292.12 303.042c-5.306 11.317-15.717 13.219-24.827 4.106 0 0 3.604-2.604 7.608-3.305-.801-3.105.701-7.511 2.903-9.814a15.016 15.022 0 0 1 6.107 8.112c5.506-.701 8.209 1.001 8.209 1.001z" fill="#f8c300" stroke-width="1.001"/><use fill="#f8c300" height="100%" transform="matrix(.99 .16 -.16 .99 94.44 -44.93)" width="100%" xlink:href="#c"/><use fill="#f8c300" height="100%" transform="matrix(.95 .32 -.32 .95 193.86 -73.6)" width="100%" xlink:href="#c"/><path d="m253.778 328.279a233.355 233.44 0 0 1 133.146 0" fill="none" stroke="#f8c300" stroke-width="11.014"/><g fill="#f8c300" transform="matrix(.69 0 0 .69 320.35 164.84)"><path id="d" d="m301930 415571-790463-574305h977066l-790463 574305 301930-929245z" transform="scale(0)"/></g><g id="e" fill="#f8c300" transform="matrix(.69 0 0 .69 320.35 260.98)"><use height="100%" transform="translate(-70 -121.2)" width="100%" xlink:href="#d"/><use height="100%" transform="translate(-121.2 -70)" width="100%" xlink:href="#d"/><use height="100%" transform="translate(-140)" width="100%" xlink:href="#d"/></g><use fill="#f8c300" height="100%" transform="matrix(-1 0 0 1 640.7 0)" width="100%" xlink:href="#e"/></g></svg>