<svg height="480.7" viewBox="0 0 640.701 480.701" width="640.7" xmlns="http://www.w3.org/2000/svg"><clipPath id="a"><rect height="480" rx="45" width="640" x=".35" y=".35"/></clipPath><g clip-path="url(#a)" stroke-width="1.001" transform="matrix(.93 0 0 .93 22.52 17.02)"><path d="m0 0h640.701v480.701h-640.701z" fill="#00247d"/><path d="m108.218 355.118c-6.707-.1 62.869-37.054 121.032-84.523 76.283-62.191 240.563-161.636 288.916-177.859 5.005-1.702-10.311 8.613-12.313 11.917-51.556 61.089-10.411 176.257 54.059 234.242 19.421 14.822 18.42 15.623 54.359 17.025v3.405zm-4.205 6.71s-4.905 3.505-4.905 6.109c0 2.904 5.506 6.71 5.506 6.71l499.046 5.508 9.21-6.109-12.814-7.912z" fill="#fed100"/><path d="m106.917 109.259-4.004 12.218 10.411-7.511 10.311 7.511-3.904-12.218 10.311-7.511h-12.814l-3.904-12.218-4.004 12.218h-12.814zm78.186 57.484 8.609-6.309h-10.712l-3.304-10.115-3.304 10.115h-10.612l8.609 6.309-3.304 10.115 8.609-6.309 8.71 6.309zm-145.359 13.019-4.004-12.218-3.904 12.218h-12.814l10.311 7.511-3.904 12.218 10.311-7.511 10.411 7.511-4.004-12.218 10.411-7.511zm78.186 122.479-4.605-14.221-4.605 14.221h-15.017l12.113 8.713-4.605 14.321 12.113-8.813 12.113 8.813-4.705-14.321 12.113-8.713z" fill="#fff"/></g></svg>