<svg height="480.7" viewBox="0 0 640.701 480.701" width="640.7" xmlns="http://www.w3.org/2000/svg"><clipPath id="a"><rect height="480" rx="45" width="640" x=".35" y=".35"/></clipPath><clipPath id="b"><path d="m43 0h682v512h-682z"/></clipPath><g clip-path="url(#a)" transform="matrix(.93 0 0 .93 22.52 17.02)"><g clip-path="url(#b)" fill-rule="evenodd" transform="matrix(.94 0 0 .94 -40.4 0)"><path d="m0 0h768v512h-768z" fill="#28ae66"/><g fill="#fff" stroke-width="1pt"><path d="m263 138c28 13 61 0 73-19 13-17 14-47-7-73 33 27 40 58 24 84-22 29-71 28-90 8z"/><path d="m313 69 5 1-4 3 2 6-5-4-4 4 1-6-4-3 5-1 2-5zm-28 35h6l-5 4 2 5-5-3-4 3 1-5-4-4h5l2-5zm2-27h6l-5 3 2 6-5-3-4 3 1-6-4-3h5l2-6zm0-28h6l-5 4 2 6-5-4-5 4 2-6-4-3h5l2-6zm-31 35h6l-5 4 2 5-5-3-4 3 1-5-4-4h6l1-5z"/></g><path d="m48 0h164v512h-164z" fill="#ca3745"/><g fill="#faae29"><path d="m116 505s6-11 21-14 17 7 26 7 22-7 22-7-14 13-24 13-14-7-25-6c-10 1-20 7-20 7z"/><path d="m145 505s-6-11-21-14-17 7-26 7-22-7-22-7 14 13 24 13 14-7 25-6c10 1 20 7 20 7z"/><g stroke-width="1pt"><path d="m96 488c-1-3-4-15-3-17 3-1 10 12 9 23-4 2-20-1-20-5 2-4 10-3 14-1z"/><path d="m87 477c-1-3-2-16 0-17 2 0 7 14 5 25-5 1-20-7-19-10 2-4 10 0 14 2z"/><path d="m79 465c0-3-1-16 1-16 3 0 7 15 4 25-5 0-19-10-18-13 2-4 10 1 13 4z"/><path d="m73 453c0-3 1-16 3-16 3 1 5 16 0 25-4-1-17-13-15-16s9 3 12 7z"/><path d="m69 440c0-3 3-16 5-16 2 2 3 17-3 26-4-2-15-17-14-19 3-3 9 5 12 9z"/><path d="m70 425c0 13-2 13-7 4-2-4-2-19 0-20 2 0 7 11 7 16zm94 64c1-3 5-15 3-16-3-1-10 11-9 22 5 2 20-1 20-4-1-5-10-3-14-2z"/><path d="m173 478c1-3 3-15 1-16-3 0-8 13-6 24 5 1 20-7 19-10-2-4-10 0-14 2z"/><path d="m181 467c1-3 1-16-1-17-3 0-7 15-3 25 5 0 19-9 18-12-3-4-10 1-14 4z"/><path d="m187 454c0-3-1-16-3-16-3 1-5 16 0 25 5 0 17-13 16-16-3-3-10 4-13 7z"/><path d="m191 441c0-3-3-15-5-15-2 1-3 16 3 25 5-2 16-17 14-19-3-3-9 5-12 9z"/><path d="m190 426c0 13 3 13 7 4 2-4 2-19 1-19-3 0-8 10-8 15z"/></g></g><path d="m376 500v24h10v8h11v7h35l15 10 14-10h39v-7h10v-7h11v-25h-11v-7h-10v-8h-39l-14-10-15 10h-35v8h-11v7z" fill="#28ae66" stroke="#faae29" stroke-width="1.4" transform="matrix(.74 0 0 .79 -204 -85)"/><path d="m113 300-16 14v-14zm31 0 16 14v-14zm-31 36-16-14v14zm31 0 16-14v14zm6-28-6 6h11zm-43 0-5 6h11zm0 20-5-6h11zm43 0-6-6h11z" fill="#ca3745"/><path d="m129 342-6-6h11zm0-28-6-6h11zm0-20-6 6h11zm0 28-6 6h11z" fill="#faae29"/><path d="m123 231h-7v-4h5v-4h4v-3h5v4c-4 0-7 3-7 7z" fill="#fff"/><path d="m136 231h7v-4h-4v-4h-5v-3h-4v4c3 0 6 3 6 7z" fill="#faae29"/><path d="m136 231h7v5h-4v3h-5v4h-4v-4c3 0 6-3 6-8z" fill="#fff"/><path d="m123 231h-7v5h5v3h4v4h5v-4c-4 0-7-3-7-8z" fill="#faae29"/><path d="m136 231h-6v-7c3 0 6 3 6 7z" fill="#28ae66"/><path d="m136 231h-6v8c3 0 6-4 6-8z" fill="#ca3745"/><path d="m123 231h7v8c-4 0-7-4-7-8z" fill="#28ae66"/><path d="m123 231h7v-7c-4 0-7 3-7 7z" fill="#ca3745"/><g stroke="#000"><path d="m-101 177-7 7v27l7 7h32l7-7v-27l-7-7zm-2-5-17 18v16l17 17h36l17-18v-15l-17-18z" fill="#28ae66" stroke-width=".4" transform="matrix(1.28 0 0 1.2 239 -6)"/><g fill="#faae29" stroke-width=".3"><path d="m-94 147 4 5 3-5z" transform="matrix(1.02 0 0 .8 215 140)"/><path d="m-94 147 4 5 3-5z" transform="matrix(1.02 0 0 -.8 215 322)"/><path d="m-94 147 4 5 3-5z" transform="matrix(1.02 0 0 -.8 230 322)"/><path d="m-94 147 4 5 3-5z" transform="matrix(1.02 0 0 .8 230 140)"/></g></g><g stroke="#000"><g fill="#ca3745"><path d="m-76 154h7l2 2-2 2h-7z" stroke-width=".3" transform="matrix(1.28 0 0 1.08 261 59)"/><path d="m-99 181-4 3v27l4 3h-6v-33z" stroke-width=".4" transform="matrix(1.28 0 0 1.2 230 -6)"/><g stroke-width=".3"><path d="m-94 147 4 5 3-5z" transform="matrix(1.02 0 0 .8 208 140)"/><path d="m-94 147 4 5 3-5z" transform="matrix(1.02 0 0 .8 222 140)"/><path d="m-94 147 4 5 3-5z" transform="matrix(1.02 0 0 .8 237 140)"/></g><path d="m-99 181-4 3v27l4 3h-6v-33z" stroke-width=".4" transform="matrix(-1.28 0 0 1.2 30 -6)"/></g><g stroke-width=".3"><path d="m-76 154h7l2 2-2 2h-7z" fill="#faae29" transform="matrix(1.28 0 0 1.08 261 63)"/><path d="m-76 154h7l2 2-2 2h-7z" fill="#ca3745" transform="matrix(1.28 0 0 1.08 261 67)"/><path d="m-76 154h7l2 2-2 2h-7z" fill="#faae29" transform="matrix(1.28 0 0 1.08 261 71)"/><path d="m-76 154h7l2 2-2 2h-7z" fill="#faae29" transform="matrix(1.28 0 0 1.08 261 55)"/><path d="m-76 154h7l2 2-2 2h-7z" fill="#ca3745" transform="matrix(-1.28 0 0 1.08 -2 59)"/><path d="m-76 154h7l2 2-2 2h-7z" fill="#faae29" transform="matrix(-1.28 0 0 1.08 -2 63)"/><path d="m-76 154h7l2 2-2 2h-7z" fill="#ca3745" transform="matrix(-1.28 0 0 1.08 -2 67)"/><path d="m-76 154h7l2 2-2 2h-7z" fill="#faae29" transform="matrix(-1.28 0 0 1.08 -2 71)"/><path d="m-76 154h7l2 2-2 2h-7z" fill="#faae29" transform="matrix(-1.28 0 0 1.08 -2 55)"/><path d="m-101 179v37h9v9h57v-9h8v-37h-8v-9h-57v9zm2 2v33h9v9h53v-9h9v-33h-9v-9h-53v9z" fill="#970000" transform="matrix(1.28 0 0 1.2 211 -6)"/></g></g><path d="m75 51v6l7 9v6l7 6h14l11 6h16v-33z" fill="#faae29"/><path d="m111 66-9 5h-5l2 1-3 4 2 2 5-2 1 2 1-5 9-6z" fill="#ca3745"/><path d="m102 61-9 6h-5l2 1-3 4 1 2 5-2 2 2 1-5 9-5-3-2zm-5-8-8 6h-5l1 1-3 4 2 1 5-1 2 2v-5l9-6z" fill="#ca3745"/><path d="m184 51v-6l-7-8v-6l-6-6h-14l-11-6h-16v32z" fill="#faae29"/><path d="m130 84h-4l-5-4h-8l-4-2 2-2 4 2h4l5-6 6 2v4h-6z" fill="#ca3745"/><path d="m75 51v-6l7-8v-6l7-6h14l11-6h16v32z" fill="#fff"/><path d="m130 19h-4l-5 4h-8l-4 2 2 2 4-2h4l5 6 6-2v-4h-6zm0 0h4l5 4h8l4 2-2 2-5-2h-4l-4 6-6-2v-4h6z" fill="#ca3745"/><path d="m184 51v6l-7 9v6l-6 6h-14l-11 6h-16v-33z" fill="#fff"/><path d="m130 84h4l5-4h8l4-2-2-2-5 2h-4l-4-6-6 2v4h6zm-28-43-9-5h-5l2-2-3-3 1-2 5 1 2-1 1 4 9 6zm47-4 8-5h5l-2-2 4-4-2-1-5 1-1-1-1 4-9 6z" fill="#ca3745"/><path d="m111 37-9-5h-5l2-2-3-4 2-1 5 1 1-1 1 4 9 6zm-14 12-8-5h-5l1-2-3-3 2-2 5 2 2-2v5l10 5z" fill="#ca3745"/><path d="m80 51h2l2-2 2 2h44v-28h-2l2-2v-2l-7 6v2h3v-2h2v2l-17 9h-15v9l-6 4h-4l-2-2 2-2h-2z" fill="#faae29"/><path d="m89 51h41v25l-18-10h-14v-9z" fill="#28ae66"/><path d="m158 41 8-5h5l-1-2 3-3-2-2-5 1-1-1-1 4-9 6zm5 8 8-5h5l-2-2 3-3-1-2-5 2-2-2-1 5-9 5z" fill="#ca3745"/><path d="m171 51h-41v-24l18 10h14v8z" fill="#28ae66"/><g fill="#ca3745"><path d="m149 66 8 5h5l-2 1 4 4-2 2-5-2-1 2-1-5-9-6z"/><path d="m158 61 8 6h5l-1 1 3 4-2 2-5-2-1 2-1-5-9-5 3-2zm5-8 8 6h5l-2 1 3 4-1 2-5-2-2 2-1-5-9-6z"/><path d="m171 51h-41v25l18-10h14v-9zm-82 0h41v-24l-18 10h-14v8zm45 0 12-6h7l-3-2 5-4-2-2-7 2-3-2-1 5-12 7zm-9 0-11 6h-7l2 2-4 5 2 2 7-2 2 2 1-6 13-6z"/></g><path d="m125 51-11-6h-7l3-2-5-4 2-2 7 2 2-2 1 5 13 7zm9 0 12 6h7l-3 2 5 5-2 2-7-2-3 2-1-6-12-6z" fill="#28ae66"/><path d="m116 51 14-10 13 10-13 10z" fill="#fff"/><path d="m333 170-11 5v9l11 6h11l10-6v-9l-10-5z" fill="#28ae66" stroke="#000" stroke-width=".1" transform="matrix(3.56 0 0 3.85 -1073 -292)"/><path d="m87 396h2v-4h5v4h2v-10h-2v5h-4v-5h-3zm58 33h2v-4h5v4h2v-10h-2v4h-5v-4h-2zm-37-49h3v-4h4v4h3v-10h-3v4h-4v-4h-3zm34 0h2v-4h5v4h2v-10h-2v4h-5v-4h-2zm21 16h3v-4h4v4h2v-10h-2v5h-4v-5h-3zm0 17h3v-5h4v5h2v-10h-2v4h-4v-4h-3z" fill="#c00"/><path d="m130 435v-36h55v17l-37 19zm0-71v35h-55v-16l37-19z" fill="#faae29"/><path d="m130 364v35h55v-16l-37-19zm0 71v-36h-55v17l37 19z" fill="#fff"/><path d="m-177 369h21l-21-11zm25-2v17h-34v-14h-7l-9-5v-12l5-6h-7v18h-1v-19h17z" fill="#faae29" stroke="#000" stroke-width=".1" transform="matrix(1.03 0 0 .92 342 46)"/><path d="m112 388v23h5l13 7 13-7h5v-23h-5l-13-6-13 6z" fill="#ca3745"/><g stroke="#000" stroke-width=".1"><path d="m-177 369h21l-21-11zm25-2v17h-34v-14h-7l-9-5v-12l5-6h-7v18h-1v-19h17z" fill="#faae29" transform="matrix(-1.03 0 0 -.92 -82 753)"/><g fill="#fff"><path d="m-177 369h21l-21-11zm25-2v17h-34v-14h-7l-9-5v-12l5-6h-7v18h-1v-19h17z" transform="matrix(-1.03 0 0 .92 -82 46)"/><path d="m-177 369h21l-21-11zm25-2v17h-34v-14h-7l-9-5v-12l5-6h-7v18h-1v-19h17z" transform="matrix(1.03 0 0 -.92 342 753)"/></g></g><path d="m79 147 3-4h22l15-16h22l15 17h22l3 3-3 4h-22l-15 16h-22l-15-16h-22z" fill="#ca3745"/><path d="m139 149 7 7-4 4-1-2h-2v2l2 1h3l4-3v-4l-7-7 7-7v-4l-4-3h-3l-2 2v1h2l1-1 4 3-7 7-7-7 7-7v-2h-2l-7 7-7-7h-2v2l7 7-7 7-7-7 4-3 2 1h1v-1l-1-2h-4l-4 3v4l8 7-8 7v4l4 3h4l1-1v-2h-2l-1 2-4-4 7-7 7 7-7 7v2h2l7-7 7 7h2v-2l-7-7zm-9-9-7 7 7 7 7-7zm-11 27v14l2-2 2 2 2-2 1 2 2-2 2 2 2-2 2 2 1-2 2 2 2-2 2 2v-14zm22-40v-14l-2 2-2-2-2 2-1-2-2 2-2-2-2 2-2-2-1 2-2-2-2 2-2-2v14zm30 17v-15l-2 2-2-2-2 2-2-2-1 2-2-2-2 2-2-2v15zm-67 0v-15l-2 2-2-2-2 2-2-2-1 2-2-2-2 2-2-2v15h14zm67 7v14l-2-2-2 2-2-2-2 2-1-2-2 2-2-2-2 2v-14zm-68 0v14l-1-2-2 2-2-2-2 2-1-2-2 2-2-2-2 2v-14z" fill="#faae29"/><path d="m141 167v9l1-2 2 2 2-2 2 2 1-2 2 2 2-2 2 2 1-2v-23zm-22 0v9l-1-2-2 2-2-2-2 2-1-2-2 2-2-2-2 2-2-2v-23zm0-40v-8l-1 1-2-1-2 1-2-1-1 1-2-1-2 1-2-1-2 1v24zm22 0v-8l1 1 2-1 2 1 2-1 1 1 2-1 2 1 2-1 1 1v24zm-52 34-1-1-2 2-2-2-2 2-1-2-2 2-2-2-2 2v-29l2 2 2-2 2 2 1-2 2 2 2-2 2 2 1-2v11h-7l-3 3 3 4h7zm82 0 1-1 2 2 2-2 2 2 1-2 2 2 2-2 2 2v-29l-2 2-2-2-2 2-1-2-2 2-2-2-2 2-1-2v11h7l3 3-3 4h-7z" fill="#28ae66"/></g></g></svg>