<svg height="480.7" viewBox="0 0 640.701 480.701" width="640.7" xmlns="http://www.w3.org/2000/svg" xmlns:xlink="http://www.w3.org/1999/xlink"><clipPath id="a"><rect height="480" rx="45" width="640" x=".35" y=".35"/></clipPath><g clip-path="url(#a)" transform="matrix(.93 0 0 .93 22.52 17.02)"><g stroke-width="1.001"><path d="m0 320.467h640.701v160.234h-640.701z" fill="#1eb53a"/><path d="m0 0h640.701v160.234h-640.701z" fill="#0099b5"/><path d="m0 153.824h640.701v173.053h-640.701z" fill="#ce1126"/><path d="m0 163.438h640.701v153.825h-640.701z" fill="#fff"/><ellipse cx="134.55" cy="76.91" fill="#fff" rx="57.66" ry="57.68"/><ellipse cx="153.77" cy="76.91" fill="#0099b5" rx="57.66" ry="57.68"/></g><g fill="#fff" transform="matrix(1.92 0 0 1.92 261.39 123.08)"><g id="b"><g id="c"><g id="d"><g id="e"><path id="f" d="m0-6-1.9 5.7 2.9 1"/><use height="100%" transform="scale(-1 1)" width="100%" xlink:href="#f"/></g><use height="100%" transform="matrix(.31 .95 -.95 .31 0 0)" width="100%" xlink:href="#e"/></g><use height="100%" transform="matrix(.31 -.95 .95 .31 0 0)" width="100%" xlink:href="#e"/><use height="100%" transform="matrix(-.81 .59 -.59 -.81 0 0)" width="100%" xlink:href="#d"/></g><use height="100%" width="100%" xlink:href="#c" y="-24"/><use height="100%" width="100%" xlink:href="#c" y="-48"/></g><use height="100%" width="100%" x="24" xlink:href="#b"/><use height="100%" width="100%" x="48" xlink:href="#b"/><use height="100%" width="100%" x="-48" xlink:href="#c"/><use height="100%" width="100%" x="-24" xlink:href="#c"/><use height="100%" width="100%" x="-24" xlink:href="#c" y="-24"/></g></g></svg>