<svg height="480.7" viewBox="0 0 640.701 480.701" width="640.7" xmlns="http://www.w3.org/2000/svg"><clipPath id="a"><rect height="480" rx="45" width="640" x=".35" y=".35"/></clipPath><g clip-path="url(#a)" transform="matrix(.93 0 0 .93 22.52 17.02)"><g fill-rule="evenodd"><path d="m320 0h320v480h-320z" fill="#fff"/><g transform="matrix(.08 0 0 .1 438.4 288)"><g stroke="#000" stroke-width="1.2"><path d="m212.6-1995v53.2h-53.1v35.5h53.1v106.3h35.4v-106.3h53.2v-35.5h-53.2v-53.1h-35.4z" fill="#fff133"/><ellipse cx="239.2" cy="-1813.5" fill="#fff133" rx="62" ry="57.3" transform="matrix(.57 0 0 .62 93.6 -679)"/><path d="m602.4-1119.4c0 68.5-10.5 145.7-29.3 205-120-26.4-268-39.7-339-39.7-87.6 0-246.2 13.3-345.3 26.5a630.8 630.8 0 0 1 -30.5-191.8c0-273.8 105.2-390.2 367.5-496 233.3 105.8 376.6 222.2 376.6 496z" fill="#fff" transform="matrix(1.06 0 0 1.34 -5.8 363.7)"/><path d="m-150.656-1259.766s260.665-58.389 390.477-59.396c129.813-1.007 385.244 52.951 385.244 52.951s5.133 134.349 5.266 201.279c.132 66.93-28.645 203.336-28.645 203.336h-718.221s-27.76-110.571-36.227-216.482c-8.468-105.911 2.106-181.688 2.106-181.688z" fill="#fff133" stroke="none"/></g><ellipse cx="234.1" cy="-822.1" fill="#b90000" rx="375.9" ry="120.5" transform="matrix(.97 0 0 .41 13 -517.5)"/></g><path d="m0 0h320v480h-320z" fill="#ffe000"/><g transform="translate(7.06 -178.99)"><path d="m371.856 379.757c2.169-2.85 6.064-3.282 8.734-.966l124.893 108.345c4.677 3.571 5.281 4.451 8.465 2.115 15.415-11.096 34.246-11.709 46.935-.692 16.414 14.25 16.805 42.766.874 63.694-15.932 20.927-42.153 26.345-58.571 12.101l28.844-37.902-28.864 37.884c-13.505-11.737-16.292-33.364-7.517-52.566.875-1.955-.375-4.505-3.507-7.1l-80.948-70.222-31.971 42.011c-2.169 2.85-6.064 3.282-8.734.966l-22.736-19.724c-2.669-2.316-3.071-6.475-.902-9.325l31.971-42.011-11.574-10.04c-2.669-2.316-3.072-6.473-.903-9.323z" fill="#c0c0c0"/><path d="m538.482 376.841c-2.337-2.628-6.315-2.847-8.918-.488l-121.832 110.333c-4.585 3.665-5.158 4.54-8.502 2.457-16.18-9.881-35.341-9.522-47.718 1.697-16.011 14.511-15.077 41.916 2.087 61.212s44.058 23.179 60.073 8.674l-31.075-34.948 31.095 34.929c13.173-11.951 14.995-32.861 5.182-50.86-.98-1.833.17-4.345 3.232-6.995l78.964-71.511 34.444 38.736c2.337 2.628 6.315 2.847 8.918.488l22.179-20.086c2.604-2.358 2.817-6.373.481-9.001l-34.444-38.736 11.29-10.224c2.604-2.358 2.819-6.371.482-8.999z" fill="#fff133"/></g></g></g></svg>