<svg height="480.7" viewBox="0 0 640.701 480.701" width="640.7" xmlns="http://www.w3.org/2000/svg"><clipPath id="a"><rect height="480" rx="45" width="640" x=".35" y=".35"/></clipPath><clipPath id="b"><path d="m-71.9 0h682.7v512h-682.7z"/></clipPath><g clip-path="url(#a)" transform="matrix(.93 0 0 .93 22.52 17.02)"><g clip-path="url(#b)" transform="matrix(.94 0 0 .94 67.48 0)"><g fill-rule="evenodd" stroke-width="1pt"><path d="m-71.9 407.8v-303.4l225.9 151.7-226 151.7z"/><path d="m82.2 512.1 253.6-170.6h360.2v170.5h-613.8z" fill="#00c"/><path d="m66 0h630v170.8h-360.3s-266.4-172.5-269.7-170.8z" fill="#f00"/><path d="m-71.9 64v40.4l225.9 151.6-226 151.8v40.3l284.5-192-284.5-192.1z" fill="#fc0"/><path d="m-71.9 64v-64h95l301.2 204h371.8v104.2h-371.8l-301.3 203.8h-94.9v-63.9l284.4-192-284.3-192.1z" fill="#093"/><path d="m23 0h59.2l253.6 170.7h360.2v33.3h-371.7l-301.3-203.9zm0 512.1h59.2l253.6-170.6h360.2v-33.2h-371.7l-301.3 203.7z" fill="#fff"/></g></g></g></svg>