<svg height="481" viewBox="0 0 641 481" width="641" xmlns="http://www.w3.org/2000/svg"><clipPath id="a"><rect height="480" rx="45" width="640" x=".35" y=".35"/></clipPath><g clip-path="url(#a)" transform="matrix(.93 0 0 .93 22.5 17)"><g transform="matrix(.74 0 0 .74 11.5 -127)"><path d="m-88.2 158h1008v673h-1008z" fill="#ffd520" stroke-width="1.83"/><path d="m-88.2 831h1008v-673z" fill="#ff4e12" stroke-width="1.83"/><path d="m535 65.9c-.5 3.99-6.48 7.97-9.22 9.96-8.51 6.19-1.25 11.5-10.2 19.4-9.92 8.8-2.9 12.3-8.14 19.9-2.18-.2-4.52.58-6.56 1.54-1.2-2.51-4.47-2.4-9.22.041-3.4-3.09-8.55-5.33-13.1-4.54-.05-.053-.108-.093-.16-.143-1.66-6.4-6.35-11.3-12.2-9.69-1.33.37-2.28 1.23-2.99 2.35h-.002c-3.57-3.29-7.91-5.18-12.4-5.3-3.11-.09-6.27.689-9.26 2.44-6.5-9.15-17.2-6.88-22.2-12.1-8.22-8.47-29-16.3-37.6-10.5 8.93-.47 15.4 2.42 20.9 6.1-.462.345-.906.75-1.33 1.22-5.19-2.85-9.93-3.93-13.1-2.09 5.12.27 8.34 2.34 11.3 4.84-.721 1.53-1.27 3.43-1.57 5.75-12.4-9.09-25.8-11.3-30.1-5.14-7.02-1.93-14.8-1.23-16.6 4.08 8.81-4.29 17.1-.152 23.3 2.41-1.48.499-2.82 1.32-3.92 2.52-5.55-1.07-10.4-.804-12.8 2.23 2.25-.94 6.32-1.05 11.2-.004-1.07 2.16-1.59 5.03-1.27 8.72-20.9-8.47-36-5.61-39.1 2.74-3.49 9.22 9.47 14.3 11.7 8.47-2.37.997-10.5-1.74-6.23-6.98 4.08-5.03 24.3-1.57 44.2 8.29-.899.248-1.77.511-2.58.797-8.08-4.27-21.6 1.34-24.8-8.29-1.35 4.39-.235 7.04 2.2 8.65-7.79.268-15.6 2.44-20.9 8.09-14.2-.59-24 1.47-25.4 9.13 11-9.84 29.4-1.74 36.9-3.74.435-.116.951-.216 1.52-.307-.053.099-.108.187-.16.291-1.09 2.19-1.41 4.21-.949 5.71-1.68.249-3.09 1.77-3.97 4.59-.786 2.52-.715 4.7.158 6.11-1.38.837-2.15 2.7-2.08 5.52.019.775.103 1.49.238 2.16-5.74 1.81-11.6 6.16-16.7 16.8 4.52-4.53 9.23-6.99 14.9-8.11-.883 1.65-1.51 3.53-1.75 5.36-.871 6.85-10.6 9.09-5.23 19.4 1.12-6.6 5.48-10.2 8.97-10.5 2.19-.157 5.06-.525 7.46-1.82-1.13 2.7-.65 6.25 1.26 8.79 1.93 2.58 4.91 3.79 7.58 3.05-1.9 2.78-1.53 7.34 1.14 10.9.975 1.3 2.58 2.1 4.34 2.48-.546.678-1.04 1.41-1.47 2.13-2.87 4.86-11.7-1.37-14.7 5.11 4.05-1.74 8.17 1.97 10.1 3.24 3.02 1.99 7.6 2.53 11.3 1.21-.462 1.28-.679 2.49-.637 3.52.06 1.48 1.09 3.82 2.65 5.89-1.8-.441-3.68-.494-5.02-.16-3.49.872-10.2-.124-11.7-3.86-1.24 2.99.561 6.23 5.61 7.85 2.99.961 3.57 2.86 3.15 4.23-.117-.015-.229-.027-.348-.043-.18-1.58-2.39-2.93-3.93-3.44-1.65-.55-3.98-.029-4.5 1.39-.04-.013-.077-.022-.117-.035-.025-2.89-1.66-6.32-7.22-7.71-4.97-1.24-8.21.27-8.96 1.53-.02-.007-.039-.014-.059-.022 1.39-1.84.488-5.43-3.94-7.36-2.94-1.28-5.42-.37-6.81 1.04.333-2.11-.801-4.38-2.66-5.28-5.11-2.49-3.24-8.97-6.48-10.2-3.24-1.25-6.35-3.49-6.48-5.73-1.62 3.11-.623 5.98 1.62 7.97 1.06.945.724 3.27.381 5.67-.822-1.03-2.12-1.84-3.77-2.28-2.31-.612-4.23.21-5.46 1.63-.631-1.7-2.34-3.02-4.75-3.53-2.45-.521-4.41.513-5.55 2.12-.753-1.82-2.72-3.05-5.39-3.23-2.19-.151-3.83.825-4.81 2.24-1.03-3.5-4.25-6.81-7.76-7.48-4.37-.831-9.53-.81-11.2-5.11-1.06 3.74 1.74 6.1 4.98 8.22 2.03 1.33 1.27 3.98 1.71 6.54-2.5-2.11-6.6-2.16-9.19-1.18-3.32 1.26-5.68 5.98-4.21 9.83-.075.043-.15.084-.225.127-2.89-3.09-8.36-2.26-10.8.381-1.72 1.88-2.14 4.35-1.53 6.35-5-4.12-10.1-3.67-13.2-1.25-6.6 5.23-13 2.24-13.2 7.48 3.99-3.05 7.47.621 10.7-.5 1.36-.47 2.59.358 4.19 1.28-1.27.885-1.97 2.27-1.7 4.33-1.69.75-2.45 5.1-.129 7.89-3.41-.422-7.4 2.72-8.22 6.81-.562 2.81-.154 6.18.988 8.63-9.13 2.1-15.7 15.3-26.1 12.3 4.55 7.23 15.6.012 19.7.746.402.072.837.129 1.29.174-2.17 1.48-3.11 4.22-3.78 9.05-.394 2.82.333 4.97 1.58 6.22-4.07 1.97-7.21 7.4-6.64 10.5-6.57.944-8.85 7.78-14.6 5.95 1.01 2.46 5.06 4.24 9.34 5.02-3.11 1.92-5.28 5.6-9.47 4.21.168 2.1 1.36 4.53 3.79 6.16-4.7-.445-9.95 2.06-13.9.561 0 1.96.551 4.47 2.05 6.65-8.18-2.82-19.6-2.43-21.7 1.88 4.17-.313 7.72 1.18 8.53 3.55-6.23-3.86-16.1 1.99-21.8-1.62-13.9-8.75-16.7-1.74-23.7-5.48-6.98-3.74-13.8-.623-14 3.24 6.48-5.23 11.7 5.04 18.2 3.74 13.5-2.7 18.3 5.42 27 7.07-6.91-.703-14.2-1.36-22.8 3.65-8.72 5.08-22.7.872-23.4 8.22 5.98-3.24 12.7 1.37 17.9-1.37 5.23-2.74 10.8-3.61 13.5-2.37-9.34 11.2-17.7 3.74-27.4 12.7-6.21 5.74-14.1 2.11-19.4 7.72-5.23 5.48-8.47 7.6-13.5 8.22 8.6 5.48 17-6.88 24.7-6.72 6.1.121 12.3-1.62 17.7-5.23-4.48 10.6-17.7 5.23-29.4 17.2-7.28 7.44-12.2 14.2-24.4 15.9 5.61 6.35 21.2-8.35 33.8-8.47 16.4-.165 17.3-14 25.5-13.2 8.22.748 11.5-9.96 18.2-9.96 6.73 0 9.47-11.8 14.7-9.96-7.23 3.24-7.23 13.7-16.4 15.4 9.84 3.86 14-9.96 25.4-10.7 1.35-.088 2.72-.362 4.08-.777-8.29 11.7-16 6.8-18 16 10.5-8.47 18.7-2.84 24.9-11.2 9.47-12.7 17.3-10.9 20.9-19.4 4.01-9.36 18.4-11.4 25.5-20.5.305 1.36.779 2.54 1.43 3.3.735 1.36 4.65 2.1 7.43.664.273 3.59-.071 7.38-1.4 10.8-2.88-1.16-7.5-1.5-9.52-.291-2.49 1.49-1.62 1.87 1.37 2.12 2.99.248 6.85 5.08.373 5.36-2.99.122-1.99 7.35-8.22 7.85 2.55 3.11 9.84 1.06 12.5-2.37-.498 2.8 3.24 5.35 1.74 8.72 4.47.485 2.08-8.77 8.6-8.86.038.051.077.105.115.156-2.26 1-.979 6.54 3.64 5.3.017.028.036.056.053.084-2.69 1.58-1.07 4.91 2.29 4.07-2.12.707-2.9 3.31-.34 4.96-.935 2.11-2.25 4.15-1.4 6.13-12.2 1.74-16.4 10.3-13.5 19.6-.623 3.36 4.42 7.29 4.92 11.3 0-.568.03-1.13.078-1.69-.047.553-.076 1.11-.076 1.68 0 10.7 8.68 19.4 19.4 19.4 10.7 0 19.4-8.68 19.4-19.4 0-.393-.016-.783-.039-1.17 1.07-.906 1.83-2.29 2.21-4.12 2.12-2.37 2.49-7.85.748-10.8.997-3.99-1.62-9.96-4.98-11.5 2.12.748 4.61.247 6.35-1.25.996 2.24 3.86 3.86 6.85 3.61-.624 3.36 5.13 4.22 5.36 8.35.122 2.24.495 5.98.121 8.59 3.74-4.86 4.98-12.5 1.5-18.7.248-6.48-2.99-11.7-9.47-11.2-2.99-3.74-8.72-2.99-10.5.248-1.99-1.99-5.05-2.68-7.41-2.24.996-4.98-.998-7.6-3.8-7.72.248-4.24-2.24-8.22-6.97-9.22-2.17-9.77.15-16.2 1.63-23.3 3.29 2.25 7.41 2.02 9.33 1.72 1.99 5.23 8.35 5.11 11.1 7.97 2.74 2.87 12.1 2.62 14.8.996-1.12-.111-2.39-.485-3.72-1.09 1.92.775 4.02 1.21 6.22 1.21 9.22 0 16.7-7.47 16.7-16.7 0-6.98-4.29-13-10.4-15.4 1.26.192 2.46.646 3.4 1.74.622-8.22-7.22-12.6-12.5-9.84-2.12-1.12-7.72-.374-8.72 1.12-1.63-.7-5.96 1.43-8.35 3.03 2.04-1.61 2.3-5.25 1.38-6.64 2.12-.872 4.49-3.74 4.73-5.86 2.99.498 7.47-1.49 9.46-.996-3.24-4.24-8.59-5.73-14.1-5.36-5.67.312-8.1 4.3-8.84 8.6-3.36 1.99-4.48 8.72-3.24 11.1-1.93-.062-3.74 1.81-4.48 2.87-1.32-.568-2.93-1.06-4.55-1.4-.773-2.12-1.73-4.38-2.92-6.82-.218-.445-.408-.905-.607-1.36-.621-2.9.664-5.53 1.35-7.86.994-3.37 1.16-5.44.285-6.54.838-.562 1.47-1.51 1.65-2.99.264-2.22.043-3.88-.625-4.93 1.14-.382 2.22-1.22 3.06-2.86.533-1.04.726-2.01.656-2.87 1.25.175 2.54-.116 3.7-1.24 1.61-1.56 2.53-3.45 2.6-5.25 1.71.972 3.89 1.31 6.61.266 2.09-.802 3.21-2.19 3.68-3.75 1.35 1.01 3.25 1.67 5.92 1.63 1.82-.025 3.15-.486 4.11-1.21 2.44 2.1 6.94 3.27 14.4 1.83 2.23 1.92 5.22 3.16 9.03 2.62 2.51 2.23 6.29 3.85 11.7 3.85 2.33 1.74 5.8 3.06 10.9 3.37 1.57.095 2.89-.107 3.95-.525 2.12 2.15 6.24 3.84 13.7 4.14 1.38.055 2.49-.088 3.37-.375 1.09.869 2.45 1.54 4.1 1.87 2.59.518 4.51.154 5.79-.713 1.74.995 4.08 1.71 7.2 1.9-1.6 3.11-2.42 6.4-.281 8.78-.008.025-.015.048-.023.072-5.12-3.26-7.55 2.26-10.3.107-2.8-2.18-6.54-2.49-7.97-.311 5.23.187 2.68 4.23 12.8 5.23-10.2.686-8.28 12-15.1 11.5 7.23 6.85 11-6.1 16.8-3.98-1.74.498 2.74 4.61-.373 10.1 4.12-.101 6.22-4.75 7.21-8.43.478.282 1.06.489 1.76.586-.248 3.99 4.98 7.1 8.84 5.36-.126 4.11 6.85 6.85 9.84 5.23 1.25 4.24 10.3 5.23 11.8 2.74-.125 3.36 9.36 6.1 13 4.48 7.23-3.24 9.97 4.73 15 3.24-5.86 3.99-5.23 9.72-.996 13.7-.252 5.73 3.49 11.2 8.97 11.5 1.5 6.73 12.2 8.47 17.7 6.72-11.2-3.74-5.73-9.47-12.2-10.5.539-1.62 1.14-3.81.924-5.85 1.38 10.4 10.3 18.5 21.1 18.5 11.8 0 21.3-9.54 21.3-21.3 0-11.8-9.55-21.3-21.3-21.3-.325 0-.648.009-.969.023 1.33-.44 2.45-1.05 3.08-1.68.996 2.24 4.48 2.24 7.97.998 1.5 2.24 5.23 1.99 6.23 7.47 3.24-5.23.25-12.2-4.24-14.9-1.49-3.99-4.67-4.79-7.97-3.74-1.25-1.12-6.23-1.93-8.72.248-.608-1.06-2.01-.87-3.65-.252 3.04-1.72 5.2-4.26 3.9-7.97 6.73.748 6.48-7.72 14.5-5.48-4.49-5.23-13.5-4.98-17.9-1.49-5.23-1.74-10.7 2.74-9.47 8.72-3.99-1.74-8.47 1.49-8.22 5.98-2.49-.748-5.98.499-7.72 3.99-3.24-3.49-6.73-3.99-9.97-3.49-3.74-3.99-7.23-4.98-11.5-2.99-1.24-1.49-4.73-1.99-7.22-.746-.996-2.74-5.98-5.98-9.47-4.73-.748-7.97 1.63-10.8 3.74-13 5.48-5.73 4.21-7.33 8.47-13 8.37-11 11.6-26.3 10.3-40.2 5.03-3.8 11.7-5.4 16.5-2.34 1.01 4.05.121 9.64-5.3 11.3 3.36 2.12 8.35.126 11.1-4.48-4.11 9.09-1.37 17.3 5.11 18.9-3.11-6.35 3.86-9.34 1.62-13.5 4.11 1.74 7.72 7.35 7.6 10.8 4.86-5.43-2.38-12.5-2.46-17.9 5.64.426 11.4-.241 15.3-2.98 8.97-6.23 13.2-9.47 17.2-8.72 2.99 4.49 6.6 6.6 11.1 6.98 1.37 1.5 6.23 2.74 8.97 2.37 3.99.997 8.85-.248 12.7-4.48 5.98.872 11.6-3.61 13.7-10.3 6.35-.748 6.73-7.85 2.74-12.6-3.3-.66-1.46-10.5-10.3-11.1-.779-8.81-8.17-15.7-17.2-15.7-9.54 0-17.3 7.73-17.3 17.3 0 1.4.183 2.75.496 4.05-.522-1.94-.757-4.09-.422-6.54-2.99 3.24-5.48 7.72-6.97 11-4.73-3.24-16.4 1.5-21.9 2.74-5.48 1.25-23.9-1.74-28.2-6.23-4.23-4.48-12.5-7.22-20.2-9.47-6.58-1.91-9.13-7.1-12.9-12.7 2.96.599 5.65 1.37 7.97 1.04.891.532 1.86 1.01 2.93 1.4 11.5 4.24 12.6 14.4 21.9 12-8.72-2.37-8.1-12.5-17.2-14.9-1.14-.311-2.19-.78-3.19-1.36 4.25-5.44 10.8-7.32 15.9-5.86 6.29 1.8 10.7 1.42 14.2-.607 7.38.908 14 5.4 18.7 12.1.661.944 1.62 1.78 2.76 2.49-3.79 1.77-4.96 7.77-9.49 7.98 5.13 2.74 9.25.704 12.5-2.49-1.33 3.85-.448 8.12 4.15 9.71-2.84-3.91 1.68-6.34 3.61-9.19 1.45 2.97 5.45 4.56 3.74 8.33 5.25-1.19 6.27-10.7 1.96-13.9 2-2.09 2.33-5.33.812-7.58-1.23-2.7-3.73-5.24-6.93-6.12 1.72-1.53 3.5-2.58 5.19-3.47 2.43.986 4.62 2.01 6.51 3.09.138.079.289.149.43.227.044.221.068.411.119.643.874 3.99 2.49 10.5-.248 16.9 5.15-3.75 4.88-10.2 4.97-15.5 7.44 2.49 16.8 2.8 25.3.422 10.6-2.99 31.1-5.73 30.1 7.47 5.56-6.6-1.52-13.7-15.7-14.9.255-6.48-6.68-12.3-11.7-8.47 4.61-.622 8.59 7.97-.502 11.5 1.77-6.48-4.68-12.3-11.4-9.47 4.29 1.25 8.64 8.45-.971 11.2-1.85.531-3.95.688-6.17.543-.306-7.88 9.44-14.9 2.67-24.1 2.2-.168 3.01-2.09-.561-3.85.002-.015.004-.031.006-.045 3.53 1.13 6.04-1.5.859-3.76.001-.003.001-.005.002-.008 2.91 1.22 5.38-.125 3.92-1.9 6.49-.091 18.9-3.76 24-7.51 8.72-6.48 28.8.995 32.4-7.72-13.6 4.36-19.7-6.73-34.9 2.49-3.44 2.09-7 1.47-11.1 1.85 2.92-1.32 5.37-3.65 8.06-6.83 5.48-6.48 18.1-2.87 19.7-13-9.34 7.1-20.4-2.24-25.7 5.73-1.3 1.98-3.28 3-5.52 4.64 2.64-12.9 8.1-12.7 7.51-21.3-.997-14.5 13.8-15.7 10.2-24.7zm-129 22.3c4.41 3.45 8.26 7.04 12.5 9.07 2.78 1.34 5.64 3.28 8.67 5-2.47.695-4.73 1.03-6.86 1.16-4.54-5.49-10-10.6-15.4-14.3.329-.343.701-.657 1.12-.939zm-32.9 1.25c5.55-.101 12.4 3.76 20.1 11.5-7.74-5.97-13.4-4.9-19.9-8.55-1.39-.776-2.93-1.44-4.53-1.97 1.34-.634 2.78-.972 4.32-1zm29.9 3.39c1.23 1.07 2.51 2.13 4 3.06 3.9 2.46 4.54 5.53 6.38 7.3-3.37-.352-6.44-.886-9.5-.762-.98-3.37-1.49-6.79-.877-9.6zm-21.3 5.9c5.21 1.61 8.86 5.09 11.3 7.94-.224.178-.449.371-.676.562-4.22-2.07-9.78-4.59-15.4-6.42 1.03-.776 2.56-1.48 4.72-2.09zm-6.39 4.53c4.12 1.6 8.48 3.95 12.7 7.22-2.05.232-3.75 1.16-4.77 2.32-4.23-2.91-8.44-6.47-7.92-9.54zm138 19.3c.565.023 1.12.027 1.64.002-.58.234-1.17.502-1.77.826.074-.259.118-.535.127-.828zm-44.4 17.2c.979 2.24 1.68 5.85.752 8.03 2.14-1.28 5.09-4.3 6.6-6.79 1.71.572 3.46 1.32 5.23 2.25.933 2.19.369 4.86-2.36 6.4 2.58 0 6.73-.004 9.66-2.16.598.259 1.2.459 1.8.629-2.5 2.57-1.17 6.72-7.73 9.26-.45.174-.89.365-1.32.564-7.5-3.29-19.2-7.61-25.8-8.43.056-.119.112-.23.168-.35 3.02-6.41 7.58-9.24 13-9.4zm-71.4 10.2c3.46 1.38 7.55 2.62 12.7 2.71-2.22 2.12-5.35 2.56-8.74 2.94-1.5-1.79-3.06-3.31-4.8-4.24.26-.441.568-.922.883-1.4zm103 1.71c-1.36 3.79-1.65 9.93.227 14-2.11-.329-4.26-.894-6.37-1.66.196-1.43.56-2.67 1.28-3.6 1.74-2.24 3.98-5.73 4.86-8.72zm-41.5 3.41c7.04 1.82 13.3 3.59 18.6 5.44-1.68 1.28-3.07 2.76-4.11 4.33-3.68-1.62-5.8-5.49-9.14-5.7-1.95-.122-3.58-2.1-5.37-4.07zm-63.9 1.34c.083.055.157.119.238.176-.093.024-.186.049-.279.074.016-.084.024-.166.041-.25zm94.2 1.54c-.32.918-.518 2.02-.494 3.48-.315-.178-.63-.356-.936-.541-.358-.217-.834-.475-1.36-.748 1.11-.633 2.07-1.32 2.79-2.19zm-67.6 1.2c-4.91.982-3.07 7.99-10.4 8.68-2.06-2.08-3.88-4.56-5.63-7.01 3.68.356 8.22.33 16-1.67zm-23.4.9c.277.008.538.031.807.047 2.21 2.75 3.97 6.04 6.33 8.98-1.19.612-1.93 1.36-3.79 2.06-1.8-2.47-3.93-4.96-6.87-7.21-.104-1.23-.122-2.47-.049-3.72 1.31-.143 2.48-.184 3.58-.152zm128 35.2c.258 2.75.209 5.52 2.73 7.25-2.95 0-6.67 1.15-8.06 5.02.339-1.67.005-2.98-.477-3.9 2.7-2.12 4.75-5.02 5.81-8.36zm-31.4 3.43c1.08 1.86 2.49 3.5 4.16 4.84-1.27-.486-2.51-.824-3.55-.898 0-.985-.185-2.94-.609-3.94zm9.15 7.61c1.21.43 2.47.737 3.78.889-.562.438-1.07.948-1.48 1.55-.467-.827-1.3-1.66-2.3-2.44zm-194 14c.001.002.001.004.002.006-.001 0-.003-.002-.004-.002.001-.001.001-.003.002-.004zm151 91.5c1.07 1.07 2.61 1.53 4.25 1.59-2.35.608-4.55 1.61-6.52 2.93 1.06-1.3 1.85-2.86 2.27-4.52zm-5.55 7.24c-3.81 3.85-6.17 9.15-6.17 15 0 .83.054 1.65.146 2.45-.255-1.59-1.06-3.05-2.87-4.01 2.74-2.99 6.23-8.97 4.98-12.5 1.39 0 2.71-.359 3.92-.984z" fill="#fff" stroke-width="1.26" transform="matrix(1.45 0 0 1.45 -48 146)"/><path d="m278 628c11.4 4.15 16.2-5.24 10.1-11.2-1.62 1.98-7.57 9.2-10.1 11.2z" stroke-width="1.83"/></g></g></svg>