<svg height="480.7" viewBox="0 0 640.701 480.701" width="640.7" xmlns="http://www.w3.org/2000/svg"><clipPath id="a"><rect height="480" rx="45" width="640" x=".35" y=".35"/></clipPath><g clip-path="url(#a)" transform="matrix(.93 0 0 .93 22.52 17.02)"><g stroke-width=".97" transform="scale(.89 1)"><path d="m179.98 0h359.97v480h-359.97z" fill="#fff"/><path d="m0 0h179.98v480h-179.98zm540.02 0h179.98v480h-179.88zm-306.09 231.94-14.11 4.5 65.09 53.91c4.97 13.78-1.69 17.81-5.96 25.13l70.56-8.44-1.69 67.03 14.71-.38-3.28-66.56 70.76 7.97c-4.37-8.72-8.25-13.31-4.27-27.19l64.99-51.09-11.33-3.94c-9.34-6.75 3.98-32.53 5.96-48.84 0 0-37.86 12.28-40.35 5.81l-9.73-17.54-34.48 35.82c-3.78.84-5.37-.56-6.26-3.56l15.9-74.81-25.24 13.41c-2.09.94-4.17.19-5.57-2.16l-24.35-45.95-25.04 47.72c-1.89 1.69-3.78 1.88-5.37.75l-24.05-12.75 14.51 74.16c-1.19 3-3.98 3.75-7.16 2.16l-33.09-35.35c-4.27 6.56-7.16 17.16-12.92 19.59-5.66 2.25-24.84-4.5-37.66-7.13 4.37 14.91 18.09 39.66 9.44 47.81z" fill="#f00"/></g></g></svg>