<svg height="480.7" viewBox="0 0 640.701 480.701" width="640.7" xmlns="http://www.w3.org/2000/svg"><clipPath id="a"><rect height="480" rx="45" width="640" x=".35" y=".35"/></clipPath><clipPath id="b"><path d="m-85.3 0h682.6v512h-682.6z"/></clipPath><g clip-path="url(#a)" transform="matrix(.93 0 0 .93 22.52 17.02)"><g clip-path="url(#b)" transform="matrix(.94 0 0 .94 80.06 0)"><g stroke-width="1pt"><path d="m-256 0h1024v512h-1024z" fill="#012169"/><path d="m-256 0v57.2l909.5 454.8h114.5v-57.2l-909.5-454.8zm1024 0v57.2l-909.5 454.8h-114.5v-57.2l909.5-454.8z" fill="#fff"/><path d="m170.7 0v512h170.6v-512zm-426.7 170.7v170.6h1024v-170.6z" fill="#fff"/><path d="m-256 204.8v102.4h1024v-102.4zm460.8-204.8v512h102.4v-512zm-460.8 512 341.3-170.7h76.4l-341.4 170.7zm0-512 341.3 170.7h-76.3l-265-132.5zm606.4 170.7 341.3-170.7h76.3l-341.3 170.7zm417.6 341.3-341.3-170.7h76.3l265 132.5z" fill="#c8102e"/></g></g></g></svg>