<svg height="480.7" viewBox="0 0 640.701 480.701" width="640.7" xmlns="http://www.w3.org/2000/svg"><clipPath id="a"><rect height="480" rx="45" width="640" x=".35" y=".35"/></clipPath><g clip-path="url(#a)" transform="matrix(.93 0 0 .93 22.52 17.02)"><g fill-rule="evenodd" transform="scale(.89 1)"><g stroke-width=".83pt"><path d="m0 0h720v36.94h-720zm0 73.88h720v36.94h-720zm0 73.78h720v37.03h-720zm0 73.88h720v36.94h-720zm0 73.88h720v36.94h-720zm0 73.77h720v36.94h-720zm0 73.88h720v36.93h-720z" fill="#bd3d44"/><path d="m0 36.94h720v36.94h-720zm0 73.88h720v36.84h-720zm0 73.78h720v36.94h-720zm0 73.88h720v36.94h-720zm0 73.88h720v36.94h-720zm0 73.77h720v36.94h-720z" fill="#fff"/></g><g stroke-width=".94"><path d="m0 0h365.75v259.16h-365.75z" fill="#192f5d"/><path d="m30.46 11.09 3.38 10.25h10.72l-8.65 6.3 3.29 10.34-8.74-6.39-8.65 6.3 3.29-10.25-8.74-6.3h10.9zm61.01 0 3.29 10.25h10.81l-8.74 6.3 3.29 10.34-8.65-6.39-8.74 6.3 3.29-10.25-8.65-6.3h10.72zm60.91 0 3.38 10.25h10.62l-8.65 6.3 3.29 10.34-8.74-6.39-8.65 6.3 3.29-10.25-8.74-6.3h10.81zm61.01 0 3.29 10.25h10.81l-8.74 6.3 3.38 10.34-8.74-6.39-8.74 6.3 3.38-10.25-8.74-6.3h10.72zm60.91 0 3.38 10.25h10.72l-8.65 6.3 3.29 10.34-8.74-6.39-8.65 6.3 3.29-10.25-8.65-6.3h10.72zm61.01 0 3.29 10.25h10.81l-8.74 6.3 3.38 10.34-8.74-6.39-8.74 6.3 3.38-10.25-8.74-6.3h10.81zm-274.29 25.94 3.29 10.25h10.81l-8.74 6.3 3.2 10.25-8.46-6.3-8.74 6.3 3.1-10.25-8.46-6.3h10.72zm60.91 0 3.38 10.25h10.72l-8.74 6.3 3.38 10.25-8.74-6.3-8.74 6.3 3.38-10.25-8.74-6.3h10.81zm61.01 0 3.29 10.25h10.81l-8.74 6.3 3.29 10.25-8.65-6.3-8.74 6.3 3.29-10.25-8.65-6.3h10.72zm60.91 0 3.38 10.25h10.72l-8.74 6.3 3.38 10.25-8.74-6.3-8.65 6.3 3.29-10.25-8.74-6.3h10.9zm61.01 0 3.29 10.25h10.81l-8.74 6.3 3.29 10.25-8.65-6.3-8.74 6.3 3.29-10.25-8.65-6.3h10.72zm-274.39 25.85 3.38 10.43h10.72l-8.65 6.3 3.29 10.25-8.74-6.39-8.65 6.39 3.29-10.34-8.74-6.3h10.9zm61.01 0 3.29 10.34h10.81l-8.74 6.3 3.29 10.25-8.65-6.39-8.74 6.39 3.29-10.34-8.65-6.3h10.72zm60.91 0 3.38 10.34h10.62l-8.65 6.3 3.29 10.25-8.74-6.39-8.65 6.39 3.29-10.34-8.74-6.3h10.81zm61.01 0 3.29 10.34h10.81l-8.74 6.3 3.38 10.25-8.74-6.39-8.74 6.39 3.38-10.34-8.74-6.3h10.72zm60.91 0 3.38 10.34h10.72l-8.65 6.3 3.29 10.25-8.74-6.39-8.65 6.39 3.29-10.34-8.65-6.3h10.72zm61.01 0 3.29 10.34h10.81l-8.74 6.3 3.38 10.25-8.74-6.39-8.74 6.39 3.38-10.34-8.74-6.3h10.81zm-274.29 25.94 3.29 10.25h10.81l-8.74 6.3 3.29 10.34-8.65-6.39-8.74 6.3 3.29-10.25-8.65-6.3h10.72zm60.91 0 3.38 10.25h10.72l-8.74 6.3 3.38 10.34-8.74-6.39-8.74 6.3 3.38-10.25-8.74-6.3h10.81zm61.01 0 3.29 10.25h10.81l-8.74 6.3 3.29 10.34-8.65-6.39-8.74 6.3 3.29-10.25-8.65-6.3h10.72zm60.91 0 3.38 10.25h10.72l-8.65 6.3 3.29 10.34-8.74-6.39-8.65 6.3 3.29-10.25-8.74-6.3h10.9zm61.01 0 3.29 10.25h10.81l-8.74 6.3 3.29 10.34-8.65-6.39-8.74 6.3 3.29-10.25-8.65-6.3h10.72zm-274.39 25.94 3.38 10.25h10.72l-8.65 6.3 3.29 10.34-8.74-6.39-8.65 6.3 3.29-10.25-8.74-6.3h10.9zm61.01 0 3.29 10.25h10.81l-8.74 6.3 3.29 10.25-8.65-6.3-8.74 6.3 3.29-10.25-8.65-6.3h10.72zm60.91 0 3.38 10.25h10.62l-8.65 6.3 3.29 10.34-8.74-6.39-8.65 6.3 3.29-10.25-8.74-6.3h10.81zm61.01 0 3.29 10.25h10.81l-8.74 6.3 3.38 10.34-8.74-6.39-8.74 6.3 3.38-10.25-8.74-6.3h10.72zm60.91 0 3.38 10.25h10.72l-8.65 6.3 3.29 10.34-8.74-6.39-8.65 6.3 3.29-10.25-8.65-6.3h10.72zm61.01 0 3.29 10.25h10.81l-8.74 6.3 3.38 10.34-8.74-6.39-8.74 6.3 3.38-10.25-8.74-6.3h10.81zm-274.29 25.94 3.29 10.25h10.81l-8.74 6.3 3.29 10.25-8.65-6.39-8.74 6.39 3.29-10.34-8.65-6.3h10.72zm60.91 0 3.38 10.25h10.72l-8.74 6.3 3.38 10.25-8.74-6.39-8.74 6.39 3.38-10.34-8.74-6.3h10.81zm61.01 0 3.29 10.25h10.81l-8.74 6.3 3.29 10.25-8.65-6.39-8.74 6.39 3.29-10.34-8.65-6.3h10.72zm60.91 0 3.38 10.25h10.72l-8.65 6.3 3.29 10.25-8.74-6.39-8.65 6.39 3.29-10.34-8.74-6.3h10.9zm61.01 0 3.29 10.25h10.81l-8.74 6.3 3.29 10.25-8.65-6.39-8.74 6.39 3.29-10.34-8.65-6.3h10.72zm-274.39 25.85 3.38 10.34h10.72l-8.65 6.3 3.29 10.15-8.74-6.3-8.65 6.3 3.29-10.25-8.74-6.3h10.9zm61.01 0 3.29 10.34h10.81l-8.74 6.3 3.38 10.15-8.74-6.3-8.74 6.3 3.38-10.25-8.74-6.3h10.72zm60.91 0 3.38 10.34h10.62l-8.65 6.3 3.29 10.15-8.74-6.3-8.65 6.3 3.29-10.25-8.74-6.3h10.81zm61.01 0 3.29 10.34h10.81l-8.74 6.3 3.38 10.15-8.74-6.3-8.74 6.3 3.38-10.25-8.74-6.3h10.72zm60.91 0 3.38 10.34h10.72l-8.65 6.3 3.29 10.15-8.74-6.3-8.65 6.3 3.29-10.25-8.65-6.3h10.72zm61.01 0 3.29 10.34h10.81l-8.74 6.3 3.38 10.15-8.74-6.3-8.74 6.3 3.38-10.25-8.74-6.3h10.81zm-274.29 25.94 3.29 10.25h10.81l-8.74 6.3 3.29 10.34-8.65-6.39-8.74 6.3 3.29-10.25-8.65-6.3h10.72zm60.91 0 3.38 10.25h10.72l-8.74 6.3 3.38 10.34-8.74-6.39-8.74 6.3 3.38-10.25-8.74-6.3h10.81zm61.01 0 3.29 10.25h10.81l-8.74 6.3 3.29 10.34-8.65-6.39-8.74 6.3 3.29-10.25-8.65-6.3h10.72zm60.91 0 3.38 10.25h10.72l-8.65 6.3 3.29 10.34-8.74-6.39-8.65 6.3 3.29-10.25-8.74-6.3h10.9zm61.01 0 3.29 10.25h10.81l-8.74 6.3 3.29 10.34-8.65-6.39-8.74 6.3 3.29-10.25-8.65-6.3h10.72zm-274.39 25.94 3.38 10.25h10.72l-8.65 6.3 3.29 10.25-8.74-6.3-8.65 6.3 3.29-10.34-8.74-6.3h10.9zm61.01 0 3.29 10.25h10.81l-8.74 6.3 3.38 10.25-8.74-6.3-8.74 6.3 3.38-10.34-8.74-6.3h10.72zm60.91 0 3.38 10.25h10.62l-8.46 6.3 3.29 10.25-8.74-6.3-8.65 6.3 3.29-10.34-8.74-6.3h10.81zm61.01 0 3.29 10.25h10.81l-8.74 6.3 3.38 10.25-8.74-6.3-8.74 6.3 3.38-10.34-8.74-6.3h10.72zm60.91 0 3.38 10.25h10.72l-8.65 6.3 3.29 10.25-8.74-6.3-8.65 6.3 3.29-10.34-8.65-6.3h10.72zm61.01 0 3.29 10.25h10.81l-8.74 6.3 3.38 10.25-8.74-6.3-8.74 6.3 3.38-10.34-8.74-6.3h10.81z" fill="#fff"/></g></g></g></svg>