<svg height="479" width="640" xmlns="http://www.w3.org/2000/svg" xmlns:xlink="http://www.w3.org/1999/xlink"><defs><path id="a" d="m.01 0h-.02l.01-.03z" fill="#fff" stroke-width=".06"/><g id="b"><use height="100%" transform="matrix(-.81 -.59 .59 -.81 0 0)" width="100%" xlink:href="#a"/><use height="100%" transform="matrix(.31 -.95 .95 .31 0 0)" width="100%" xlink:href="#a"/><use height="100%" width="100%" xlink:href="#a"/><use height="100%" transform="matrix(.31 .95 -.95 .31 0 0)" width="100%" xlink:href="#a"/><use height="100%" transform="matrix(-.81 .59 -.59 -.81 0 0)" width="100%" xlink:href="#a"/></g><g id="c"><use height="100%" width="100%" x="-.25" xlink:href="#b"/><use height="100%" width="100%" x="-.13" xlink:href="#b"/><use height="100%" width="100%" xlink:href="#b"/><use height="100%" width="100%" x=".13" xlink:href="#b"/><use height="100%" width="100%" x=".25" xlink:href="#b"/></g><g id="d"><use height="100%" width="100%" x="-.06" xlink:href="#c"/><use height="100%" width="100%" x=".32" xlink:href="#b"/></g><g id="e"><use height="100%" width="100%" xlink:href="#d"/><use height="100%" width="100%" xlink:href="#c" y=".05"/><use height="100%" width="100%" xlink:href="#d" y=".11"/><use height="100%" width="100%" xlink:href="#c" y=".16"/></g><path id="f" d="m0 0h1300v50h-1300z" fill="#b22234"/><clipPath id="g"><path d="m0 30h60v-30z"/></clipPath><clipPath id="h"><path d="m30 15 30 15v-15h-60v15h30z"/></clipPath><clipPath id="i"><path d="m30 15 30 15v-15h-60v15h30z"/></clipPath><clipPath id="j"><rect height="480" rx="45" width="640" x="167.5" y="85"/></clipPath></defs><g clip-path="url(#j)" transform="matrix(.93 0 0 .93 -133.22 -62.48)"><path d="m167.15 84.65h640.701v480.701h-640.701z" fill="#fff" stroke-width=".606"/><g transform="matrix(.49 0 0 .74 167.15 84.65)"><use height="100%" width="100%" xlink:href="#f"/><use height="100%" width="100%" xlink:href="#f" y="100"/><use height="100%" width="100%" xlink:href="#f" y="200"/><use height="100%" width="100%" xlink:href="#f" y="300"/><use height="100%" width="100%" xlink:href="#f" y="400"/><use height="100%" width="100%" xlink:href="#f" y="500"/><use height="100%" width="100%" xlink:href="#f" y="600"/></g><path d="m167.15 84.65h324.622v258.839h-324.622z" fill="#3c3b6e" stroke-width=".697"/><g transform="matrix(427.13 0 0 480.7 329.46 214.07)"><use xlink:href="#e" y="-.22"/><use height="100%" width="100%" xlink:href="#e"/><use height="100%" width="100%" xlink:href="#d" y=".22"/></g><svg height="650" version="1.1" viewBox="0 0 60 30" width="1300"><g clip-path="url(#g)" transform="scale(.75 1)"><path d="m0-9.07v39.07h60v-39.07z" fill="#00247d" stroke-width="1.14"/><path d="m.01.03 62.39 29.94m0-29.95-62.39 29.95" stroke="#fff" stroke-width="6.11"/><path d="m30 0v22.54 1.86 5.6m-30-15h51.27 8.73" stroke="#fff" stroke-width="10"/><g stroke="#cf142b"><path clip-path="url(#h)" d="m0 30 30.48-15.17 16.09 8.46 13.43 6.71" fill="none" stroke-width="4" transform="matrix(1 0 0 .99 0 .16)"/><path d="m30 0v30m-30-15h60" stroke-width="6"/><path clip-path="url(#i)" d="m0 30 30.48-15.17 16.09 8.46 13.43 6.71" fill="none" stroke-width="4" transform="matrix(1 0 0 -.99 0 29.84)"/></g></g></svg><path d="m493.264 228.303-21.301 34.189c-2.417 3.718-6.751 3.369-11.078 1.295l-15.425-6.872 11.497 52.512c2.417 9.591-5.339 9.591-9.167 5.443l-26.915-25.926-4.371 13.164c-.506 1.73-2.716 3.546-6.045 3.111l-34.034-6.158 8.943 27.962c1.911 6.222 3.403 8.801-1.93 10.44l-12.134 4.906 58.588 40.949c2.317 1.547 3.491 4.336 2.667 6.856l-5.127 14.481c20.171-1.999 38.249-5.013 58.432-6.867 1.78-.161 4.765 2.364 4.752 4.143l-2.673 53.044h9.811l-1.542-52.931c-.013-1.779 2.692-4.422 4.478-4.256 20.183 1.854 38.262 4.863 58.432 6.867l-5.127-14.481c-.824-2.525.343-5.309 2.667-6.856l58.588-40.949-12.134-4.906c-5.339-1.639-3.847-4.218-1.93-10.44l8.943-27.962-34.034 6.158c-3.322.43-5.539-1.381-6.045-3.111l-4.371-13.164-26.915 25.926c-3.828 4.148-11.584 4.148-9.167-5.443l11.497-52.512-15.425 6.872c-4.334 2.074-8.662 2.418-11.078-1.295" fill="#f00" stroke-width=".579"/></g></svg>