<svg height="480" width="640" xmlns="http://www.w3.org/2000/svg" xmlns:xlink="http://www.w3.org/1999/xlink"><defs><path id="a" d="m-.01 0 .01-.03.01.03z" fill="#fff" stroke-width=".06"/><g id="b"><use height="100%" transform="matrix(-.81 -.59 .59 -.81 0 0)" width="100%" xlink:href="#a"/><use height="100%" transform="matrix(.31 -.95 .95 .31 0 0)" width="100%" xlink:href="#a"/><use height="100%" width="100%" xlink:href="#a"/><use height="100%" transform="matrix(.31 .95 -.95 .31 0 0)" width="100%" xlink:href="#a"/><use height="100%" transform="matrix(-.81 .59 -.59 -.81 0 0)" width="100%" xlink:href="#a"/></g><g id="c"><use height="100%" width="100%" x="-.25" xlink:href="#b"/><use height="100%" width="100%" x="-.13" xlink:href="#b"/><use height="100%" width="100%" xlink:href="#b"/><use height="100%" width="100%" x=".13" xlink:href="#b"/><use height="100%" width="100%" x=".25" xlink:href="#b"/></g><g id="d"><use height="100%" width="100%" x="-.06" xlink:href="#c"/><use height="100%" width="100%" x=".32" xlink:href="#b"/></g><g id="e"><use height="100%" width="100%" xlink:href="#d"/><use height="100%" width="100%" xlink:href="#c" y=".05"/><use height="100%" width="100%" xlink:href="#d" y=".11"/><use height="100%" width="100%" xlink:href="#c" y=".16"/></g><path id="f" d="m0 0h1300v50h-1300z" fill="#b22234"/><clipPath id="g"><path d="m30 15 30 15v-15h-60v15h30z"/></clipPath><clipPath id="h"><path d="m0 30h60v-30z"/></clipPath><clipPath id="i"><rect height="480" rx="45" width="640" x="330" y="85"/></clipPath></defs><g clip-path="url(#i)" transform="matrix(.93 0 0 .93 -284.3 -61.98)"><path d="m329.65 84.65h640.701v480.701h-640.701z" fill="#fff" stroke-width=".604"/><use height="100%" transform="matrix(.49 0 0 .74 329.65 84.65)" width="100%" xlink:href="#f"/><use height="100%" transform="matrix(.49 0 0 .74 329.65 84.65)" width="100%" xlink:href="#f" y="100"/><use height="100%" transform="matrix(.49 0 0 .74 329.65 84.65)" width="100%" xlink:href="#f" y="200"/><use height="100%" transform="matrix(.49 0 0 .74 329.65 84.65)" width="100%" xlink:href="#f" y="300"/><use height="100%" transform="matrix(.49 0 0 .74 329.65 84.65)" width="100%" xlink:href="#f" y="400"/><use height="100%" transform="matrix(.49 0 0 .74 329.65 84.65)" width="100%" xlink:href="#f" y="500"/><use height="100%" transform="matrix(.49 0 0 .74 329.65 84.65)" width="100%" xlink:href="#f" y="600"/><path d="m329.65 84.65h243.466v258.839h-243.466z" fill="#3c3b6e" stroke-width=".604"/><g transform="matrix(320.35 0 0 480.7 451.38 214.07)"><use height="100%" width="100%" xlink:href="#e" y="-.22"/><use height="100%" width="100%" xlink:href="#e"/><use height="100%" width="100%" xlink:href="#d" y=".22"/></g><svg height="650" version="1.1" viewBox="0 0 60 30" width="1300"><g clip-path="url(#h)"><path d="m0 0v30h60v-30z" fill="#00247d"/><path d="m0 0 60 30m0-30-60 30" stroke="#fff" stroke-width="6"/><path clip-path="url(#g)" d="m0 30 30-15 30 15" fill="none" stroke="#cf142b" stroke-width="4"/><path d="m30 0v30m-30-15h60" stroke="#fff" stroke-width="10"/><path d="m30 0v30m-30-15h60" stroke="#cf142b" stroke-width="6"/></g></svg><path d="m649.99 121.88-34.11 63.63c-3.87 6.92-10.81 6.27-17.74 2.41l-24.7-12.79 18.41 97.73c3.87 17.85-8.55 17.85-14.68 10.13l-43.1-48.25-7 24.5c-.81 3.22-4.35 6.6-9.68 5.79l-54.5-11.46 14.32 52.04c3.06 11.58 5.45 16.38-3.09 19.43l-19.43 9.13 93.82 76.21c3.71 2.88 5.59 8.07 4.27 12.76l-8.21 26.95c32.3-3.72 61.25-9.33 93.57-12.78 2.85-.3 7.63 4.4 7.61 7.71l-4.28 98.72h15.71l-2.47-98.51c-.02-3.31 4.31-8.23 7.17-7.92 32.32 3.45 61.27 9.05 93.57 12.78l-8.21-26.95c-1.32-4.7.55-9.88 4.27-12.76l93.82-76.21-19.43-9.13c-8.55-3.05-6.16-7.85-3.09-19.43l14.32-52.04-54.5 11.46c-5.32.8-8.87-2.57-9.68-5.79l-7-24.5-43.1 48.25c-6.13 7.72-18.55 7.72-14.68-10.13l18.41-97.73-24.7 12.79c-6.94 3.86-13.87 4.5-17.74-2.41" fill="#f00"/></g></svg>