<svg height="480.7" viewBox="0 0 640.701 480.701" width="640.7" xmlns="http://www.w3.org/2000/svg"><clipPath id="a"><rect height="480" rx="45" width="640" x=".35" y=".35"/></clipPath><filter id="b" color-interpolation-filters="sRGB" height="1" width="1" x="0" y="0"><feGaussianBlur/></filter><g clip-path="url(#a)" transform="matrix(.93 0 0 .93 22.52 17.02)"><path d="m0 0h640.701v480.701h-640.701z" fill="#c60b1e" stroke-width=".971"/><path d="m0 110.161h640.701v260.38h-640.701z" fill="#ffc400" stroke-width=".971"/><g stroke="#fff" transform="matrix(.89 0 0 .97 7.32 -3.53)"><g fill="#fff"><g stroke="none" stroke-width="0"><path d="m514 258c0-2-1 0 0 0m-64-62 2-1zm2 0h1zm7-19c0-1 0 0 0 0m0 1v-1zm-6 17 3-4c-1-1-2 1-2 1l-1 1zm2-5 1-1zm0 4 1-2zm2-2-1 1zm-1-2h1zm0 3 1-1v-1zm0-3h1zm2-1v-1c-1 0-2 1 0 1m-1 2 1-1zm0 1h1zm0-4 1-1zm1 7 1 2h3v-1l1 1 1-1h2l2-5c0-1 2-2 0-2h-10l1 3-1-1v2h1-1zm1-7v-1zm0-1v-2zm2 1 1-1c2-1 0-1-1-1l-2 1zm-1-2c1 0 2-1 1-2zm0 1 1-1zm0-3 1-1z"/><path d="m462 188 2 1c1-1-1-2-2-1m4 9 1-1zm2-3c2 1 0-2 0 0m4-2v-1zm5 1c0-1 0 0 0 0m8 3h1zm1 8 1-2zm4-4v-1z"/></g><path d="m85 25c-1 7-13 8-11 17 5 4 14 5 15 14 2 4 4 16 8 6 3-6 9-9 9-17 6-9-8-7-12-12-1-3-6-5-9-8z" transform="matrix(4.99 0 0 5 -9 20)"/><path d="m475 325h1v-1zm2 7v-2zm12-20v-1zm4-3 1-1c-1-1-1 0-1 1m21-53 1-1z" stroke="none"/></g><path d="m1521 63c-102-27-73 55-72 106 35 52 60 108-2 80 40 49 88 53 71 118 24 48 102 92 52 13-28-25-74-152-44-126-7-45-63-152-11-150 63 5 15 97 59 136 18 8 45 87 45 71-17 34 33 46 27 39 13 44 105 134 47 187 42 82 139 104 214 149 92 55 134-40 162 21 34 56 135 115 183 79 37 108 186 281 230 237-36-49 149-91 82-34-33-3 33 76 14 118-54 76-91 312-105 329-53 60-9 105 36 149 39 82 102 175 126 245 42 87 171 102 218 176 30 109 11 196 29 298-7 83-7 154 23 232 5 64-27 220-15 187 46 34 16 173 70 152 76 182-24 264 177 387 31 35-45-24-16 24 10-4 20 23 29 16 8 32 4-7 45-7-26 26-29 25 19 26-19-58 87-47 13-73-10-41-25-67 14-67-109-184 84-307 20-403 59 30 213-51 125-124-40-24-69-101-52-112-17 68 80 93 136 78 61-56-12-118-70-148-39-13-96-25-29-85 28-23 114-101 31-113 114-562-1184-608-264-1152 118-208 77-200-239-216-29-50-52-15-65-41-72 4-20 70-56 95-36-43 47-126-1-121-38 33-148 71-121 61-12 28-55 136-71 74-69-26-259-7-204-132-11-1 51-85 14-120-4 13-25-44-84-19-57-4-77 12-79 5-58-47 55-106 47-117-17-21 80-102 11-103-71-49-148 141-132 107-34 0-98 33-148-3-92-97-5-277-26-215-27 43 72-83-11-66-41-56-50-188-140-113-25-42-63-135-124-92-24 19-91 12-126-6-12-12-77-19-62-37zm1731 3048h3zm-42 79-3 1zm27 90c-55 28 33 21 4 51 105 49-51-7 5 23-12-6-68 0-20 5 24 6 88 8 75 4 60 17 146 0 34-21-54-19-52-56-98-62zm45 22 1 1z" fill="#28a3ff" filter="url(#b)" transform="matrix(.15 0 0 .15 -64 -5)"/><g stroke-width=".1"><g stroke="none"><path d="m272 97 1-7c0-1 0-5 2-4l3-3v7l-2 4c1-2 0 0 0 0l-1 1-1 1-1 1z" fill="#fff"/><path d="m352 86c2-1-1-3 0-4l2-3c0-1-1-3 1-3h3l3 1c1 1 1 3 3 2v1c1 0 3 0 3 2 2 1 0 3-1 2l-5-1c-1 1-2 2-3 1-2-1-3 1-3 2-1 2-2 1-3 0z" fill="#28a3ff"/><g fill="#28a3ff" stroke-width="0"><path d="m296 65c2 0 3-1 4-3l6-3h5c3 0 7 0 9 2s4 2 7 3c0 2 3 1 4 3s4 2 5 3 1 2 3 1c1 0 5 3 2 4-4 1-8-1-12 1-2 1-2-2 0-2 1-1-1-3-3-2-2-1-1-5-3-5s-5 0-6-2l-6-1c-2-1 1-3-2-3l-6 3-4 1z"/><path d="m305 68-2-1c2 1 1-2 3-2v2z"/></g><path d="m303 140h-1l1 1zm2 0h1z" fill="#56d500"/><path d="m342 82c2 1 7 3 7 0-1-2 0-5-2-5-1-2 3-1 5-1 3 1 1 5 0 7 1 3-3 1-4 2-3-1-6 1-8-2z" fill="#fff"/></g><path d="m681 602c2-3 5-3 8-2 3 0 5 1 7 3 2 0 1 2 0 2h-8l-3-1c-1-2-3-2-4-2z" fill="#fff" transform="matrix(.53 0 0 .62 -52 -285)"/><path d="m775 604h-9c-1-1-1-5 1-5l8 1c3 0 3 3 1 4z" fill="#28a3ff" transform="matrix(.53 0 0 .62 -52 -285)"/><path d="m740 652-1-1c1-1 2 1 2 1z" fill="#56d500" transform="matrix(.53 0 0 .62 -52 -285)"/><path d="m802 480h1z" fill="#ccc" transform="matrix(.53 0 0 .62 -52 -285)"/></g></g></g></svg>