<svg height="480.7" width="640.7" xmlns="http://www.w3.org/2000/svg"><clipPath id="a"><rect height="480" rx="45" width="640" x=".35" y=".35"/></clipPath><g clip-path="url(#a)" transform="matrix(.93 0 0 .93 22.52 17.02)"><g stroke-width=".755"><path d="m0 0h640.701v480.701h-640.701z" fill="#ed2939"/><path d="m0 0h427.134v480.701h-427.134z" fill="#fff"/><path d="m0 0h213.567v480.701h-213.567z" fill="#002395"/></g><path d="m321.625 85.717-21.855 45.883c-2.477 4.991-6.927 4.519-11.369 1.739l-15.825-9.221 11.796 70.471c2.477 12.875-5.482 12.875-9.404 7.307l-27.614-34.795-4.485 17.666c-.52 2.323-2.791 4.759-6.201 4.174l-34.918-8.26 9.176 37.527c1.958 8.348 3.495 11.809-1.979 14.012l-12.451 6.586 60.112 54.952c2.378 2.075 3.581 5.816 2.734 9.197l-5.261 19.436c20.695-2.684 39.247-6.73 59.948-9.213 1.83-.216 4.891 3.173 4.876 5.56l-2.741 71.184h10.066l-1.58-71.032c-.014-2.387 2.762-5.937 4.592-5.712 20.709 2.492 39.254 6.53 59.948 9.213l-5.261-19.436c-.847-3.389.356-7.122 2.734-9.197l60.112-54.952-12.451-6.586c-5.482-2.203-3.944-5.664-1.979-14.012l9.176-37.527-34.918 8.26c-3.41.577-5.681-1.851-6.201-4.174l-4.485-17.666-27.614 34.795c-3.93 5.568-11.889 5.568-9.404-7.307l11.796-70.471-15.825 9.221c-4.449 2.78-8.884 3.245-11.369-1.739" fill="#f00" stroke-width=".68"/></g></svg>