<svg height="360.53pt" viewBox="0 0 480.526 360.526" width="480.53pt" xmlns="http://www.w3.org/2000/svg"><clipPath id="a"><rect height="360" rx="33.75" width="480" x=".26" y=".26"/></clipPath><g clip-path="url(#a)" transform="matrix(.93 0 0 .93 16.89 12.77)"><g stroke-width="1.5"><path d="m0 0h480v360h-480z" fill="#fff"/><path d="m0 0h480v125.83h-480z" fill="#f00"/><path d="m0 255.15h480v104.85h-480z" fill="#0000a0"/></g><path d="m93.312 188.976c0 23.434 5.926 46.928 17.449 67.358 20.643 37.455 59.305 64.404 101.471 71.584 9.25.891 18.66 1.502 28.061 1.502 18.34 0 36.64-2.313 53.649-9.374 31.494-11.547 58.084-34.651 74.532-63.703 11.623-20.029 17.349-43.083 17.349-66.156 0-22.082-5.246-44.194-15.597-63.713-16.099-30.624-43.569-55.13-76.274-67.208-17.009-7.06-35.309-9.373-53.649-9.373-9.4 0-18.811.611-28.061 1.502-43.568 7.351-83.101 35.882-103.393 75.079-10.441 19.118-15.527 40.779-15.527 62.501zm108.198-1.913c0-16.013 14.916-30.044 30.844-31.536 3.183-.791 6.517-1.182 9.891-1.182 15.907 0 32.586 8.663 37.351 24.115.991 2.874 1.452 5.738 1.452 8.542 0 15.503-13.985 29.163-29.092 31.536-3.224.711-6.647 1.062-10.121 1.062-16.288 0-33.817-7.831-38.863-23.995-.991-2.874-1.452-5.738-1.452-8.542zm19.121 11.867c9.45 15.222 34.988 14 42.517-2.273 8.569-15.753-5.246-35.181-22.394-34.3-17.85-.521-30.264 21.701-20.123 36.573zm-123.885-9.984c0-21.642 5.096-43.213 15.597-62.291 13.124-22.403 31.314-42.352 54.41-54.6 22.104-12.678 47.612-19.048 73.1-19.048 30.804 0 61.577 9.294 86.274 27.971 16.798 12.078 30.443 27.831 40.584 45.677 10.381 19.478 15.587 41.4 15.587 63.312 0 23.164-5.816 46.308-17.509 66.547-25.428 41.591-72.609 69.511-121.683 69.511-.901 0-1.802-.01-2.713-.03-1.732.07-3.474.11-5.206.11-48.883 0-95.765-28.351-120.932-69.762-11.553-20.47-17.519-43.964-17.519-67.388zm26.619 7.541c7.518 6.83 17.499-.701 25.368-2.974 15.217-3.325 30.964-1.572 46.361-2.103 3.844 8.222 8.569 16.103 13.475 23.624-13.295 13.83-27.47 27.13-40.064 41.831-.891.811-1.562 1.222-2.022 1.222-.631 0-.881-.761-.781-2.273h-13.825c-3.153 6.479-6.998 14-4.375 21.351 2.803 7.701 16.098 10.856 20.292 2.974 4.545-7.701 5.947-16.805 10.852-24.155 11.723-12.598 23.265-25.728 37.441-35.532 7.178.17 13.995 2.624 20.993 3.846 0 10.676.17 21.181.17 31.856-.871 12.078-2.803 23.975-6.127 35.352-1.221 5.598-3.504 12.248.701 16.975 2.182 2.804 5.586 4.076 9.05 4.076 6.247 0 12.694-4.146 12.464-10.906-3.324-15.052-8.049-29.924-7.869-45.506-.17-10.325.17-20.83.17-31.326 9.27-1.052 21.173-10.155 29.392-1.753 11.192 10.505 22.044 21.531 32.716 32.728 5.947 7.871 4.375 19.428 11.893 26.248 1.802.24 3.734.461 5.636.461 3.614 0 7.118-.801 9.41-3.786 2.182-2.303 2.973-4.917 2.973-7.661 0-5.168-2.833-10.756-4.555-15.443-6.998-.871-15.397.871-20.472-5.077-13.295-12.078-25.368-25.377-37.791-38.156 6.477-9.274 11.192-26.429 26.769-21.531 17.85-1.753 34.288 6.129 51.787 8.052 9.971-.701 13.295-15.402 5.776-21.351-7.518-6.83-17.499.701-25.368 2.974-15.397 3.325-31.314 1.572-46.891 2.273-2.272-5.778-4.725-11.377-7.348-16.975 12.774-13.48 25.718-26.949 39.193-39.908 7.518-3.846 18.2-2.103 23.265-9.624 6.297-11.026-4.545-25.898-17.149-20.83-8.219 9.103-7.518 23.274-17.319 31.676-10.672 11.026-22.044 21.702-33.236 32.377-9.27-4.196-18.891-7.871-28.521-11.196-.17-7.18-.35-14.531-.35-21.702 0-16.454.35-33.248 6.477-48.651 5.136-7.791-1.372-18.357-10.021-18.357-1.061 0-2.162.16-3.274.501-7.518.521-11.893 10.155-8.399 16.624 4.545 16.274 6.998 32.898 6.827 49.883 0 7.18-.17 14.351-.35 21.531-8.75 2.804-17.319 6.129-25.888 9.274-10.151-10.155-20.472-20.129-30.614-30.274-3.504-4.196-7.869-7.871-10.321-12.779-2.803-7-2.803-15.573-8.75-21.001-13.124-5.248-24.146 11.897-16.448 22.052 6.827 6.129 17.499 4.547 24.497 10.676 12.424 11.547 23.966 24.325 35.869 36.573-3.153 6.65-6.477 13.299-9.45 20.129-13.475-.351-27.12 0-40.414-2.273-9.27-1.222-17.85-5.949-27.29-5.248-9.27 1.923-11.543 15.573-4.545 21.181z" stroke="#000" stroke-width=".16"/></g></svg>