<svg height="481" viewBox="0 0 641 481" width="641" xmlns="http://www.w3.org/2000/svg"><clipPath id="a"><rect height="480" rx="45" width="640" x=".35" y=".35"/></clipPath><g clip-path="url(#a)" transform="matrix(.93 0 0 .93 22.5 17)"><g transform="matrix(.74 0 0 .74 11.5 -127)"><path d="m-32.8 169h897v652h-897z" fill="#f00" stroke-width="4.6"/><path d="m-32.8 169h897v326h-897z" fill="#00f" stroke-width="4.6"/><path d="m365 550-67.6-9.36c-37.2-5.13-125-17.2-196-26.9-71-9.66-129-18.1-129-19s57.8-9.36 129-19c70.7-9.66 159-21.7 196-26.9l67.6-9.36 24.8-132c13.7-73 25.3-133 26.1-133s12.4 59.5 26.1 133l24.8 132 67.6 9.36c37.2 5.13 125 17.2 196 26.9 71 9.66 129 18.1 129 19s-57.8 9.36-129 19c-70.7 9.66-159 21.7-196 26.9l-67.6 9.36-24.8 132c-13.7 73-25.3 133-26.1 133s-12.4-59.5-26.1-133z" fill="#fff" stroke-width=".46"/></g></g></svg>