<svg height="481" viewBox="0 0 641 481" width="641" xmlns="http://www.w3.org/2000/svg"><clipPath id="a"><rect height="480" rx="45" width="640" x=".35" y=".35"/></clipPath><g clip-path="url(#a)" transform="matrix(.93 0 0 .93 22.5 17)"><g stroke-width="1.63" transform="matrix(.74 0 0 .74 11.5 -127)"><path d="m-83.5 162h999v666h-999z" fill="#f00" stroke-width="90.5"/><g fill="#fff"><path d="m44.6 232h40.3v524h-40.3z"/><path d="m122 233h40.3v524h-40.3z"/><path d="m199 233h40.3v524h-40.3z"/><path d="m430 600s-11.4-21.5 57.7-101 125-96.5 211-133c27.5-11.8 52.8-10.5 52.8-10.5l14.3 1.65-8.81 9.37-8.61 4.54s-78.4 31.8-117 62.1c-36.9 29.1-72.7 65.3-95.8 114-23.3 48.8-14.9 40.8-19.8 56.2-4.95 15.4 0 5.51 0 5.51l231 .661s12.8-2.89 26.4 12.7c8.32 9.51 13.1 17.2 13.3 29.2.21 11.6-8.25 20.9-19.9 22.3 0 0-276 .779-376-.05-68-.563-61.3-44.3-52.8-54.4 9.62-11.5 57.9-10.3 57.9-10.3s-.55-190 .55-204c1.1-14.3-20.4-9-20.4-26.2 0-15.4 6.17-18.3 19.8-22.9 6.89-2.32 12.1-4.27 21.7 0 7.6 3.37 9.01 3.98 11 10.7 2 6.75 1.03.069 2.48 14.1 1.44 14 1.65 61.7 1.65 61.7z" fill-rule="evenodd"/></g></g></g></svg>