<svg height="481" viewBox="0 0 641 481" width="641" xmlns="http://www.w3.org/2000/svg"><clipPath id="a"><rect height="480" rx="45" width="640" x=".35" y=".35"/></clipPath><g clip-path="url(#a)" transform="matrix(.93 0 0 .93 22.5 17)"><g stroke-width="1.63" transform="matrix(.74 0 0 .74 11.5 -127)"><path d="m-83.5 162h999v666h-999z" fill="#f00" stroke-width="90.5"/><g stroke-width="547"><path d="m-87 159h1006v671h-1006z" fill="#fbde4a"/><path d="m-87 830v-671h670z" fill="#009543"/><path d="m919 159v671h-670z" fill="#da1a35"/></g><g transform="matrix(335 0 0 336 -87 159)"><path d="m1.02 1.24v-.473h.096v.393h.24v.08z"/><path d="m1.42 1.24v-.477h.096v.477z"/><path d="m1.61 1.24v-.477h.094l.195.319v-.319h.09v.477h-.097l-.192-.311v.311z"/></g></g></g></svg>