<svg height="480.7" width="640.7" xmlns="http://www.w3.org/2000/svg"><clipPath id="a"><rect height="480" rx="45" width="640" x=".35" y=".35"/></clipPath><g clip-path="url(#a)" transform="matrix(.93 0 0 .93 22.52 17.02)"><g transform="translate(0 -112.59)"><path d="m0 470v-470h2000l-830 470z" fill="#ff9600" transform="matrix(.32 0 0 .51 0 112.29)"/><path d="m0 940v-470h1170l830 470z" fill="#fff" transform="matrix(.32 0 0 .51 0 112.29)"/><g fill="none" stroke="#c92013"><path d="m180.44 310.02-63.07-.01-44.6-44.61.01-63.07 44.61-44.6 63.07.01 44.6 44.61-.01 63.07z" stroke-width="9.46"/><path d="m176.4 299.49-53.32-.01-37.7-37.71.01-53.32 37.71-37.7 53.32.01 37.7 37.71-.01 53.32z" stroke-width="4.21"/><g stroke-linecap="square"><path d="m113.47 204.88h72.44" stroke-width="7.06"/><path d="m177.22 205.38v63.04" stroke-width="6.96"/><path d="m137.22 205.63v47.13c0 8.75-2.25 12.88-10.5 12.88-7.75 0-10.25-6.5-10.25-11 0-6 3.38-10 13.38-10h45.38" stroke-width="7"/></g></g></g></g></svg>