<svg height="480.7" width="640.7" xmlns="http://www.w3.org/2000/svg"><clipPath id="a"><rect height="480" rx="45" width="640" x=".35" y=".35"/></clipPath><g clip-path="url(#a)" transform="matrix(.93 0 0 .93 22.52 17.02)"><path d="m0 0h640.701v480.701h-640.701z" fill="#002b7f" stroke-width="1.312"/><path d="m0 220.321h640.701v40.058h-640.701z" fill="#ffc61e" stroke-width="1.312"/><path d="m125.728 420.533-10.361-41.42-29.672 30.685 11.723-41.05-41.035 11.727 30.674-29.683-41.405-10.365 41.405-10.365-30.674-29.683 41.035 11.727-11.723-41.05 29.672 30.685 10.361-41.42 10.361 41.42 29.672-30.685-11.723 41.05 41.035-11.727-30.674 29.683 41.405 10.365-41.405 10.365 30.674 29.683-41.035-11.727 11.723 41.05-29.672-30.685z" fill="#fff" stroke-width="1.602"/></g></svg>