<svg enable-background="new" fill-rule="evenodd" height="480.7" image-rendering="optimizeQuality" shape-rendering="geometricPrecision" text-rendering="geometricPrecision" viewBox="0 0 180.82 135.659" width="640.7" xmlns="http://www.w3.org/2000/svg"><clipPath id="a"><rect height="135.47" image-rendering="optimizeQuality" rx="12.7" shape-rendering="geometricPrecision" text-rendering="geometricPrecision" width="180.62" x=".1" y=".1"/></clipPath><clipPath id="b"><path d="m-271.99-3.81h-261.48l130.74-226.45z" image-rendering="optimizeQuality" shape-rendering="geometricPrecision" text-rendering="geometricPrecision" transform="matrix(-2.91 0 1.68 -2.24 -786.22 -219.55)"/></clipPath><clipPath id="c"><path d="m-271.99-3.81h-261.48l130.74-226.45z" image-rendering="optimizeQuality" shape-rendering="geometricPrecision" text-rendering="geometricPrecision" transform="matrix(-2.91 0 1.68 -2.24 -786.22 -219.55)"/></clipPath><clipPath id="d"><path d="m-271.99-3.81h-261.48l130.74-226.45z" image-rendering="optimizeQuality" shape-rendering="geometricPrecision" text-rendering="geometricPrecision" transform="matrix(-2.91 0 1.68 -2.24 -786.22 -219.55)"/></clipPath><g clip-path="url(#a)" transform="matrix(.93 0 0 .93 6.36 4.8)"><g stroke-width=".252"><path d="m0-.01h180.82v135.665h-180.82z" fill="#ef3340"/><path d="m0-.01h120.547v135.665h-120.547z" fill="#fdda24"/><path d="m0-.01h60.273v135.665h-60.273z"/></g><g transform="matrix(.24 0 0 .27 0 56.34)"><path clip-path="url(#d)" d="m0-211h762v508h-762z" fill="#21468b"/><path clip-path="url(#c)" d="m0-211h762v338.67h-762z" fill="#fff"/><path clip-path="url(#b)" d="m0-211h762v169.33h-762z" fill="#ae1c28"/></g></g></svg>