<svg height="480.7" viewBox="0 0 640.701 480.701" width="640.7" xmlns="http://www.w3.org/2000/svg"><clipPath id="a"><rect height="480" rx="45" width="640" x=".35" y=".35"/></clipPath><g clip-path="url(#a)" stroke-width=".753" transform="matrix(.93 0 0 .93 22.52 17.02)"><path d="m320.351 0h320.35v477.518h-320.35z" fill="#377e3f"/><path d="m0 0h320.351v159.173h-320.351z" fill="#ae1c28"/><path d="m0 318.345h320.351v159.173h-320.351z" fill="#21468b"/><path d="m0 159.173h320.351v159.172h-320.351zm320.351-63.669h320.35v286.51h-320.35z" fill="#fff"/><path d="m320.351 143.255h320.35v191.007h-320.35z" fill="#b40a2d"/><path d="m217.126 336.65h193.635v144.051h-193.635z" fill="#feea28"/><path d="m341.707 352.567c-7.831-.796-14.238 8.754-14.238 16.713 0 4.775-2.848 11.142-3.559 13.53 2.848 0 6.407-4.775 4.983 1.592-1.424 2.388 1.424 9.55 2.136 7.959-1.424-6.367 1.424-11.938 4.271-16.713 1.424 2.388-.712 12.734 2.136 5.571 3.559-3.979-.712-11.938 4.983-11.938 2.848-.796 3.559-2.388.712-3.183-2.136-7.163 8.543-6.367 7.119.796 0 5.571-4.983 9.55-7.119 14.326-4.271 6.367-7.831 15.121-2.848 22.284 2.136 6.367 8.543 9.55 9.255 16.713-.712 5.571-7.831 0-9.255-3.183-5.695-10.346-11.39-22.284-21.357-27.059-2.136-1.592-5.695-3.183-1.424-3.183 1.424-1.592 7.119.796 3.559-3.183-1.424-2.388 4.983-3.183 2.848-4.775-2.136 2.388-4.271-.796-.712-1.592-.712-.796-3.559-2.388-2.136-4.775-1.424-3.979 4.271-3.979 3.559-8.754 0 1.592-5.695 3.183-2.848 0 2.136-2.388 2.136-11.938-2.136-7.959-4.983 1.592-10.678-.796-14.238 2.388-2.136 3.979-9.255.796-7.119 6.367-1.424 3.183-2.136 6.367 2.136 5.571 2.848 3.979-1.424 10.346-4.983 9.55-1.424-4.775-9.255-4.775-8.543.796-.712 3.183-4.983-4.775-5.695-6.367-2.136-4.775 2.136-7.163 2.848-11.142-1.424-.796-3.559-3.183-5.695-3.183-.712 1.592-1.424 4.775-1.424.796.712-3.183-3.559-1.592-5.695-2.388-2.848 0 1.424 7.959-2.136 3.979-4.271-2.388-5.695 8.754 0 7.163 0 2.388-4.983 0-4.271 3.979 0 3.979 4.271 3.183 5.695 1.592 4.271 4.775-7.119 3.979-1.424 6.367 2.848-.796 4.271.796 2.136 3.183-2.848 0-4.271.796-.712 2.388 2.848 3.183-5.695-1.592-2.136 3.183.712 4.775 9.966-2.388 4.983 3.979 2.136.796 7.831-3.979 5.695 1.592 0 4.775-7.119 7.959-6.407 1.592-4.983 3.979.712 11.938 6.407 8.754 2.848-.796 6.407-7.163 8.543-5.571 2.848 4.775-4.271 7.163-6.407 9.55-2.848 2.388-8.543 3.979-7.831-1.592-3.559-1.592-7.831 1.592-5.695 5.571-2.848-1.592-5.695 0-4.271 4.775 0 4.775 6.407-3.183 4.271 1.592-6.407 0 0 9.55 2.848 5.571-.712-1.592 1.424-7.163 1.424-1.592 1.424 4.775 8.543.796 5.695-3.979 2.848-1.592 2.136 8.754 3.559 2.388.712-3.183 3.559-6.367 2.848-.796.712 4.775 2.848-6.367 4.271-4.775-.712 2.388-.712 7.163 1.424 2.388.712-2.388 2.848-10.346 2.848-3.979s2.136-8.754 2.136-2.388c0 6.367 2.136-1.592 2.848-3.183 0 2.388.712 7.163 1.424 2.388.712-2.388 1.424-10.346 2.136-3.979 1.424 3.183 2.848-5.571 2.848-7.163 4.983 2.388 10.678 2.388 14.238 7.163-2.848.796-9.255 2.388-11.39 6.367-2.848 5.571-7.831 4.775-12.102 4.775-6.407 1.592-7.831 9.55-13.526 11.142-2.136 0-4.271-2.388-3.559 2.388 2.136 5.571 9.255-1.592 11.39.796 2.136 1.592 5.695 4.775 3.559 7.959-2.136 2.388-8.543 4.775-7.831-.796-3.559-1.592-7.831 3.979-3.559 6.367-2.136.796-7.119-1.592-5.695 3.979 0 4.775 2.848 1.592 4.983 2.388-2.136 1.592-3.559 5.571 1.424 6.367 2.136.796 2.136-7.163 3.559-2.388 0 5.571 7.831 0 4.983-3.979 1.424-2.388 2.136 7.163 2.848 1.592 0-3.183 1.424-7.163.712-1.592.712 7.163 2.136-9.55 2.848-1.592.712 7.959 2.848-11.938 2.848-2.388 1.424 6.367 2.136-3.979 2.848-6.367 2.136-3.183 3.559 2.388 1.424 3.979 0 3.979 4.271-3.183 4.983-4.775.712-5.571-9.255-9.55-4.271-14.326 4.271-2.388 8.543-.796 12.102-.796.712 3.979 4.983 10.346 1.424 12.734-2.136 0-3.559-4.775-3.559-.796 0 6.367 8.543 7.959 10.678 2.388 3.559 2.388 7.119 0 9.966-1.592 2.848 3.979 0 11.938-4.271 11.938-1.424-3.979-3.559-5.571-5.695-1.592-2.848 1.592-2.136 4.775.712 4.775-.712 2.388-7.119 0-4.271 4.775.712 5.571 3.559 2.388 5.695 0-3.559 3.979 3.559 8.754 5.695 4.775-1.424-3.183 1.424-4.775 1.424-.796.712 3.979 7.831 0 4.983-3.979 3.559 0 .712-9.55 3.559-4.775 0 2.388 2.136 4.775.712.796.712-3.183 2.136-3.979 2.848 0 2.136 3.183.712-4.775 1.424-6.367-.712-6.367 3.559 7.959 2.136.796 2.136-2.388-3.559-10.346 1.424-9.55 0 2.388 2.136 11.142 2.136 5.571 2.848-5.571 0-13.53-6.407-10.346-2.848-3.979-8.543-4.775-12.102-7.163 2.136-2.388 0-8.754 1.424-8.754 3.559 4.775 7.119 9.55 12.814 10.346 4.983-.796 7.119 3.979 7.119 8.754 2.136 1.592 0-4.775 1.424-6.367 1.424-4.775-6.407-5.571-1.424-8.754 2.848-5.571 0-11.938-2.848-16.713-2.136-3.183 2.848-7.959 4.983-3.979 0-7.163-9.255-5.571-9.255.796-2.848-2.388-.712-11.938 4.983-11.142 2.136 0 4.983 2.388 1.424-.796-2.848-3.183-7.831-.796-10.678 1.592 4.983-5.571 12.102-9.55 14.238-17.509.712-2.388 1.424-12.734 0-6.367-2.848 6.367-7.119 12.734-12.814 15.121 2.848-7.163 8.543-14.326 7.119-23.08-.712-5.571-6.407-10.346-12.102-9.55zm-62.646 104.258s0 .796 0 0z"/></g></svg>