<svg fill-rule="evenodd" height="480.7" image-rendering="optimizeQuality" shape-rendering="geometricPrecision" text-rendering="geometricPrecision" viewBox="0 0 640.701 480.701" width="640.7" xmlns="http://www.w3.org/2000/svg"><clipPath id="a"><rect height="480" image-rendering="optimizeQuality" rx="45" shape-rendering="geometricPrecision" text-rendering="geometricPrecision" width="640" x=".35" y=".35"/></clipPath><g clip-path="url(#a)" transform="matrix(.93 0 0 .93 22.52 17.02)"><path d="m0 0h640.701v480.701h-640.701z" fill="#c40026" stroke-width="1.131"/><g stroke-width="1.2"><path d="m315.24 51.06h-7.2c-15.6 22.8-62.4 39.6-66 40.8-3.6 4.8-3.6 9.6-2.4 14.4 27.6 28.8 39.6 66 44.4 103.2-37.2-3.6-74.4-16.8-104.4-43.2-4.8-2.4-8.4-2.4-13.2 1.2-1.2 3.6-19.2 50.4-40.8 66v16.8c21.6 15.6 39.6 62.4 40.8 66 4.8 3.6 8.4 3.6 13.2 1.2 30-26.4 67.2-39.6 104.4-44.4-4.8 37.2-16.8 74.4-44.4 104.4-1.2 4.8-1.2 9.6 2.4 13.2 3.6 1.2 50.4 19.2 66 40.8h16.8c14.4-21.6 62.4-39.6 64.8-40.8 4.8-3.6 4.8-8.4 2.4-13.2-26.4-30-39.6-67.2-43.2-104.4 37.2 4.8 74.4 18 103.2 44.4 4.8 2.4 9.6 2.4 14.4-1.2 1.2-3.6 18-50.4 40.8-66v-16.8c-22.8-15.6-39.6-62.4-40.8-66-4.8-3.6-9.6-3.6-14.4-1.2-28.8 26.4-66 39.6-103.2 43.2 3.6-37.2 16.8-74.4 43.2-103.2 2.4-4.8 2.4-9.6-2.4-14.4-2.4-1.2-50.4-18-64.8-40.8z" fill="#ffd203"/><path d="m316.44 72.66c-15.6 12-31.2 22.8-51.6 30 27.6 37.2 37.2 81.6 39.6 128.4-45.6-2.4-90-13.2-127.2-39.6-7.2 19.2-18 36-31.2 50.4 13.2 15.6 24 31.2 31.2 50.4 37.2-26.4 81.6-37.2 127.2-39.6-2.4 45.6-12 90-39.6 127.2 20.4 7.2 36 18 51.6 31.2 14.4-13.2 31.2-24 50.4-31.2-27.6-37.2-37.2-81.6-39.6-127.2 45.6 2.4 90 13.2 128.4 39.6 7.2-19.2 16.8-34.8 30-50.4-13.2-14.4-22.8-31.2-30-50.4-38.4 26.4-82.8 37.2-128.4 39.6 2.4-46.8 12-91.2 39.6-128.4-19.2-7.2-36-18-51.6-30" fill="#c40026"/><g fill="#ffd203"><circle cx="105.24" cy="240.66" r="15.6"/><circle cx="164.04" cy="336.66" r="15.6"/><circle cx="164.04" cy="144.66" r="15.6"/><circle cx="220.44" cy="88.26" r="15.6"/><circle cx="220.44" cy="394.26" r="15.6"/><circle cx="316.44" cy="29.46" r="15.6"/><circle cx="316.44" cy="451.86" r="15.6"/><circle cx="412.44" cy="88.26" r="15.6"/><circle cx="412.44" cy="394.26" r="15.6"/><circle cx="468.84" cy="144.66" r="15.6"/><circle cx="468.84" cy="336.66" r="15.6"/><circle cx="527.64" cy="240.66" r="15.6"/></g></g></g></svg>