<svg height="480.7" viewBox="0 0 480.526 360.526" width="640.7" xmlns="http://www.w3.org/2000/svg"><clipPath id="a"><rect height="360" rx="33.75" width="480" x=".26" y=".26"/></clipPath><g clip-path="url(#a)" transform="matrix(.93 0 0 .93 16.89 12.77)"><g transform="matrix(2.08 0 0 2.34 121.94 -535.36)"><path d="m-58.56 228.46h230.77v153.85h-230.77z" fill="#02943f" stroke-width=".44"/><g fill="#d9211c" stroke-width=".26"><path d="m-58.56 228.46h230.77v51.28h-230.77z"/><path d="m-58.56 331.03h230.77v51.28h-230.77z"/></g></g><path d="m227.543 51.087c4.685-7.551 9.1-15.272 14.075-22.632 4.665 7.521 9.14 15.162 13.765 22.713 6.197-6.529 12.363-13.089 18.62-19.548 2.943 8.462 5.696 16.994 8.269 25.587 7.658-4.947 15.056-10.275 22.785-15.122 1.221 8.913 2.102 17.876 2.723 26.858 8.479-3.395 16.898-6.94 25.448-10.175-1.211 8.773-2.553 17.535-3.224 26.368 9.03-.871 17.99-2.343 26.849-4.296-2.873 8.532-5.866 17.024-8.599 25.607 8.98.571 17.98 1.001 26.979 1.312-2.303 4.016-4.615 8.032-7.058 11.957-2.493 3.966-5.056 7.881-7.598 11.807 8.88 1.823 17.589 4.336 26.359 6.63-5.926 6.86-12.323 13.279-18.49 19.929 7.889 4.016 15.757 8.072 23.506 12.358-6.918 5.548-14.466 10.205-21.844 15.092 6.527 6.169 13.685 11.607 20.272 17.705-8.279 3.355-16.888 6.099-24.507 10.856 5.636 6.85 11.282 13.74 16.108 21.2-8.82.741-17.619 2.163-26.018 4.987 3.494 7.911 7.138 15.753 11.042 23.464-8.96-1.152-18.01-1.442-27.029-1.282 1.622 8.482 3.514 16.914 5.056 25.416-8.619-2.273-17.199-4.707-25.878-6.74.27 8.743.27 17.495-.19 26.238-7.768-3.836-15.357-8.022-23.235-11.617-2.333 8.492-4.175 17.105-5.896 25.747-6.978-5.638-13.695-11.597-20.623-17.285-3.824 7.891-7.468 15.873-11.162 23.834-5.826-6.589-11.042-13.69-16.318-20.72-5.876 6.72-11.112 13.97-16.468 21.1-3.974-8.011-7.678-16.153-11.352-24.305-6.878 5.738-13.665 11.587-20.663 17.175-1.932-8.682-3.894-17.365-5.806-26.057-7.989 4.116-15.847 8.492-23.766 12.738-.36-8.943-.25-17.896-.01-26.838-8.88 2.103-17.669 4.607-26.249 7.721 2.052-8.773 4.024-17.575 5.866-26.388-9.18-.26-18.37.08-27.48 1.262 3.864-7.661 7.989-15.212 11.282-23.133l.42-1.082c-8.78-2.133-17.719-3.465-26.699-4.436 5.346-7.451 11.112-14.581 16.678-21.861-8.269-3.415-16.618-6.66-24.967-9.874 6.537-6.269 13.735-11.797 20.432-17.886-7.438-4.947-15.006-9.704-22.184-15.032 7.839-4.216 15.757-8.272 23.656-12.378-5.977-6.84-12.394-13.259-18.59-19.889 8.79-2.323 17.559-4.757 26.469-6.619-2.483-3.996-5.056-7.941-7.498-11.957-2.423-3.976-4.725-8.011-7.048-12.037 9.23-.19 18.45-.491 27.68-.881-3.454-8.572-6.467-17.315-9.31-26.107 9.03 2.053 18.17 3.575 27.36 4.787-1.652-8.783-2.763-17.665-3.334-26.588 8.459 3.305 16.838 6.83 25.368 9.964.981-8.943 1.452-17.926 2.363-26.879 7.598 5.017 15.056 10.245 22.625 15.312 2.853-8.532 5.576-17.115 8.489-25.617 6.217 6.479 12.313 13.069 18.55 19.528z" fill="none" stroke="#f3c502" stroke-miterlimit="10" stroke-width=".17"/><path d="m227.543 51.087c4.685-7.551 9.1-15.272 14.075-22.632 4.665 7.521 9.14 15.162 13.765 22.713 6.197-6.529 12.363-13.089 18.62-19.548 2.943 8.462 5.696 16.994 8.269 25.587 7.658-4.947 15.056-10.275 22.785-15.122 1.221 8.913 2.102 17.876 2.723 26.858 8.479-3.395 16.898-6.94 25.448-10.175-1.211 8.773-2.553 17.535-3.224 26.368 9.03-.871 17.99-2.343 26.849-4.296-2.873 8.532-5.866 17.024-8.599 25.607 8.98.571 17.98 1.001 26.979 1.312-2.303 4.016-4.615 8.032-7.058 11.957-2.493 3.966-5.056 7.881-7.598 11.807 8.88 1.823 17.589 4.336 26.359 6.63-5.926 6.86-12.323 13.279-18.49 19.929 7.889 4.016 15.757 8.072 23.506 12.358-6.918 5.548-14.466 10.205-21.844 15.092 6.527 6.169 13.685 11.607 20.272 17.705-8.279 3.355-16.888 6.099-24.507 10.856 5.636 6.85 11.282 13.74 16.108 21.2-8.82.741-17.619 2.163-26.018 4.987 3.494 7.911 7.138 15.753 11.042 23.464-8.96-1.152-18.01-1.442-27.029-1.282 1.622 8.482 3.514 16.914 5.056 25.416-8.619-2.273-17.199-4.707-25.878-6.74.27 8.743.27 17.495-.19 26.238-7.768-3.836-15.357-8.022-23.235-11.617-2.333 8.492-4.175 17.105-5.896 25.747-6.978-5.638-13.695-11.597-20.623-17.285-3.824 7.891-7.468 15.873-11.162 23.834-5.826-6.589-11.042-13.69-16.318-20.72-5.876 6.72-11.112 13.97-16.468 21.1-3.974-8.011-7.678-16.153-11.352-24.305-6.878 5.738-13.665 11.587-20.663 17.175-1.932-8.682-3.894-17.365-5.806-26.057-7.989 4.116-15.847 8.492-23.766 12.738-.36-8.943-.25-17.896-.01-26.838-8.88 2.103-17.669 4.607-26.249 7.721 2.052-8.773 4.024-17.575 5.866-26.388-9.18-.26-18.37.08-27.48 1.262 3.864-7.661 7.989-15.212 11.282-23.133l.42-1.082c-8.78-2.133-17.719-3.465-26.699-4.436 5.346-7.451 11.112-14.581 16.678-21.861-8.269-3.415-16.618-6.66-24.967-9.874 6.537-6.269 13.735-11.797 20.432-17.886-7.438-4.947-15.006-9.704-22.184-15.032 7.839-4.216 15.757-8.272 23.656-12.378-5.977-6.84-12.394-13.259-18.59-19.889 8.79-2.323 17.559-4.757 26.469-6.619-2.483-3.996-5.056-7.941-7.498-11.957-2.423-3.976-4.725-8.011-7.048-12.037 9.23-.19 18.45-.491 27.68-.881-3.454-8.572-6.467-17.315-9.31-26.107 9.03 2.053 18.17 3.575 27.36 4.787-1.652-8.783-2.763-17.665-3.334-26.588 8.459 3.305 16.838 6.83 25.368 9.964.981-8.943 1.452-17.926 2.363-26.879 7.598 5.017 15.056 10.245 22.625 15.312 2.853-8.532 5.576-17.115 8.489-25.617 6.217 6.479 12.313 13.069 18.55 19.528z" fill="#f3c502" stroke-width="1.662"/><path d="m252.07 114.137c4.245-1.712 7.799-4.817 12.123-6.349 5.066-.801 9.961 1.202 14.796 2.393 3.924 1.222 8.179 2.123 11.442 4.787 3.284 6.369 2.042 14.411 6.247 20.319 7.228 2.804 16.818.31 22.444 6.539 1.822 8.893-1.992 17.695-.931 26.548 2.853 8.072 12.974 5.498 18.78 9.744 3.644 8.502-4.605 14.921-9.2 20.95-1.472 6.88-.37 14.06 1.021 20.88 1.532 5.858-1.191 11.617-3.384 16.924-2.373 3.185-6.827 1.973-10.241 2.213-5.997.461-9.931-6.63-16.068-5.057-7.778 2.363-14.716 8.702-23.386 6.95-7.799-1.853-14.226-8.362-22.765-7.19-.2 5.067-1.091 10.615 1.632 15.202 4.425 7.561 10.872 13.9 18.65 17.966 6.767 3.265 13.064 7.501 17.479 13.71-19.491.751-39.003 1.743-58.514.791-15.727-1.362-31.534.19-47.272-.991 5.416-5.157 12.604-7.401 18.951-11.026 5.626-4.526 11.412-9.434 15.127-15.692 2.112-8.152 4.275-16.434 4.285-24.916-5.946-.551-11.352 1.632-16.488 4.336-7.108 3.375-12.444-5.318-19.431-4.557-8.379-.31-16.578 2.383-24.937 1.823-4.505-1.903-8.8-5.117-11.292-9.353-.531-5.328 1.231-10.525 1.482-15.813-4.195-6.079-11.793-10.515-12.163-18.617-1.351-10.115 7.748-16.594 13.695-23.253 4.445-4.136 1.041-11.006 3.934-15.903 3.744-6.67 9.5-13.439 17.729-13.87 3.874-1.122 8.92.2 11.903-3.014 2.232-6.489.881-16.303 8.72-19.177 12.153-2.093 25.468-4.627 37.09.981 5.706 2.904 12.353 2.403 18.51 1.722z" fill="none" stroke="#02943f" stroke-miterlimit="10" stroke-width=".17"/><path d="m252.07 114.137c4.245-1.712 7.799-4.817 12.123-6.349 5.066-.801 9.961 1.202 14.796 2.393 3.924 1.222 8.179 2.123 11.442 4.787 3.284 6.369 2.042 14.411 6.247 20.319 7.228 2.804 16.818.31 22.444 6.539 1.822 8.893-1.992 17.695-.931 26.548 2.853 8.072 12.974 5.498 18.78 9.744 3.644 8.502-4.605 14.921-9.2 20.95-1.472 6.88-.37 14.06 1.021 20.88 1.532 5.858-1.191 11.617-3.384 16.924-2.373 3.185-6.827 1.973-10.241 2.213-5.997.461-9.931-6.63-16.068-5.057-7.778 2.363-14.716 8.702-23.386 6.95-7.799-1.853-14.226-8.362-22.765-7.19-.2 5.067-1.091 10.615 1.632 15.202 4.425 7.561 10.872 13.9 18.65 17.966 6.767 3.265 13.064 7.501 17.479 13.71-19.491.751-39.003 1.743-58.514.791-15.727-1.362-31.534.19-47.272-.991 5.416-5.157 12.604-7.401 18.951-11.026 5.626-4.526 11.412-9.434 15.127-15.692 2.112-8.152 4.275-16.434 4.285-24.916-5.946-.551-11.352 1.632-16.488 4.336-7.108 3.375-12.444-5.318-19.431-4.557-8.379-.31-16.578 2.383-24.937 1.823-4.505-1.903-8.8-5.117-11.292-9.353-.531-5.328 1.231-10.525 1.482-15.813-4.195-6.079-11.793-10.515-12.163-18.617-1.351-10.115 7.748-16.594 13.695-23.253 4.445-4.136 1.041-11.006 3.934-15.903 3.744-6.67 9.5-13.439 17.729-13.87 3.874-1.122 8.92.2 11.903-3.014 2.232-6.489.881-16.303 8.72-19.177 12.153-2.093 25.468-4.627 37.09.981 5.706 2.904 12.353 2.403 18.51 1.722z" fill="#02943f" stroke-width="1.662"/><path d="m255.774 95.18-14.246-10.285-14.246 10.285 5.366-16.734-14.175-10.375 17.559-.06 5.486-16.694 5.486 16.694 17.559.06-14.175 10.375z" fill="#d9211c" stroke-width=".39"/></g></svg>