<svg height="480.7" viewBox="0 0 640.701 480.701" width="640.7" xmlns="http://www.w3.org/2000/svg"><clipPath id="a"><rect height="480" rx="45" width="640" x=".35" y=".35"/></clipPath><g clip-path="url(#a)" transform="matrix(.93 0 0 .93 22.52 17.02)"><path d="m0 0h640.701v480.701h-640.701z" fill="#004614" stroke-width="1.001"/><path d="m316.546 70.102a145.359 145.412 0 1 0 0 290.824 145.309 145.362 0 0 0 0-290.724zm0 11.617a133.846 133.895 0 1 1 0 267.69 133.846 133.895 0 0 1 0-267.69z" fill="#fff" stroke="#fff" stroke-linecap="round" stroke-width="4.706"/><path d="m169.185 210.908c38.943 0 56.061-13.42 83.091-13.42 29.432 0 39.743 11.717 62.368 11.717 27.43 0 28.431-11.417 57.863-11.417 26.929 0 48.053 14.621 87.896 13.72m-290.417 19.93c38.943 0 56.061-13.42 82.991-13.42 29.532 0 39.844 11.817 62.468 11.817 27.43 0 28.331-11.417 57.763-11.417 27.03 0 48.153 14.621 87.996 13.72m-284.411 19.629c33.236-1.702 49.754-13.119 74.582-13.119 29.532 0 39.944 11.717 62.468 11.717 27.43 0 28.431-11.417 57.863-11.417 26.028 0 46.751 13.72 84.092 13.72m-273.499 19.429c30.333-2.404 46.551-12.919 70.277-12.919 29.532 0 39.844 11.817 62.468 11.817 27.43 0 28.331-11.417 57.863-11.417 24.026 0 43.548 11.617 75.783 13.52m-255.479 18.427c24.026-3.505 39.143-11.717 60.066-11.717 29.632 0 40.044 11.817 62.568 11.817 27.43 0 28.331-11.517 57.763-11.517 21.223 0 38.943 9.013 64.871 12.518" fill="none" stroke="#fff" stroke-linejoin="round" stroke-width="10.213"/><path d="m312.942 102.55a30.834 30.845 0 1 1 -34.037 50.073 34.338 34.35 0 1 0 34.037-50.073z" fill="#fff" stroke-width="1.001"/><path d="m296.925 140.905-6.507-8.312-10.311 2.404 6.007-8.813-5.506-9.013 10.111 2.804 7.008-8.012.4 10.615 9.711 4.106-10.011 3.705z" fill="#fff" stroke-width="1.001"/><g fill="#004614" stroke="#fff" stroke-width="1.6"><path d="m162.2 215.5-2.5 21.7m7.6-1-3.1 20m-24.4-36.2-1.2 21.3m-9.8-10.5 1.5 22.3m19.4-18.3 4.2-33.6m15.8 47.4-4.2 21.3m-36.3 1.9-5.1-13.4" stroke-linecap="round"/><path d="m160 235.2c4.3 10-3.6 29.4-9.2 30.3.8-10.3-.7-24 9.2-30.3z"/><path d="m164.4 253.7c-13-1.2-18.7 37.6-5.8 20.5 5.8-5.1 6.6-13.3 5.8-20.5zm-25.4-15.6c-10.4 8.9 7.2 42.8 7 17 .6-6.3-1.2-13.5-7-17z"/><path d="m130.1 251.3c-2.2 10.3 8 34.3 14.8 29.2-1.2-10.7-2.6-25.5-14.8-29.2zm19.9-19.5c-9.5 6.6-5.1 33 .9 29.4 2.5-9.3 5.6-21-.9-29.4z"/><path d="m147.3 251.9c7.2 9 7.9 32.6-1 34.5-6.5-10.4-4.2-24 1-34.5z"/><path d="m147 294.6c-5.4-13.5 26.2-39 17.3-13.8-1.6 7.8-8.2 16.3-17.2 13.8z"/><path d="m150.6 295c-12.7 3.6-27-22.6-18-23.2 9.4 4.2 15 13.7 18 23.2z"/><path d="m99.3 296 15.4 20.5m-11.5-35.9 9.9 19.3m7.2-12.3-18.8-29.9m14.7 68.8 15.7 6.7m-3.3-53.8-9.9-16.5m24.5 29.2-4.7-12.6m16.9 24.5-7.4-13.7" stroke-linecap="round"/><path d="m111.7 297.4c16.6-10.4 28.3 31 8.1 14.4a17 17 0 0 1 -8.1-14.4zm16.5-18.7c11.2 2.7 21.2 31.5 10 30.6a28.4 28.4 0 0 1 -10-30.6z"/><path d="m143.1 291.3c-8.5 10 1.6 33 7.8 33 2-11.4 2.7-25.2-7.8-33zm-25.7-8.1c-6 11.5 17.3 34.7 19.3 21.3-3-9.2-9.4-18.8-19.3-21.3zm-4.6 31.1c3 12.4 28.1 19 30.8 15-7.8-8-18-21.8-30.8-15z"/><path d="m128.6 303.5c13 1 28 21.5 21.2 28.3a29.9 29.9 0 0 1 -21.2-28.3z"/><path d="m155.1 303c-8.6 10.2-2.8 38.6 8.3 34.1a35 35 0 0 0 -8.3-34z"/><path d="m129 332c10-7.9 36-2.1 33.8 7.5-11.6 4.7-25.8 2.7-33.8-7.5z"/><path d="m138.2 350.9c23.1-10 53-16.7 74.2 1.2 14.3 12.8 30.8 29.7 52 24.3-3.2-1-23.2-11.8-30.5-20.9-15.9-15.8-38.5-28.7-61.4-21.5a108.4 108.4 0 0 0 -34.3 16.9z"/><path d="m353.8 410.3c19-.5-10.4-15.5-17.4-20-31.6-17.8-68.6-12.6-103.2-14-6.8.4-14.4-1.2-20.7.4-7 5.5-6.1 7.7 2.7 6.3 28.3.3 56.7-2.3 84.8 1.2 20 3.2 39 12.1 53.8 26z"/><path d="m163.4 392.4 19.3-.8m-43.3-17.6 24.4 9.7m-44.1-50.9 32.7 21.6m26.3-8.4-11-11m30 16-12.8-9.6m-51.4 13.8 21 13.1" stroke-linecap="round"/><path d="m151.2 366.4c9.5-12.4 42.3 7 16.9 9-7 1-13.9-2.7-16.9-9z"/><path d="m158.2 341.6c-4.6 13.2 24.8 30.5 23.6 17-4.4-9-13.5-16.6-23.6-17z"/><path d="m149.5 352.4c-.2 13.3 37.5 18.7 24.8 5-6.8-5.1-16.6-8.1-24.8-5zm28.1-7.9c11.9-3 29.7 27.8 14 22.5-10.2-2.2-18.3-11.8-14-22.5zm-18.9 37.1c6.7-13 34.1-8.8 35.1-.3-9.9 9.3-24.3 6-35 .3z"/><path d="m169.6 362c11.2-6.5 37.4 4.5 30.9 15.8-11.6 2.3-31.5 0-31-15.8z"/><path d="m195.4 349.3c12.3 1.3 33.2 26.5 14.4 29.2-15.5.2-14.3-18.6-14.4-29.3z"/><path d="m178.1 391.9c12.9 4.3 36.8-4 37-14.7a33.9 33.9 0 0 0 -37 14.7zm-19.7-49.9-8.2-8.6m71.4 58.8h18.5c14.7-12 29.6-27.4 50-27.4 10.9-4.7 36.4 20 15.2 10-21.8-3.2-29.8 23.6-49.2 28-13.5 4.3-27 3-34.5-10.6z"/><path d="m471.8 215.5 2.4 21.7m-7.6-1 3.2 20m24.3-36.2 1.2 21.3m9.9-10.5-1.6 22m-19.4-18-4.1-33.6m-15.9 47.4 4.3 21.3m35.9 2.5 5.1-14" stroke-linecap="round"/><path d="m473.9 235.2c-4.3 10 3.7 29.4 9.2 30.3-.8-10.3.7-24-9.2-30.3z"/><path d="m469.6 253.7c12.8-1.2 18.6 37.6 5.7 20.5-5.8-5.1-6.6-13.3-5.7-20.5zm25.4-15.6c10.3 8.9-7.3 42.8-7.1 17-.5-6.3 1.2-13.5 7-17z"/><path d="m503.8 251.3c2.2 10.3-8 34.3-14.7 29.2 1.1-10.7 2.5-25.5 14.7-29.2zm-19.8-19.5c9.4 6.6 5 33-1 29.4-2.5-9.3-5.6-21 1-29.4z"/><path d="m486.7 251.9c-7.3 9-8 32.6 1 34.5 6.5-10.4 4.2-24-1-34.5z"/><path d="m486.9 294.6c5.4-13.5-26.2-39-17.3-13.8 1.6 7.8 8.3 16.3 17.3 13.8z"/><path d="m483.4 295c12.6 3.6 27-22.6 18-23.2-9.4 4.2-15 13.7-18 23.2z"/><path d="m534.6 296-15.4 20.5m11.5-35.9-9.8 19.3m-7.3-12.3 18.9-29.9m-14.7 68.8-15.8 6.7m3.4-53.8 9.8-16.5m-24.5 29.2 4.7-12.6m-17.4 24.8 9-13.5" stroke-linecap="round"/><path d="m522.3 297.4c-16.7-10.4-28.4 31-8.2 14.4a17 17 0 0 0 8.2-14.4zm-16.5-18.7c-11.3 2.7-21.3 31.5-10.1 30.6a28.4 28.4 0 0 0 10-30.6z"/><path d="m490.8 291.3c8.5 10-1.6 33-7.8 33-2-11.4-2.7-25.2 7.8-33zm25.8-8.1c5.9 11.5-17.4 34.7-19.3 21.3 3-9.2 9.3-18.8 19.3-21.3zm4.5 31.1c-2.9 12.4-28 19-30.8 15 7.9-8 18-21.8 30.8-15z"/><path d="m505.4 303.5c-13 1-28 21.5-21.3 28.3a29.9 29.9 0 0 0 21.3-28.3z"/><path d="m478.8 303c8.6 10.2 2.8 38.6-8.2 34.1a35 35 0 0 1 8.2-34z"/><path d="m505 332c-10-7.9-36-2.1-33.8 7.5 11.6 4.7 25.7 2.7 33.8-7.5z"/><path d="m495.7 350.9c-23.1-10-53-16.7-74.1 1.2-14.4 12.8-30.8 29.7-52 24.3 3.2-1 23.2-11.8 30.4-20.9 15.9-15.8 38.5-28.7 61.5-21.5 12.4 3.2 23.8 9.6 34.2 16.9z"/><path d="m280.2 410.3c-19.1-.5 10.4-15.5 17.4-20 31.5-17.8 68.5-12.6 103.2-14 6.8.4 14.4-1.2 20.6.4 7 5.5 6.2 7.7-2.7 6.3-28.2.3-56.6-2.3-84.7 1.2a102 102 0 0 0 -53.8 26z"/><path d="m470.6 392.4-19.3-1.3m43.2-17.1-24 9.8m43.7-51-32.6 21.6m-26.3-8.4 11-11m-30.4 16.4 13.1-10m51.4 13.8c-7 4.4-14.2 8.7-21.3 13" stroke-linecap="round"/><path d="m482.7 366.4c-9.5-12.4-42.3 7-16.9 9 7 1 14-2.7 17-9z"/><path d="m475.8 341.6c4.5 13.2-25 30.5-23.6 17 4.3-9 13.4-16.6 23.6-17z"/><path d="m484.4 352.4c.3 13.3-37.5 18.7-24.8 5 6.8-5.1 16.6-8.1 24.8-5zm-28.1-7.9c-11.8-3-29.7 27.8-14 22.5 10.3-2.2 18.4-11.8 14-22.5zm18.9 37.1c-6.7-13-34.1-8.8-35-.3 9.8 9.3 24.2 6 35 .3z"/><path d="m464.4 362c-11.2-6.5-37.5 4.5-31 15.8 11.6 2.3 31.6 0 31-15.8z"/><path d="m438.5 349.3c-12.3 1.3-33.2 26.5-14.4 29.2 15.5.2 14.3-18.6 14.4-29.2z"/><path d="m455.9 391.5c-12.6 4.4-38.2-3-36.6-14.5 13.8-5.2 29.4 2.1 36.6 14.5zm19.6-49.5 8.3-8.6m-71.5 58.8h-18.5c-14.7-12-29.5-27.4-50-27.4-10.8-4.7-36.3 20-15.2 10 21.8-3.2 29.8 23.6 49.2 28 13.5 4.3 27.1 3 34.5-10.6z"/></g></g></svg>