<svg height="480.7" width="640.7" xmlns="http://www.w3.org/2000/svg" xmlns:xlink="http://www.w3.org/1999/xlink"><clipPath id="a"><rect height="480" rx="45" width="640" x=".35" y=".35"/></clipPath><g clip-path="url(#a)" transform="matrix(.93 0 0 .93 22.52 17.02)"><path d="m0 0h640.701v480.701h-640.701z" fill="#f00" stroke-width="1.133"/><path d="m0 0h256.28v480.701h-256.28z" fill="#060" stroke-width="1.133"/><g style="fill:#ff0;fill-rule:evenodd;stroke:#000;stroke-width:.57;stroke-linecap:round;stroke-linejoin:round" transform="scale(1.07 1.2)"><path d="m318.24 262.04c-30.21-.91-168.74-87.38-169.69-101.15l7.65-12.76c13.74 19.97 155.36 104.06 169.27 101.08l-7.23 12.82"/><path d="m154.59 146.4c-2.71 7.29 36.15 31.32 82.9 59.75s87.07 46.01 90.05 43.49c.18-.33 1.47-2.54 1.35-2.52-.56.84-1.92 1.11-4.05.5-12.63-3.64-45.58-18.77-86.37-43.51-40.8-24.74-76.29-47.54-81.81-57.23-.38-.67-.66-1.9-.6-2.85h-.13l-1.17 2.05-.16.32zm164.36 116.04c-.51.93-1.47.96-3.28.76-11.3-1.25-45.59-17.93-86.16-42.21-47.21-28.26-86.2-54.01-81.97-60.74l1.15-2.03.23.07c-3.8 11.41 76.95 57.58 81.7 60.52 46.72 28.95 86.12 45.85 89.6 41.46l-1.27 2.18z"/><path d="m240.17 169.23c30.24-.24 67.55-4.13 89.02-12.69l-4.63-7.52c-12.69 7.02-50.21 11.64-84.65 12.34-40.74-.37-69.49-4.17-83.9-13.84l-4.37 8c26.48 11.21 53.62 13.59 88.52 13.7"/><path d="m330.44 156.71c-.74 1.18-14.74 6.01-35.37 9.58-13.99 2.13-32.23 3.96-55 3.98-21.63.02-39.31-1.52-52.68-3.33-21.66-3.4-32.83-8.12-36.97-9.79.4-.79.65-1.34 1.03-2.07 11.9 4.74 23.12 7.59 36.28 9.62 13.29 1.8 30.75 3.36 52.28 3.34 22.66-.02 40.71-1.98 54.62-4.05 21.16-3.41 32.71-7.8 34.33-9.84l1.49 2.58zm-4.06-7.62c-2.29 1.84-13.72 5.89-33.82 9.1-13.42 1.92-30.47 3.64-52.27 3.66-20.7.02-37.62-1.38-50.49-3.25-20.41-2.67-31.28-7.48-35.2-8.88.39-.67.79-1.34 1.19-2.01 3.05 1.53 13.53 5.79 34.23 8.72 12.72 1.8 29.66 3.15 50.26 3.13 21.69-.02 38.55-1.78 51.88-3.69 20.2-2.78 31.08-7.95 32.73-9.24l1.47 2.45z"/><path d="m140.88 205.66c18.6 10 59.91 15.04 98.99 15.39 35.59.06 81.96-5.5 99.3-14.69l-.48-10.01c-5.42 8.48-55.11 16.61-99.21 16.28-44.09-.33-85.04-7.14-98.69-15.96l.08 8.99"/><path d="m340.12 204.22v2.39c-2.61 3.12-18.95 7.83-39.44 11.14-15.6 2.39-35.93 4.19-61.26 4.19-24.07 0-43.26-1.72-58.15-4-23.53-3.43-38.58-9.43-41.6-11.22l.01-2.79c9.07 6.03 33.66 10.45 41.92 11.8 14.79 2.27 33.87 3.97 57.82 3.97 25.22 0 45.43-1.79 60.93-4.17 14.7-2.12 35.64-7.65 39.77-11.32zm.01-8.49v2.39c-2.61 3.11-18.95 7.82-39.44 11.14-15.6 2.39-35.93 4.19-61.26 4.19-24.07 0-43.26-1.71-58.15-4-23.53-3.42-38.58-9.42-41.6-11.22l.01-2.79c9.07 6.03 33.66 10.45 41.92 11.8 14.79 2.27 33.87 3.98 57.82 3.98 25.22 0 45.43-1.79 60.93-4.17 14.7-2.12 35.64-7.65 39.77-11.32z"/><path d="m239.79 260.32c-42.77-.25-79.42-11.66-87.16-13.54l5.64 8.83c13.67 5.75 49.42 14.32 81.93 13.37 32.5-.95 60.91-3.47 80.93-13.21l5.79-9.16c-13.64 6.43-60.07 13.64-87.13 13.71"/><path d="m323.3 253.72c-.85 1.3-1.72 2.58-2.6 3.83-9.44 3.33-24.32 6.82-30.6 7.84-12.82 2.64-32.67 4.59-50.27 4.6-37.89-.55-68.91-7.97-83.5-14.3l-1.18-2.02.19-.3 2 .77c25.95 9.28 55.09 12.99 82.7 13.65 17.54.06 35.1-2.01 49.29-4.55 21.77-4.36 30.57-7.65 33.28-9.14l.69-.39zm5.02-8.28c.02.03.04.05.07.08-.64 1.07-1.29 2.17-1.96 3.26-5.04 1.8-18.7 5.8-38.66 8.59-13.15 1.79-21.32 3.53-47.48 4.03-49.02-1.25-80.75-10.83-88.29-13.2l-1.12-2.14c28.41 7.42 57.42 12.59 89.41 13.12 23.93-.51 34.11-2.27 47.15-4.05 23.27-3.62 35-7.45 38.52-8.56-.04-.06-.1-.13-.15-.2l2.52-.94z" stroke-width=".55"/><path d="m328.83 197.76c.14 28.14-14.26 53.39-25.86 64.53-16.41 15.76-38.16 25.9-63.57 26.36-28.37.52-55.12-17.97-62.3-26.1-14.03-15.89-25.45-36.06-25.82-63.24 1.74-30.71 13.79-52.1 31.27-66.77s40.74-21.81 60.12-21.3c22.36.59 48.48 11.56 66.52 33.33 11.82 14.27 16.94 29.75 19.63 53.19zm-89.19-96.34c54.49 0 99.3 44.34 99.3 98.7s-44.81 98.7-99.3 98.7-98.92-44.34-98.92-98.7 44.44-98.7 98.92-98.7"/><path d="m239.91 101.08c54.53 0 99.01 44.48 99.01 99.02s-44.48 99.02-99.01 99.02-99.01-44.48-99.01-99.02 44.48-99.02 99.01-99.02zm-96.83 99.02c0 53.26 43.74 96.84 96.83 96.84 53.1 0 96.83-43.58 96.83-96.84s-43.74-96.84-96.83-96.84-96.83 43.58-96.83 96.84z"/><path d="m239.99 109.31c49.73 0 90.69 40.82 90.69 90.7s-40.96 90.7-90.69 90.7-90.69-40.82-90.69-90.7 40.96-90.7 90.69-90.7zm-88.52 90.7c0 48.69 39.98 88.52 88.52 88.52s88.52-39.84 88.52-88.52c0-48.69-39.98-88.53-88.52-88.53s-88.52 39.84-88.52 88.53z"/><path d="m243.98 100.68h-8.49l.01 198.96h8.51z"/><path d="m243.13 99.55h2.16l.02 201.25h-2.16zm-8.42 0h2.18v201.25h-2.18z"/><path d="m338.99 203.94v-7.36l-5.99-5.58-34-9-49-5-59 3-42 10-8.48 6.28v7.36l21.48-9.64 51-8h49l36 4 25 6z"/><path d="m239.95 184.77c23.38-.04 46.07 2.22 64.07 5.72 18.57 3.71 31.64 8.36 36.1 13.57l-.01 2.58c-5.39-6.49-22.97-11.25-36.52-13.97-17.86-3.47-40.39-5.72-63.65-5.67-24.54.05-47.39 2.37-64.98 5.8-14.12 2.8-32.95 8.37-35.3 13.86v-2.69c1.29-3.8 15.31-9.48 34.98-13.42 17.73-3.46 40.62-5.74 65.3-5.79zm.01-8.49c23.38-.04 46.07 2.22 64.07 5.72 18.57 3.71 31.64 8.36 36.1 13.57l-.01 2.58c-5.39-6.49-22.97-11.25-36.52-13.97-17.86-3.48-40.39-5.72-63.65-5.67-24.54.04-47.28 2.37-64.88 5.8-13.63 2.58-33.23 8.37-35.41 13.86v-2.69c1.29-3.76 15.6-9.64 34.99-13.42 17.73-3.46 40.62-5.74 65.3-5.79z"/><path d="m239.48 132.96c36.85-.18 68.99 5.15 83.7 12.69l5.36 9.28c-12.78-6.89-47.46-14.05-89.01-12.98-33.85.21-70.03 3.73-88.18 13.41l6.4-10.71c14.9-7.72 50.02-11.64 81.72-11.68"/><path d="m239.97 140.62c21.02-.06 41.33 1.13 57.48 4.04 15.04 2.8 29.39 7 31.44 9.26l1.59 2.81c-4.99-3.26-17.4-6.88-33.34-9.91-16.01-3.01-36.3-4-57.2-3.95-23.72-.08-42.15 1.17-57.97 3.93-16.73 3.13-28.33 7.6-31.2 9.73l1.56-2.97c5.56-2.84 14.39-6.26 29.22-8.93 16.36-2.99 34.98-3.88 58.42-4.01zm-.01-8.48c20.11-.05 39.97 1.07 55.45 3.85 12.21 2.38 24.28 6.09 28.7 9.39l2.33 3.7c-3.95-4.39-18.84-8.56-31.97-10.89-15.36-2.65-34.4-3.7-54.51-3.87-21.11.06-40.62 1.35-55.75 4.11-14.44 2.75-23.76 6-27.7 8.54l2.05-3.09c5.44-2.86 14.23-5.5 25.3-7.65 15.25-2.78 34.88-4.04 56.11-4.09z"/><path d="m289.15 241.26c-18.22-3.4-36.47-3.89-49.22-3.74-61.41.72-81.24 12.61-83.67 16.21l-4.59-7.48c15.63-11.33 49.07-17.69 88.59-17.04 20.52.34 38.22 1.7 53.12 4.58l-4.24 7.47"/><path d="m239.58 236.46c17.08.25 33.85.96 50.03 3.98l-1.17 2.07c-15.03-2.77-31.06-3.84-48.8-3.75-22.66-.18-45.59 1.94-65.54 7.67-6.3 1.75-16.72 5.8-17.78 9.15l-1.17-1.92c.34-1.98 6.64-6.08 18.41-9.39 22.86-6.55 44.24-7.65 66.02-7.8zm.78-8.6c17.7.33 35.98 1.15 53.74 4.67l-1.22 2.15c-16.04-3.18-31.37-4.25-52.42-4.57-22.74.04-46.85 1.66-68.78 8.04-7.08 2.06-19.3 6.52-19.7 10.05l-1.17-2.07c.27-3.21 10.84-7.39 20.36-10.16 22.1-6.42 46.28-8.08 69.19-8.12z" stroke-width=".55"/><path d="m327.58 247.38-7.38 11.45-21.2-18.83-55-37-62-34-32.19-11.01 6.86-12.72 2.33-1.27 20 5 66 34 38 24 32 23 13 15z"/><path d="m148.65 158.29c5.65-3.83 47.14 14.66 90.56 40.83 43.3 26.25 84.68 55.92 80.94 61.47l-1.23 1.93-.56.44c.12-.09.74-.85-.06-2.91-1.84-6.07-31.2-29.49-79.89-58.9-47.48-28.31-87.04-45.37-91-40.49l1.25-2.39zm180.44 88.93c3.57-7.05-34.92-36.04-82.63-64.27-48.81-27.67-83.99-43.95-90.42-39.1l-1.43 2.6c-.01.14.05-.18.35-.41 1.17-1.02 3.11-.95 3.98-.97 11.07.17 42.67 14.71 87.01 40.13 19.43 11.32 82.07 51.49 81.83 62.79.02.97.08 1.17-.28 1.65z"/></g><path d="m192.851 253.582c0 19.553 7.112 37.242 18.644 50.161 11.554 12.955 27.24 21.127 44.646 21.127 17.491 0 33.37-7.992 44.87-20.898 11.501-12.907 18.623-30.705 18.634-50.329v-95.168l-126.795-.168.011 95.275z" fill="#fff" stroke="#000" stroke-width=".759"/><path d="m195.222 253.714v.06c0 18.699 6.877 35.716 17.908 48.082 11.052 12.39 26.279 20.081 42.938 20.081 16.744 0 31.939-7.643 42.948-19.985s17.833-29.359 17.833-48.118v-92.331l-121.562-.024-.075 92.235m97.194-64.594v58.754l-.043 6.213c0 1.634-.085 3.497-.256 5.083-.993 9.29-4.784 17.389-10.411 23.687-6.578 7.379-15.665 11.945-25.681 11.945-9.963 0-18.837-4.735-25.447-12.138-6.781-7.595-10.71-18.014-10.71-28.782l-.011-64.919 72.549.144z" fill="#f00" stroke="#000" stroke-width=".578"/><g id="b" transform="scale(1.07 1.2)"><g id="c" fill="#ff0" stroke="#000" stroke-width=".5"><path d="m190.19 154.43c.13-5.52 4.05-6.83 4.08-6.85s4.23 1.41 4.22 6.9z" stroke="none"/><path d="m186.81 147.69-.68 6.34 4.14.01c.04-5.25 3.97-6.12 4.07-6.1.09-.01 3.99 1.16 4.09 6.1h4.15l-.75-6.39z"/><path d="m185.85 154.06h16.95c.36 0 .65.35.65.78s-.29.78-.65.78h-16.95c-.36 0-.65-.35-.65-.78s.29-.78.65-.78z"/><path d="m192.01 154.03c.02-3.31 2.26-4.25 2.27-4.25 0 0 2.34.97 2.36 4.25z"/><path d="m186.21 145.05h16.25c.34 0 .62.32.62.7 0 .39-.28.7-.62.7h-16.25c-.34 0-.62-.32-.62-.7 0-.39.28-.7.62-.7z"/><path d="m186.55 146.47h15.54c.33 0 .6.32.6.7 0 .39-.27.7-.6.7h-15.54c-.33 0-.6-.32-.6-.7 0-.39.27-.7.6-.7z"/><path d="m191.57 135.88h1.23v.87h.9v-.89h1.26v.89h.9v-.89h1.26v2.01c0 .32-.25.52-.55.52h-4.41c-.3 0-.57-.24-.57-.53v-1.99z"/><path d="m196.19 138.57.28 6.45-4.3-.02.28-6.45z"/><path id="d" d="m190.94 141.56.13 3.48h-4.13l.12-3.48z"/><use height="100%" width="100%" x="10.61" xlink:href="#d"/><path id="e" d="m186.3 139.04h1.2v.87h.88v-.89h1.23v.89h.88v-.89h1.23v2.01c0 .31-.25.52-.54.52h-4.32c-.29 0-.56-.24-.56-.53v-1.99z"/><use height="100%" width="100%" x="10.61" xlink:href="#e"/><path d="m193.9 140.61c-.03-.63.88-.63.87 0v1.54h-.87z" fill="#000" stroke="none"/><path id="f" d="m188.57 142.84c0-.61.84-.62.83 0v1.19h-.83z" fill="#000" stroke="none"/><use height="100%" width="100%" x="10.64" xlink:href="#f"/></g><use height="100%" width="100%" xlink:href="#c" y="46.32"/><use height="100%" transform="matrix(.7 -.71 .71 .7 -35.34 275.11)" width="100%" xlink:href="#c"/></g><use height="100%" transform="scale(1.07 1.2)" width="100%" x="45.71" xlink:href="#c"/><use height="100%" transform="matrix(-1 0 0 1 512.34 0)" width="100%" xlink:href="#b"/><g id="g" fill="#fff" transform="scale(1.07 1.2)"><path d="m232.64 202.41v.01c0 2.21.85 4.23 2.21 5.69 1.37 1.47 3.25 2.38 5.3 2.38 2.07 0 3.94-.9 5.3-2.37 1.36-1.46 2.2-3.47 2.2-5.69v-10.77l-14.99-.01-.03 10.77" fill="#039"/><circle cx="236.07" cy="195.74" r="1.49"/><circle cx="244.39" cy="195.74" r="1.49"/><circle cx="240.23" cy="199.74" r="1.49"/><circle cx="236.07" cy="203.92" r="1.49"/><circle cx="244.38" cy="203.91" r="1.49"/></g><use height="100%" width="100%" xlink:href="#g" y="-26.02"/><use height="100%" width="100%" x="-20.8" xlink:href="#g"/><use height="100%" width="100%" x="20.75" xlink:href="#g"/><use height="100%" width="100%" xlink:href="#g" y="25.78"/></g></svg>