<svg height="480.7" viewBox="0 0 640.701 480.701" width="640.7" xmlns="http://www.w3.org/2000/svg"><clipPath id="a"><path d="m0 0h600l-600 400z"/></clipPath><clipPath id="b"><path d="m194 251v233h-350z"/></clipPath><clipPath id="c"><rect height="480" rx="45" width="640" x=".35" y=".35"/></clipPath><g clip-path="url(#c)" transform="matrix(.93 0 0 .93 22.52 17.02)"><g clip-path="url(#b)" transform="matrix(1.83 0 0 2.06 285.57 -517.84)"><path d="m-156 251h350v233h-350z" fill="#00923f"/><path d="m-126 368 145 88 145-88-145-89z" fill="#f8c300"/><circle fill="#28166f" r="735" transform="matrix(.08 0 0 .08 7 369)"/><path d="m-47 345 20-1c35 0 67 12 92 33l-2 9a134 134 0 0 0 -113-32l1-3 1-3" fill="#fff"/></g><g clip-path="url(#a)" transform="scale(1.06 1.2)"><g fill-rule="evenodd"><path d="m240 400h360v-400h-360z" fill="#dc241f"/><path d="m0 400h240v-400h-240z" fill="#006233"/><path d="m245 91.7a98 98 0 1 1 0 196 98 98 0 0 1 0-196" fill="#ffe805"/><path d="m227 226v-1h2v1l-1 1h-1zm0 0h2l-1-1zm3 0v-1h1l-1 1v-1 1h1-1v1zm2 0h-1v-1h1v1h-1zm-1 0h1v-1h-1zm1 0 1 1v-1h-1v-1h2l-1 1v1h-1zm1 0v-1zm1 0v-1h2l-1 1v-1 1h-1l1-1h-1zm3 0h-1v-1h1v1h-1zm-1-1h1zm1 1v-1h1v1-1zm2 0v-2zm0-1h2l-1 1h-1zm1 0v1zm2 1h1a1 1 0 0 1 -1 0h-1v-1h2-1zm1 0v-2zm0 0 1-1v1zm1 0v-1h2v1h-1l1-1h-1c-1 0 0 0 0 0v1-1h-1zm2 0v-1zm0 0 1-1h1v1h-1v-1 1zm3 0h-1v-1h1-1 1zm0-1h-1v1h1zm1 1h-1v-1h1v-1h1zm0-1v1zm1 0h1v1h-1zm0 0v1h1v-1h-1c-1 0 0 0 0 0zm2 1v-1h1-1zm2 0h-1c-1 0 0 0 0 0v-1h1v1l-1-1v1zm-1-1h1zm1 1h1l-1-1h1-1 1v1zm1 1v-2h1v1h-1zm1-1c-1 0-1 0 0 0v-1zm2 0h-1c-1 0 0 0 0 0v-1h1v1h-1zm-1-1h1zm1 0v-1h1zm0 1v-1zm1 0v-1zm1 0h-1 1v-1h-1 1zm0 0h-1zm1 0 1-1v1zm0 0h1v-1zm2 1 1-2 1 1h-1v1-1zm1-1v-1zm1 1v-2h1l-1 1zm1-1v-1l1 1-1 1zm0 0v1-1c1 0 1 0 0 0zm0 1h1v-2 2zm2-1h1l-1 1h-1v-1h1v-1l1 1h-1v1zm2 0v1h-1v-1a1 1 0 0 1 1 0h-1v1zm0 1v-2h1v1h-1zm1-1h1v1h-1zm0 0v1l1-1zm3 1h-1v-1h1v-1zm-1 0h1v-1h-1zm2 0h-1v-1h1v1h-1zm-1 0h1v-1zm4 0-1 1h-1v-1l1-1h1-1v1h-1zm0 0 1-1v2h-1zm0 0v1h1v-1zm1 1 1-2zm2 0h-1v-1 1h1v-1zm0 0v-1h2v1-1h-1v1-1h-1zm2 0 1-1v2zm0 0h1v-1zm2 1-1-1h2l-1-1v1-1h1v2zm0-1v1-1c0-1 0 0 0 0zm1 1v-2 1h1v1-1h-1zm1-1h1v1h-1zm0 0v1h1v-1z"/></g><path d="m299 225-5 9" fill="none" stroke="#dc241f" stroke-linecap="round" stroke-linejoin="round" stroke-width=".9"/><path d="m186 203a59.5 59.5 0 1 0 119 0h-1v-79h-118z" fill="#fff" fill-rule="evenodd"/><path d="m188 203c0 16 6 30 17 40a57 57 0 0 0 97-40v-77h-114zm91-54v59c-1 7-5 14-10 19-6 7-15 10-24 10a34 34 0 0 1 -34-34v-54z" fill="#dc241f" fill-rule="evenodd"/><path d="m237 160v16h-19v15h19v34h16v-34h19v-15h-19v-16z" fill="#000cff" stroke="#000" stroke-width=".4"/></g></g></svg>