<svg height="481" viewBox="0 0 107 80.1" width="641" xmlns="http://www.w3.org/2000/svg"><clipPath id="a"><rect height="80" rx="7.5" width="107" x=".06" y=".06"/></clipPath><g clip-path="url(#a)" transform="matrix(.93 0 0 .93 3.75 2.84)"><g stroke-width=".67" transform="scale(.71 .8)"><path d="m0 0h150v100h-150z" fill="#f93"/><path d="m0 33.3h150v66.7h-150z" fill="#fff"/><path d="m0 66.7h150v33.3h-150z" fill="#128807"/></g></g><path d="m53.4 19.6-7.97 7.84-2.08-2.05-12.6 12.6 1.25 1.25 11.3-11.3.81.8-11.4 11.2c-.019.005-.038.009-.057.014l2.07 2.02c4.26-1.2 8.49-.693 12.9 1.61 3.04 1.48 6.57 2.31 10.2 2.61 3.15.255 6.52-.063 10.4-1.5 2.28-.855 5.18-2.03 6.64-3.29l-1.89-1.86c-.004.003-.009.007-.014.01l-10.5-10.7.989-.977 11.3 11.3 1.25-1.25-12.6-12.6-2.24 2.21zm-.008.934 7.4 7.52-.045.044 1.24 1.26.042-.042 10.4 10.6c-7.29 4.89-17.7 5.05-23.8 2.53-4.74-2.38-7.94-3.29-11-3.25-1.21.013-2.4.171-3.67.442l10.7-10.5.221.218 1.24-1.26-.202-.2zm-16.2 21.4c-.95.015-1.7.133-2.26.246l2.37 2.29c1.67-.636 6.27.015 8.12 1.2 3.71 2.28 7.33 3.11 10.3 3.45 3.96.456 9.55.345 13.4-1.98l-2.3-1.82c-3.78 1.75-7.43 2.34-11 1.97-4.09-.518-8.13-2.29-12.6-4.15-2.35-.891-4.26-1.18-5.74-1.2-.144-.002-.283-.003-.419-.001zm2.27 2.44c-.245-.002-.483.007-.714.024-.383.025-.746.179-1.08.499l1.91 1.96c2.48-.689 3.9-.518 6.55.988 3.01 1.72 3.4 1.82 4.78 2.41 1.98.949 4.47 1.33 7.09 1.59 2.52.096 5.05.199 7.14-.804l-2.1-1.83c-2.49.548-4.91.912-8.33.494-2.49-.223-4.42-1.07-6.23-2.07-1.46-.931-3.23-2.07-5.57-2.69-1.21-.382-2.4-.569-3.46-.575zm2.75 3.17c-.662.011-1.21.171-1.41.603l1.59 1.59c.007-.001.014-.002.021-.004l10.7 10.9 6.16-6.06c.908-.059 1.71-.225 2.39-.473l-1.59-1.61c-3.01.33-5.75.236-8.73-1.19-1.97-1.04-3.3-2.15-5.9-3.12-.682-.23-2.1-.622-3.21-.603zm1.34 2.08c1.61.003 2.88.645 4 1.18 1.65.915 3.26 1.85 5.26 2.64 2.01.754 3.87 1.09 5.47 1.12l-5.19 5.1-9.86-10c.107-.005.214-.009.318-.008z" fill="#192871"/><g transform="matrix(.07 0 0 .07 5.47 30.9)"><path d="m289-468h144v144h-144z" fill="#d40000" transform="matrix(.92 .93 -.93 .92 -12.1 -4.89)"/><path d="m690-121c-5.71.275-11.7-.134-17.2 1.65-1.85 1.06-.562 4.04-1.04 5.93-.669 1.55-2.11 3.65-3.44 4.48-2.13-.366-4.26-.731-6.39-1.1-2.88-4.29-8.01-.751-10.9 1.05-1.53 3.11-5.74 3.76-7 7.14-1.63 2.69-3.59 5.17-5.42 7.73 3.68 3.8 6.55 8.33 9.69 12.6 1.83.322 5.6-.824 3.93 2.15-.909 3.86-1.87 7.89-2.14 11.8 1.93 3.93 3.55 8.09 5.68 11.9 2.28 1.45.583 4.11 2.78 5.41.448 5.88 1.92 11.7.934 17.6-.293 3.39-.587 6.78-.88 10.2-4.35-1.62-9.34 3.36-8.12 7.73 1.35 2.93-2.51 1.81-3.68 3.65-1.2 2.56-1.37 5.76-2.17 8.55-1.11.931-1.84 4.64.533 4.16.8 2.78 1.15 5.82 2.23 8.44 1.65 1.31 3.03 3.26 4.83 4.19 1.96.313 5.06-.825 4.97 2.11.009 2.76 1.8 3.19 4.2 2.82 17.4.206 34.7.413 52.1.619 1.42-2.49 1.99-5.72 4.88-6.95 3.1-2.18 6.87-4.2 8.13-7.99-1.34-3.06 4.05-7.16.306-8.28.565-5.37-5.15-8.6-4.68-13-.722-2.03-2.16-3.68-3.24-5.52-1.77-.683-4.93.427-5.42-1.92-1.08-2.63-2.16-5.26-3.24-7.9 1.83-5.27.997-11.1 2.08-16.3 3.4-7.39 6.81-14.8 10.2-22.2-.615-3.5-2.4-7.12-1.76-10.6.932-3.06 3.56 1.45 4.47-1.57 2.92-3.71 5.84-7.41 8.76-11.1-3.27-2.12-3.34-6.8-4.38-8.85-2.8-1.35-6.59-1.38-8.04-4.57-2.57-6.66-8.82-3.67-12.6-.412-1.7-.02-4.52 2.6-5.39.623-2.29-3.8-3.26-8.15-4.61-12.3-2.7-1.58-5.94-1.77-8.99-1.81zm-6.31 73c1.83.31 4.53-.417 5.63 1.25.454 4.15.037 8.46 1.07 12.5 1.55 3.14.043 6.63.386 9.89-.325 2.04-1.68 4.17-.133 6.08 1.7 2.62-2.03 2.09-3.62 2.6-2.06.409-4.48 1.48-4.26-1.63-.879-2.98.515-5.15-.303-8.86-1.04-3.7.606-7.35.795-11-.321-3.61-.211-7.26.44-10.8zm-26.6 35.4c2.7.611 2.05 3.92 3.22 5.89.733 3.05 1.74 5.12 5.32 4.12 4.07 2.36 5.05-.762 4.24-4.18.664-3.03 6.05-7.4 4.36-1.79-1.03 2.65-.785 5.74-2.3 8.17-2.16.375-4.06.863-3.05 3.46.942 2.19 3.93 2.43 4.43 4.98 1.46 2.07.961 4.3-1.94 3.51-3.3.602-2.6-.554-1.84-3-2.21-2.51-5.59-3.32-8.82-3.6-2.07-1.25-3.89-.461-5.64.916-2.22.353-2.25 2.9-.534 4.05 2.89 1.91-2.86 1.63-2.64-.38-1.06-1.6-1.06-4.66 1.31-4.83.055-2.32-5.07-.8-1.36-3.74 4.02-2.45-.143-5.49-.682-7.72-.053-2.12-.02-4.75 2.45-5.46 1.07-.374 2.34-.225 3.47-.394zm47.5.041c2.08-.766-.438 4.67 2.59 1.77.711-3.71 2.27 1.52 2.31 3.15 1.28 1.48 5.07 1.71 3.43 5.03.695 2.07 4.1-.406 5.09 1.8 1.86 1.23.859 3.9.859 5.75-1.29 1.8 1.54 3.39.231 5.51-1.53 2.31-3.49.375-1.9-1.43-1.11-3.12-1.64 1.65-2.57 2.17-2.63 1.75-3.1-.804-1.34-2.56.665-2.12 4.55-4.01.155-3.27-2.65-.843-3.19 1.31-3.67 3.42.451 1.95-.478 4.06-2.86 3.3-2.05.37-6.61-.251-3.27-2.2.933-2.29 2.3-5.12.201-7.19-.678-2.42-.055-5.18-1.9-7.05 2.38-1.73.41-6.68 2.64-8.21z" fill="#fff"/></g></svg>