<svg height="360.53pt" viewBox="0 0 480.526 360.526" width="480.53pt" xmlns="http://www.w3.org/2000/svg"><clipPath id="a"><rect height="360" rx="33.75" width="480" x=".26" y=".26"/></clipPath><clipPath id="b"><path d="m0 168h756v168h-756z"/></clipPath><clipPath id="c"><path d="m0 336h756v169h-756z"/></clipPath><g clip-path="url(#a)" transform="matrix(.93 0 0 .93 16.89 12.77)"><path d="m0 0h480.526v359.812h-480.526z" fill="#c6363c" fill-rule="evenodd" stroke-width="1.165"/><g clip-path="url(#b)" transform="matrix(.64 0 0 1.43 0 -119.22)"><path d="m0 168h756v168h-756z" fill="#0c4076" fill-rule="evenodd"/></g><g clip-path="url(#c)" transform="scale(.64 .71)"><path d="m0 335h756v169h-756z" fill="#fff" fill-rule="evenodd"/></g><g stroke-miterlimit="22.9"><g transform="matrix(.64 0 0 .71 9.98 1.54)"><g transform="translate(.89 6.99)"><path d="m231-168c4.3.27 8.61.49 12.9.67 4.31.18 8.62.31 12.9.4s8.62.13 12.9.13 8.63-.05 12.9-.15c4.31-.09 8.62-.23 12.9-.41s8.62-.4 12.9-.67" fill="none" stroke="#21231e" stroke-linecap="round" stroke-width=".67" transform="scale(1 -1)"/><path d="m231 168c4.3.27 8.61.49 12.9.67m51.7-.03c4.31-.18 8.62-.4 12.9-.67" fill="none" stroke="#21231e" stroke-linecap="round" stroke-width=".67"/><path d="m169 176h153c27.4 0 52.3 10.6 70.3 27.7s29.2 40.8 29.2 66.8-11.2 49.7-29.2 66.8-42.9 27.7-70.3 27.7h-153z" fill="#c6363c" stroke="#fff" stroke-width="1.33" transform="matrix(0 1 1 0 0 0)"/><path d="m448 177s16.9 16.7 17.6 30.4c.707 13.7-20.4 25.5-20.4 25.5s-37.7-20.4-31.3-32.2 13.7-25.8 13.7-25.8-28.8-2.89-34.1 36.9c-5.23 39.8 5.97 99.6 6.81 112 .844 11.9-2.63 25.4-2.63 25.4s38.7-26.8 43.1-50.5 1.35 30.4-14.8 36.9c-16.2 6.51 30.5 5.66 30.5 5.66l4.31-15 4.81 4.04s-4.15 37.9-11.6 51.3c-7.48 13.4-11.9 31.4 28.6 28.7 40.6-2.66 41.2-13.8 29.6-37.5s-8.86-39.6-6.18-44.7 10.2 20.7 10.2 20.7l24.9-13.1s-13.6-13.4-16.7-31.3 11.6 19.7 21.6 33 25.3 5.84 23.4-36.4 20-71.8-4.96-113c-24.9-41.1-17.9 1.16-17.9 1.16s-9.04 34.7-21.9 44.1c-12.8 9.43-32.7-25.9-15.6-42.2s-9.73-23.4-17-6.47-8.68 29.2-8.68 29.2 4.48-16.7-4.77-35.1-30.7-1.37-30.7-1.37z" fill="#fff" fill-rule="evenodd" stroke="#000" stroke-width=".75" transform="translate(-214 2.3)"/></g><g stroke="#21231e"><g stroke-width=".67" transform="translate(1.52 10.7)"><path d="m-227 178c9.38 1.01 8.93 7.16.16 15.8-1.68 1.66-2.25 1.61-2.61-.12-.63-3.02-3.96-4.8-5.71-2.5-1.19 1.56-.93 2.46-4.89 1.9-5.02 4.21-9.1 7.17-2.54 6.93 2.89-.11 5.11 1.58 8.87 1.43-1.11 2.16-1.31 2.41-1.91 2.6-3.64.72-7.48-1.56-11.2-.88-8.06 1.49 12.9-21.8 12.6-22.7-.66-2.34 5.04-6.55 7.14-2.46z" fill="#edb92e" fill-rule="evenodd" stroke-linejoin="round" transform="scale(-1 1)"/><path d="m227-178c.77-2.21 2.26-4.24 4.44-6.1" fill="none" stroke-linecap="round" transform="scale(1 -1)"/></g><g transform="translate(-211 35.9)"><g fill="#edb92e" fill-rule="evenodd"><path d="m288-344c-.14-1.79.62-4.1 5.4-11.1 5.37-3.47 10.8-6.97 15.2-11.4.71-1.43 1.2-2.54 1.42-3.62.23-1.14-1.02-9.15-1.38-9.3-2.58-2.23-1.42-6.25 1.14-5.27.82-1.1 4.54.66 3.32 2.59-1.12 1.77.8 7.23.35 9.18 1.6-.91 2.09-6.11 1.92-9.68-.25-3.25 3.02-3.43 5.66-2.39 1.16 1.4-.22.3.56.77 2.33 1.19 2.43 4.32.33 4.68-2.17.37-4.09 8.27-5.63 9.6 3.15-1.79 5.85-5.35 8.9-7.33 1.51-1.91 1.73-2.99 5.46-1.2.01 2.47-.62 2.7.99 4.03.04 3.39-.89 4.05-3.61 3.83-2.88-.24-7.67 2.71-9.01 3.67-1.24.88-2.59 1.22-3.33 2.01-1.29 1.39-3.47 7.51-2.5 8.89 1.79 2.55 1.16 4.73-1.45 5.39-.79-.8-4.47.32-4.86-1.55-.31-1.52.05-2.5 1.04-4.05 1.55-2.45 2.39-3.71 2.1-4.42-.69-1.68-2.5 3.5-7.82 8.65-7.37 7.14-11.4 8.05-14.2 8.1z" stroke-linejoin="round" stroke-width=".66" transform="matrix(-.12 1 -1 -.12 212 -19.8)"/><path d="m297-392c-1.63-2.02-1.77-3.3-.94-4.3.46-.55.09-1.11-.69-.64-3.26 1.99-3.34 4.41-1.39 6.27.63.51 1.18.91 1.71 1.31.47-.43.94-2.3 1.3-2.64z" stroke-width=".66" transform="matrix(-.15 1 -1 -.15 212 -19.8)"/><path d="m273 376c-1.06-2.65-.91-4.87.22-5.87.62-.55.41-1.27-.51-.86-3.86 1.67-4.63 4.44-3.2 6.97.5.7.93 1.28 1.35 1.85.95-.55 2.18-1.96 2.13-2.08z" stroke-width=".65" transform="matrix(-.21 1 .99 .21 212 -19.8)"/><path d="m383 313c1.88 2.62 2.95 4.45 2.57 6.07-.23.95.31 1.7 1.1.79 3.18-3.71 2.63-7.32-.11-9.4-.91-.69-1.83-1.09-2.67-1.57-.82 1.04-.98 3.99-.89 4.12z" stroke-width=".66" transform="matrix(1 .16 -.16 1 212 -19.8)"/><path d="m186-422c-.02-2.22.7-3.3 2.03-3.78.73-.27.8-.86-.15-.77-6.36-.03-6.34 2.79-4.67 6.17 1.02-.2 2.78-1.53 2.78-1.63z" stroke-width=".61" transform="matrix(-.42 1 -1 -.43 212 -19.8)"/><path d="m288-344c-.14-1.79.62-4.1 5.4-11.1 5.37-3.47 10.8-6.97 15.2-11.4.71-1.43 1.2-2.54 1.42-3.62.23-1.14-1.02-9.15-1.38-9.3-2.58-2.23-1.42-6.25 1.14-5.27.82-1.1 4.54.66 3.32 2.59-1.12 1.77.8 7.23.35 9.18 1.6-.91 2.09-6.11 1.92-9.68-.25-3.25 3.02-3.43 5.66-2.39 1.16 1.4-.22.3.56.77 2.33 1.19 2.43 4.32.33 4.68-2.17.37-4.09 8.27-5.63 9.6 3.15-1.79 5.85-5.35 8.9-7.33 1.51-1.91 1.73-2.99 5.46-1.2.01 2.47-.62 2.7.99 4.03.04 3.39-.89 4.05-3.61 3.83-2.88-.24-7.67 2.71-9.01 3.67-1.24.88-2.59 1.22-3.33 2.01-1.29 1.39-3.47 7.51-2.5 8.89 1.79 2.55 1.16 4.73-1.45 5.39-.79-.8-4.47.32-4.86-1.55-.31-1.52.05-2.5 1.04-4.05 1.55-2.45 2.39-3.71 2.1-4.42-.69-1.68-2.5 3.5-7.82 8.65-7.37 7.14-11.4 8.05-14.2 8.1z" stroke-linejoin="round" stroke-width=".66" transform="matrix(.12 1 1 -.12 753 -21.5)"/><path d="m297-392c-1.63-2.02-1.77-3.3-.94-4.3.46-.55.09-1.11-.69-.64-3.26 1.99-3.34 4.41-1.39 6.27.63.51 1.18.91 1.71 1.31.47-.43.94-2.3 1.3-2.64z" stroke-width=".66" transform="matrix(.15 1 1 -.15 753 -21.5)"/><path d="m273 376c-1.06-2.65-.91-4.87.22-5.87.62-.55.41-1.27-.51-.86-3.86 1.67-4.63 4.44-3.2 6.97.5.7.93 1.28 1.35 1.85.95-.55 2.18-1.96 2.13-2.08z" stroke-width=".65" transform="matrix(.21 1 -.99 .21 753 -21.5)"/><path d="m383 313c1.88 2.62 2.95 4.45 2.57 6.07-.23.95.31 1.7 1.1.79 3.18-3.71 2.63-7.32-.11-9.4-.91-.69-1.83-1.09-2.67-1.57-.82 1.04-.98 3.99-.89 4.12z" stroke-width=".66" transform="matrix(-1 .16 .16 1 753 -21.5)"/><path d="m186-422c-.02-2.22.7-3.3 2.03-3.78.73-.27.8-.86-.15-.77-6.36-.03-6.34 2.79-4.67 6.17 1.02-.2 2.78-1.53 2.78-1.63z" stroke-width=".61" transform="matrix(.42 1 1 -.43 753 -21.5)"/></g><path d="m518 206v61.1c0 10.9-4.24 20.9-11.1 28s-16.3 11.6-26.6 11.6-19.8-4.46-26.6-11.6-11.1-17.1-11.1-28v-61.1z" fill="#c6363c" stroke-width="1.3"/></g><g stroke-width=".67" transform="matrix(-1 0 0 1 536.38 11.6)"><path d="m-227 178c9.38 1.01 8.93 7.16.16 15.8-1.68 1.66-2.25 1.61-2.61-.12-.63-3.02-3.96-4.8-5.71-2.5-1.19 1.56-.93 2.46-4.89 1.9-5.02 4.21-9.1 7.17-2.54 6.93 2.89-.11 5.11 1.58 8.87 1.43-1.11 2.16-1.31 2.41-1.91 2.6-3.64.72-7.48-1.56-11.2-.88-8.06 1.49 12.9-21.8 12.6-22.7-.66-2.34 5.04-6.55 7.14-2.46z" fill="#edb92e" fill-rule="evenodd" stroke-linejoin="round" transform="scale(-1 1)"/><path d="m227-178c.77-2.21 2.26-4.24 4.44-6.1" fill="none" stroke-linecap="round" transform="scale(1 -1)"/></g></g></g><path d="m415 91.3c44.4-25.8 82.9-27.2 126-6.85 28 13.8 40.3 12.5 28.9 40.9l-18.9 47h-135l-19-47.7c-12.8-22.7 2.68-24.8 19-33.3z" fill="#edb92e" stroke="#070c00" stroke-width="1.07" transform="matrix(.64 0 0 .71 -122.04 -5.94)"/></g></g></svg>