<svg height="481" viewBox="0 0 641 481" width="641" xmlns="http://www.w3.org/2000/svg" xmlns:xlink="http://www.w3.org/1999/xlink"><clipPath id="a"><rect height="480" rx="45" width="640" x=".35" y=".35"/></clipPath><g clip-path="url(#a)" transform="matrix(.93 0 0 .93 22.5 17)"><g stroke-width="1.63" transform="matrix(.74 0 0 .74 11.5 -127)"><g stroke-width="1.81"><path d="m-83.5 162h999v666h-999z" fill="#3e5eb9"/><path d="m-83.5 286h999v417h-999z" fill="#ffd900"/><path d="m-83.5 328h999v333h-999z" fill="#b10c0c"/></g><g fill="#ffd900" stroke="#000" stroke-width="1.01" transform="matrix(1.66 0 0 1.67 -83.5 162)"><g id="b"><path d="m493 154-24.3 8.57 24.3 8.57 24.3-8.57z" fill="#fff"/><rect height="5.71" rx="3.11" ry="2.86" width="357" x="123" y="160"/></g><use height="100%" width="100%" x="-23.27" xlink:href="#b" y="17.15"/><rect height="8.57" rx="4.22" ry="4.29" stroke-width="1.08" width="486" x="59.8" y="196"/></g><path d="m654 495c-47.5 47.6-111 143-238 143-111 0-190-95.2-238-143 47.6-47.6 127-143 238-143 127 0 190 95.2 238 143z" fill="#fff" stroke="#000" stroke-width="1.68"/><path d="m399 402c12.7 14.2 2.09 20 15.5 20.9 14.1 1.04 6.12 15.1 18 15.5 8.3.363-.829 33.6 7.16 44.5 8.14 11.4 15 3.35 15.1 11.6.141 8.54-22.2 7.68-22.6 34-.655 15.2-18.8 16.1-19.7 25.9-1.08 9.17 35.8 14.3 35.3 22.5-.506 8.19-39.8 6.9-41.5 16.2-.877 8.39 54 15.3 58.4 39.5-8.19 2.68-31.5 5.2-49.1 5.22-111 .08-190-95.2-238-143 47.6-47.6 127-143 238-143 0 0-32.9 30.1-16.6 49.7z" stroke-width="1.81"/><g stroke="#fff" transform="matrix(1.66 0 0 1.67 -83.5 162)"><g id="c" stroke-width="6.93"><path d="m214 192v-22.9m13.8 0v22.9m13.9-22.9v22.9"/><path d="m214 230v-22.9m13.8 0v22.9m13.9-22.9v22.9"/><g transform="translate(41.6)"><path d="m214 192v-22.9m13.8 0v22.9m13.9-22.9v22.9"/><path d="m214 230v-22.9m13.8 0v22.9m13.9-22.9v22.9"/></g></g></g><use height="100%" stroke="#000" transform="matrix(1.66 0 0 1.67 -83.5 162)" width="100%" x="104.76" xlink:href="#c"/><g transform="matrix(1.11 0 0 1.11 -83.5 162)"><path d="m767 295c-6.49 11.2 4.98-3.74 33 15.1 5.19 3.5 9.72 12.7 9.72 19.1-1.32-.881-2.3-2.84-3.74-4.12-2.03 2.04 1.94 11.4 2.52 15.8-4.38-2.45-3.96-3.61-5.41-6.62.29 3.64-.751 13.7.99 17.5-3.45-.986-3.22-3.76-5.02-4.32 1.22 4.37-1.07 9.12-.46 14-2.02-2-4.16-3.56-5.1-4.36-.157 2.34-3.88 8.48-3.96 10.7-1.71-1.03-2.18-2.64-2.46-3.73-2.13 2.67-9.68 12.5-10.2 15.5-5.82-5.14-20.7-17.7-22.7-24.3-1.72 3.77-4.2 5.05-9.11 7.8-1.94-10.5-9.19-22.4-5.31-31.4-2.75 1.63-5.01 3.26-7.76 5.27 2.6-15.3 15.9-33.1 35-42z" fill="#333" stroke="#000" stroke-width="1.28"/><path d="m743 351c2.7-5.39 5.18-7.1 6.92-10.6 3.08-6.1 3.52-10.9 6.2-10.2 2.68.711 2.68 3.21-.795 9.2-3.47 6-5.12 7.28-12.3 11.6zm18.2 12.8c-.347-4.1.843-5.82.627-8.46-.37-4.65-2.27-7.84.201-8.07 2.47-.226 3.63 1.36 3.63 6.04.008 4.68-.717 5.92-4.46 10.5zm13.8 8.04c-1.08-5.73-.271-8.27-.963-12-1.2-6.49-3.58-10.8-1.29-11.4s3.67 1.51 4.54 8.09c.868 6.58.41 8.39-2.28 15.2zm14.4-40.1c-3.38-2.56-5.35-2.74-7.53-4.38-3.84-2.89-5.78-5.98-7.01-4.45-1.23 1.54-.358 3.22 3.66 5.88 4.02 2.67 5.38 2.88 10.9 2.95zm-2.38 19c-1.78-3.7-3.65-4.64-4.81-7.01-2.04-4.18-2.04-7.8-4.25-6.87s-2.38 2.82-.024 6.87c2.36 4.05 3.6 4.78 9.08 7.02z" fill="#b3b3b3"/><path d="m121 306c-.363-3.27.338-3.67-1.68-6.14 2.93 1.23 3.04 4.49 6.61 2.17 1.31-.678 1.88-.7.289-4.34 3.72.173 15.9 4.35 17.8 4.44 5.12.236 14.5-5.38 21 1.52 6.23 6.29 4.15 12.8 4.15 21.5-2.5-1.2-1.3-1.79-3.95-4.91 1.99 7.62-.106 21.4-.106 29.4-1.02-1.95-.872-1.1-1.87-3.12-2.66 7.38-5.84 8.89-5.84 17.6-.958-3.42-.033-2.7-1.1-4.49-2.58 5.6-19.9 10.4-13.2 16-6.02-3.53-8.66-3.16-11.4-6.33-1.18.759-2.11 2.2-3.2 4.16-10.6-4.87-6.8-15.4-15.1-22.4-1.44 2.94-.781 2.52-2.33 7.3-1.68-6.65-2.14-10.9-4.03-15.8-1.63 2.71-1.48 1.67-4.44 5.77-1.22-8.1-3.22-10-2.43-15.4-3.14 2.22-1.09 1.32-4.23 4.05 2.98-20.8 15.8-36.1 25.1-31.2z" fill="#333" stroke="#000" stroke-width="1.6"/><path d="m108 340c2.73-6.68 5.19-8.78 6.95-13.1 3.11-7.56 3.62-13.6 6.23-12.7 2.62.922 2.57 4.04-.925 11.5-3.5 7.43-5.14 9.01-12.3 14.3zm10.3 16.7c1.09-5.99 2.82-8.18 3.53-12 1.26-6.79.557-11.8 2.99-11.6 2.43.266 2.98 2.83 1.36 9.58s-2.73 8.35-7.88 14zm12.4 11.6c.308-5.81 1.67-8.08 1.87-11.8.369-6.58-.898-11.3 1.42-11.3s3.14 2.34 2.43 8.93-1.57 8.23-5.73 14.2zm26.5-38c-5.07-5.05-8.14-6-11.4-9.24-5.76-5.71-8.55-11.1-10.6-9.16-2.05 1.9-.817 4.75 5.25 10.2 6.07 5.43 8.18 6.22 16.8 8.23zm-3.09 19.5c-3.3-5.07-5.73-6.39-7.86-9.65-3.76-5.74-5.05-10.7-7.18-9.44-2.13 1.22-1.66 3.8 2.42 9.36s5.71 6.58 12.6 9.74z" fill="#b3b3b3"/><path d="m381 194c-5.94 11.5 10.4-3.82 36 15.4 4.74 3.57 11.5 17.7 11.5 24.2-5.45-1.16-15.1-6.54-15.1-6.54s11.3 11.3 11.3 24.4c-4-2.5-6-2.13-7.34-5.2 0 4.23 3.56 6.93 3.56 13.5a52.9 52.9 0 0 0 -7.78-5.19c3.78 6.54-6.88 19.2-1.55 23.5-9.33-1.35-18.9-7.31-22.6-13.8-2 1.35-2.22 3.47-2.3 5.72.294.245-14.2-10.8-12.9-15-1.94 2.73-2.22 4.23-2.66 7.3-5.32-5.25-10.2-10.5-12-17.3-2.36 3.07-2.51 3.07-4.88 6.15-1.77-10.8-1.77-10.4 1.78-19.6-2.51 1.66-4.58 3.33-7.1 5.38 2.38-15.6 14.5-33.8 32-42.9z" fill="#333" stroke="#000" stroke-width="1.24"/><path d="m366 250c.95-7.91 3.02-10.9 3.64-16 1.1-8.96-.206-15.5 2.97-15.3 3.18.165 4.09 3.47 2.52 12.4-1.57 8.94-2.89 11.1-9.13 18.9zm16.6 14.5c-.643-6.68.59-9.52.18-13.8-.705-7.57-3.04-12.7-.274-13.2 2.77-.471 4.17 2.07 4.46 9.71.299 7.64-.441 9.68-4.37 17.3zm25.9 11.8c-2.81-5.78-5.23-7.5-7.05-11.2-3.21-6.53-3.88-11.9-6.35-10.9-2.48.968-2.34 3.73 1.24 10.1 3.57 6.4 5.19 7.7 12.2 12zm8.96-51.7c-7.17-3.77-10.8-3.82-15.5-6.24-8.13-4.25-12.9-9.05-14.5-6.41-1.68 2.64.562 5.27 8.95 9.14s11 4.05 21.1 3.52zm2.62 21.6c-5.22-4.34-8.3-4.98-11.7-7.77-5.93-4.9-8.88-9.71-10.9-7.76-1.98 1.95-.657 4.53 5.57 9.14 6.22 4.62 8.35 5.19 17 6.39z" fill="#b3b3b3"/></g></g></g></svg>