<svg height="481" viewBox="0 0 641 481" width="641" xmlns="http://www.w3.org/2000/svg" xmlns:xlink="http://www.w3.org/1999/xlink"><clipPath id="a"><rect height="480" rx="45" width="640" x=".35" y=".35"/></clipPath><g clip-path="url(#a)" transform="matrix(.93 0 0 .93 22.5 17)"><g transform="matrix(.74 0 0 .74 11.5 -127)"><path d="m-166 166h1163v661h-1163z" fill="#da121a" stroke-width=".969"/><path d="m-166 827v-661l500 331" fill="#fcdd09" stroke-width=".969"/><g transform="matrix(170 55.4 -55.4 171 610 497)"><g id="b"><path id="c" d="m0 0v1h.5z" fill="#fcdd09" transform="matrix(.95 .31 -.31 .95 0 -1)"/><use height="100%" transform="scale(-1 1)" width="100%" xlink:href="#c"/></g><use height="100%" transform="matrix(.31 .95 -.95 .31 0 0)" width="100%" xlink:href="#b"/><use height="100%" transform="matrix(.31 -.95 .95 .31 0 0)" width="100%" xlink:href="#b"/><use height="100%" transform="matrix(-.81 .59 -.59 -.81 0 0)" width="100%" xlink:href="#b"/><use height="100%" transform="matrix(-.81 -.59 .59 -.81 0 0)" width="100%" xlink:href="#b"/></g></g></g></svg>