<svg height="481" viewBox="0 0 641 481" width="641" xmlns="http://www.w3.org/2000/svg"><clipPath id="a"><rect height="480" rx="45" width="640" x=".35" y=".35"/></clipPath><g clip-path="url(#a)" transform="matrix(.93 0 0 .93 22.5 17)"><g transform="matrix(.74 0 0 .74 11.5 -127)"><g stroke-width="1.1"><path d="m-80 177h496v661h-496z"/><path d="m416 177h496v661h-496z" fill="#039" fill-rule="evenodd"/><path d="m416 398h496v220h-496z" fill="#fff" fill-rule="evenodd"/><path d="m-80 184h496v227h-496z" fill="#fff"/><path d="m-80 177h496v207h-496z" fill="#007168"/><path d="m-80 618h496v228h-496z" fill="#fff"/><path d="m-80 639h496v207h-496z" fill="#fce100"/><path d="m421 411c-1.99 0-3.87.043-5.68.108v6.29c7.54.815 8.63 3.44 2.96 7.62-1.37 1.01-2.33 1.76-2.96 2.36v2.28c.628.393 1.6.806 2.98 1.34 2.94 1.14 4.58 3.3 3.65 4.81-.596.963-3.21 1.76-6.63 2.19v6.88c12.2-.853 14.5-2.1 14.5-6.61 0-4.2 2.16-5.85 7.65-5.85s7.65 1.65 7.65 5.85c0 5.02 2.69 6 18.9 6.89 15.9.875 19.1.201 20.2-4.32 2.03-7.79 8.86-6.57 8.57 1.53-.209 5.93 2.25 7.48 17.8 11.2 17.4 4.14 18.2 4.06 23.1-2.43 5.33-7.07 9.41-5.85 9.41 2.83 0 3.48 5.49 7.2 16.8 11.4 14.1 5.2 17.3 5.51 20.3 1.96 5.18-6.24 8.87-5.13 8.88 2.67.005 4.24 3.53 9.24 9.17 13 5.04 3.37 9.16 6.98 9.17 8.02.005 1.05-7.11 2.85-15.8 4-24.4 3.23-70.6 15.2-111 28.7-20.2 6.73-38.8 12.9-41.3 13.8-2.46.821-13-1.49-23.7-5.14v40.8c15.4-5.6 26.3-8.2 31.1-7.15 13.1 2.87 43.8 16.3 58.3 25.5 20 12.7 24.8 14.8 41.2 18.3 20.3 4.35 48.4 4.3 61.6-.113 11.6-3.87 27.2-17 27.2-22.9 0-7.04-22.6-22.5-42.7-29.2-26.1-8.74-42.7-8.7-69.8.158-21.8 7.12-22.5 7.16-36.2 1.92-7.69-2.94-12.8-6.49-11.4-7.88 12.4-12.3 113-39.7 166-45.5 17.7-1.9 37.2-4.25 43.5-5.22 8.55-1.34 13.5-.215 20.2 4.57 13.8 9.84 30.2 11.2 47.3 3.84 8.1-3.49 14.5-8.29 14.5-10.9 0-10.2-12.4-12.5-67.3-12.5-29.5 0-55.3-1.12-57.4-2.48-2.74-1.77-2.96-4.12-.764-8.22 4.33-8.09 4.58-7.71-11.5-17.3-22.1-13.2-24.7-13.9-28.4-7.07-5.11 9.56-12.4 7.69-10.3-2.65 1.59-7.96.656-9.06-11.5-13.5-24.7-9.05-26.4-9.19-28.5-2.43-3.06 9.64-11.4 7.99-10.2-2.02.867-7.28-.292-8.52-9.73-10.4-32.2-6.32-32.8-6.31-34.5.201-.89 3.41-3.77 6.19-6.4 6.19-3.13 0-4.13-1.7-2.9-4.9 2.77-7.22-4.47-10.3-24.3-10.4-15.6-.041-17.6.656-17.6 6.08 0 4.08-2.04 6.12-6.12 6.12s-6.12-2.04-6.12-6.12c0-5.07-2.04-6.12-11.9-6.12zm45.5 6.12c6.73 0 12.2 1.38 12.2 3.06s-2.07 3.06-4.59 3.06-4.59 2.07-4.59 4.59c0 2.53 1.38 4.59 3.06 4.59s3.06 1.38 3.06 3.06c0 3.99-14.4 3.99-16.8 0-1.04-1.68-1.1-4.35-.13-5.91.968-1.57.361-3.72-1.35-4.77-6.72-4.15-2.52-7.68 9.13-7.68zm43.3 6.18c1.59-.002 3.97.362 7.38.917 14.5 2.36 16.5 4.58 8.96 10.3-4.25 3.26-4.94 5.13-2.27 6.13 2.11.792 3.07 2.7 2.12 4.24-1.78 2.89-8.08 3.14-17.4.69-5.87-1.53-7.4-7.07-1.96-7.07 2.14 0 2.64-2.99 1.36-8.08-1.35-5.4-1.65-7.17 1.85-7.17zm57.6 15.9c2.47.094 5.34.772 8.32 2.13 7.31 3.33 7.5 3.94 2.86 9.06-2.73 3.02-4.97 7.11-4.97 9.08 0 4.16-2.01 4.24-11.5.43-7.1-2.86-9.5-9.09-3.5-9.09 1.86 0 2.57-2.12 1.58-4.71-1.72-4.48 1.74-7.11 7.17-6.9zm43.1 20.8c2.8 0 14.6 5.21 17.6 7.82.561.474-1.85 3.73-5.35 7.24-3.51 3.51-7.41 6.34-8.67 6.28-4.01-.17-14.3-9.09-10.5-9.09 2 0 3.65-2.76 3.65-6.12 0-3.37 1.47-6.12 3.26-6.12zm-44.6 98.1-15.3 4.78c-8.42 2.63-17.3 6.7-19.7 9.04-3.8 3.69-3.71 4.99.659 9.83 12.8 14.2 64.5 22.2 82.1 12.8 9.58-5.13 10.5-1.07 1.19 5.06-10.9 7.17-35.9 8.35-56.6 2.67-18.9-5.17-40.8-19-42.2-26.6-1.45-7.54 11-13.7 31.5-15.8z"/><path d="m-80 177v661l434-331z" fill="#d21034"/></g><path d="m150 588-54.1-39.6-54 39.7 21-63.8-54.4-39.2 67.1.246 20.4-63.9 20.5 63.9 67-.298-54.4 39.3z" fill="#fce100" stroke-width=".74"/></g></g></svg>