<svg height="481" viewBox="0 0 641 481" width="641" xmlns="http://www.w3.org/2000/svg"><clipPath id="a"><rect height="480" rx="45" width="640" x=".35" y=".35"/></clipPath><g clip-path="url(#a)" transform="matrix(.93 0 0 .93 22.5 17)"><g stroke-width="1.61" transform="matrix(.74 0 0 .74 11.5 -127)"><path d="m-68.3 171h968v646h-968z" fill="#090"/><path d="m-68.3 171h968v452h-968z" fill="#fff"/><path d="m-68.3 397h968v194h-968z"/><g fill="#ff0"><path d="m-68.3 171h968v194h-968z"/><path d="m335 413q80.7 12.9 161 0v51.7q-80.7 25.8-161 0z"/><path d="m361 574 32.3-113h45.2l32.3 113h29l-32.3-113h-103l-32.3 113z"/></g></g></g></svg>