<svg height="481" viewBox="0 0 641 481" width="641" xmlns="http://www.w3.org/2000/svg"><clipPath id="a"><rect height="480" rx="45" width="640" x=".35" y=".35"/></clipPath><g clip-path="url(#a)" transform="matrix(.93 0 0 .93 22.5 17)"><g stroke-width="1.63" transform="matrix(.74 0 0 .74 11.5 -127)"><path d="m-19.2 169h328v328h-328" fill="#fff55f"/><g fill="#606"><path d="m-19.2 494h325v-325h650v650h-975z"/><path d="m143 223c-59.8 0-108 48.5-108 108s48.5 108 108 108c59.8 0 108-48.5 108-108 0-59.9-48.5-108-108-108zm101 105h-44.9c-.412-16.6-3.36-32.4-8.59-46.9 10.1-4.22 19.4-9.83 28-16.5 15.1 17 24.6 39.1 25.5 63.4zm-105 105c-12.4-10.4-22.9-23.8-30.5-39.5 9.8-3.06 20.2-4.74 30.9-5.08v44.6c-.135 0-.262-.008-.397-.015zm8.26-202c14.1 11.8 25.6 27.5 33.4 45.9-10.7 3.65-22 5.77-33.8 6.14v-52c.142.008.262.015.389.023zm12.5 1.27c20.7 3.44 39.2 13.1 53.6 27.1-7.84 6.01-16.4 11.1-25.7 15-6.81-16.2-16.4-30.4-28-42zm-20.3-1.3v52c-11.8-.382-23.2-2.49-33.8-6.14 7.79-18.4 19.3-34.1 33.4-45.9.135-.008.254-.015.389-.022zm-40.8 43.3c-9.24-3.86-17.8-8.95-25.7-15 14.4-14 33-23.6 53.6-27.1-11.6 11.6-21.2 25.9-28 42zm4.18 9.47c11.5 4.01 23.8 6.34 36.6 6.73v37.6h-44.8c.404-15.7 3.18-30.7 8.11-44.4zm36.6 51.9v45.1c-11.8.359-23.2 2.29-34 5.76-6.48-15.4-10.3-32.6-10.8-50.9zm-12.9 95.9c-18.5-3.08-35.3-11.1-49-22.9 7.37-5.11 15.3-9.44 23.9-12.7 6.53 13.5 15.1 25.6 25.1 35.6zm20.3 1.3v-44.6c10.7.344 21.1 2.02 30.9 5.08-7.64 15.6-18.1 29.1-30.5 39.5-.127 0-.262.008-.397.015zm38-36.9c8.51 3.29 16.5 7.62 23.9 12.7-13.7 11.7-30.5 19.8-49 22.9 10.1-10 18.6-22 25.1-35.6zm-4-9.41c-10.8-3.47-22.2-5.4-34-5.76v-45.1h44.8c-.472 18.2-4.3 35.4-10.8 50.9zm-34-58.4v-37.6c12.8-.389 25.1-2.72 36.6-6.73 4.92 13.7 7.7 28.7 8.11 44.4h-44.8zm-79.1-63.4c8.52 6.63 17.9 12.2 28 16.5-5.23 14.5-8.18 30.4-8.59 46.9h-44.9c.898-24.3 10.4-46.4 25.5-63.4zm-25.5 70.9h44.9c.464 19.1 4.46 37.2 11.2 53.4-9.48 3.7-18.3 8.63-26.5 14.5-17.6-17.5-28.7-41.4-29.6-67.9zm172 67.9c-8.16-5.83-17-10.8-26.5-14.5 6.8-16.2 10.8-34.3 11.3-53.4h44.9c-.98 26.5-12.1 50.4-29.6 67.9z"/></g></g></g></svg>