<svg viewBox="0 0 642 482" xmlns="http://www.w3.org/2000/svg" xmlns:xlink="http://www.w3.org/1999/xlink"><clipPath id="a"><rect height="480" rx="45" width="640" x="1" y="1"/></clipPath><g clip-path="url(#a)" transform="matrix(.93 0 0 .93 23 17)"><path d="m0 0h642v482h-642z" fill="#fff"/><path d="m0 45h642v75h-642zm0 317h642v75h-642z"/><g transform="scale(.97 1)"><path d="m231 173a99 99 0 1 0 198 0h-9a90 90 0 1 1 -180 0z"/><path d="m259 173a71 71 0 1 0 142 0h-10a61 61 0 1 1 -122 0z"/><path d="m288 173a42 42 0 1 0 84 0h-10a32 32 0 1 1 -64 0z"/><path d="m279 318v6h102v-6l-46-11v-141h-10v141z"/><g id="b"><path id="c" d="m223 161h24l-7 10h-9z"/><use height="100%" width="100%" x="29" xlink:href="#c"/><use height="100%" width="100%" x="58" xlink:href="#c"/></g><use height="100%" width="100%" x="95" xlink:href="#c" y="-7"/><use height="100%" width="100%" x="132" xlink:href="#b"/></g></g></svg>