<svg viewBox="0 0 641 481" xmlns="http://www.w3.org/2000/svg"><clipPath id="a"><rect height="480" rx="45" width="640"/></clipPath><clipPath id="b"><path d="m-85 0h682v512h-682z"/></clipPath><g clip-path="url(#a)" transform="matrix(.93 0 0 .93 23 17)"><g clip-path="url(#b)" fill-rule="evenodd" transform="matrix(.94 0 0 .94 80 0)"><path d="m-128 0h768v512h-768z" fill="#fff"/><path d="m-128 0v513l513-513z" fill="#1a91ea"/><path d="m640 512v-513l-513 513z" fill="#4d9e1a"/><path d="m255 175c-2 0-3 21-5 22-13 4-23 17-23 44 0 17 4 33 11 44v24h35v-23c7-11 11-27 11-45 0-28-10-41-24-45l-3-21z" fill="#e9cc00"/><path d="m214 200-3 2c-31 19-52 63-31 93 11 19 36 29 59 32h5l-2 6c1 1 4 6 4 2 0-5 6-11 10-14 4 3 10 9 10 14 0 4 3-1 4-2l-2-6h5c23-3 48-13 59-32 21-30 0-74-31-93-6-7-6 3-4 6 12 18 31 57 6 76-6 9-23 12-38 17-6 2-8 6-9 8-1-2-3-6-9-8-15-5-32-8-38-17-25-19-6-58 6-76 1-2 2-9-1-8z" fill="#ee4a3d"/><path d="m272 127-12-4-7 11-3-12-13-1 9-9-6-11 12 4 7-11 3 12 13 1-9 9zm-5 289-12-3-7 10-3-12h-12l8-9-5-11 12 3 7-10 3 12h12l-9 9zm159-147-12-4-7 11-3-12-13-1 9-9-5-11 12 4 7-11 3 12 12 1-9 9zm-313-1-12-4-7 11-3-12-12-1 9-9-6-11 12 3 7-10 3 12 12 1-9 9zm257-102-12-3-7 10-3-12h-13l9-9-5-11 12 3 6-10 4 12 12 1-9 8zm-216 199-12-4-7 11-3-12-12-1 9-9-6-11 12 3 7-10 3 12 13 1-9 9zm223 7-12-4-7 11-3-12-13-1 9-9-6-11 13 3 6-10 3 12 13 1-9 8zm-220-201-12-3-7 10-3-12-13-1 9-9-6-11 12 4 7-11 3 12 13 1-9 9zm53-30-12-3-6 10-4-12-12-1 9-8-6-11 12 3 7-11 3 13h13l-9 9zm-82 78-12-3-7 10-3-12-13-1 9-8-5-12 12 4 7-11 3 13h12l-9 9zm-1 101-12-3-7 10-3-12-13-1 9-8-5-12 12 4 7-11 3 12 12 1-9 9zm81 80-12-3-7 10-3-12-12-1 9-8-6-11 12 3 7-10 3 12h12l-8 9zm117 5-12-4-7 11-3-12-12-1 9-9-6-11 12 4 7-11 3 12 12 1-9 9zm87-82-12-3-7 10-3-12h-12l9-9-6-11 12 3 7-10 3 12 12 1-9 8zm-6-111-12-3-7 10-3-12-12-1 9-8-6-11 12 3 7-10 3 12h13l-9 9zm-83-74-12-4-7 11-3-12-13-1 9-9-5-11 12 3 7-10 3 12 12 1-9 9z" fill="#fff000"/></g></g></svg>