<svg height="480.7" viewBox="0 0 21.357 16.023" width="640.7" xmlns="http://www.w3.org/2000/svg" xmlns:xlink="http://www.w3.org/1999/xlink"><defs><path id="a" d="m0-1 .59 1.81-1.54-1.12h1.9l-1.54 1.12z" fill="#ffde00"/><clipPath id="b"><rect height="16" rx="1.5" width="21.33" x=".01" y=".01"/></clipPath></defs><g clip-path="url(#b)" transform="matrix(.93 0 0 .93 .75 .57)"><path d="m0 0h21.357v16.023h-21.357z" fill="#de2910" stroke-width=".755"/><use height="100%" transform="matrix(2.14 0 0 2.4 3.56 4.01)" width="100%" xlink:href="#a"/><use height="100%" transform="matrix(.65 .31 -.28 .74 7.12 1.6)" width="100%" xlink:href="#a"/><use height="100%" transform="matrix(.5 .58 -.51 .56 8.54 3.2)" width="100%" xlink:href="#a"/><use height="100%" transform="matrix(.24 .75 -.67 .27 8.54 5.61)" width="100%" xlink:href="#a"/><use height="100%" transform="matrix(.67 .28 -.25 .75 7.12 7.21)" width="100%" xlink:href="#a"/></g></svg>