<svg viewBox="0 0 126 84" xmlns="http://www.w3.org/2000/svg"><linearGradient id="a" gradientTransform="matrix(1 0 0 .77 -.7 -7.4)" gradientUnits="userSpaceOnUse" spreadMethod="reflect" x1="52" x2="29" y1="100.6" y2="26"><stop offset="0"/><stop offset="1" stop-color="#787878"/></linearGradient><linearGradient id="b" gradientUnits="userSpaceOnUse" spreadMethod="reflect" x1="32.5" x2="31.6" y1="37" y2="15.9"><stop offset="0" stop-color="#555"/><stop offset="1" stop-color="#fff"/></linearGradient><linearGradient id="c" gradientUnits="userSpaceOnUse" spreadMethod="reflect" x1="58.7" x2="52.5" y1="43.7" y2="23.6"><stop offset="0" stop-color="#fff800"/><stop offset="1" stop-color="#fffeec"/></linearGradient><linearGradient id="d" gradientUnits="userSpaceOnUse" spreadMethod="reflect" x1="69.7" x2="67.9" y1="71" y2="47.7"><stop offset="0" stop-color="#f4e800"/><stop offset="1" stop-color="#fff"/></linearGradient><rect fill="url(#a)" height="75.2" ry="5.7" stroke="#000" stroke-width=".8" width="115.2" x="5.4" y="4.4"/><path d="m18 4c-2.3 0-4.2 1.7-4.2 3.7v19.3c0 2 3.4 4 3.4 4-.4 3-2 4-.5 6.2.9 1 15.8-6.6 15.8-6.6h16.5c2.3 0 4.2-1.6 4.2-3.6v-19.3c0-2-1.9-3.7-4.2-3.7zm0 2.5h31c.8 0 1.4.5 1.4 1.2v19.3c0 .7-.6 1.2-1.4 1.2h-17.3l-13.4 6.2 2-4.6c-1.3-.7-3-2.2-3.7-2.8v-19.3c0-.7.7-1.2 1.5-1.2zm14.7 2.2v3.2h-6.2v3.1h9a16 16 0 0 1 -1.2 1.9l-.8.9-2-2-2.3 2 2 2.1c-1.3 1-3 1.5-4.7 1.5v3.2c3 0 5.3-1.1 7.2-2.6a11 11 0 0 0 6.4 2.6v-3.2c-1.3 0-2.8-.7-4.2-1.6l.8-1c.9-1.2 1.6-2.5 2.2-3.8h3.1v-3.2h-6.2v-3.1z" fill="url(#b)" transform="matrix(.98 0 0 .98 58.6 7.5)"/><path d="m20.1 53h10.9v2h-8.3v5.4h7.5v2.1h-7.5v8.7h-2.5zm23.3 9.1q0-4-.8-5.7-.8-1.8-2.7-1.8-1.9 0-2.7 1.8-.8 1.7-.8 5.7t.8 5.7q.8 1.8 2.7 1.8 1.9 0 2.7-1.8.8-1.7.8-5.7zm2.6 0q0 4.8-1.5 7.1-1.5 2.4-4.6 2.4-3.1 0-4.6-2.4-1.5-2.3-1.5-7 0-4.9 1.5-7.2 1.5-2.4 4.6-2.4 3 0 4.6 2.4 1.5 2.3 1.5 7zm10.7.5q1 .2 1.6 1 .7.6 1.7 2.6l2.5 5h-2.7l-2.2-4.6q-1-2-1.7-2.5-.7-.6-2-.6h-2.3v7.7h-2.5v-18.2h5.1q3 0 4.6 1.3 1.6 1.4 1.6 4 0 1.8-1 2.9-1 1.1-2.7 1.4zm-5-7.6v6.5h2.6q1.8 0 2.7-.8.8-.8.8-2.5 0-1.5-.9-2.4-1-.8-2.7-.8zm23.9 15.6q-1 .5-2 .7-1 .3-2 .3-3.6 0-5.5-2.5-2-2.5-2-7t2-7q2-2.5 5.4-2.5 1.1 0 2.1.3 1 .2 2 .7v2.6q-1-.8-2-1.2-1-.4-2-.4-2.5 0-3.7 1.9-1.2 1.9-1.2 5.6 0 3.7 1.2 5.6 1.2 1.9 3.6 1.9 1.1 0 2.1-.4t2-1.2zm4.4-17.6h10.7v2h-8.3v5.4h8v2.1h-8v6.6h8.6v2.1h-11zm17.9 16.2q3 0 4.3-1.6 1.3-1.5 1.3-5.5t-1.3-5.6q-1.2-1.5-4.2-1.5h-1.2v14.2zm0-16.2q4.2 0 6.2 2.2t2 7q0 4.6-2 6.8t-6.2 2.2h-3.7v-18.2z" fill="url(#d)"/><path d="m30.2 25v2.8q-1.2-.8-2.5-1.2-1.3-.4-2.5-.4-2 0-3.1.9-1.2.9-1.2 2.4 0 1.4.8 2 .7.8 2.8 1.3l1.4.3q2.9.7 4.2 2.1 1.3 1.4 1.3 4 0 2.8-1.8 4.4-1.8 1.5-5.2 1.5-1.5 0-3-.3-1.4-.3-2.8-1v-2.8q1.5 1 3 1.5 1.3.5 2.8.5 2 0 3.2-1 1.2-1 1.2-2.6 0-1.5-.8-2.3-.8-.8-2.8-1.3l-1.5-.3q-2.8-.7-4.1-2-1.3-1.3-1.3-3.5 0-2.7 1.8-4.3 1.9-1.7 5-1.7 1.1 0 2.4.3l2.7.8zm5.1 11.9v-12.6h2.7v13.7l.1 2.2.3 1q.4.7 1.3 1.1.8.5 2 .5t2-.5q.8-.4 1.3-1.2.2-.3.2-1l.1-2v-13.8h2.8v12.6q0 3.1-.4 4.4-.4 1.3-1.3 2.2-1 .8-2.1 1.2-1.2.4-2.6.4-1.5 0-2.6-.4-1.2-.4-2.1-1.2-1-.9-1.3-2.2-.4-1.3-.4-4.4zm19.9-1.9v7.4h3.2q2.4 0 3.5-.8 1-.9 1-2.8 0-2-1.1-2.9-1-1-3.4-1zm0-8.4v6.1h3.2q2 0 2.9-.8.9-.7.9-2.4 0-1.6-1-2.3-.8-.6-2.8-.6zm-2.8-2.3h6q3.2 0 4.9 1.3 1.6 1.4 1.6 3.9 0 1.8-.9 3-.8 1-2.6 1.3 2 .3 3.1 1.7 1.2 1.4 1.2 3.6 0 2.8-1.9 4.2-1.8 1.4-5.4 1.4h-6z" fill="url(#c)"/></svg>