<svg viewBox="0 0 128 128" xmlns="http://www.w3.org/2000/svg"><linearGradient id="a" x1="5" x2="123" y1="80.5" y2="80.5" gradientUnits="userSpaceOnUse"><stop stop-color="#ce9e4f" offset="0"/><stop stop-color="#e3ba71" offset="1"/></linearGradient><linearGradient id="b" gradientUnits="userSpaceOnUse" x1="34.25" x2="43.87" y1="6.19" y2="38.7"><stop offset="0" stop-color="#cb9642"/><stop offset="1" stop-color="#d5ae67"/></linearGradient><linearGradient id="c" x1="64" x2="64" y1="4.74" y2="52.5" gradientUnits="userSpaceOnUse"><stop stop-color="#cec059" offset="0"/><stop stop-color="#dbce73" offset=".699"/><stop stop-color="#d4c44e" offset=".71"/><stop stop-color="#d8c852" offset="1"/></linearGradient><linearGradient id="d" gradientUnits="userSpaceOnUse" spreadMethod="reflect" x1="26.77" x2="27.57" y1="103.16" y2="81.38"><stop offset="0" stop-color="#895217"/><stop offset="1" stop-color="#a76825"/></linearGradient><path d="m26 5-21 33h118l-21-33z" fill="url(#b)"/><path d="m5 123h118v-85h-118z" fill="url(#a)"/><path d="m50 37v26l6-6 8 8 8-8 6 6v-26l-6-32h-17z" fill="url(#c)"/><g fill="url(#d)"><path d="m27.91 82.65-7.52-1.35q.94-3.59 3.59-5.51 2.68-1.91 7.56-1.91 5.61 0 8.11 2.09 2.5 2.09 2.5 5.25 0 1.86-1.02 3.36-1.02 1.5-3.07 2.64 1.66.41 2.54.96 1.43.88 2.21 2.32.8 1.43.8 3.42 0 2.5-1.31 4.8-1.31 2.29-3.77 3.54-2.46 1.23-6.46 1.23-3.91 0-6.17-.92-2.25-.92-3.71-2.68-1.45-1.78-2.23-4.45l7.95-1.05q.47 2.4 1.45 3.34 1 .92 2.52.92 1.6 0 2.66-1.17 1.07-1.17 1.07-3.13 0-1.99-1.04-3.09-1.02-1.09-2.77-1.09-.94 0-2.58.47l.41-5.68q.66.1 1.04.1 1.56 0 2.6-1 1.05-1 1.05-2.36 0-1.31-.78-2.09-.78-.78-2.15-.78-1.41 0-2.29.86-.88.84-1.19 2.97z"/><path d="m63.56 92.63v-5.96h13.67v12.21q-3.93 2.68-6.95 3.65-3.01.96-7.15.96-5.1 0-8.32-1.74-3.2-1.74-4.98-5.18-1.76-3.44-1.76-7.89 0-4.69 1.93-8.14 1.93-3.48 5.66-5.27 2.91-1.39 7.83-1.39 4.75 0 7.09.86 2.36.86 3.91 2.68 1.56 1.8 2.34 4.57l-8.54 1.52q-.53-1.62-1.8-2.48-1.25-.86-3.2-.86-2.91 0-4.65 2.03-1.72 2.01-1.72 6.39 0 4.65 1.74 6.64 1.76 1.99 4.88 1.99 1.48 0 2.83-.43 1.35-.43 3.09-1.46v-2.7z"/><path d="m83.45 74.37h14.71q4.8 0 7.19 2.29 2.4 2.29 2.4 6.5 0 4.34-2.62 6.78-2.6 2.44-7.95 2.44h-4.84v10.62h-8.89zm8.89 12.21h2.17q2.56 0 3.59-.88 1.04-.9 1.04-2.29 0-1.35-.9-2.29-.9-.94-3.38-.94h-2.52z"/></g></svg>