<svg viewBox="0 0 128 128" xmlns="http://www.w3.org/2000/svg"><linearGradient id="a" x1="5" x2="123" y1="80.5" y2="80.5" gradientUnits="userSpaceOnUse"><stop stop-color="#ce9e4f" offset="0"/><stop stop-color="#e3ba71" offset="1"/></linearGradient><linearGradient id="b" gradientUnits="userSpaceOnUse" x1="34.25" x2="43.87" y1="6.19" y2="38.7"><stop offset="0" stop-color="#cb9642"/><stop offset="1" stop-color="#d5ae67"/></linearGradient><linearGradient id="c" x1="64" x2="64" y1="4.74" y2="52.5" gradientUnits="userSpaceOnUse"><stop stop-color="#cec059" offset="0"/><stop stop-color="#dbce73" offset=".699"/><stop stop-color="#d4c44e" offset=".71"/><stop stop-color="#d8c852" offset="1"/></linearGradient><linearGradient id="d" gradientUnits="userSpaceOnUse" spreadMethod="reflect" x1="26.77" x2="27.57" y1="103.16" y2="81.38"><stop offset="0" stop-color="#895217"/><stop offset="1" stop-color="#a76825"/></linearGradient><path d="m26 5-21 33h118l-21-33z" fill="url(#b)"/><path d="m5 123h118v-85h-118z" fill="url(#a)"/><path d="m50 37v26l6-6 8 8 8-8 6 6v-26l-6-32h-17z" fill="url(#c)"/><g fill="url(#d)"><path d="m10.68 75.1h8.22q2.43 0 3.92.66 1.5.66 2.48 1.89.98 1.23 1.42 2.87.44 1.64.44 3.47 0 2.87-.66 4.46-.65 1.57-1.81 2.65-1.16 1.06-2.49 1.42-1.83.48-3.31.48h-8.22zm5.53 4.05v9.78h1.35q1.73 0 2.47-.38.73-.39 1.15-1.34.42-.96.42-3.11 0-2.84-.93-3.89-.93-1.05-3.08-1.05z"/><path d="m28.02 75.1h5.79l4.03 12.88 3.97-12.88h5.62l-6.65 17.9h-5.99z"/><path d="m49.91 93v-17.9h9.22q2.56 0 3.92.44 1.35.44 2.19 1.64.83 1.18.83 2.89 0 1.49-.63 2.58-.63 1.07-1.75 1.75-.71.43-1.94.71.99.33 1.44.66.31.22.88.94.59.72.78 1.11l2.66 5.18h-6.25l-2.95-5.47q-.56-1.06-1-1.38-.6-.41-1.36-.41h-.48v7.26zm5.55-10.64h2.33q.38 0 1.46-.24.55-.11.89-.56.35-.45.35-1.04 0-.87-.55-1.33-.55-.46-2.06-.46h-2.43z"/><path d="m68.6 84.55h7.23v3.85h-7.23z"/><path d="m78.75 75.1h7.28l2.81 10.89 2.8-10.89h7.25v17.9h-4.53v-13.65l-3.5 13.65h-4.09l-3.49-13.65v13.65h-4.53z"/><path d="m102.04 87.08 5.26-.33q.17 1.28.7 1.95.85 1.09 2.44 1.09 1.18 0 1.82-.55.65-.56.65-1.29 0-.7-.61-1.25-.61-.55-2.83-1.04-3.64-.82-5.19-2.17-1.56-1.35-1.56-3.45 0-1.38.79-2.6.81-1.23 2.4-1.93 1.61-.71 4.41-.71 3.43 0 5.22 1.28 1.81 1.27 2.15 4.05l-5.21.31q-.21-1.21-.88-1.76-.66-.55-1.83-.55-.96 0-1.45.42-.49.4-.49.99 0 .43.4.77.39.35 1.86.66 3.63.78 5.19 1.59 1.57.79 2.28 1.98.72 1.18.72 2.65 0 1.72-.95 3.17-.95 1.45-2.66 2.21-1.71.74-4.31.74-4.57 0-6.32-1.76-1.76-1.76-1.99-4.47z"/></g></svg>