<svg viewBox="0 0 128 128" xmlns="http://www.w3.org/2000/svg"><linearGradient id="a" x1="5" x2="123" y1="80.5" y2="80.5" gradientUnits="userSpaceOnUse"><stop stop-color="#ce9e4f" offset="0"/><stop stop-color="#e3ba71" offset="1"/></linearGradient><linearGradient id="b" gradientUnits="userSpaceOnUse" x1="34.25" x2="43.87" y1="6.19" y2="38.7"><stop offset="0" stop-color="#cb9642"/><stop offset="1" stop-color="#d5ae67"/></linearGradient><linearGradient id="c" x1="64" x2="64" y1="4.74" y2="52.5" gradientUnits="userSpaceOnUse"><stop stop-color="#cec059" offset="0"/><stop stop-color="#dbce73" offset=".699"/><stop stop-color="#d4c44e" offset=".71"/><stop stop-color="#d8c852" offset="1"/></linearGradient><linearGradient id="d" gradientUnits="userSpaceOnUse" spreadMethod="reflect" x1="26.77" x2="27.57" y1="103.16" y2="81.38"><stop offset="0" stop-color="#895217"/><stop offset="1" stop-color="#a76825"/></linearGradient><path d="m26 5-21 33h118l-21-33z" fill="url(#b)"/><path d="m5 123h118v-85h-118z" fill="url(#a)"/><path d="m50 37v26l6-6 8 8 8-8 6 6v-26l-6-32h-17z" fill="url(#c)"/><g fill="url(#d)"><path d="m15.88 77.09h9.31l3.59 13.94 3.58-13.94h9.28v22.91h-5.78v-17.47l-4.48 17.47h-5.23l-4.47-17.47v17.47h-5.8z"/><path d="m64.76 100h-19.09q.33-2.83 1.98-5.31 1.67-2.5 6.25-5.89 2.8-2.08 3.58-3.16.78-1.08.78-2.05 0-1.05-.78-1.78-.77-.75-1.94-.75-1.22 0-2 .77-.77.77-1.03 2.7l-6.38-.52q.38-2.69 1.38-4.19 1-1.52 2.81-2.31 1.83-.81 5.05-.81 3.36 0 5.22.77 1.88.77 2.94 2.36 1.08 1.58 1.08 3.55 0 2.09-1.23 4-1.22 1.91-4.45 4.19-1.92 1.33-2.58 1.86-.64.53-1.52 1.39h9.94z"/><path d="m67.9 77.09h21.51v5.66h-7.22v17.25h-7.07v-17.25h-7.22z"/><path d="m92.38 92.42 6.74-.42q.22 1.64.89 2.5 1.09 1.39 3.13 1.39 1.52 0 2.33-.7.83-.72.83-1.66 0-.89-.78-1.59-.78-.7-3.63-1.33-4.66-1.05-6.64-2.78-2-1.73-2-4.42 0-1.77 1.02-3.33 1.03-1.58 3.08-2.47 2.06-.91 5.64-.91 4.39 0 6.69 1.64 2.31 1.63 2.75 5.19l-6.67.39q-.27-1.55-1.13-2.25-.84-.7-2.34-.7-1.23 0-1.86.53-.62.52-.62 1.27 0 .55.52.98.5.45 2.38.84 4.64 1 6.64 2.03 2.02 1.02 2.92 2.53.92 1.52.92 3.39 0 2.2-1.22 4.06-1.22 1.86-3.41 2.83-2.19.95-5.52.95-5.84 0-8.09-2.25-2.25-2.25-2.55-5.72z"/></g></svg>