<svg viewBox="0 0 128 128" xmlns="http://www.w3.org/2000/svg"><linearGradient id="a" x1="5" x2="123" y1="80.5" y2="80.5" gradientUnits="userSpaceOnUse"><stop stop-color="#ce9e4f" offset="0"/><stop stop-color="#e3ba71" offset="1"/></linearGradient><linearGradient id="b" gradientUnits="userSpaceOnUse" x1="34.25" x2="43.87" y1="6.19" y2="38.7"><stop offset="0" stop-color="#cb9642"/><stop offset="1" stop-color="#d5ae67"/></linearGradient><linearGradient id="c" x1="64" x2="64" y1="4.74" y2="52.5" gradientUnits="userSpaceOnUse"><stop stop-color="#cec059" offset="0"/><stop stop-color="#dbce73" offset=".699"/><stop stop-color="#d4c44e" offset=".71"/><stop stop-color="#d8c852" offset="1"/></linearGradient><linearGradient id="d" gradientUnits="userSpaceOnUse" spreadMethod="reflect" x1="26.77" x2="27.57" y1="103.16" y2="81.38"><stop offset="0" stop-color="#895217"/><stop offset="1" stop-color="#a76825"/></linearGradient><path d="m26 5-21 33h118l-21-33z" fill="url(#b)"/><path d="m5 123h118v-85h-118z" fill="url(#a)"/><path d="m50 37v26l6-6 8 8 8-8 6 6v-26l-6-32h-17z" fill="url(#c)"/><g fill="url(#d)"><path d="m18.06 74.37h11.64l4.49 17.42 4.47-17.42h11.61v28.63h-7.23v-21.84l-5.61 21.84h-6.54l-5.59-21.84v21.84h-7.25z"/><path d="m75.97 91.3 7.75 2.34q-.78 3.26-2.46 5.45-1.68 2.19-4.18 3.3-2.48 1.11-6.33 1.11-4.67 0-7.64-1.35-2.94-1.36-5.09-4.77-2.14-3.42-2.14-8.75 0-7.11 3.77-10.92 3.79-3.83 10.7-3.83 5.41 0 8.5 2.19 3.11 2.19 4.61 6.72l-7.81 1.74q-.42-1.32-.87-1.92-.74-1.02-1.82-1.56-1.07-.55-2.4-.55-3.01 0-4.61 2.42-1.21 1.8-1.21 5.64 0 4.77 1.45 6.54 1.45 1.76 4.06 1.76 2.54 0 3.83-1.43 1.31-1.43 1.89-4.14z"/><path d="m89.06 74.37h21.88v6.15h-12.99v5h11.09v5.78h-11.09v11.7h-8.89z"/></g></svg>