<svg viewBox="0 0 128 128" xmlns="http://www.w3.org/2000/svg"><linearGradient id="a" x1="5" x2="123" y1="80.5" y2="80.5" gradientUnits="userSpaceOnUse"><stop stop-color="#ce9e4f" offset="0"/><stop stop-color="#e3ba71" offset="1"/></linearGradient><linearGradient id="b" gradientUnits="userSpaceOnUse" x1="34.25" x2="43.87" y1="6.19" y2="38.7"><stop offset="0" stop-color="#cb9642"/><stop offset="1" stop-color="#d5ae67"/></linearGradient><linearGradient id="c" x1="64" x2="64" y1="4.74" y2="52.5" gradientUnits="userSpaceOnUse"><stop stop-color="#cec059" offset="0"/><stop stop-color="#dbce73" offset=".699"/><stop stop-color="#d4c44e" offset=".71"/><stop stop-color="#d8c852" offset="1"/></linearGradient><linearGradient id="d" gradientUnits="userSpaceOnUse" spreadMethod="reflect" x1="26.77" x2="27.57" y1="103.16" y2="81.38"><stop offset="0" stop-color="#895217"/><stop offset="1" stop-color="#a76825"/></linearGradient><path d="m26 5-21 33h118l-21-33z" fill="url(#b)"/><path d="m5 123h118v-85h-118z" fill="url(#a)"/><path d="m50 37v26l6-6 8 8 8-8 6 6v-26l-6-32h-17z" fill="url(#c)"/><g fill="url(#d)"><path d="m15.6 74.37h11.64l4.49 17.42 4.47-17.42h11.6v28.63h-7.22v-21.84l-5.61 21.84h-6.54l-5.59-21.84v21.84h-7.25z"/><path d="m53.34 88.7q0-7.01 3.91-10.92 3.91-3.91 10.88-3.91 7.15 0 11.02 3.85 3.87 3.83 3.87 10.74 0 5.02-1.7 8.24-1.68 3.2-4.88 5-3.18 1.78-7.95 1.78-4.84 0-8.03-1.54-3.16-1.54-5.14-4.88-1.97-3.34-1.97-8.36zm8.85.04q0 4.34 1.6 6.23 1.62 1.89 4.39 1.89 2.85 0 4.41-1.86 1.56-1.86 1.56-6.66 0-4.04-1.64-5.9-1.62-1.88-4.41-1.88-2.68 0-4.3 1.89-1.62 1.89-1.62 6.27z"/><path d="m84.22 74.37h9.26l6.45 20.61 6.35-20.61h8.98l-10.63 28.63h-9.59z"/></g></svg>