<svg viewBox="0 0 128 128" xmlns="http://www.w3.org/2000/svg"><linearGradient id="a" x1="5" x2="123" y1="80.5" y2="80.5" gradientUnits="userSpaceOnUse"><stop stop-color="#ce9e4f" offset="0"/><stop stop-color="#e3ba71" offset="1"/></linearGradient><linearGradient id="b" gradientUnits="userSpaceOnUse" x1="34.25" x2="43.87" y1="6.19" y2="38.7"><stop offset="0" stop-color="#cb9642"/><stop offset="1" stop-color="#d5ae67"/></linearGradient><linearGradient id="c" x1="64" x2="64" y1="4.74" y2="52.5" gradientUnits="userSpaceOnUse"><stop stop-color="#cec059" offset="0"/><stop stop-color="#dbce73" offset=".699"/><stop stop-color="#d4c44e" offset=".71"/><stop stop-color="#d8c852" offset="1"/></linearGradient><linearGradient id="d" gradientUnits="userSpaceOnUse" spreadMethod="reflect" x1="26.77" x2="27.57" y1="103.16" y2="81.38"><stop offset="0" stop-color="#895217"/><stop offset="1" stop-color="#a76825"/></linearGradient><path d="m26 5-21 33h118l-21-33z" fill="url(#b)"/><path d="m5 123h118v-85h-118z" fill="url(#a)"/><path d="m50 37v26l6-6 8 8 8-8 6 6v-26l-6-32h-17z" fill="url(#c)"/><g fill="url(#d)"><path d="m19.17 74.37h11.64l4.49 17.42 4.47-17.42h11.61v28.63h-7.23v-21.84l-5.6 21.84h-6.55l-5.58-21.84v21.84h-7.25z"/><path d="m57.98 74.37h14.71q4.8 0 7.19 2.29 2.4 2.29 2.4 6.5 0 4.34-2.62 6.78-2.59 2.44-7.95 2.44h-4.84v10.62h-8.89zm8.89 12.21h2.17q2.56 0 3.59-.88 1.04-.9 1.04-2.29 0-1.35-.9-2.29-.9-.94-3.38-.94h-2.52z"/><path d="m100.29 97.65h-14.49v-6.54l14.49-17.23h6.93v17.6h3.59v6.17h-3.59v5.35h-6.93zm0-6.17v-9l-7.66 9z"/></g></svg>