<svg viewBox="0 0 128 128" xmlns="http://www.w3.org/2000/svg"><linearGradient id="a" x1="5" x2="123" y1="80.5" y2="80.5" gradientUnits="userSpaceOnUse"><stop stop-color="#ce9e4f" offset="0"/><stop stop-color="#e3ba71" offset="1"/></linearGradient><linearGradient id="b" gradientUnits="userSpaceOnUse" x1="34.25" x2="43.87" y1="6.19" y2="38.7"><stop offset="0" stop-color="#cb9642"/><stop offset="1" stop-color="#d5ae67"/></linearGradient><linearGradient id="c" x1="64" x2="64" y1="4.74" y2="52.5" gradientUnits="userSpaceOnUse"><stop stop-color="#cec059" offset="0"/><stop stop-color="#dbce73" offset=".699"/><stop stop-color="#d4c44e" offset=".71"/><stop stop-color="#d8c852" offset="1"/></linearGradient><linearGradient id="d" gradientUnits="userSpaceOnUse" spreadMethod="reflect" x1="26.77" x2="27.57" y1="103.16" y2="81.38"><stop offset="0" stop-color="#895217"/><stop offset="1" stop-color="#a76825"/></linearGradient><path d="m26 5-21 33h118l-21-33z" fill="url(#b)"/><path d="m5 123h118v-85h-118z" fill="url(#a)"/><path d="m50 37v26l6-6 8 8 8-8 6 6v-26l-6-32h-17z" fill="url(#c)"/><g fill="url(#d)"><path d="m13.23 77.09h9.31l3.59 13.94 3.58-13.94h9.28v22.91h-5.78v-17.47l-4.48 17.47h-5.24l-4.47-17.47v17.47h-5.8z"/><path d="m44.48 77.09h11.77q3.84 0 5.75 1.83 1.92 1.83 1.92 5.2 0 3.47-2.09 5.42-2.09 1.96-6.37 1.96h-3.88v8.5h-7.11zm7.11 9.77h1.73q2.05 0 2.88-.7.83-.72.83-1.83 0-1.08-.72-1.83-.72-.75-2.7-.75h-2.02z"/><path d="m68.6 77.09h18.97v4.89h-11.88v3.65h11.02v4.67h-11.01v4.51h12.22v5.19h-19.31z"/><path d="m104.24 91.7v-4.76h10.94v9.77q-3.14 2.14-5.56 2.92-2.41.77-5.72.77-4.08 0-6.66-1.39-2.56-1.39-3.98-4.14-1.41-2.75-1.41-6.31 0-3.75 1.55-6.52 1.55-2.78 4.53-4.22 2.33-1.11 6.27-1.11 3.8 0 5.67.69 1.89.69 3.13 2.14 1.25 1.44 1.88 3.66l-6.83 1.22q-.42-1.3-1.44-1.98-1-.69-2.56-.69-2.33 0-3.72 1.63-1.37 1.61-1.37 5.11 0 3.72 1.39 5.31 1.41 1.59 3.91 1.59 1.19 0 2.27-.34 1.08-.34 2.47-1.17v-2.16z"/></g></svg>