<svg viewBox="0 0 128 128" xmlns="http://www.w3.org/2000/svg"><linearGradient id="a" x1="5" x2="123" y1="80.5" y2="80.5" gradientUnits="userSpaceOnUse"><stop stop-color="#ce9e4f" offset="0"/><stop stop-color="#e3ba71" offset="1"/></linearGradient><linearGradient id="b" gradientUnits="userSpaceOnUse" x1="34.25" x2="43.87" y1="6.19" y2="38.7"><stop offset="0" stop-color="#cb9642"/><stop offset="1" stop-color="#d5ae67"/></linearGradient><linearGradient id="c" x1="64" x2="64" y1="4.74" y2="52.5" gradientUnits="userSpaceOnUse"><stop stop-color="#cec059" offset="0"/><stop stop-color="#dbce73" offset=".699"/><stop stop-color="#d4c44e" offset=".71"/><stop stop-color="#d8c852" offset="1"/></linearGradient><linearGradient id="d" gradientUnits="userSpaceOnUse" spreadMethod="reflect" x1="26.77" x2="27.57" y1="103.16" y2="81.38"><stop offset="0" stop-color="#895217"/><stop offset="1" stop-color="#a76825"/></linearGradient><path d="m26 5-21 33h118l-21-33z" fill="url(#b)"/><path d="m5 123h118v-85h-118z" fill="url(#a)"/><path d="m50 37v26l6-6 8 8 8-8 6 6v-26l-6-32h-17z" fill="url(#c)"/><g fill="url(#d)"><path d="m18.06 74.37h11.64l4.49 17.42 4.47-17.42h11.61v28.63h-7.23v-21.84l-5.61 21.84h-6.54l-5.59-21.84v21.84h-7.25z"/><path d="m54.94 74.37h9.75l5.08 8.81 4.92-8.81h9.65l-8.91 13.86 9.74 14.77h-9.94l-5.64-9.2-5.67 9.2h-9.88l9.88-14.92z"/><path d="m89.06 74.37h21.88v6.15h-12.99v5h11.09v5.78h-11.09v11.7h-8.89z"/></g></svg>