<svg viewBox="0 0 128 128" xmlns="http://www.w3.org/2000/svg"><linearGradient id="a" x1="5" x2="123" y1="80.5" y2="80.5" gradientUnits="userSpaceOnUse"><stop stop-color="#ce9e4f" offset="0"/><stop stop-color="#e3ba71" offset="1"/></linearGradient><linearGradient id="b" gradientUnits="userSpaceOnUse" x1="34.25" x2="43.87" y1="6.19" y2="38.7"><stop offset="0" stop-color="#cb9642"/><stop offset="1" stop-color="#d5ae67"/></linearGradient><linearGradient id="c" x1="64" x2="64" y1="4.74" y2="52.5" gradientUnits="userSpaceOnUse"><stop stop-color="#cec059" offset="0"/><stop stop-color="#dbce73" offset=".699"/><stop stop-color="#d4c44e" offset=".71"/><stop stop-color="#d8c852" offset="1"/></linearGradient><linearGradient id="d" gradientUnits="userSpaceOnUse" spreadMethod="reflect" x1="26.77" x2="27.57" y1="103.16" y2="81.38"><stop offset="0" stop-color="#895217"/><stop offset="1" stop-color="#a76825"/></linearGradient><path d="m26 5-21 33h118l-21-33z" fill="url(#b)"/><path d="m5 123h118v-85h-118z" fill="url(#a)"/><path d="m50 37v26l6-6 8 8 8-8 6 6v-26l-6-32h-17z" fill="url(#c)"/><g fill="url(#d)"><path d="m12.5 100v-22.91h11.8q3.28 0 5.02.56 1.73.56 2.8 2.09 1.06 1.52 1.06 3.7 0 1.91-.81 3.3-.81 1.38-2.23 2.23-.91.55-2.48.91 1.27.42 1.84.84.39.28 1.13 1.2.75.92 1 1.42l3.4 6.66h-8l-3.78-7q-.72-1.36-1.28-1.77-.77-.53-1.73-.53h-.63v9.3zm7.11-13.63h2.98q.48 0 1.88-.31.7-.14 1.14-.72.45-.58.45-1.33 0-1.11-.7-1.7-.7-.59-2.64-.59h-3.11z"/><path d="m38.22 77.09h9.31l3.59 13.94 3.58-13.94h9.28v22.91h-5.78v-17.47l-4.48 17.47h-5.24l-4.46-17.47v17.47h-5.8z"/><path d="m67.23 77.09h7.41l5.16 16.49 5.08-16.49h7.19l-8.51 22.91h-7.67z"/><path d="m95.41 77.09h13.25q3.31 0 5.08 1.64 1.78 1.64 1.78 4.06 0 2.03-1.27 3.48-.84.97-2.47 1.53 2.47.59 3.63 2.05 1.17 1.44 1.17 3.63 0 1.78-.83 3.2-.83 1.42-2.27 2.25-.89.52-2.69.75-2.38.32-3.16.32h-12.22zm7.14 8.98h3.08q1.66 0 2.3-.56.66-.58.66-1.66 0-1-.66-1.56-.64-.56-2.25-.56h-3.13zm0 9h3.61q1.83 0 2.58-.64.75-.66.75-1.75 0-1.02-.75-1.63-.73-.63-2.59-.63h-3.59z"/></g></svg>