<svg viewBox="0 0 128 128" xmlns="http://www.w3.org/2000/svg"><linearGradient id="a" x1="5" x2="123" y1="80.5" y2="80.5" gradientUnits="userSpaceOnUse"><stop stop-color="#ce9e4f" offset="0"/><stop stop-color="#e3ba71" offset="1"/></linearGradient><linearGradient id="b" gradientUnits="userSpaceOnUse" x1="34.25" x2="43.87" y1="6.19" y2="38.7"><stop offset="0" stop-color="#cb9642"/><stop offset="1" stop-color="#d5ae67"/></linearGradient><linearGradient id="c" x1="64" x2="64" y1="4.74" y2="52.5" gradientUnits="userSpaceOnUse"><stop stop-color="#cec059" offset="0"/><stop stop-color="#dbce73" offset=".699"/><stop stop-color="#d4c44e" offset=".71"/><stop stop-color="#d8c852" offset="1"/></linearGradient><linearGradient id="d" gradientUnits="userSpaceOnUse" spreadMethod="reflect" x1="26.77" x2="27.57" y1="103.16" y2="81.38"><stop offset="0" stop-color="#895217"/><stop offset="1" stop-color="#a76825"/></linearGradient><path d="m26 5-21 33h118l-21-33z" fill="url(#b)"/><path d="m5 123h118v-85h-118z" fill="url(#a)"/><path d="m50 37v26l6-6 8 8 8-8 6 6v-26l-6-32h-17z" fill="url(#c)"/><g fill="url(#d)"><path d="m35.53 74.37h26.9v7.07h-9.03v21.56h-8.85v-21.56h-9.02z"/><path d="m65.89 93.53 8.41-.53q.27 2.05 1.11 3.13 1.37 1.74 3.91 1.74 1.89 0 2.91-.88 1.04-.9 1.04-2.07 0-1.11-.98-1.99-.98-.88-4.53-1.66-5.82-1.31-8.3-3.48-2.5-2.17-2.5-5.53 0-2.21 1.27-4.16 1.29-1.97 3.85-3.09 2.58-1.13 7.05-1.13 5.49 0 8.36 2.05 2.89 2.03 3.44 6.48l-8.34.49q-.34-1.93-1.41-2.81-1.05-.88-2.93-.88-1.54 0-2.32.66-.78.64-.78 1.58 0 .68.64 1.23.63.57 2.97 1.05 5.8 1.25 8.3 2.54 2.52 1.27 3.65 3.16 1.15 1.89 1.15 4.24 0 2.75-1.52 5.08-1.52 2.32-4.26 3.54-2.73 1.19-6.89 1.19-7.3 0-10.12-2.81-2.81-2.81-3.18-7.15z"/></g></svg>