<svg viewBox="0 0 128 128" xmlns="http://www.w3.org/2000/svg"><linearGradient id="a" x1="5" x2="123" y1="80.5" y2="80.5" gradientUnits="userSpaceOnUse"><stop stop-color="#ce9e4f" offset="0"/><stop stop-color="#e3ba71" offset="1"/></linearGradient><linearGradient id="b" gradientUnits="userSpaceOnUse" x1="34.25" x2="43.87" y1="6.19" y2="38.7"><stop offset="0" stop-color="#cb9642"/><stop offset="1" stop-color="#d5ae67"/></linearGradient><linearGradient id="c" x1="64" x2="64" y1="4.74" y2="52.5" gradientUnits="userSpaceOnUse"><stop stop-color="#cec059" offset="0"/><stop stop-color="#dbce73" offset=".699"/><stop stop-color="#d4c44e" offset=".71"/><stop stop-color="#d8c852" offset="1"/></linearGradient><linearGradient id="d" gradientUnits="userSpaceOnUse" spreadMethod="reflect" x1="26.77" x2="27.57" y1="103.16" y2="81.38"><stop offset="0" stop-color="#895217"/><stop offset="1" stop-color="#a76825"/></linearGradient><path d="m26 5-21 33h118l-21-33z" fill="url(#b)"/><path d="m5 123h118v-85h-118z" fill="url(#a)"/><path d="m50 37v26l6-6 8 8 8-8 6 6v-26l-6-32h-17z" fill="url(#c)"/><g fill="url(#d)"><path d="m7.38 77.09h6.72l2.42 12.8 3.53-12.8h6.7l3.55 12.8 2.42-12.8h6.69l-5.04 22.91h-6.94l-4.02-14.42-4 14.42h-6.94z"/><path d="m42.73 77.09h18.97v4.89h-11.88v3.65h11.02v4.67h-11.02v4.51h12.22v5.19h-19.31z"/><path d="m66.87 77.09h13.25q3.31 0 5.08 1.64 1.78 1.64 1.78 4.06 0 2.03-1.27 3.48-.84.97-2.47 1.53 2.47.59 3.63 2.05 1.17 1.44 1.17 3.63 0 1.78-.83 3.2-.83 1.42-2.27 2.25-.89.52-2.69.75-2.38.32-3.16.32h-12.22zm7.14 8.98h3.08q1.66 0 2.3-.56.66-.58.66-1.66 0-1-.66-1.56-.64-.56-2.25-.56h-3.13zm0 9h3.61q1.83 0 2.58-.64.75-.66.75-1.75 0-1.02-.75-1.63-.73-.63-2.59-.63h-3.59z"/><path d="m92.66 77.09h9.31l3.59 13.94 3.58-13.94h9.28v22.91h-5.78v-17.47l-4.48 17.47h-5.23l-4.47-17.47v17.47h-5.8z"/></g></svg>