<svg height="150" viewBox="0 0 225 150" width="225" xmlns="http://www.w3.org/2000/svg"><path d="m74.71 108.84h15.39v6.34h-15.39zm0 0"/><path d="m135.78 124.16h22.74v6.34h-22.74zm0 0"/><path d="m95.16 108.84h47.37v6.34h-47.37zm0 0"/><path d="m58.72 124.16h69.98v6.34h-69.98zm0 0"/><path d="m173.16 104.25-7.62 31.71h4.32l7.69-31.71zm6.48 2.9v7.42l14.44 5.54-14.44 5.6v7.35l23.82-9.92v-6.2zm-134.28-.06-23.82 9.85v6.2l23.82 9.92v-7.42l-14.44-5.6 14.44-5.53zm0 0"/><g stroke="#000" stroke-width="1.08"><path d="m87.64 74.25h-21.26c-.54 0-1.15-.07-1.76-.2s-1.28-.34-1.89-.61-1.15-.61-1.76-1.01c-.54-.47-1.01-.95-1.49-1.55-.41-.61-.74-1.35-1.01-2.16s-.41-1.76-.41-2.77v-16c0-.54.07-1.15.2-1.76s.34-1.22.61-1.82.61-1.15 1.08-1.76c.47-.54.95-1.01 1.55-1.49.61-.41 1.35-.74 2.16-1.01s1.69-.41 2.7-.41h21.26v5.94h-21.26c-.74 0-1.35.2-1.76.61s-.61 1.01-.61 1.82v15.93c0 .74.2 1.35.61 1.76s1.01.61 1.76.61h21.26zm0 0"/><path d="m128.81 41.72-15.39 31.39c-.2.47-.61.88-1.08 1.15-.47.34-.95.47-1.55.47-.54 0-1.08-.14-1.55-.47-.47-.27-.81-.68-1.08-1.15l-15.46-31.39h6.62l11.41 23.42 11.48-23.42zm0 0"/><path d="m167.62 60.62c0 1.96-.34 3.78-1.01 5.47s-1.62 3.11-2.84 4.32-2.63 2.16-4.32 2.84-3.51 1.01-5.47 1.01h-15.93c-.41 0-.81-.07-1.15-.2s-.68-.34-.95-.61-.47-.61-.61-.95-.2-.74-.2-1.15v-26.66c0-.41.07-.81.2-1.15s.34-.68.61-.95.61-.47.95-.61.74-.2 1.15-.2h15.93c1.96 0 3.71.34 5.4 1.01s3.11 1.62 4.32 2.84 2.16 2.63 2.84 4.32 1.01 3.51 1.01 5.47zm-5.87-5.27c0-1.15-.2-2.23-.54-3.17-.41-.95-.95-1.76-1.62-2.43s-1.49-1.22-2.43-1.55-2.03-.54-3.17-.54h-12.96v20.72h12.96c1.15 0 2.23-.2 3.11-.54.95-.34 1.76-.88 2.43-1.55s1.22-1.49 1.55-2.43.54-2.03.54-3.17zm0 0"/></g></svg>