<svg height="224" viewBox="0 0 224 224" width="224" xmlns="http://www.w3.org/2000/svg"><linearGradient id="a" gradientTransform="matrix(.6 0 0 1 -26.51 43.38)" gradientUnits="userSpaceOnUse" spreadMethod="reflect" x1="124.65" x2="136.43" y1="-18.08" y2="37.1"><stop offset="0" stop-color="#e0e0e0"/><stop offset="1" stop-color="#757575"/></linearGradient><linearGradient id="b" gradientUnits="userSpaceOnUse" spreadMethod="reflect" x1="128.44" x2="128.44" y1="108.85" y2="60.54"><stop offset="0" stop-color="#002580"/><stop offset="1" stop-color="#3042e4"/></linearGradient><linearGradient id="c" gradientUnits="userSpaceOnUse" spreadMethod="reflect" x1="106" x2="104.37" y1="182.59" y2="144.83"><stop offset="0" stop-color="#004d0a"/><stop offset="1" stop-color="#179731"/></linearGradient><path d="m10.5 6.5h63c2.21 0 4 1.79 4 4v63c0 2.21-1.79 4-4 4h-63c-2.21 0-4-1.79-4-4v-63c0-2.21 1.79-4 4-4zm0 0" fill="url(#a)" stroke="#898989" stroke-width="1.5" transform="scale(2.67)"/><path d="m104.59 107.29h3.91l1.86-5.13 1.65-4.89h.16l1.67 4.89 1.89 5.13h3.89l-5.59-14.27h-3.88zm0 0" fill="url(#b)"/><path d="m46.95 184.84c4.63 0 7.91-2.23 10.83-5.7h.24l.67 4.86h7.29v-34.05h-8.93v22.99c-2.32 3.03-4.13 4.25-6.92 4.25-3.3 0-4.75-1.88-4.75-7.11v-20.13h-8.94v21.28c0 8.52 3.15 13.61 10.51 13.61zm40 0c4.63 0 7.91-2.23 10.83-5.7h.24l.67 4.86h7.29v-34.05h-8.93v22.99c-2.32 3.03-4.13 4.25-6.92 4.25-3.3 0-4.75-1.88-4.75-7.11v-20.13h-8.94v21.28c0 8.52 3.15 13.61 10.51 13.61zm40 0c4.63 0 7.91-2.23 10.83-5.7h.24l.67 4.86h7.29v-34.05h-8.93v22.99c-2.32 3.03-4.13 4.25-6.92 4.25-3.3 0-4.75-1.88-4.75-7.11v-20.13h-8.94v21.28c0 8.52 3.15 13.61 10.51 13.61zm40 0c4.63 0 7.91-2.23 10.83-5.7h.24l.67 4.86h7.29v-34.05h-8.93v22.99c-2.32 3.03-4.13 4.25-6.92 4.25-3.3 0-4.75-1.88-4.75-7.11v-20.13h-8.94v21.28c0 8.52 3.15 13.61 10.51 13.61zm0 0" fill="url(#c)"/></svg>