<svg enable-background="new 0 0 60 60" viewBox="0 0 60 60" xmlns="http://www.w3.org/2000/svg"><path d="m49.554 0h-12.554-14-12.554l-10.446 16.713v43.287h23 14 23v-43.287zm-1.108 2 8.75 14h-20.196l-2.542-14zm-18.446 0 2.744.032 2.256 13.968h-5-5l1.811-13.968zm3.93 21.656c-1.257 1.403-2.896 2.621-4.025 3.965-.829-.526-2.887-2.916-3.835-3.965l-.07-.07-1 1v-6.586c3.823.047 6.77.057 10 0v6.586l-1-1zm-22.376-21.656 13.448-.064-2.002 14.064h-20.196zm13.446 56v-3.586l1 1 4-4 4 4 1-1v3.586zm12 0v-8.414l-3 3-4-4-4 4-3-3v8.414h-21v-40h21v11.414l3-3 4 4 4-4 3 3v-11.414h21v40z"/><g transform="matrix(-.01 1 -1 -.01 32.15 14.78)"><path d="m4.859 15.998h2.778l1.933 6.182 1.905-6.182h2.695l-3.188 8.59h-2.877z"/><path d="m15.154 15.998h2.385v1.623h-2.385zm0 2.367h2.385v6.223h-2.385z"/><path d="m25.625 15.998v8.59h-2.232v-.92q-.469.586-.855.791-.516.27-1.148.27-1.271 0-1.945-.967-.668-.967-.668-2.35 0-1.547.738-2.367.744-.82 1.887-.82.557 0 1.008.188.457.188.809.563v-2.978zm-2.391 5.461q0-.732-.311-1.09-.311-.363-.785-.363-.416 0-.697.346-.281.346-.281 1.16 0 .762.287 1.119.293.352.721.352.457 0 .762-.357.305-.357.305-1.166z"/><path d="m33.998 22.068h-4.781q.064.574.311.855.346.404.902.404.352 0 .668-.176.193-.111.416-.393l2.35.217q-.539.938-1.301 1.348-.762.404-2.186.404-1.236 0-1.945-.346-.709-.352-1.178-1.107-.463-.762-.463-1.787 0-1.459.932-2.361.938-.902 2.584-.902 1.336 0 2.109.404.773.404 1.178 1.172.404.768.404 1.998zm-2.426-1.143q-.07-.691-.375-.99-.299-.299-.791-.299-.568 0-.908.451-.217.281-.275.838z"/><path d="m34.813 21.494q0-1.424.961-2.344.961-.926 2.596-.926 1.869 0 2.824 1.084.768.873.768 2.15 0 1.436-.955 2.355-.949.914-2.631.914-1.5 0-2.426-.762-1.137-.942-1.137-2.471zm2.391-.006q0 .832.334 1.23.34.398.85.398.516 0 .844-.393.334-.393.334-1.26 0-.809-.334-1.201-.334-.398-.826-.398-.521 0-.861.404-.34.398-.34 1.219z"/></g><text x="4.32" y="29.24"><tspan x="4.32" y="33.49"/></text><text x="11.95" y="44.75"><tspan x="11.95" y="48.99"/></text><g transform="matrix(-.01 1 -1 -.01 79.25 -.91)"><path d="m26.758 31.305h-3.023l-.416 1.418h-2.713l3.229-8.59h2.895l3.229 8.59h-2.777zm-.557-1.857-.949-3.088-.943 3.088z"/><path d="m37.094 32.723h-2.227v-1.008q-.498.621-1.008.885-.504.264-1.242.264-.984 0-1.547-.586-.557-.592-.557-1.816v-3.961h2.396v3.422q0 .586.217.832.217.246.609.246.428 0 .697-.328.275-.328.275-1.178v-2.994h2.385z"/><path d="m45.115 24.133v8.59h-2.232v-.92q-.469.586-.855.791-.516.27-1.148.27-1.271 0-1.945-.967-.668-.967-.668-2.35 0-1.547.738-2.367.744-.82 1.887-.82.557 0 1.008.188.457.188.809.563v-2.977zm-2.391 5.461q0-.732-.311-1.09-.311-.363-.785-.363-.416 0-.697.346-.281.346-.281 1.16 0 .762.287 1.119.293.352.721.352.457 0 .762-.357.305-.357.305-1.166z"/><path d="m46.668 24.133h2.385v1.623h-2.385zm0 2.367h2.385v6.223h-2.385z"/><path d="m50.295 29.629q0-1.424.961-2.344.961-.926 2.596-.926 1.869 0 2.824 1.084.768.873.768 2.15 0 1.436-.955 2.355-.949.914-2.631.914-1.5 0-2.426-.762-1.137-.943-1.137-2.473zm2.391-.006q0 .832.334 1.23.34.398.85.398.516 0 .844-.393.334-.393.334-1.26 0-.809-.334-1.201-.334-.398-.826-.398-.521 0-.861.404-.34.398-.34 1.219z"/></g><g transform="matrix(.84 .54 -.54 .84 0 0)"><path d="m33.856 13.18h7.172v1.885h-2.406v5.75h-2.359v-5.75h-2.406z"/><path d="m47.466 18.576h-4.25q.057.51.276.76.307.359.802.359.313 0 .594-.156.172-.099.37-.349l2.089.193q-.479.833-1.156 1.198-.677.359-1.943.359-1.099 0-1.729-.307-.63-.313-1.047-.984-.411-.677-.411-1.589 0-1.297.828-2.099.833-.802 2.297-.802 1.188 0 1.875.359.688.359 1.047 1.042.359.682.359 1.776zm-2.156-1.016q-.063-.615-.333-.88-.266-.266-.703-.266-.505 0-.807.401-.193.25-.245.745z"/><path d="m47.7 15.284h2.516l.88 1.542 1.021-1.542h2.339l-1.885 2.635 2.021 2.896h-2.474l-1.021-1.781-1.203 1.781h-2.297l2.01-2.896z"/><path d="m57.872 13.18v2.104h1.167v1.547h-1.167v1.964q0 .354.068.469.104.177.365.177.234 0 .656-.135l.156 1.464q-.786.172-1.469.172-.792 0-1.167-.203-.375-.203-.557-.615-.177-.417-.177-1.344v-1.948h-.781v-1.547h.781v-1.016z"/></g></svg>