<svg viewBox="0 0 128 128" xmlns="http://www.w3.org/2000/svg"><path d="m102.46 5h-76.92l-20.54 32.87v85.13h118v-85.13zm-2.18 3.93 17.21 27.53h-39.72l-5-27.53zm-30.88.06 4.44 27.47h-19.67l3.56-27.47zm-5.58 50.33-7.68-7.94-1.97 1.97v-12.95h19.67v12.95l-1.97-1.96zm-36.09-50.39 26.45-.13-3.94 27.66h-39.73zm-18.79 110.13v-78.67h41.3v22.45l5.9-5.9 7.87 7.87 7.87-7.87 5.9 5.9v-22.45h41.3v78.67z"/><path d="m28.02 77.96h9.2q2.72 0 4.39.74 1.68.74 2.78 2.12 1.09 1.38 1.59 3.21.49 1.83.49 3.88 0 3.21-.74 4.99-.72 1.76-2.02 2.97-1.3 1.19-2.79 1.59-2.05.54-3.7.54h-9.2zm6.19 4.54v10.95h1.52q1.94 0 2.76-.42.82-.44 1.29-1.5.46-1.08.46-3.49 0-3.19-1.04-4.36-1.04-1.18-3.45-1.18z"/><path d="m49.96 77.96h6.21v20.04h-6.21z"/><path d="m58.63 77.96h6.48l4.51 14.42 4.44-14.42h6.29l-7.44 20.04h-6.71z"/><path d="m81.01 77.96h6.82l3.55 6.17 3.45-6.17h6.75l-6.23 9.7 6.82 10.34h-6.96l-3.95-6.44-3.96 6.44h-6.92l6.92-10.45z"/></svg>