<svg viewBox="0 0 128 128" xmlns="http://www.w3.org/2000/svg"><path d="m102.46 5h-76.92l-20.54 32.87v85.13h118v-85.13zm-2.18 3.93 17.21 27.53h-39.72l-5-27.53zm-30.88.06 4.44 27.47h-19.67l3.56-27.47zm-5.58 50.33-7.68-7.94-1.97 1.97v-12.95h19.67v12.95l-1.97-1.96zm-36.09-50.39 26.45-.13-3.94 27.66h-39.73zm-18.79 110.13v-78.67h41.3v22.45l5.9-5.9 7.87 7.87 7.87-7.87 5.9 5.9v-22.45h41.3v78.67z"/><path d="m14.25 72.82h7.89q2.33 0 3.76.63 1.44.63 2.38 1.82.94 1.18 1.36 2.75.42 1.57.42 3.33 0 2.75-.63 4.28-.62 1.51-1.73 2.54-1.11 1.02-2.39 1.36-1.76.47-3.18.47h-7.89zm5.31 3.89v9.39h1.3q1.66 0 2.37-.36.7-.38 1.1-1.29.4-.93.4-2.99 0-2.73-.89-3.74-.89-1.01-2.95-1.01z"/><path d="m30.33 72.82h5.55l3.87 12.36 3.81-12.36h5.39l-6.38 17.18h-5.75z"/><path d="m50.76 90v-17.18h8.85q2.46 0 3.76.42 1.3.42 2.1 1.57.8 1.14.8 2.78 0 1.43-.61 2.47-.61 1.03-1.68 1.68-.68.41-1.86.68.95.32 1.38.63.29.21.84.9.56.69.75 1.07l2.57 4.98h-6l-2.84-5.25q-.54-1.02-.96-1.32-.57-.4-1.3-.4h-.47v6.97zm5.33-10.22h2.24q.36 0 1.41-.23.53-.11.86-.54.34-.43.34-1 0-.83-.53-1.28-.53-.45-1.98-.45h-2.33z"/><path d="m68.13 81.89h6.94v3.69h-6.94z"/><path d="m77.29 72.82h6.98l2.7 10.45 2.68-10.45h6.96v17.18h-4.33v-13.1l-3.36 13.1h-3.93l-3.35-13.1v13.1h-4.35z"/><path d="m99.08 84.32 5.05-.32q.16 1.23.67 1.88.82 1.04 2.34 1.04 1.14 0 1.75-.53.62-.54.62-1.24 0-.67-.59-1.2-.59-.53-2.72-1-3.49-.79-4.98-2.09-1.5-1.3-1.5-3.32 0-1.32.76-2.5.77-1.18 2.31-1.85 1.55-.68 4.23-.68 3.29 0 5.02 1.23 1.73 1.22 2.06 3.89l-5 .29q-.2-1.16-.84-1.69-.63-.53-1.76-.53-.93 0-1.39.4-.47.39-.47.95 0 .41.39.74.38.34 1.78.63 3.48.75 4.98 1.52 1.51.76 2.19 1.9.69 1.14.69 2.54 0 1.65-.91 3.05-.91 1.39-2.55 2.12-1.64.71-4.14.71-4.38 0-6.07-1.69-1.69-1.69-1.91-4.29z"/></svg>