<svg viewBox="0 0 128 128" xmlns="http://www.w3.org/2000/svg"><path d="m102.46 5h-76.92l-20.54 32.87v85.13h118v-85.13zm-2.18 3.93 17.21 27.53h-39.72l-5-27.53zm-30.88.06 4.44 27.47h-19.67l3.56-27.47zm-5.58 50.33-7.68-7.94-1.97 1.97v-12.95h19.67v12.95l-1.97-1.96zm-36.09-50.39 26.45-.13-3.94 27.66h-39.73zm-18.79 110.13v-78.67h41.3v22.45l5.9-5.9 7.87 7.87 7.87-7.87 5.9 5.9v-22.45h41.3v78.67z"/><path d="m27.66 75.8h20.78v5.84h-12.34v4.75h10.54v5.49h-10.54v11.12h-8.44z"/><path d="m52.97 75.8h8.41v20.5h13.11v6.7h-21.52z"/><path d="m73.69 75.8h8.79l6.12 19.58 6.03-19.58h8.54l-10.09 27.2h-9.11z"/></svg>