<svg viewBox="0 0 128 128" xmlns="http://www.w3.org/2000/svg"><path d="m102.46 5h-76.92l-20.54 32.87v85.13h118v-85.13zm-2.18 3.93 17.21 27.53h-39.72l-5-27.53zm-30.88.06 4.44 27.47h-19.67l3.56-27.47zm-5.58 50.33-7.68-7.94-1.97 1.97v-12.95h19.67v12.95l-1.97-1.96zm-36.09-50.39 26.45-.13-3.94 27.66h-39.73zm-18.79 110.13v-78.67h41.3v22.45l5.9-5.9 7.87 7.87 7.87-7.87 5.9 5.9v-22.45h41.3v78.67z"/><path d="m23.21 77.96h8.15l3.14 12.2 3.13-12.2h8.12v20.04h-5.05v-15.29l-3.93 15.29h-4.58l-3.91-15.29v15.29h-5.07z"/><path d="m65.1 98h-16.71q.29-2.47 1.74-4.65 1.46-2.19 5.47-5.15 2.45-1.82 3.13-2.76.68-.94.68-1.79 0-.92-.68-1.56-.67-.66-1.7-.66-1.07 0-1.75.67-.67.67-.9 2.37l-5.58-.45q.33-2.35 1.2-3.66.88-1.33 2.46-2.02 1.6-.71 4.42-.71 2.94 0 4.57.67 1.64.67 2.57 2.06.94 1.38.94 3.1 0 1.83-1.08 3.5-1.07 1.67-3.9 3.66-1.68 1.16-2.26 1.63-.56.46-1.33 1.22h8.7z"/><path d="m66.97 77.96h18.83v4.95h-6.32v15.09h-6.19v-15.09h-6.32z"/><path d="m87.52 91.37 5.9-.37q.19 1.44.78 2.19.96 1.22 2.73 1.22 1.33 0 2.04-.62.72-.63.72-1.45 0-.78-.68-1.39-.68-.62-3.17-1.16-4.07-.92-5.81-2.43-1.75-1.52-1.75-3.87 0-1.54.89-2.91.9-1.38 2.69-2.16 1.8-.79 4.94-.79 3.84 0 5.85 1.44 2.02 1.42 2.41 4.54l-5.84.34q-.23-1.35-.98-1.97-.74-.62-2.05-.62-1.08 0-1.63.46-.55.45-.55 1.11 0 .48.45.86.44.4 2.08.74 4.06.88 5.81 1.78 1.76.89 2.56 2.21.81 1.33.81 2.97 0 1.93-1.07 3.55-1.07 1.63-2.98 2.47-1.91.83-4.83.83-5.11 0-7.08-1.97-1.97-1.97-2.23-5z"/></svg>