<svg viewBox="0 0 128 128" xmlns="http://www.w3.org/2000/svg"><path d="m102.46 5h-76.92l-20.54 32.87v85.13h118v-85.13zm-2.18 3.93 17.21 27.53h-39.72l-5-27.53zm-30.88.06 4.44 27.47h-19.67l3.56-27.47zm-5.58 50.33-7.68-7.94-1.97 1.97v-12.95h19.67v12.95l-1.97-1.96zm-36.09-50.39 26.45-.13-3.94 27.66h-39.73zm-18.79 110.13v-78.67h41.3v22.45l5.9-5.9 7.87 7.87 7.87-7.87 5.9 5.9v-22.45h41.3v78.67z"/><path d="m21.31 75.8h11.06l4.27 16.55 4.25-16.55h11.01v27.2h-6.86v-20.74l-5.33 20.74h-6.22l-5.3-20.74v20.74h-6.88z"/><path d="m69.03 97.92h-13.77v-6.22l13.77-16.37h6.59v16.72h3.41v5.86h-3.41v5.09h-6.59zm0-5.86v-8.55l-7.27 8.55z"/><path d="m79.92 75.8h8.79l6.12 19.58 6.03-19.58h8.54l-10.09 27.2h-9.11z"/></svg>