<svg viewBox="0 0 128 128" xmlns="http://www.w3.org/2000/svg"><path d="m102.46 5h-76.92l-20.54 32.87v85.13h118v-85.13zm-2.18 3.93 17.21 27.53h-39.72l-5-27.53zm-30.88.06 4.44 27.47h-19.67l3.56-27.47zm-5.58 50.33-7.68-7.94-1.97 1.97v-12.95h19.67v12.95l-1.97-1.96zm-36.09-50.39 26.45-.13-3.94 27.66h-39.73zm-18.79 110.13v-78.67h41.3v22.45l5.9-5.9 7.87 7.87 7.87-7.87 5.9 5.9v-22.45h41.3v78.67z"/><path d="m18.97 75.8h11.06l4.27 16.55 4.25-16.55h11.01v27.2h-6.86v-20.74l-5.33 20.74h-6.22l-5.3-20.74v20.74h-6.88z"/><path d="m53.87 89.42q0-6.66 3.71-10.37 3.71-3.71 10.33-3.71 6.79 0 10.46 3.66 3.67 3.64 3.67 10.21 0 4.77-1.61 7.83-1.6 3.04-4.64 4.75-3.02 1.69-7.55 1.69-4.6 0-7.63-1.47-3.01-1.47-4.88-4.64-1.87-3.17-1.87-7.94zm8.41.04q0 4.12 1.52 5.92 1.54 1.8 4.17 1.8 2.71 0 4.19-1.76 1.48-1.76 1.48-6.33 0-3.84-1.56-5.6-1.54-1.78-4.19-1.78-2.54 0-4.08 1.8-1.54 1.8-1.54 5.96z"/><path d="m82.26 75.8h8.79l6.12 19.58 6.03-19.58h8.54l-10.09 27.2h-9.11z"/></svg>