<svg viewBox="0 0 128 128" xmlns="http://www.w3.org/2000/svg"><path d="m102.46 5h-76.92l-20.54 32.87v85.13h118v-85.13zm-2.18 3.93 17.21 27.53h-39.72l-5-27.53zm-30.88.06 4.44 27.47h-19.67l3.56-27.47zm-5.58 50.33-7.68-7.94-1.97 1.97v-12.95h19.67v12.95l-1.97-1.96zm-36.09-50.39 26.45-.13-3.94 27.66h-39.73zm-18.79 110.13v-78.67h41.3v22.45l5.9-5.9 7.87 7.87 7.87-7.87 5.9 5.9v-22.45h41.3v78.67z"/><path d="m20.89 77.96h8.15l3.14 12.2 3.13-12.2h8.12v20.04h-5.06v-15.29l-3.92 15.29h-4.58l-3.91-15.29v15.29h-5.07z"/><path d="m47.35 77.96h10.29q3.36 0 5.03 1.6 1.68 1.6 1.68 4.55 0 3.04-1.83 4.74-1.81 1.71-5.55 1.71h-3.39v7.44h-6.22zm6.22 8.54h1.52q1.79 0 2.52-.62.72-.63.72-1.6 0-.94-.63-1.6-.63-.66-2.37-.66h-1.76z"/><path d="m67.59 77.96h16.6v4.28h-10.39v3.19h9.64v4.09h-9.64v3.95h10.69v4.53h-16.9z"/><path d="m97.9 90.74v-4.17h9.57v8.54q-2.75 1.87-4.87 2.56-2.11.67-5 .67-3.57 0-5.82-1.22-2.24-1.22-3.49-3.62-1.23-2.41-1.23-5.52 0-3.28 1.35-5.7 1.35-2.43 3.96-3.69 2.04-.97 5.48-.97 3.32 0 4.96.6 1.65.6 2.73 1.87 1.09 1.26 1.64 3.2l-5.97 1.07q-.37-1.13-1.26-1.74-.88-.6-2.24-.6-2.04 0-3.25 1.42-1.2 1.41-1.2 4.47 0 3.25 1.22 4.65 1.23 1.39 3.42 1.39 1.04 0 1.98-.3.94-.3 2.16-1.03v-1.89z"/></svg>