<svg viewBox="0 0 128 128" xmlns="http://www.w3.org/2000/svg"><path d="m102.46 5h-76.92l-20.54 32.87v85.13h118v-85.13zm-2.18 3.93 17.21 27.53h-39.72l-5-27.53zm-30.88.06 4.44 27.47h-19.67l3.56-27.47zm-5.58 50.33-7.68-7.94-1.97 1.97v-12.95h19.67v12.95l-1.97-1.96zm-36.09-50.39 26.45-.13-3.94 27.66h-39.73zm-18.79 110.13v-78.67h41.3v22.45l5.9-5.9 7.87 7.87 7.87-7.87 5.9 5.9v-22.45h41.3v78.67z"/><path d="m15.77 77.96h5.88l2.12 11.2 3.09-11.2h5.87l3.1 11.2 2.12-11.2h5.85l-4.42 20.04h-6.07l-3.51-12.62-3.5 12.62h-6.07z"/><path d="m45.82 77.96h16.6v4.28h-10.39v3.19h9.64v4.09h-9.64v3.95h10.69v4.53h-16.9z"/><path d="m66.07 77.96h11.59q2.9 0 4.44 1.44 1.56 1.44 1.56 3.55 0 1.78-1.11 3.05-.74.85-2.16 1.34 2.16.52 3.17 1.79 1.03 1.26 1.03 3.17 0 1.56-.72 2.8-.72 1.24-1.98 1.97-.78.45-2.35.66-2.09.27-2.78.27h-10.69zm6.25 7.86h2.69q1.45 0 2.01-.49.57-.51.57-1.45 0-.88-.57-1.37-.56-.49-1.97-.49h-2.73zm0 7.88h3.16q1.6 0 2.26-.56.66-.57.66-1.53 0-.89-.66-1.42-.64-.55-2.27-.55h-3.14z"/><path d="m87.77 77.96h8.15l3.14 12.2 3.13-12.2h8.12v20.04h-5.06v-15.29l-3.92 15.29h-4.58l-3.91-15.29v15.29h-5.07z"/></svg>