<svg height="23.72" viewBox="0 0 57.684 23.723" width="57.68" xmlns="http://www.w3.org/2000/svg"><path d="m13.34 2.375v18.973h-4.933v-7.969h-1.477v7.969h-4.933v-18.973h4.934v6.785h1.477v-6.785z"/><path d="m18.321 17.48v3.867h-3.574v-3.867z"/><path d="m29.829 18.113v3.234h-10.418v-2.707q4.629-7.57 5.496-9.363.879-1.805.879-2.813 0-.773-.27-1.148-.258-.387-.797-.387-.539 0-.809.422-.258.422-.258 1.676v1.805h-4.241v-.691q0-1.594.164-2.508.164-.926.809-1.816.645-.891 1.676-1.348 1.031-.457 2.473-.457 2.824 0 4.266 1.406 1.453 1.395 1.453 3.539 0 1.629-.82 3.445-.809 1.816-4.793 7.711z"/><path d="m43.036 7.414h-4.734q0-1.324-.035-1.664-.023-.352-.281-.586-.246-.234-.68-.234-.363 0-.598.223-.234.223-.27.574-.035.352-.035 1.418v3.023q.363-.762 1.066-1.137.704-.387 1.735-.387 1.301 0 2.297.703.996.703 1.266 1.688.27.984.27 2.66v1.512q0 1.992-.152 2.965-.152.973-.82 1.805-.656.82-1.816 1.277-1.148.457-2.684.457-1.91 0-3.129-.527-1.221-.528-1.888-1.512-.657-.996-.774-2.086-.105-1.09-.105-4.231v-2.625q0-3.387.094-4.523.105-1.148.82-2.168.715-1.02 1.945-1.523 1.242-.516 2.859-.516 1.992 0 3.27.645 1.277.645 1.828 1.816.551 1.172.551 2.953zm-4.734 5.918q0-1.008-.223-1.383-.223-.375-.727-.375-.492 0-.727.363-.223.352-.223 1.395v3.434q0 1.254.211 1.641.223.387.727.387.305 0 .633-.293.328-.305.328-1.617z"/><path d="m53.548 10.602q1.078.363 1.605 1.195.527.82.527 3.867 0 2.262-.516 3.516-.516 1.242-1.781 1.898-1.266.645-3.246.645-2.25 0-3.539-.75-1.277-.762-1.688-1.852-.398-1.102-.398-3.809v-1.5h4.734v3.082q0 1.23.141 1.57.152.328.656.328.551 0 .727-.422.176-.422.176-2.203v-1.313q0-1.09-.246-1.594-.246-.502-.727-.655-.48-.164-1.863-.187v-2.754q1.688 0 2.086-.129.398-.129.574-.563.176-.434.176-1.359v-1.054q0-.996-.211-1.312-.199-.316-.633-.316-.492 0-.68.34-.176.328-.176 1.418v1.557h-4.734v-1.617q0-2.719 1.242-3.668 1.242-.961 3.949-.961 3.387 0 4.594 1.324 1.207 1.324 1.207 3.68 0 1.594-.434 2.309-.434.703-1.523 1.289z"/></svg>