<svg height="37.33" viewBox="0 0 59.775 37.333" width="59.78" xmlns="http://www.w3.org/2000/svg"><path d="m13.7 2.375v18.973h-4.933v-7.969h-1.477v7.969h-4.933v-18.973h4.934v6.785h1.477v-6.785z"/><path d="m18.681 17.48v3.867h-3.574v-3.867z"/><path d="m30.189 18.113v3.234h-10.418v-2.707q4.629-7.57 5.496-9.363.879-1.805.879-2.813 0-.773-.27-1.148-.258-.387-.797-.387-.539 0-.809.422-.258.422-.258 1.676v1.805h-4.241v-.691q0-1.594.164-2.508.164-.926.809-1.816.645-.891 1.676-1.348 1.031-.457 2.473-.457 2.824 0 4.266 1.406 1.453 1.395 1.453 3.539 0 1.629-.82 3.445-.809 1.816-4.793 7.711z"/><path d="m43.396 7.414h-4.734q0-1.324-.035-1.664-.023-.352-.281-.586-.246-.234-.68-.234-.363 0-.598.223-.234.223-.27.574-.035.352-.035 1.418v3.023q.363-.762 1.066-1.137.704-.387 1.735-.387 1.301 0 2.297.703.996.703 1.266 1.688.27.984.27 2.66v1.512q0 1.992-.152 2.965-.152.973-.82 1.805-.656.82-1.816 1.277-1.148.457-2.684.457-1.91 0-3.129-.527-1.221-.528-1.888-1.512-.657-.996-.774-2.086-.105-1.09-.105-4.231v-2.625q0-3.387.094-4.523.105-1.148.82-2.168.715-1.02 1.945-1.523 1.242-.516 2.859-.516 1.992 0 3.27.645 1.277.645 1.828 1.816.551 1.172.551 2.953zm-4.734 5.918q0-1.008-.223-1.383-.223-.375-.727-.375-.492 0-.727.363-.223.352-.223 1.395v3.434q0 1.254.211 1.641.223.387.727.387.305 0 .633-.293.328-.305.328-1.617z"/><path d="m54.669 2.375v12.398h1.348v3.234h-1.348v3.34h-4.734v-3.34h-5.625v-3.234l4.09-12.398zm-4.734 12.398v-8.074l-2.086 8.074z"/><path d="m9.613 25.642v9.486h-2.156v-6.404l-.861 6.404h-1.53l-.908-6.257v6.258h-2.156v-9.486h3.193q.141.855.299 2.016l.34 2.414.563-4.43z"/><path d="m10.604 25.642h2.484q1.008 0 1.547.158.545.158.814.457.275.299.369.727.1.422.1 1.313v.826q0 .908-.188 1.324-.188.416-.691.639-.498.223-1.307.223h-.662v3.82h-2.467zm2.467 1.623v2.414q.105.006.182.006.34 0 .469-.164.135-.17.135-.697v-.779q0-.486-.152-.633-.152-.146-.633-.146z"/><path d="m16.627 25.642h4.113v1.898h-1.646v1.799h1.541v1.805h-1.541v2.086h1.811v1.898h-4.277z"/><path d="m27.279 29.134h-2.467v-.861q0-.814-.07-1.02-.07-.205-.334-.205-.229 0-.311.176-.082.176-.082.902v4.553q0 .639.082.844.082.199.328.199.27 0 .363-.229.1-.229.1-.891v-1.125h-.498v-1.441h2.889v5.092h-1.553l-.229-.68q-.252.439-.639.662-.381.217-.902.217-.621 0-1.166-.299-.539-.305-.82-.75-.281-.445-.352-.932-.07-.492-.07-1.471v-2.818q0-1.359.146-1.975.146-.615.838-1.125.697-.516 1.799-.516 1.084 0 1.799.445.715.445.932 1.061.217.609.217 1.775z"/><path d="m31.059 30.423v1.635h-3.111v-1.635z"/><path d="m36.525 25.642v6.199h.674v1.617h-.674v1.67h-2.367v-1.67h-2.813v-1.617l2.045-6.199zm-2.367 6.199v-4.037l-1.043 4.037z"/><path d="m44.137 25.642 1.412 9.486h-2.525l-.123-1.705h-.885l-.146 1.705h-2.555l1.254-9.486zm-1.307 6.1q-.188-1.611-.375-3.979-.375 2.719-.469 3.979z"/><path d="m51.584 25.642-1.254 9.486h-3.744l-1.424-9.486h2.602q.451 3.92.645 6.627.193-2.736.404-4.863l.17-1.764z"/><path d="m57.777 29.779h-2.467v-1.652q0-.721-.082-.896-.076-.182-.346-.182-.305 0-.387.217-.082.217-.082.938v4.406q0 .691.082.902.082.211.369.211.275 0 .357-.211.088-.211.088-.99v-1.189h2.467v.369q0 1.471-.211 2.086-.205.615-.92 1.078-.709.463-1.752.463-1.084 0-1.787-.393-.703-.393-.932-1.084-.229-.697-.229-2.092v-2.771q0-1.025.07-1.535.07-.516.416-.99.352-.475.967-.744.621-.275 1.424-.275 1.09 0 1.799.422.709.422.932 1.055.223.627.223 1.957z"/></svg>