<svg height="37.33" viewBox="0 0 57.918 37.333" width="57.92" xmlns="http://www.w3.org/2000/svg"><path d="m13.35 2.375v18.973h-4.933v-7.969h-1.477v7.969h-4.933v-18.973h4.934v6.785h1.477v-6.785z"/><path d="m18.331 17.48v3.867h-3.574v-3.867z"/><path d="m29.839 18.113v3.234h-10.418v-2.707q4.629-7.57 5.496-9.363.879-1.805.879-2.813 0-.773-.27-1.148-.258-.387-.797-.387-.539 0-.809.422-.258.422-.258 1.676v1.805h-4.241v-.691q0-1.594.164-2.508.164-.926.809-1.816.645-.891 1.676-1.348 1.031-.457 2.473-.457 2.824 0 4.266 1.406 1.453 1.395 1.453 3.539 0 1.629-.82 3.445-.809 1.816-4.793 7.711z"/><path d="m43.046 7.414h-4.734q0-1.324-.035-1.664-.023-.352-.281-.586-.246-.234-.68-.234-.363 0-.598.223-.234.223-.27.574-.035.352-.035 1.418v3.023q.363-.762 1.066-1.137.704-.387 1.735-.387 1.301 0 2.297.703.996.703 1.266 1.688.27.984.27 2.66v1.512q0 1.992-.152 2.965-.152.973-.82 1.805-.656.82-1.816 1.277-1.148.457-2.684.457-1.91 0-3.129-.527-1.221-.528-1.888-1.512-.657-.996-.774-2.086-.105-1.09-.105-4.231v-2.625q0-3.387.094-4.523.105-1.148.82-2.168.715-1.02 1.945-1.523 1.242-.516 2.859-.516 1.992 0 3.27.645 1.277.645 1.828 1.816.551 1.172.551 2.953zm-4.734 5.918q0-1.008-.223-1.383-.223-.375-.727-.375-.492 0-.727.363-.223.352-.223 1.395v3.434q0 1.254.211 1.641.223.387.727.387.305 0 .633-.293.328-.305.328-1.617z"/><path d="m54.999 2.375v3.035h-5.871v3.223q1.102-1.301 2.836-1.301 1.957 0 2.953 1.102 1.008 1.09 1.008 4.207v2.707q0 2.016-.199 2.965-.188.938-.82 1.746-.633.797-1.77 1.23-1.125.422-2.754.422-1.828 0-3.223-.633-1.395-.645-1.98-1.91-.586-1.266-.586-3.914v-1.031h4.734v1.184q0 1.84.129 2.613.129.773.891.773.352 0 .563-.223.223-.223.234-.48.023-.258.047-2.238v-3.762q0-1.066-.223-1.453-.223-.387-.739-.387-.328 0-.551.199-.223.199-.293.434-.059.223-.059 1.055h-4.688l.199-9.563z"/><path d="m13.121 25.642v9.486h-2.467v-3.984h-.738v3.984h-2.467v-9.486h2.467v3.393h.738v-3.393z"/><path d="m17.721 33.195v1.934h-1.787v-1.934z"/><path d="m20.551 25.642h4.113v1.898h-1.646v1.799h1.541v1.805h-1.541v2.086h1.811v1.898h-4.277z"/><path d="m29.158 33.195v1.934h-1.787v-1.934z"/><path d="m37.848 25.642-1.254 9.486h-3.744l-1.424-9.486h2.602q.451 3.92.645 6.627.193-2.736.404-4.863l.17-1.764z"/><path d="m41.885 33.195v1.934h-1.787v-1.934z"/><path d="m50.475 29.779h-2.467v-1.652q0-.721-.082-.896-.076-.182-.346-.182-.305 0-.387.217-.082.217-.082.938v4.406q0 .691.082.902.082.211.369.211.275 0 .357-.211.088-.211.088-.99v-1.189h2.467v.369q0 1.471-.211 2.086-.205.615-.92 1.078-.709.463-1.752.463-1.084 0-1.787-.393-.703-.393-.932-1.084-.229-.697-.229-2.092v-2.771q0-1.025.07-1.535.07-.516.416-.99.352-.475.967-.744.621-.275 1.424-.275 1.09 0 1.799.422.709.422.932 1.055.223.627.223 1.957z"/></svg>