<svg height="23.71" viewBox="0 0 53.957 23.711" width="53.96" xmlns="http://www.w3.org/2000/svg"><path d="m13.345 2.376v18.973h-4.934v-7.969h-1.477v7.969h-4.933v-18.973h4.934v6.785h1.477v-6.785z"/><path d="m18.325 17.481v3.867h-3.574v-3.867z"/><path d="m29.833 18.114v3.234h-10.418v-2.707q4.629-7.57 5.496-9.363.879-1.805.879-2.813 0-.773-.27-1.148-.258-.387-.797-.387-.539 0-.809.422-.258.422-.258 1.676v1.805h-4.242v-.691q0-1.594.164-2.508.164-.926.809-1.816.645-.891 1.676-1.348 1.031-.457 2.473-.457 2.824 0 4.266 1.406 1.453 1.395 1.453 3.539 0 1.629-.82 3.445-.809 1.816-4.793 7.711z"/><path d="m43.04 7.415h-4.734q0-1.324-.035-1.664-.023-.352-.281-.586-.246-.234-.68-.234-.363 0-.598.223-.234.223-.27.574-.035.352-.035 1.418v3.023q.363-.762 1.066-1.137.703-.387 1.734-.387 1.301 0 2.297.703.996.703 1.266 1.688.27.984.27 2.66v1.512q0 1.992-.152 2.965-.152.973-.82 1.805-.656.82-1.816 1.277-1.148.457-2.684.457-1.91 0-3.129-.527-1.219-.527-1.887-1.512-.656-.996-.773-2.086-.105-1.09-.105-4.23v-2.625q0-3.387.094-4.523.105-1.148.82-2.168.715-1.02 1.945-1.523 1.242-.516 2.859-.516 1.992 0 3.27.645 1.277.645 1.828 1.816.551 1.172.551 2.953zm-4.734 5.918q0-1.008-.223-1.383-.223-.375-.727-.375-.492 0-.727.363-.223.352-.223 1.395v3.434q0 1.254.211 1.641.223.387.727.387.305 0 .633-.293.328-.305.328-1.617z"/><path d="m51.958 2.376v18.972h-4.734v-10.172q0-2.203-.105-2.648-.105-.445-.586-.668-.469-.234-2.109-.234h-.469v-2.215q3.434-.738 5.215-3.035z"/></svg>