<svg height="17.18" viewBox="0 0 58.302 17.18" width="58.3" xmlns="http://www.w3.org/2000/svg"><g transform="translate(-2.36 -14.13)"><path d="m10.275 21.661v7.378h-1.677v-4.981l-.67 4.981h-1.189l-.707-4.867v4.867h-1.677v-7.378h2.484q.109.665.232 1.568l.265 1.877.437-3.445z"/><path d="m11.045 21.661h1.932q.784 0 1.203.123.424.123.633.355.214.232.287.565.077.328.077 1.021v.643q0 .706-.146 1.03-.146.324-.538.497-.387.173-1.016.173h-.515v2.971h-1.919zm1.919 1.262v1.878q.082.005.141.005.264 0 .365-.128.105-.132.105-.542v-.607q0-.378-.118-.492-.118-.114-.492-.114z"/><path d="m15.73 21.661h3.199v1.477h-1.281v1.399h1.199v1.404h-1.199v1.622h1.408v1.477h-3.327z"/><path d="m24.015 24.377h-1.919v-.67q0-.633-.055-.793-.055-.16-.26-.16-.178 0-.242.137-.064.137-.064.702v3.541q0 .497.064.656.064.155.255.155.21 0 .283-.178.077-.178.077-.693v-.874h-.387v-1.121h2.247v3.96h-1.208l-.178-.529q-.196.342-.497.515-.296.169-.702.169-.483 0-.907-.232-.419-.237-.638-.583-.219-.346-.273-.725-.055-.383-.055-1.144v-2.192q0-1.057.114-1.536.114-.479.652-.875.542-.401 1.399-.401.843 0 1.399.346.556.346.725.825.169.474.169 1.381z"/><path d="m26.955 25.379v1.272h-2.42v-1.272z"/><path d="m31.207 21.661v4.822h.524v1.257h-.524v1.299h-1.841v-1.299h-2.188v-1.258l1.591-4.821zm-1.841 4.821v-3.14l-.811 3.14z"/><path d="m40.47 16.391 1.883 12.648h-3.368l-.164-2.273h-1.18l-.195 2.273h-3.406l1.672-12.648zm-1.742 8.132q-.25-2.148-.5-5.305-.5 3.625-.625 5.305z"/><path d="m50.399 16.391-1.671 12.648h-4.993l-1.898-12.648h3.469q.602 5.227.859 8.836.258-3.648.539-6.484l.227-2.352z"/><path d="m58.657 21.906h-3.289v-2.203q0-.961-.109-1.195-.102-.242-.461-.242-.406 0-.516.289-.109.289-.109 1.25v5.875q0 .922.109 1.203.109.281.492.281.367 0 .477-.281.117-.281.117-1.32v-1.587h3.289v.492q0 1.961-.281 2.781-.273.82-1.227 1.438-.945.617-2.336.617-1.445 0-2.383-.523-.938-.523-1.242-1.445-.304-.93-.304-2.789v-3.696q0-1.367.094-2.047.094-.688.555-1.32.469-.633 1.289-.992.828-.367 1.898-.367 1.453 0 2.398.563.945.563 1.242 1.406.297.836.297 2.609z"/><text x="9.77" y="40.25"><tspan x="9.77" y="44.5"/></text></g></svg>