<svg height="32.32" viewBox="0 0 60.672 32.325" width="60.67" xmlns="http://www.w3.org/2000/svg"><g transform="translate(-2.27 -8.97)"><path d="m10.255 17.582v7.378h-1.677v-4.981l-.67 4.981h-1.189l-.707-4.867v4.867h-1.677v-7.378h2.484q.109.665.232 1.568l.265 1.877.437-3.445z"/><path d="m11.025 17.582h1.932q.784 0 1.203.123.424.123.633.355.214.232.287.565.077.328.077 1.021v.643q0 .706-.146 1.03-.146.324-.538.497-.387.173-1.016.173h-.515v2.971h-1.919zm1.919 1.262v1.878q.082.005.141.005.264 0 .365-.128.105-.132.105-.542v-.606q0-.378-.118-.492-.119-.114-.493-.114z"/><path d="m15.71 17.582h3.199v1.477h-1.281v1.399h1.199v1.404h-1.199v1.622h1.408v1.476h-3.327z"/><path d="m23.995 20.298h-1.919v-.67q0-.633-.055-.793-.055-.16-.26-.16-.178 0-.242.137-.064.137-.064.702v3.541q0 .497.064.656.064.155.255.155.21 0 .283-.178.077-.178.077-.693v-.875h-.387v-1.12h2.247v3.96h-1.208l-.178-.529q-.196.342-.497.515-.296.169-.702.169-.483 0-.907-.232-.419-.237-.638-.583-.219-.346-.273-.725-.055-.383-.055-1.144v-2.192q0-1.057.114-1.536.114-.479.652-.875.542-.401 1.399-.401.843 0 1.399.346.556.346.725.825.169.474.169 1.381z"/><path d="m26.935 21.301v1.271h-2.42v-1.271z"/><path d="m31.187 17.582v4.822h.524v1.258h-.524v1.298h-1.841v-1.299h-2.188v-1.257l1.591-4.822zm-1.841 4.822v-3.14l-.811 3.14z"/><path d="m40.978 11.258 2.039 13.702h-3.647l-.178-2.462h-1.278l-.212 2.462h-3.69l1.811-13.702zm-1.887 8.811q-.271-2.327-.542-5.747-.542 3.927-.677 5.747z"/><path d="m51.176 15.405h-3.309v-1.016q0-.711-.127-.906-.127-.195-.423-.195-.322 0-.491.262-.161.262-.161.796 0 .686.186 1.033.178.347 1.007.838 2.378 1.413 2.996 2.319.618.906.618 2.92 0 1.464-.347 2.158-.339.694-1.32 1.168-.982.465-2.285.465-1.43 0-2.446-.542-1.007-.54-1.32-1.378-.313-.838-.313-2.378v-.897h3.309v1.667q0 .77.135.99.144.22.499.22.355 0 .525-.279.178-.279.178-.829 0-1.21-.33-1.583-.339-.373-1.667-1.244-1.329-.881-1.761-1.278-.431-.398-.719-1.101-.279-.702-.279-1.794 0-1.574.398-2.302.406-.728 1.303-1.134.897-.415 2.167-.415 1.388 0 2.361.449.982.449 1.295 1.134.322.677.322 2.311z"/><path d="m52.598 11.258h3.589q1.456 0 2.234.229.787.229 1.176.66.398.432.533 1.049.144.609.144 1.896v1.193q0 1.312-.271 1.913-.271.601-.999.923-.719.322-1.887.322h-.956v5.517h-3.563zm3.563 2.344v3.487q.152.008.262.008.491 0 .677-.237.195-.245.195-1.007v-1.125q0-.702-.22-.914-.22-.212-.914-.212z"/><text x="9.77" y="40.25"><tspan x="9.77" y="44.5"/></text><path d="m9.78 28.463v9.486h-2.162l-1.283-4.313v4.313h-2.063v-9.486h2.063l1.383 4.271v-4.271z"/><path d="m16.055 34.199h-3.064v1.682q0 .527.076.68.076.152.293.152.27 0 .357-.199.094-.205.094-.785v-1.026h2.244v.574q0 .721-.094 1.107-.088.387-.422.826-.334.439-.85.662-.51.217-1.283.217-.75 0-1.324-.217-.574-.217-.896-.592-.316-.381-.439-.832-.123-.457-.123-1.324v-2.268q0-1.02.275-1.605.275-.592.902-.902.627-.316 1.441-.316.996 0 1.641.381.65.375.908 1.002.264.621.264 1.752zm-2.373-1.265v-.569q0-.604-.064-.779-.064-.176-.264-.176-.246 0-.305.152-.059.146-.059.803v.568z"/><path d="m19.202 30.174-.094 1.02q.516-1.096 1.494-1.16v2.736q-.65 0-.955.176-.305.176-.375.492-.07.311-.07 1.441v3.07h-2.368v-7.775z"/><path d="m26.479 32.904v1.904q0 1.049-.105 1.541-.105.486-.451.914-.346.422-.891.627-.539.199-1.242.199-.785 0-1.33-.17-.545-.176-.85-.521-.299-.352-.428-.844-.129-.498-.129-1.488v-1.992q0-1.084.234-1.693.234-.609.844-.979.609-.369 1.559-.369.797 0 1.365.24.574.234.885.615.311.381.422.785.117.404.117 1.23zm-2.367-.586q0-.598-.064-.75-.064-.158-.275-.158-.211 0-.281.158-.07.152-.07.75v3.51q0 .551.07.721.07.164.275.164.211 0 .275-.152.07-.152.07-.656z"/><path d="m29.444 28.463h1.846q1.787 0 2.414.164.633.164.961.539.328.375.41.838.082.457.082 1.805v3.322q0 1.277-.123 1.711-.117.428-.416.674-.299.24-.738.34-.439.094-1.324.094h-3.111zm2.467 1.623v6.24q.533 0 .656-.211.123-.217.123-1.166v-3.686q0-.645-.041-.826-.041-.182-.188-.264-.146-.088-.551-.088z"/><path d="m38.444 28.463v1.236h-2.438v-1.236zm0 1.711v7.775h-2.438v-7.775z"/><path d="m44.666 30.174v5.988q0 1.213-.059 1.57-.053.352-.393.744-.34.398-.949.604-.604.211-1.523.211-1.131 0-1.816-.387-.686-.381-.709-1.506h2.297q0 .516.375.516.27 0 .357-.158.088-.158.088-.662v-.586q-.305.275-.645.416-.334.141-.703.141-.639 0-1.055-.258-.41-.258-.563-.674-.152-.422-.152-1.195v-2.824q0-1.107.398-1.594.398-.486 1.213-.486.445 0 .809.182.369.182.656.545l.17-.586zm-2.373 2.063q0-.533-.064-.68-.059-.146-.27-.146-.205 0-.293.17-.082.164-.082.656v2.613q0 .521.064.68.064.152.27.152.234 0 .305-.188.07-.188.07-.85z"/><path d="m47.959 28.463v1.236h-2.438v-1.236zm0 1.711v7.775h-2.438v-7.775z"/><path d="m51.299 29.137v1.225h.639v1.23h-.639v4.16q0 .768.076.855.082.088.662.088v1.254h-.955q-.809 0-1.154-.064-.346-.07-.609-.311-.264-.246-.328-.557-.064-.316-.064-1.477v-3.948h-.511v-1.23h.51v-1.225z"/><path d="m54.575 33.185h-2.221v-.521q0-.902.205-1.389.211-.492.838-.867.627-.375 1.629-.375 1.201 0 1.811.428.609.422.732 1.043.123.615.123 2.543v3.902h-2.303v-.691q-.217.416-.563.627-.34.205-.814.205-.621 0-1.143-.346-.516-.352-.516-1.529v-.639q0-.873.275-1.189.275-.316 1.365-.738 1.166-.457 1.248-.615.082-.158.082-.645 0-.609-.094-.791-.088-.188-.299-.188-.24 0-.299.158-.059.152-.059.803zm.75 1.066q-.568.416-.662.697-.088.281-.088.809 0 .604.076.779.082.176.316.176.223 0 .287-.135.07-.141.07-.727z"/><path d="m60.944 28.463v9.486h-2.438v-9.486z"/></g></svg>