<svg height="33.59" viewBox="0 0 58.638 33.591" width="58.64" xmlns="http://www.w3.org/2000/svg"><g transform="translate(-1.63 -7.23)"><path d="m9.555 14.771v7.378h-1.677v-4.981l-.67 4.981h-1.189l-.707-4.867v4.867h-1.677v-7.378h2.484q.109.665.232 1.568l.265 1.877.437-3.445z"/><path d="m10.325 14.771h1.932q.784 0 1.203.123.424.123.633.355.214.232.287.565.077.328.077 1.021v.643q0 .706-.146 1.03-.146.324-.538.497-.387.173-1.016.173h-.515v2.971h-1.919zm1.919 1.262v1.878q.082.005.141.005.264 0 .365-.128.105-.132.105-.542v-.607q0-.378-.118-.492-.118-.114-.492-.114z"/><path d="m15.01 14.771h3.199v1.477h-1.281v1.399h1.199v1.404h-1.199v1.622h1.408v1.477h-3.327z"/><path d="m23.295 17.487h-1.919v-.67q0-.633-.055-.793-.055-.16-.26-.16-.178 0-.242.137-.064.137-.064.702v3.541q0 .497.064.656.064.155.255.155.21 0 .283-.178.077-.178.077-.693v-.874h-.387v-1.121h2.247v3.96h-1.208l-.178-.529q-.196.342-.497.515-.296.169-.702.169-.483 0-.907-.232-.419-.237-.638-.583-.219-.346-.273-.725-.055-.383-.055-1.144v-2.192q0-1.057.114-1.536.114-.479.652-.875.542-.401 1.399-.401.843 0 1.399.346.556.346.725.825.169.474.169 1.381z"/><path d="m26.235 18.489v1.272h-2.42v-1.272z"/><path d="m30.487 14.771v4.822h.524v1.257h-.524v1.299h-1.841v-1.299h-2.188v-1.258l1.591-4.821zm-1.841 4.821v-3.14l-.811 3.14z"/><path d="m39.75 9.501 1.883 12.648h-3.368l-.164-2.273h-1.18l-.195 2.273h-3.406l1.672-12.648zm-1.742 8.132q-.25-2.148-.5-5.305-.5 3.625-.625 5.305z"/><path d="m49.679 9.501-1.671 12.648h-4.993l-1.898-12.648h3.469q.602 5.227.859 8.836.258-3.648.539-6.484l.227-2.352z"/><path d="m57.937 15.016h-3.289v-2.203q0-.961-.109-1.195-.102-.242-.461-.242-.406 0-.516.289-.109.289-.109 1.25v5.875q0 .922.109 1.203.109.281.492.281.367 0 .477-.281.117-.281.117-1.32v-1.587h3.289v.492q0 1.961-.281 2.781-.273.82-1.227 1.438-.945.617-2.336.617-1.445 0-2.383-.523-.938-.523-1.242-1.445-.304-.93-.304-2.789v-3.696q0-1.367.094-2.047.094-.688.555-1.32.469-.633 1.289-.992.828-.367 1.898-.367 1.453 0 2.398.563.945.563 1.242 1.406.297.836.297 2.609z"/><text x="9.77" y="40.25"><tspan x="9.77" y="44.5"/></text><path d="m8.986 37.802v1.021h-1.656q-.599 0-.844-.094-.245-.089-.333-.271-.083-.182-.083-.656-.745-.021-1.282-.391-.536-.369-.708-.937-.172-.573-.172-1.709v-2.609q0-.859.099-1.307.104-.453.422-.849.318-.401.818-.604.5-.203 1.109-.203.734 0 1.307.25.578.25.859.635.286.385.37.802.089.411.089 1.229v2.74q0 1.125-.109 1.526-.109.401-.422.641-.307.234-.823.359.016.281.115.354.104.073.484.073zm-2.198-6.266q0-.589-.068-.75-.063-.167-.266-.167-.172 0-.266.135-.089.13-.089.781v3.938q0 .734.057.906.063.172.281.172.224 0 .286-.198.063-.198.063-.943z"/><path d="m14.559 30.89v6.911h-2.141l.036-.573q-.219.349-.542.526-.318.172-.734.172-.474 0-.786-.167-.313-.167-.464-.443-.146-.276-.182-.573-.036-.302-.036-1.193v-4.661h2.104v4.703q0 .807.047.958.052.151.271.151.234 0 .276-.156.047-.156.047-1.005v-4.651z"/><path d="m17.491 29.37v1.099h-2.167v-1.099zm0 1.521v6.911h-2.167v-6.911z"/><path d="m22.892 33.5h-1.984v-.797q0-.417-.068-.563-.068-.151-.25-.151-.182 0-.245.13-.063.13-.063.583v3.26q0 .37.094.557.094.182.276.182.214 0 .286-.193.078-.193.078-.729v-.823h1.875q-.005.828-.063 1.245-.052.411-.349.849-.292.432-.766.656-.474.219-1.172.219-.891 0-1.411-.302-.521-.307-.74-.854-.214-.552-.214-1.563v-1.964q0-.88.177-1.328.177-.448.755-.797.578-.354 1.406-.354.823 0 1.406.349.583.349.776.88.193.531.193 1.505z"/><path d="m28.043 30.89-.854 2.755 1.109 4.156h-2.026l-.656-3.01v3.01h-2.104v-8.432h2.104v3.542l.656-2.021z"/><path d="m33.096 29.37v1.688h-1.302v6.745h-2.193v-6.745h-1.297v-1.688z"/><path d="m35.7 29.37v1.099h-2.167v-1.099zm0 1.521v6.911h-2.167v-6.911z"/><path d="m38.528 30.89-.036.656q.245-.391.583-.583.339-.198.771-.198.844 0 1.328.781.266-.391.599-.583.333-.198.74-.198.536 0 .885.26.354.26.453.641.099.375.099 1.224v4.911h-2.042v-4.505q0-.885-.063-1.094-.057-.214-.276-.214-.224 0-.292.208-.063.208-.063 1.099v4.505h-2.042v-4.391q0-1.016-.052-1.219-.047-.203-.271-.203-.141 0-.24.109-.099.104-.109.26-.01.151-.01.651v4.792h-2.042v-6.911z"/><path d="m49.445 34.469h-2.724v1.495q0 .469.068.604.068.135.26.135.24 0 .318-.177.083-.182.083-.698v-.911h1.995v.51q0 .641-.083.984-.078.344-.375.734-.297.391-.755.589-.453.193-1.141.193-.667 0-1.177-.193-.51-.193-.797-.526-.281-.339-.391-.74-.109-.406-.109-1.177v-2.016q0-.906.245-1.427.245-.526.802-.802.557-.281 1.281-.281.885 0 1.458.339.578.333.807.891.234.552.234 1.557zm-2.109-1.125v-.505q0-.536-.057-.693-.057-.156-.234-.156-.219 0-.271.135-.052.13-.052.714v.505z"/><path d="m58.273 24.099v2.988l-2.184 10.715h-3.402l2.429-11.24h-3.377v-2.463z"/></g></svg>