<svg height="18.28" viewBox="0 0 59.939 18.278" width="59.94" xmlns="http://www.w3.org/2000/svg"><g transform="translate(-1.95 -15.45)"><path d="m9.875 24.062v7.378h-1.677v-4.981l-.67 4.981h-1.189l-.707-4.867v4.867h-1.677v-7.378h2.484q.109.665.232 1.568l.265 1.877.437-3.445z"/><path d="m10.645 24.062h1.932q.784 0 1.203.123.424.123.633.355.214.232.287.565.077.328.077 1.021v.643q0 .706-.146 1.03-.146.324-.538.497-.387.173-1.016.173h-.515v2.971h-1.919zm1.919 1.262v1.878q.082.005.141.005.264 0 .365-.128.105-.132.105-.542v-.606q0-.378-.118-.492-.119-.114-.493-.114z"/><path d="m15.33 24.062h3.199v1.477h-1.281v1.399h1.199v1.404h-1.199v1.622h1.408v1.476h-3.327z"/><path d="m23.615 26.778h-1.919v-.67q0-.633-.055-.793-.055-.16-.26-.16-.178 0-.242.137-.064.137-.064.702v3.541q0 .497.064.656.064.155.255.155.21 0 .283-.178.077-.178.077-.693v-.875h-.387v-1.12h2.247v3.96h-1.208l-.178-.529q-.196.342-.497.515-.296.169-.702.169-.483 0-.907-.232-.419-.237-.638-.583-.219-.346-.273-.725-.055-.383-.055-1.144v-2.192q0-1.057.114-1.536.114-.479.652-.875.542-.401 1.399-.401.843 0 1.399.346.556.346.725.825.169.474.169 1.381z"/><path d="m26.555 27.781v1.271h-2.42v-1.271z"/><path d="m30.807 24.062v4.822h.524v1.258h-.524v1.298h-1.841v-1.299h-2.188v-1.257l1.591-4.822zm-1.841 4.822v-3.14l-.811 3.14z"/><path d="m40.598 17.738 2.039 13.702h-3.647l-.178-2.462h-1.278l-.212 2.462h-3.69l1.811-13.702zm-1.887 8.811q-.271-2.327-.542-5.747-.542 3.927-.677 5.747z"/><path d="m50.796 21.885h-3.309v-1.016q0-.711-.127-.906-.127-.195-.423-.195-.322 0-.491.262-.161.262-.161.796 0 .686.186 1.033.178.347 1.007.838 2.378 1.413 2.996 2.319.618.906.618 2.92 0 1.464-.347 2.158-.339.694-1.32 1.168-.982.465-2.285.465-1.43 0-2.446-.542-1.007-.54-1.32-1.378-.313-.838-.313-2.378v-.897h3.309v1.667q0 .77.135.99.144.22.499.22.355 0 .525-.279.178-.279.178-.829 0-1.21-.33-1.583-.339-.373-1.667-1.244-1.329-.881-1.761-1.278-.431-.398-.719-1.101-.279-.702-.279-1.794 0-1.574.398-2.302.406-.728 1.303-1.134.897-.415 2.167-.415 1.388 0 2.361.449.982.449 1.295 1.134.322.677.322 2.311z"/><path d="m52.218 17.738h3.589q1.456 0 2.234.229.787.229 1.176.66.398.432.533 1.049.144.609.144 1.896v1.193q0 1.312-.271 1.913-.271.601-.999.923-.719.322-1.887.322h-.956v5.517h-3.563zm3.563 2.344v3.487q.152.008.262.008.491 0 .677-.237.195-.245.195-1.007v-1.125q0-.702-.22-.914-.22-.212-.914-.212z"/><text x="9.77" y="40.25"><tspan x="9.77" y="44.5"/></text></g></svg>