<svg height="34.17" viewBox="0 0 59.939 34.174" width="59.94" xmlns="http://www.w3.org/2000/svg"><g transform="translate(-2.34 -8.97)"><path d="m10.255 17.582v7.378h-1.677v-4.981l-.67 4.981h-1.189l-.707-4.867v4.867h-1.677v-7.378h2.484q.109.665.232 1.568l.265 1.877.437-3.445z"/><path d="m11.025 17.582h1.932q.784 0 1.203.123.424.123.633.355.214.232.287.565.077.328.077 1.021v.643q0 .706-.146 1.03-.146.324-.538.497-.387.173-1.016.173h-.515v2.971h-1.919zm1.919 1.262v1.878q.082.005.141.005.264 0 .365-.128.105-.132.105-.542v-.606q0-.378-.118-.492-.119-.114-.493-.114z"/><path d="m15.71 17.582h3.199v1.477h-1.281v1.399h1.199v1.404h-1.199v1.622h1.408v1.476h-3.327z"/><path d="m23.995 20.298h-1.919v-.67q0-.633-.055-.793-.055-.16-.26-.16-.178 0-.242.137-.064.137-.064.702v3.541q0 .497.064.656.064.155.255.155.21 0 .283-.178.077-.178.077-.693v-.875h-.387v-1.12h2.247v3.96h-1.208l-.178-.529q-.196.342-.497.515-.296.169-.702.169-.483 0-.907-.232-.419-.237-.638-.583-.219-.346-.273-.725-.055-.383-.055-1.144v-2.192q0-1.057.114-1.536.114-.479.652-.875.542-.401 1.399-.401.843 0 1.399.346.556.346.725.825.169.474.169 1.381z"/><path d="m26.935 21.301v1.271h-2.42v-1.271z"/><path d="m31.187 17.582v4.822h.524v1.258h-.524v1.298h-1.841v-1.299h-2.188v-1.257l1.591-4.822zm-1.841 4.822v-3.14l-.811 3.14z"/><path d="m40.978 11.258 2.039 13.702h-3.647l-.178-2.462h-1.278l-.212 2.462h-3.69l1.811-13.702zm-1.887 8.811q-.271-2.327-.542-5.747-.542 3.927-.677 5.747z"/><path d="m51.176 15.405h-3.309v-1.016q0-.711-.127-.906-.127-.195-.423-.195-.322 0-.491.262-.161.262-.161.796 0 .686.186 1.033.178.347 1.007.838 2.378 1.413 2.996 2.319.618.906.618 2.92 0 1.464-.347 2.158-.339.694-1.32 1.168-.982.465-2.285.465-1.43 0-2.446-.542-1.007-.54-1.32-1.378-.313-.838-.313-2.378v-.897h3.309v1.667q0 .77.135.99.144.22.499.22.355 0 .525-.279.178-.279.178-.829 0-1.21-.33-1.583-.339-.373-1.667-1.244-1.329-.881-1.761-1.278-.431-.398-.719-1.101-.279-.702-.279-1.794 0-1.574.398-2.302.406-.728 1.303-1.134.897-.415 2.167-.415 1.388 0 2.361.449.982.449 1.295 1.134.322.677.322 2.311z"/><path d="m52.598 11.258h3.589q1.456 0 2.234.229.787.229 1.176.66.398.432.533 1.049.144.609.144 1.896v1.193q0 1.312-.271 1.913-.271.601-.999.923-.719.322-1.887.322h-.956v5.517h-3.563zm3.563 2.344v3.487q.152.008.262.008.491 0 .677-.237.195-.245.195-1.007v-1.125q0-.702-.22-.914-.22-.212-.914-.212z"/><text x="9.77" y="40.25"><tspan x="9.77" y="44.5"/></text><path d="m10.17 40.119v1.021h-1.656q-.599 0-.844-.094-.245-.089-.334-.271-.083-.182-.083-.656-.745-.021-1.281-.391-.537-.37-.709-.937-.172-.573-.172-1.709v-2.609q0-.859.099-1.307.104-.453.422-.849.318-.401.818-.604.5-.203 1.109-.203.734 0 1.307.25.578.25.859.635.286.385.37.802.089.411.089 1.229v2.74q0 1.125-.109 1.526-.109.401-.422.641-.307.234-.823.359.016.281.115.354.104.073.484.073zm-2.198-6.266q0-.589-.068-.75-.063-.167-.266-.167-.172 0-.266.135-.089.13-.089.781v3.938q0 .734.057.906.063.172.281.172.224 0 .286-.198.063-.198.063-.943z"/><path d="m15.742 33.207v6.911h-2.141l.036-.573q-.219.349-.542.526-.318.172-.734.172-.474 0-.786-.167-.313-.167-.464-.443-.146-.276-.182-.573-.036-.302-.036-1.193v-4.661h2.104v4.703q0 .807.047.958.052.151.271.151.234 0 .276-.156.047-.156.047-1.005v-4.651z"/><path d="m18.675 31.686v1.099h-2.167v-1.099zm0 1.521v6.911h-2.167v-6.911z"/><path d="m24.076 35.817h-1.984v-.797q0-.417-.068-.563-.068-.151-.25-.151-.182 0-.245.13-.063.13-.063.583v3.26q0 .37.094.557.094.182.276.182.214 0 .286-.193.078-.193.078-.729v-.823h1.875q-.005.828-.063 1.245-.052.411-.349.849-.292.432-.766.656-.474.219-1.172.219-.891 0-1.411-.302-.521-.307-.74-.854-.214-.552-.214-1.563v-1.964q0-.88.177-1.328.177-.448.755-.797.578-.354 1.406-.354.823 0 1.406.349.583.349.776.88.193.531.193 1.505z"/><path d="m29.227 33.207-.854 2.755 1.109 4.156h-2.026l-.656-3.01v3.01h-2.104v-8.432h2.104v3.542l.656-2.021z"/><path d="m32.019 32.285v1.089h.568v1.094h-.568v3.698q0 .682.068.76.073.078.589.078v1.115h-.849q-.719 0-1.026-.057-.307-.063-.542-.276-.234-.219-.292-.495-.057-.281-.057-1.313v-3.51h-.453v-1.094h.453v-1.089z"/><path d="m35.216 31.686v1.099h-2.167v-1.099zm0 1.521v6.911h-2.167v-6.911z"/><path d="m38.045 33.207-.036.656q.245-.391.583-.583.339-.198.771-.198.844 0 1.328.781.266-.391.599-.583.333-.198.74-.198.536 0 .885.26.354.26.453.641.099.375.099 1.224v4.911h-2.042v-4.505q0-.885-.063-1.094-.057-.214-.276-.214-.224 0-.292.208-.063.208-.063 1.099v4.505h-2.041v-4.389q0-1.016-.052-1.219-.047-.203-.271-.203-.141 0-.24.109-.099.104-.109.26-.01.151-.01.651v4.792h-2.042v-6.911z"/><path d="m48.961 36.785h-2.724v1.495q0 .469.068.604.068.135.26.135.24 0 .318-.177.083-.182.083-.698v-.911h1.995v.51q0 .641-.083.984-.078.344-.375.734-.297.391-.755.589-.453.193-1.141.193-.667 0-1.177-.193-.51-.193-.797-.526-.281-.339-.391-.74-.109-.406-.109-1.177v-2.016q0-.906.245-1.427.245-.526.802-.802.557-.281 1.281-.281.885 0 1.458.339.578.333.807.891.234.552.234 1.557zm-2.109-1.125v-.505q0-.536-.057-.693-.057-.156-.234-.156-.219 0-.271.135-.052.13-.052.714v.505z"/><path d="m59.529 30.83h-3.156q0-.883-.023-1.109-.016-.234-.188-.391-.164-.156-.453-.156-.242 0-.398.148-.156.148-.18.383-.023.234-.023.945v2.016q.242-.508.711-.758.469-.258 1.156-.258.867 0 1.531.469.664.469.844 1.125.18.656.18 1.773v1.008q0 1.328-.102 1.977-.102.648-.547 1.203-.438.547-1.211.852-.766.305-1.789.305-1.273 0-2.086-.352-.813-.352-1.258-1.008-.438-.664-.516-1.391-.07-.727-.07-2.82v-1.75q0-2.258.063-3.016.07-.766.547-1.445.477-.68 1.297-1.016.828-.344 1.906-.344 1.328 0 2.18.43.852.43 1.219 1.211.367.781.367 1.969zm-3.156 3.945q0-.672-.148-.922-.148-.25-.484-.25-.328 0-.484.242-.148.234-.148.93v2.289q0 .836.141 1.094.148.258.484.258.203 0 .422-.195.219-.203.219-1.078z"/></g></svg>