<svg height="43.7" viewBox="0 0 60.606 43.703" width="60.61" xmlns="http://www.w3.org/2000/svg"><path d="m20.937 2.004c-.814 0-1.575.144-2.297.446-.722.275-1.509.814-2.388 1.614-.21-.656-.617-1.155-1.207-1.522-.577-.354-1.247-.538-2.008-.538-1.654 0-3.137.683-4.462 2.061l-.052-.053.381-1.732h-4.32l-2.586 12.075h4.659l1.247-5.788c.249-1.155.643-1.982 1.155-2.455.525-.485 1.024-.722 1.483-.722.63 0 .932.302.932.919 0 .131-.013.315-.039.564-.039.262-.21 1.063-.486 2.415l-1.103 5.066h4.659l1.142-5.368c.263-1.247.63-2.166 1.076-2.73.446-.578 1.024-.866 1.719-.866.59 0 .879.315.879.945 0 .092-.013.275-.039.525-.039.249-.183 1.024-.472 2.336l-1.116 5.158h.013l-2.1 9.765h4.646l1.326-6.221c.866 1.273 2.139 1.903 3.833 1.903 1.654 0 3.032-.761 4.121-2.283s1.627-3.307 1.627-5.355c0-1.536-.355-2.743-1.076-3.649-.722-.906-1.772-1.352-3.124-1.352-.735 0-1.365.105-1.89.315-.426.166-.906.471-1.43.915l.419-1.965c.105-.473.158-.945.158-1.431 0-.827-.275-1.536-.827-2.113-.538-.578-1.365-.879-2.454-.879zm29.347 5.158c-1.772 0-3.228.709-4.384 2.126a7.554 7.554 0 0 0 -1.26 2.205c.039.236.052.485.052.735 0 .472-.105 1.286-.315 2.428h-.184c.052 1.26.42 2.284 1.089 3.084.735.879 1.706 1.313 2.94 1.313 1.365 0 2.559-.538 3.583-1.601l.039.039-.394 1.811c-.17.787-.446 1.365-.827 1.759-.368.381-.827.577-1.391.577-.853 0-1.3-.407-1.352-1.234l-4.397-.617c-.026.105-.026.289-.026.551 0 .827.262 1.588.814 2.297.551.722 1.207 1.181 1.956 1.418.761.223 1.838.341 3.215.341 1.969 0 3.465-.381 4.502-1.129 1.024-.748 1.785-2.244 2.257-4.489l2.402-11.339h-4.291l-.368 1.706c-.97-1.325-2.19-1.981-3.661-1.981zm8.321.276v-.001zm-35.044 1.023c-.03.026-.06.052-.09.079a1.625 1.625 0 0 1 .09-.079zm1.511 1.72c.433 0 .8.17 1.116.499.315.328.46.853.46 1.601 0 1.22-.237 2.257-.722 3.11s-1.063 1.286-1.746 1.286c-.46 0-.867-.171-1.234-.525-.354-.341-.538-.879-.538-1.588a9.298 9.298 0 0 1 .026-.617l.327-1.509c.092-.275.21-.551.341-.814.46-.958 1.116-1.444 1.969-1.444zm26.262.052c.433 0 .813.157 1.128.485.302.315.446.735.446 1.234 0 .814-.21 1.68-.643 2.599-.433.932-1.076 1.391-1.929 1.391-.486 0-.866-.171-1.182-.486-.302-.328-.459-.774-.459-1.339 0-.984.262-1.877.787-2.677.525-.814 1.142-1.207 1.851-1.207z" stroke-width=".337"/><g fill="#343434"><path d="m43.958 16.402c-.669 1.208-1.549 2.061-2.638 2.585-1.089.525-2.455.801-4.095.801-2.376 0-4.069-.538-5.066-1.614-1.011-1.076-1.509-2.389-1.509-3.937 0-1.076.236-2.1.696-3.045.472-.945 1.115-1.746 1.916-2.389.8-.656 1.588-1.089 2.376-1.312.787-.223 1.693-.328 2.742-.328 2.258 0 3.872.485 4.843 1.47.984.971 1.47 2.179 1.47 3.596 0 .473-.105 1.286-.315 2.428h-9.201c.132 1.614.853 2.415 2.179 2.415.892 0 1.601-.354 2.139-1.089zm-3.859-3.99c.052-.171.079-.394.079-.696 0-.604-.183-1.076-.551-1.391s-.827-.472-1.365-.472c-.564 0-1.089.223-1.562.643-.486.433-.853 1.063-1.089 1.916z" stroke-width=".337"/><path d="m37.954 41.708-7.557-.384.348-2.783 1.548-.404 1.868-10.746-3.887 2.305.695-3.908 5.605-3.567 2.639.131-2.728 16.292 1.934.572z"/></g></svg>