<svg height="34.15" viewBox="0 0 58.302 34.149" width="58.3" xmlns="http://www.w3.org/2000/svg"><g transform="translate(-1.63 -7.23)"><path d="m9.555 14.771v7.378h-1.677v-4.981l-.67 4.981h-1.189l-.707-4.867v4.867h-1.677v-7.378h2.484q.109.665.232 1.568l.265 1.877.437-3.445z"/><path d="m10.325 14.771h1.932q.784 0 1.203.123.424.123.633.355.214.232.287.565.077.328.077 1.021v.643q0 .706-.146 1.03-.146.324-.538.497-.387.173-1.016.173h-.515v2.971h-1.919zm1.919 1.262v1.878q.082.005.141.005.264 0 .365-.128.105-.132.105-.542v-.607q0-.378-.118-.492-.118-.114-.492-.114z"/><path d="m15.01 14.771h3.199v1.477h-1.281v1.399h1.199v1.404h-1.199v1.622h1.408v1.477h-3.327z"/><path d="m23.295 17.487h-1.919v-.67q0-.633-.055-.793-.055-.16-.26-.16-.178 0-.242.137-.064.137-.064.702v3.541q0 .497.064.656.064.155.255.155.21 0 .283-.178.077-.178.077-.693v-.874h-.387v-1.121h2.247v3.96h-1.208l-.178-.529q-.196.342-.497.515-.296.169-.702.169-.483 0-.907-.232-.419-.237-.638-.583-.219-.346-.273-.725-.055-.383-.055-1.144v-2.192q0-1.057.114-1.536.114-.479.652-.875.542-.401 1.399-.401.843 0 1.399.346.556.346.725.825.169.474.169 1.381z"/><path d="m26.235 18.489v1.272h-2.42v-1.272z"/><path d="m30.487 14.771v4.822h.524v1.257h-.524v1.299h-1.841v-1.299h-2.188v-1.258l1.591-4.821zm-1.841 4.821v-3.14l-.811 3.14z"/><path d="m39.75 9.501 1.883 12.648h-3.368l-.164-2.273h-1.18l-.195 2.273h-3.406l1.672-12.648zm-1.742 8.132q-.25-2.148-.5-5.305-.5 3.625-.625 5.305z"/><path d="m49.679 9.501-1.671 12.648h-4.993l-1.898-12.648h3.469q.602 5.227.859 8.836.258-3.648.539-6.484l.227-2.352z"/><path d="m57.937 15.016h-3.289v-2.203q0-.961-.109-1.195-.102-.242-.461-.242-.406 0-.516.289-.109.289-.109 1.25v5.875q0 .922.109 1.203.109.281.492.281.367 0 .477-.281.117-.281.117-1.32v-1.587h3.289v.492q0 1.961-.281 2.781-.273.82-1.227 1.438-.945.617-2.336.617-1.445 0-2.383-.523-.938-.523-1.242-1.445-.304-.93-.304-2.789v-3.696q0-1.367.094-2.047.094-.688.555-1.32.469-.633 1.289-.992.828-.367 1.898-.367 1.453 0 2.398.563.945.563 1.242 1.406.297.836.297 2.609z"/><text x="9.77" y="40.25"><tspan x="9.77" y="44.5"/></text><path d="m22.086 28.771-1.258 4.953 1.523 5.414h-3.07q-.453-2.047-.688-3.523-.313 1.844-.68 3.523h-2.64l1.36-5.413-1.36-4.954h2.641q.633 3.172.68 3.602.453-2.648.688-3.602z"/><path d="m29.578 36.982v2.156h-6.945v-1.804q3.086-5.047 3.664-6.242.586-1.203.586-1.875 0-.516-.18-.766-.172-.258-.531-.258-.359 0-.539.281-.172.281-.172 1.117v1.203h-2.828v-.46q0-1.063.109-1.672.109-.617.539-1.211.43-.594 1.117-.898.688-.305 1.648-.305 1.883 0 2.844.938.969.93.969 2.359 0 1.086-.547 2.297-.539 1.211-3.195 5.141z"/><path d="m38.383 29.85h-3.156q0-.883-.023-1.109-.016-.234-.188-.391-.164-.156-.453-.156-.242 0-.398.148-.156.148-.18.383-.023.234-.023.945v2.016q.242-.508.711-.758.469-.258 1.156-.258.867 0 1.531.469.664.469.844 1.125.18.656.18 1.773v1.008q0 1.328-.102 1.977-.102.648-.547 1.203-.438.547-1.211.852-.766.305-1.789.305-1.273 0-2.086-.352-.813-.352-1.258-1.008-.438-.664-.516-1.391-.07-.727-.07-2.82v-1.75q0-2.258.063-3.016.07-.766.547-1.445.477-.68 1.297-1.016.828-.344 1.906-.344 1.328 0 2.18.43.852.43 1.219 1.211.367.781.367 1.969zm-3.156 3.945q0-.672-.148-.922-.148-.25-.484-.25-.328 0-.484.242-.148.234-.148.93v2.289q0 .836.141 1.094.148.258.484.258.203 0 .422-.195.219-.203.219-1.078z"/><path d="m45.898 26.49v8.266h.898v2.156h-.898v2.227h-3.156v-2.227h-3.75v-2.156l2.727-8.266zm-3.156 8.266v-5.383l-1.391 5.383z"/></g></svg>