<svg height="34.36" viewBox="0 0 59.939 34.363" width="59.94" xmlns="http://www.w3.org/2000/svg"><g transform="translate(-2.34 -8.97)"><path d="m10.255 17.582v7.378h-1.677v-4.981l-.67 4.981h-1.189l-.707-4.867v4.867h-1.677v-7.378h2.484q.109.665.232 1.568l.265 1.877.437-3.445z"/><path d="m11.025 17.582h1.932q.784 0 1.203.123.424.123.633.355.214.232.287.565.077.328.077 1.021v.643q0 .706-.146 1.03-.146.324-.538.497-.387.173-1.016.173h-.515v2.971h-1.919zm1.919 1.262v1.878q.082.005.141.005.264 0 .365-.128.105-.132.105-.542v-.606q0-.378-.118-.492-.119-.114-.493-.114z"/><path d="m15.71 17.582h3.199v1.477h-1.281v1.399h1.199v1.404h-1.199v1.622h1.408v1.476h-3.327z"/><path d="m23.995 20.298h-1.919v-.67q0-.633-.055-.793-.055-.16-.26-.16-.178 0-.242.137-.064.137-.064.702v3.541q0 .497.064.656.064.155.255.155.21 0 .283-.178.077-.178.077-.693v-.875h-.387v-1.12h2.247v3.96h-1.208l-.178-.529q-.196.342-.497.515-.296.169-.702.169-.483 0-.907-.232-.419-.237-.638-.583-.219-.346-.273-.725-.055-.383-.055-1.144v-2.192q0-1.057.114-1.536.114-.479.652-.875.542-.401 1.399-.401.843 0 1.399.346.556.346.725.825.169.474.169 1.381z"/><path d="m26.935 21.301v1.271h-2.42v-1.271z"/><path d="m31.187 17.582v4.822h.524v1.258h-.524v1.298h-1.841v-1.299h-2.188v-1.257l1.591-4.822zm-1.841 4.822v-3.14l-.811 3.14z"/><path d="m40.978 11.258 2.039 13.702h-3.647l-.178-2.462h-1.278l-.212 2.462h-3.69l1.811-13.702zm-1.887 8.811q-.271-2.327-.542-5.747-.542 3.927-.677 5.747z"/><path d="m51.176 15.405h-3.309v-1.016q0-.711-.127-.906-.127-.195-.423-.195-.322 0-.491.262-.161.262-.161.796 0 .686.186 1.033.178.347 1.007.838 2.378 1.413 2.996 2.319.618.906.618 2.92 0 1.464-.347 2.158-.339.694-1.32 1.168-.982.465-2.285.465-1.43 0-2.446-.542-1.007-.54-1.32-1.378-.313-.838-.313-2.378v-.897h3.309v1.667q0 .77.135.99.144.22.499.22.355 0 .525-.279.178-.279.178-.829 0-1.21-.33-1.583-.339-.373-1.667-1.244-1.329-.881-1.761-1.278-.431-.398-.719-1.101-.279-.702-.279-1.794 0-1.574.398-2.302.406-.728 1.303-1.134.897-.415 2.167-.415 1.388 0 2.361.449.982.449 1.295 1.134.322.677.322 2.311z"/><path d="m52.598 11.258h3.589q1.456 0 2.234.229.787.229 1.176.66.398.432.533 1.049.144.609.144 1.896v1.193q0 1.312-.271 1.913-.271.601-.999.923-.719.322-1.887.322h-.956v5.517h-3.563zm3.563 2.344v3.487q.152.008.262.008.491 0 .677-.237.195-.245.195-1.007v-1.125q0-.702-.22-.914-.22-.212-.914-.212z"/><text x="9.77" y="40.25"><tspan x="9.77" y="44.5"/></text><g stroke-width=".03"><path d="m27.662 43.371c-.327-.09-.65-.341-.777-.601-.158-.326-.147-.788.028-1.139.112-.226.281-.416 1.322-1.486.457-.47.971-1.005 1.143-1.189s.587-.601.922-.928l.61-.593-.432-.437c-.237-.241-.483-.498-.547-.572-.063-.074-.461-.486-.883-.915-.832-.845-1.647-1.727-1.851-2.003-.279-.378-.346-.803-.179-1.147.171-.351.612-.683.962-.723.168-.02.433.039.688.151.186.082.677.521 1.063.951.252.281.981 1.055 2.209 2.345l.599.63.673-.687c.37-.378.828-.855 1.019-1.062.19-.206.716-.756 1.169-1.222.755-.778.841-.856 1.041-.955.611-.302 1.325-.063 1.623.544.078.159.087.208.085.448-.003.308-.069.516-.231.726-.235.305-.685.797-1.349 1.474-.393.402-.868.901-1.056 1.11s-.559.595-.824.859l-.482.479.951.971c.523.534 1.378 1.405 1.899 1.936.993 1.011 1.101 1.145 1.228 1.521.138.409.029.849-.301 1.21-.285.312-.753.428-1.19.295-.255-.078-.412-.187-.684-.479-.519-.557-1.691-1.772-2.116-2.196-.257-.256-.538-.553-.625-.66s-.301-.339-.476-.516l-.318-.321-.212.196c-.117.108-.448.444-.737.747s-.829.869-1.2 1.258-.875.919-1.12 1.179c-.473.502-.732.707-1.006.795-.186.06-.439.063-.637.008z"/><path d="m5.87 42.244c-.05-.016-.164-.073-.254-.127-.393-.236-.506-.766-.346-1.613.085-.447.342-1.109.636-1.635.312-.56.394-.69.548-.87.085-.099.217-.284.295-.412.212-.349.728-.985 1.116-1.376.291-.293.382-.366.576-.459.39-.187.732-.291 1.014-.309.231-.015.282-.007.539.079.41.137.719.29 1.114.55s.599.465.739.744c.193.386.23.694.124 1.037-.144.467-.219.571-.953 1.312-.712.719-1.403 1.325-1.815 1.59-.134.087-.341.231-.46.321-.51.386-1.502.929-1.99 1.09-.277.091-.72.131-.885.079z"/><path d="m19.145 42.214c-.207-.056-.424-.149-1.11-.476-.257-.122-1.099-.642-1.486-.918-.115-.082-.283-.218-.374-.302-.091-.085-.246-.215-.345-.291-.099-.075-.221-.18-.27-.233s-.225-.208-.39-.344c-.551-.455-1.269-1.251-1.422-1.576-.07-.149-.078-.199-.077-.525.001-.565.109-.802.563-1.234.194-.185.33-.28.622-.438.415-.223.546-.276.854-.342.452-.097 1.019-.034 1.41.155.24.116.735.553 1.187 1.048.335.367 1.095 1.377 1.298 1.725.261.448.637 1.241.748 1.578.146.443.182.651.185 1.092.002.365 0 .381-.098.59-.055.118-.143.256-.195.306-.232.225-.674.299-1.099.184z"/><path d="m58.886 40.561c-.412-.049-1.142-.253-1.473-.412-1.314-.629-2.195-1.741-2.478-3.128-.077-.379-.084-1.271-.012-1.651.063-.337.295-1.045.422-1.288.056-.108.27-.408.475-.665.385-.484.661-.749 1.05-1.005.269-.178.984-.495 1.294-.574.321-.082.845-.13 1.318-.12.215.004.852.005 1.418.002l1.028-.005v-1.403c0-.821.013-1.483.031-1.598.156-.977 1.187-1.362 1.906-.711.171.154.323.415.373.638.037.167.051 1.667.064 7.201l.008 3.572-.081.166c-.094.193-.215.288-.528.415-.377.153-1.171.355-1.848.469l-.66.111-1.035.007c-.569.004-1.141-.006-1.269-.021zm2.489-2.306h.52v-2.147-2.147l-1.403.011c-1.581.012-1.556.009-2.033.247-.339.169-.545.338-.754.616-.324.431-.445.766-.444 1.23.001.587.201 1.121.547 1.462.402.396.629.525 1.184.671l.338.089.762-.016c.419-.009.996-.016 1.283-.016z"/><path d="m44.344 40.293c-.09-.116-.208-.268-.261-.338-.137-.178-.757-1.027-1.025-1.401-.287-.401-.569-.79-1.134-1.56-.248-.338-.606-.838-.795-1.11-.421-.606-.805-1.132-1.074-1.47-.284-.357-.673-.954-.756-1.161-.056-.14-.07-.231-.07-.459 0-.25.01-.307.084-.465.104-.221.32-.431.573-.556.375-.185.84-.14 1.172.113.189.145.477.487.682.812.231.367.443.684 1.29 1.926.839 1.23 1.014 1.482 1.081 1.555.04.044.138.167.218.275.08.107.154.206.166.219.018.021.25-.273.344-.436.017-.028.172-.249.345-.489.424-.589.938-1.313.975-1.373.031-.051.048-.075.59-.864.177-.258.395-.59.485-.74.226-.376.59-.821.764-.933.313-.201.654-.242 1.032-.125.31.096.607.367.717.651.114.296.083.682-.079 1.004-.137.271-.81 1.225-1.515 2.147-.174.228-.463.631-.643.895s-.396.568-.482.675-.249.326-.362.486c-.351.495-2.141 2.934-2.153 2.934-.003 0-.079-.095-.169-.211z"/><path d="m51.855 40.473c-.32-.063-.656-.301-.8-.565-.175-.321-.175-.329-.165-3.304.013-3.573.025-4.042.111-4.264.085-.22.293-.415.594-.558.19-.09.271-.111.472-.122.208-.011.269-.002.428.063.408.166.589.369.705.789.065.235.066.269.085 3.417.01 1.749.008 3.263-.005 3.364-.04.305-.162.644-.282.785-.286.334-.709.48-1.143.394z"/><path d="m9.08 33.843c-.261-.053-.739-.312-1.054-.571-.216-.177-.668-.702-1.028-1.194-.125-.171-.329-.448-.453-.615s-.251-.365-.283-.439-.136-.277-.231-.45c-.206-.376-.6-1.361-.693-1.731-.096-.383-.095-.895.001-1.104.125-.273.331-.423.679-.495.233-.048.365-.027.87.137.479.156.803.31 1.127.537.124.087.326.215.45.284s.313.198.42.284.249.191.315.233.217.155.334.252c.118.097.327.258.465.357.146.104.543.471.949.875.643.64.706.712.8.915.149.323.207.549.209.823.003.235-.003.254-.153.555-.183.367-.28.475-.715.791-.492.358-.738.475-1.168.553-.203.037-.664.038-.842.001z"/><path d="m15.858 33.845c-.555-.078-1.223-.429-1.658-.871-.379-.385-.504-.699-.477-1.2.022-.405.089-.54.53-1.065.359-.427.672-.727 1.172-1.121.256-.202.573-.458.705-.57.339-.287.947-.739 1.23-.914.132-.082.335-.213.45-.29.116-.078.325-.183.465-.233s.381-.141.535-.2c.365-.141.678-.188.965-.144.293.045.422.138.548.394.089.18.098.227.108.528.01.325-.03.786-.09 1.021-.017.066-.105.269-.197.45-.091.182-.21.438-.264.57s-.17.364-.259.516-.208.36-.266.463c-.117.208-.437.668-.592.851-.609.72-1.216 1.339-1.489 1.518-.3.197-.619.302-.949.313-.157.005-.367-.002-.467-.016z"/></g></g></svg>