<svg height="32.83" viewBox="0 0 56.163 32.826" width="56.16" xmlns="http://www.w3.org/2000/svg"><path d="m13.839 2.313v14.757h-3.354v-9.962l-1.34 9.962h-2.379l-1.413-9.735v9.734h-3.354v-14.757h4.967q.219 1.331.465 3.135l.529 3.755.875-6.891z"/><path d="m21.003 14.062v3.008h-2.78v-3.008z"/><path d="m34.52 2.313-1.951 14.757h-5.824l-2.215-14.757h4.047q.702 6.098 1.003 10.309.301-4.257.629-7.565l.264-2.743z"/><path d="m40.8 14.062v3.008h-2.78v-3.008z"/><path d="m54.162 8.748h-3.837v-2.57q0-1.121-.128-1.395-.118-.283-.538-.283-.474 0-.602.337-.128.337-.128 1.458v6.854q0 1.076.128 1.404.128.328.574.328.428 0 .556-.328.137-.328.137-1.54v-1.85h3.837v.574q0 2.288-.328 3.245-.319.957-1.431 1.677-1.103.72-2.725.72-1.686 0-2.78-.611-1.094-.611-1.449-1.686-.355-1.085-.355-3.254v-4.311q0-1.595.109-2.388.109-.802.647-1.54.547-.738 1.504-1.158.966-.428 2.215-.428 1.695 0 2.798.656 1.103.656 1.449 1.641.346.975.346 3.044z"/><path d="m10.571 21.195v9.486h-2.156v-6.404l-.861 6.404h-1.529l-.909-6.258v6.258h-2.156v-9.486h3.193q.141.855.299 2.016l.34 2.414.563-4.43z"/><path d="m17.271 22.906v7.775h-2.408l.041-.645q-.246.393-.609.592-.357.193-.826.193-.533 0-.885-.188-.352-.188-.521-.498-.164-.311-.205-.645-.041-.34-.041-1.342v-5.244h2.367v5.291q0 .908.053 1.078.059.17.305.17.264 0 .311-.176.053-.176.053-1.131v-5.232z"/><path d="m20.93 21.195v9.486h-2.438v-9.486z"/><path d="m24.63 21.869v1.225h.639v1.23h-.639v4.16q0 .768.076.855.082.088.662.088v1.254h-.955q-.809 0-1.154-.064-.346-.07-.609-.311-.264-.246-.328-.557-.064-.316-.064-1.477v-3.949h-.51v-1.23h.51v-1.225z"/><path d="m28.588 21.195v1.236h-2.438v-1.236zm0 1.711v7.775h-2.438v-7.775z"/><path d="m34.684 22.906-1.107 7.775h-3.088l-1.189-7.775h2.115l.662 5.672q.076-.621.258-3.047.105-1.354.234-2.625z"/><path d="m37.839 21.195v1.236h-2.438v-1.236zm0 1.711v7.775h-2.438v-7.775z"/><path d="m44.404 26.931h-3.064v1.682q0 .527.076.68.076.152.293.152.27 0 .357-.199.094-.205.094-.785v-1.025h2.244v.574q0 .721-.094 1.107-.088.387-.422.826-.334.439-.85.662-.51.217-1.283.217-.75 0-1.324-.217-.574-.217-.896-.592-.316-.381-.439-.832-.123-.457-.123-1.324v-2.268q0-1.02.275-1.605.275-.592.902-.902.627-.316 1.441-.316.996 0 1.641.381.65.375.908 1.002.264.621.264 1.752zm-2.373-1.266v-.568q0-.604-.064-.779-.064-.176-.264-.176-.246 0-.305.152-.059.146-.059.803v.568z"/><path d="m53.19 22.906-.943 7.775h-2.573q-.211-1.424-.486-3.75-.094 1.02-.264 2.063l-.264 1.688h-2.572l-1.002-7.775h2.039q.023.305.516 4.447.035-.422.527-4.447h1.963l.48 4.447q.111-1.945.539-4.447z"/></svg>