<svg height="37.1" viewBox="0 0 58.195 37.101" width="58.2" xmlns="http://www.w3.org/2000/svg"><path d="m28.324 2.538c-5.317 0-9.631 2.685-9.631 5.993 0 3.255 4.178 5.895 9.377 5.98l-1.806 4.24 8.507-5.765c2.114-1.249 3.172-2.677 3.184-4.454.021-3.308-4.315-5.993-9.631-5.993z" fill="#7c7c7c" stroke="#000" stroke-linecap="round" stroke-linejoin="round" stroke-width="1.08"/><path d="m28.324 2.966c-5.08 0-9.203 2.493-9.203 5.564s4.322 5.626 9.524 5.626l-1.418 3.457 6.977-4.745c1.96-1.219 3.323-2.6 3.323-4.338 0-3.071-4.123-5.564-9.203-5.564z" fill="none" stroke="#474747" stroke-linecap="round" stroke-width=".6"/><path d="m28.431 4.25c-4.194 0-7.598 1.966-7.598 4.388s3.71 4.388 7.904 4.388l-.722 2.14 4.724-2.915c1.772-1.094 3.29-1.939 3.29-3.611 0-2.422-3.404-4.388-7.598-4.388z" fill="#fff" fill-rule="evenodd"/><path d="m27.161 5.912-1.906 5.788h2.57l.886-2.599c.005-.007.007-.007.012-.013.538-.68 1.781-1.187 2.681-1.313l.479-1.594c-.112-.014-.462-.053-.578-.053-.01 0-.014 0-.025 0-.049.001-.099-.003-.148 0-.68.046-1.282.349-1.672.804l.32-.938z" fill="#4b4b4b"/><path d="m1.997 22.201h2.328q2.328 0 3.148.18.828.18 1.344.922.523.734.523 2.352 0 1.477-.367 1.984-.367.508-1.445.609.977.242 1.313.648.336.406.414.75.086.336.086 1.867v3.336h-3.055v-4.203q0-1.016-.164-1.258-.156-.242-.836-.242v5.703h-3.289zm3.289 2.164v2.813q.555 0 .773-.148.227-.156.227-.992v-.695q0-.602-.219-.789-.211-.188-.781-.188z"/><path d="m18.435 22.201-1.672 12.649h-4.992l-1.899-12.649h3.469q.602 5.227.859 8.836.258-3.648.539-6.484l.227-2.352z"/><path d="m26.583 22.201v12.648h-3.156v-6.781q0-1.469-.07-1.766-.07-.297-.391-.445-.313-.156-1.406-.156h-.313v-1.477q2.289-.492 3.477-2.023z"/><path d="m35.255 26.483v4.219q0 1.438-.156 2.094-.156.656-.648 1.227-.492.57-1.188.82-.695.25-1.555.25-1.133 0-1.883-.258-.75-.266-1.195-.82-.445-.555-.633-1.164-.188-.617-.188-1.953v-4.414q0-1.742.297-2.609.305-.867 1.195-1.391.898-.523 2.172-.523 1.039 0 1.859.367.82.359 1.227.883.406.523.547 1.18.148.656.148 2.094zm-3.156-1.063q0-1.008-.102-1.258-.094-.258-.453-.258-.352 0-.469.273-.109.266-.109 1.242v6.172q0 1.102.102 1.328.109.227.461.227.352 0 .461-.266.109-.266.109-1.195z"/><path d="m42.075 21.959-3.75 13.133h-2.391l3.773-13.133z"/><path d="m47.614 22.201v12.648h-3.156v-6.781q0-1.469-.07-1.766-.07-.297-.391-.445-.313-.156-1.406-.156h-.313v-1.477q2.289-.492 3.477-2.023z"/><path d="m54.771 27.686q.719.242 1.07.797.352.547.352 2.578 0 1.508-.344 2.344-.344.828-1.188 1.266-.844.43-2.164.43-1.5 0-2.359-.5-.852-.508-1.125-1.234-.266-.734-.266-2.539v-1h3.156v2.055q0 .82.094 1.047.102.219.438.219.367 0 .484-.281.117-.281.117-1.469v-.875q0-.727-.164-1.063-.164-.336-.484-.438-.32-.109-1.242-.125v-1.836q1.125 0 1.391-.086.266-.086.383-.375.117-.289.117-.906v-.703q0-.664-.141-.875-.133-.211-.422-.211-.328 0-.453.227-.117.219-.117.945v1.039h-3.156v-1.078q0-1.813.828-2.445.828-.641 2.633-.641 2.258 0 3.063.883.805.883.805 2.453 0 1.063-.289 1.539-.289.469-1.016.859z"/></svg>