<svg height="37.38" viewBox="0 0 64.669 37.384" width="64.67" xmlns="http://www.w3.org/2000/svg"><g transform="translate(-.6 -3.85)"><g fill="#00ced4" transform="matrix(.09 0 0 .08 2.26 5.15)"><path d="m123.416 8.574c-3.371-.03-6.385.004-8.518.123-7.678.43-20.585 2.159-28.822 3.861-41.819 8.641-72.217 28.096-79.904 51.139-6.882 20.631 2.026 40.244 25.377 55.879 14.773 9.892 37.25 19.007 58.365 23.666 1.691.373 3.557.807 4.146.963 2.929.775 11.94 2.239 17.234 2.799 6.712.711 7.958.807 10.613.811 3.844.006 4.901.633 4.619 2.74-.108.802-.321 1.197-3.357 6.213-1.895 3.131-6.977 12.095-11.094 19.572-1.475 2.678-3.063 5.533-3.531 6.346-2.37 4.117-.668 7.836 2.902 6.342 1.162-.486 11.008-6.359 40.549-24.184 5.998-3.62 14.936-9.008 19.863-11.973s11.938-7.187 15.58-9.381c3.642-2.195 9.249-5.557 12.463-7.471 10.436-6.219 16.758-10.303 22.014-14.219 4.867-3.626 5.349-4.681 1.844-4.045-6.904 1.254-18.192 1.808-25.318 1.244-7.104-.562-6.717-.621-10.705 1.623-1.021.575-5.579 2.949-10.131 5.277-4.552 2.329-9.372 4.808-10.711 5.508s-6.816 3.503-12.172 6.229c-5.355 2.727-11.073 5.642-12.705 6.479-3.276 1.681-4.697 2.108-5.799 1.744-1.469-.484-1.412-1.277.318-4.295 4.617-8.056 6.209-11.235 6.209-12.404 0-2.005-.181-2.065-6.621-2.217-61.57-1.45-106.622-25.663-100.322-53.916 3.751-16.825 24.225-31.217 54.557-38.352 5.674-1.335 6.661-1.548 8.16-1.764.793-.114 1.497-.243 1.568-.287.07-.043 2.368-.391 5.107-.773 18.289-2.554 46.361-1.729 63.063 1.855 10.736 2.304 15.9 3.932 23.982 7.555 2.89 1.295 3.596 1.418 5.277.908 7.404-2.247 19.07-2.774 27.965-1.262 6.098 1.038 5.184-.713-3.477-6.662-16.274-11.179-42.863-20.257-69.523-23.738-1.66-.217-3.15-.433-3.311-.482-2.319-.696-15.64-1.362-25.754-1.451z" fill="#767676"/><path d="m364.644 28.969c-.685.399-.705.457-3.086 9.332-1.357 5.054-1.519 5.656-3.67 13.632-.881 3.266-1.862 6.903-2.18 8.081-.317 1.179-.803 2.975-1.08 3.993-.277 1.017-.701 2.595-.943 3.505-.942 3.539-1.454 5.44-2.044 7.595-.337 1.232-1.078 3.992-1.647 6.134s-1.443 5.385-1.942 7.206c-.498 1.821-1.128 4.143-1.398 5.16-.271 1.018-.698 2.595-.95 3.506-.252.91-.736 2.707-1.075 3.992-.34 1.285-.867 3.257-1.172 4.382-1.01 3.723-.994 4.149.166 4.472 1.081.3 25.831.251 26.7-.053 1.014-.354 1.675-2.229 4-11.333.247-.964.819-3.111 1.272-4.771 2.004-7.342 2.64-9.688 3.642-13.437.586-2.196 1.33-4.956 1.653-6.134.323-1.179 1.008-3.72 1.522-5.648 1.454-5.454 2.998-11.202 3.897-14.508 2.61-9.607 4.774-17.62 6.072-22.493.398-1.493.323-2.333-.233-2.631-.501-.268-27.043-.251-27.504.018m-63.924 20.626c-18.071.994-27.743 5.534-32.428 15.222-1.945 4.022-2.737 3.752 11.255 3.827 14.168.076 13.698.114 14.844-1.184 3.609-4.083 5.456-4.876 11.392-4.891 6.359-.016 9.548 1.772 9.515 5.332-.045 4.881-4.597 6.504-19.641 7.004-26.06.867-37.699 6.504-39.033 18.903-.876 8.14 3.76 13.875 13.144 16.262 10.469 2.662 23.378 1.313 31.655-3.31 3.202-1.789 3.825-1.665 3.604.719-.116 1.239-.091 1.365.356 1.812l.48.48 12.618-.003c13.463-.003 13.195.016 13.905-.971.193-.267 1.149-3.554 2.125-7.303.977-3.748 2.04-7.648 2.363-8.666.322-1.017.883-2.945 1.244-4.284.362-1.339.882-3.223 1.155-4.187 5.543-19.589 5.101-25.044-2.395-29.497-6.507-3.866-21.607-6.064-36.158-5.265m-89.095.22c-9.372.948-14.365 2.125-20.537 4.838-13.964 6.139-21.235 16.676-21.235 30.775 0 17.602 14.217 26.784 40.604 26.223 17.957-.381 30.031-5.176 36.138-14.35 1.538-2.309 1.756-2.925 1.255-3.544l-.357-.442-12.205-.055c-13.957-.064-13.787-.078-15.651 1.295-6.618 4.875-18.126 3.759-21.202-2.057-1.17-2.211-1.732-4.945-1.216-5.91.478-.893-.397-.862 27.58-.965 30.036-.11 26.962.078 27.76-1.704 1.949-4.356.943-14.525-1.913-19.332-5.867-9.876-23.063-16.386-39.021-14.772m-50.035.269c-4.851.65-11.373 3.532-15.203 6.718-3.027 2.517-3.931 2.088-3.045-1.445 1.111-4.433 2.502-4.009-13.13-4.009h-13.03l-.611.546c-.549.49-.716.941-1.64 4.431-.566 2.136-1.396 5.243-1.844 6.903s-1.148 4.289-1.556 5.842c-.407 1.553-1.067 4.007-1.467 5.453-.399 1.446-.883 3.242-1.075 3.992s-.612 2.327-.933 3.505c-.32 1.178-1.343 4.991-2.272 8.472-.93 3.481-2.174 8.125-2.766 10.321-2.394 8.883-2.383 8.789-1.038 9.151 1.537.414 26.762.169 27.241-.264.485-.439.881-1.612 2.179-6.453.545-2.035 1.476-5.496 2.067-7.692s1.464-5.466 1.94-7.267c3.14-11.892 6.846-16.509 14.995-18.68l2.314-.616 5.92-.042c5.506-.039 5.955-.068 6.426-.418.587-.435.362-.034 7.948-14.146 1.521-2.828 1.639-3.275.978-3.707-1.089-.714-8.765-1.083-12.398-.595m57.356 14.122c4.362 1.115 6.972 3.604 7.236 6.902.253 3.151.803 3.025-13.184 3.025-14.013 0-13.711.072-12.259-2.903 2.66-5.448 11.315-8.787 18.207-7.024m91.015 20.438c1.784.955-1.662 8.38-5.081 10.949-4.813 3.617-14.625 3.953-17.962.615-1.952-1.952-1.696-4.973.602-7.112 2.133-1.985 4.537-2.683 10.618-3.085 2.686-.178 7.266-.841 9.301-1.347.949-.236 2.101-.245 2.522-.02" fill="#060606" fill-rule="evenodd"/></g><path d="m13.003 26.339h2.328q2.328 0 3.148.18.828.18 1.344.922.523.734.523 2.352 0 1.477-.367 1.984-.367.508-1.445.609.977.242 1.313.648.336.406.414.75.086.336.086 1.867v3.336h-3.055v-4.203q0-1.016-.164-1.258-.156-.242-.836-.242v5.703h-3.289zm3.289 2.164v2.813q.555 0 .773-.148.227-.156.227-.992v-.695q0-.602-.219-.789-.211-.188-.781-.188z"/><path d="m29.44 26.339-1.672 12.648h-4.992l-1.898-12.648h3.469q.602 5.227.859 8.836.258-3.648.539-6.484l.227-2.352z"/><path d="m40.3 29.698h-3.156q0-.883-.023-1.109-.016-.234-.188-.391-.164-.156-.453-.156-.242 0-.398.148-.156.148-.18.383-.023.234-.023.945v2.016q.242-.508.711-.758.469-.258 1.156-.258.867 0 1.531.469.664.469.844 1.125.18.656.18 1.773v1.008q0 1.328-.102 1.977-.102.648-.547 1.203-.438.547-1.211.852-.766.305-1.789.305-1.273 0-2.086-.352-.813-.352-1.258-1.008-.438-.664-.516-1.391-.07-.727-.07-2.82v-1.75q0-2.258.063-3.016.07-.766.547-1.445.477-.68 1.297-1.016.828-.344 1.906-.344 1.328 0 2.18.43.852.43 1.219 1.211.367.781.367 1.969zm-3.156 3.945q0-.672-.148-.922-.148-.25-.484-.25-.328 0-.484.242-.148.234-.148.93v2.289q0 .836.141 1.094.148.258.484.258.203 0 .422-.195.219-.203.219-1.078z"/><path d="m48.823 30.62v4.219q0 1.438-.156 2.094-.156.656-.648 1.227-.492.57-1.188.82-.695.25-1.555.25-1.133 0-1.883-.258-.75-.266-1.195-.82-.445-.555-.633-1.164-.188-.617-.188-1.953v-4.414q0-1.742.297-2.609.305-.867 1.195-1.391.898-.523 2.172-.523 1.039 0 1.859.367.82.359 1.227.883.406.523.547 1.18.148.656.148 2.094zm-3.156-1.063q0-1.008-.102-1.258-.094-.258-.453-.258-.352 0-.469.273-.109.266-.109 1.242v6.172q0 1.102.102 1.328.109.227.461.227.352 0 .461-.266.109-.266.109-1.195z"/><path d="m21.019 16.476 1.193 6.803h.672 1.42.672l3.842-6.803h-.672-1.137-.672l-2.299 4.15-.68-4.15h-.672-.996z"/><path d="m29.559 16.189-.264 1.33h2.316l.26-1.33c-.846 0-1.493 0-2.313 0zm-.383 1.986-.992 5.104h2.307l.998-5.104c-.78 0-1.627 0-2.313 0z"/><path d="m36.453 16.189-.412 2.133c-.024-.016-.043-.041-.068-.055-.532-.247-.97-.29-1.51-.291-.398 0-.823.176-1.172.373-.346.197-.657.486-.934.869-.219.304-.387.641-.506 1.012-.115.371-.174.753-.174 1.145 0 .629.168 1.126.502 1.49.697.567 1.641.554 2.033.547.315 0 .606-.068.873-.199l-.014.066h2.316l1.381-7.09c-.781 0-1.63 0-2.316 0zm-1.053 3.285c.149.158.225.378.225.66 0 .623-.132 1.128-.396 1.514-.349.637-.764.57-.979.338-.143-.164-.215-.401-.215-.711 0-.595.133-1.083.4-1.463.351-.461.828-.459.965-.338z"/><path d="m42.109 18.008c-.532 0-1.016.095-1.453.283-.434.188-.808.464-1.121.828-.264.304-.468.64-.607 1.008-.137.365-.205.742-.205 1.131 0 .671.217 1.191.648 1.559.893.552 1.597.547 2.516.551.407 0 .807-.036 1.199-.109.395-.07.791-.178 1.189-.324l.301-1.385c-.888.391-1.642.658-2.594.703-.284.005-.557-.126-.643-.215-.197-.164-.295-.413-.295-.744 0-.018.001-.043.004-.076.003-.036.004-.064.004-.082h3.148.672l.055-.26c.036-.161.061-.31.076-.443.018-.137.027-.265.027-.387 0-.623-.202-1.119-.609-1.486-.804-.551-1.457-.547-2.313-.551zm.143 1.137c.139-.003.307.11.361.201.052.088.129.296.129.539 0 .04-.002.081-.008.123-.003.04-.01.08-.02.119h-1.438c.118-.34.288-.596.51-.77.136-.106.264-.206.465-.213z"/><path d="m48.702 18.008c-.51 0-.976.091-1.398.273-.419.182-.78.45-1.084.803-.261.304-.462.638-.602 1.006-.14.365-.211.738-.211 1.121 0 .665.217 1.192.648 1.578.859.57 1.543.574 2.447.578.52 0 .992-.091 1.414-.273s.788-.452 1.098-.811c.261-.301.461-.633.598-.994.137-.365.205-.739.205-1.125 0-.665-.218-1.192-.652-1.578-.866-.57-1.554-.574-2.463-.578zm.512 1.418c.149.167.223.41.223.729 0 .595-.137 1.087-.41 1.473-.416.641-.78.533-1.02.322-.146-.17-.219-.416-.219-.738 0-.592.137-1.08.41-1.463.373-.644.759-.561 1.016-.322z"/><path d="m52.744 23.045.352-1.667q2.415-1.055 3.737-2.454h1.139l-2.012 9.603h-1.882l1.387-6.615q-.586.378-1.354.69-.762.313-1.367.443z"/><path d="m58.046 23.045.352-1.667q2.415-1.055 3.737-2.454h1.139l-2.012 9.603h-1.882l1.387-6.615q-.586.378-1.354.69-.762.313-1.367.443z"/></g></svg>