<svg height="41.03" viewBox="0 0 53.905 41.033" width="53.91" xmlns="http://www.w3.org/2000/svg" xmlns:xlink="http://www.w3.org/1999/xlink"><g stroke-linejoin="round" stroke-miterlimit="1.414" transform="matrix(.09 0 0 .09 1.91 1.94)"><g transform="matrix(.89 .75 -.99 .61 -152.23 -60.23)"><path d="m243.41-198.67h342.48v262.07h-342.48z"/><path d="m273.54-193.71h282.23v251.32h-282.23z" fill="#4d4d4d"/></g><path id="a" d="m255.907 11.125-22 13.656 15.469 13.063 22-13.656zm-37.094 23-22.031 13.656 15.468 13.094 22.032-13.656zm-36.313 22.531-22.031 13.688 15.469 13.063 22-13.656zm-36.781 23.219-22.031 13.656 15.469 13.063 22-13.656zm-37.344 23.156-22.031 13.656 15.469 13.094 22.031-13.688zm-35.062 21.75-22.031 13.656 15.469 13.094 22-13.656zm-35.094 21.781-22 13.656 15.438 13.063 22.031-13.656z" fill="#e6e6e6"/><use height="100%" transform="translate(276.52 234.2)" width="100%" xlink:href="#a"/><g transform="matrix(3.08 0 0 3.08 -294.19 -300.49)"><g stroke="#0a0a0a" stroke-linejoin="round" stroke-miterlimit="1.414" stroke-opacity=".994" transform="matrix(.88 0 0 -.88 80.9 277.99)"><g stroke-width="1.43"><path d="m81.783 150.52s23.9 17.318 36.976 16.569c13.083-.746 25.819-7.335 25.819-7.335l3.393-7.136s9.207-4.197 11.252-6.936c2.002-2.679.648-5.072 5.956-20.036 0 0-18.862 1.35-28.465 9.866-8.062 7.15-18.724 13.14-28.394 15.038-9.44 3.731-26.537-.03-26.537-.03z" fill="#c0c0c0"/><path d="m144.93 126.96c4.667 2.128 19.546 3.62 26.04 6.91 4.947 2.511 26.713 11.167 33.155 6.854 3.512-2.353-8.527-22.811-13.044-27.905-4.472-5.049-.909-20.535-1.668-22.686-1.575-4.441-11.997-6.117-14.511-5.216-2.362.844-16.779 5.227-23.169 7.829-5.201 2.119-8.658 5.339-23.506 3.454-14.843-1.881 16.703 30.76 16.703 30.76z" fill="#d5d5d5"/><path d="m100.42 92.219s12.716-5.249 21.034-5.139l8.518 1.472s6.953 4.461-.145 9.106" fill="#d0d0d0"/><path d="m116.58 94.663c-9.323-3.589-38.29-6.491-48.561 1.596-5.802 4.569-13.285 23.524-13.285 23.524s7.115 13.224 7.863 13.516c0 0-3.718 8.875 15.001 15.077 11.969 3.963 10.782 4.585 26.67 3.053 9.911-.954 25.941-9.366 29.56-13.136 6.221-6.481 21.658-11.267 27.523-11.892 5.873-.625 9.635-.023 9.635-.023s-1.947-13.041-7.563-20.284c-5.62-7.243-9.884-7.966-9.884-7.966s-9.155-.219-17.623-.346c-12.585-.181-19.336-3.119-19.336-3.119z" fill="#e9e9e9"/></g><path d="m52.381 121.97s9.33 25.639 31.827 27.254c20.055 1.433 31.909-14.69 31.881-26.341-.035-14.44-10.726-28.129-24.853-29.655-17.118-1.846-25.337 3.092-25.855 4.887-.514 1.804-16.461 17.401-13 23.855z" fill="#dcdcdc" stroke-width="1.55"/><path d="m69.491 97.397c-1.717-1.352-.27-.777-7.274-1.745-4.944-.685-9.99.145-12.775 3.757-2.448 3.18.858 3.695 5.494 3.989 2.072.135 4.248-.031 3.706.965-2.172 3.98-6.182 8.56-10.948 9.114-10.145 1.172-7.511 8.297-7.511 8.297.594 2.534 7.669 3.045 13.883 1.83l16.176-18.782" fill="#d1d1d1" stroke-width="1.89"/><path d="m94.213 138.66c.104-7.765-6.015-14.149-13.68-14.257-7.657-.1-13.942 6.118-14.036 13.89-.103 7.771 6.015 14.151 13.672 14.255 7.662.102 13.946-6.115 14.044-13.888z" fill="#ececec" stroke-width="1.48"/><path d="m83.579 138.6c.019-1.555-1.214-2.834-2.742-2.858-1.53-.016-2.792 1.226-2.811 2.781-.025 1.556 1.206 2.835 2.74 2.856 1.531.018 2.785-1.226 2.813-2.779z"/><path d="m114.1 120.05s19.613 1.013 20.827 2.019c1.21 1.013 2.709-.712 2.967-1.951.261-1.239-14.255-14.599-17.691-14.399-3.433.209-17.379-.788-16.916 1.205" fill="#b4b4b4" stroke-width="1.43"/></g><path d="m183.67 151.24h41.48v39.85h-41.48z" fill="none" opacity=".999"/></g></g></svg>