<svg height="36.16" viewBox="0 0 54.655 36.165" width="54.65" xmlns="http://www.w3.org/2000/svg"><g transform="translate(-1.64 -5.35)"><path d="m16.485 7.745-2.507 18.973h-7.489l-2.847-18.973h5.203q.902 7.84 1.289 13.254.387-5.473.809-9.727l.34-3.527z"/><path d="m31.988 16.018h-4.934v-3.304q0-1.441-.164-1.793-.152-.363-.691-.363-.609 0-.773.434-.164.434-.164 1.875v8.813q0 1.383.164 1.805.164.422.738.422.551 0 .715-.422.176-.422.176-1.98v-2.381h4.933v.738q0 2.941-.422 4.172-.41 1.23-1.84 2.156-1.418.926-3.504.926-2.168 0-3.574-.785-1.406-.785-1.863-2.168-.457-1.395-.457-4.184v-5.543q0-2.051.141-3.07.141-1.031.832-1.98.703-.949 1.934-1.488 1.242-.551 2.848-.551 2.18 0 3.598.844 1.418.844 1.863 2.109.445 1.254.445 3.914z"/><path d="m42.579 17.307v3.27h-6.222v-3.27z"/><path d="m54.296 7.745v18.973h-4.734v-10.172q0-2.203-.105-2.648-.105-.445-.586-.668-.469-.234-2.109-.234h-.469v-2.215q3.434-.738 5.215-3.035z"/><text x="28.97" y="16.39"><tspan x="28.97" y="16.39"/></text><path d="m20.169 30.024-1.096 9.486h-3.082q-.422-2.186-.744-4.969-.146 1.189-.686 4.969h-3.064l-1.102-9.486h2.396l.252 3.311.258 3.193q.135-2.479.68-6.504h2.566q.053.416.27 3.129l.27 3.604q.205-3.439.686-6.732z"/><path d="m30.382 30.024v9.486h-2.156v-6.404l-.861 6.404h-1.529l-.908-6.258v6.258h-2.156v-9.486h3.193q.141.855.299 2.016l.34 2.414.563-4.43z"/><path d="m39.341 30.024-1.254 9.486h-3.744l-1.424-9.486h2.602q.451 3.92.645 6.627.193-2.736.404-4.863l.17-1.764z"/><path d="m46.132 30.024 1.412 9.486h-2.525l-.123-1.705h-.885l-.146 1.705h-2.555l1.254-9.486zm-1.307 6.1q-.188-1.611-.375-3.979-.375 2.719-.469 3.979z"/></g></svg>