<svg height="23.77" viewBox="0 0 54.655 23.77" width="54.65" xmlns="http://www.w3.org/2000/svg"><g transform="translate(-3.54 -11.99)"><path d="m18.385 14.385-2.507 18.973h-7.489l-2.847-18.973h5.203q.902 7.84 1.289 13.254.387-5.473.809-9.727l.34-3.527z"/><path d="m33.888 22.658h-4.934v-3.304q0-1.441-.164-1.793-.152-.363-.691-.363-.609 0-.773.434-.164.434-.164 1.875v8.813q0 1.383.164 1.805.164.422.738.422.551 0 .715-.422.176-.422.176-1.98v-2.381h4.933v.738q0 2.941-.422 4.172-.41 1.23-1.84 2.156-1.418.926-3.504.926-2.168 0-3.574-.785-1.406-.785-1.863-2.168-.457-1.395-.457-4.184v-5.543q0-2.051.141-3.07.141-1.031.832-1.98.703-.949 1.934-1.488 1.242-.551 2.848-.551 2.18 0 3.598.844 1.418.844 1.863 2.109.445 1.254.445 3.914z"/><path d="m44.479 23.947v3.27h-6.222v-3.27z"/><path d="m56.196 14.385v18.973h-4.734v-10.172q0-2.203-.105-2.648-.105-.445-.586-.668-.469-.234-2.109-.234h-.469v-2.215q3.434-.738 5.215-3.035z"/><text x="33.2" y="16.39"><tspan x="33.2" y="16.39"/></text></g></svg>