<svg height="36.68" viewBox="0 0 54.104 36.675" width="54.1" xmlns="http://www.w3.org/2000/svg"><g stroke-width=".254"><path d="m6.177 10.888c0-1.77.37-3.148 1.108-4.134.74-.986 1.737-1.48 2.992-1.48 2.722 0 4.084 1.872 4.084 5.614 0 1.823-.367 3.228-1.102 4.214-.734.987-1.728 1.48-2.982 1.48-2.734 0-4.1-1.898-4.1-5.694m-1.904-6.417c-1.516 1.651-2.275 3.791-2.275 6.417 0 2.712.727 4.884 2.179 6.518 1.451 1.637 3.484 2.452 6.1 2.452 2.561 0 4.579-.809 6.052-2.428 1.473-1.618 2.21-3.799 2.21-6.543 0-2.755-.724-4.925-2.171-6.512-1.446-1.584-3.477-2.378-6.091-2.378-2.487 0-4.487.825-6.004 2.474"/><path d="m23.323 3.93.019-1.606h-3.654v17.209h4.025v-12.446c.374-.492.895-.906 1.566-1.238.668-.331 1.298-.497 1.887-.497 1.275 0 2.193.338 2.755 1.012.563.676.845 1.748.845 3.217v9.953h4.023v-10.561c0-2.196-.592-3.908-1.776-5.136-1.184-1.227-2.801-1.84-4.85-1.84-2.133 0-3.747.643-4.84 1.933"/><path d="m38.421 3.507c-1.482.93-2.224 2.034-2.224 3.309 0 .732.232 1.354.698 1.867.463.513 1.086.769 1.869.769.826 0 1.504-.219 2.037-.659.53-.44.798-1.031.798-1.774 0-.617-.072-1.176-.22-1.678-.146-.501-.296-.988-.454-1.459.316-.125.618-.211.907-.259.289-.046.595-.069.921-.069 1.041 0 1.875.303 2.504.909.63.605.947 1.572.947 2.9 0 .596-.082 1.133-.244 1.613-.162.482-.433.925-.81 1.332-.377.44-.897.86-1.557 1.261-.66.402-1.479.861-2.452 1.372-.911.482-1.812 1.032-2.698 1.653-.885.622-1.699 1.309-2.445 2.061v2.827h16.078v-3.36h-12.173v-1.094c.596-.408 1.276-.759 2.046-1.051.768-.293 1.67-.57 2.706-.83.972-.241 1.883-.491 2.735-.754.853-.261 1.629-.596 2.33-1.004.783-.449 1.376-.971 1.779-1.568.402-.593.604-1.378.604-2.351 0-1.882-.76-3.245-2.28-4.092-1.52-.848-3.512-1.27-5.977-1.27-2.133 0-3.94.466-5.423 1.398"/></g><path d="m10.101 23.247c-.16.048-.272.224-.272.4 0 .08.144.512 1.808 5.12.976 2.768 1.808 5.072 1.84 5.104.128.224.32.352.592.432h2.384c.256-.08.448-.208.576-.432.032-.032.864-2.336 1.84-5.104 1.664-4.608 1.808-5.04 1.808-5.12 0-.192-.112-.352-.288-.4-.048-.032-.4-.032-.768-.032s-.736 0-.816.032c-.224.048-.448.224-.56.416-.048.08-.64 1.76-1.28 3.536-.992 2.848-1.568 4.608-1.584 4.848 0 0-.112-.592-1.584-4.784-.656-1.84-1.248-3.504-1.296-3.584-.112-.208-.336-.384-.56-.432-.064-.032-.496-.032-.928-.032s-.848 0-.912.032z"/><path d="m22.588 23.647v10.224c.08.224.208.368.432.432l.816.016c.72 0 .832 0 .912-.032.192-.048.32-.176.384-.368.032-.096.032-.176.032-1.872v-1.776h1.344c1.376-.016 1.488-.016 1.904-.08 1.856-.288 2.96-1.328 2.96-3.392 0-2.08-1.088-3.168-2.864-3.488-.544-.08-.48-.08-3.056-.096-1.92 0-2.4 0-2.448.016-.208.08-.352.208-.416.416zm5.584 1.44c.608.32.736.784.736 1.76 0 1.024-.272 1.568-1.056 1.792-.368.112-.624.128-1.792.128h-.944v-3.936h.96.688c.624 0 .976.032 1.408.256z"/><path d="m44.27 30.767c0-1.312-.304-2.176-.928-2.8-.56-.56-1.264-.848-2.368-.848-.208 0-.4 0-.496.016-.128.016-.4.08-.448.112-.032 0-.032-.048-.032-1.088v-1.104h1.584c1.408 0 1.6 0 1.68-.032.192-.048.336-.192.384-.368.032-.08.032-.144.032-.528 0-.368 0-.432-.032-.512-.048-.176-.192-.32-.384-.368-.08-.032-.352-.032-2.592-.032-2.016 0-2.512 0-2.576.016-.208.08-.32.224-.4.432v5.696c.08.24.208.336.416.448h1.008c.192-.08.288-.16.4-.384.272-.496.672-.912 1.344-.912.416 0 .592.192.704.496.08.256.112.816.112 1.696 0 1.504-.144 2.224-1.472 2.224-1.024 0-1.728-.576-2.048-1.328-.08-.192-.112-.24-.24-.24-.096 0-.144.08-.448.544-.48.816-.512.864-.512.912 0 .128.32.528.624.816.688.672 1.536 1.04 2.64 1.04 2.656 0 4.048-1.264 4.048-3.904z"/></svg>