<svg height="26.74" viewBox="0 0 56.165 26.736" width="56.16" xmlns="http://www.w3.org/2000/svg"><g stroke="#292929" stroke-width=".382"><path d="m11.458 15.248.555 3.666h.154l.616-3.696 4.128-12.63h4.436l-8.009 21.717h-3.019l-8.071-21.717h4.898z"/><path d="m22.988 2.803c.863-.164 1.807-.287 2.834-.37 1.047-.103 2.084-.154 3.111-.154 1.068 0 2.136.092 3.204.277 1.088.164 2.064.513 2.926 1.047.862.513 1.561 1.242 2.095 2.187.554.924.832 2.136.832 3.635 0 1.355-.236 2.505-.709 3.45-.472.924-1.099 1.684-1.879 2.28s-1.674 1.027-2.68 1.294c-.986.267-2.012.401-3.08.401-.103 0-.267 0-.493 0s-.462 0-.709 0c-.247-.021-.493-.041-.739-.062-.226-.021-.39-.041-.493-.062v7.424h-4.22zm6.284 3.111c-.411 0-.801.021-1.171.062-.37.021-.667.051-.893.092v6.992c.082.021.205.041.37.062.164.021.339.041.524.062h.524.401c.555 0 1.099-.051 1.633-.154.555-.103 1.047-.287 1.479-.555.431-.287.77-.678 1.017-1.171.267-.493.401-1.14.401-1.941 0-.678-.123-1.232-.37-1.663-.247-.452-.575-.811-.986-1.078-.39-.267-.842-.452-1.355-.555s-1.037-.154-1.571-.154"/></g><path d="m39.498 9.334c0-1.047.154-2.012.462-2.896.329-.883.791-1.633 1.386-2.249.616-.637 1.355-1.129 2.218-1.479.883-.37 1.889-.554 3.019-.555 2.321 0 4.138.698 5.452 2.095 1.335 1.376 2.002 3.388 2.002 6.038 0 2.382-.308 4.446-.924 6.192-.596 1.725-1.407 3.173-2.434 4.343-1.006 1.15-2.177 2.033-3.512 2.649s-2.742.986-4.22 1.109l-.863-3.142c1.129-.144 2.136-.421 3.019-.832s1.643-.914 2.28-1.509c.637-.616 1.15-1.304 1.54-2.064.411-.78.698-1.612.863-2.495-.493.534-1.027.904-1.602 1.109-.555.205-1.304.308-2.249.308-.78 0-1.561-.133-2.341-.401-.76-.267-1.448-.667-2.064-1.201-.596-.555-1.088-1.242-1.479-2.064-.37-.842-.555-1.828-.555-2.957m3.881-.216c0 1.171.329 2.054.986 2.649.657.596 1.479.893 2.464.893.842 0 1.53-.133 2.064-.401.534-.267.945-.596 1.232-.986.062-.431.092-.842.092-1.232 0-.575-.072-1.14-.216-1.694s-.37-1.047-.678-1.479c-.287-.431-.667-.77-1.14-1.017-.452-.267-.996-.4-1.633-.401-1.006 0-1.787.329-2.341.986-.555.637-.832 1.53-.832 2.68" stroke="#366a04" stroke-linejoin="round" stroke-width=".342"/></svg>