<svg viewBox="0 0 126 84" xmlns="http://www.w3.org/2000/svg"><linearGradient id="a" gradientUnits="userSpaceOnUse" spreadMethod="reflect" x1="-54.91" x2="-53.48" y1="20.56" y2="30.1"><stop offset="0" stop-color="#6c6c6c"/><stop offset="1"/></linearGradient><linearGradient id="b" gradientTransform="matrix(0 -.2 .21 0 -21.79 93.04)" gradientUnits="userSpaceOnUse" x1="67.11" x2="67.11" y1="259.37" y2="735.14"><stop offset="0" stop-color="#7e00ff"/><stop offset=".04077475" stop-color="#2000ff"/><stop offset=".09936851" stop-color="#008eff" stop-opacity=".99"/><stop offset=".15405601" stop-color="#00ff84"/><stop offset=".19702476" stop-color="#1aff00" stop-opacity=".97"/><stop offset=".27905601" stop-color="#b1ff00"/><stop offset=".41968101" stop-color="#ff5000"/><stop offset=".54077476" stop-color="#ff001f"/><stop offset=".64624351" stop-color="#ff007a"/><stop offset=".75952476" stop-color="#0007ff" stop-opacity=".99"/><stop offset=".88061851" stop-color="#0068ff"/><stop offset="1" stop-opacity=".99"/></linearGradient><filter id="c" color-interpolation-filters="sRGB" height="1" width="1" x="0" y="0"><feGaussianBlur stdDeviation=".0019150635"/></filter><linearGradient id="d" gradientTransform="matrix(.99 0 0 .95 .36 1.93)" gradientUnits="userSpaceOnUse" spreadMethod="reflect" x1="3.66" x2="21.33" y1="42.02" y2="39.08"><stop offset="0" stop-color="#d4bd00"/><stop offset="1" stop-color="#fff17d"/></linearGradient><rect fill="#121212" height="75.14" ry="6.44" stroke="#121212" stroke-linecap="round" stroke-linejoin="round" stroke-width=".68" width="94.98" x="26.67" y="4.42"/><path d="m38.19 32.96-1.82 42.96-2.4-15.4-1.54 15.4-1.92-27.06-1.85 27.06c-.31-1.47-.92-3.96-.92-3.96l.03 7.44 87.06.02s1.46.15 3.08-.67 2.66-2.57 2.66-2.57l-65.97-.25-2.01-3.97-1.73 3.97-1.73-12.82-1.54 12.82-2.2-22.68-2.02 22.68-1.44-32.55-1.82 32.55z" fill="url(#b)" stroke-width=".97"/><path d="m34.12 4.56c-5.36 0-12.01-.05-15.75-.07-13.94-.08-13.96-.08-13.85 15.96.08 13.76-.13 27.73.05 41.18-.08 17.95-.12 17.9 15.26 17.89 3.36 0 9.58-.11 14.28-.11h.06v-74.85z" fill="url(#d)" stroke="#121212" stroke-width=".97"/><g fill="url(#a)" filter="url(#c)" stroke-width="0" transform="matrix(0 -.95 .99 0 1.85 -.66)"><path d="m-63.43 25.87h-2.83l-1.13-2.93h-5.15l-1.06 2.93h-2.76l5.02-12.88h2.75zm-4.79-5.1-1.78-4.78-1.74 4.78z"/><path d="m-60.57 12.98h2.6v6.98q0 1.66.1 2.15.17.79.79 1.27.63.47 1.72.47 1.11 0 1.67-.45.56-.46.68-1.12.11-.66.11-2.19v-7.13h2.6v6.77q0 2.32-.21 3.28-.21.96-.78 1.62-.56.66-1.51 1.05-.95.39-2.48.39-1.85 0-2.8-.42-.95-.43-1.5-1.11-.55-.69-.73-1.43-.25-1.11-.25-3.27z"/><path d="m-46.06 12.98h4.75q1.61 0 2.45.25 1.13.33 1.94 1.19.81.85 1.23 2.09.42 1.23.42 3.04 0 1.59-.4 2.74-.48 1.41-1.38 2.28-.68.66-1.83 1.03-.86.27-2.3.27h-4.9zm2.6 2.18v8.53h1.94q1.09 0 1.57-.12.63-.16 1.05-.54.42-.38.69-1.24.26-.87.26-2.36 0-1.49-.26-2.29-.26-.8-.74-1.25-.47-.45-1.2-.61-.54-.12-2.14-.12z"/><path d="m-31.63 25.87v-12.89h2.6v12.88z"/><path d="m-25.58 19.51q0-1.97.59-3.3.44-.98 1.2-1.77.76-.78 1.67-1.16 1.2-.51 2.78-.51 2.85 0 4.55 1.77 1.71 1.77 1.71 4.91 0 3.12-1.7 4.89-1.7 1.76-4.54 1.76-2.87 0-4.57-1.75-1.7-1.76-1.7-4.83zm2.68-.09q0 2.19 1.01 3.32 1.01 1.13 2.57 1.13 1.56 0 2.55-1.12 1-1.13 1-3.37 0-2.21-.98-3.3-.97-1.09-2.58-1.09-1.61 0-2.59 1.11-.98 1.1-.98 3.32z"/></g><path d="m81.43 9.16c-5.23.44-10.78.99-15.11 4.15-4.26 2.75-6.27 7.77-6 12.59.29 9.72 7.05 17.88 14.43 23.92 2.23 2.96 5.92 1.99 9.19 2.12 3.17.37-1.46-1.8-2.16-2.82-6.5-5.53-12.91-12.51-13.63-21.21-.43-4.54 1.31-9.54 5.58-11.93 6.1-3.71 13.76-3.21 20.61-2.28 6.12 1.03 12.09 2.84 17.85 5.06 1.2-3.43-2.89-3.5-5.23-4.55-7.63-2.59-15.6-4.41-23.69-4.84-.61-.09-1.22-.19-1.84-.21zm11.52 8.98c-5.82-.16-12.63 1.68-15.38 7.08-2.76 6.15.23 13.11 4.39 17.95 2.82 3.38 6.27 6.23 9.92 8.76 1.56-.16 5.35.31 5.41-.27-5.21-3.66-10.31-8.01-13.04-13.74-2.17-4.43-1.08-10.23 3.07-13.25 4.73-3.44 11.14-3.07 16.7-2.28 2.65.14 6.13 1.79 8.18 1.49.53-1.91-.8-2.57-2.63-2.86-5.36-1.69-10.97-2.86-16.63-2.88zm9.94 7.7c-5.04-.26-11.01 2.21-12.17 7.35-.81 5.32 3.01 9.95 6.68 13.49 2.13 1.99 4.49 3.75 7.01 5.26 2.45-.33 6.27.66 7.89-.47 0-8.1.01-16.2.01-24.3-3.04-.94-6.24-1.33-9.42-1.33zm1.95 30.19c-4.2-.21-7.96 3.18-8.09 7.2-.53 4.01 1.4 9.19 6.11 9.81 3.96.97 8.41-1.41 9.1-5.4-2.43-1.32-2.57.65-3.77 2.32-2.87 2.84-8.53.9-8.9-3.05-.78-3.29 0-8.12 4.1-8.88 3.12-1.25 5.18 2.09 6.6 3.2 3.46.01-.11-3.88-1.73-4.5-1.06-.51-2.25-.72-3.43-.71zm-36.85.28c-2.21 5.53-4.42 11.07-6.63 16.6 1.12-.12 2.81.54 2.84-1.08l1.49-3.95h7.23l2.01 5.03c.87-.21 3.38.63 2.23-.89l-6.7-15.71zm17.05 0c-2.21 5.53-4.42 11.07-6.63 16.6 1.12-.12 2.81.54 2.84-1.08l1.49-3.95h7.23l2.01 5.03c.86-.21 3.37.63 2.22-.89-2.23-5.23-4.46-10.47-6.7-15.71zm-15.87 1.74c.86 2.73 2.01 5.36 3.03 8.04h-5.86c.98-2.67 2.24-5.26 2.83-8.04zm17.05 0c.86 2.73 2.01 5.36 3.03 8.04h-5.86c.98-2.67 2.24-5.26 2.83-8.04z" fill="#c9c9c9" fill-rule="evenodd" stroke-width=".86"/></svg>