<svg viewBox="0 0 126 84" xmlns="http://www.w3.org/2000/svg"><linearGradient id="a" gradientUnits="userSpaceOnUse" spreadMethod="reflect" x1="-54.91" x2="-53.48" y1="20.56" y2="30.1"><stop offset="0" stop-color="#6c6c6c"/><stop offset="1"/></linearGradient><linearGradient id="b" gradientTransform="matrix(0 -.2 .21 0 -21.79 93.04)" gradientUnits="userSpaceOnUse" x1="67.11" x2="67.11" y1="259.37" y2="735.14"><stop offset="0" stop-color="#7e00ff"/><stop offset=".04077475" stop-color="#2000ff"/><stop offset=".09936851" stop-color="#008eff" stop-opacity=".99"/><stop offset=".15405601" stop-color="#00ff84"/><stop offset=".19702476" stop-color="#1aff00" stop-opacity=".97"/><stop offset=".27905601" stop-color="#b1ff00"/><stop offset=".41968101" stop-color="#ff5000"/><stop offset=".54077476" stop-color="#ff001f"/><stop offset=".64624351" stop-color="#ff007a"/><stop offset=".75952476" stop-color="#0007ff" stop-opacity=".99"/><stop offset=".88061851" stop-color="#0068ff"/><stop offset="1" stop-opacity=".99"/></linearGradient><filter id="c" color-interpolation-filters="sRGB" height="1" width="1" x="0" y="0"><feGaussianBlur stdDeviation=".0019150635"/></filter><linearGradient id="d" gradientTransform="matrix(.99 0 0 .95 .36 1.93)" gradientUnits="userSpaceOnUse" spreadMethod="reflect" x1="3.66" x2="21.33" y1="42.02" y2="39.08"><stop offset="0" stop-color="#d4bd00"/><stop offset="1" stop-color="#fff17d"/></linearGradient><rect fill="#121212" height="75.14" ry="6.44" stroke="#121212" stroke-linecap="round" stroke-linejoin="round" stroke-width=".68" width="94.98" x="26.67" y="4.42"/><path d="m38.19 32.96-1.82 42.96-2.4-15.4-1.54 15.4-1.92-27.06-1.85 27.06c-.31-1.47-.92-3.96-.92-3.96l.03 7.44 87.06.02s1.46.15 3.08-.67 2.66-2.57 2.66-2.57l-65.97-.25-2.01-3.97-1.73 3.97-1.73-12.82-1.54 12.82-2.2-22.68-2.02 22.68-1.44-32.55-1.82 32.55z" fill="url(#b)" stroke-width=".97"/><path d="m34.12 4.56c-5.36 0-12.01-.05-15.75-.07-13.94-.08-13.96-.08-13.85 15.96.08 13.76-.13 27.73.05 41.18-.08 17.95-.12 17.9 15.26 17.89 3.36 0 9.58-.11 14.28-.11h.06v-74.85z" fill="url(#d)" stroke="#121212" stroke-width=".97"/><g fill="url(#a)" filter="url(#c)" stroke-width="0" transform="matrix(0 -.95 .99 0 1.85 -.66)"><path d="m-63.43 25.87h-2.83l-1.13-2.93h-5.15l-1.06 2.93h-2.76l5.02-12.88h2.75zm-4.79-5.1-1.78-4.78-1.74 4.78z"/><path d="m-60.57 12.98h2.6v6.98q0 1.66.1 2.15.17.79.79 1.27.63.47 1.72.47 1.11 0 1.67-.45.56-.46.68-1.12.11-.66.11-2.19v-7.13h2.6v6.77q0 2.32-.21 3.28-.21.96-.78 1.62-.56.66-1.51 1.05-.95.39-2.48.39-1.85 0-2.8-.42-.95-.43-1.5-1.11-.55-.69-.73-1.43-.25-1.11-.25-3.27z"/><path d="m-46.06 12.98h4.75q1.61 0 2.45.25 1.13.33 1.94 1.19.81.85 1.23 2.09.42 1.23.42 3.04 0 1.59-.4 2.74-.48 1.41-1.38 2.28-.68.66-1.83 1.03-.86.27-2.3.27h-4.9zm2.6 2.18v8.53h1.94q1.09 0 1.57-.12.63-.16 1.05-.54.42-.38.69-1.24.26-.87.26-2.36 0-1.49-.26-2.29-.26-.8-.74-1.25-.47-.45-1.2-.61-.54-.12-2.14-.12z"/><path d="m-31.63 25.87v-12.89h2.6v12.88z"/><path d="m-25.58 19.51q0-1.97.59-3.3.44-.98 1.2-1.77.76-.78 1.67-1.16 1.2-.51 2.78-.51 2.85 0 4.55 1.77 1.71 1.77 1.71 4.91 0 3.12-1.7 4.89-1.7 1.76-4.54 1.76-2.87 0-4.57-1.75-1.7-1.76-1.7-4.83zm2.68-.09q0 2.19 1.01 3.32 1.01 1.13 2.57 1.13 1.56 0 2.55-1.12 1-1.13 1-3.37 0-2.21-.98-3.3-.97-1.09-2.58-1.09-1.61 0-2.59 1.11-.98 1.1-.98 3.32z"/></g><path d="m95.54 10.61c-1.57.08-3.24.53-5 1.36-1.77.84-3.22 1.89-4.37 3.15-2.29 2.49-3.59 5.55-3.59 8.4 0 .39.03.77.07 1.12 3.56.28 6.85-1.48 9.57-4.54 2.25-2.57 3.38-5.34 3.38-8.31 0-.39-.02-.79-.06-1.19zm-1.02 14.06c-1.77-.02-3.87.39-6.3 1.23-2.94 1.03-4.67 1.55-5.18 1.55-.68 0-2.24-.44-4.67-1.32-2.43-.87-4.39-1.32-5.89-1.32-2.73.04-5.27.73-7.61 2.06-2.35 1.34-4.22 3.16-5.63 5.47-1.79 2.88-2.69 6.31-2.69 10.29 0 3.47.66 7.06 1.99 10.77 1.24 3.43 2.82 6.44 4.74 9.04 1.79 2.43 3.28 4.15 4.48 5.15 1.87 1.67 3.75 2.47 5.63 2.39 1.24-.04 2.85-.45 4.86-1.23 2-.78 3.88-1.16 5.63-1.16 1.67 0 3.49.38 5.47 1.16s3.67 1.17 5.08 1.17c1.96-.04 3.79-.82 5.5-2.33 1.1-.92 2.53-2.58 4.28-4.97 1.28-1.76 2.39-3.67 3.32-5.74.39-.88.75-1.8 1.09-2.75-.75-.3-1.46-.66-2.13-1.08v1.28c-.61.27-1.25.48-1.91.62-.65.14-1.35.21-2.09.21-2.01 0-3.61-.61-4.79-1.82s-1.78-2.85-1.78-4.91c0-2.09.6-3.74 1.79-4.94.65-.65 1.44-1.12 2.35-1.42 0-.03 0-.05 0-.08-.05-4.86 2.26-8.66 6.91-11.36-2.6-3.55-6.51-5.52-11.71-5.92-.24-.02-.49-.03-.74-.03zm5.54 17.39c.01.7.07 1.38.18 2.04.68-.42 1.51-.63 2.5-.63.64 0 1.26.08 1.88.25.63.16 1.25.4 1.87.73v-1.97c-.6-.27-1.23-.47-1.87-.6-.64-.14-1.3-.21-1.98-.21-.95 0-1.81.13-2.58.38zm.18 2.04c-.3.19-.58.41-.82.67-.79.86-1.18 2.08-1.18 3.64 0 1.57.39 2.78 1.18 3.65.79.86 1.89 1.29 3.31 1.29.64 0 1.26-.08 1.88-.24.43-.11.85-.27 1.28-.46-.54-.37-1.06-.78-1.55-1.23-2.27-2.02-3.64-4.47-4.11-7.33zm5.66 8.57c.19.13.39.26.59.39v-.67c-.2.1-.4.2-.59.29zm-30.77-15.67h2.19v17.82h-2.19zm-10.29 4.69c1.93 0 3.37.48 4.33 1.44.95.96 1.43 2.42 1.43 4.38v7.32h-2.19v-1.95c-.5.78-1.12 1.36-1.87 1.73s-1.66.55-2.74.55c-1.37 0-2.46-.37-3.27-1.1-.8-.74-1.2-1.73-1.2-2.97 0-1.44.5-2.53 1.5-3.26 1.01-.73 2.51-1.1 4.51-1.1h3.08v-.21c0-.97-.33-1.72-1-2.25-.66-.53-1.59-.8-2.79-.8-.76 0-1.51.09-2.23.26-.72.18-1.42.44-2.09.79v-1.95c.8-.3 1.58-.52 2.34-.66.76-.15 1.49-.23 2.21-.23zm21.75 0c1.93 0 3.37.48 4.33 1.44.95.96 1.43 2.42 1.43 4.38v7.32h-2.19v-1.95c-.5.78-1.12 1.36-1.87 1.73s-1.66.55-2.74.55c-1.37 0-2.46-.37-3.27-1.1-.8-.74-1.2-1.73-1.2-2.97 0-1.44.5-2.53 1.5-3.26 1.01-.73 2.51-1.1 4.51-1.1h3.06v-.21c0-.97-.33-1.72-1-2.25-.66-.53-1.59-.8-2.79-.8-.76 0-1.51.09-2.23.26-.72.18-1.42.44-2.09.79v-1.95c.8-.3 1.58-.52 2.34-.66.76-.15 1.49-.23 2.21-.23zm-20.37 6.69c-1.77 0-3 .19-3.68.58s-1.03 1.05-1.03 1.99c0 .75.25 1.34.76 1.79.52.44 1.22.65 2.1.65 1.22 0 2.19-.41 2.92-1.24.74-.83 1.11-1.94 1.11-3.31v-.47zm21.75 0c-1.77 0-3 .19-3.68.58s-1.03 1.05-1.03 1.99c0 .75.25 1.34.76 1.79.52.44 1.22.65 2.1.65 1.22 0 2.19-.41 2.92-1.24.74-.83 1.11-1.94 1.11-3.31v-.47z" fill="#c9c9c9" stroke-width=".37"/></svg>