<svg height="89.55mm" viewBox="0 0 148.81 89.55" width="148.81mm" xmlns="http://www.w3.org/2000/svg"><g stroke-width=".23"><path d="m58.8 34.73h1.64v20.1h-1.64z" fill="#1cff00"/><path d="m60.43 34.73h1.64v20.1h-1.64z" fill="#0100ff"/><path d="m62.06 34.72h1.64v20.1h-1.64z" fill="#ff0a00"/><path d="m80.6 35.23a9.42 9.51 0 0 0 -1.58.14 9.42 9.51 0 0 1 9.13 9.49 9.42 9.51 0 0 1 -7.84 9.37 9.42 9.51 0 0 0 .29.01 9.42 9.51 0 0 0 9.42-9.51 9.42 9.51 0 0 0 -9.42-9.51z"/><path d="m76.2 37.63a6.95 7.02 0 0 0 -1.17.1 6.95 7.02 0 0 1 6.74 7.01 6.95 7.02 0 0 1 -5.79 6.92 6.95 7.02 0 0 0 .22.01 6.95 7.02 0 0 0 6.95-7.02 6.95 7.02 0 0 0 -6.95-7.02z"/><path d="m72.99 40.14a4.4 4.44 0 0 0 -.74.06 4.4 4.44 0 0 1 4.26 4.43 4.4 4.44 0 0 1 -3.66 4.37 4.4 4.44 0 0 0 .14.01 4.4 4.44 0 0 0 4.4-4.44 4.4 4.44 0 0 0 -4.4-4.44z"/><path d="m68.39 46.96c-.01-1.17.11-1.49.82-2.15 1.09-1.04 1.33-1.44 1.33-2.28 0-1.24-.86-2.08-2.12-2.08s-2.17.74-2.17 1.77c0 .53.31.92.72.92.36 0 .63-.29.63-.66 0-.24-.11-.44-.32-.63-.17-.14-.18-.17-.18-.26 0-.31.49-.6 1.02-.6.79 0 1.24.55 1.24 1.47 0 .49-.13.94-.36 1.29-.82 1.21-.82 1.21-.97 1.62-.11.33-.16.64-.16 1.21v.38zm-.27.97c-.39 0-.7.33-.7.74 0 .42.31.75.69.75.39 0 .7-.33.7-.75 0-.41-.31-.74-.69-.74z"/></g></svg>