<svg viewBox="0 0 126 84" xmlns="http://www.w3.org/2000/svg"><linearGradient id="a" gradientUnits="userSpaceOnUse" spreadMethod="reflect" x1="-54.91" x2="-53.48" y1="20.56" y2="30.1"><stop offset="0" stop-color="#6c6c6c"/><stop offset="1"/></linearGradient><linearGradient id="b" gradientTransform="matrix(0 -.2 .21 0 -21.79 93.04)" gradientUnits="userSpaceOnUse" x1="67.11" x2="67.11" y1="259.37" y2="735.14"><stop offset="0" stop-color="#7e00ff"/><stop offset=".04077475" stop-color="#2000ff"/><stop offset=".09936851" stop-color="#008eff" stop-opacity=".99"/><stop offset=".15405601" stop-color="#00ff84"/><stop offset=".19702476" stop-color="#1aff00" stop-opacity=".97"/><stop offset=".27905601" stop-color="#b1ff00"/><stop offset=".41968101" stop-color="#ff5000"/><stop offset=".54077476" stop-color="#ff001f"/><stop offset=".64624351" stop-color="#ff007a"/><stop offset=".75952476" stop-color="#0007ff" stop-opacity=".99"/><stop offset=".88061851" stop-color="#0068ff"/><stop offset="1" stop-opacity=".99"/></linearGradient><filter id="c" color-interpolation-filters="sRGB" height="1" width="1" x="0" y="0"><feGaussianBlur stdDeviation=".0019150635"/></filter><linearGradient id="d" gradientTransform="matrix(.99 0 0 .95 .36 1.93)" gradientUnits="userSpaceOnUse" spreadMethod="reflect" x1="3.66" x2="21.33" y1="42.02" y2="39.08"><stop offset="0" stop-color="#d4bd00"/><stop offset="1" stop-color="#fff17d"/></linearGradient><rect fill="#121212" height="75.14" ry="6.44" stroke="#121212" stroke-linecap="round" stroke-linejoin="round" stroke-width=".68" width="94.98" x="26.67" y="4.42"/><path d="m38.19 32.96-1.82 42.96-2.4-15.4-1.54 15.4-1.92-27.06-1.85 27.06c-.31-1.47-.92-3.96-.92-3.96l.03 7.44 87.06.02s1.46.15 3.08-.67 2.66-2.57 2.66-2.57l-65.97-.25-2.01-3.97-1.73 3.97-1.73-12.82-1.54 12.82-2.2-22.68-2.02 22.68-1.44-32.55-1.82 32.55z" fill="url(#b)" stroke-width=".97"/><path d="m34.12 4.56c-5.36 0-12.01-.05-15.75-.07-13.94-.08-13.96-.08-13.85 15.96.08 13.76-.13 27.73.05 41.18-.08 17.95-.12 17.9 15.26 17.89 3.36 0 9.58-.11 14.28-.11h.06v-74.85z" fill="url(#d)" stroke="#121212" stroke-width=".97"/><g fill="url(#a)" filter="url(#c)" stroke-width="0" transform="matrix(0 -.95 .99 0 1.85 -.66)"><path d="m-63.43 25.87h-2.83l-1.13-2.93h-5.15l-1.06 2.93h-2.76l5.02-12.88h2.75zm-4.79-5.1-1.78-4.78-1.74 4.78z"/><path d="m-60.57 12.98h2.6v6.98q0 1.66.1 2.15.17.79.79 1.27.63.47 1.72.47 1.11 0 1.67-.45.56-.46.68-1.12.11-.66.11-2.19v-7.13h2.6v6.77q0 2.32-.21 3.28-.21.96-.78 1.62-.56.66-1.51 1.05-.95.39-2.48.39-1.85 0-2.8-.42-.95-.43-1.5-1.11-.55-.69-.73-1.43-.25-1.11-.25-3.27z"/><path d="m-46.06 12.98h4.75q1.61 0 2.45.25 1.13.33 1.94 1.19.81.85 1.23 2.09.42 1.23.42 3.04 0 1.59-.4 2.74-.48 1.41-1.38 2.28-.68.66-1.83 1.03-.86.27-2.3.27h-4.9zm2.6 2.18v8.53h1.94q1.09 0 1.57-.12.63-.16 1.05-.54.42-.38.69-1.24.26-.87.26-2.36 0-1.49-.26-2.29-.26-.8-.74-1.25-.47-.45-1.2-.61-.54-.12-2.14-.12z"/><path d="m-31.63 25.87v-12.89h2.6v12.88z"/><path d="m-25.58 19.51q0-1.97.59-3.3.44-.98 1.2-1.77.76-.78 1.67-1.16 1.2-.51 2.78-.51 2.85 0 4.55 1.77 1.71 1.77 1.71 4.91 0 3.12-1.7 4.89-1.7 1.76-4.54 1.76-2.87 0-4.57-1.75-1.7-1.76-1.7-4.83zm2.68-.09q0 2.19 1.01 3.32 1.01 1.13 2.57 1.13 1.56 0 2.55-1.12 1-1.13 1-3.37 0-2.21-.98-3.3-.97-1.09-2.58-1.09-1.61 0-2.59 1.11-.98 1.1-.98 3.32z"/></g><g fill="#c9c9c9" transform="matrix(.99 0 0 .95 .36 1.93)"><path d="m65.97 15.97c-2.39 0-4.12.34-5.45 1.22-1.39.92-2.04 2.47-2.04 4.89v5.25c0 2.42.68 4.06 2.03 4.88 1.09.78 2.87 1.15 5.46 1.15 2.56 0 4.39-.38 5.44-1.13 1.35-.86 2.06-2.55 2.06-4.89v-5.25c0-2.3-.69-3.95-2.05-4.89-1.12-.8-3-1.22-5.44-1.22zm-25.18.61v15.67h8.79c4.33 0 5.95-1.69 5.95-6.23v-3.44c0-4.31-1.83-5.99-6.52-5.99zm35.5 0v15.9h10.92v-2.65h-7.09v-13.25zm12.88 0v15.9h8.08c2.48 0 3.52-.46 4-.76.82-.51 1.88-1.65 1.88-3.46 0-2.14-.79-4.28-4.6-4.19 3.02-.26 3.68-1.64 3.68-3.63 0-1.75-.8-2.64-1.67-3.14-.73-.43-1.59-.72-3.4-.72zm14.59 0c.66 1.24 5.24 10.21 5.24 10.21v5.92h3.77c0-.8 0-5.9 0-5.9s4.77-9 5.44-10.24h-3.33l-3.88 7.3-3.75-7.3zm-37.78 2.02c2.82 0 3.82.62 3.82 3.51v4.99c0 2.96-1 3.63-3.82 3.63s-3.82-.67-3.82-3.63v-4.99c0-2.89 1-3.51 3.82-3.51zm27.04.26h3.79c1.27 0 2.08.95 2.08 2.25 0 1.99-1.04 2.04-3.99 2.14v1.84c2.64-.01 4.75-.16 4.75 2.39 0 1.28-.87 2.69-3.15 2.69h-3.48v-.01-11.29zm-48.52.02h4.54c1.28 0 2.82.69 2.82 3.24v4.27c0 2.74-1.53 3.45-2.82 3.44h-4.54z" stroke-width=".58"/><path clip-rule="evenodd" d="m48.75 40.69c-1.55 0-3.02.66-3.02 2.42 0 1.69 1.23 1.97 2.47 2.27l.84.2c.77.17 1.41.34 1.41.95 0 .8-.93 1-1.61 1-.85 0-1.68-.31-1.68-1.25h-1.56c0 1.85 1.49 2.59 3.16 2.59 2.4 0 3.25-1.23 3.25-2.47 0-1.61-1.24-1.95-2.04-2.15l-1.9-.47c-.35-.08-.85-.17-.85-.79 0-.71.74-.95 1.39-.95.89 0 1.58.35 1.58 1.18h1.56c0-2.14-1.98-2.53-3.02-2.53zm36.63 0c-2.51 0-3.74 1.77-3.74 4.09s1.24 4.09 3.74 4.09c2.31 0 3.74-1.77 3.74-4.09s-1.43-4.09-3.74-4.09zm-31.04.2v5.15c.02.78.18 1.41.61 1.89.69.77 1.76.94 2.47.94 1.96 0 3.2-.88 3.2-2.93v-5.05h-1.63v5.12c0 .94-.46 1.49-1.61 1.49-.79 0-1.42-.48-1.42-1.56v-5.04zm9.29 0v7.79h1.59v-3.05h1.68c1.2 0 1.27.41 1.27 1.48 0 .8.07 1.2.17 1.57h1.8v-.21c-.35-.13-.35-.41-.35-1.55 0-1.45-.35-1.69-.99-1.97.77-.26 1.2-1 1.2-1.85 0-.67-.38-2.2-2.45-2.2zm9.25 0v7.79h1.59v-3.05h1.68c1.2 0 1.27.41 1.27 1.48 0 .8.07 1.2.17 1.57h1.8v-.21c-.35-.13-.35-.41-.35-1.55 0-1.45-.35-1.69-.99-1.97.77-.26 1.2-1 1.2-1.85 0-.67-.38-2.2-2.45-2.2zm18.9 0v5.15c.02.78.18 1.41.61 1.89.69.77 1.76.94 2.47.94 1.96 0 3.2-.88 3.2-2.93v-5.05h-1.63v5.12c0 .94-.46 1.49-1.61 1.49-.79 0-1.42-.48-1.42-1.56v-5.04zm9.37 0v7.79h1.56v-5.27h.02l3.08 5.27h1.65v-7.79h-1.56v5.3h-.02l-3.08-5.3zm9.31 0v7.79h3.37c2.57 0 3.23-2.41 3.23-4.08 0-1.48-.54-3.71-3.17-3.71zm-17.28 15.47v12.64h9.57v-2.29h-7.04v-3.19h6.19v-2.18h-6.19v-2.8h6.74v-2.18zm12.59 0 3.87 6.18-4.1 6.46h3.1l2.55-4.31 2.39 4.31h3.24l-4.14-6.56 3.87-6.07h-3.04l-2.32 4.08-2.27-4.08zm-20.39-14.26c1.32 0 2.12 1.13 2.12 2.68s-.79 2.68-2.12 2.68c-1.32 0-2.12-1.13-2.12-2.68s.79-2.68 2.12-2.68zm-20.15.13h2.03c.95 0 1.14.61 1.14 1.02 0 .77-.41 1.06-1.26 1.06h-1.92zm9.25 0h2.03c.95 0 1.14.61 1.14 1.02 0 .77-.41 1.06-1.26 1.06h-1.91zm37.59 0h1.56c.69 0 1.79.18 1.79 2.48 0 1.28-.44 2.61-1.77 2.61h-1.58z" fill-rule="evenodd"/></g></svg>