<svg viewBox="0 0 126 84" xmlns="http://www.w3.org/2000/svg"><linearGradient id="a" gradientUnits="userSpaceOnUse" spreadMethod="reflect" x1="-54.91" x2="-53.48" y1="20.56" y2="30.1"><stop offset="0" stop-color="#6c6c6c"/><stop offset="1"/></linearGradient><linearGradient id="b" gradientTransform="matrix(0 -.2 .21 0 -21.79 93.04)" gradientUnits="userSpaceOnUse" x1="67.11" x2="67.11" y1="259.37" y2="735.14"><stop offset="0" stop-color="#7e00ff"/><stop offset=".04077475" stop-color="#2000ff"/><stop offset=".09936851" stop-color="#008eff" stop-opacity=".99"/><stop offset=".15405601" stop-color="#00ff84"/><stop offset=".19702476" stop-color="#1aff00" stop-opacity=".97"/><stop offset=".27905601" stop-color="#b1ff00"/><stop offset=".41968101" stop-color="#ff5000"/><stop offset=".54077476" stop-color="#ff001f"/><stop offset=".64624351" stop-color="#ff007a"/><stop offset=".75952476" stop-color="#0007ff" stop-opacity=".99"/><stop offset=".88061851" stop-color="#0068ff"/><stop offset="1" stop-opacity=".99"/></linearGradient><filter id="c" color-interpolation-filters="sRGB" height="1" width="1" x="0" y="0"><feGaussianBlur stdDeviation=".0019150635"/></filter><linearGradient id="d" gradientTransform="matrix(.99 0 0 .95 .36 1.93)" gradientUnits="userSpaceOnUse" spreadMethod="reflect" x1="3.66" x2="21.33" y1="42.02" y2="39.08"><stop offset="0" stop-color="#d4bd00"/><stop offset="1" stop-color="#fff17d"/></linearGradient><rect fill="#121212" height="75.14" ry="6.44" stroke="#121212" stroke-linecap="round" stroke-linejoin="round" stroke-width=".68" width="94.98" x="26.67" y="4.42"/><path d="m38.19 32.96-1.82 42.96-2.4-15.4-1.54 15.4-1.92-27.06-1.85 27.06c-.31-1.47-.92-3.96-.92-3.96l.03 7.44 87.06.02s1.46.15 3.08-.67 2.66-2.57 2.66-2.57l-65.97-.25-2.01-3.97-1.73 3.97-1.73-12.82-1.54 12.82-2.2-22.68-2.02 22.68-1.44-32.55-1.82 32.55z" fill="url(#b)" stroke-width=".97"/><path d="m34.12 4.56c-5.36 0-12.01-.05-15.75-.07-13.94-.08-13.96-.08-13.85 15.96.08 13.76-.13 27.73.05 41.18-.08 17.95-.12 17.9 15.26 17.89 3.36 0 9.58-.11 14.28-.11h.06v-74.85z" fill="url(#d)" stroke="#121212" stroke-width=".97"/><g fill="url(#a)" filter="url(#c)" stroke-width="0" transform="matrix(0 -.95 .99 0 1.85 -.66)"><path d="m-63.43 25.87h-2.83l-1.13-2.93h-5.15l-1.06 2.93h-2.76l5.02-12.88h2.75zm-4.79-5.1-1.78-4.78-1.74 4.78z"/><path d="m-60.57 12.98h2.6v6.98q0 1.66.1 2.15.17.79.79 1.27.63.47 1.72.47 1.11 0 1.67-.45.56-.46.68-1.12.11-.66.11-2.19v-7.13h2.6v6.77q0 2.32-.21 3.28-.21.96-.78 1.62-.56.66-1.51 1.05-.95.39-2.48.39-1.85 0-2.8-.42-.95-.43-1.5-1.11-.55-.69-.73-1.43-.25-1.11-.25-3.27z"/><path d="m-46.06 12.98h4.75q1.61 0 2.45.25 1.13.33 1.94 1.19.81.85 1.23 2.09.42 1.23.42 3.04 0 1.59-.4 2.74-.48 1.41-1.38 2.28-.68.66-1.83 1.03-.86.27-2.3.27h-4.9zm2.6 2.18v8.53h1.94q1.09 0 1.57-.12.63-.16 1.05-.54.42-.38.69-1.24.26-.87.26-2.36 0-1.49-.26-2.29-.26-.8-.74-1.25-.47-.45-1.2-.61-.54-.12-2.14-.12z"/><path d="m-31.63 25.87v-12.89h2.6v12.88z"/><path d="m-25.58 19.51q0-1.97.59-3.3.44-.98 1.2-1.77.76-.78 1.67-1.16 1.2-.51 2.78-.51 2.85 0 4.55 1.77 1.71 1.77 1.71 4.91 0 3.12-1.7 4.89-1.7 1.76-4.54 1.76-2.87 0-4.57-1.75-1.7-1.76-1.7-4.83zm2.68-.09q0 2.19 1.01 3.32 1.01 1.13 2.57 1.13 1.56 0 2.55-1.12 1-1.13 1-3.37 0-2.21-.98-3.3-.97-1.09-2.58-1.09-1.61 0-2.59 1.11-.98 1.1-.98 3.32z"/></g><path d="m66.47 18.78c-2.37 0-4.09.33-5.41 1.17-1.38.88-2.03 2.36-2.03 4.66v5.01c0 2.31.67 3.87 2.01 4.65 1.08.74 2.84 1.1 5.42 1.1 2.54 0 4.36-.36 5.4-1.08 1.34-.82 2.04-2.43 2.04-4.67v-5.01c0-2.19-.69-3.76-2.04-4.67-1.11-.76-2.98-1.16-5.4-1.16zm-24.99.58v14.94h8.73c4.3 0 5.9-1.61 5.9-5.94v-3.28c0-4.11-1.82-5.71-6.48-5.71zm35.24 0v15.16h10.84v-2.52h-7.03v-12.64zm12.79 0v15.16h8.02c2.47 0 3.49-.43 3.97-.73.81-.49 1.87-1.57 1.87-3.3 0-2.04-.79-4.08-4.56-4 3-.25 3.66-1.57 3.66-3.46 0-1.67-.79-2.52-1.66-3-.72-.41-1.58-.68-3.38-.68zm14.48 0c.65 1.18 5.21 9.74 5.21 9.74v5.64h3.74c0-.77 0-5.62 0-5.62s4.73-8.58 5.4-9.76h-3.3l-3.85 6.96-3.72-6.96zm-37.5 1.92c2.8 0 3.8.6 3.8 3.35v4.76c0 2.82-1 3.47-3.8 3.47s-3.79-.64-3.79-3.47v-4.76c0-2.75.99-3.35 3.79-3.35zm26.84.25h3.76c1.26 0 2.07.9 2.07 2.14 0 1.9-1.03 1.95-3.96 2.04v1.76c2.62-.01 4.71-.15 4.71 2.28 0 1.22-.87 2.57-3.13 2.57h-3.47v-.01-10.76zm-48.16.02h4.51c1.27 0 2.8.66 2.8 3.09v4.07c0 2.62-1.52 3.29-2.8 3.28h-4.53zm34.48 23.9c-2.19 0-3.79.3-5.01 1.08-1.28.82-1.88 2.18-1.88 4.32v4.64c0 2.2.62 3.59 1.87 4.3 1 .69 2.63 1.02 5.02 1.02 2.35 0 4.03-.34 5-1 1.05-.64 1.66-1.8 1.84-3.38h-3.4c-.28 1.65-1.27 2.06-3.43 2.06-2.59 0-3.52-.6-3.52-3.21v-4.41c0-2.76.92-3.1 3.52-3.1 2.27 0 3.26.42 3.47 2.23h3.37c-.16-1.59-.78-2.76-1.84-3.47-1.03-.71-3.34-1.08-5-1.08zm27.69.2-6.75 9.5v2.51h6.37v3.01h2.89v-3.01h1.93v-2.52h-1.93v-9.49zm-46.92.28-5.45 14.78h3.02l1.28-3.77h5.95l1.28 3.77h3.47l-5.52-14.78zm1.76 1.97h.07l.2.87 1.94 5.72h-4.32l1.9-5.72zm44.78 2.13v5.11h-3.58zm-15.87 1.19v2.44h5v-2.44z" fill="#c9c9c9" stroke-width=".56"/></svg>