<svg viewBox="0 0 126 84" xmlns="http://www.w3.org/2000/svg"><linearGradient id="a" gradientUnits="userSpaceOnUse" spreadMethod="reflect" x1="-54.91" x2="-53.48" y1="20.56" y2="30.1"><stop offset="0" stop-color="#6c6c6c"/><stop offset="1"/></linearGradient><linearGradient id="b" gradientTransform="matrix(0 -.2 .21 0 -21.79 93.04)" gradientUnits="userSpaceOnUse" x1="67.11" x2="67.11" y1="259.37" y2="735.14"><stop offset="0" stop-color="#7e00ff"/><stop offset=".04077475" stop-color="#2000ff"/><stop offset=".09936851" stop-color="#008eff" stop-opacity=".99"/><stop offset=".15405601" stop-color="#00ff84"/><stop offset=".19702476" stop-color="#1aff00" stop-opacity=".97"/><stop offset=".27905601" stop-color="#b1ff00"/><stop offset=".41968101" stop-color="#ff5000"/><stop offset=".54077476" stop-color="#ff001f"/><stop offset=".64624351" stop-color="#ff007a"/><stop offset=".75952476" stop-color="#0007ff" stop-opacity=".99"/><stop offset=".88061851" stop-color="#0068ff"/><stop offset="1" stop-opacity=".99"/></linearGradient><filter id="c" color-interpolation-filters="sRGB" height="1" width="1" x="0" y="0"><feGaussianBlur stdDeviation=".0019150635"/></filter><linearGradient id="d" gradientTransform="matrix(.99 0 0 .95 .36 1.93)" gradientUnits="userSpaceOnUse" spreadMethod="reflect" x1="3.66" x2="21.33" y1="42.02" y2="39.08"><stop offset="0" stop-color="#d4bd00"/><stop offset="1" stop-color="#fff17d"/></linearGradient><rect fill="#121212" height="75.14" ry="6.44" stroke="#121212" stroke-linecap="round" stroke-linejoin="round" stroke-width=".68" width="94.98" x="26.67" y="4.42"/><path d="m38.19 32.96-1.82 42.96-2.4-15.4-1.54 15.4-1.92-27.06-1.85 27.06c-.31-1.47-.92-3.96-.92-3.96l.03 7.44 87.06.02s1.46.15 3.08-.67 2.66-2.57 2.66-2.57l-65.97-.25-2.01-3.97-1.73 3.97-1.73-12.82-1.54 12.82-2.2-22.68-2.02 22.68-1.44-32.55-1.82 32.55z" fill="url(#b)" stroke-width=".97"/><path d="m34.12 4.56c-5.36 0-12.01-.05-15.75-.07-13.94-.08-13.96-.08-13.85 15.96.08 13.76-.13 27.73.05 41.18-.08 17.95-.12 17.9 15.26 17.89 3.36 0 9.58-.11 14.28-.11h.06v-74.85z" fill="url(#d)" stroke="#121212" stroke-width=".97"/><g fill="url(#a)" filter="url(#c)" stroke-width="0" transform="matrix(0 -.95 .99 0 1.85 -.66)"><path d="m-63.43 25.87h-2.83l-1.13-2.93h-5.15l-1.06 2.93h-2.76l5.02-12.88h2.75zm-4.79-5.1-1.78-4.78-1.74 4.78z"/><path d="m-60.57 12.98h2.6v6.98q0 1.66.1 2.15.17.79.79 1.27.63.47 1.72.47 1.11 0 1.67-.45.56-.46.68-1.12.11-.66.11-2.19v-7.13h2.6v6.77q0 2.32-.21 3.28-.21.96-.78 1.62-.56.66-1.51 1.05-.95.39-2.48.39-1.85 0-2.8-.42-.95-.43-1.5-1.11-.55-.69-.73-1.43-.25-1.11-.25-3.27z"/><path d="m-46.06 12.98h4.75q1.61 0 2.45.25 1.13.33 1.94 1.19.81.85 1.23 2.09.42 1.23.42 3.04 0 1.59-.4 2.74-.48 1.41-1.38 2.28-.68.66-1.83 1.03-.86.27-2.3.27h-4.9zm2.6 2.18v8.53h1.94q1.09 0 1.57-.12.63-.16 1.05-.54.42-.38.69-1.24.26-.87.26-2.36 0-1.49-.26-2.29-.26-.8-.74-1.25-.47-.45-1.2-.61-.54-.12-2.14-.12z"/><path d="m-31.63 25.87v-12.89h2.6v12.88z"/><path d="m-25.58 19.51q0-1.97.59-3.3.44-.98 1.2-1.77.76-.78 1.67-1.16 1.2-.51 2.78-.51 2.85 0 4.55 1.77 1.71 1.77 1.71 4.91 0 3.12-1.7 4.89-1.7 1.76-4.54 1.76-2.87 0-4.57-1.75-1.7-1.76-1.7-4.83zm2.68-.09q0 2.19 1.01 3.32 1.01 1.13 2.57 1.13 1.56 0 2.55-1.12 1-1.13 1-3.37 0-2.21-.98-3.3-.97-1.09-2.58-1.09-1.61 0-2.59 1.11-.98 1.1-.98 3.32z"/></g><g fill="#c9c9c9" transform="matrix(.99 0 0 .95 .36 1.93)"><path d="m66.6 17.68c-2.39 0-4.12.34-5.45 1.22-1.39.92-2.04 2.47-2.04 4.89v5.25c0 2.42.68 4.06 2.03 4.88 1.09.78 2.87 1.15 5.46 1.15 2.56 0 4.39-.38 5.44-1.13 1.35-.86 2.06-2.55 2.06-4.89v-5.25c0-2.3-.69-3.95-2.05-4.89-1.12-.8-3-1.22-5.44-1.22zm-25.18.61v15.67h8.79c4.33 0 5.95-1.69 5.95-6.23v-3.46c0-4.31-1.83-5.99-6.52-5.99zm35.5 0v15.89h10.92v-2.64h-7.08v-13.26zm12.88 0v15.9h8.08c2.48 0 3.52-.46 4-.76.82-.51 1.88-1.65 1.88-3.46 0-2.14-.79-4.28-4.6-4.19 3.02-.26 3.68-1.64 3.68-3.63 0-1.75-.8-2.64-1.67-3.14-.73-.43-1.59-.72-3.4-.72zm14.59 0c.66 1.24 5.24 10.21 5.24 10.21v5.92h3.77c0-.8 0-5.9 0-5.9s4.77-9 5.44-10.24h-3.33l-3.88 7.3-3.75-7.3zm-37.78 2.01c2.82 0 3.82.62 3.82 3.51v4.99c0 2.96-1 3.63-3.82 3.63s-3.82-.67-3.82-3.63v-4.99c0-2.89 1-3.51 3.82-3.51zm27.04.26h3.79c1.27 0 2.08.95 2.08 2.25 0 1.99-1.04 2.04-3.99 2.14v1.84c2.64-.01 4.75-.16 4.75 2.39 0 1.28-.87 2.69-3.15 2.69h-3.48v-.01-11.29zm-48.52.02h4.54c1.28 0 2.82.69 2.82 3.24v4.27c0 2.74-1.53 3.45-2.82 3.44h-4.54z" stroke-width=".58"/><path d="m95.66 45.32c-1.75 0-3.01.28-3.99 1-1.02.74-1.52 1.98-1.52 3.94v4.27c0 1.97.53 3.28 1.52 3.94.8.63 2.09.95 3.99.95 1.88 0 3.22-.29 3.99-.9.99-.7 1.52-2.08 1.52-3.99v-4.27c0-1.86-.52-3.17-1.52-3.94-.82-.65-2.2-1-3.99-1zm-21.26.33v13.67h2.8v-8.87l3.09 6.64h1.37l3.46-7.55.1 9.78h2.66v-13.67h-3.47l-3.46 7.17-3.18-7.17zm-12.24.05v2.99h3.84v10.68h3.04v-10.68h3.8v-2.99zm-7.55.05-4.89 13.57h2.8l1.14-3.04h5.13l1.14 3.04h2.75l-4.8-13.57zm52.02.05c-2.43 0-3.37 1.09-3.37 2.94v1.99c0 1.84.77 2.45 2.79 2.75l2.89.43c.71.11.9.34.9.95v1.28c0 .53-.23.81-.76.81h-5.79v1.42c.51.59 1.61.76 2.42.76h3.56c2.29 0 3.08-.96 3.08-2.89v-2.04c0-1.93-.58-2.51-2.37-2.75l-3.36-.47c-.56-.07-.91-.27-.91-.9v-1.2c0-.65.15-.85.71-.85h5.46v-1.47c-.44-.56-1.61-.76-2.42-.76zm-11.68 1.66c.22-.02.46 0 .71 0 2.07 0 2.8.51 2.8 2.85v4.03c0 2.4-.74 2.94-2.8 2.94s-2.8-.55-2.8-2.94v-4.03c0-2.05.57-2.72 2.09-2.85zm-38.73 2.04 1.43 3.8-2.94.05z" stroke-width=".48"/></g></svg>