<svg viewBox="0 0 126 84" xmlns="http://www.w3.org/2000/svg"><linearGradient id="a" gradientTransform="matrix(0 -.95 .99 0 1.85 -.66)" gradientUnits="userSpaceOnUse" spreadMethod="reflect" x1="-54.91" x2="-53.48" y1="20.56" y2="30.1"><stop offset="0" stop-color="#6c6c6c"/><stop offset="1"/></linearGradient><linearGradient id="b" gradientTransform="matrix(0 -.2 .21 0 -21.79 93.04)" gradientUnits="userSpaceOnUse" x1="67.11" x2="67.11" y1="259.37" y2="735.14"><stop offset="0" stop-color="#7e00ff"/><stop offset=".04077475" stop-color="#2000ff"/><stop offset=".09936851" stop-color="#008eff" stop-opacity=".99"/><stop offset=".15405601" stop-color="#00ff84"/><stop offset=".19702476" stop-color="#1aff00" stop-opacity=".97"/><stop offset=".27905601" stop-color="#b1ff00"/><stop offset=".41968101" stop-color="#ff5000"/><stop offset=".54077476" stop-color="#ff001f"/><stop offset=".64624351" stop-color="#ff007a"/><stop offset=".75952476" stop-color="#0007ff" stop-opacity=".99"/><stop offset=".88061851" stop-color="#0068ff"/><stop offset="1" stop-opacity=".99"/></linearGradient><filter id="c" color-interpolation-filters="sRGB" height="1" width="1" x="0" y="0"><feGaussianBlur stdDeviation=".0019150635"/></filter><linearGradient id="d" gradientTransform="matrix(.99 0 0 .95 .36 1.93)" gradientUnits="userSpaceOnUse" spreadMethod="reflect" x1="3.66" x2="21.33" y1="42.02" y2="39.08"><stop offset="0" stop-color="#d4bd00"/><stop offset="1" stop-color="#fff17d"/></linearGradient><rect fill="#121212" height="75.14" ry="6.44" stroke="#121212" stroke-linecap="round" stroke-linejoin="round" stroke-width=".68" width="94.98" x="26.67" y="4.42"/><path d="m38.19 32.96-1.82 42.96-2.4-15.4-1.54 15.4-1.92-27.06-1.85 27.06c-.31-1.47-.92-3.96-.92-3.96l.03 7.44 87.06.02s1.46.15 3.08-.67 2.66-2.57 2.66-2.57l-65.97-.25-2.01-3.97-1.73 3.97-1.73-12.82-1.54 12.82-2.2-22.68-2.02 22.68-1.44-32.55-1.82 32.55z" fill="url(#b)" stroke-width=".97"/><path d="m34.12 4.56c-5.36 0-12.01-.05-15.75-.07-13.94-.08-13.96-.08-13.85 15.96.08 13.76-.13 27.73.05 41.18-.08 17.95-.12 17.9 15.26 17.89 3.36 0 9.58-.11 14.28-.11h.06v-74.85z" fill="url(#d)" stroke="#121212" stroke-width=".97"/><path d="m21.15 11.81c-2.08 0-3.71.55-4.88 1.63s-1.75 2.53-1.75 4.34c0 1 .17 1.88.51 2.65.25.58.63 1.11 1.15 1.59s1.1.86 1.75 1.14c.88.37 1.98.56 3.28.56 2.03 0 3.63-.54 4.8-1.62 1.16-1.08 1.74-2.53 1.74-4.36 0-1.8-.58-3.25-1.74-4.33-1.17-1.08-2.79-1.62-4.85-1.62zm-.06 2.56c1.48 0 2.6.32 3.34.96.74.63 1.11 1.44 1.11 2.43s-.37 1.8-1.12 2.45c-.75.64-1.85.96-3.3.96-1.47 0-2.57-.31-3.3-.94s-1.1-1.45-1.1-2.47.36-1.84 1.08-2.46 1.81-.93 3.28-.93zm-6.35 12.64v2.48h12.79v-2.48zm6.29 5.94c-1.8 0-3.74.43-5.03 1.72-.86.83-1.22 2.01-1.24 3.16-.05 1.81-.01 3.61-.02 5.42h12.79v-4.53c.04-1.44-.22-2.99-1.29-4.07-1.34-1.31-3.34-1.75-5.2-1.69zm-.21 2.57c1-.03 2.02.03 2.96.35.79.23 1.36.91 1.49 1.68.16 1.07.07 2.15.09 3.23h-8.47v-.63c.03-.98-.08-1.99.25-2.93.39-1.06 1.6-1.54 2.68-1.63.33-.03.66-.05 1-.06zm-6.09 11.77v2.48h3.72c1.68.02 3.36-.04 5.04.05.8-.01 1.61.43 1.87 1.18.28.9.28 1.97-.3 2.76-.49.67-1.38.85-2.18.83-2.72.04-5.43.01-8.15.02v2.48h3.7c1.83-.02 3.67.07 5.49-.1 1.05-.07 2.1-.48 2.77-1.28.91-1 1.05-2.38 1.05-3.66.02-1.34-.27-2.8-1.35-3.74-1-.91-2.45-.96-3.75-1-2.64-.03-5.27-.01-7.91-.02zm12.79 12.53-12.79 4.92v2.62l12.79 4.79v-2.63l-2.89-1.02v-4.91l2.9-1.07zm-5.06 4.57v3.35l-4.75-1.66z" fill="url(#a)" filter="url(#c)"/><path d="m82.02 26.63c-4.98 0-8.76 1.5-8.76 5.29 0 7.47 15.99 7.33 15.99 15.06 0 .71-.04 1.04-.09 1.44-.04.39.41.54.56.09.26-.77.44-1.92.44-3.69 0-8.07-12.55-8.23-12.55-13.34 0-2.17 1.93-2.92 4.23-2.92 2.89 0 5.16 1.89 6.46 4 .27.33.57.29.57-.2v-4.38c-1-.43-3.86-1.35-6.85-1.35zm-33.48.67c.71 7.27.54 20.82 0 27.6h6.66c8.45 0 13.52-4.5 13.52-13.94 0-11.3-6-13.66-13.6-13.66zm44.83 0c.71 7.27.54 20.82 0 27.6h6.66c8.45 0 13.52-4.5 13.52-13.94 0-11.3-6-13.66-13.6-13.66zm-36.93 1.97c4.39 0 6.68 3.86 6.68 11.16 0 8.31-2.26 12.54-6.68 12.54-1.64 0-2.16-.78-2.23-2.41-.23-5.37-.23-12.9 0-18.91.07-1.83.81-2.39 2.23-2.39zm44.82 0c4.39 0 6.68 3.86 6.68 11.16 0 8.31-2.26 12.54-6.68 12.54-1.64 0-2.17-.78-2.24-2.41-.23-5.37-.23-12.9 0-18.91.07-1.83.81-2.39 2.24-2.39zm-29.47 3.3c-.13-.01-.27.1-.33.32-.06.21-.21 1.21-.21 1.84 0 8.44 12.17 8.51 12.17 14.39 0 2.68-1.44 4.44-4.54 4.44-2.87 0-5.47-2.39-7.02-5.3-.23-.43-.53-.42-.53.05v5.62c1.48.6 4.02 1.47 8.23 1.47 5.94 0 8.34-2.54 8.33-6.98 0-7.39-15.85-7.1-15.85-15.48 0-.23-.12-.35-.25-.36z" fill="#c8c8c8"/></svg>