<svg viewBox="0 0 126 84" xmlns="http://www.w3.org/2000/svg"><linearGradient id="a" gradientUnits="userSpaceOnUse" spreadMethod="reflect" x1="-54.91" x2="-53.48" y1="20.56" y2="30.1"><stop offset="0" stop-color="#6c6c6c"/><stop offset="1"/></linearGradient><linearGradient id="b" gradientTransform="matrix(0 -.2 .21 0 -21.79 93.04)" gradientUnits="userSpaceOnUse" x1="67.11" x2="67.11" y1="259.37" y2="735.14"><stop offset="0" stop-color="#7e00ff"/><stop offset=".04077475" stop-color="#2000ff"/><stop offset=".09936851" stop-color="#008eff" stop-opacity=".99"/><stop offset=".15405601" stop-color="#00ff84"/><stop offset=".19702476" stop-color="#1aff00" stop-opacity=".97"/><stop offset=".27905601" stop-color="#b1ff00"/><stop offset=".41968101" stop-color="#ff5000"/><stop offset=".54077476" stop-color="#ff001f"/><stop offset=".64624351" stop-color="#ff007a"/><stop offset=".75952476" stop-color="#0007ff" stop-opacity=".99"/><stop offset=".88061851" stop-color="#0068ff"/><stop offset="1" stop-opacity=".99"/></linearGradient><filter id="c" color-interpolation-filters="sRGB" height="1" width="1" x="0" y="0"><feGaussianBlur stdDeviation=".0019150635"/></filter><linearGradient id="d" gradientTransform="matrix(.99 0 0 .95 .36 1.93)" gradientUnits="userSpaceOnUse" spreadMethod="reflect" x1="3.66" x2="21.33" y1="42.02" y2="39.08"><stop offset="0" stop-color="#d4bd00"/><stop offset="1" stop-color="#fff17d"/></linearGradient><rect fill="#121212" height="75.14" ry="6.44" stroke="#121212" stroke-linecap="round" stroke-linejoin="round" stroke-width=".68" width="94.98" x="26.67" y="4.42"/><path d="m38.19 32.96-1.82 42.96-2.4-15.4-1.54 15.4-1.92-27.06-1.85 27.06c-.31-1.47-.92-3.96-.92-3.96l.03 7.44 87.06.02s1.46.15 3.08-.67 2.66-2.57 2.66-2.57l-65.97-.25-2.01-3.97-1.73 3.97-1.73-12.82-1.54 12.82-2.2-22.68-2.02 22.68-1.44-32.55-1.82 32.55z" fill="url(#b)" stroke-width=".97"/><path d="m34.12 4.56c-5.36 0-12.01-.05-15.75-.07-13.94-.08-13.96-.08-13.85 15.96.08 13.76-.13 27.73.05 41.18-.08 17.95-.12 17.9 15.26 17.89 3.36 0 9.58-.11 14.28-.11h.06v-74.85z" fill="url(#d)" stroke="#121212" stroke-width=".97"/><g fill="url(#a)" filter="url(#c)" stroke-width="0" transform="matrix(0 -.95 .99 0 1.85 -.66)"><path d="m-63.43 25.87h-2.83l-1.13-2.93h-5.15l-1.06 2.93h-2.76l5.02-12.88h2.75zm-4.79-5.1-1.78-4.78-1.74 4.78z"/><path d="m-60.57 12.98h2.6v6.98q0 1.66.1 2.15.17.79.79 1.27.63.47 1.72.47 1.11 0 1.67-.45.56-.46.68-1.12.11-.66.11-2.19v-7.13h2.6v6.77q0 2.32-.21 3.28-.21.96-.78 1.62-.56.66-1.51 1.05-.95.39-2.48.39-1.85 0-2.8-.42-.95-.43-1.5-1.11-.55-.69-.73-1.43-.25-1.11-.25-3.27z"/><path d="m-46.06 12.98h4.75q1.61 0 2.45.25 1.13.33 1.94 1.19.81.85 1.23 2.09.42 1.23.42 3.04 0 1.59-.4 2.74-.48 1.41-1.38 2.28-.68.66-1.83 1.03-.86.27-2.3.27h-4.9zm2.6 2.18v8.53h1.94q1.09 0 1.57-.12.63-.16 1.05-.54.42-.38.69-1.24.26-.87.26-2.36 0-1.49-.26-2.29-.26-.8-.74-1.25-.47-.45-1.2-.61-.54-.12-2.14-.12z"/><path d="m-31.63 25.87v-12.89h2.6v12.88z"/><path d="m-25.58 19.51q0-1.97.59-3.3.44-.98 1.2-1.77.76-.78 1.67-1.16 1.2-.51 2.78-.51 2.85 0 4.55 1.77 1.71 1.77 1.71 4.91 0 3.12-1.7 4.89-1.7 1.76-4.54 1.76-2.87 0-4.57-1.75-1.7-1.76-1.7-4.83zm2.68-.09q0 2.19 1.01 3.32 1.01 1.13 2.57 1.13 1.56 0 2.55-1.12 1-1.13 1-3.37 0-2.21-.98-3.3-.97-1.09-2.58-1.09-1.61 0-2.59 1.11-.98 1.1-.98 3.32z"/></g><path d="m80.98 27.67.13.16c.07.09 1.07 1.29 2.22 2.68l2.09 2.52.99.3c4.8 1.43 11.35 2.14 17.12 1.85 1.51-.08 2.49-.16 3.86-.33.96-.12 2.77-.41 3.05-.49.09-.03 5.35-6.26 5.57-6.61.04-.06-1.4-.08-7.11-.08h-7.16l-1.58 1.9c-.87 1.05-1.61 1.9-1.65 1.88-.04-.01-.78-.87-1.64-1.91l-1.57-1.89h-7.16zm-21.79 2.27-6.28.1v5.65.3c-2.57-.4-4.06-.2-4.06-.2-3.28.2-5.49 2.48-5.42 5.35.07 2.97 2.71 5.15 5.85 5.15 0 0 1.43.1 4.42 0 0 0 2.43-.1 5.49-.1v-8.42h3.07v4.16s.07 1.19.21 1.68c0 0 .71 2.67 3.99 2.77h.14s5.21.1 10.2 0h.07 1.85c1-.1 1.64-.4 1.64-.4 1-.3 1.78-1.38 1.78-2.47 0-.79-.29-1.39-.71-1.88l-2.21-2.28h-.07c-.14-.2-.21-.4-.21-.69 0-.5.36-.79.79-.89.64-.1 2.07 0 2.07 0h.14l.07-1.39c-5.56-1.39-8.56-.2-9.13.2h-.07c-.64.4-1.07 1.09-1.07 1.98 0 .4.07.79.29 1.09v.1c.14.1.36.5.85.99l1.64 1.58v.1c.21.2.43.59.43.99 0 .49-.29.99-.79 1.19 0 0-.29.2-1.42.2h-1.5-.79c-.85-.1-1.28-.5-1.28-.5-.64-.59-.71-1.39-.71-1.39-.07-.4-.07-1.88-.07-2.08v-3.07h2.21v-1.68h-2.21v-4.85l-6.13 2.87v1.98h-3.07zm50.25 5.63c-.02 0-.05 0-.08.01-.21.07-2.75.54-3.69.68-1.11.16-3.01.36-4.46.47-1.62.12-6.25.1-7.9-.03-1.85-.15-3.87-.41-5.17-.67l-.23-.05.42.51c.78.94.63.85 1.66 1.06 2.34.48 5.09.81 8.4 1 .84.05 5.73-.02 6.62-.09.51-.04 1.23-.11 1.61-.15l.68-.07 1.08-1.29c.59-.71 1.08-1.32 1.09-1.35 0-.02-.01-.02-.03-.03zm-57.2 1.95c.37 0 .68.04.68.04v7.03s-.78.2-1.35.1c0 0-.93-.1-1.43-.79 0 0-.78-.89-.86-2.67v-.2c.07-1.58.78-2.57.78-2.57.57-.79 1.5-.89 1.5-.89.21-.04.46-.05.68-.04zm53.92 2.07c-.01-.01-.4.04-.87.11-4 .56-8.93.67-12.89.28-1.29-.12-1.26-.12-1.16.03.07.1.03.18-.3.57-.21.24-.38.45-.37.45.01.01.57.1 1.25.21 1.97.32 3.98.53 6.11.65 1.52.09 6.11.03 7.62-.09.72-.06 1.35-.12 1.4-.14.1-.03.06-.08-.77-1.09l-.4-.49.21-.24c.12-.13.2-.25.2-.25zm1.62 3.11c-.14 0-.4.04-.89.12-5.17.88-11.45.99-16.46.29-.49-.07-1.02-.14-1.17-.16l-.28-.04-.39.48-.39.48.6.15c2.38.57 5.87 1.06 8.87 1.24 1.36.08 5.18.08 6.54.01 1.7-.1 5.19-.49 5.3-.59.02-.02-1.4-1.76-1.57-1.91-.03-.03-.07-.04-.16-.04zm2.49 2.83-.49.12c-.79.19-2.75.55-3.75.7-2.73.39-4.5.53-7.52.57-4.2.06-7.31-.2-10.59-.87-.62-.13-1.18-.23-1.24-.24-.07 0-1.06 1.13-2.53 2.9-1.33 1.6-2.58 3.09-2.76 3.31l-.34.4h7.09 7.09l1.61-1.95c.89-1.07 1.64-1.96 1.68-1.97s.81.87 1.71 1.95l1.64 1.97h7.06c6.83 0 7.06 0 6.97-.12-.05-.07-1.34-1.62-2.86-3.45z" fill="#c9c9c9" stroke-width=".07"/></svg>