<svg viewBox="0 0 126 84" xmlns="http://www.w3.org/2000/svg"><linearGradient id="a" gradientUnits="userSpaceOnUse" spreadMethod="reflect" x1="-54.91" x2="-53.48" y1="20.56" y2="30.1"><stop offset="0" stop-color="#6c6c6c"/><stop offset="1"/></linearGradient><linearGradient id="b" gradientTransform="matrix(0 -.2 .21 0 -21.79 93.04)" gradientUnits="userSpaceOnUse" x1="67.11" x2="67.11" y1="259.37" y2="735.14"><stop offset="0" stop-color="#7e00ff"/><stop offset=".04077475" stop-color="#2000ff"/><stop offset=".09936851" stop-color="#008eff" stop-opacity=".99"/><stop offset=".15405601" stop-color="#00ff84"/><stop offset=".19702476" stop-color="#1aff00" stop-opacity=".97"/><stop offset=".27905601" stop-color="#b1ff00"/><stop offset=".41968101" stop-color="#ff5000"/><stop offset=".54077476" stop-color="#ff001f"/><stop offset=".64624351" stop-color="#ff007a"/><stop offset=".75952476" stop-color="#0007ff" stop-opacity=".99"/><stop offset=".88061851" stop-color="#0068ff"/><stop offset="1" stop-opacity=".99"/></linearGradient><filter id="c" color-interpolation-filters="sRGB" height="1" width="1" x="0" y="0"><feGaussianBlur stdDeviation=".0019150635"/></filter><linearGradient id="d" gradientTransform="matrix(.99 0 0 .95 .36 1.93)" gradientUnits="userSpaceOnUse" spreadMethod="reflect" x1="3.66" x2="21.33" y1="42.02" y2="39.08"><stop offset="0" stop-color="#d4bd00"/><stop offset="1" stop-color="#fff17d"/></linearGradient><rect fill="#121212" height="75.14" ry="6.44" stroke="#121212" stroke-linecap="round" stroke-linejoin="round" stroke-width=".68" width="94.98" x="26.67" y="4.42"/><path d="m38.19 32.96-1.82 42.96-2.4-15.4-1.54 15.4-1.92-27.06-1.85 27.06c-.31-1.47-.92-3.96-.92-3.96l.03 7.44 87.06.02s1.46.15 3.08-.67 2.66-2.57 2.66-2.57l-65.97-.25-2.01-3.97-1.73 3.97-1.73-12.82-1.54 12.82-2.2-22.68-2.02 22.68-1.44-32.55-1.82 32.55z" fill="url(#b)" stroke-width=".97"/><path d="m34.12 4.56c-5.36 0-12.01-.05-15.75-.07-13.94-.08-13.96-.08-13.85 15.96.08 13.76-.13 27.73.05 41.18-.08 17.95-.12 17.9 15.26 17.89 3.36 0 9.58-.11 14.28-.11h.06v-74.85z" fill="url(#d)" stroke="#121212" stroke-width=".97"/><g fill="url(#a)" filter="url(#c)" stroke-width="0" transform="matrix(0 -.95 .99 0 1.85 -.66)"><path d="m-63.43 25.87h-2.83l-1.13-2.93h-5.15l-1.06 2.93h-2.76l5.02-12.88h2.75zm-4.79-5.1-1.78-4.78-1.74 4.78z"/><path d="m-60.57 12.98h2.6v6.98q0 1.66.1 2.15.17.79.79 1.27.63.47 1.72.47 1.11 0 1.67-.45.56-.46.68-1.12.11-.66.11-2.19v-7.13h2.6v6.77q0 2.32-.21 3.28-.21.96-.78 1.62-.56.66-1.51 1.05-.95.39-2.48.39-1.85 0-2.8-.42-.95-.43-1.5-1.11-.55-.69-.73-1.43-.25-1.11-.25-3.27z"/><path d="m-46.06 12.98h4.75q1.61 0 2.45.25 1.13.33 1.94 1.19.81.85 1.23 2.09.42 1.23.42 3.04 0 1.59-.4 2.74-.48 1.41-1.38 2.28-.68.66-1.83 1.03-.86.27-2.3.27h-4.9zm2.6 2.18v8.53h1.94q1.09 0 1.57-.12.63-.16 1.05-.54.42-.38.69-1.24.26-.87.26-2.36 0-1.49-.26-2.29-.26-.8-.74-1.25-.47-.45-1.2-.61-.54-.12-2.14-.12z"/><path d="m-31.63 25.87v-12.89h2.6v12.88z"/><path d="m-25.58 19.51q0-1.97.59-3.3.44-.98 1.2-1.77.76-.78 1.67-1.16 1.2-.51 2.78-.51 2.85 0 4.55 1.77 1.71 1.77 1.71 4.91 0 3.12-1.7 4.89-1.7 1.76-4.54 1.76-2.87 0-4.57-1.75-1.7-1.76-1.7-4.83zm2.68-.09q0 2.19 1.01 3.32 1.01 1.13 2.57 1.13 1.56 0 2.55-1.12 1-1.13 1-3.37 0-2.21-.98-3.3-.97-1.09-2.58-1.09-1.61 0-2.59 1.11-.98 1.1-.98 3.32z"/></g><g fill="#c9c9c9" transform="matrix(.99 0 0 .95 .36 1.93)"><path d="m57.52 40.49c-3.61 0-6.42.06-6.42.06-3.49.09-5.21.05-5.21.05-3.66 0-6.73-2.49-6.81-5.85-.08-3.17 2.47-5.75 6.36-5.96 0 0 1.72-.17 4.69.23l-.01-.34v-6.35l7.38-.02v6.84h3.61v-2.26l7.17-3.15v5.41h2.59l-.02 1.89c-1.39-.05-2.56-.05-2.56-.05v3.52c0 .18-.01 1.84.06 2.25 0 0 .1.97.88 1.61 0 0 .45.42 1.45.5 0 0 .33.04.95.03h1.7.06c1.27 0 1.66-.24 1.66-.24.54-.26.87-.78.87-1.36 0-.44-.19-.82-.49-1.12l-.01-.01-1.86-1.78c-.58-.55-.89-.99-1.01-1.19l-.01-.02c-.23-.38-.37-.83-.37-1.31 0-.94.52-1.76 1.28-2.2l.05-.03c.69-.43 4.24-1.7 10.67-.22l-.06 1.63-.13-.01s-1.72-.16-2.4-.03h-.01c-.53.09-.94.5-.94 1.04 0 .26.11.55.28.72l.04.05 2.58 2.52.02.02c.52.53.85 1.25.85 2.05 0 1.27-.95 2.44-2.09 2.83 0 0-.73.29-1.93.36 0 0-.56.05-2.18.07h-.09c-5.85.08-11.92-.03-11.92-.03h-.15c-3.89-.13-4.67-3.04-4.67-3.04-.22-.54-.24-1.89-.24-1.89l.01-4.72h-3.62zm-11.57-5.6c.04 1.97.93 3 .93 3 .6.81 1.73.9 1.73.9.64.08 1.52-.06 1.52-.06l.01-7.89s-.86-.1-1.53-.02c0 0-1.11.05-1.78.98 0 0-.86 1.09-.87 2.92z" stroke-width=".08"/><path d="m105.43 28.76v11.84h5.57s.96-.01 1.72-.07c0 0 1.01-.06 1.84-.33 0 0 1.39-.41 2.2-1.4 0 0 .8-.91 1.09-2.17 0 0 .22-.86.22-1.88v-.12c0-1.02-.22-1.89-.22-1.89-.29-1.26-1.09-2.17-1.09-2.17-.81-.99-2.2-1.4-2.2-1.4-.82-.27-1.84-.34-1.84-.34-.75-.06-1.72-.07-1.72-.07zm-14.26 0v4.77h-5.97v1.88h5.97v5.18h4.96v-5.18h2.2v5.18h4.96l-.01-11.83h-4.95v4.77h-2.2v-4.77zm19.22 1.93h.4s.46 0 .69.05c0 0 .33.04.59.25 0 0 .27.18.44.57 0 0 .25.52.34 1.7 0 0 .05.51.05 1.37v.08c0 .86-.05 1.37-.05 1.37-.09 1.18-.34 1.7-.34 1.7-.18.39-.44.58-.44.58-.27.21-.59.25-.59.25-.23.05-.69.05-.69.05h-.4z" stroke-width=".08"/><path d="m44.72 45.41v6.71h.79v-3.14h2.26v3.14h.79v-6.71h-.79v2.93h-2.26v-2.93zm11.2 0v6.71h.73v-2.84c0-.77.22-1.38.94-1.38.73 0 .72.69.72 1.23v2.99h.73v-3.31c0-.84-.28-1.47-1.23-1.47-.54 0-.89.24-1.18.64v-2.57zm6.41 0v6.71h.79v-3.13h.79c1.11 0 1.04.42 1.1 1.56.02.28.04.59.04.88 0 .27.03.47.07.7h.82c-.02-.15-.05-.29-.06-.43-.01-.21-.04-.52-.05-.82-.02-.43-.02-.81-.05-1.12-.05-.6-.2-1-.93-1.06.84-.22 1.06-.8 1.06-1.62 0-1.27-.62-1.65-1.78-1.65zm16.09 0v6.7h.73v-6.7zm22.32 0-1.97 6.71h.79l.47-1.7h2.33l.47 1.7h.82l-1.94-6.71zm10.02 0v2.47c-.23-.36-.52-.55-1.06-.55-1.24 0-1.43 1.22-1.43 2.38 0 1.14.1 2.49 1.45 2.49.51 0 .82-.19 1.09-.62l.01.54h.71c-.01-.22-.04-.66-.04-.88v-5.83zm-60.96.09v.8h.81v-.8zm37.25 0v.8h.81v-.8zm25.57 0v.8h.81v-.8zm-49.5.54h.89c.73 0 1.08.26 1.08 1.06 0 1.01-.34 1.26-1.32 1.26h-.66zm38.09.11.97 3.65h-1.95zm-15.67.1-.73.33v.86h-.7v.54h.7v3.02c0 .82.18 1.16 1.06 1.16.17 0 .36-.02.54-.05v-.58c-.12.02-.23.04-.33.04-.4 0-.53-.13-.53-.66v-2.94h.83v-.54h-.83zm-32.59 1.09c-1.27 0-1.42 1.3-1.42 2.49 0 1.04.1 2.24 1.41 2.24.48 0 .8-.15 1.09-.55v.64c0 .75-.1 1.3-.88 1.3-.56 0-.72-.35-.72-.85h-.78c.01.95.51 1.35 1.47 1.35 1.16 0 1.67-.48 1.67-1.63v-4.11c0-.26.03-.53.03-.78h-.73v.55c-.24-.46-.56-.65-1.12-.65zm22.92 0c-1.49 0-1.67 1.13-1.67 2.48 0 1.44.15 2.4 1.61 2.4 1.41 0 1.64-.93 1.64-2.47 0-1.42-.11-2.41-1.59-2.41zm14.58 0c-1.49 0-1.67 1.13-1.67 2.48 0 1.44.15 2.4 1.62 2.4 1.41 0 1.64-.93 1.64-2.47 0-1.42-.11-2.41-1.59-2.41zm25.56 0c-1.49 0-1.67 1.13-1.67 2.48 0 1.44.15 2.4 1.61 2.4 1.41 0 1.64-.93 1.64-2.47 0-1.42-.11-2.41-1.59-2.41zm-47.57 0c-1.6 0-1.66 1.37-1.66 2.62 0 1.23.18 2.26 1.61 2.26 1.14 0 1.53-.61 1.57-1.57h-.73c-.02.55-.15 1.03-.84 1.03-.79 0-.85-.71-.85-1.48v-.32h2.45v-.21c0-1.13-.04-2.33-1.54-2.33zm26.46 0c-.6 0-1.01.35-1.22.74v-.64h-.72c.03.34.04.68.04 1.02v3.65h.73v-2.81c0-.63.26-1.41.94-1.41.73 0 .72.67.72 1.23v2.99h.73v-3.32c0-.88-.3-1.46-1.23-1.46zm-22.78 0c-.79 0-1.39.38-1.39 1.21 0 .81.55 1.04 1.18 1.38.54.29.85.46.85 1.02 0 .45-.24.72-.7.72-.48 0-.65-.29-.69-.73-.01-.07-.01-.18-.01-.26h-.73c0 .12 0 .24.01.32.07.8.53 1.2 1.4 1.2.9 0 1.47-.44 1.47-1.37 0-.79-.53-1.08-1.11-1.4-.53-.29-.93-.48-.93-.95 0-.38.24-.64.62-.64.44 0 .59.24.64.58.01.09.02.19.02.3h.73c0-.13-.01-.26-.03-.37-.11-.71-.52-1.01-1.33-1.01zm10.57.1v2.84c0 .63-.13 1.36-.92 1.36-.73 0-.74-.67-.74-1.22v-2.99h-.73v3.31c0 .86.33 1.45 1.25 1.45.53 0 .91-.24 1.18-.68l.01.59h.73c-.03-.34-.04-.67-.04-1.03v-3.65zm23.87 0v2.84c0 .63-.13 1.36-.92 1.36-.73 0-.74-.67-.74-1.22v-2.99h-.73v3.31c0 .86.34 1.45 1.25 1.45.53 0 .91-.24 1.18-.68l.01.59h.73c-.03-.34-.04-.67-.04-1.03v-3.65zm-56.73 0v4.68h.73v-4.68zm37.25 0v4.68h.73v-4.68zm25.56 0v4.68h.73v-4.68zm-44.2.43c.56 0 .74.44.79.92.02.2.02.4.02.59h-1.71c0-.21.02-.41.04-.61.07-.52.28-.91.86-.91zm7.41 0c.88 0 .84.96.84 1.67v.72c0 .64-.05 1.43-.87 1.43-.86 0-.87-.83-.87-1.46v-.67c0-.65-.03-1.69.9-1.69zm14.58 0c.88 0 .84.96.84 1.67v.72c0 .64-.05 1.43-.87 1.43-.86 0-.87-.83-.87-1.46v-.67c0-.65-.03-1.69.9-1.69zm25.56 0c.88 0 .84.96.84 1.67v.72c0 .64-.05 1.43-.87 1.43-.86 0-.87-.83-.87-1.46v-.67c0-.65-.03-1.69.9-1.69zm-6.11.01c.82 0 .89.91.89 1.95 0 .87-.04 1.83-.92 1.83-.73 0-.84-.89-.84-1.92 0-.84.04-1.86.87-1.86zm-56.74.01c.85 0 .89.97.89 1.75 0 .7.03 1.92-.94 1.92-.81 0-.82-.96-.82-1.73 0-.84.01-1.94.87-1.94z" stroke-width=".07"/></g></svg>