<svg viewBox="0 0 126 84" xmlns="http://www.w3.org/2000/svg"><linearGradient id="a" gradientUnits="userSpaceOnUse" spreadMethod="reflect" x1="-54.91" x2="-53.48" y1="20.56" y2="30.1"><stop offset="0" stop-color="#6c6c6c"/><stop offset="1"/></linearGradient><linearGradient id="b" gradientTransform="matrix(0 -.2 .21 0 -21.79 93.04)" gradientUnits="userSpaceOnUse" x1="67.11" x2="67.11" y1="259.37" y2="735.14"><stop offset="0" stop-color="#7e00ff"/><stop offset=".04077475" stop-color="#2000ff"/><stop offset=".09936851" stop-color="#008eff" stop-opacity=".99"/><stop offset=".15405601" stop-color="#00ff84"/><stop offset=".19702476" stop-color="#1aff00" stop-opacity=".97"/><stop offset=".27905601" stop-color="#b1ff00"/><stop offset=".41968101" stop-color="#ff5000"/><stop offset=".54077476" stop-color="#ff001f"/><stop offset=".64624351" stop-color="#ff007a"/><stop offset=".75952476" stop-color="#0007ff" stop-opacity=".99"/><stop offset=".88061851" stop-color="#0068ff"/><stop offset="1" stop-opacity=".99"/></linearGradient><filter id="c" color-interpolation-filters="sRGB" height="1" width="1" x="0" y="0"><feGaussianBlur stdDeviation=".0019150635"/></filter><linearGradient id="d" gradientTransform="matrix(.99 0 0 .95 .36 1.93)" gradientUnits="userSpaceOnUse" spreadMethod="reflect" x1="3.66" x2="21.33" y1="42.02" y2="39.08"><stop offset="0" stop-color="#d4bd00"/><stop offset="1" stop-color="#fff17d"/></linearGradient><rect fill="#121212" height="75.14" ry="6.44" stroke="#121212" stroke-linecap="round" stroke-linejoin="round" stroke-width=".68" width="94.98" x="26.67" y="4.42"/><path d="m38.19 32.96-1.82 42.96-2.4-15.4-1.54 15.4-1.92-27.06-1.85 27.06c-.31-1.47-.92-3.96-.92-3.96l.03 7.44 87.06.02s1.46.15 3.08-.67 2.66-2.57 2.66-2.57l-65.97-.25-2.01-3.97-1.73 3.97-1.73-12.82-1.54 12.82-2.2-22.68-2.02 22.68-1.44-32.55-1.82 32.55z" fill="url(#b)" stroke-width=".97"/><path d="m34.12 4.56c-5.36 0-12.01-.05-15.75-.07-13.94-.08-13.96-.08-13.85 15.96.08 13.76-.13 27.73.05 41.18-.08 17.95-.12 17.9 15.26 17.89 3.36 0 9.58-.11 14.28-.11h.06v-74.85z" fill="url(#d)" stroke="#121212" stroke-width=".97"/><g fill="url(#a)" filter="url(#c)" stroke-width="0" transform="matrix(0 -.95 .99 0 1.85 -.66)"><path d="m-63.43 25.87h-2.83l-1.13-2.93h-5.15l-1.06 2.93h-2.76l5.02-12.88h2.75zm-4.79-5.1-1.78-4.78-1.74 4.78z"/><path d="m-60.57 12.98h2.6v6.98q0 1.66.1 2.15.17.79.79 1.27.63.47 1.72.47 1.11 0 1.67-.45.56-.46.68-1.12.11-.66.11-2.19v-7.13h2.6v6.77q0 2.32-.21 3.28-.21.96-.78 1.62-.56.66-1.51 1.05-.95.39-2.48.39-1.85 0-2.8-.42-.95-.43-1.5-1.11-.55-.69-.73-1.43-.25-1.11-.25-3.27z"/><path d="m-46.06 12.98h4.75q1.61 0 2.45.25 1.13.33 1.94 1.19.81.85 1.23 2.09.42 1.23.42 3.04 0 1.59-.4 2.74-.48 1.41-1.38 2.28-.68.66-1.83 1.03-.86.27-2.3.27h-4.9zm2.6 2.18v8.53h1.94q1.09 0 1.57-.12.63-.16 1.05-.54.42-.38.69-1.24.26-.87.26-2.36 0-1.49-.26-2.29-.26-.8-.74-1.25-.47-.45-1.2-.61-.54-.12-2.14-.12z"/><path d="m-31.63 25.87v-12.89h2.6v12.88z"/><path d="m-25.58 19.51q0-1.97.59-3.3.44-.98 1.2-1.77.76-.78 1.67-1.16 1.2-.51 2.78-.51 2.85 0 4.55 1.77 1.71 1.77 1.71 4.91 0 3.12-1.7 4.89-1.7 1.76-4.54 1.76-2.87 0-4.57-1.75-1.7-1.76-1.7-4.83zm2.68-.09q0 2.19 1.01 3.32 1.01 1.13 2.57 1.13 1.56 0 2.55-1.12 1-1.13 1-3.37 0-2.21-.98-3.3-.97-1.09-2.58-1.09-1.61 0-2.59 1.11-.98 1.1-.98 3.32z"/></g><g fill="#c9c9c9" transform="matrix(.99 0 0 .95 .36 1.93)"><path d="m93.2 40.01c-1.9.26-3.91.29-5.78.94-3.54 1-6.95 3.46-8.15 7.05-1.55 4.9-.17 10.3 2.48 14.51 2.41 3.9 5.85 7.3 9.48 10.06h5.79c-3.6-2.74-7.02-6.02-9.54-9.8-2.57-3.85-4.05-8.76-2.53-13.31 1.23-3.75 5.19-5.74 8.86-6.33 4.73-.63 9.53-.04 14.13 1.19 2.93.78 5.94 1.76 8.74 2.91 0-1.05 0-1.99 0-1.99s-1.52-.62-2.24-.9c-5.66-2.11-11.57-3.7-17.61-4.18-1.23.09-2.39-.48-3.62-.16zm7.82 6.8c-3.7.15-7.74 1.66-9.59 5.05-1.6 3.22-.96 7.15.63 10.26 2.18 4.27 5.88 7.67 9.72 10.44 1.12.01 3.65-.02 4.27 0-3.24-2.23-6.51-5.23-8.71-8.53-1.78-2.71-2.73-6.28-1.19-9.33 1.12-2.72 3.91-4.4 6.72-4.83 3.79-.65 7.64-.04 11.3.87.77.23 2.52.64 2.52.64v-1.76s-2.43-.85-3.52-1.17c-3.95-1.13-8.02-1.89-12.15-1.65zm7.84 5.86c-3.39.08-7.2 2.03-7.93 5.59-.53 3.16 1.24 6.09 3.16 8.43 1.93 2.3 4.33 4.29 6.87 5.88h5.79l.01-18.91c-2.52-.81-5.26-1.1-7.9-.99z" fill-rule="evenodd"/><g stroke-width=".2"><path d="m40.63 28.66v-13.85h1.83v5.69h7.2v-5.69h1.83v13.85h-1.82v-6.53h-7.2v6.53z"/><path d="m55.81 28.66v-13.85h10.02v1.64h-8.18v4.24h7.66v1.62h-7.67v4.72h8.51v1.64z"/><path d="m69.02 24.5v-1.71h5.23v1.71z"/><path d="m76.05 28.66 5.32-13.86h1.98l5.67 13.86h-2.09l-1.62-4.19h-5.79l-1.52 4.2zm4-5.69h4.7l-1.45-3.84q-.66-1.75-.98-2.87-.26 1.33-.75 2.65z"/><path d="m90.18 28.66 5.32-13.85h1.98l5.67 13.86h-2.09l-1.61-4.2h-5.79l-1.52 4.2zm4-5.69h4.7l-1.45-3.84q-.66-1.75-.98-2.87-.26 1.33-.75 2.65z"/><path d="m114.52 23.8 1.83.46q-.58 2.26-2.08 3.45-1.49 1.18-3.66 1.18-2.24 0-3.65-.91-1.4-.92-2.14-2.65-.73-1.73-.73-3.71 0-2.16.82-3.77.83-1.62 2.35-2.45 1.53-.84 3.36-.84 2.08 0 3.5 1.06 1.42 1.06 1.98 2.98l-1.81.43q-.48-1.51-1.4-2.2-.92-.69-2.31-.69-1.6 0-2.67.77-1.07.77-1.5 2.06-.43 1.29-.43 2.66 0 1.77.51 3.09.52 1.31 1.61 1.97 1.09.65 2.35.65 1.54 0 2.61-.89 1.07-.89 1.45-2.64z"/></g></g></svg>