<svg viewBox="0 0 126 84" xmlns="http://www.w3.org/2000/svg"><linearGradient id="a" gradientUnits="userSpaceOnUse" spreadMethod="reflect" x1="-54.91" x2="-53.48" y1="20.56" y2="30.1"><stop offset="0" stop-color="#6c6c6c"/><stop offset="1"/></linearGradient><linearGradient id="b" gradientTransform="matrix(0 -.2 .21 0 -21.79 93.04)" gradientUnits="userSpaceOnUse" x1="67.11" x2="67.11" y1="259.37" y2="735.14"><stop offset="0" stop-color="#7e00ff"/><stop offset=".04077475" stop-color="#2000ff"/><stop offset=".09936851" stop-color="#008eff" stop-opacity=".99"/><stop offset=".15405601" stop-color="#00ff84"/><stop offset=".19702476" stop-color="#1aff00" stop-opacity=".97"/><stop offset=".27905601" stop-color="#b1ff00"/><stop offset=".41968101" stop-color="#ff5000"/><stop offset=".54077476" stop-color="#ff001f"/><stop offset=".64624351" stop-color="#ff007a"/><stop offset=".75952476" stop-color="#0007ff" stop-opacity=".99"/><stop offset=".88061851" stop-color="#0068ff"/><stop offset="1" stop-opacity=".99"/></linearGradient><filter id="c" color-interpolation-filters="sRGB" height="1" width="1" x="0" y="0"><feGaussianBlur stdDeviation=".0019150635"/></filter><linearGradient id="d" gradientTransform="matrix(.99 0 0 .95 .36 1.93)" gradientUnits="userSpaceOnUse" spreadMethod="reflect" x1="3.66" x2="21.33" y1="42.02" y2="39.08"><stop offset="0" stop-color="#d4bd00"/><stop offset="1" stop-color="#fff17d"/></linearGradient><rect fill="#121212" height="75.14" ry="6.44" stroke="#121212" stroke-linecap="round" stroke-linejoin="round" stroke-width=".68" width="94.98" x="26.67" y="4.42"/><path d="m38.19 32.96-1.82 42.96-2.4-15.4-1.54 15.4-1.92-27.06-1.85 27.06c-.31-1.47-.92-3.96-.92-3.96l.03 7.44 87.06.02s1.46.15 3.08-.67 2.66-2.57 2.66-2.57l-65.97-.25-2.01-3.97-1.73 3.97-1.73-12.82-1.54 12.82-2.2-22.68-2.02 22.68-1.44-32.55-1.82 32.55z" fill="url(#b)" stroke-width=".97"/><path d="m34.12 4.56c-5.36 0-12.01-.05-15.75-.07-13.94-.08-13.96-.08-13.85 15.96.08 13.76-.13 27.73.05 41.18-.08 17.95-.12 17.9 15.26 17.89 3.36 0 9.58-.11 14.28-.11h.06v-74.85z" fill="url(#d)" stroke="#121212" stroke-width=".97"/><g fill="url(#a)" filter="url(#c)" stroke-width="0" transform="matrix(0 -.95 .99 0 1.85 -.66)"><path d="m-63.43 25.87h-2.83l-1.13-2.93h-5.15l-1.06 2.93h-2.76l5.02-12.88h2.75zm-4.79-5.1-1.78-4.78-1.74 4.78z"/><path d="m-60.57 12.98h2.6v6.98q0 1.66.1 2.15.17.79.79 1.27.63.47 1.72.47 1.11 0 1.67-.45.56-.46.68-1.12.11-.66.11-2.19v-7.13h2.6v6.77q0 2.32-.21 3.28-.21.96-.78 1.62-.56.66-1.51 1.05-.95.39-2.48.39-1.85 0-2.8-.42-.95-.43-1.5-1.11-.55-.69-.73-1.43-.25-1.11-.25-3.27z"/><path d="m-46.06 12.98h4.75q1.61 0 2.45.25 1.13.33 1.94 1.19.81.85 1.23 2.09.42 1.23.42 3.04 0 1.59-.4 2.74-.48 1.41-1.38 2.28-.68.66-1.83 1.03-.86.27-2.3.27h-4.9zm2.6 2.18v8.53h1.94q1.09 0 1.57-.12.63-.16 1.05-.54.42-.38.69-1.24.26-.87.26-2.36 0-1.49-.26-2.29-.26-.8-.74-1.25-.47-.45-1.2-.61-.54-.12-2.14-.12z"/><path d="m-31.63 25.87v-12.89h2.6v12.88z"/><path d="m-25.58 19.51q0-1.97.59-3.3.44-.98 1.2-1.77.76-.78 1.67-1.16 1.2-.51 2.78-.51 2.85 0 4.55 1.77 1.71 1.77 1.71 4.91 0 3.12-1.7 4.89-1.7 1.76-4.54 1.76-2.87 0-4.57-1.75-1.7-1.76-1.7-4.83zm2.68-.09q0 2.19 1.01 3.32 1.01 1.13 2.57 1.13 1.56 0 2.55-1.12 1-1.13 1-3.37 0-2.21-.98-3.3-.97-1.09-2.58-1.09-1.61 0-2.59 1.11-.98 1.1-.98 3.32z"/></g><path d="m59.49 57.46c-.73-.03-1.62-.09-1.97-.14-2.61-.34-5.32-1.46-7.37-3.05-.32-.25-.97-.84-1.45-1.31-2.14-2.13-3.51-4.91-3.86-7.83-.12-.97-.06-3.34.11-4.33.53-3.16 1.93-6.2 3.97-8.65 3.65-4.38 9.7-7.42 15.96-8.02 5.55-.53 10.64 1.54 13.32 5.42.72 1.04 1.55 2.77 1.46 3.05s-.32.16-.46-.24c-.47-1.37-1.45-2.88-2.59-3.96-1.43-1.37-3.69-2.46-5.93-2.88-2.77-.52-5.58-.31-8.83.63-3.7 1.07-6.73 2.77-9.19 5.13-2.62 2.52-4.22 5.47-4.91 9.04-.19 1-.2 3.73 0 4.59.48 2.14 1.46 3.85 3.05 5.32 1.67 1.55 3.84 2.61 6.32 3.09 1.02.2 3.56.28 4.72.15 3.24-.37 5.88-1.55 7.75-3.47 1.01-1.03 1.5-1.86 2.5-4.2.34-.78.94-2.14 1.35-3.03 1.64-3.58 1.63-3.54 1.32-3.83-.15-.14-.22-.16-.54-.12-.62.07-1.15.52-1.58 1.36-.11.22-.92 1.94-1.79 3.81l-1.58 3.41h-2.85c-2.65 0-2.83-.01-2.83-.13 0-.07.79-1.82 1.75-3.89 1.47-3.17 1.75-3.82 1.75-4.1 0-.31-.02-.35-.21-.42-.53-.2-1.21.13-1.7.81-.16.22-1.04 2.02-1.96 4.01-.92 1.98-1.7 3.63-1.73 3.66s-1.3.07-2.82.08c-2.39.02-2.77.01-2.83-.08-.06-.1 1.07-2.6 4.34-9.61l.55-1.19 2.74.02c2.67.02 2.74.02 2.77.17.05.25.13.26.55.08.86-.37 1.69-.52 2.84-.52.89 0 1.15.02 1.6.16.61.19 1.15.5 1.36.81l.15.21.61-.28c2.07-.93 4.43-1.19 5.94-.64.55.2 1.19.77 1.37 1.21.2.5.17 1.29-.07 1.98-.47 1.32-3.52 7.69-4.45 9.28-2.23 3.83-4.73 6.09-8.13 7.38-1.43.54-3.51.95-5.22 1.03-1.69.08-1.99.08-3.28.03zm17.34-4.44c-.03-.04.59-1.44 1.37-3.12 2.7-5.82 3.15-6.78 4.66-10.05l1.52-3.28h2.98 2.98l.02.2c.03.25.05.25.56.02.82-.36 1.53-.49 2.64-.5 2.32-.01 3.68.66 4.11 2.01.68 2.16-1.38 6.11-4.09 7.84-1.56 1-3.01 1.44-4.95 1.53-1.07.05-1.58-.04-2.38-.41-.25-.12-.47-.21-.47-.2-.01.01-.58 1.24-1.28 2.75-.7 1.5-1.33 2.86-1.41 3.01l-.14.27h-3.03c-1.93 0-3.05-.03-3.08-.07zm11.7-7.54c.83-.33 1.87-1.83 2.81-4.04.47-1.09.67-1.9.63-2.52-.02-.39-.06-.52-.17-.6-.53-.37-1.65.34-2.51 1.61-.74 1.09-1.64 3-1.9 4.03-.16.63-.13 1.26.08 1.48.17.18.67.2 1.06.04zm11.57 2.11c-1.02-.13-1.58-.29-2.41-.67-.57-.26-.83-.44-1.28-.86-.31-.29-.55-.57-.54-.61.05-.13 2.87-2.13 3.01-2.12.07 0 .35.08.62.18.43.15.49.2.48.35-.11 1.01-.11 1.31-.02 1.52.23.53 1.04.75 2.03.56.92-.18 1.48-.48 2.23-1.21.96-.93 1.49-1.99 1.43-2.88-.04-.55-.23-.84-.69-1.06-.29-.14-.46-.15-1.63-.15-1.11 0-1.31-.02-1.35-.11-.04-.1.5-1.39.68-1.62.05-.06.34-.09.96-.09 1.02 0 1.53-.1 2.35-.48 1.16-.53 2.25-1.86 2.45-3.03.07-.41.07-.51-.05-.75-.19-.38-.58-.56-1.2-.56-.83 0-1.64.3-2.22.81-.39.35-.59.71-.64 1.19l-.04.36-.68.2c-.38.11-.72.19-.77.17-.11-.04-1.39-2.01-1.39-2.13 0-.11 1.08-.8 1.81-1.15 1.87-.9 4.56-1.37 6.85-1.2 2.51.18 3.88 1.01 3.99 2.43.15 1.81-1.49 3.58-4.12 4.46-.33.11-.64.23-.67.26-.04.03.15.16.41.3 1.52.78 1.96 2.11 1.24 3.69-.54 1.19-1.79 2.35-3.33 3.09-.7.34-2.12.81-2.93.96-1.44.28-3.16.34-4.57.15z" fill="#c9c9c9" stroke-width=".07"/></svg>