<svg viewBox="0 0 126 84" xmlns="http://www.w3.org/2000/svg"><linearGradient id="a" gradientUnits="userSpaceOnUse" spreadMethod="reflect" x1="-54.91" x2="-53.48" y1="20.56" y2="30.1"><stop offset="0" stop-color="#6c6c6c"/><stop offset="1"/></linearGradient><linearGradient id="b" gradientTransform="matrix(0 -.2 .21 0 -21.79 93.04)" gradientUnits="userSpaceOnUse" x1="67.11" x2="67.11" y1="259.37" y2="735.14"><stop offset="0" stop-color="#7e00ff"/><stop offset=".04077475" stop-color="#2000ff"/><stop offset=".09936851" stop-color="#008eff" stop-opacity=".99"/><stop offset=".15405601" stop-color="#00ff84"/><stop offset=".19702476" stop-color="#1aff00" stop-opacity=".97"/><stop offset=".27905601" stop-color="#b1ff00"/><stop offset=".41968101" stop-color="#ff5000"/><stop offset=".54077476" stop-color="#ff001f"/><stop offset=".64624351" stop-color="#ff007a"/><stop offset=".75952476" stop-color="#0007ff" stop-opacity=".99"/><stop offset=".88061851" stop-color="#0068ff"/><stop offset="1" stop-opacity=".99"/></linearGradient><filter id="c" color-interpolation-filters="sRGB" height="1" width="1" x="0" y="0"><feGaussianBlur stdDeviation=".0019150635"/></filter><linearGradient id="d" gradientTransform="matrix(.99 0 0 .95 .36 1.93)" gradientUnits="userSpaceOnUse" spreadMethod="reflect" x1="3.66" x2="21.33" y1="42.02" y2="39.08"><stop offset="0" stop-color="#d4bd00"/><stop offset="1" stop-color="#fff17d"/></linearGradient><rect fill="#121212" height="75.14" ry="6.44" stroke="#121212" stroke-linecap="round" stroke-linejoin="round" stroke-width=".68" width="94.98" x="26.67" y="4.42"/><path d="m38.19 32.96-1.82 42.96-2.4-15.4-1.54 15.4-1.92-27.06-1.85 27.06c-.31-1.47-.92-3.96-.92-3.96l.03 7.44 87.06.02s1.46.15 3.08-.67 2.66-2.57 2.66-2.57l-65.97-.25-2.01-3.97-1.73 3.97-1.73-12.82-1.54 12.82-2.2-22.68-2.02 22.68-1.44-32.55-1.82 32.55z" fill="url(#b)" stroke-width=".97"/><path d="m34.12 4.56c-5.36 0-12.01-.05-15.75-.07-13.94-.08-13.96-.08-13.85 15.96.08 13.76-.13 27.73.05 41.18-.08 17.95-.12 17.9 15.26 17.89 3.36 0 9.58-.11 14.28-.11h.06v-74.85z" fill="url(#d)" stroke="#121212" stroke-width=".97"/><g fill="url(#a)" filter="url(#c)" stroke-width="0" transform="matrix(0 -.95 .99 0 1.85 -.66)"><path d="m-63.43 25.87h-2.83l-1.13-2.93h-5.15l-1.06 2.93h-2.76l5.02-12.88h2.75zm-4.79-5.1-1.78-4.78-1.74 4.78z"/><path d="m-60.57 12.98h2.6v6.98q0 1.66.1 2.15.17.79.79 1.27.63.47 1.72.47 1.11 0 1.67-.45.56-.46.68-1.12.11-.66.11-2.19v-7.13h2.6v6.77q0 2.32-.21 3.28-.21.96-.78 1.62-.56.66-1.51 1.05-.95.39-2.48.39-1.85 0-2.8-.42-.95-.43-1.5-1.11-.55-.69-.73-1.43-.25-1.11-.25-3.27z"/><path d="m-46.06 12.98h4.75q1.61 0 2.45.25 1.13.33 1.94 1.19.81.85 1.23 2.09.42 1.23.42 3.04 0 1.59-.4 2.74-.48 1.41-1.38 2.28-.68.66-1.83 1.03-.86.27-2.3.27h-4.9zm2.6 2.18v8.53h1.94q1.09 0 1.57-.12.63-.16 1.05-.54.42-.38.69-1.24.26-.87.26-2.36 0-1.49-.26-2.29-.26-.8-.74-1.25-.47-.45-1.2-.61-.54-.12-2.14-.12z"/><path d="m-31.63 25.87v-12.89h2.6v12.88z"/><path d="m-25.58 19.51q0-1.97.59-3.3.44-.98 1.2-1.77.76-.78 1.67-1.16 1.2-.51 2.78-.51 2.85 0 4.55 1.77 1.71 1.77 1.71 4.91 0 3.12-1.7 4.89-1.7 1.76-4.54 1.76-2.87 0-4.57-1.75-1.7-1.76-1.7-4.83zm2.68-.09q0 2.19 1.01 3.32 1.01 1.13 2.57 1.13 1.56 0 2.55-1.12 1-1.13 1-3.37 0-2.21-.98-3.3-.97-1.09-2.58-1.09-1.61 0-2.59 1.11-.98 1.1-.98 3.32z"/></g><path d="m84.33 24.12c-4.94.03-10.66 1.19-13.46 5.51-2.68 4.2 0 9.76 4.38 11.7 1.68.48.62-4.35 3.33-2.77 5.71.63 12.33.35 16.68-3.75 2.23-2.03 3.24-6.09.43-8.1-1.75-1.1-5.79-3.38-6.9-1.36-1.12 2.6-1.3 5.68-3.06 7.96-1.54 1.42-4.98 1.8-6.09-.21-.55-3.87 4.27-4.42 6.69-4.17.24-1.94 3.08-5.54-.68-4.8-.44-.01-.88-.02-1.33-.02zm-28 21.22c-3.68-.03-8.48.95-9.77 4.75-1 3.01 2.81 4.37 5.3 4.36 3.93.19 8.91-.28 10.96-4 1.49-2.37-.96-4.72-3.41-4.87-1.01-.18-2.05-.24-3.08-.24zm17.6.03c-3.81-.07-8.8.94-9.95 5-.77 2.55-1.84 5.03-2.45 7.63-.29 2.27 4.33 5.52 4.21 1.55 1.17-3.63 2.23-7.33 3.9-10.78 1.22-2.06 6.91-2.36 5.97.95-.57 2.56-3.97 3.59-6.2 2.4-1.07 1-1.3 2.92.93 2.37 3.77.12 8.68-.74 10.18-4.57 1.13-2.68-2.05-4.37-4.41-4.45-.72-.08-1.45-.11-2.17-.11zm35.88.01c-3.27.15-7.17-.09-9.7 2.29-1.76 3.04 3.42 3.46 5.47 3.42 1.26-.26 5.34.66 2.21 1.47-3.16.41-6.3-.45-9.28-1.27-.72 1.16-2.97 2.03-.34 2.35 4.27 1.1 8.96 1.25 13.21 0 3.02-.28 3.85-4.47.27-4.47-2.24-.52-4.77-.17-6.85-.99 1.89-1.83 6.05-.83 8.64-.33 1.75 1.07 2.6-2.87.14-2.2-1.25-.19-2.52-.28-3.79-.29zm-26.81.09c-.53 2.51-3.33 6.15 0 7.92 3.58 1.46 7.86 1.21 11.44-.16 2.97-1.02 3.89-4.05 4.56-6.69 1.15-1.73-1.35-.87-2.35-1.07-1.61-.21-2.93-.03-2.88 1.96-.36 2.88-2.68 5.84-6.03 4.87-2.78-.91-.43-4.09-.1-5.95.94-1.49-1.37-.69-2.25-.89-.79 0-1.58 0-2.38 0zm-27.26 1.78c3.66-.47 2.69 4.55 0 5.07-2.53 1.22-5.99-.94-3.59-3.52.78-1.16 2.24-1.55 3.59-1.54z" fill="#c9c9c9" stroke-width=".19"/></svg>