<svg viewBox="0 0 126 84" xmlns="http://www.w3.org/2000/svg"><linearGradient id="a" gradientTransform="matrix(.96 0 0 1.27 -2.69 -6.44)" gradientUnits="userSpaceOnUse" spreadMethod="reflect" x1="94.43" x2="93.4" y1="46.89" y2="34.91"><stop offset="0" stop-color="#a8a8a8"/><stop offset="1" stop-color="#fff"/></linearGradient><radialGradient id="b" cx="-32.97" cy="-74.19" gradientTransform="matrix(1 -.02 .03 1.27 2.11 20.34)" gradientUnits="userSpaceOnUse" r="25"><stop offset="0" stop-color="#d4d4d4"/><stop offset="1" stop-color="#777"/></radialGradient><radialGradient id="c" cx="-39.06" cy="-89.44" gradientUnits="userSpaceOnUse" r="10"><stop offset="0" stop-color="#7f7f7f"/><stop offset="1" stop-color="#151515" stop-opacity=".99"/></radialGradient><linearGradient id="d" gradientUnits="userSpaceOnUse" spreadMethod="reflect" x1="-4.84" x2="-27.41" y1="-87.13" y2="-71.68"><stop offset="0" stop-color="#1a1a1a"/><stop offset="1" stop-color="#6e6e6e"/></linearGradient><linearGradient id="e" gradientUnits="userSpaceOnUse" x1="-26.05" x2="-63.69" y1="-68.3" y2="-113.15"><stop offset="0" stop-color="#888"/><stop offset="1" stop-color="#d2d2d2"/></linearGradient><linearGradient id="f" gradientTransform="matrix(.98 0 0 .97 1.04 1.08)" gradientUnits="userSpaceOnUse" spreadMethod="reflect" x1="116.01" x2="109.3" y1="72.41" y2="11.21"><stop offset="0"/><stop offset="1" stop-color="#292929"/></linearGradient><rect fill="url(#f)" height="74.05" ry="5.43" stroke="#000" stroke-width="1.95" width="116.05" x="4.98" y="4.98"/><g transform="matrix(.57 0 0 .57 56.81 91.13)"><path d="m-1.01-86.55a35.6 35.6 0 0 1 -35.6 35.6 35.6 35.6 0 0 1 -35.6-35.6 35.6 35.6 0 0 1 35.6-35.6 35.6 35.6 0 0 1 35.6 35.6z" fill="url(#e)" opacity=".99"/><path d="m-3.61-86.55a33 33 0 0 1 -33 33 33 33 0 0 1 -33-33 33 33 0 0 1 33-33 33 33 0 0 1 33 33z" fill="url(#d)" opacity=".99"/><path d="m-11.26-86.57a25 25 0 0 1 -25 25 25 25 0 0 1 -25-25 25 25 0 0 1 25-25 25 25 0 0 1 25 25z" fill="url(#b)" opacity=".99"/><path d="m-26.72-86.05a10 10 0 0 1 -10 10 10 10 0 0 1 -10-10 10 10 0 0 1 10-10 10 10 0 0 1 10 10z" fill="url(#c)" opacity=".99"/></g><path d="m93.41 29.5c-.82 0-1.63.05-2.43.26-3.44.97-6.21 5.23-6.19 9.93.02 2.01-.08 4.03.09 6.03.46 4.6 3.57 8.34 7.05 8.71 1.97.1 3.95.02 5.92.05 1.69.09 3.44-.18 4.92-1.34 2.47-1.77 4.09-5.38 4.03-9.1-.03-1.86.05-3.73-.08-5.58-.35-3.81-2.48-7.13-5.21-8.37-1.81-.88-3.75-.51-5.63-.59-.81.03-1.63-.01-2.45-.01zm-24.06.02v4.52h3.09v20.45h3.44v-24.96zm29.75 4.54c2.34-.01 4.32 2.86 4.23 5.91-.01 1.58.02 3.16-.02 4.73-.08 2.69-1.78 5.06-3.82 5.24-2.19.09-4.38.02-6.57.04-2.18.25-4.33-1.91-4.64-4.78-.14-1.79-.04-3.59-.07-5.39-.03-2.93 1.84-5.59 4.05-5.74 2.28-.04 4.55-.01 6.83-.02zm1.44 1.61c-.31-.03-.63.05-.91.26-2.72 2.37-5.43 4.77-8.14 7.15-.75.76-1.83 1.23-2.04 2.59-.3 1.72 1.23 3.32 2.42 2.49 3.08-2.71 6.16-5.43 9.25-8.15.93-.57 1.35-2.22.73-3.35-.27-.57-.78-.94-1.3-.99zm-19.92 14.31c-.68.08-1.32.74-1.5 1.63-.29 1.15.29 2.46 1.16 2.78 1.04.46 2.22-.75 2.18-2.17 0-.94-.5-1.81-1.16-2.12-.22-.11-.45-.15-.68-.12z" fill="url(#a)"/></svg>