<svg viewBox="0 0 126 84" xmlns="http://www.w3.org/2000/svg"><linearGradient id="a" gradientTransform="matrix(.92 0 0 1.27 -.51 -7.91)" gradientUnits="userSpaceOnUse" spreadMethod="reflect" x1="91.31" x2="90.28" y1="48.05" y2="36.07"><stop offset="0" stop-color="#a8a8a8"/><stop offset="1" stop-color="#fff"/></linearGradient><radialGradient id="b" cx="-32.97" cy="-74.19" gradientTransform="matrix(1 -.02 .03 1.27 2.11 20.34)" gradientUnits="userSpaceOnUse" r="25"><stop offset="0" stop-color="#d4d4d4"/><stop offset="1" stop-color="#777"/></radialGradient><radialGradient id="c" cx="-39.06" cy="-89.44" gradientUnits="userSpaceOnUse" r="10"><stop offset="0" stop-color="#7f7f7f"/><stop offset="1" stop-color="#151515" stop-opacity=".99"/></radialGradient><linearGradient id="d" gradientUnits="userSpaceOnUse" spreadMethod="reflect" x1="-4.84" x2="-27.41" y1="-87.13" y2="-71.68"><stop offset="0" stop-color="#1a1a1a"/><stop offset="1" stop-color="#6e6e6e"/></linearGradient><linearGradient id="e" gradientUnits="userSpaceOnUse" x1="-26.05" x2="-63.69" y1="-68.3" y2="-113.15"><stop offset="0" stop-color="#888"/><stop offset="1" stop-color="#d2d2d2"/></linearGradient><linearGradient id="f" gradientTransform="matrix(.98 0 0 .97 1.04 1.08)" gradientUnits="userSpaceOnUse" spreadMethod="reflect" x1="116.01" x2="109.3" y1="72.41" y2="11.21"><stop offset="0"/><stop offset="1" stop-color="#292929"/></linearGradient><rect fill="url(#f)" height="74.05" ry="5.43" stroke="#000" stroke-width="1.95" width="116.05" x="4.98" y="4.98"/><g transform="matrix(.57 0 0 .57 56.81 91.22)"><path d="m-1.01-86.55a35.6 35.6 0 0 1 -35.6 35.6 35.6 35.6 0 0 1 -35.6-35.6 35.6 35.6 0 0 1 35.6-35.6 35.6 35.6 0 0 1 35.6 35.6z" fill="url(#e)" opacity=".99"/><path d="m-3.61-86.55a33 33 0 0 1 -33 33 33 33 0 0 1 -33-33 33 33 0 0 1 33-33 33 33 0 0 1 33 33z" fill="url(#d)" opacity=".99"/><path d="m-11.26-86.57a25 25 0 0 1 -25 25 25 25 0 0 1 -25-25 25 25 0 0 1 25-25 25 25 0 0 1 25 25z" fill="url(#b)" opacity=".99"/><path d="m-26.72-86.05a10 10 0 0 1 -10 10 10 10 0 0 1 -10-10 10 10 0 0 1 10-10 10 10 0 0 1 10 10z" fill="url(#c)" opacity=".99"/></g><path d="m97.76 29.5c-.78 0-1.56.05-2.33.26-3.3.97-5.94 5.23-5.93 9.92.02 2.01-.07 4.03.09 6.03.44 4.6 3.42 8.34 6.75 8.71 1.89.1 3.77.02 5.66.05 1.62.09 3.29-.18 4.71-1.34 2.36-1.77 3.91-5.38 3.86-9.09-.03-1.86.05-3.73-.08-5.57-.33-3.81-2.37-7.12-4.99-8.37-1.73-.88-3.59-.51-5.39-.59-.78.03-1.56-.01-2.34-.01zm-32.2.04v4.52h2.96v20.44h3.29v-24.96zm9.16 0v4.52h2.96v20.44h3.29v-24.96zm28.48 4.52c2.24-.01 4.14 2.86 4.05 5.91-.01 1.58.02 3.16-.02 4.73-.08 2.68-1.7 5.06-3.66 5.24-2.09.09-4.19.02-6.28.04-2.08.25-4.14-1.91-4.45-4.78-.13-1.79-.04-3.59-.07-5.39-.03-2.92 1.76-5.59 3.88-5.73 2.18-.04 4.36-.01 6.54-.02zm1.38 1.61c-.3-.03-.61.05-.87.26-2.6 2.37-5.19 4.77-7.79 7.15-.71.76-1.76 1.23-1.95 2.59-.29 1.72 1.17 3.32 2.31 2.49 2.95-2.71 5.9-5.43 8.85-8.15.89-.57 1.3-2.22.7-3.34-.26-.57-.75-.94-1.25-.99zm-19.05 14.32c-.83.05-1.54 1.1-1.53 2.24-.02 1.12.65 2.14 1.45 2.24.93.17 1.83-.96 1.81-2.24 0-1.24-.83-2.33-1.73-2.24z" fill="url(#a)"/></svg>