<svg viewBox="0 0 126 84" xmlns="http://www.w3.org/2000/svg"><radialGradient id="a" cx="-32.97" cy="-74.19" gradientTransform="matrix(1 -.02 .03 1.27 2.11 20.34)" gradientUnits="userSpaceOnUse" r="25"><stop offset="0" stop-color="#d4d4d4"/><stop offset="1" stop-color="#777"/></radialGradient><radialGradient id="b" cx="-39.06" cy="-89.44" gradientUnits="userSpaceOnUse" r="10"><stop offset="0" stop-color="#7f7f7f"/><stop offset="1" stop-color="#151515" stop-opacity=".99"/></radialGradient><linearGradient id="c" gradientUnits="userSpaceOnUse" spreadMethod="reflect" x1="-4.84" x2="-27.41" y1="-87.13" y2="-71.68"><stop offset="0" stop-color="#1a1a1a"/><stop offset="1" stop-color="#6e6e6e"/></linearGradient><linearGradient id="d" gradientUnits="userSpaceOnUse" x1="-26.05" x2="-63.69" y1="-68.3" y2="-113.15"><stop offset="0" stop-color="#888"/><stop offset="1" stop-color="#d2d2d2"/></linearGradient><linearGradient id="e" gradientTransform="matrix(.95 0 0 1.09 -2.48 -5.24)" gradientUnits="userSpaceOnUse" spreadMethod="reflect" x1="95.49" x2="95.5" y1="31.95" y2="54.77"><stop offset="0" stop-color="#fff"/><stop offset="1" stop-color="#a8a8a8"/></linearGradient><linearGradient id="f" gradientTransform="matrix(.98 0 0 .97 1.04 1.08)" gradientUnits="userSpaceOnUse" spreadMethod="reflect" x1="116.01" x2="109.3" y1="72.41" y2="11.21"><stop offset="0"/><stop offset="1" stop-color="#292929"/></linearGradient><rect fill="url(#f)" height="74.05" ry="5.43" stroke="#000" stroke-width="1.95" width="116.05" x="4.98" y="4.98"/><g transform="matrix(.57 0 0 .57 56.18 91.22)"><path d="m-1.01-86.55a35.6 35.6 0 0 1 -35.6 35.6 35.6 35.6 0 0 1 -35.6-35.6 35.6 35.6 0 0 1 35.6-35.6 35.6 35.6 0 0 1 35.6 35.6z" fill="url(#d)" opacity=".99"/><path d="m-3.61-86.55a33 33 0 0 1 -33 33 33 33 0 0 1 -33-33 33 33 0 0 1 33-33 33 33 0 0 1 33 33z" fill="url(#c)" opacity=".99"/><path d="m-11.26-86.57a25 25 0 0 1 -25 25 25 25 0 0 1 -25-25 25 25 0 0 1 25-25 25 25 0 0 1 25 25z" fill="url(#a)" opacity=".99"/><path d="m-26.72-86.05a10 10 0 0 1 -10 10 10 10 0 0 1 -10-10 10 10 0 0 1 10-10 10 10 0 0 1 10 10z" fill="url(#b)" opacity=".99"/></g><path d="m96.84 29.5v4.42h3.47v19.94h3.86v-24.36zm-28.36.64v4.42h3.47v19.94h3.86v-24.36zm10.73 0v4.42h3.47v19.94h3.86v-24.36zm14.99 19.3c-.89-.07-1.78.67-1.98 1.69-.27 1.11.37 2.34 1.33 2.63 1.16.44 2.48-.73 2.44-2.12 0-.96-.62-1.85-1.41-2.12-.13-.05-.25-.07-.38-.08z" fill="url(#e)" stroke-width="1.01"/></svg>