<svg viewBox="0 0 126 84" xmlns="http://www.w3.org/2000/svg"><linearGradient id="a" gradientTransform="matrix(.93 0 0 1.27 -.47 -7.91)" gradientUnits="userSpaceOnUse" spreadMethod="reflect" x1="91.31" x2="90.28" y1="48.05" y2="36.07"><stop offset="0" stop-color="#a8a8a8"/><stop offset="1" stop-color="#fff"/></linearGradient><radialGradient id="b" cx="-32.97" cy="-74.19" gradientTransform="matrix(1 -.02 .03 1.27 2.11 20.34)" gradientUnits="userSpaceOnUse" r="25"><stop offset="0" stop-color="#d4d4d4"/><stop offset="1" stop-color="#777"/></radialGradient><radialGradient id="c" cx="-39.06" cy="-89.44" gradientUnits="userSpaceOnUse" r="10"><stop offset="0" stop-color="#7f7f7f"/><stop offset="1" stop-color="#151515" stop-opacity=".99"/></radialGradient><linearGradient id="d" gradientUnits="userSpaceOnUse" spreadMethod="reflect" x1="-4.84" x2="-27.41" y1="-87.13" y2="-71.68"><stop offset="0" stop-color="#1a1a1a"/><stop offset="1" stop-color="#6e6e6e"/></linearGradient><linearGradient id="e" gradientUnits="userSpaceOnUse" x1="-26.05" x2="-63.69" y1="-68.3" y2="-113.15"><stop offset="0" stop-color="#888"/><stop offset="1" stop-color="#d2d2d2"/></linearGradient><linearGradient id="f" gradientTransform="matrix(.98 0 0 .97 1.04 1.08)" gradientUnits="userSpaceOnUse" spreadMethod="reflect" x1="116.01" x2="109.3" y1="72.41" y2="11.21"><stop offset="0"/><stop offset="1" stop-color="#292929"/></linearGradient><rect fill="url(#f)" height="74.05" ry="5.43" stroke="#000" stroke-width="1.95" width="116.05" x="4.98" y="4.98"/><g transform="matrix(.57 0 0 .57 56.81 91.22)"><path d="m-1.01-86.55a35.6 35.6 0 0 1 -35.6 35.6 35.6 35.6 0 0 1 -35.6-35.6 35.6 35.6 0 0 1 35.6-35.6 35.6 35.6 0 0 1 35.6 35.6z" fill="url(#e)" opacity=".99"/><path d="m-3.61-86.55a33 33 0 0 1 -33 33 33 33 0 0 1 -33-33 33 33 0 0 1 33-33 33 33 0 0 1 33 33z" fill="url(#d)" opacity=".99"/><path d="m-11.26-86.57a25 25 0 0 1 -25 25 25 25 0 0 1 -25-25 25 25 0 0 1 25-25 25 25 0 0 1 25 25z" fill="url(#b)" opacity=".99"/><path d="m-26.72-86.05a10 10 0 0 1 -10 10 10 10 0 0 1 -10-10 10 10 0 0 1 10-10 10 10 0 0 1 10 10z" fill="url(#c)" opacity=".99"/></g><path d="m99.55 29.5c-.79 0-1.57.05-2.34.26-3.32.97-5.98 5.23-5.97 9.92.02 2.01-.07 4.03.09 6.03 0 4.61 3.68 8.71 6.79 8.71 2.6.08 4.01.05 6.3.04 4.38 0 7.04-4.42 7.04-9.39-.03-1.86.05-4.77-.08-6.62 0-4.34-3.19-8.94-6.59-8.96-1.54 0-3.53.01-5.23-.01zm-31.61.02v4.52h9.4c.73.08 1.58-.26 2.17.47.52.85.28 2.03.33 3.04.09.93-.23 2.08-1.02 2.14-1.69.06-3.39.01-5.09.03-1.28.05-2.58-.13-3.84.17-1.96.52-3.31 3.09-3.43 5.73-.03 2.96 0 5.92-.01 8.88h16.73c0-1.52 0-3.03-.01-4.55h-13.42v-3.09c-.04-.99.09-2.37.96-2.54 1.65-.09 3.31-.02 4.97-.04 1.26-.04 2.53.11 3.78-.13 1.92-.42 3.56-2.7 3.7-5.39.02-1.53.13-3.08-.14-4.58-.44-2.54-2.13-4.56-4.06-4.64-3.67-.04-7.34-.01-11.01-.02zm36.11 4.54c2.24.25 4.16 2.86 4.08 5.91-.01 1.58.02 3.16-.02 4.73-.08 2.68-1.72 5.06-3.68 5.24-2.11.09-3.24.02-5.35.04-2.09.25-4.17-1.91-4.47-4.78-.13-1.79-.04-3.59-.07-5.39-.03-2.92 1.77-5.59 3.91-5.73 2.19-.04 3.42-.27 5.6-.02zm.29 2.28c-3.01 2.95-4.28 4.25-8.08 8.06-1.09 1.13 1.43 4.34 2.34 3.26 3.34-3.5 5.14-5.33 7.9-8.15 1.01-1.21-1.03-4.43-2.16-3.17zm-17.19 13.65c-.71.11-1.33.95-1.43 1.93-.15 1.16.5 2.34 1.34 2.53.96.28 1.95-.89 1.93-2.23 0-1.14-.7-2.15-1.52-2.23-.1-.02-.21-.02-.31 0z" fill="url(#a)"/></svg>