<svg viewBox="0 0 126 84" xmlns="http://www.w3.org/2000/svg"><radialGradient id="a" cx="-32.97" cy="-74.19" gradientTransform="matrix(1 -.02 .03 1.27 2.11 20.34)" gradientUnits="userSpaceOnUse" r="25"><stop offset="0" stop-color="#d4d4d4"/><stop offset="1" stop-color="#777"/></radialGradient><radialGradient id="b" cx="-39.06" cy="-89.44" gradientUnits="userSpaceOnUse" r="10"><stop offset="0" stop-color="#7f7f7f"/><stop offset="1" stop-color="#151515" stop-opacity=".99"/></radialGradient><linearGradient id="c" gradientUnits="userSpaceOnUse" spreadMethod="reflect" x1="-4.84" x2="-27.41" y1="-87.13" y2="-71.68"><stop offset="0" stop-color="#1a1a1a"/><stop offset="1" stop-color="#6e6e6e"/></linearGradient><linearGradient id="d" gradientUnits="userSpaceOnUse" x1="-26.05" x2="-63.69" y1="-68.3" y2="-113.15"><stop offset="0" stop-color="#888"/><stop offset="1" stop-color="#d2d2d2"/></linearGradient><linearGradient id="e" gradientTransform="matrix(.95 0 0 1.09 -4.37 -5.24)" gradientUnits="userSpaceOnUse" spreadMethod="reflect" x1="95.49" x2="95.5" y1="31.95" y2="54.77"><stop offset="0" stop-color="#fff"/><stop offset="1" stop-color="#a8a8a8"/></linearGradient><linearGradient id="f" gradientTransform="matrix(.98 0 0 .97 1.04 1.08)" gradientUnits="userSpaceOnUse" spreadMethod="reflect" x1="116.01" x2="109.3" y1="72.41" y2="11.21"><stop offset="0"/><stop offset="1" stop-color="#292929"/></linearGradient><rect fill="url(#f)" height="74.05" ry="5.43" stroke="#000" stroke-width="1.95" width="116.05" x="4.98" y="4.98"/><g transform="matrix(.57 0 0 .57 56.18 91.22)"><path d="m-1.01-86.55a35.6 35.6 0 0 1 -35.6 35.6 35.6 35.6 0 0 1 -35.6-35.6 35.6 35.6 0 0 1 35.6-35.6 35.6 35.6 0 0 1 35.6 35.6z" fill="url(#d)" opacity=".99"/><path d="m-3.61-86.55a33 33 0 0 1 -33 33 33 33 0 0 1 -33-33 33 33 0 0 1 33-33 33 33 0 0 1 33 33z" fill="url(#c)" opacity=".99"/><path d="m-11.26-86.57a25 25 0 0 1 -25 25 25 25 0 0 1 -25-25 25 25 0 0 1 25-25 25 25 0 0 1 25 25z" fill="url(#a)" opacity=".99"/><path d="m-26.72-86.05a10 10 0 0 1 -10 10 10 10 0 0 1 -10-10 10 10 0 0 1 10-10 10 10 0 0 1 10 10z" fill="url(#b)" opacity=".99"/></g><path d="m94.97 29.5v4.42h3.47v19.94h3.86v-24.36zm-19.7.61c-2.14 0-4.28.01-6.41 0v4.41h10.97c.84.08 1.82-.25 2.51.46.6.84.32 1.99.39 2.99.1.9-.27 2.02-1.18 2.08-2.09.06-4.18.01-6.27.03-1.45.06-2.92-.16-4.34.22-2.19.6-3.65 3.05-3.8 5.55-.04 2.89-.01 5.77-.02 8.66h19.46v-4.45h-15.63v-3.02c-.05-.96.11-2.3 1.12-2.47 2.04-.09 4.08-.02 6.13-.04 1.43-.05 2.87.14 4.28-.18 2.21-.5 4.01-2.8 4.09-5.41 0-1.48.14-3-.22-4.45-.56-2.4-2.49-4.27-4.67-4.36-2.14-.02-4.27-.02-6.41-.02zm16.82 19.33c-.96.04-1.77 1.06-1.8 2.15-.06 1.14.81 2.2 1.79 2.26 1.05.1 2.07-.99 2.04-2.2.01-1.21-.98-2.28-2.03-2.2z" fill="url(#e)" stroke-width="1.01"/></svg>