<svg viewBox="0 0 126 84" xmlns="http://www.w3.org/2000/svg"><linearGradient id="a" gradientTransform="matrix(.93 0 0 1.27 -2.01 -7.89)" gradientUnits="userSpaceOnUse" spreadMethod="reflect" x1="91.31" x2="90.28" y1="48.05" y2="36.07"><stop offset="0" stop-color="#a8a8a8"/><stop offset="1" stop-color="#fff"/></linearGradient><radialGradient id="b" cx="-32.97" cy="-74.19" gradientTransform="matrix(1 -.02 .03 1.27 2.11 20.34)" gradientUnits="userSpaceOnUse" r="25"><stop offset="0" stop-color="#d4d4d4"/><stop offset="1" stop-color="#777"/></radialGradient><radialGradient id="c" cx="-39.06" cy="-89.44" gradientUnits="userSpaceOnUse" r="10"><stop offset="0" stop-color="#7f7f7f"/><stop offset="1" stop-color="#151515" stop-opacity=".99"/></radialGradient><linearGradient id="d" gradientUnits="userSpaceOnUse" spreadMethod="reflect" x1="-4.84" x2="-27.41" y1="-87.13" y2="-71.68"><stop offset="0" stop-color="#1a1a1a"/><stop offset="1" stop-color="#6e6e6e"/></linearGradient><linearGradient id="e" gradientUnits="userSpaceOnUse" x1="-26.05" x2="-63.69" y1="-68.3" y2="-113.15"><stop offset="0" stop-color="#888"/><stop offset="1" stop-color="#d2d2d2"/></linearGradient><linearGradient id="f" gradientTransform="matrix(.98 0 0 .97 1.04 1.08)" gradientUnits="userSpaceOnUse" spreadMethod="reflect" x1="116.01" x2="109.3" y1="72.41" y2="11.21"><stop offset="0"/><stop offset="1" stop-color="#292929"/></linearGradient><rect fill="url(#f)" height="74.05" ry="5.43" stroke="#000" stroke-width="1.95" width="116.05" x="4.98" y="4.98"/><g transform="matrix(.57 0 0 .57 56.81 91.22)"><path d="m-1.01-86.55a35.6 35.6 0 0 1 -35.6 35.6 35.6 35.6 0 0 1 -35.6-35.6 35.6 35.6 0 0 1 35.6-35.6 35.6 35.6 0 0 1 35.6 35.6z" fill="url(#e)" opacity=".99"/><path d="m-3.61-86.55a33 33 0 0 1 -33 33 33 33 0 0 1 -33-33 33 33 0 0 1 33-33 33 33 0 0 1 33 33z" fill="url(#d)" opacity=".99"/><path d="m-11.26-86.57a25 25 0 0 1 -25 25 25 25 0 0 1 -25-25 25 25 0 0 1 25-25 25 25 0 0 1 25 25z" fill="url(#b)" opacity=".99"/><path d="m-26.72-86.05a10 10 0 0 1 -10 10 10 10 0 0 1 -10-10 10 10 0 0 1 10-10 10 10 0 0 1 10 10z" fill="url(#c)" opacity=".99"/></g><path d="m97.7 29.5c-.79 0-1.58.05-2.36.26-3.33.96-6.01 5.23-6 9.92.02 2.01-.08 4.03.09 6.03.45 4.6 3.46 8.34 6.83 8.71 1.91.1 3.82.02 5.73.05 1.64.09 3.33-.18 4.76-1.34 2.39-1.77 3.96-5.37 3.9-9.09-.03-1.86.05-3.72-.08-5.57-.33-3.81-2.4-7.12-5.04-8.36-1.75-.88-3.63-.51-5.45-.59-.79.03-1.58-.01-2.37-.01zm-32.04.05v4.52h10.35c.65-.1 1.46.21 1.57 1.23.1 1.47.02 2.96.05 4.44h-11.96v4.56h11.97v3.58c.11 1-.36 2.14-1.17 2.09-3.6.02-7.21 0-10.81.01v4.52h8.2c1.29-.06 2.61.18 3.87-.29 1.95-.68 3.35-3.34 3.24-6.06 0-2.97.01-5.93.01-8.9-.04-1.68.12-3.39-.17-5.03-.43-2.55-2.14-4.55-4.07-4.64-3.69-.04-7.38-.01-11.07-.02zm37.54 4.51c2.26-.01 4.19 2.86 4.1 5.91-.01 1.58.02 3.15-.02 4.73-.08 2.68-1.72 5.06-3.7 5.24-2.12.09-4.24.02-6.36.04-2.11.25-4.19-1.9-4.5-4.78-.13-1.79-.04-3.59-.07-5.38-.03-2.92 1.78-5.58 3.93-5.73 2.2-.04 4.41-.01 6.61-.02zm1.4 1.6c-.3-.03-.61.05-.88.26-2.63 2.37-5.25 4.76-7.88 7.14-.72.76-1.78 1.23-1.98 2.59-.29 1.72 1.19 3.32 2.34 2.49 2.99-2.71 5.97-5.43 8.95-8.14.9-.57 1.31-2.22.71-3.34-.27-.57-.76-.94-1.26-.99zm-19.27 14.31c-.78.06-1.46.95-1.54 2-.1 1.1.48 2.2 1.27 2.45.98.35 2.06-.83 2.02-2.21.01-1.23-.85-2.34-1.75-2.24z" fill="url(#a)"/></svg>