<svg viewBox="0 0 126 84" xmlns="http://www.w3.org/2000/svg"><radialGradient id="a" cx="-32.97" cy="-74.19" gradientTransform="matrix(1 -.02 .03 1.27 2.11 20.34)" gradientUnits="userSpaceOnUse" r="25"><stop offset="0" stop-color="#d4d4d4"/><stop offset="1" stop-color="#777"/></radialGradient><radialGradient id="b" cx="-39.06" cy="-89.44" gradientUnits="userSpaceOnUse" r="10"><stop offset="0" stop-color="#7f7f7f"/><stop offset="1" stop-color="#151515" stop-opacity=".99"/></radialGradient><linearGradient id="c" gradientUnits="userSpaceOnUse" spreadMethod="reflect" x1="-4.84" x2="-27.41" y1="-87.13" y2="-71.68"><stop offset="0" stop-color="#1a1a1a"/><stop offset="1" stop-color="#6e6e6e"/></linearGradient><linearGradient id="d" gradientUnits="userSpaceOnUse" x1="-26.05" x2="-63.69" y1="-68.3" y2="-113.15"><stop offset="0" stop-color="#888"/><stop offset="1" stop-color="#d2d2d2"/></linearGradient><linearGradient id="e" gradientTransform="matrix(.98 0 0 .97 1.04 1.08)" gradientUnits="userSpaceOnUse" spreadMethod="reflect" x1="116.01" x2="109.3" y1="72.41" y2="11.21"><stop offset="0"/><stop offset="1" stop-color="#292929"/></linearGradient><linearGradient id="f" gradientTransform="matrix(.95 0 0 1.09 -3.35 -5.21)" gradientUnits="userSpaceOnUse" spreadMethod="reflect" x1="90.18" x2="91.52" y1="38.18" y2="51.67"><stop offset="0" stop-color="#fff"/><stop offset="1" stop-color="#a8a8a8"/></linearGradient><rect fill="url(#e)" height="74.05" ry="5.43" stroke="#000" stroke-width="1.95" width="116.05" x="4.98" y="4.98"/><g transform="matrix(.57 0 0 .57 56.18 91.22)"><path d="m-1.01-86.55a35.6 35.6 0 0 1 -35.6 35.6 35.6 35.6 0 0 1 -35.6-35.6 35.6 35.6 0 0 1 35.6-35.6 35.6 35.6 0 0 1 35.6 35.6z" fill="url(#d)" opacity=".99"/><path d="m-3.61-86.55a33 33 0 0 1 -33 33 33 33 0 0 1 -33-33 33 33 0 0 1 33-33 33 33 0 0 1 33 33z" fill="url(#c)" opacity=".99"/><path d="m-11.26-86.57a25 25 0 0 1 -25 25 25 25 0 0 1 -25-25 25 25 0 0 1 25-25 25 25 0 0 1 25 25z" fill="url(#a)" opacity=".99"/><path d="m-26.72-86.05a10 10 0 0 1 -10 10 10 10 0 0 1 -10-10 10 10 0 0 1 10-10 10 10 0 0 1 10 10z" fill="url(#b)" opacity=".99"/></g><path d="m95.9 29.5v4.41h3.47v19.93h3.86v-24.34zm-21.01.66c-2.13 0-4.27.01-6.4 0v4.41h11.99c.75-.09 1.69.21 1.82 1.2.11 1.44.03 2.89.06 4.33h-13.87v4.44h13.86v3.5c.13.97-.41 2.07-1.35 2.03-4.17.02-8.34 0-12.51.01v4.41h9.56c1.47-.06 2.97.18 4.4-.29 2.25-.66 3.87-3.26 3.75-5.92v-8.81c-.05-1.65.16-3.33-.24-4.94-.54-2.41-2.49-4.27-4.66-4.35-2.13-.02-4.27-.02-6.4-.02zm18.08 19.28c-.97.07-1.76 1.12-1.74 2.23-.02 1.07.75 2.02 1.66 2.14 1.09.2 2.19-.92 2.16-2.18 0-1.23-1.01-2.32-2.08-2.18z" fill="url(#f)" stroke-width="1.01"/></svg>