<svg viewBox="0 0 126 84" xmlns="http://www.w3.org/2000/svg"><linearGradient id="a" gradientTransform="matrix(.9 0 0 1.27 .38 -7.91)" gradientUnits="userSpaceOnUse" spreadMethod="reflect" x1="91.31" x2="90.28" y1="48.05" y2="36.07"><stop offset="0" stop-color="#a8a8a8"/><stop offset="1" stop-color="#fff"/></linearGradient><radialGradient id="b" cx="-32.97" cy="-74.19" gradientTransform="matrix(1 -.02 .03 1.27 2.11 20.34)" gradientUnits="userSpaceOnUse" r="25"><stop offset="0" stop-color="#d4d4d4"/><stop offset="1" stop-color="#777"/></radialGradient><radialGradient id="c" cx="-39.06" cy="-89.44" gradientUnits="userSpaceOnUse" r="10"><stop offset="0" stop-color="#7f7f7f"/><stop offset="1" stop-color="#151515" stop-opacity=".99"/></radialGradient><linearGradient id="d" gradientUnits="userSpaceOnUse" spreadMethod="reflect" x1="-4.84" x2="-27.41" y1="-87.13" y2="-71.68"><stop offset="0" stop-color="#1a1a1a"/><stop offset="1" stop-color="#6e6e6e"/></linearGradient><linearGradient id="e" gradientUnits="userSpaceOnUse" x1="-26.05" x2="-63.69" y1="-68.3" y2="-113.15"><stop offset="0" stop-color="#888"/><stop offset="1" stop-color="#d2d2d2"/></linearGradient><linearGradient id="f" gradientTransform="matrix(.98 0 0 .97 1.04 1.08)" gradientUnits="userSpaceOnUse" spreadMethod="reflect" x1="116.01" x2="109.3" y1="72.41" y2="11.21"><stop offset="0"/><stop offset="1" stop-color="#292929"/></linearGradient><rect fill="url(#f)" height="74.05" ry="5.43" stroke="#000" stroke-width="1.95" width="116.05" x="4.98" y="4.98"/><g transform="matrix(.57 0 0 .57 56.81 91.22)"><path d="m-1.01-86.55a35.6 35.6 0 0 1 -35.6 35.6 35.6 35.6 0 0 1 -35.6-35.6 35.6 35.6 0 0 1 35.6-35.6 35.6 35.6 0 0 1 35.6 35.6z" fill="url(#e)" opacity=".99"/><path d="m-3.61-86.55a33 33 0 0 1 -33 33 33 33 0 0 1 -33-33 33 33 0 0 1 33-33 33 33 0 0 1 33 33z" fill="url(#d)" opacity=".99"/><path d="m-11.26-86.57a25 25 0 0 1 -25 25 25 25 0 0 1 -25-25 25 25 0 0 1 25-25 25 25 0 0 1 25 25z" fill="url(#b)" opacity=".99"/><path d="m-26.72-86.05a10 10 0 0 1 -10 10 10 10 0 0 1 -10-10 10 10 0 0 1 10-10 10 10 0 0 1 10 10z" fill="url(#c)" opacity=".99"/></g><path d="m97.75 29.5c-.76 0-1.52.05-2.27.26-3.21.97-5.79 5.23-5.78 9.92.02 2.01-.07 4.03.08 6.03.43 4.6 3.33 8.34 6.58 8.71 1.84.1 3.68.02 5.52.05 1.58.09 3.2-.18 4.58-1.34 2.3-1.77 3.81-5.38 3.76-9.09-.03-1.86.05-3.73-.08-5.57-.32-3.81-2.31-7.12-4.86-8.37-1.69-.88-3.5-.51-5.25-.59-.76.03-1.52-.01-2.28-.01zm-32.53.04v12.48c0 .31.04.61.13.89.08.27.19.51.33.73.14.2.32.36.51.48.2.12.41.18.64.18h11.36v10.2h3.22v-24.96h-3.22v10.2h-9.77v-10.2zm37.83 4.52c2.18-.01 4.03 2.86 3.95 5.91-.01 1.58.02 3.16-.02 4.73-.08 2.68-1.66 5.06-3.56 5.24-2.04.09-4.08.02-6.12.04-2.03.25-4.04-1.91-4.33-4.78-.13-1.79-.04-3.59-.06-5.39-.03-2.92 1.71-5.59 3.78-5.73 2.12-.04 4.24-.01 6.37-.02zm1.35 1.61c-.29-.03-.59.05-.85.26-2.53 2.37-5.06 4.77-7.59 7.15-.7.76-1.71 1.23-1.9 2.59-.28 1.72 1.14 3.32 2.25 2.49 2.88-2.71 5.75-5.43 8.62-8.15.86-.57 1.27-2.22.68-3.34-.26-.57-.73-.94-1.22-.99zm-18.56 14.32c-.81.05-1.49 1.1-1.49 2.24-.02 1.12.63 2.14 1.41 2.24.9.17 1.78-.96 1.76-2.24 0-1.24-.81-2.33-1.69-2.24z" fill="url(#a)"/></svg>