<svg viewBox="0 0 126 84" xmlns="http://www.w3.org/2000/svg"><linearGradient id="a" gradientTransform="matrix(.92 0 0 1.27 -.53 -7.89)" gradientUnits="userSpaceOnUse" spreadMethod="reflect" x1="91.31" x2="90.28" y1="48.05" y2="36.07"><stop offset="0" stop-color="#a8a8a8"/><stop offset="1" stop-color="#fff"/></linearGradient><radialGradient id="b" cx="-32.97" cy="-74.19" gradientTransform="matrix(1 -.02 .03 1.27 2.11 20.34)" gradientUnits="userSpaceOnUse" r="25"><stop offset="0" stop-color="#d4d4d4"/><stop offset="1" stop-color="#777"/></radialGradient><radialGradient id="c" cx="-39.06" cy="-89.44" gradientUnits="userSpaceOnUse" r="10"><stop offset="0" stop-color="#7f7f7f"/><stop offset="1" stop-color="#151515" stop-opacity=".99"/></radialGradient><linearGradient id="d" gradientUnits="userSpaceOnUse" spreadMethod="reflect" x1="-4.84" x2="-27.41" y1="-87.13" y2="-71.68"><stop offset="0" stop-color="#1a1a1a"/><stop offset="1" stop-color="#6e6e6e"/></linearGradient><linearGradient id="e" gradientUnits="userSpaceOnUse" x1="-26.05" x2="-63.69" y1="-68.3" y2="-113.15"><stop offset="0" stop-color="#888"/><stop offset="1" stop-color="#d2d2d2"/></linearGradient><linearGradient id="f" gradientTransform="matrix(.98 0 0 .97 1.04 1.08)" gradientUnits="userSpaceOnUse" spreadMethod="reflect" x1="116.01" x2="109.3" y1="72.41" y2="11.21"><stop offset="0"/><stop offset="1" stop-color="#292929"/></linearGradient><rect fill="url(#f)" height="74.05" ry="5.43" stroke="#000" stroke-width="1.95" width="116.05" x="4.98" y="4.98"/><g transform="matrix(.57 0 0 .57 56.81 91.22)"><path d="m-1.01-86.55a35.6 35.6 0 0 1 -35.6 35.6 35.6 35.6 0 0 1 -35.6-35.6 35.6 35.6 0 0 1 35.6-35.6 35.6 35.6 0 0 1 35.6 35.6z" fill="url(#e)" opacity=".99"/><path d="m-3.61-86.55a33 33 0 0 1 -33 33 33 33 0 0 1 -33-33 33 33 0 0 1 33-33 33 33 0 0 1 33 33z" fill="url(#d)" opacity=".99"/><path d="m-11.26-86.57a25 25 0 0 1 -25 25 25 25 0 0 1 -25-25 25 25 0 0 1 25-25 25 25 0 0 1 25 25z" fill="url(#b)" opacity=".99"/><path d="m-26.72-86.05a10 10 0 0 1 -10 10 10 10 0 0 1 -10-10 10 10 0 0 1 10-10 10 10 0 0 1 10 10z" fill="url(#c)" opacity=".99"/></g><path d="m98.04 29.5c-.78 0-1.55.05-2.31.26-3.27.96-5.9 5.23-5.88 9.92.02 2.01-.07 4.03.08 6.03.44 4.6 3.39 8.34 6.7 8.71 1.87.1 3.75.02 5.62.05 1.6.09 3.26-.18 4.67-1.34 2.34-1.77 3.88-5.37 3.83-9.09-.03-1.86.05-3.72-.08-5.57-.33-3.81-2.36-7.12-4.95-8.36-1.72-.88-3.56-.51-5.35-.59-.77.03-1.55-.01-2.33-.01zm-32.29.01v3.56c.03 1.94-.06 3.89.06 5.82.24 2.73 1.88 5.19 3.9 5.34 2.22.09 4.44.02 6.65.04.73.08 1.54-.23 2.18.36.62.79.36 2.05.42 3.08.1 1.01-.31 2.22-1.13 2.24-4.03.02-8.05 0-12.08.01v4.52h9.3c1.26-.05 2.53.13 3.78-.17 2.03-.56 3.41-3.39 3.4-6.19-.02-1.34.1-2.72-.17-4.02-.49-2.47-2.21-4.21-4.02-4.37-2.44-.05-4.87-.01-7.31-.02-.66.08-1.53-.12-1.67-1.21-.1-1.49-.02-2.99-.05-4.48h11.74v-4.52zm37.69 4.55c2.22-.01 4.11 2.86 4.02 5.91-.01 1.58.02 3.15-.02 4.73-.08 2.68-1.69 5.06-3.63 5.24-2.08.09-4.16.02-6.23.04-2.07.25-4.11-1.9-4.41-4.78-.13-1.79-.04-3.59-.07-5.38-.03-2.92 1.75-5.58 3.85-5.73 2.16-.04 4.32-.01 6.48-.02zm1.37 1.6c-.3-.03-.6.05-.87.26-2.58 2.37-5.15 4.76-7.73 7.14-.71.76-1.74 1.23-1.94 2.59-.29 1.72 1.16 3.32 2.29 2.49 2.93-2.71 5.85-5.43 8.78-8.14.88-.57 1.29-2.22.7-3.34-.26-.57-.74-.94-1.24-.99zm-18.91 14.31c-.83.05-1.52 1.09-1.52 2.24-.02 1.12.64 2.14 1.44 2.24.92.17 1.81-.96 1.79-2.24 0-1.24-.82-2.33-1.72-2.24z" fill="url(#a)"/></svg>