<svg viewBox="0 0 126 84" xmlns="http://www.w3.org/2000/svg"><radialGradient id="a" cx="-32.97" cy="-74.19" gradientTransform="matrix(1 -.02 .03 1.27 2.11 20.34)" gradientUnits="userSpaceOnUse" r="25"><stop offset="0" stop-color="#d4d4d4"/><stop offset="1" stop-color="#777"/></radialGradient><radialGradient id="b" cx="-39.06" cy="-89.44" gradientUnits="userSpaceOnUse" r="10"><stop offset="0" stop-color="#7f7f7f"/><stop offset="1" stop-color="#151515" stop-opacity=".99"/></radialGradient><linearGradient id="c" gradientUnits="userSpaceOnUse" spreadMethod="reflect" x1="-4.84" x2="-27.41" y1="-87.13" y2="-71.68"><stop offset="0" stop-color="#1a1a1a"/><stop offset="1" stop-color="#6e6e6e"/></linearGradient><linearGradient id="d" gradientUnits="userSpaceOnUse" x1="-26.05" x2="-63.69" y1="-68.3" y2="-113.15"><stop offset="0" stop-color="#888"/><stop offset="1" stop-color="#d2d2d2"/></linearGradient><linearGradient id="e" gradientTransform="matrix(.95 0 0 1.09 -5.28 -5.23)" gradientUnits="userSpaceOnUse" spreadMethod="reflect" x1="95.49" x2="95.5" y1="31.95" y2="54.77"><stop offset="0" stop-color="#fff"/><stop offset="1" stop-color="#a8a8a8"/></linearGradient><linearGradient id="f" gradientTransform="matrix(.98 0 0 .97 1.04 1.08)" gradientUnits="userSpaceOnUse" spreadMethod="reflect" x1="116.01" x2="109.3" y1="72.41" y2="11.21"><stop offset="0"/><stop offset="1" stop-color="#292929"/></linearGradient><rect fill="url(#f)" height="74.05" ry="5.43" stroke="#000" stroke-width="1.95" width="116.05" x="4.98" y="4.98"/><g transform="matrix(.57 0 0 .57 56.18 91.22)"><path d="m-1.01-86.55a35.6 35.6 0 0 1 -35.6 35.6 35.6 35.6 0 0 1 -35.6-35.6 35.6 35.6 0 0 1 35.6-35.6 35.6 35.6 0 0 1 35.6 35.6z" fill="url(#d)" opacity=".99"/><path d="m-3.61-86.55a33 33 0 0 1 -33 33 33 33 0 0 1 -33-33 33 33 0 0 1 33-33 33 33 0 0 1 33 33z" fill="url(#c)" opacity=".99"/><path d="m-11.26-86.57a25 25 0 0 1 -25 25 25 25 0 0 1 -25-25 25 25 0 0 1 25-25 25 25 0 0 1 25 25z" fill="url(#a)" opacity=".99"/><path d="m-26.72-86.05a10 10 0 0 1 -10 10 10 10 0 0 1 -10-10 10 10 0 0 1 10-10 10 10 0 0 1 10 10z" fill="url(#b)" opacity=".99"/></g><path d="m94.01 29.5v4.41h3.47v19.94h3.86v-24.35zm-27.52.64v4.55c.04 1.66-.11 3.35.13 5 .4 2.58 2.39 4.78 4.71 4.84 2.57.05 5.14.01 7.71.02.85.07 1.79-.22 2.55.35.73.77.42 2 .49 3 .12.98-.37 2.15-1.33 2.17-4.75.02-9.5 0-14.26.01v4.41h11.09c1.45-.05 2.91.13 4.35-.17 2.41-.54 4.02-3.3 4.02-6.03-.04-1.36.1-2.76-.27-4.08-.63-2.34-2.62-3.93-4.71-4.1-2.9-.05-5.8-.01-8.69-.02-.76.08-1.74-.15-1.9-1.17-.12-1.45-.03-2.92-.06-4.37h13.86v-4.41zm24.84 19.29c-.14-.01-.28 0-.42.04-.94.17-1.65 1.24-1.57 2.33.04 1.03.8 1.91 1.68 2.01 1.09.18 2.16-.92 2.13-2.18 0-1.13-.86-2.14-1.83-2.2z" fill="url(#e)" stroke-width="1.01"/></svg>