<svg viewBox="0 0 126 84" xmlns="http://www.w3.org/2000/svg"><linearGradient id="a" gradientTransform="matrix(.88 0 0 1.27 4.07 -7.91)" gradientUnits="userSpaceOnUse" spreadMethod="reflect" x1="91.31" x2="90.28" y1="48.05" y2="36.07"><stop offset="0" stop-color="#a8a8a8"/><stop offset="1" stop-color="#fff"/></linearGradient><radialGradient id="b" cx="-32.97" cy="-74.19" gradientTransform="matrix(1 -.02 .03 1.27 2.11 20.34)" gradientUnits="userSpaceOnUse" r="25"><stop offset="0" stop-color="#d4d4d4"/><stop offset="1" stop-color="#777"/></radialGradient><radialGradient id="c" cx="-39.06" cy="-89.44" gradientUnits="userSpaceOnUse" r="10"><stop offset="0" stop-color="#7f7f7f"/><stop offset="1" stop-color="#151515" stop-opacity=".99"/></radialGradient><linearGradient id="d" gradientUnits="userSpaceOnUse" spreadMethod="reflect" x1="-4.84" x2="-27.41" y1="-87.13" y2="-71.68"><stop offset="0" stop-color="#1a1a1a"/><stop offset="1" stop-color="#6e6e6e"/></linearGradient><linearGradient id="e" gradientUnits="userSpaceOnUse" x1="-26.05" x2="-63.69" y1="-68.3" y2="-113.15"><stop offset="0" stop-color="#888"/><stop offset="1" stop-color="#d2d2d2"/></linearGradient><linearGradient id="f" gradientTransform="matrix(.98 0 0 .97 1.04 1.08)" gradientUnits="userSpaceOnUse" spreadMethod="reflect" x1="116.01" x2="109.3" y1="72.41" y2="11.21"><stop offset="0"/><stop offset="1" stop-color="#292929"/></linearGradient><rect fill="url(#f)" height="74.05" ry="5.43" stroke="#000" stroke-width="1.95" width="116.05" x="4.98" y="4.98"/><g transform="matrix(.57 0 0 .57 56.81 91.22)"><path d="m-1.01-86.55a35.6 35.6 0 0 1 -35.6 35.6 35.6 35.6 0 0 1 -35.6-35.6 35.6 35.6 0 0 1 35.6-35.6 35.6 35.6 0 0 1 35.6 35.6z" fill="url(#e)" opacity=".99"/><path d="m-3.61-86.55a33 33 0 0 1 -33 33 33 33 0 0 1 -33-33 33 33 0 0 1 33-33 33 33 0 0 1 33 33z" fill="url(#d)" opacity=".99"/><path d="m-11.26-86.57a25 25 0 0 1 -25 25 25 25 0 0 1 -25-25 25 25 0 0 1 25-25 25 25 0 0 1 25 25z" fill="url(#b)" opacity=".99"/><path d="m-26.72-86.05a10 10 0 0 1 -10 10 10 10 0 0 1 -10-10 10 10 0 0 1 10-10 10 10 0 0 1 10 10z" fill="url(#c)" opacity=".99"/></g><path d="m98.41 29.5c-.74 0-1.49.05-2.22.26-3.13.97-5.65 5.23-5.64 9.92.02 2.01-.07 4.03.08 6.03.42 4.6 3.25 8.34 6.42 8.71 1.79.1 3.59.02 5.39.05 1.54.09 3.13-.18 4.48-1.34 2.25-1.77 3.72-5.38 3.67-9.09-.03-1.86.05-3.73-.08-5.58-.31-3.81-2.26-7.13-4.74-8.37-1.65-.88-3.41-.51-5.13-.59-.74.03-1.49-.01-2.23-.01zm-26.81 0c-.77.02-1.53.14-2.27.53-1.93.94-3.43 3.47-3.67 6.42-.13 2.06-.04 4.13-.07 6.19.05 2.27-.2 4.65.41 6.81.69 2.75 2.58 4.48 4.5 4.99 1.77.1 3.55.02 5.33.05 1.36-.04 2.72.1 4.08-.11 1.87-.42 3.24-2.92 3.41-5.58.03-1.44.08-2.89-.08-4.32-.37-2.65-2.11-4.57-3.93-4.74-3.53-.05-7.06-.01-10.59-.02 0-.68 0-1.36.01-2.03-.01-1.96 1.2-3.53 2.5-3.64 3.3-.05 6.61-.01 9.91-.02v-4.52h-7.23c-.77.04-1.54-.03-2.31-.01zm31.99 4.56c2.13-.01 3.94 2.86 3.86 5.91-.01 1.58.02 3.16-.02 4.73-.08 2.69-1.62 5.06-3.48 5.24-1.99.09-3.99.02-5.98.04-1.98.25-3.94-1.91-4.23-4.78-.13-1.79-.04-3.59-.06-5.39-.03-2.92 1.67-5.59 3.69-5.73 2.07-.04 4.14-.01 6.22-.02zm1.32 1.61c-.29-.03-.58.05-.83.26-2.47 2.37-4.94 4.77-7.41 7.15-.68.76-1.67 1.23-1.86 2.59-.27 1.72 1.12 3.32 2.2 2.49 2.81-2.71 5.61-5.43 8.42-8.15.84-.57 1.24-2.22.67-3.35-.25-.57-.71-.94-1.19-.99zm-26.15 8.61c.37.01.73.08 1.05.37.6.78.34 2.04.4 3.07.1 1.02-.3 2.25-1.09 2.26-2.32.02-4.65 0-6.97.01-.97.06-2.05-.03-2.73-1.18-.85-1.18-.68-2.96-.69-4.51h8.93c.36.04.74-.02 1.11-.01zm8.04 5.71c-.79.05-1.46 1.1-1.45 2.24-.02 1.12.62 2.14 1.38 2.24.88.17 1.74-.96 1.72-2.24 0-1.24-.79-2.33-1.65-2.24z" fill="url(#a)"/></svg>