<svg viewBox="0 0 126 84" xmlns="http://www.w3.org/2000/svg"><radialGradient id="a" cx="-32.97" cy="-74.19" gradientTransform="matrix(1 -.02 .03 1.27 2.11 20.34)" gradientUnits="userSpaceOnUse" r="25"><stop offset="0" stop-color="#d4d4d4"/><stop offset="1" stop-color="#777"/></radialGradient><radialGradient id="b" cx="-39.06" cy="-89.44" gradientUnits="userSpaceOnUse" r="10"><stop offset="0" stop-color="#7f7f7f"/><stop offset="1" stop-color="#151515" stop-opacity=".99"/></radialGradient><linearGradient id="c" gradientUnits="userSpaceOnUse" spreadMethod="reflect" x1="-4.84" x2="-27.41" y1="-87.13" y2="-71.68"><stop offset="0" stop-color="#1a1a1a"/><stop offset="1" stop-color="#6e6e6e"/></linearGradient><linearGradient id="d" gradientUnits="userSpaceOnUse" x1="-26.05" x2="-63.69" y1="-68.3" y2="-113.15"><stop offset="0" stop-color="#888"/><stop offset="1" stop-color="#d2d2d2"/></linearGradient><linearGradient id="e" gradientTransform="matrix(.98 0 0 .97 1.04 1.08)" gradientUnits="userSpaceOnUse" spreadMethod="reflect" x1="116.01" x2="109.3" y1="72.41" y2="11.21"><stop offset="0"/><stop offset="1" stop-color="#292929"/></linearGradient><linearGradient id="f" gradientTransform="matrix(.95 0 0 1.09 4.69 -4.04)" gradientUnits="userSpaceOnUse" spreadMethod="reflect" x1="76.37" x2="82.05" y1="37.63" y2="53.76"><stop offset="0" stop-color="#fff"/><stop offset="1" stop-color="#a8a8a8"/></linearGradient><rect fill="url(#e)" height="74.05" ry="5.43" stroke="#000" stroke-width="1.95" width="116.05" x="4.98" y="4.98"/><g transform="matrix(.57 0 0 .57 56.18 91.22)"><path d="m-1.01-86.55a35.6 35.6 0 0 1 -35.6 35.6 35.6 35.6 0 0 1 -35.6-35.6 35.6 35.6 0 0 1 35.6-35.6 35.6 35.6 0 0 1 35.6 35.6z" fill="url(#d)" opacity=".99"/><path d="m-3.61-86.55a33 33 0 0 1 -33 33 33 33 0 0 1 -33-33 33 33 0 0 1 33-33 33 33 0 0 1 33 33z" fill="url(#c)" opacity=".99"/><path d="m-11.26-86.57a25 25 0 0 1 -25 25 25 25 0 0 1 -25-25 25 25 0 0 1 25-25 25 25 0 0 1 25 25z" fill="url(#a)" opacity=".99"/><path d="m-26.72-86.05a10 10 0 0 1 -10 10 10 10 0 0 1 -10-10 10 10 0 0 1 10-10 10 10 0 0 1 10 10z" fill="url(#b)" opacity=".99"/></g><path d="m96.48 29.5v4.42h3.48v19.97h3.87v-24.39zm-20.64.58c-.97.03-1.93.16-2.85.6-2.29.95-4.03 3.4-4.32 6.18-.15 2.06-.05 4.13-.08 6.19.06 2.08-.21 4.23.41 6.23.81 2.85 3.24 4.78 5.78 5.13 1.65.14 3.31.04 4.96.07 1.44-.05 2.89.13 4.31-.17 2.26-.51 3.85-2.99 4.01-5.56 0-1.52.14-3.09-.24-4.57-.63-2.35-2.64-3.93-4.73-4.1-3.55-.05-7.1-.01-10.66-.02.01-.8-.03-1.6.03-2.39.14-1.77 1.57-3.04 3.05-3.15 3.28-.05 6.56-.01 9.84-.02v-4.41h-6.59c-.96.04-1.95-.03-2.92 0zm6.64 14.43c.44.01.87.08 1.25.36.73.75.43 1.95.49 2.94.1.93-.26 2.08-1.18 2.22-2.2.07-4.4.01-6.6.03-1.17.08-2.47-.14-3.24-1.27-.95-1.17-.73-2.82-.75-4.27h8.72c.43.04.88-.02 1.32-.01zm11.32 4.95c-.14-.01-.28 0-.42.04-.94.17-1.66 1.24-1.57 2.33.04 1.03.8 1.92 1.69 2.02 1.09.18 2.16-.92 2.14-2.19 0-1.14-.86-2.15-1.83-2.2z" fill="url(#f)" stroke-width="1.02"/></svg>