<svg viewBox="0 0 126 84" xmlns="http://www.w3.org/2000/svg"><linearGradient id="a" gradientTransform="matrix(.98 0 0 1.27 -4.67 -7.92)" gradientUnits="userSpaceOnUse" spreadMethod="reflect" x1="91.31" x2="90.28" y1="48.05" y2="36.07"><stop offset="0" stop-color="#a8a8a8"/><stop offset="1" stop-color="#fff"/></linearGradient><radialGradient id="b" cx="-32.97" cy="-74.19" gradientTransform="matrix(1 -.02 .03 1.27 2.11 20.34)" gradientUnits="userSpaceOnUse" r="25"><stop offset="0" stop-color="#d4d4d4"/><stop offset="1" stop-color="#777"/></radialGradient><radialGradient id="c" cx="-39.06" cy="-89.44" gradientUnits="userSpaceOnUse" r="10"><stop offset="0" stop-color="#7f7f7f"/><stop offset="1" stop-color="#151515" stop-opacity=".99"/></radialGradient><linearGradient id="d" gradientUnits="userSpaceOnUse" spreadMethod="reflect" x1="-4.84" x2="-27.41" y1="-87.13" y2="-71.68"><stop offset="0" stop-color="#1a1a1a"/><stop offset="1" stop-color="#6e6e6e"/></linearGradient><linearGradient id="e" gradientUnits="userSpaceOnUse" x1="-26.05" x2="-63.69" y1="-68.3" y2="-113.15"><stop offset="0" stop-color="#888"/><stop offset="1" stop-color="#d2d2d2"/></linearGradient><linearGradient id="f" gradientTransform="matrix(.98 0 0 .97 1.04 1.08)" gradientUnits="userSpaceOnUse" spreadMethod="reflect" x1="116.01" x2="109.3" y1="72.41" y2="11.21"><stop offset="0"/><stop offset="1" stop-color="#292929"/></linearGradient><rect fill="url(#f)" height="74.05" ry="5.43" stroke="#000" stroke-width="1.95" width="116.05" x="4.98" y="4.98"/><g transform="matrix(.57 0 0 .57 56.81 91.22)"><path d="m-1.01-86.55a35.6 35.6 0 0 1 -35.6 35.6 35.6 35.6 0 0 1 -35.6-35.6 35.6 35.6 0 0 1 35.6-35.6 35.6 35.6 0 0 1 35.6 35.6z" fill="url(#e)" opacity=".99"/><path d="m-3.61-86.55a33 33 0 0 1 -33 33 33 33 0 0 1 -33-33 33 33 0 0 1 33-33 33 33 0 0 1 33 33z" fill="url(#d)" opacity=".99"/><path d="m-11.26-86.57a25 25 0 0 1 -25 25 25 25 0 0 1 -25-25 25 25 0 0 1 25-25 25 25 0 0 1 25 25z" fill="url(#b)" opacity=".99"/><path d="m-26.72-86.05a10 10 0 0 1 -10 10 10 10 0 0 1 -10-10 10 10 0 0 1 10-10 10 10 0 0 1 10 10z" fill="url(#c)" opacity=".99"/></g><path d="m97 29.5c-.83 0-1.66.05-2.48.26-3.51.97-6.33 5.23-6.32 9.93.02 2.01-.08 4.03.09 6.03.47 4.6 3.64 8.34 7.19 8.71 2.01.1 4.02.02 6.03.05 1.72.09 3.5-.18 5.01-1.34 2.52-1.77 4.17-5.38 4.11-9.1-.03-1.86.05-3.73-.09-5.58-.35-3.81-2.53-7.13-5.31-8.37-1.84-.88-3.82-.51-5.74-.59-.83.03-1.66-.01-2.5-.01zm-31.36.02v4.52h11.31l-9.16 20.45h4.05l9.69-21.55c.15-.37.23-.74.23-1.13 0-.41-.08-.79-.23-1.15v.01c-.16-.37-.37-.65-.65-.84-.27-.21-.56-.32-.88-.32zm37.16 4.54c2.38-.01 4.41 2.86 4.32 5.91-.01 1.58.02 3.16-.02 4.73-.09 2.69-1.81 5.06-3.9 5.24-2.23.09-4.46.02-6.69.04-2.22.25-4.41-1.91-4.74-4.78-.14-1.79-.04-3.59-.07-5.39-.03-2.93 1.87-5.59 4.13-5.73 2.32-.04 4.64-.01 6.96-.02zm1.47 1.61c-.32-.03-.64.05-.93.26-2.77 2.37-5.53 4.77-8.29 7.15-.76.76-1.87 1.23-2.08 2.59-.31 1.72 1.25 3.32 2.46 2.49 3.15-2.71 6.28-5.44 9.43-8.15.94-.57 1.38-2.22.74-3.35-.28-.57-.8-.94-1.33-.99zm-20.29 14.32c-.89.05-1.64 1.1-1.63 2.24-.03 1.12.69 2.14 1.55 2.24.99.17 1.95-.96 1.92-2.24 0-1.24-.88-2.33-1.84-2.24z" fill="url(#a)"/></svg>