<svg viewBox="0 0 126 84" xmlns="http://www.w3.org/2000/svg"><radialGradient id="a" cx="-32.97" cy="-74.19" gradientTransform="matrix(1 -.02 .03 1.27 2.11 20.34)" gradientUnits="userSpaceOnUse" r="25"><stop offset="0" stop-color="#d4d4d4"/><stop offset="1" stop-color="#777"/></radialGradient><radialGradient id="b" cx="-39.06" cy="-89.44" gradientUnits="userSpaceOnUse" r="10"><stop offset="0" stop-color="#7f7f7f"/><stop offset="1" stop-color="#151515" stop-opacity=".99"/></radialGradient><linearGradient id="c" gradientUnits="userSpaceOnUse" spreadMethod="reflect" x1="-4.84" x2="-27.41" y1="-87.13" y2="-71.68"><stop offset="0" stop-color="#1a1a1a"/><stop offset="1" stop-color="#6e6e6e"/></linearGradient><linearGradient id="d" gradientUnits="userSpaceOnUse" x1="-26.05" x2="-63.69" y1="-68.3" y2="-113.15"><stop offset="0" stop-color="#888"/><stop offset="1" stop-color="#d2d2d2"/></linearGradient><linearGradient id="e" gradientTransform="matrix(.95 0 0 1.09 -3.22 -5.23)" gradientUnits="userSpaceOnUse" spreadMethod="reflect" x1="95.49" x2="95.5" y1="31.95" y2="54.77"><stop offset="0" stop-color="#fff"/><stop offset="1" stop-color="#a8a8a8"/></linearGradient><linearGradient id="f" gradientTransform="matrix(.98 0 0 .97 1.04 1.08)" gradientUnits="userSpaceOnUse" spreadMethod="reflect" x1="116.01" x2="109.3" y1="72.41" y2="11.21"><stop offset="0"/><stop offset="1" stop-color="#292929"/></linearGradient><rect fill="url(#f)" height="74.05" ry="5.43" stroke="#000" stroke-width="1.95" width="116.05" x="4.98" y="4.98"/><g transform="matrix(.57 0 0 .57 56.18 91.22)"><path d="m-1.01-86.55a35.6 35.6 0 0 1 -35.6 35.6 35.6 35.6 0 0 1 -35.6-35.6 35.6 35.6 0 0 1 35.6-35.6 35.6 35.6 0 0 1 35.6 35.6z" fill="url(#d)" opacity=".99"/><path d="m-3.61-86.55a33 33 0 0 1 -33 33 33 33 0 0 1 -33-33 33 33 0 0 1 33-33 33 33 0 0 1 33 33z" fill="url(#c)" opacity=".99"/><path d="m-11.26-86.57a25 25 0 0 1 -25 25 25 25 0 0 1 -25-25 25 25 0 0 1 25-25 25 25 0 0 1 25 25z" fill="url(#a)" opacity=".99"/><path d="m-26.72-86.05a10 10 0 0 1 -10 10 10 10 0 0 1 -10-10 10 10 0 0 1 10-10 10 10 0 0 1 10 10z" fill="url(#b)" opacity=".99"/></g><path d="m96.07 29.5v4.41h3.47v19.93h3.86v-24.34zm-28.42.65v4.41h12.45l-10.09 19.94h4.44l10.67-21.01c.17-.36.25-.72.25-1.11 0-.4-.08-.77-.25-1.12v.01c-.17-.35-.41-.62-.71-.81-.3-.21-.62-.31-.97-.31zm25.74 19.28c-.14-.01-.28 0-.42.04-.94.17-1.65 1.24-1.57 2.33.04 1.03.8 1.91 1.68 2.01 1.09.18 2.16-.92 2.13-2.18 0-1.13-.86-2.14-1.83-2.2z" fill="url(#e)" stroke-width="1.01"/></svg>