<svg viewBox="0 0 126 84" xmlns="http://www.w3.org/2000/svg"><linearGradient id="a" gradientTransform="matrix(.91 0 0 1.27 -.36 -7.89)" gradientUnits="userSpaceOnUse" spreadMethod="reflect" x1="91.31" x2="90.28" y1="48.05" y2="36.07"><stop offset="0" stop-color="#a8a8a8"/><stop offset="1" stop-color="#fff"/></linearGradient><radialGradient id="b" cx="-32.97" cy="-74.19" gradientTransform="matrix(1 -.02 .03 1.27 2.11 20.34)" gradientUnits="userSpaceOnUse" r="25"><stop offset="0" stop-color="#d4d4d4"/><stop offset="1" stop-color="#777"/></radialGradient><radialGradient id="c" cx="-39.06" cy="-89.44" gradientUnits="userSpaceOnUse" r="10"><stop offset="0" stop-color="#7f7f7f"/><stop offset="1" stop-color="#151515" stop-opacity=".99"/></radialGradient><linearGradient id="d" gradientUnits="userSpaceOnUse" spreadMethod="reflect" x1="-4.84" x2="-27.41" y1="-87.13" y2="-71.68"><stop offset="0" stop-color="#1a1a1a"/><stop offset="1" stop-color="#6e6e6e"/></linearGradient><linearGradient id="e" gradientUnits="userSpaceOnUse" x1="-26.05" x2="-63.69" y1="-68.3" y2="-113.15"><stop offset="0" stop-color="#888"/><stop offset="1" stop-color="#d2d2d2"/></linearGradient><linearGradient id="f" gradientTransform="matrix(.98 0 0 .97 1.04 1.08)" gradientUnits="userSpaceOnUse" spreadMethod="reflect" x1="116.01" x2="109.3" y1="72.41" y2="11.21"><stop offset="0"/><stop offset="1" stop-color="#292929"/></linearGradient><rect fill="url(#f)" height="74.05" ry="5.43" stroke="#000" stroke-width="1.95" width="116.05" x="4.98" y="4.98"/><g transform="matrix(.57 0 0 .57 56.81 91.22)"><path d="m-1.01-86.55a35.6 35.6 0 0 1 -35.6 35.6 35.6 35.6 0 0 1 -35.6-35.6 35.6 35.6 0 0 1 35.6-35.6 35.6 35.6 0 0 1 35.6 35.6z" fill="url(#e)" opacity=".99"/><path d="m-3.61-86.55a33 33 0 0 1 -33 33 33 33 0 0 1 -33-33 33 33 0 0 1 33-33 33 33 0 0 1 33 33z" fill="url(#d)" opacity=".99"/><path d="m-11.26-86.57a25 25 0 0 1 -25 25 25 25 0 0 1 -25-25 25 25 0 0 1 25-25 25 25 0 0 1 25 25z" fill="url(#b)" opacity=".99"/><path d="m-26.72-86.05a10 10 0 0 1 -10 10 10 10 0 0 1 -10-10 10 10 0 0 1 10-10 10 10 0 0 1 10 10z" fill="url(#c)" opacity=".99"/></g><path d="m97.74 29.5c-.77 0-1.54.05-2.3.26-3.26.96-5.88 5.23-5.86 9.92.02 2.01-.07 4.03.08 6.03.44 4.6 3.38 8.34 6.67 8.71 1.86.1 3.73.02 5.6.05 1.6.09 3.25-.18 4.65-1.34 2.33-1.77 3.87-5.37 3.81-9.09-.03-1.86.05-3.72-.08-5.57-.33-3.81-2.35-7.12-4.93-8.36-1.71-.88-3.55-.51-5.33-.59-.77.03-1.55-.01-2.32-.01zm-25.62.03c-.6 0-1.2.03-1.79.2-1.81.49-3.31 2.71-3.43 5.31-.02 1.93-.18 3.96.42 5.76-1.1 1.02-1.76 2.82-1.89 4.63-.02 1.5-.1 3.03.12 4.51.41 2.48 2.08 4.27 3.87 4.5 1.74.1 3.5.02 5.24.05 1.26-.05 2.52.13 3.77-.17 2.03-.57 3.42-3.38 3.4-6.19v-1.61c.11-2.18-.55-4.47-1.92-5.65.46-1.27.45-2.71.44-4.09.11-2.37-.51-4.96-2.01-6.28-1.31-1.25-2.92-.93-4.41-.97-.6.03-1.2-.01-1.8-.01zm3.81 4.51c.68.06 1.26.87 1.17 1.88v1.53c.06.9-.11 2.07-.87 2.24-1.19.14-2.4.03-3.6.07-.73-.08-1.58.26-2.18-.46-.52-.85-.27-2.03-.33-3.05-.08-.93.21-2.09.99-2.15 1.51-.07 3.02-.01 4.53-.03.1-.02.2-.03.3-.02zm27.19.02c2.21-.01 4.09 2.86 4.01 5.91-.01 1.58.02 3.15-.02 4.73-.08 2.68-1.69 5.06-3.62 5.24-2.07.09-4.14.02-6.21.04-2.06.25-4.09-1.9-4.39-4.78-.13-1.79-.04-3.59-.07-5.38-.03-2.92 1.74-5.58 3.84-5.73 2.15-.04 4.31-.01 6.46-.02zm1.37 1.6c-.3-.03-.6.05-.86.26-2.57 2.37-5.13 4.76-7.7 7.14-.71.76-1.73 1.23-1.93 2.59-.29 1.72 1.16 3.32 2.29 2.49 2.92-2.71 5.83-5.43 8.75-8.14.88-.57 1.28-2.22.69-3.34-.26-.57-.74-.94-1.23-.99zm-27.08 8.62c.65.08 1.2.88 1.13 1.84l.01 1.61c.11 1.01-.3 2.23-1.12 2.24-2.05.02-4.1 0-6.15.01-.73-.08-1.54.24-2.18-.37-.67-.75-.41-2.03-.46-3.06-.11-1.02.33-2.22 1.15-2.24 2.44-.02 4.89 0 7.33-.01.09-.02.19-.03.28-.02zm8.24 5.7c-.82.05-1.52 1.09-1.51 2.24-.02 1.12.64 2.14 1.44 2.24.92.17 1.81-.96 1.79-2.24 0-1.24-.82-2.33-1.71-2.24z" fill="url(#a)"/></svg>