<svg viewBox="0 0 126 84" xmlns="http://www.w3.org/2000/svg"><radialGradient id="a" cx="-32.97" cy="-74.19" gradientTransform="matrix(1 -.02 .03 1.27 2.11 20.34)" gradientUnits="userSpaceOnUse" r="25"><stop offset="0" stop-color="#d4d4d4"/><stop offset="1" stop-color="#777"/></radialGradient><radialGradient id="b" cx="-39.06" cy="-89.44" gradientUnits="userSpaceOnUse" r="10"><stop offset="0" stop-color="#7f7f7f"/><stop offset="1" stop-color="#151515" stop-opacity=".99"/></radialGradient><linearGradient id="c" gradientUnits="userSpaceOnUse" spreadMethod="reflect" x1="-4.84" x2="-27.41" y1="-87.13" y2="-71.68"><stop offset="0" stop-color="#1a1a1a"/><stop offset="1" stop-color="#6e6e6e"/></linearGradient><linearGradient id="d" gradientUnits="userSpaceOnUse" x1="-26.05" x2="-63.69" y1="-68.3" y2="-113.15"><stop offset="0" stop-color="#888"/><stop offset="1" stop-color="#d2d2d2"/></linearGradient><linearGradient id="e" gradientTransform="matrix(.95 0 0 1.09 -2.61 -5.23)" gradientUnits="userSpaceOnUse" spreadMethod="reflect" x1="95.49" x2="95.5" y1="31.95" y2="54.77"><stop offset="0" stop-color="#fff"/><stop offset="1" stop-color="#a8a8a8"/></linearGradient><linearGradient id="f" gradientTransform="matrix(.98 0 0 .97 1.04 1.08)" gradientUnits="userSpaceOnUse" spreadMethod="reflect" x1="116.01" x2="109.3" y1="72.41" y2="11.21"><stop offset="0"/><stop offset="1" stop-color="#292929"/></linearGradient><rect fill="url(#f)" height="74.05" ry="5.43" stroke="#000" stroke-width="1.95" width="116.05" x="4.98" y="4.98"/><g transform="matrix(.57 0 0 .57 56.18 91.22)"><path d="m-1.01-86.55a35.6 35.6 0 0 1 -35.6 35.6 35.6 35.6 0 0 1 -35.6-35.6 35.6 35.6 0 0 1 35.6-35.6 35.6 35.6 0 0 1 35.6 35.6z" fill="url(#d)" opacity=".99"/><path d="m-3.61-86.55a33 33 0 0 1 -33 33 33 33 0 0 1 -33-33 33 33 0 0 1 33-33 33 33 0 0 1 33 33z" fill="url(#c)" opacity=".99"/><path d="m-11.26-86.57a25 25 0 0 1 -25 25 25 25 0 0 1 -25-25 25 25 0 0 1 25-25 25 25 0 0 1 25 25z" fill="url(#a)" opacity=".99"/><path d="m-26.72-86.05a10 10 0 0 1 -10 10 10 10 0 0 1 -10-10 10 10 0 0 1 10-10 10 10 0 0 1 10 10z" fill="url(#b)" opacity=".99"/></g><path d="m96.68 29.5v4.41h3.47v19.94h3.86v-24.35zm-19.9.6c-.7 0-1.41.04-2.1.2-2.21.49-4.01 2.79-4.08 5.4-.01 1.82-.18 3.73.51 5.43-1.35 1.03-2.12 2.87-2.24 4.69.01 1.63-.17 3.33.33 4.9.72 2.17 2.63 3.6 4.62 3.75 2.03.05 4.07.01 6.1.02 1.45-.05 2.92.13 4.35-.17 2.41-.54 4.03-3.3 4.02-6.03.01-.49.02-.97.02-1.46.16-2.17-.63-4.47-2.28-5.64.55-1.24.53-2.66.52-4.02.14-2.38-.67-4.99-2.54-6.22-1.54-1.12-3.4-.79-5.12-.84-.7.03-1.41-.01-2.11-.01zm4.55 4.44c.8.06 1.48.86 1.37 1.84 0 .54.01 1.08.01 1.63.11.91-.28 2.02-1.18 2.07-1.41.06-2.83.01-4.24.03-.85-.07-1.9.27-2.54-.56-.48-.85-.24-1.91-.3-2.87-.1-.9.25-2.03 1.16-2.08 1.79-.06 3.58-.01 5.37-.03.12-.02.23-.03.35-.02zm1.74 10c.77.08 1.43.87 1.35 1.8 0 .55 0 1.09-.01 1.64.11.96-.4 2.1-1.34 2.1-2.44.02-4.88 0-7.32.01-.85-.08-1.8.23-2.55-.37-.79-.73-.48-1.98-.54-2.99-.13-1 .41-2.15 1.37-2.17 2.9-.02 5.79 0 8.69-.01.11-.02.23-.02.34-.01zm10.94 4.9c-.14-.01-.28 0-.42.04-.94.17-1.65 1.24-1.57 2.33.04 1.03.8 1.91 1.68 2.01 1.09.18 2.16-.92 2.13-2.18 0-1.13-.86-2.14-1.83-2.2z" fill="url(#e)" stroke-width="1.01"/></svg>