<svg viewBox="0 0 126 84" xmlns="http://www.w3.org/2000/svg"><linearGradient id="a" gradientTransform="matrix(.91 0 0 1.27 -.34 -7.89)" gradientUnits="userSpaceOnUse" spreadMethod="reflect" x1="91.31" x2="90.28" y1="48.05" y2="36.07"><stop offset="0" stop-color="#a8a8a8"/><stop offset="1" stop-color="#fff"/></linearGradient><radialGradient id="b" cx="-32.97" cy="-74.19" gradientTransform="matrix(1 -.02 .03 1.27 2.11 20.34)" gradientUnits="userSpaceOnUse" r="25"><stop offset="0" stop-color="#d4d4d4"/><stop offset="1" stop-color="#777"/></radialGradient><radialGradient id="c" cx="-39.06" cy="-89.44" gradientUnits="userSpaceOnUse" r="10"><stop offset="0" stop-color="#7f7f7f"/><stop offset="1" stop-color="#151515" stop-opacity=".99"/></radialGradient><linearGradient id="d" gradientUnits="userSpaceOnUse" spreadMethod="reflect" x1="-4.84" x2="-27.41" y1="-87.13" y2="-71.68"><stop offset="0" stop-color="#1a1a1a"/><stop offset="1" stop-color="#6e6e6e"/></linearGradient><linearGradient id="e" gradientUnits="userSpaceOnUse" x1="-26.05" x2="-63.69" y1="-68.3" y2="-113.15"><stop offset="0" stop-color="#888"/><stop offset="1" stop-color="#d2d2d2"/></linearGradient><linearGradient id="f" gradientTransform="matrix(.98 0 0 .97 1.04 1.08)" gradientUnits="userSpaceOnUse" spreadMethod="reflect" x1="116.01" x2="109.3" y1="72.41" y2="11.21"><stop offset="0"/><stop offset="1" stop-color="#292929"/></linearGradient><rect fill="url(#f)" height="74.05" ry="5.43" stroke="#000" stroke-width="1.95" width="116.05" x="4.98" y="4.98"/><g transform="matrix(.57 0 0 .57 56.81 91.22)"><path d="m-1.01-86.55a35.6 35.6 0 0 1 -35.6 35.6 35.6 35.6 0 0 1 -35.6-35.6 35.6 35.6 0 0 1 35.6-35.6 35.6 35.6 0 0 1 35.6 35.6z" fill="url(#e)" opacity=".99"/><path d="m-3.61-86.55a33 33 0 0 1 -33 33 33 33 0 0 1 -33-33 33 33 0 0 1 33-33 33 33 0 0 1 33 33z" fill="url(#d)" opacity=".99"/><path d="m-11.26-86.57a25 25 0 0 1 -25 25 25 25 0 0 1 -25-25 25 25 0 0 1 25-25 25 25 0 0 1 25 25z" fill="url(#b)" opacity=".99"/><path d="m-26.72-86.05a10 10 0 0 1 -10 10 10 10 0 0 1 -10-10 10 10 0 0 1 10-10 10 10 0 0 1 10 10z" fill="url(#c)" opacity=".99"/></g><path d="m97.39 29.5c-.77 0-1.54.05-2.3.26-3.25.96-5.86 5.23-5.85 9.92.02 2.01-.07 4.03.08 6.03.44 4.6 3.37 8.34 6.66 8.71 1.86.1 3.72.02 5.59.05 1.6.09 3.24-.18 4.64-1.34 2.33-1.77 3.86-5.37 3.81-9.09-.03-1.86.05-3.72-.08-5.57-.33-3.81-2.34-7.12-4.92-8.36-1.71-.88-3.54-.51-5.32-.59-.77.03-1.54-.01-2.31-.01zm-24.55.02c-1.01 0-2.02.01-3.03 0-1.7-.17-3.48 1.04-4.23 3.24-.65 1.57-.56 3.41-.56 5.15.02.51.04 1.09.13 1.61.37 2.66 2.18 4.58 4.07 4.75 2.98.05 5.96.01 8.94.02-.01.82.02 1.65-.03 2.47-.1 1.83-1.34 3.08-2.58 3.19-2.74.04-5.48.01-8.23.02v4.52h5.51c1.74-.07 3.57.3 5.2-.8 1.78-1.05 3.08-3.45 3.32-6.12.13-2.06.04-4.14.07-6.2-.05-2.02.15-4.08-.25-6.04-.62-3.29-2.93-5.55-5.31-5.77-1.01-.03-2.02-.03-3.03-.03zm-3.13 4.52c.18-.01.36 0 .52.01 1.87.02 3.74-.05 5.6.04 1.35.17 2.4 1.95 2.32 3.83 0 .61.01 1.21.01 1.82h-8.42c-.78.19-1.58-.66-1.48-1.82.04-.97-.1-1.99.14-2.92.23-.76.77-.93 1.3-.96zm33.05.02c2.21-.01 4.08 2.86 4 5.91-.01 1.58.02 3.15-.02 4.73-.08 2.68-1.68 5.06-3.61 5.24-2.06.09-4.13.02-6.2.04-2.05.25-4.09-1.9-4.39-4.78-.13-1.79-.04-3.59-.06-5.38-.03-2.92 1.74-5.58 3.83-5.73 2.15-.04 4.3-.01 6.45-.02zm1.36 1.61c-.3-.03-.6.05-.86.26-2.57 2.37-5.12 4.76-7.68 7.14-.7.76-1.73 1.23-1.93 2.59-.29 1.72 1.16 3.32 2.28 2.49 2.91-2.71 5.82-5.43 8.73-8.14.87-.57 1.28-2.22.69-3.34-.26-.57-.74-.94-1.23-.99zm-18.79 14.31c-.82.05-1.51 1.09-1.51 2.24-.02 1.12.64 2.14 1.43 2.24.91.17 1.8-.96 1.78-2.24 0-1.24-.82-2.33-1.71-2.24z" fill="url(#a)"/></svg>