<svg viewBox="0 0 126 84" xmlns="http://www.w3.org/2000/svg"><radialGradient id="a" cx="-32.97" cy="-74.19" gradientTransform="matrix(1 -.02 .03 1.27 2.11 20.34)" gradientUnits="userSpaceOnUse" r="25"><stop offset="0" stop-color="#d4d4d4"/><stop offset="1" stop-color="#777"/></radialGradient><radialGradient id="b" cx="-39.06" cy="-89.44" gradientUnits="userSpaceOnUse" r="10"><stop offset="0" stop-color="#7f7f7f"/><stop offset="1" stop-color="#151515" stop-opacity=".99"/></radialGradient><linearGradient id="c" gradientUnits="userSpaceOnUse" spreadMethod="reflect" x1="-4.84" x2="-27.41" y1="-87.13" y2="-71.68"><stop offset="0" stop-color="#1a1a1a"/><stop offset="1" stop-color="#6e6e6e"/></linearGradient><linearGradient id="d" gradientUnits="userSpaceOnUse" x1="-26.05" x2="-63.69" y1="-68.3" y2="-113.15"><stop offset="0" stop-color="#888"/><stop offset="1" stop-color="#d2d2d2"/></linearGradient><linearGradient id="e" gradientTransform="matrix(.98 0 0 .97 1.04 1.08)" gradientUnits="userSpaceOnUse" spreadMethod="reflect" x1="116.01" x2="109.3" y1="72.41" y2="11.21"><stop offset="0"/><stop offset="1" stop-color="#292929"/></linearGradient><linearGradient id="f" gradientTransform="matrix(.95 0 0 1.09 -3.4 -5.23)" gradientUnits="userSpaceOnUse" spreadMethod="reflect" x1="90.18" x2="91.52" y1="38.18" y2="51.67"><stop offset="0" stop-color="#fff"/><stop offset="1" stop-color="#a8a8a8"/></linearGradient><rect fill="url(#e)" height="74.05" ry="5.43" stroke="#000" stroke-width="1.95" width="116.05" x="4.98" y="4.98"/><g transform="matrix(.57 0 0 .57 56.18 91.22)"><path d="m-1.01-86.55a35.6 35.6 0 0 1 -35.6 35.6 35.6 35.6 0 0 1 -35.6-35.6 35.6 35.6 0 0 1 35.6-35.6 35.6 35.6 0 0 1 35.6 35.6z" fill="url(#d)" opacity=".99"/><path d="m-3.61-86.55a33 33 0 0 1 -33 33 33 33 0 0 1 -33-33 33 33 0 0 1 33-33 33 33 0 0 1 33 33z" fill="url(#c)" opacity=".99"/><path d="m-11.26-86.57a25 25 0 0 1 -25 25 25 25 0 0 1 -25-25 25 25 0 0 1 25-25 25 25 0 0 1 25 25z" fill="url(#a)" opacity=".99"/><path d="m-26.72-86.05a10 10 0 0 1 -10 10 10 10 0 0 1 -10-10 10 10 0 0 1 10-10 10 10 0 0 1 10 10z" fill="url(#b)" opacity=".99"/></g><path d="m95.89 29.5v4.41h3.47v19.94h3.86v-24.35zm-18.84.63c-1.19 0-2.38.01-3.57 0-2.04-.17-4.18 1-5.08 3.17-.77 1.54-.67 3.33-.66 5.03.02.51.04 1.07.15 1.58.43 2.61 2.59 4.45 4.83 4.62 3.54.05 7.08.01 10.61.02-.01.8.03 1.61-.03 2.4-.12 1.78-1.58 3-3.05 3.11-3.26.05-6.51.01-9.77.02v4.41h6.77c2.06-.05 4.24.28 6.14-.89 2.07-1.07 3.51-3.45 3.76-6.03.13-2 .04-4.01.07-6.01-.06-2.08.21-4.23-.43-6.22-.86-2.99-3.49-4.98-6.17-5.18-1.19-.03-2.38-.03-3.57-.03zm-3.64 4.42c.21 0 .42.01.61.01 2.18.02 4.37-.05 6.55.04 1.6.17 2.84 1.91 2.76 3.73v1.77h-10.18c-.95.14-1.72-.84-1.58-1.91.06-.95-.16-1.98.23-2.85.34-.69.97-.78 1.6-.79zm19.81 14.89c-.14-.01-.28 0-.42.04-.94.17-1.65 1.24-1.57 2.33.04 1.03.8 1.91 1.68 2.01 1.09.18 2.16-.92 2.13-2.18 0-1.14-.86-2.14-1.83-2.2z" fill="url(#f)" stroke-width="1.01"/></svg>