<svg height="64" viewBox="0 0 32 32" width="64" xmlns="http://www.w3.org/2000/svg"><path d="m0 8h24v24h-24z" fill="none"/><g opacity=".79" stroke-opacity="0"><path d="m28.1 4.83h-24.208c-1.479 0-2.69 1.21-2.69 2.69v16.139c0 1.479 1.21 2.69 2.69 2.69h6.724v2.69h10.759v-2.69h6.724c1.479 0 2.676-1.21 2.676-2.69l.013-16.139c0-1.479-1.21-2.69-2.69-2.69zm0 18.828h-24.208v-16.139h24.208z" fill-opacity=".662"/><g fill-opacity=".663" stroke-miterlimit="10"><path d="m5.027 18.593v3.935h4.87c0-1.551-1.375-1.463-3.525-1.483 0-1.546.072-2.452-1.345-2.452z" opacity="1"/><path d="m26.923 12.625v-3.935h-4.87c0 1.551 1.375 1.463 3.525 1.483 0 1.546-.072 2.452 1.345 2.452z" opacity="1"/></g></g><g style="fill-opacity:.824;font-family:Albanian;font-size:20;letter-spacing:0;stroke-width:.5;word-spacing:0"><text x="12.15" y="22.52"><tspan fill-opacity=".824" font-family="'Arial Black'" font-size="9.333" stroke-width=".5" x="12.15" y="22.52">HD</tspan></text><text x="4.42" y="14.37"><tspan fill-opacity=".824" font-family="'Arial Black'" font-size="8" stroke-width=".5" x="4.42" y="14.37">Full</tspan></text></g></svg>