<svg viewBox="0 0 128 128" xmlns="http://www.w3.org/2000/svg"><path d="M113.5 28.5h-16C92 28.5 86 32 82.2 36.8H46.3c-7.4 0-15.5 6-18 13.4l-1.2 3-4.4 12.5-4.6 13-5.4-15.4c-1.2-3.6.6-6.4 4.1-6.4h6.8l2.5-7H14.5C7 50 3.2 56 5.8 63.4l9.8 28 .7 1.7a8.2 8.2 0 0 0 2.7 3.3l3.8-11c0-.3 0-.5.2-.8l4.5-12.7 7.6-21.5c1.2-3.5 5.2-6.5 8.8-6.5h41.7l.7-1.9c.7-2 2.2-3.8 4.1-5 1.4-1 3-1.4 4.7-1.4h16c2.1 0 3.6 1 4.3 2.5.4 1.1.4 2.4 0 4l-4.8 13.6h-.1l-4 11-6.2 17.8a10.1 10.1 0 0 1-8.7 6.6H45.4l.5-1.5 1.4-3.8.2-.9c2-5.5 3.4-11.2 5.5-16.5 1-2.4 2.6-4.8 4.7-6.2 1.7-1.2 4.3-1.8 7.4-2H91l.4-1.2 3.4-9.6H69.6c-9.1 0-15.6 1.9-20 5.9a44 44 0 0 0-10.4 18l-4.1 11.5-.3.9-1.3 3.8-.6 1.5-.2.3-.7 2.5-1.4 4h58.5c7.4 0 15.5-5.9 18-13.3l4.8-13.2 3.8-11 6.6-18.4c2.4-7.3-1.5-13.3-8.8-13.3z"/><path d="M76 67.3C67.4 67.3 61 69 57 73a36 36 0 0 0-7.7 11.4l1.3-1.3c4.1-3.9 10.4-5.7 19.1-5.7H85l3.5-10.1H77.1z" fill="#d43739"/></svg>