<svg xmlns="http://www.w3.org/2000/svg" viewBox="0 0 128 128"><g stroke-width="1.3517"><path d="m14 101.7 5.1 9c1.1 2 2.7 3.4 4.5 4.5L42.2 83H5c0 2.1.5 4.2 1.6 6z" fill="#0066da"/><path d="M64 45.2 45.4 13c-1.8 1-3.4 2.6-4.4 4.5L6.6 76.9A12.2 12.2 0 0 0 5 83h37.2z" fill="#00ac47"/><path d="M104.4 115.2c1.8-1.1 3.4-2.6 4.5-4.5l2.1-3.7 10.4-18c1-1.8 1.6-3.9 1.6-6H85.8l8 15.6z" fill="#ea4335"/><path d="M64 45.2 82.6 13c-1.8-1-4-1.6-6.1-1.6h-25c-2.2 0-4.3.6-6 1.6z" fill="#00832d"/><path d="M85.8 83H42.2l-18.6 32.2c1.8 1 3.9 1.6 6 1.6h68.7c2.2 0 4.3-.6 6.1-1.6z" fill="#2684fc"/><path d="M104.2 47.2 87 17.5c-1-2-2.6-3.4-4.4-4.5L64 45.2 85.8 83H123c0-2-.5-4.2-1.6-6z" fill="#ffba00"/></g></svg>