<?xml version="1.0" encoding="UTF-8"?>
<svg width="128" height="128" version="1.1" viewBox="0 0 128 128" xmlns="http://www.w3.org/2000/svg">
	<g transform="matrix(1.45 0 0 1.45 6 6)">
		<path d="m29.3 63.5-4.05 4.02c-3.51 3.48-9.22 3.48-12.7 0-1.69-1.67-2.61-3.9-2.61-6.26s0.927-4.58 2.61-6.26l14.9-14.8c3.09-3.06 8.9-7.57 13.1-3.37 1.94 1.93 5.08 1.92 7.01-0.025 1.93-1.94 1.92-5.08-0.025-7.01-7.2-7.14-17.8-5.82-27.1 3.37l-14.9 14.8c-3.58 3.55-5.54 8.27-5.54 13.3s1.97 9.74 5.54 13.3c3.68 3.65 8.51 5.47 13.3 5.47 4.83 0 9.67-1.82 13.3-5.48l4.05-4.02c1.94-1.93 1.95-5.07 0.023-7.01-1.93-1.94-5.07-1.95-7.01-0.023z" fill="#0760ae"/>
		<path d="m75 8.79c-7.73-7.67-18.5-8.09-25.7-0.986l-5.05 5.01c-1.94 1.93-1.96 5.07-0.025 7.01s5.07 1.95 7.01 0.025l5.04-5.01c3.71-3.68 8.56-2.16 11.7 0.986 1.69 1.67 2.62 3.9 2.62 6.26 0 2.36-0.928 4.59-2.61 6.26l-15.9 15.8c-7.27 7.21-10.7 3.83-12.1 2.38-1.94-1.93-5.36-1.63-7.01 0.025-1.65 1.66-1.92 5.08 0.025 7.01 3.34 3.31 7.15 4.95 11.1 4.95 4.89 0 10.1-2.46 15-7.34l15.9-15.8c3.57-3.55 5.54-8.27 5.54-13.3 0-5.02-1.97-9.74-5.55-13.3z" fill="#0c86e3"/>
	</g>
</svg>
