<svg xmlns="http://www.w3.org/2000/svg" xml:space="preserve" width="600" height="600"><g style="opacity:1;fill:#d400aa;stroke-width:0;stroke-miterlimit:4;stroke-dasharray:none;stroke:none" transform="translate(-802.0796 -306.8504) scale(.81672)"><circle style="fill:#d400aa;fill-opacity:1;stroke:none;stroke-width:0;stroke-miterlimit:4;stroke-dasharray:none;stroke-opacity:1" cx="1349.4008" cy="743.0356" r="353.3417"/></g><g transform="translate(-1059.0584 -449.3885)"><path style="color:#000;font-style:normal;font-variant:normal;font-weight:400;font-stretch:normal;font-size:medium;line-height:normal;font-family:sans-serif;font-variant-ligatures:normal;font-variant-position:normal;font-variant-caps:normal;font-variant-numeric:normal;font-variant-alternates:normal;font-variant-east-asian:normal;font-feature-settings:normal;font-variation-settings:normal;text-indent:0;text-align:start;text-decoration:none;text-decoration-line:none;text-decoration-style:solid;text-decoration-color:#000;letter-spacing:normal;word-spacing:normal;text-transform:none;writing-mode:lr-tb;direction:ltr;text-orientation:mixed;dominant-baseline:auto;baseline-shift:baseline;text-anchor:start;white-space:normal;shape-padding:0;shape-margin:0;inline-size:0;clip-rule:nonzero;display:inline;overflow:visible;visibility:visible;isolation:auto;mix-blend-mode:normal;color-interpolation:sRGB;color-interpolation-filters:linearRGB;solid-color:#000;solid-opacity:1;vector-effect:none;fill:#fff;fill-opacity:1;fill-rule:evenodd;stroke:none;stroke-linecap:butt;stroke-linejoin:miter;stroke-miterlimit:4;stroke-dasharray:none;stroke-dashoffset:0;stroke-opacity:1;color-rendering:auto;image-rendering:auto;shape-rendering:auto;text-rendering:auto;enable-background:accumulate;stop-color:#000" d="M1388.5391 656.8086a34.3237 34.3237 0 0 0-34.3243 34.3242 34.3237 34.3237 0 0 0 13.9688 27.6348c.6274.6441 1.3239 1.2751 2.1055 1.8965l47.6406 31.9472c11.3116 7.852 16.5179 25.2757 1.1367 35.1582-12.3856 7.8066-25.5701 16.2217-39.5195 25.1895-31.3383 20.1466-64.561 41.5612-93.3594 59.2285-12.2959 7.099-17.3909-3.6353-17.418-12.7715-.078-26.202-.1562-58.142-.1562-117.8086-.6304-21.1717-.6152-34.4004-35.4082-34.4004-33.5453 0-34.3926 16.8433-34.3926 34.4004 0 79.5917.1446 114.8744.2305 139.5059.1832 5.6656-1.8934 9.5891-5.1563 10.168-4.5095.3156-8.3069.377-12.3164.3144-19.9303-.0006-36.0875 17.3783-36.0879 37.3086-.0006 19.931 16.1374 37.9616 36.0684 37.961 7.7525-.0227 15.5547.0186 22.6308.0253 30.6976 0 56.7586 2.1804 122.0176-37.9824s88.7061-55.5732 144.1153-92.7187c49.0927-34.8933 47.5043-95.6037 4.0468-126.1954-24.6113-18.329-45.349-33.7957-65.4082-47.1308-1.5178-.7786-2.9095-1.43-4.209-1.9863a34.3237 34.3237 0 0 0-16.205-4.0684z" transform="translate(56.5298 -22.1228)"/><ellipse style="fill:#fff;fill-opacity:1;stroke:#000;stroke-width:0;stroke-miterlimit:4;stroke-dasharray:none;stroke-opacity:1" cx="1286.8368" cy="601.7565" rx="50.5244" ry="50.2904"/></g></svg>