<svg height="150" viewBox="0 0 225 150" width="225" xmlns="http://www.w3.org/2000/svg"><linearGradient id="a" gradientUnits="userSpaceOnUse" spreadMethod="reflect" x1="18.25" x2="18.25" y1="22.26" y2="1.26"><stop offset="0" stop-color="#afafaf"/><stop offset=".259658" stop-color="#928f8f"/><stop offset=".337191" stop-color="#969696"/><stop offset=".370242" stop-color="#888"/><stop offset=".372962" stop-color="#c0c0c0"/><stop offset=".708052" stop-color="#a2a2a2"/><stop offset="1" stop-color="#d9d9d9"/></linearGradient><linearGradient id="b" gradientUnits="userSpaceOnUse" x1="4.83" x2="4.83" y1=".96" y2="21.77"><stop offset="0" stop-color="#3e3e3e"/><stop offset=".21101" stop-color="#525252"/><stop offset=".647485" stop-color="#666"/><stop offset=".651012" stop-color="#272727"/><stop offset="1" stop-color="#585858"/></linearGradient><linearGradient id="c" gradientUnits="userSpaceOnUse" spreadMethod="reflect" x1="16.67" x2="16.67" y1="11.34" y2="7.72"><stop offset="0" stop-color="#505050"/><stop offset="1" stop-color="#0d0d0d"/></linearGradient><path d="m2.38 1.06h28.57c.59 0 1.06.47 1.06 1.06v17.99c0 .59-.47 1.06-1.06 1.06h-28.57c-.59 0-1.06-.47-1.06-1.06v-17.99c0-.59.47-1.06 1.06-1.06zm0 0" fill="url(#a)" stroke="url(#b)" stroke-width=".4" transform="matrix(6.75 0 0 6.75 .02 0)"/><g fill="#ffe600"><path d="m74.71 108.84h15.39v6.34h-15.39zm0 0"/><path d="m135.78 124.16h22.74v6.34h-22.74zm0 0"/><path d="m95.16 108.84h47.37v6.34h-47.37zm0 0"/><path d="m58.72 124.16h69.98v6.34h-69.98zm0 0"/><path d="m173.16 104.25-7.62 31.71h4.32l7.69-31.71zm6.48 2.9v7.42l14.44 5.54-14.44 5.6v7.35l23.82-9.92v-6.2zm-134.28-.06-23.82 9.85v6.2l23.82 9.92v-7.42l-14.44-5.6 14.44-5.53zm0 0"/></g><g fill="url(#c)" stroke="#101010" stroke-width=".26"><path d="m9.89 11.12h-2.75c-.07 0-.15-.01-.23-.02-.08-.02-.16-.05-.24-.08-.07-.04-.15-.09-.22-.14-.07-.06-.14-.13-.2-.2-.05-.08-.1-.17-.13-.28s-.05-.22-.05-.35v-2.07c0-.07.01-.15.02-.23.02-.08.05-.16.09-.23.03-.08.08-.16.13-.23.06-.07.13-.14.21-.19.08-.06.17-.11.27-.14.11-.03.22-.05.35-.05h2.75v.77h-2.75c-.1 0-.18.03-.23.08s-.08.13-.08.23v2.06c0 .1.03.18.08.23s.13.08.23.08h2.75zm0 0" transform="matrix(6.75 0 0 6.75 .02 0)"/><path d="m14.35 9.4h-2.41v-.77h2.41zm.34-1.72h-3.05v3.44h-.76v-3.82c0-.05.01-.1.03-.15s.05-.09.08-.12.07-.06.12-.08.1-.03.15-.03h3.43zm0 0" transform="matrix(6.75 0 0 6.75 .02 0)"/><path d="m19.04 9.4h-2.4v-.77h2.41zm.34-1.72h-3.05v3.44h-.76v-3.82c0-.05.01-.1.03-.15s.05-.09.08-.12.07-.06.12-.08.1-.03.15-.03h3.43zm0 0" transform="matrix(6.75 0 0 6.75 .02 0)"/><path d="m22.87 9.36h-2.74v-.69h2.75zm0 0" transform="matrix(6.75 0 0 6.75 .02 0)"/><path d="m27.54 7.68h-1.68v3.44h-.76v-3.44h-1.68v-.77h4.12zm0 0" transform="matrix(6.75 0 0 6.75 .02 0)"/></g></svg>