<svg height="150" viewBox="0 0 225 150" width="225" xmlns="http://www.w3.org/2000/svg"><linearGradient id="a" gradientUnits="userSpaceOnUse" spreadMethod="reflect" x1="18.25" x2="18.25" y1="22.26" y2="1.26"><stop offset="0" stop-color="#afafaf"/><stop offset=".259658" stop-color="#928f8f"/><stop offset=".337191" stop-color="#969696"/><stop offset=".370242" stop-color="#888"/><stop offset=".372962" stop-color="#c0c0c0"/><stop offset=".708052" stop-color="#a2a2a2"/><stop offset="1" stop-color="#d9d9d9"/></linearGradient><linearGradient id="b" gradientUnits="userSpaceOnUse" x1="4.83" x2="4.83" y1=".96" y2="21.77"><stop offset="0" stop-color="#3e3e3e"/><stop offset=".21101" stop-color="#525252"/><stop offset=".647485" stop-color="#666"/><stop offset=".651012" stop-color="#272727"/><stop offset="1" stop-color="#585858"/></linearGradient><linearGradient id="c" gradientUnits="userSpaceOnUse" spreadMethod="reflect" x1="16.67" x2="16.67" y1="11.34" y2="7.72"><stop offset="0" stop-color="#505050"/><stop offset="1" stop-color="#0d0d0d"/></linearGradient><path d="m2.38 1.06h28.57c.59 0 1.06.47 1.06 1.06v17.99c0 .59-.47 1.06-1.06 1.06h-28.57c-.59 0-1.06-.47-1.06-1.06v-17.99c0-.59.47-1.06 1.06-1.06zm0 0" fill="url(#a)" stroke="url(#b)" stroke-width=".4" transform="matrix(6.75 0 0 6.75 .02 0)"/><g fill="#ffe600"><path d="m74.71 108.84h15.39v6.34h-15.39zm0 0"/><path d="m135.78 124.16h22.74v6.34h-22.74zm0 0"/><path d="m95.16 108.84h47.37v6.34h-47.37zm0 0"/><path d="m58.72 124.16h69.98v6.34h-69.98zm0 0"/><path d="m173.16 104.25-7.62 31.71h4.32l7.69-31.71zm6.48 2.9v7.42l14.44 5.54-14.44 5.6v7.35l23.82-9.92v-6.2zm-134.28-.06-23.82 9.85v6.2l23.82 9.92v-7.42l-14.44-5.6 14.44-5.53zm0 0"/></g><g fill="url(#c)" stroke="#101010" stroke-width=".26"><path d="m12.92 11.12h-3.4c-.09 0-.18-.01-.28-.03-.1-.03-.2-.06-.3-.1-.09-.05-.18-.1-.27-.17s-.17-.15-.24-.25-.12-.21-.17-.34c-.04-.13-.06-.27-.06-.44v-2.54c0-.09.01-.18.03-.28s.05-.2.1-.3c.04-.1.1-.19.17-.28s.15-.17.25-.24.21-.12.34-.16.27-.06.43-.06h3.4v.94h-3.4c-.12 0-.21.03-.28.1s-.1.16-.1.29v2.54c0 .12.03.21.1.28s.16.1.28.1h3.39zm0 0" transform="matrix(6.75 0 0 6.75 .02 0)"/><path d="m19.26 5.93-2.46 5c-.04.08-.1.14-.17.18-.07.05-.16.07-.25.07s-.17-.02-.25-.07c-.07-.05-.13-.11-.17-.18l-2.45-5h1.05l1.82 3.74 1.83-3.74zm0 0" transform="matrix(6.75 0 0 6.75 .02 0)"/><path d="m25.24 8.94c0 .31-.06.6-.17.87s-.26.5-.45.69-.42.34-.69.45-.55.17-.86.17h-2.54c-.07 0-.13-.01-.19-.04s-.11-.06-.15-.1c-.04-.05-.07-.1-.1-.15-.03-.06-.04-.12-.04-.19v-4.24c0-.07.01-.13.04-.18.03-.06.06-.11.1-.15.05-.05.1-.08.15-.1.06-.03.12-.04.19-.04h2.54c.31 0 .6.05.86.16.27.11.5.26.69.45s.34.42.45.69.17.56.17.87zm-.94-.84c0-.18-.03-.35-.09-.5s-.14-.28-.25-.39-.24-.2-.39-.25c-.15-.06-.32-.09-.5-.09h-2.07v3.31h2.07c.18 0 .35-.03.5-.09s.28-.14.39-.25.19-.24.25-.39.09-.32.09-.51zm0 0" transform="matrix(6.75 0 0 6.75 .02 0)"/></g></svg>