<svg height="150" viewBox="0 0 225 150" width="225" xmlns="http://www.w3.org/2000/svg"><linearGradient id="a" gradientUnits="userSpaceOnUse" spreadMethod="reflect" x1="18.25" x2="18.25" y1="22.26" y2="1.26"><stop offset="0" stop-color="#afafaf"/><stop offset=".259658" stop-color="#928f8f"/><stop offset=".337191" stop-color="#969696"/><stop offset=".370242" stop-color="#888"/><stop offset=".372962" stop-color="#c0c0c0"/><stop offset=".708052" stop-color="#a2a2a2"/><stop offset="1" stop-color="#d9d9d9"/></linearGradient><linearGradient id="b" gradientUnits="userSpaceOnUse" x1="4.83" x2="4.83" y1=".96" y2="21.77"><stop offset="0" stop-color="#3e3e3e"/><stop offset=".21101" stop-color="#525252"/><stop offset=".647485" stop-color="#666"/><stop offset=".651012" stop-color="#272727"/><stop offset="1" stop-color="#585858"/></linearGradient><linearGradient id="c" gradientUnits="userSpaceOnUse" spreadMethod="reflect" x1="16.67" x2="16.67" y1="11.34" y2="7.72"><stop offset="0" stop-color="#505050"/><stop offset="1" stop-color="#0d0d0d"/></linearGradient><path d="m2.38 1.06h28.57c.59 0 1.06.47 1.06 1.06v17.99c0 .59-.47 1.06-1.06 1.06h-28.57c-.59 0-1.06-.47-1.06-1.06v-17.99c0-.59.47-1.06 1.06-1.06zm0 0" fill="url(#a)" stroke="url(#b)" stroke-width=".4" transform="matrix(6.75 0 0 6.75 .02 0)"/><g fill="#ffe600"><path d="m74.71 108.84h15.39v6.34h-15.39zm0 0"/><path d="m135.78 124.16h22.74v6.34h-22.74zm0 0"/><path d="m95.16 108.84h47.37v6.34h-47.37zm0 0"/><path d="m58.72 124.16h69.98v6.34h-69.98zm0 0"/><path d="m173.16 104.25-7.62 31.71h4.32l7.69-31.71zm6.48 2.9v7.42l14.44 5.54-14.44 5.6v7.35l23.82-9.92v-6.2zm-134.28-.06-23.82 9.85v6.2l23.82 9.92v-7.42l-14.44-5.6 14.44-5.53zm0 0"/></g><g fill="url(#c)" stroke="#101010" stroke-width=".26"><path d="m14.18 5.81c0 .22-.04.42-.12.61-.07.19-.18.35-.32.48-.13.13-.29.24-.48.31s-.39.11-.61.11h-1.78c-.05 0-.09-.01-.13-.03s-.08-.04-.11-.07-.05-.07-.07-.11-.03-.08-.03-.13v-2.95c0-.05.01-.09.03-.13s.04-.08.07-.11.07-.06.11-.07c.04-.02.08-.03.13-.03h1.78c.22 0 .42.04.61.11s.35.18.48.32c.13.13.24.29.32.48s.12.39.12.61zm-.66-.59c0-.13-.02-.24-.06-.35-.05-.11-.11-.2-.18-.28-.08-.07-.17-.13-.28-.17-.1-.04-.22-.06-.35-.06h-1.45v2.32h1.45c.13 0 .24-.02.35-.06s.2-.1.27-.18c.07-.07.13-.16.18-.27.04-.11.06-.23.06-.36zm0 0" transform="matrix(6.75 0 0 6.75 .02 0)"/><path d="m18.68 3.69-1.72 3.51c-.03.05-.07.1-.12.13s-.11.05-.18.05c-.06 0-.12-.02-.18-.05-.05-.03-.09-.08-.12-.13l-1.72-3.51h.74l1.28 2.62 1.28-2.62zm0 0" transform="matrix(6.75 0 0 6.75 .02 0)"/><path d="m22.99 6.54c0 .08-.01.17-.04.26s-.07.18-.14.26c-.06.08-.14.15-.25.2-.1.05-.22.08-.37.08h-2.51c-.05 0-.09-.01-.13-.03s-.08-.04-.11-.07-.05-.07-.07-.11-.03-.08-.03-.13v-2.97c0-.05.01-.09.03-.13s.04-.08.07-.11.07-.06.11-.07c.04-.02.08-.03.13-.03h2.21c.08 0 .17.01.26.04s.18.07.26.14c.08.06.15.14.2.25.05.1.08.22.08.37v.12c0 .12-.02.25-.06.38s-.1.26-.19.38c.07.05.14.1.21.17s.12.14.17.22c.05.09.09.18.12.29s.04.22.04.35zm-.66-.13c0-.09-.01-.16-.04-.23s-.06-.13-.11-.18-.11-.08-.18-.11-.15-.04-.24-.04h-1.48v-.67h1.19c.09 0 .16-.01.23-.04s.13-.06.18-.11.08-.11.11-.18.04-.14.04-.23v-.12c0-.09-.05-.14-.14-.14h-1.88v2.32h2.18.04c.02 0 .04-.01.05-.02s.03-.02.04-.04.02-.05.02-.08zm0 0" transform="matrix(6.75 0 0 6.75 .02 0)"/><path d="m13.94 9.91h-1.46v2.98h-.66v-2.98h-1.45v-.66h3.57zm0 0" transform="matrix(6.75 0 0 6.75 .02 0)"/><path d="m17.31 11.06c0 .09-.02.19-.05.3s-.09.2-.16.29-.17.16-.28.23c-.11.06-.25.09-.42.09h-1.19v-.63h1.19c.09 0 .16-.03.21-.08s.07-.12.07-.21-.03-.15-.08-.2-.12-.07-.2-.07h-1.19c-.09 0-.16.03-.21.08s-.07.12-.07.2v.92c0 .09.03.16.08.21s.12.07.21.07h1.19v.63h-1.19c-.09 0-.19-.02-.3-.05s-.2-.08-.29-.15-.16-.17-.23-.28c-.06-.12-.09-.26-.09-.42v-.93c0-.09.02-.19.05-.29.03-.11.08-.2.15-.29s.17-.17.28-.23c.12-.06.26-.09.42-.09h1.19c.09 0 .19.02.29.05.11.03.2.09.29.16s.17.17.23.28.09.25.09.42zm0 0" transform="matrix(6.75 0 0 6.75 .02 0)"/><path d="m19.26 12.89h-.29c-.09 0-.19-.02-.3-.05s-.21-.09-.3-.16-.17-.17-.23-.29-.09-.26-.09-.43v-2.97h.66v2.98c0 .08.03.15.08.2s.12.07.19.07h.29zm0 0" transform="matrix(6.75 0 0 6.75 .02 0)"/><path d="m22.94 11.06c0 .09-.02.19-.05.3s-.09.2-.16.29-.17.16-.28.23c-.11.06-.25.09-.42.09h-1.19v-.63h1.19c.09 0 .16-.03.21-.08s.07-.12.07-.21-.03-.15-.08-.2-.12-.07-.2-.07h-1.19c-.09 0-.16.03-.21.08s-.07.12-.07.2v.92c0 .09.03.16.08.21s.12.07.21.07h1.19v.63h-1.19c-.09 0-.19-.02-.3-.05s-.2-.08-.29-.15-.16-.17-.23-.28c-.06-.12-.09-.26-.09-.42v-.93c0-.09.02-.19.05-.29.03-.11.08-.2.15-.29s.17-.17.28-.23c.12-.06.26-.09.42-.09h1.19c.09 0 .19.02.29.05.11.03.2.09.29.16s.17.17.23.28.09.25.09.42zm0 0" transform="matrix(6.75 0 0 6.75 .02 0)"/></g></svg>