<svg height="150" viewBox="0 0 225 150" width="225" xmlns="http://www.w3.org/2000/svg"><linearGradient id="a" gradientUnits="userSpaceOnUse" spreadMethod="reflect" x1="18.25" x2="18.25" y1="22.26" y2="1.26"><stop offset="0" stop-color="#afafaf"/><stop offset=".259658" stop-color="#928f8f"/><stop offset=".337191" stop-color="#969696"/><stop offset=".370242" stop-color="#888"/><stop offset=".372962" stop-color="#c0c0c0"/><stop offset=".708052" stop-color="#a2a2a2"/><stop offset="1" stop-color="#d9d9d9"/></linearGradient><linearGradient id="b" gradientUnits="userSpaceOnUse" x1="4.83" x2="4.83" y1=".96" y2="21.77"><stop offset="0" stop-color="#3e3e3e"/><stop offset=".21101" stop-color="#525252"/><stop offset=".647485" stop-color="#666"/><stop offset=".651012" stop-color="#272727"/><stop offset="1" stop-color="#585858"/></linearGradient><linearGradient id="c" gradientUnits="userSpaceOnUse" spreadMethod="reflect" x1="16.67" x2="16.67" y1="11.34" y2="7.72"><stop offset="0" stop-color="#505050"/><stop offset="1" stop-color="#0d0d0d"/></linearGradient><path d="m2.38 1.06h28.57c.59 0 1.06.47 1.06 1.06v17.99c0 .59-.47 1.06-1.06 1.06h-28.57c-.59 0-1.06-.47-1.06-1.06v-17.99c0-.59.47-1.06 1.06-1.06zm0 0" fill="url(#a)" stroke="url(#b)" stroke-width=".4" transform="matrix(6.75 0 0 6.75 .02 0)"/><g fill="#ffe600"><path d="m74.71 108.84h15.39v6.34h-15.39zm0 0"/><path d="m135.78 124.16h22.74v6.34h-22.74zm0 0"/><path d="m95.16 108.84h47.37v6.34h-47.37zm0 0"/><path d="m58.72 124.16h69.98v6.34h-69.98zm0 0"/><path d="m173.16 104.25-7.62 31.71h4.32l7.69-31.71zm6.48 2.9v7.42l14.44 5.54-14.44 5.6v7.35l23.82-9.92v-6.2zm-134.28-.06-23.82 9.85v6.2l23.82 9.92v-7.42l-14.44-5.6 14.44-5.53zm0 0"/></g><g fill="url(#c)" stroke="#101010" stroke-width=".26"><path d="m5.5 8.69h-1.84v-.59h1.84zm.27 1.31h-2.11c-.08 0-.17-.01-.27-.04-.09-.03-.18-.07-.26-.14s-.15-.15-.21-.25c-.05-.11-.08-.24-.08-.39v-2.1c0-.04.01-.08.02-.11s.03-.06.06-.09.06-.05.09-.06.07-.02.12-.02h2.64v.57h-2.34v1.82c0 .07.02.13.06.18.04.04.1.06.18.06h2.1zm0 0" transform="matrix(6.75 0 0 6.75 .02 0)"/><path d="m9.81 9.3c0 .07-.01.15-.04.23s-.07.16-.12.23-.13.12-.22.17-.2.07-.33.07h-2.22c-.04 0-.08-.01-.12-.02-.03-.01-.06-.03-.09-.06s-.05-.06-.06-.09-.02-.07-.02-.12v-2.63c0-.04.01-.08.02-.11s.03-.06.06-.09.06-.05.09-.06.07-.02.12-.02h1.95c.07 0 .15.01.23.04s.16.07.23.12.13.13.18.22.07.2.07.33v.11c0 .1-.02.21-.05.33s-.09.23-.17.34c.07.04.13.09.18.15.06.06.11.13.15.2.05.07.08.16.1.25.03.09.04.2.04.31zm-.59-.12c0-.07-.01-.14-.04-.2-.02-.06-.05-.11-.09-.16-.05-.04-.1-.07-.16-.1-.06-.02-.13-.03-.21-.03h-1.31v-.59h1.05c.07 0 .14-.01.21-.03.06-.03.11-.06.16-.1.05-.05.08-.1.1-.15.03-.06.04-.13.04-.21v-.12c0-.09-.04-.13-.12-.13h-1.68v2.05h1.93.04c.01 0 .03 0 .04-.01s.02-.02.03-.04.01-.04.01-.07zm0 0" transform="matrix(6.75 0 0 6.75 .02 0)"/><path d="m13.72 9.71c0 .04-.01.08-.02.12-.01.03-.03.06-.06.09s-.06.05-.09.06-.07.02-.11.02h-1.32c-.13 0-.25-.01-.38-.04s-.26-.07-.38-.12c-.12-.06-.23-.13-.33-.22-.11-.09-.2-.19-.28-.3-.08-.12-.14-.26-.19-.41-.04-.15-.06-.33-.06-.52v-1.61h.58v1.61c0 .17.02.31.07.42s.11.21.18.29c.07.07.15.13.23.18.09.05.17.08.24.1s.14.03.2.04.1.01.11.01h1.03v-2.64h.58zm0 0" transform="matrix(6.75 0 0 6.75 .02 0)"/><path d="m16.69 8.66h-2.11v-.53h2.11zm0 0" transform="matrix(6.75 0 0 6.75 .02 0)"/><path d="m20.33 7.37h-1.29v2.63h-.59v-2.63h-1.28v-.59h3.16zm0 0" transform="matrix(6.75 0 0 6.75 .02 0)"/><path d="m23.93 7.37h-1.29v2.63h-.58v-2.63h-1.29v-.59h3.16zm0 0" transform="matrix(6.75 0 0 6.75 .02 0)"/><path d="m26.51 8.66h-2.11v-.53h2.11zm0 0" transform="matrix(6.75 0 0 6.75 .02 0)"/><path d="m30.59 8.66c0 .19-.03.37-.1.54-.07.16-.16.3-.28.42s-.26.21-.43.28-.35.1-.54.1h-1.58c-.04 0-.08-.01-.12-.02-.03-.01-.06-.03-.09-.06s-.05-.06-.06-.09-.02-.07-.02-.12v-2.63c0-.04.01-.08.02-.11s.03-.06.06-.09.06-.05.09-.06.07-.02.12-.02h1.58c.19 0 .37.03.54.1s.31.16.43.28.21.26.28.43.1.35.1.54zm-.58-.53c0-.11-.02-.22-.06-.31-.03-.09-.08-.17-.15-.24s-.16-.12-.25-.16c-.09-.03-.2-.05-.31-.05h-1.29v2.05h1.29c.11 0 .22-.02.31-.05.09-.04.17-.09.24-.15.07-.07.12-.15.15-.24.04-.09.06-.2.06-.31zm0 0" transform="matrix(6.75 0 0 6.75 .02 0)"/></g></svg>