<svg height="150" viewBox="0 0 225 150" width="225" xmlns="http://www.w3.org/2000/svg"><linearGradient id="a" gradientUnits="userSpaceOnUse" spreadMethod="reflect" x1="18.25" x2="18.25" y1="22.26" y2="1.26"><stop offset="0" stop-color="#afafaf"/><stop offset=".259658" stop-color="#928f8f"/><stop offset=".337191" stop-color="#969696"/><stop offset=".370242" stop-color="#888"/><stop offset=".372962" stop-color="#c0c0c0"/><stop offset=".708052" stop-color="#a2a2a2"/><stop offset="1" stop-color="#d9d9d9"/></linearGradient><linearGradient id="b" gradientUnits="userSpaceOnUse" x1="4.83" x2="4.83" y1=".96" y2="21.77"><stop offset="0" stop-color="#3e3e3e"/><stop offset=".21101" stop-color="#525252"/><stop offset=".647485" stop-color="#666"/><stop offset=".651012" stop-color="#272727"/><stop offset="1" stop-color="#585858"/></linearGradient><linearGradient id="c" gradientUnits="userSpaceOnUse" spreadMethod="reflect" x1="16.67" x2="16.67" y1="11.34" y2="7.72"><stop offset="0" stop-color="#505050"/><stop offset="1" stop-color="#0d0d0d"/></linearGradient><path d="m2.38 1.06h28.57c.59 0 1.06.47 1.06 1.06v17.99c0 .59-.47 1.06-1.06 1.06h-28.57c-.59 0-1.06-.47-1.06-1.06v-17.99c0-.59.47-1.06 1.06-1.06zm0 0" fill="url(#a)" stroke="url(#b)" stroke-width=".4" transform="matrix(6.75 0 0 6.75 .02 0)"/><g fill="#ffe600"><path d="m74.71 108.84h15.39v6.34h-15.39zm0 0"/><path d="m135.78 124.16h22.74v6.34h-22.74zm0 0"/><path d="m95.16 108.84h47.37v6.34h-47.37zm0 0"/><path d="m58.72 124.16h69.98v6.34h-69.98zm0 0"/><path d="m173.16 104.25-7.62 31.71h4.32l7.69-31.71zm6.48 2.9v7.42l14.44 5.54-14.44 5.6v7.35l23.82-9.92v-6.2zm-134.28-.06-23.82 9.85v6.2l23.82 9.92v-7.42l-14.44-5.6 14.44-5.53zm0 0"/></g><g fill="url(#c)" stroke="#101010" stroke-width=".26"><path d="m6.91 8.69h-1.85v-.59h1.85zm.26 1.31h-2.11c-.08 0-.17-.01-.27-.04-.09-.03-.18-.07-.26-.14s-.15-.15-.2-.25c-.06-.11-.09-.24-.09-.39v-2.1c0-.04.01-.08.02-.11s.03-.06.06-.09.06-.05.09-.06.07-.02.12-.02h2.64v.57h-2.34v1.82c0 .07.02.13.06.18.04.04.1.06.18.06h2.1zm0 0" transform="matrix(6.75 0 0 6.75 .02 0)"/><path d="m11.21 9.3c0 .07-.01.15-.04.23s-.07.16-.12.23-.13.13-.22.18c-.09.04-.2.06-.33.06h-2.21c-.04 0-.08-.01-.12-.02-.03-.01-.06-.03-.09-.06s-.05-.06-.06-.09c-.02-.04-.03-.08-.03-.12v-2.63c0-.04.01-.08.02-.11s.03-.06.06-.09.06-.05.09-.06.07-.02.12-.02h1.95c.07 0 .15.01.23.04s.16.07.23.12.13.13.18.22.07.2.07.33v.11c0 .1-.02.21-.05.33s-.09.23-.17.34c.07.04.13.09.18.15.06.06.11.13.15.2.05.07.08.16.1.25.03.09.04.2.04.31zm-.58-.12c0-.07-.01-.14-.04-.2s-.06-.11-.1-.16c-.05-.05-.1-.08-.16-.1-.06-.03-.13-.04-.21-.04h-1.31v-.58h1.05c.07 0 .14-.01.21-.03.06-.03.11-.06.16-.1.05-.05.08-.1.1-.15.03-.06.04-.13.04-.21v-.12c0-.09-.04-.13-.12-.13h-1.67v2.05h1.93.04c.01 0 .03 0 .04-.01s.02-.02.03-.04.01-.04.01-.07zm0 0" transform="matrix(6.75 0 0 6.75 .02 0)"/><path d="m15.12 9.71c0 .04-.01.08-.02.12-.01.03-.03.06-.06.09s-.06.05-.09.06-.07.02-.11.02h-1.32c-.13 0-.25-.01-.38-.04s-.26-.07-.38-.12c-.11-.06-.22-.13-.33-.22s-.2-.19-.28-.3c-.07-.12-.13-.26-.18-.41s-.07-.33-.07-.52v-1.61h.58v1.61c0 .17.02.31.07.42s.11.21.18.29c.07.07.15.13.23.18.09.05.17.08.24.1s.14.03.2.04.1.01.11.01h1.03v-2.64h.58zm0 0" transform="matrix(6.75 0 0 6.75 .02 0)"/><path d="m18.09 8.66h-2.1v-.53h2.1zm0 0" transform="matrix(6.75 0 0 6.75 .02 0)"/><path d="m22.05 9.06c0 .11-.01.22-.04.31s-.06.17-.11.24-.1.13-.17.18-.13.09-.2.12-.14.06-.21.07-.14.02-.21.02h-2.25v-.58h2.25c.11 0 .2-.03.26-.1s.09-.16.09-.27c0-.05-.01-.1-.02-.15s-.04-.09-.07-.12-.06-.06-.11-.08-.1-.03-.15-.03h-1.34c-.09 0-.2-.02-.31-.05s-.21-.09-.31-.16c-.09-.07-.17-.17-.23-.29s-.09-.27-.09-.44.03-.32.09-.44.14-.22.23-.29.2-.13.31-.16.21-.05.31-.05h1.99v.58h-1.99c-.11 0-.2.03-.26.1s-.09.16-.09.27.03.2.09.27.15.1.26.1h1.34c.06 0 .13.01.2.03.07.01.14.04.21.07s.14.08.2.13.12.11.17.18.09.15.12.24.04.2.04.31zm0 0" transform="matrix(6.75 0 0 6.75 .02 0)"/><path d="m25.68 7.37h-1.29v2.63h-.58v-2.63h-1.29v-.59h3.16zm0 0" transform="matrix(6.75 0 0 6.75 .02 0)"/><path d="m29.33 10h-2.66c-.04 0-.08-.01-.12-.02-.03-.01-.06-.03-.09-.06s-.05-.06-.06-.09-.02-.07-.02-.12v-2.93h.58v2.64h2.37zm0 0" transform="matrix(6.75 0 0 6.75 .02 0)"/></g></svg>