<svg height="150" viewBox="0 0 225 150" width="225" xmlns="http://www.w3.org/2000/svg"><linearGradient id="a" gradientUnits="userSpaceOnUse" spreadMethod="reflect" x1="18.25" x2="18.25" y1="22.26" y2="1.26"><stop offset="0" stop-color="#afafaf"/><stop offset=".259658" stop-color="#928f8f"/><stop offset=".337191" stop-color="#969696"/><stop offset=".370242" stop-color="#888"/><stop offset=".372962" stop-color="#c0c0c0"/><stop offset=".708052" stop-color="#a2a2a2"/><stop offset="1" stop-color="#d9d9d9"/></linearGradient><linearGradient id="b" gradientUnits="userSpaceOnUse" x1="4.83" x2="4.83" y1=".96" y2="21.77"><stop offset="0" stop-color="#3e3e3e"/><stop offset=".21101" stop-color="#525252"/><stop offset=".647485" stop-color="#666"/><stop offset=".651012" stop-color="#272727"/><stop offset="1" stop-color="#585858"/></linearGradient><linearGradient id="c" gradientUnits="userSpaceOnUse" spreadMethod="reflect" x1="16.67" x2="16.67" y1="11.34" y2="7.72"><stop offset="0" stop-color="#505050"/><stop offset="1" stop-color="#0d0d0d"/></linearGradient><path d="m2.38 1.06h28.57c.59 0 1.06.47 1.06 1.06v17.99c0 .59-.47 1.06-1.06 1.06h-28.57c-.59 0-1.06-.47-1.06-1.06v-17.99c0-.59.47-1.06 1.06-1.06zm0 0" fill="url(#a)" stroke="url(#b)" stroke-width=".4" transform="matrix(6.75 0 0 6.75 .02 0)"/><g fill="#ffe600"><path d="m74.71 108.84h15.39v6.34h-15.39zm0 0"/><path d="m135.78 124.16h22.74v6.34h-22.74zm0 0"/><path d="m95.16 108.84h47.37v6.34h-47.37zm0 0"/><path d="m58.72 124.16h69.98v6.34h-69.98zm0 0"/><path d="m173.16 104.25-7.62 31.71h4.32l7.69-31.71zm6.48 2.9v7.42l14.44 5.54-14.44 5.6v7.35l23.82-9.92v-6.2zm-134.28-.06-23.82 9.85v6.2l23.82 9.92v-7.42l-14.44-5.6 14.44-5.53zm0 0"/></g><g fill="url(#c)" stroke="#101010" stroke-width=".26"><path d="m7.65 9.12h-2.16v-.69h2.16zm.31 1.55h-2.47c-.09 0-.2-.02-.31-.05-.12-.03-.23-.09-.32-.16-.09-.08-.17-.18-.24-.3-.07-.13-.1-.28-.1-.45v-2.48c0-.05.01-.09.03-.13s.04-.08.07-.11.07-.06.11-.07c.04-.02.09-.03.14-.03h3.09v.68h-2.75v2.14c0 .09.02.16.07.21s.12.07.21.07h2.47zm0 0" transform="matrix(6.75 0 0 6.75 .02 0)"/><path d="m12.67 9.84c0 .09-.01.18-.04.27-.03.1-.07.19-.14.27s-.15.15-.26.21c-.11.05-.24.08-.39.08h-2.61c-.05 0-.09-.01-.14-.03-.04-.02-.08-.04-.11-.07s-.05-.07-.07-.11-.03-.09-.03-.14v-3.09c0-.05.01-.09.03-.13s.04-.08.07-.11.07-.06.11-.07c.04-.02.09-.03.14-.03h2.3c.09 0 .18.01.27.04.1.03.19.08.27.15.09.07.16.15.21.26s.08.24.08.39v.13c0 .12-.02.25-.06.39s-.11.27-.2.4c.08.05.15.1.22.17s.13.14.18.23.09.19.12.3.04.24.04.37zm-.69-.13c0-.09-.01-.17-.04-.24s-.07-.14-.12-.19-.11-.09-.18-.12-.15-.04-.24-.04h-1.55v-.69h1.24c.09 0 .17-.01.24-.04s.13-.07.18-.12.09-.11.12-.18.04-.15.04-.24v-.13c0-.1-.05-.15-.14-.15h-1.96v2.41h2.27.04c.02 0 .04-.01.05-.02s.03-.02.04-.04.02-.05.02-.09zm0 0" transform="matrix(6.75 0 0 6.75 .02 0)"/><path d="m17.22 10.32c0 .05-.01.09-.03.14-.02.04-.04.08-.07.11s-.07.05-.11.07-.08.03-.13.03h-1.55c-.15 0-.29-.02-.44-.05s-.29-.08-.44-.15c-.14-.06-.27-.14-.39-.25-.13-.1-.24-.22-.33-.36s-.17-.3-.22-.48-.07-.38-.07-.6v-1.9h.69v1.89c0 .19.03.36.08.49s.12.25.21.34c.08.09.17.16.27.21s.19.09.28.11c.09.03.17.04.24.05s.11.01.13.01h1.21v-3.1h.69zm0 0" transform="matrix(6.75 0 0 6.75 .02 0)"/><path d="m20.67 9.09h-2.48v-.62h2.48zm0 0" transform="matrix(6.75 0 0 6.75 .02 0)"/><path d="m24.9 7.57h-1.51v3.1h-.69v-3.1h-1.52v-.69h3.72zm0 0" transform="matrix(6.75 0 0 6.75 .02 0)"/><path d="m29.09 7.57h-1.51v3.1h-.69v-3.1h-1.51v-.69h3.72zm0 0" transform="matrix(6.75 0 0 6.75 .02 0)"/></g></svg>