<svg height="150" viewBox="0 0 225 150" width="225" xmlns="http://www.w3.org/2000/svg"><linearGradient id="a" gradientUnits="userSpaceOnUse" spreadMethod="reflect" x1="18.25" x2="18.25" y1="22.26" y2="1.26"><stop offset="0" stop-color="#afafaf"/><stop offset=".259658" stop-color="#928f8f"/><stop offset=".337191" stop-color="#969696"/><stop offset=".370242" stop-color="#888"/><stop offset=".372962" stop-color="#c0c0c0"/><stop offset=".708052" stop-color="#a2a2a2"/><stop offset="1" stop-color="#d9d9d9"/></linearGradient><linearGradient id="b" gradientUnits="userSpaceOnUse" x1="4.83" x2="4.83" y1=".96" y2="21.77"><stop offset="0" stop-color="#3e3e3e"/><stop offset=".21101" stop-color="#525252"/><stop offset=".647485" stop-color="#666"/><stop offset=".651012" stop-color="#272727"/><stop offset="1" stop-color="#585858"/></linearGradient><linearGradient id="c" gradientUnits="userSpaceOnUse" spreadMethod="reflect" x1="16.67" x2="16.67" y1="11.34" y2="7.72"><stop offset="0" stop-color="#505050"/><stop offset="1" stop-color="#0d0d0d"/></linearGradient><path d="m2.38 1.06h28.57c.59 0 1.06.47 1.06 1.06v17.99c0 .59-.47 1.06-1.06 1.06h-28.57c-.59 0-1.06-.47-1.06-1.06v-17.99c0-.59.47-1.06 1.06-1.06zm0 0" fill="url(#a)" stroke="url(#b)" stroke-width=".4" transform="matrix(6.75 0 0 6.75 .02 0)"/><g fill="#ffe600"><path d="m74.71 108.84h15.39v6.34h-15.39zm0 0"/><path d="m135.78 124.16h22.74v6.34h-22.74zm0 0"/><path d="m95.16 108.84h47.37v6.34h-47.37zm0 0"/><path d="m58.72 124.16h69.98v6.34h-69.98zm0 0"/><path d="m173.16 104.25-7.62 31.71h4.32l7.69-31.71zm6.48 2.9v7.42l14.44 5.54-14.44 5.6v7.35l23.82-9.92v-6.2zm-134.28-.06-23.82 9.85v6.2l23.82 9.92v-7.42l-14.44-5.6 14.44-5.53zm0 0"/></g><g fill="url(#c)" stroke="#101010" stroke-width=".26"><path d="m7.7 8.69h-1.84v-.59h1.84zm.26 1.31h-2.1c-.08 0-.17-.01-.27-.04-.09-.03-.18-.07-.26-.14-.09-.07-.16-.15-.21-.25-.05-.11-.08-.24-.08-.39v-2.1c0-.04.01-.08.02-.11s.03-.06.06-.09.06-.05.09-.06.07-.02.12-.02h2.63v.57h-2.34v1.82c0 .07.02.13.06.18.04.04.1.06.18.06h2.1zm0 0" transform="matrix(6.75 0 0 6.75 .02 0)"/><path d="m9.38 10h-.58v-3.22h.58zm0 0" transform="matrix(6.75 0 0 6.75 .02 0)"/><path d="m13.49 10h-.59v-.79h-2.05v.79h-.58v-1.61c0-.23.04-.45.12-.65s.19-.37.34-.51.32-.25.51-.33.41-.12.64-.12h1.32c.04 0 .08.01.11.02s.06.03.09.06.05.06.06.09.02.07.02.11zm-2.64-1.37h2.05v-1.26h-1.03c-.02 0-.06 0-.11.01-.06.01-.13.02-.2.04s-.15.05-.24.1-.16.11-.23.18-.13.17-.18.29c-.05.11-.07.25-.07.42zm0 0" transform="matrix(6.75 0 0 6.75 .02 0)"/><path d="m16.46 8.66h-2.11v-.53h2.11zm0 0" transform="matrix(6.75 0 0 6.75 .02 0)"/><path d="m17.84 8.1h1.55c.08 0 .17.01.27.04.09.03.18.07.27.14.08.07.15.15.2.25.05.11.08.23.08.38v.26c0 .05-.01.11-.02.18-.01.06-.03.12-.06.18s-.06.12-.11.17c-.04.05-.09.1-.15.15-.06.04-.13.07-.21.1s-.17.04-.27.04h-1.06c-.07 0-.15-.01-.23-.02-.07-.01-.15-.04-.23-.07-.08-.04-.16-.09-.23-.14s-.14-.12-.2-.2c-.05-.08-.1-.17-.13-.28s-.05-.23-.05-.36v-1.05c0-.13.02-.25.05-.35.03-.11.08-.2.13-.28s.12-.15.19-.21.15-.11.23-.14c.08-.04.16-.07.24-.08s.16-.02.23-.02h1.46v.58h-1.46c-.07.01-.14.02-.2.05s-.11.06-.15.1c-.05.04-.08.09-.1.15-.03.06-.04.13-.04.2zm0 .59v.24c0 .07.01.14.04.21.03.06.06.11.11.15.05.05.1.08.16.1s.13.03.2.03h1.05c.07 0 .13-.02.17-.07s.06-.1.06-.17v-.26c0-.07-.02-.13-.06-.18-.04-.04-.1-.06-.18-.06zm0 0" transform="matrix(6.75 0 0 6.75 .02 0)"/><path d="m24.68 8.66c0 .13-.02.26-.05.38s-.08.23-.14.33-.13.19-.22.27-.18.15-.28.2-.21.1-.32.13c-.11.02-.22.03-.34.03h-1.05c-.12 0-.24-.01-.35-.04s-.22-.08-.32-.13-.19-.12-.27-.2c-.09-.08-.16-.17-.22-.27s-.11-.21-.14-.33-.05-.24-.05-.37v-.53c0-.2.04-.38.11-.54.07-.17.17-.31.3-.42.13-.12.27-.21.43-.28s.33-.1.51-.1h1.05c.12 0 .23.01.34.04s.22.07.32.13c.1.05.19.12.28.2s.16.17.22.27.11.21.14.33.05.24.05.37zm-.59-.53c0-.11-.02-.22-.06-.31-.05-.1-.1-.18-.17-.25s-.15-.12-.24-.15c-.09-.04-.19-.06-.29-.05h-1.05c-.1 0-.2.02-.29.05s-.17.08-.24.15-.13.15-.17.24-.06.2-.06.32v.53c0 .12.02.23.06.32s.1.17.17.24.15.12.24.15.19.05.29.05h1.05c.11 0 .22-.02.31-.06s.17-.09.24-.16.12-.15.15-.24.05-.2.05-.31zm-.25-.43c.02.03.03.07.04.11s.01.08 0 .11-.02.07-.04.1-.05.06-.08.08l-1.58 1.05c-.03.02-.05.03-.08.04s-.05.01-.08.01c-.05 0-.09-.01-.14-.03s-.08-.05-.11-.1c-.02-.03-.03-.07-.04-.11s-.01-.08 0-.11c.01-.04.02-.07.04-.1s.05-.06.08-.08l1.58-1.05c.03-.02.07-.03.11-.04s.08-.01.11 0c.04.01.07.02.1.04s.06.05.08.08zm0 0" transform="matrix(6.75 0 0 6.75 .02 0)"/><path d="m28.39 9.18c0 .05-.01.11-.02.18-.01.06-.03.12-.06.18s-.06.12-.11.17-.1.1-.16.15c-.06.04-.13.07-.21.1s-.17.04-.27.04h-1.32c-.08 0-.17-.01-.27-.04-.09-.03-.17-.07-.25-.14s-.15-.15-.21-.25c-.05-.11-.08-.24-.08-.39v-.26c0-.06.01-.12.02-.18s.03-.12.06-.19c.03-.06.06-.12.11-.18.05-.05.1-.1.16-.14-.03-.06-.05-.12-.06-.19s-.02-.13-.02-.18v-.26c0-.15.03-.27.08-.38s.12-.19.2-.25c.08-.07.17-.11.27-.14.09-.03.18-.04.27-.04h.79c.1 0 .19.01.27.04s.15.06.21.1.11.09.15.15c.05.05.08.11.11.18.03.06.05.12.06.18s.02.12.02.17v.26c0 .15-.03.27-.08.38.05.03.09.07.13.11s.08.09.11.15c.03.05.06.12.07.19.02.07.03.14.03.23zm-.85-1.57c0-.08-.02-.14-.06-.18s-.1-.06-.18-.06h-.79c-.08 0-.14.02-.18.06s-.06.1-.06.18v.26c0 .08.02.14.06.18s.1.06.17.06h.79c.08 0 .14-.02.18-.06s.06-.1.06-.18zm.26 1.32c0-.07-.02-.13-.06-.17s-.1-.06-.17-.06h-1.32c-.07 0-.13.02-.17.07s-.06.1-.06.17v.26c0 .07.02.13.07.17s.1.06.17.06h1.32c.07 0 .13-.02.17-.07s.06-.1.06-.17zm0 0" transform="matrix(6.75 0 0 6.75 .02 0)"/></g></svg>