<svg height="150" viewBox="0 0 225 150" width="225" xmlns="http://www.w3.org/2000/svg"><linearGradient id="a" gradientUnits="userSpaceOnUse" spreadMethod="reflect" x1="18.25" x2="18.25" y1="22.26" y2="1.26"><stop offset="0" stop-color="#afafaf"/><stop offset=".259658" stop-color="#928f8f"/><stop offset=".337191" stop-color="#969696"/><stop offset=".370242" stop-color="#888"/><stop offset=".372962" stop-color="#c0c0c0"/><stop offset=".708052" stop-color="#a2a2a2"/><stop offset="1" stop-color="#d9d9d9"/></linearGradient><linearGradient id="b" gradientUnits="userSpaceOnUse" x1="4.83" x2="4.83" y1=".96" y2="21.77"><stop offset="0" stop-color="#3e3e3e"/><stop offset=".21101" stop-color="#525252"/><stop offset=".647485" stop-color="#666"/><stop offset=".651012" stop-color="#272727"/><stop offset="1" stop-color="#585858"/></linearGradient><linearGradient id="c" gradientUnits="userSpaceOnUse" spreadMethod="reflect" x1="16.67" x2="16.67" y1="11.34" y2="7.72"><stop offset="0" stop-color="#505050"/><stop offset="1" stop-color="#0d0d0d"/></linearGradient><path d="m2.38 1.06h28.57c.59 0 1.06.47 1.06 1.06v17.99c0 .59-.47 1.06-1.06 1.06h-28.57c-.59 0-1.06-.47-1.06-1.06v-17.99c0-.59.47-1.06 1.06-1.06zm0 0" fill="url(#a)" stroke="url(#b)" stroke-width=".4" transform="matrix(6.75 0 0 6.75 .02 0)"/><g fill="#ffe600"><path d="m74.71 108.84h15.39v6.34h-15.39zm0 0"/><path d="m135.78 124.16h22.74v6.34h-22.74zm0 0"/><path d="m95.16 108.84h47.37v6.34h-47.37zm0 0"/><path d="m58.72 124.16h69.98v6.34h-69.98zm0 0"/><path d="m173.16 104.25-7.62 31.71h4.32l7.69-31.71zm6.48 2.9v7.42l14.44 5.54-14.44 5.6v7.35l23.82-9.92v-6.2zm-134.28-.06-23.82 9.85v6.2l23.82 9.92v-7.42l-14.44-5.6 14.44-5.53zm0 0"/></g><g fill="url(#c)" stroke="#101010" stroke-width=".26"><path d="m8.41 5.18h2.32v-1.49h.66v3.65h-.66v-1.49h-2.32v1.49h-.66v-3.65h.66zm0 0" transform="matrix(6.75 0 0 6.75 .02 0)"/><path d="m16.09 5.81c0 .22-.04.42-.12.61-.07.19-.18.35-.31.49-.13.13-.29.24-.48.31-.19.08-.39.12-.61.12h-1.78c-.05 0-.09-.01-.13-.03s-.08-.04-.11-.07-.05-.07-.07-.11-.03-.08-.03-.13v-2.97c0-.05.01-.09.03-.13s.04-.08.07-.11.07-.06.11-.07c.04-.02.08-.03.13-.03h1.78c.22 0 .42.04.61.11s.35.18.48.32c.13.13.24.29.32.48s.12.39.12.61zm-.66-.59c0-.13-.02-.24-.06-.35s-.1-.2-.18-.28c-.07-.07-.16-.13-.27-.17s-.22-.06-.35-.06h-1.45v2.32h1.45c.13 0 .24-.02.35-.06s.2-.1.27-.18c.07-.07.13-.16.18-.27.04-.11.06-.23.06-.36zm0 0" transform="matrix(6.75 0 0 6.75 .02 0)"/><path d="m21.28 7.34h-.67v-2.17l-1.17 2.06c-.03.05-.07.09-.12.12s-.11.04-.17.04-.11-.01-.16-.04-.09-.07-.12-.12l-1.17-2.06v2.17h-.66v-3.36c0-.07.02-.14.07-.2s.11-.1.18-.12c.03-.01.07-.01.11-.01.03 0 .07.01.1.02s.06.03.09.05.05.05.07.08l1.5 2.61 1.5-2.61c.04-.07.09-.11.16-.14s.14-.03.22-.01c.07.02.13.06.18.12s.07.13.07.2zm0 0" transform="matrix(6.75 0 0 6.75 .02 0)"/><path d="m25.99 3.69-1.72 3.51c-.03.05-.07.1-.12.13s-.11.05-.18.05c-.06 0-.12-.02-.18-.05-.05-.03-.09-.08-.12-.13l-1.72-3.51h.74l1.28 2.62 1.28-2.62zm0 0" transform="matrix(6.75 0 0 6.75 .02 0)"/><path d="m14.12 10.78c0 .15-.02.29-.06.4-.04.12-.09.22-.15.31s-.13.16-.22.23c-.08.07-.17.12-.26.16s-.18.07-.27.09-.18.03-.26.03h-1.49v-.66h1.49c.09-.01.16-.02.23-.05s.13-.06.18-.11.08-.1.11-.17.04-.14.04-.23v-.3c-.01-.08-.02-.16-.05-.23s-.06-.13-.11-.18-.1-.08-.17-.11-.14-.05-.23-.05h-1.49c-.09 0-.15.02-.2.07s-.07.11-.07.2v2.71h-.66v-2.71c0-.17.03-.31.09-.43s.14-.22.23-.29.19-.13.3-.16.21-.05.3-.05h1.49c.15 0 .28.02.4.06s.22.09.31.15.17.13.23.22c.07.08.12.17.16.26s.07.18.09.27.03.18.03.26zm0 0" transform="matrix(6.75 0 0 6.75 .02 0)"/><path d="m18.48 11.82c0 .13-.02.25-.05.35s-.08.19-.13.27-.12.15-.19.2-.15.1-.23.14c-.08.03-.16.06-.24.08s-.16.03-.23.03h-2.55v-.66h2.55c.13 0 .22-.04.29-.11s.11-.17.11-.3c0-.06-.01-.12-.03-.17s-.05-.1-.08-.13c-.03-.04-.08-.07-.13-.09s-.1-.03-.17-.03h-1.52c-.11 0-.22-.02-.35-.06s-.24-.1-.35-.19-.19-.2-.26-.33c-.07-.14-.1-.31-.1-.5 0-.2.03-.37.1-.5.07-.14.16-.25.26-.33.11-.09.22-.15.35-.19s.24-.06.35-.06h2.25v.67h-2.25c-.13 0-.22.04-.29.11s-.1.17-.1.3.03.23.1.3.17.11.29.11h1.53c.07 0 .15.01.23.03s.16.05.24.08c.08.04.16.09.23.14s.14.12.19.2.1.17.13.27.05.22.05.35zm0 0" transform="matrix(6.75 0 0 6.75 .02 0)"/><path d="m22.93 12.56c0 .05-.01.09-.03.13s-.04.08-.07.11-.06.05-.1.07-.08.03-.13.03h-2.38c-.06 0-.13-.01-.2-.02s-.14-.04-.21-.07-.13-.07-.2-.12c-.06-.05-.12-.11-.17-.18s-.08-.15-.11-.24-.04-.2-.04-.31v-1.79c0-.06.01-.13.02-.2s.04-.14.07-.21.07-.13.12-.2c.05-.06.11-.12.18-.17s.15-.09.24-.12.19-.04.3-.04h2.68v.68h-2.68c-.09 0-.15.02-.2.07s-.07.11-.07.2v1.78c0 .09.02.15.07.2s.11.07.2.07h2.05v-.83h-1.76v-.67h2.08c.05 0 .09.01.13.03s.07.04.1.07.06.07.07.11c.02.04.03.08.03.13zm0 0" transform="matrix(6.75 0 0 6.75 .02 0)"/></g></svg>