<svg height="150" viewBox="0 0 225 150" width="225" xmlns="http://www.w3.org/2000/svg"><linearGradient id="a" gradientUnits="userSpaceOnUse" spreadMethod="reflect" x1="18.25" x2="18.25" y1="22.26" y2="1.26"><stop offset="0" stop-color="#afafaf"/><stop offset=".259658" stop-color="#928f8f"/><stop offset=".337191" stop-color="#969696"/><stop offset=".370242" stop-color="#888"/><stop offset=".372962" stop-color="#c0c0c0"/><stop offset=".708052" stop-color="#a2a2a2"/><stop offset="1" stop-color="#d9d9d9"/></linearGradient><linearGradient id="b" gradientUnits="userSpaceOnUse" x1="4.83" x2="4.83" y1=".96" y2="21.77"><stop offset="0" stop-color="#3e3e3e"/><stop offset=".21101" stop-color="#525252"/><stop offset=".647485" stop-color="#666"/><stop offset=".651012" stop-color="#272727"/><stop offset="1" stop-color="#585858"/></linearGradient><linearGradient id="c" gradientUnits="userSpaceOnUse" spreadMethod="reflect" x1="16.67" x2="16.67" y1="11.34" y2="7.72"><stop offset="0" stop-color="#505050"/><stop offset="1" stop-color="#0d0d0d"/></linearGradient><path d="m2.38 1.06h28.57c.59 0 1.06.47 1.06 1.06v17.99c0 .59-.47 1.06-1.06 1.06h-28.57c-.59 0-1.06-.47-1.06-1.06v-17.99c0-.59.47-1.06 1.06-1.06zm0 0" fill="url(#a)" stroke="url(#b)" stroke-width=".4" transform="matrix(6.75 0 0 6.75 .02 0)"/><g fill="#ffe600"><path d="m74.71 108.84h15.39v6.34h-15.39zm0 0"/><path d="m135.78 124.16h22.74v6.34h-22.74zm0 0"/><path d="m95.16 108.84h47.37v6.34h-47.37zm0 0"/><path d="m58.72 124.16h69.98v6.34h-69.98zm0 0"/><path d="m173.16 104.25-7.62 31.71h4.32l7.69-31.71zm6.48 2.9v7.42l14.44 5.54-14.44 5.6v7.35l23.82-9.92v-6.2zm-134.28-.06-23.82 9.85v6.2l23.82 9.92v-7.42l-14.44-5.6 14.44-5.53zm0 0"/></g><g fill="url(#c)" stroke="#101010" stroke-width=".26"><path d="m9.45 9.79c0 .19-.03.36-.1.52s-.16.3-.27.42-.25.21-.42.28c-.16.07-.33.11-.52.11h-3.45v-.94h3.45c.11 0 .2-.03.27-.1s.1-.16.1-.28v-3.87h.95zm0 0" transform="matrix(6.75 0 0 6.75 .02 0)"/><path d="m15.89 11.12h-.94v-1.28h-3.31v1.28h-.94v-2.6c0-.38.07-.73.2-1.05s.31-.59.54-.82.51-.41.82-.54.66-.19 1.03-.19h2.12c.07 0 .13.01.18.04.06.03.11.06.15.1.05.05.08.1.1.15.03.06.04.12.04.18zm-4.25-2.22h3.31v-2.03h-1.65c-.03 0-.09 0-.18.01s-.2.03-.32.06-.25.09-.38.16-.26.16-.37.29c-.11.12-.21.27-.28.46-.07.18-.11.4-.11.67zm0 0" transform="matrix(6.75 0 0 6.75 .02 0)"/><path d="m21.89 11.12h-3.39c-.09 0-.18-.01-.28-.03s-.2-.05-.3-.1c-.09-.05-.19-.1-.28-.17s-.17-.15-.24-.25-.12-.21-.16-.34-.06-.28-.06-.44v-2.54c0-.09.01-.18.03-.28s.05-.2.1-.3.1-.19.17-.28.15-.17.25-.24.21-.12.34-.17c.13-.04.27-.06.43-.06h3.39v.94h-3.39c-.12 0-.21.03-.28.1s-.1.16-.1.29v2.54c0 .12.03.21.1.28s.16.1.28.1h3.39zm0 0" transform="matrix(6.75 0 0 6.75 .02 0)"/><path d="m28.41 9.02c0 .31-.05.6-.16.87s-.26.5-.45.69-.42.34-.69.45c-.26.11-.55.16-.86.16h-1.27c-.31 0-.6-.05-.86-.16-.27-.11-.51-.26-.7-.45s-.34-.42-.45-.69-.16-.56-.16-.87v-.99c0-.31.05-.6.16-.87s.27-.5.46-.69.42-.34.69-.45.55-.16.86-.16h1.27c.31 0 .6.05.86.16.27.11.5.26.69.45s.34.42.45.69.16.56.16.87zm-.94-.99c0-.19-.03-.35-.09-.5-.05-.16-.14-.29-.25-.39-.11-.11-.23-.2-.38-.25-.15-.07-.32-.1-.5-.1h-1.27c-.18 0-.35.03-.5.09s-.28.14-.39.25-.19.24-.25.39-.09.31-.09.5v.99c0 .19.03.36.09.51s.14.28.25.39.24.19.39.25.32.09.5.09h1.27c.18 0 .35-.03.5-.09s.28-.14.39-.25.19-.24.25-.39.09-.32.09-.51zm0 0" transform="matrix(6.75 0 0 6.75 .02 0)"/></g></svg>