<svg height="150" viewBox="0 0 225 150" width="225" xmlns="http://www.w3.org/2000/svg"><linearGradient id="a" gradientUnits="userSpaceOnUse" spreadMethod="reflect" x1="18.25" x2="18.25" y1="22.26" y2="1.26"><stop offset="0" stop-color="#afafaf"/><stop offset=".259658" stop-color="#928f8f"/><stop offset=".337191" stop-color="#969696"/><stop offset=".370242" stop-color="#888"/><stop offset=".372962" stop-color="#c0c0c0"/><stop offset=".708052" stop-color="#a2a2a2"/><stop offset="1" stop-color="#d9d9d9"/></linearGradient><linearGradient id="b" gradientUnits="userSpaceOnUse" x1="4.83" x2="4.83" y1=".96" y2="21.77"><stop offset="0" stop-color="#3e3e3e"/><stop offset=".21101" stop-color="#525252"/><stop offset=".647485" stop-color="#666"/><stop offset=".651012" stop-color="#272727"/><stop offset="1" stop-color="#585858"/></linearGradient><linearGradient id="c" gradientUnits="userSpaceOnUse" spreadMethod="reflect" x1="16.67" x2="16.67" y1="11.34" y2="7.72"><stop offset="0" stop-color="#505050"/><stop offset="1" stop-color="#0d0d0d"/></linearGradient><path d="m2.38 1.06h28.57c.59 0 1.06.47 1.06 1.06v17.99c0 .59-.47 1.06-1.06 1.06h-28.57c-.59 0-1.06-.47-1.06-1.06v-17.99c0-.59.47-1.06 1.06-1.06zm0 0" fill="url(#a)" stroke="url(#b)" stroke-width=".4" transform="matrix(6.75 0 0 6.75 .02 0)"/><g fill="#ffe600"><path d="m74.71 108.84h15.39v6.34h-15.39zm0 0"/><path d="m135.78 124.16h22.74v6.34h-22.74zm0 0"/><path d="m95.16 108.84h47.37v6.34h-47.37zm0 0"/><path d="m58.72 124.16h69.98v6.34h-69.98zm0 0"/><path d="m173.16 104.25-7.62 31.71h4.32l7.69-31.71zm6.48 2.9v7.42l14.44 5.54-14.44 5.6v7.35l23.82-9.92v-6.2zm-134.28-.06-23.82 9.85v6.2l23.82 9.92v-7.42l-14.44-5.6 14.44-5.53zm0 0"/></g><g fill="url(#c)" stroke="#101010" stroke-width=".26"><path d="m7.28 10h-.59v-1.91l-1.03 1.82c-.03.05-.06.08-.11.11s-.1.04-.15.04-.1-.01-.14-.04c-.05-.03-.08-.06-.11-.11l-1.04-1.82v1.91h-.58v-2.97c0-.07.02-.13.06-.18s.09-.09.16-.11c.03-.01.06-.01.09-.01s.06.01.09.02.05.03.08.05.05.04.06.07l1.33 2.32 1.33-2.31c.03-.06.08-.1.14-.12.06-.03.12-.03.19-.01.06.02.11.06.15.11s.06.11.06.18zm0 0" transform="matrix(6.75 0 0 6.75 .02 0)"/><path d="m8.75 7.08h-.58v-.53h.58zm0 2.93h-.58v-2.43h.58zm0 0" transform="matrix(6.75 0 0 6.75 .02 0)"/><path d="m11.93 10h-1.58c-.08 0-.17-.01-.27-.04s-.19-.07-.27-.14-.15-.15-.2-.25c-.06-.11-.09-.24-.09-.39v-.79c0-.05.01-.11.02-.18.01-.06.03-.12.06-.18s.06-.12.1-.18c.05-.05.1-.1.15-.15.06-.04.13-.07.21-.1s.17-.04.27-.04h1.58v.58h-1.58c-.07 0-.13.02-.18.06-.04.04-.06.1-.06.18v.79c0 .07.02.13.06.18.04.04.1.06.18.06h1.58zm0 0" transform="matrix(6.75 0 0 6.75 .02 0)"/><path d="m14.8 8.16h-1.31c-.08 0-.14.02-.18.06s-.06.1-.06.17v1.61h-.59v-1.61c0-.1.01-.19.04-.27s.06-.15.1-.21c.05-.06.1-.11.15-.15.05-.05.11-.08.17-.11s.12-.05.18-.06.12-.02.18-.02h1.32zm0 0" transform="matrix(6.75 0 0 6.75 .02 0)"/><path d="m18.08 9.18c0 .1-.01.19-.04.27s-.06.15-.1.21-.09.11-.15.15c-.05.04-.11.07-.18.1-.06.03-.12.05-.18.06s-.12.02-.18.02h-1.05c-.08 0-.17-.01-.27-.04-.09-.03-.18-.07-.27-.14-.08-.07-.15-.15-.2-.25-.05-.11-.08-.23-.08-.38v-.79c0-.15.03-.27.08-.38s.12-.19.2-.25c.08-.07.17-.11.27-.14.09-.03.18-.04.27-.04h1.05c.15 0 .27.03.38.08s.19.12.25.2c.07.08.11.17.14.27.03.09.04.18.04.27zm-.58-.78c0-.08-.02-.14-.06-.18s-.1-.06-.18-.06h-1.05c-.08 0-.14.02-.18.06s-.06.1-.06.17v.79c0 .07.02.13.06.18.04.04.1.06.18.06h1.05c.08 0 .14-.02.18-.06s.06-.1.06-.18zm0 0" transform="matrix(6.75 0 0 6.75 .02 0)"/><path d="m22.12 8.66c0 .19-.03.37-.1.54-.07.16-.16.3-.28.42s-.26.21-.43.28-.35.1-.54.1h-1.58c-.04 0-.08-.01-.12-.02-.03-.01-.06-.03-.09-.06s-.05-.06-.06-.09c-.01-.04-.02-.08-.02-.12v-2.63c0-.04.01-.08.02-.11s.03-.06.06-.09.06-.05.09-.06.07-.02.12-.02h1.58c.19 0 .37.03.54.1s.31.16.43.28.21.26.28.43.1.35.1.54zm-.58-.53c0-.11-.02-.22-.06-.31-.03-.09-.08-.17-.15-.24s-.16-.12-.25-.16c-.09-.03-.2-.05-.31-.05h-1.29v2.05h1.29c.11 0 .22-.02.31-.05.09-.04.17-.09.24-.15.07-.07.12-.15.15-.24.04-.09.06-.2.06-.31zm0 0" transform="matrix(6.75 0 0 6.75 .02 0)"/><path d="m26.11 6.78-1.53 3.11c-.03.05-.06.08-.11.11s-.1.04-.15.04-.1-.01-.15-.04-.08-.06-.11-.11l-1.53-3.11h.65l1.13 2.32 1.14-2.32zm0 0" transform="matrix(6.75 0 0 6.75 .02 0)"/><path d="m29.91 8.66c0 .19-.03.37-.1.54-.07.16-.16.3-.28.42s-.26.21-.43.28c-.16.07-.34.1-.53.1h-1.58c-.04 0-.08-.01-.12-.02-.03-.01-.06-.03-.09-.06s-.05-.06-.06-.09-.02-.07-.02-.12v-2.63c0-.04.01-.08.02-.11s.03-.06.06-.09.06-.05.09-.06.07-.02.12-.02h1.58c.19 0 .37.03.54.1s.31.16.43.28.21.26.28.43.1.35.1.54zm-.58-.53c0-.11-.02-.22-.06-.31-.03-.09-.08-.17-.15-.24s-.15-.12-.24-.16c-.09-.03-.2-.05-.31-.05h-1.29v2.05h1.29c.11 0 .22-.02.31-.05.09-.04.17-.09.24-.15.07-.07.12-.15.15-.24.04-.09.06-.2.06-.31zm0 0" transform="matrix(6.75 0 0 6.75 .02 0)"/></g></svg>