<svg height="150" viewBox="0 0 225 150" width="225" xmlns="http://www.w3.org/2000/svg"><linearGradient id="a" gradientUnits="userSpaceOnUse" spreadMethod="reflect" x1="18.25" x2="18.25" y1="22.26" y2="1.26"><stop offset="0" stop-color="#afafaf"/><stop offset=".259658" stop-color="#928f8f"/><stop offset=".337191" stop-color="#969696"/><stop offset=".370242" stop-color="#888"/><stop offset=".372962" stop-color="#c0c0c0"/><stop offset=".708052" stop-color="#a2a2a2"/><stop offset="1" stop-color="#d9d9d9"/></linearGradient><linearGradient id="b" gradientUnits="userSpaceOnUse" x1="4.83" x2="4.83" y1=".96" y2="21.77"><stop offset="0" stop-color="#3e3e3e"/><stop offset=".21101" stop-color="#525252"/><stop offset=".647485" stop-color="#666"/><stop offset=".651012" stop-color="#272727"/><stop offset="1" stop-color="#585858"/></linearGradient><linearGradient id="c" gradientUnits="userSpaceOnUse" spreadMethod="reflect" x1="16.67" x2="16.67" y1="11.34" y2="7.72"><stop offset="0" stop-color="#505050"/><stop offset="1" stop-color="#0d0d0d"/></linearGradient><path d="m2.38 1.06h28.57c.59 0 1.06.47 1.06 1.06v17.99c0 .59-.47 1.06-1.06 1.06h-28.57c-.59 0-1.06-.47-1.06-1.06v-17.99c0-.59.47-1.06 1.06-1.06zm0 0" fill="url(#a)" stroke="url(#b)" stroke-width=".4" transform="matrix(6.75 0 0 6.75 .02 0)"/><g fill="#ffe600"><path d="m74.71 108.84h15.39v6.34h-15.39zm0 0"/><path d="m135.78 124.16h22.74v6.34h-22.74zm0 0"/><path d="m95.16 108.84h47.37v6.34h-47.37zm0 0"/><path d="m58.72 124.16h69.98v6.34h-69.98zm0 0"/><path d="m173.16 104.25-7.62 31.71h4.32l7.69-31.71zm6.48 2.9v7.42l14.44 5.54-14.44 5.6v7.35l23.82-9.92v-6.2zm-134.28-.06-23.82 9.85v6.2l23.82 9.92v-7.42l-14.44-5.6 14.44-5.53zm0 0"/></g><g fill="url(#c)" stroke="#101010" stroke-width=".26"><path d="m9.49 11.12h-.77v-2.51l-1.35 2.38c-.03.06-.08.11-.14.14s-.12.05-.19.05-.13-.02-.19-.05c-.05-.03-.1-.08-.13-.14l-1.36-2.38v2.51h-.76v-3.88c0-.09.03-.16.08-.23s.12-.11.21-.14c.04-.01.08-.01.12-.01s.08.01.12.03c.04.01.08.03.11.06s.06.06.08.09l1.73 3.01 1.73-3.01c.04-.07.1-.13.18-.16s.16-.04.25-.01c.08.03.15.07.2.14s.08.14.08.23zm0 0" transform="matrix(6.75 0 0 6.75 .02 0)"/><path d="m14.83 8.67c0 .17-.02.33-.06.47s-.1.26-.18.36c-.07.11-.16.2-.25.27s-.19.13-.3.18-.21.08-.32.1-.21.03-.3.03h-1.73v-.76h1.72c.1-.01.19-.03.26-.06.08-.03.15-.08.21-.13.05-.05.1-.12.13-.2s.05-.17.05-.26v-.34c-.01-.09-.03-.18-.06-.26s-.08-.15-.13-.21c-.05-.05-.12-.1-.19-.13s-.16-.05-.26-.05h-1.72c-.1 0-.18.03-.23.08s-.08.13-.08.23v3.13h-.76v-3.14c0-.19.04-.36.11-.5s.16-.25.27-.33c.11-.09.22-.15.35-.18.13-.04.24-.06.35-.06h1.72c.17 0 .33.02.46.07.14.04.26.1.36.18.11.07.2.16.27.25s.13.19.18.3.08.21.11.32c.02.11.03.21.03.3zm0 0" transform="matrix(6.75 0 0 6.75 .02 0)"/><path d="m19.47 11.12h-.76v-1.72h-2.71c-.05 0-.1-.01-.15-.03s-.09-.05-.12-.08-.06-.07-.08-.12-.03-.1-.03-.15v-2.11h.76v1.72h2.33v-1.72h.77zm0 0" transform="matrix(6.75 0 0 6.75 .02 0)"/><path d="m24.44 7.68h-1.68v3.44h-.76v-3.44h-1.68v-.77h4.12zm0 0" transform="matrix(6.75 0 0 6.75 .02 0)"/><path d="m29.06 7.68h-1.67v3.44h-.77v-3.44h-1.68v-.77h4.12zm0 0" transform="matrix(6.75 0 0 6.75 .02 0)"/></g></svg>