<svg height="150" viewBox="0 0 225 150" width="225" xmlns="http://www.w3.org/2000/svg"><linearGradient id="a" gradientUnits="userSpaceOnUse" spreadMethod="reflect" x1="18.25" x2="18.25" y1="22.26" y2="1.26"><stop offset="0" stop-color="#afafaf"/><stop offset=".259658" stop-color="#928f8f"/><stop offset=".337191" stop-color="#969696"/><stop offset=".370242" stop-color="#888"/><stop offset=".372962" stop-color="#c0c0c0"/><stop offset=".708052" stop-color="#a2a2a2"/><stop offset="1" stop-color="#d9d9d9"/></linearGradient><linearGradient id="b" gradientUnits="userSpaceOnUse" x1="4.83" x2="4.83" y1=".96" y2="21.77"><stop offset="0" stop-color="#3e3e3e"/><stop offset=".21101" stop-color="#525252"/><stop offset=".647485" stop-color="#666"/><stop offset=".651012" stop-color="#272727"/><stop offset="1" stop-color="#585858"/></linearGradient><linearGradient id="c" gradientUnits="userSpaceOnUse" spreadMethod="reflect" x1="16.67" x2="16.67" y1="11.34" y2="7.72"><stop offset="0" stop-color="#505050"/><stop offset="1" stop-color="#0d0d0d"/></linearGradient><path d="m2.38 1.06h28.57c.59 0 1.06.47 1.06 1.06v17.99c0 .59-.47 1.06-1.06 1.06h-28.57c-.59 0-1.06-.47-1.06-1.06v-17.99c0-.59.47-1.06 1.06-1.06zm0 0" fill="url(#a)" stroke="url(#b)" stroke-width=".4" transform="matrix(6.75 0 0 6.75 .02 0)"/><g fill="#ffe600"><path d="m74.71 108.84h15.39v6.34h-15.39zm0 0"/><path d="m135.78 124.16h22.74v6.34h-22.74zm0 0"/><path d="m95.16 108.84h47.37v6.34h-47.37zm0 0"/><path d="m58.72 124.16h69.98v6.34h-69.98zm0 0"/><path d="m173.16 104.25-7.62 31.71h4.32l7.69-31.71zm6.48 2.9v7.42l14.44 5.54-14.44 5.6v7.35l23.82-9.92v-6.2zm-134.28-.06-23.82 9.85v6.2l23.82 9.92v-7.42l-14.44-5.6 14.44-5.53zm0 0"/></g><g fill="url(#c)" stroke="#101010" stroke-width=".26"><path d="m7.8 7.87c0 .13-.02.25-.05.36-.03.1-.08.19-.13.27-.06.08-.13.15-.2.21-.07.05-.15.1-.23.14-.08.03-.16.06-.24.08-.08.01-.16.02-.23.02l1.22 1.05h-.9l-1.22-1.05h-.42v-.58h1.32c.07-.01.14-.02.2-.05s.11-.06.16-.1.08-.09.1-.15c.03-.06.04-.13.04-.2v-.37c0-.03 0-.06-.01-.07-.01-.02-.02-.03-.03-.04s-.03-.01-.04-.02c-.01 0-.03 0-.04 0h-1.93v2.63h-.59v-2.92c0-.04.01-.08.02-.11s.03-.06.06-.09.06-.05.09-.06.07-.02.12-.02h2.22c.13 0 .24.02.33.07s.16.11.22.18.1.15.12.23c.03.08.04.16.04.23zm0 0" transform="matrix(6.75 0 0 6.75 .02 0)"/><path d="m11.17 8.38c0 .08-.01.17-.04.26s-.07.18-.14.26c-.06.08-.14.15-.25.2-.1.05-.22.08-.37.08h-1.05v-.55h1.05c.08 0 .14-.02.18-.07.05-.05.07-.11.07-.18s-.02-.13-.07-.18-.11-.07-.18-.07h-1.05c-.08 0-.14.02-.18.07-.05.05-.07.11-.07.18v.82c0 .08.02.14.07.18.05.05.11.07.18.07h1.05v.55h-1.05c-.08 0-.17-.01-.26-.04s-.18-.07-.27-.14c-.08-.06-.15-.14-.2-.25-.05-.1-.08-.22-.08-.37v-.82c0-.08.01-.17.04-.26s.07-.18.14-.26.15-.15.25-.2.23-.08.38-.08h1.05c.08 0 .17.01.26.04s.18.07.26.14c.08.06.15.14.2.25.05.1.08.22.08.37zm0 0" transform="matrix(6.75 0 0 6.75 .02 0)"/><path d="m14.32 9.2c0 .08-.01.17-.04.26s-.07.18-.14.26c-.06.08-.14.15-.25.2-.1.05-.22.08-.37.08h-1.05c-.08 0-.17-.01-.26-.04s-.18-.07-.26-.14-.15-.15-.2-.25-.08-.23-.08-.38c0-.08.01-.17.04-.26s.07-.18.14-.26.15-.15.25-.2.23-.08.38-.08h1.05v.56h-1.05c-.08 0-.14.02-.18.07-.05.05-.07.11-.07.18s.02.13.07.18c.05.04.11.06.18.06h1.05c.08 0 .14-.02.18-.07.05-.05.07-.11.07-.18v-.81c0-.07-.02-.13-.07-.18s-.11-.07-.18-.07h-1.28v-.55h1.28c.08 0 .17.01.26.04s.18.07.26.14c.08.06.15.14.2.25.05.1.08.22.08.37zm0 0" transform="matrix(6.75 0 0 6.75 .02 0)"/><path d="m16.15 10h-.26c-.09 0-.18-.01-.27-.04s-.18-.07-.27-.14c-.08-.07-.15-.15-.2-.25-.05-.11-.08-.23-.08-.38v-2.64h.58v2.63c0 .07.02.13.07.17s.1.06.17.06h.26zm0 0" transform="matrix(6.75 0 0 6.75 .02 0)"/><path d="m19.77 7.37h-1.29v2.63h-.58v-2.63h-1.29v-.59h3.16zm0 0" transform="matrix(6.75 0 0 6.75 .02 0)"/><path d="m22.75 8.38c0 .08-.01.17-.04.26s-.07.18-.14.26c-.06.08-.14.15-.25.2-.1.05-.22.08-.37.08h-1.06v-.55h1.05c.08 0 .14-.02.18-.07.05-.05.07-.11.07-.18s-.02-.13-.07-.18-.11-.07-.18-.07h-1.05c-.08 0-.14.02-.18.07-.05.05-.07.11-.07.18v.82c0 .08.02.14.07.18.05.05.11.07.18.07h1.05v.55h-1.05c-.08 0-.17-.01-.26-.04s-.18-.07-.26-.14c-.08-.06-.15-.14-.2-.25-.05-.1-.08-.22-.08-.37v-.82c0-.08.01-.17.04-.26s.07-.18.14-.26.15-.15.25-.2.23-.08.38-.08h1.05c.08 0 .17.01.26.04s.18.07.26.14c.08.06.15.14.2.25.05.1.08.22.08.37zm0 0" transform="matrix(6.75 0 0 6.75 .02 0)"/><path d="m26.09 7.58-1.05 1.14 1.18 1.28h-.8l-.78-.84-.78.84h-.8l1.18-1.28-1.05-1.14h.8l.65.7.65-.7zm0 0" transform="matrix(6.75 0 0 6.75 .02 0)"/><path d="m28.99 8.16h-1.02v1.84h-.59v-1.84h-.76v-.58h.76v-.8h.59v.79h1.02zm0 0" transform="matrix(6.75 0 0 6.75 .02 0)"/></g></svg>