<svg height="150" viewBox="0 0 225 150" width="225" xmlns="http://www.w3.org/2000/svg"><linearGradient id="a" gradientUnits="userSpaceOnUse" spreadMethod="reflect" x1="18.25" x2="18.25" y1="22.26" y2="1.26"><stop offset="0" stop-color="#afafaf"/><stop offset=".259658" stop-color="#928f8f"/><stop offset=".337191" stop-color="#969696"/><stop offset=".370242" stop-color="#888"/><stop offset=".372962" stop-color="#c0c0c0"/><stop offset=".708052" stop-color="#a2a2a2"/><stop offset="1" stop-color="#d9d9d9"/></linearGradient><linearGradient id="b" gradientUnits="userSpaceOnUse" x1="4.83" x2="4.83" y1=".96" y2="21.77"><stop offset="0" stop-color="#3e3e3e"/><stop offset=".21101" stop-color="#525252"/><stop offset=".647485" stop-color="#666"/><stop offset=".651012" stop-color="#272727"/><stop offset="1" stop-color="#585858"/></linearGradient><linearGradient id="c" gradientUnits="userSpaceOnUse" spreadMethod="reflect" x1="16.67" x2="16.67" y1="11.34" y2="7.72"><stop offset="0" stop-color="#505050"/><stop offset="1" stop-color="#0d0d0d"/></linearGradient><path d="m2.38 1.06h28.57c.59 0 1.06.47 1.06 1.06v17.99c0 .59-.47 1.06-1.06 1.06h-28.57c-.59 0-1.06-.47-1.06-1.06v-17.99c0-.59.47-1.06 1.06-1.06zm0 0" fill="url(#a)" stroke="url(#b)" stroke-width=".4" transform="matrix(6.75 0 0 6.75 .02 0)"/><g fill="#ffe600"><path d="m74.71 108.84h15.39v6.34h-15.39zm0 0"/><path d="m135.78 124.16h22.74v6.34h-22.74zm0 0"/><path d="m95.16 108.84h47.37v6.34h-47.37zm0 0"/><path d="m58.72 124.16h69.98v6.34h-69.98zm0 0"/><path d="m173.16 104.25-7.62 31.71h4.32l7.69-31.71zm6.48 2.9v7.42l14.44 5.54-14.44 5.6v7.35l23.82-9.92v-6.2zm-134.28-.06-23.82 9.85v6.2l23.82 9.92v-7.42l-14.44-5.6 14.44-5.53zm0 0"/></g><g fill="url(#c)" stroke="#101010" stroke-width=".26"><path d="m7.63 9.56c0 .13-.02.26-.05.37s-.08.2-.13.29c-.05.08-.12.15-.2.21-.07.06-.15.11-.24.14-.08.04-.16.07-.25.08-.08.01-.16.02-.23.02h-2.65v-.69h2.65c.13 0 .24-.04.31-.12s.11-.18.11-.31c0-.07-.01-.12-.03-.17-.03-.05-.06-.1-.09-.14-.03-.03-.08-.06-.13-.09-.05-.02-.11-.03-.17-.03h-1.58c-.11 0-.23-.02-.36-.06s-.25-.1-.36-.19-.21-.2-.28-.34c-.07-.15-.11-.32-.11-.53s.04-.38.11-.52.17-.25.28-.34.23-.16.36-.2.25-.06.36-.06h2.33v.69h-2.33c-.13 0-.24.04-.31.12s-.11.18-.11.31.04.24.11.31.18.11.31.11h1.59c.07 0 .15.01.24.03.08.02.16.05.25.08.08.04.16.09.24.15.07.06.14.13.2.21s.11.18.14.29.05.23.05.36zm0 0" transform="matrix(6.75 0 0 6.75 .02 0)"/><path d="m12.24 9.09c0 .23-.04.45-.12.64s-.19.36-.33.5-.31.25-.5.33c-.19.07-.4.11-.63.11h-1.85c-.05 0-.09-.01-.14-.03-.04-.02-.08-.04-.11-.07s-.05-.07-.07-.11-.03-.09-.03-.14v-3.09c0-.05.01-.09.03-.13s.04-.08.07-.11.07-.06.11-.07c.04-.02.09-.03.14-.03h1.85c.23 0 .44.04.63.12s.36.19.5.33.25.31.33.5.12.4.12.63zm-.68-.62c0-.13-.02-.26-.07-.37-.04-.11-.1-.21-.18-.28-.08-.08-.18-.14-.29-.18-.11-.05-.23-.07-.36-.07h-1.51v2.41h1.51c.13 0 .25-.02.36-.06.11-.05.21-.11.29-.18.08-.08.14-.17.18-.28.05-.11.07-.24.07-.37zm0 0" transform="matrix(6.75 0 0 6.75 .02 0)"/><path d="m16.96 8.47c0 .16-.02.3-.06.42s-.09.23-.16.33c-.07.09-.14.17-.23.24s-.18.12-.27.16-.19.07-.29.09c-.09.02-.18.03-.27.03h-1.55v-.69h1.55c.09-.01.17-.02.24-.05s.13-.07.18-.12.09-.11.12-.18.04-.15.04-.24v-.3c0-.09-.01-.17-.04-.24s-.07-.14-.12-.19-.11-.09-.18-.12-.14-.04-.23-.04h-1.55c-.09 0-.16.02-.21.07s-.07.12-.07.21v2.82h-.69v-2.82c0-.17.03-.32.1-.45.07-.12.15-.22.24-.3.1-.07.2-.13.31-.16s.22-.05.31-.05h1.55c.15 0 .29.02.42.06.12.04.23.09.32.16s.17.14.24.23.12.18.16.27c.05.09.08.19.1.29.02.09.03.18.03.27zm0 0" transform="matrix(6.75 0 0 6.75 .02 0)"/><path d="m20.19 9.09h-2.47v-.62h2.48zm0 0" transform="matrix(6.75 0 0 6.75 .02 0)"/><path d="m24.88 10.32c0 .05-.01.09-.03.14-.02.04-.04.08-.07.11s-.07.05-.11.07-.08.03-.13.03h-1.55c-.15 0-.29-.02-.44-.05s-.29-.08-.44-.15c-.15-.06-.28-.14-.4-.25-.13-.1-.24-.22-.33-.36s-.16-.3-.21-.48-.08-.38-.08-.6v-1.9h.68v1.89c0 .19.03.36.08.49s.12.25.21.34c.08.09.17.16.27.21s.19.09.28.11c.09.03.17.04.24.05s.11.01.13.01h1.21v-3.1h.69zm0 0" transform="matrix(6.75 0 0 6.75 .02 0)"/><path d="m29.58 9.56c0 .13-.02.26-.05.37s-.08.2-.13.29c-.05.08-.12.15-.2.21-.07.06-.15.11-.24.14-.08.04-.16.07-.25.08-.08.02-.16.03-.24.03h-2.65v-.7h2.65c.13 0 .24-.04.31-.12s.11-.18.11-.31c0-.07-.01-.12-.03-.17s-.05-.1-.08-.14-.08-.07-.13-.09-.11-.03-.17-.03h-1.58c-.11 0-.23-.02-.36-.06s-.25-.1-.36-.19-.21-.2-.28-.34c-.07-.15-.11-.32-.11-.53s.04-.38.11-.52.17-.25.28-.34.22-.16.35-.2.25-.06.36-.06h2.34v.69h-2.34c-.13 0-.24.04-.31.12s-.11.18-.11.31.04.24.11.31.18.11.31.11h1.59c.07 0 .15.01.24.03.08.02.16.05.25.08.08.04.16.09.24.15.07.06.14.13.2.21s.11.18.14.29.05.23.05.36zm0 0" transform="matrix(6.75 0 0 6.75 .02 0)"/></g></svg>