<svg height="150" viewBox="0 0 225 150" width="225" xmlns="http://www.w3.org/2000/svg"><linearGradient id="a" gradientUnits="userSpaceOnUse" spreadMethod="reflect" x1="18.25" x2="18.25" y1="22.26" y2="1.26"><stop offset="0" stop-color="#afafaf"/><stop offset=".259658" stop-color="#928f8f"/><stop offset=".337191" stop-color="#969696"/><stop offset=".370242" stop-color="#888"/><stop offset=".372962" stop-color="#c0c0c0"/><stop offset=".708052" stop-color="#a2a2a2"/><stop offset="1" stop-color="#d9d9d9"/></linearGradient><linearGradient id="b" gradientUnits="userSpaceOnUse" x1="4.83" x2="4.83" y1=".96" y2="21.77"><stop offset="0" stop-color="#3e3e3e"/><stop offset=".21101" stop-color="#525252"/><stop offset=".647485" stop-color="#666"/><stop offset=".651012" stop-color="#272727"/><stop offset="1" stop-color="#585858"/></linearGradient><linearGradient id="c" gradientUnits="userSpaceOnUse" spreadMethod="reflect" x1="16.67" x2="16.67" y1="11.34" y2="7.72"><stop offset="0" stop-color="#505050"/><stop offset="1" stop-color="#0d0d0d"/></linearGradient><path d="m2.38 1.06h28.57c.59 0 1.06.47 1.06 1.06v17.99c0 .59-.47 1.06-1.06 1.06h-28.57c-.59 0-1.06-.47-1.06-1.06v-17.99c0-.59.47-1.06 1.06-1.06zm0 0" fill="url(#a)" stroke="url(#b)" stroke-width=".4" transform="matrix(6.75 0 0 6.75 .02 0)"/><g fill="#ffe600"><path d="m74.71 108.84h15.39v6.34h-15.39zm0 0"/><path d="m135.78 124.16h22.74v6.34h-22.74zm0 0"/><path d="m95.16 108.84h47.37v6.34h-47.37zm0 0"/><path d="m58.72 124.16h69.98v6.34h-69.98zm0 0"/><path d="m173.16 104.25-7.62 31.71h4.32l7.69-31.71zm6.48 2.9v7.42l14.44 5.54-14.44 5.6v7.35l23.82-9.92v-6.2zm-134.28-.06-23.82 9.85v6.2l23.82 9.92v-7.42l-14.44-5.6 14.44-5.53zm0 0"/></g><g fill="url(#c)" stroke="#101010" stroke-width=".26"><path d="m5.35 9.06c0 .11-.01.22-.04.31s-.07.17-.12.24-.1.13-.17.18-.13.09-.2.12-.14.06-.21.07-.14.02-.2.02h-2.25v-.58h2.25c.11 0 .2-.03.26-.1s.09-.16.09-.27c0-.05-.01-.1-.02-.15-.02-.04-.04-.08-.07-.11s-.07-.06-.12-.08c-.04-.01-.09-.02-.14-.02h-1.34c-.09 0-.2-.02-.31-.05s-.21-.09-.31-.17c-.09-.07-.16-.17-.23-.29-.06-.12-.09-.27-.09-.44s.03-.32.09-.44c.07-.13.14-.23.23-.3.1-.08.2-.14.31-.17s.21-.05.31-.05h1.98v.59h-1.98c-.11 0-.2.03-.26.1s-.09.16-.09.27.03.2.09.27.15.1.26.1h1.34c.06 0 .13.01.2.03.07.01.14.04.21.07s.14.08.2.13.12.11.17.18.09.15.12.24.04.2.04.31zm0 0" transform="matrix(6.75 0 0 6.75 .02 0)"/><path d="m9.85 10h-.59v-1.91l-1.04 1.82c-.03.05-.06.08-.11.11s-.1.04-.15.04-.1-.01-.14-.04-.07-.06-.1-.11l-1.04-1.82v1.91h-.58v-2.97c0-.07.02-.13.06-.18s.09-.09.16-.11c.03-.01.06-.01.09-.01s.06.01.09.02.05.03.08.05.05.04.06.07l1.33 2.32 1.33-2.31c.03-.06.08-.1.14-.12.06-.03.12-.03.19-.01.06.02.11.06.15.11s.06.11.06.18zm0 0" transform="matrix(6.75 0 0 6.75 .02 0)"/><path d="m14 8.13c0 .13-.02.25-.05.36s-.08.2-.13.28-.12.15-.19.2c-.07.06-.15.11-.23.14s-.16.06-.24.08c-.08.01-.16.02-.23.02h-1.33v-.58h1.32c.07-.01.14-.02.2-.04.06-.03.11-.06.16-.1s.08-.09.1-.15c.03-.06.04-.13.04-.2v-.27c-.01-.07-.02-.14-.05-.2s-.06-.11-.1-.16-.09-.08-.15-.1c-.06-.03-.13-.04-.2-.04h-1.32c-.08 0-.14.02-.18.06s-.06.1-.06.18v2.39h-.58v-2.4c0-.15.03-.27.08-.38s.12-.19.2-.25c.08-.07.17-.11.27-.14.09-.03.18-.04.27-.04h1.32c.13 0 .25.02.35.05.11.03.2.08.28.13s.15.12.2.19c.06.07.11.15.14.23.04.08.07.16.08.24s.02.16.02.23zm0 0" transform="matrix(6.75 0 0 6.75 .02 0)"/><path d="m17.67 7.37h-1.28v2.63h-.59v-2.63h-1.29v-.59h3.16zm0 0" transform="matrix(6.75 0 0 6.75 .02 0)"/><path d="m21.01 8.69h-1.84v-.59h1.84zm.27 1.31h-2.11c-.08 0-.17-.01-.27-.04-.09-.03-.18-.07-.27-.14-.08-.07-.15-.15-.2-.25-.05-.11-.08-.23-.08-.38v-2.11c0-.04.01-.08.02-.11s.03-.06.06-.09.06-.05.09-.06.07-.02.12-.02h2.63v.57h-2.34v1.82c0 .07.02.13.06.18.04.04.1.06.18.06h2.1zm0 0" transform="matrix(6.75 0 0 6.75 .02 0)"/><path d="m24.1 8.66h-2.11v-.53h2.11zm0 0" transform="matrix(6.75 0 0 6.75 .02 0)"/><path d="m27.73 7.37h-1.28v2.63h-.59v-2.63h-1.29v-.59h3.16zm0 0" transform="matrix(6.75 0 0 6.75 .02 0)"/><path d="m31.34 7.37h-1.29v2.63h-.58v-2.63h-1.29v-.59h3.16zm0 0" transform="matrix(6.75 0 0 6.75 .02 0)"/></g></svg>