<svg height="150" viewBox="0 0 225 150" width="225" xmlns="http://www.w3.org/2000/svg"><linearGradient id="a" gradientUnits="userSpaceOnUse" spreadMethod="reflect" x1="18.25" x2="18.25" y1="22.26" y2="1.26"><stop offset="0" stop-color="#afafaf"/><stop offset=".259658" stop-color="#928f8f"/><stop offset=".337191" stop-color="#969696"/><stop offset=".370242" stop-color="#888"/><stop offset=".372962" stop-color="#c0c0c0"/><stop offset=".708052" stop-color="#a2a2a2"/><stop offset="1" stop-color="#d9d9d9"/></linearGradient><linearGradient id="b" gradientUnits="userSpaceOnUse" x1="4.83" x2="4.83" y1=".96" y2="21.77"><stop offset="0" stop-color="#3e3e3e"/><stop offset=".21101" stop-color="#525252"/><stop offset=".647485" stop-color="#666"/><stop offset=".651012" stop-color="#272727"/><stop offset="1" stop-color="#585858"/></linearGradient><linearGradient id="c" gradientUnits="userSpaceOnUse" spreadMethod="reflect" x1="16.67" x2="16.67" y1="11.34" y2="7.72"><stop offset="0" stop-color="#505050"/><stop offset="1" stop-color="#0d0d0d"/></linearGradient><path d="m2.38 1.06h28.57c.59 0 1.06.47 1.06 1.06v17.99c0 .59-.47 1.06-1.06 1.06h-28.57c-.59 0-1.06-.47-1.06-1.06v-17.99c0-.59.47-1.06 1.06-1.06zm0 0" fill="url(#a)" stroke="url(#b)" stroke-width=".4" transform="matrix(6.75 0 0 6.75 .02 0)"/><g fill="#ffe600"><path d="m74.71 108.84h15.39v6.34h-15.39zm0 0"/><path d="m135.78 124.16h22.74v6.34h-22.74zm0 0"/><path d="m95.16 108.84h47.37v6.34h-47.37zm0 0"/><path d="m58.72 124.16h69.98v6.34h-69.98zm0 0"/><path d="m173.16 104.25-7.62 31.71h4.32l7.69-31.71zm6.48 2.9v7.42l14.44 5.54-14.44 5.6v7.35l23.82-9.92v-6.2zm-134.28-.06-23.82 9.85v6.2l23.82 9.92v-7.42l-14.44-5.6 14.44-5.53zm0 0"/></g><g fill="url(#c)" stroke="#101010" stroke-width=".26"><path d="m13.08 9.59c0 .19-.02.35-.07.5s-.11.28-.18.39c-.08.11-.17.21-.27.29-.11.08-.21.15-.32.2s-.23.09-.34.11c-.12.03-.23.04-.33.04h-3.63v-.94h3.63c.18 0 .32-.05.42-.16s.15-.25.15-.43c0-.09-.01-.17-.04-.24s-.07-.14-.12-.19-.11-.09-.18-.12-.15-.04-.24-.04h-2.16c-.15 0-.32-.03-.49-.08-.17-.06-.34-.15-.49-.27s-.28-.28-.38-.47c-.1-.2-.15-.44-.15-.72s.05-.52.15-.71c.1-.2.23-.36.38-.48s.32-.21.49-.26.34-.08.49-.08h3.2v.94h-3.2c-.18 0-.32.05-.42.16s-.15.25-.15.43.05.32.15.43.24.16.42.16h2.17c.1 0 .21.01.32.04s.23.07.34.12.22.12.32.2.19.18.27.29.14.24.19.39.07.31.07.5zm0 0" transform="matrix(6.75 0 0 6.75 .02 0)"/><path d="m19.11 9.59c0 .19-.02.35-.07.5s-.11.28-.18.39c-.08.11-.17.21-.27.29-.11.08-.21.15-.32.2s-.23.09-.34.11c-.11.03-.22.04-.32.04h-3.63v-.94h3.63c.18 0 .32-.05.42-.16s.15-.25.15-.43c0-.09-.01-.17-.04-.24s-.07-.14-.12-.19-.11-.09-.18-.12-.15-.04-.24-.04h-2.16c-.15 0-.32-.03-.49-.08s-.34-.14-.49-.26-.27-.28-.38-.47c-.1-.19-.15-.43-.15-.72 0-.28.05-.52.15-.71s.23-.35.38-.47.32-.21.49-.26.34-.08.49-.08h3.2v.94h-3.2c-.18 0-.32.05-.42.16s-.15.25-.15.43.05.32.15.43.24.16.42.16h2.17c.1 0 .21.01.32.04s.23.07.34.12.22.12.32.2.19.18.27.29.14.24.19.39.07.31.07.5zm0 0" transform="matrix(6.75 0 0 6.75 .02 0)"/><path d="m25.25 11.12h-.94v-1.28h-3.31v1.28h-.94v-2.6c0-.38.07-.73.2-1.05s.31-.59.54-.82.51-.41.82-.54.66-.19 1.03-.19h2.12c.07 0 .13.01.18.04.06.03.11.06.15.1.05.05.08.1.1.15.03.06.04.12.04.18zm-4.25-2.22h3.31v-2.03h-1.65c-.03 0-.09 0-.18.01s-.2.03-.32.06-.25.09-.38.16-.26.16-.37.29c-.11.12-.21.27-.28.46-.07.18-.11.4-.11.67zm0 0" transform="matrix(6.75 0 0 6.75 .02 0)"/></g></svg>