<svg height="150" viewBox="0 0 225 150" width="225" xmlns="http://www.w3.org/2000/svg"><linearGradient id="a" gradientUnits="userSpaceOnUse" spreadMethod="reflect" x1="18.25" x2="18.25" y1="22.26" y2="1.26"><stop offset="0" stop-color="#afafaf"/><stop offset=".259658" stop-color="#928f8f"/><stop offset=".337191" stop-color="#969696"/><stop offset=".370242" stop-color="#888"/><stop offset=".372962" stop-color="#c0c0c0"/><stop offset=".708052" stop-color="#a2a2a2"/><stop offset="1" stop-color="#d9d9d9"/></linearGradient><linearGradient id="b" gradientUnits="userSpaceOnUse" x1="4.83" x2="4.83" y1=".96" y2="21.77"><stop offset="0" stop-color="#3e3e3e"/><stop offset=".21101" stop-color="#525252"/><stop offset=".647485" stop-color="#666"/><stop offset=".651012" stop-color="#272727"/><stop offset="1" stop-color="#585858"/></linearGradient><linearGradient id="c" gradientUnits="userSpaceOnUse" spreadMethod="reflect" x1="16.67" x2="16.67" y1="11.34" y2="7.72"><stop offset="0" stop-color="#505050"/><stop offset="1" stop-color="#0d0d0d"/></linearGradient><path d="m2.38 1.06h28.57c.59 0 1.06.47 1.06 1.06v17.99c0 .59-.47 1.06-1.06 1.06h-28.57c-.59 0-1.06-.47-1.06-1.06v-17.99c0-.59.47-1.06 1.06-1.06zm0 0" fill="url(#a)" stroke="url(#b)" stroke-width=".4" transform="matrix(6.75 0 0 6.75 .02 0)"/><g fill="#ffe600"><path d="m74.71 108.84h15.39v6.34h-15.39zm0 0"/><path d="m135.78 124.16h22.74v6.34h-22.74zm0 0"/><path d="m95.16 108.84h47.37v6.34h-47.37zm0 0"/><path d="m58.72 124.16h69.98v6.34h-69.98zm0 0"/><path d="m173.16 104.25-7.62 31.71h4.32l7.69-31.71zm6.48 2.9v7.42l14.44 5.54-14.44 5.6v7.35l23.82-9.92v-6.2zm-134.28-.06-23.82 9.85v6.2l23.82 9.92v-7.42l-14.44-5.6 14.44-5.53zm0 0"/></g><g fill="url(#c)" stroke="#101010" stroke-width=".26"><path d="m5.8 9.1c0 .11-.01.21-.04.3s-.06.16-.11.23-.1.12-.16.17c-.07.05-.13.09-.2.12-.06.03-.13.05-.2.06s-.13.02-.19.02h-2.15v-.56h2.15c.11 0 .19-.03.25-.09s.09-.14.09-.25c0-.05-.01-.1-.02-.14-.02-.05-.04-.09-.07-.12s-.06-.05-.11-.07c-.04-.02-.09-.03-.14-.03h-1.28c-.09 0-.19-.02-.29-.05-.11-.03-.21-.08-.3-.15s-.16-.17-.22-.28c-.06-.12-.09-.26-.09-.43s.03-.31.09-.42.13-.21.22-.28.19-.13.29-.16c.11-.03.21-.05.3-.05h1.9v.56h-1.9c-.11 0-.19.03-.25.1s-.09.15-.09.26.03.19.09.26c.06.06.14.09.25.09h1.28c.06 0 .12.01.19.03.07.01.13.04.2.07s.13.07.19.12.11.1.16.17.08.14.11.23.04.19.04.3zm0 0" transform="matrix(6.75 0 0 6.75 .02 0)"/><path d="m9.01 9.72c0 .04-.01.08-.02.11s-.03.06-.06.09-.06.05-.09.06-.07.02-.11.02h-1.27c-.07 0-.14-.01-.22-.02-.07-.01-.15-.04-.23-.08-.07-.03-.15-.08-.22-.13s-.13-.12-.18-.19c-.05-.08-.1-.17-.13-.27s-.05-.21-.05-.34v-1.29h.56v1.29c0 .07.01.14.04.2s.06.11.1.15.09.07.15.1c.06.02.12.03.19.03h.98v-1.77h.56zm0 0" transform="matrix(6.75 0 0 6.75 .02 0)"/><path d="m12.36 9.22c0 .05-.01.11-.02.17s-.03.12-.06.18-.06.12-.1.17-.09.1-.15.14-.13.07-.2.1-.16.04-.26.04h-1.01c-.05 0-.11-.01-.17-.02s-.12-.03-.18-.06-.12-.06-.17-.1c-.04-.05-.08-.1-.13-.16-.04-.06-.07-.13-.09-.2-.03-.08-.04-.17-.04-.26v-2.52h.56v2.52c0 .07.02.12.06.17.04.04.09.06.16.06h1.01c.07 0 .13-.02.16-.06.04-.04.06-.09.06-.16v-.76c0-.07-.02-.13-.06-.16-.04-.04-.09-.06-.16-.06h-1v-.57h1.01c.05 0 .11.01.17.02s.12.03.17.06c.06.03.12.06.17.1s.1.09.14.15.07.13.1.2.04.16.04.26zm0 0" transform="matrix(6.75 0 0 6.75 .02 0)"/><path d="m16.24 6.92-1.46 2.97c-.02.05-.05.08-.1.11s-.1.04-.15.04-.1-.01-.15-.04-.08-.06-.1-.11l-1.46-2.97h.63l1.08 2.22 1.09-2.22zm0 0" transform="matrix(6.75 0 0 6.75 .02 0)"/><path d="m17.33 7.2h-.56v-.5h.56zm0 2.8h-.56v-2.32h.56zm0 0" transform="matrix(6.75 0 0 6.75 .02 0)"/><path d="m20.63 8.45c0 .08-.01.16-.04.25s-.07.17-.13.25c-.06.07-.14.14-.24.19s-.22.08-.36.08h-1.01v-.53h1.01c.07 0 .13-.02.18-.07.04-.05.06-.1.06-.17s-.02-.13-.07-.17-.1-.06-.17-.06h-1.01c-.07 0-.13.02-.18.07-.04.05-.06.1-.06.17v.78c0 .07.02.13.07.17s.1.06.17.06h1v.53h-1.01c-.08 0-.16-.01-.25-.04s-.17-.07-.24-.13c-.08-.06-.14-.14-.19-.24s-.08-.22-.08-.36v-.78c0-.08.01-.16.04-.25s.07-.18.13-.25c.06-.08.14-.14.24-.19s.22-.08.36-.08h1.01c.08 0 .16.01.25.04s.18.07.25.13c.08.06.14.14.19.24s.08.22.08.36zm0 0" transform="matrix(6.75 0 0 6.75 .02 0)"/><path d="m25.09 7.68c-.09.2-.18.4-.29.59-.1.19-.21.38-.32.55s-.23.33-.34.48c-.12.15-.24.27-.35.38s-.23.19-.34.25-.21.09-.31.09c-.04 0-.08-.01-.11-.02s-.06-.03-.09-.06-.05-.06-.06-.09-.02-.07-.02-.11v-1.06l-1.11 1.24c-.03.03-.06.05-.09.06s-.07.02-.1.02c-.04 0-.08-.01-.11-.02s-.06-.03-.09-.06-.05-.06-.06-.09-.02-.07-.02-.11v-2.04h.56v1.32l1.11-1.24c.04-.04.09-.07.14-.08s.11-.01.16.02c.05.02.09.05.12.1s.05.1.05.15v1.34c.12-.12.23-.24.32-.37.1-.13.19-.26.27-.4.09-.14.17-.28.24-.42s.15-.28.22-.42zm0 0" transform="matrix(6.75 0 0 6.75 .02 0)"/><path d="m28.05 8.45c0 .08-.01.16-.04.25s-.07.17-.13.25c-.06.07-.14.14-.24.19s-.22.08-.36.08h-1.01v-.53h1.01c.07 0 .13-.02.18-.07.04-.05.06-.1.06-.17s-.02-.13-.07-.17-.1-.06-.17-.06h-1.01c-.07 0-.13.02-.18.07-.04.05-.06.1-.06.17v.78c0 .07.02.13.07.17s.1.06.17.06h1v.53h-1.01c-.08 0-.16-.01-.25-.04-.08-.03-.16-.07-.24-.13-.07-.06-.14-.14-.19-.24s-.08-.22-.08-.36v-.78c0-.08.01-.16.04-.25s.07-.18.13-.25c.06-.08.14-.14.24-.19s.22-.08.36-.08h1.01c.08 0 .16.01.25.04s.18.07.25.13c.08.06.14.14.19.24s.08.22.08.36zm0 0" transform="matrix(6.75 0 0 6.75 .02 0)"/><path d="m30.72 8.24h-1.26c-.07 0-.13.02-.17.06s-.06.1-.06.17v1.53h-.56v-1.54c0-.09.01-.18.04-.26.03-.07.06-.14.1-.2s.09-.11.14-.15.11-.07.17-.1.12-.05.18-.06.12-.02.17-.02h1.26zm0 0" transform="matrix(6.75 0 0 6.75 .02 0)"/></g></svg>