<svg height="150" viewBox="0 0 225 150" width="225" xmlns="http://www.w3.org/2000/svg"><linearGradient id="a" gradientUnits="userSpaceOnUse" spreadMethod="reflect" x1="18.25" x2="18.25" y1="22.26" y2="1.26"><stop offset="0" stop-color="#afafaf"/><stop offset=".259658" stop-color="#928f8f"/><stop offset=".337191" stop-color="#969696"/><stop offset=".370242" stop-color="#888"/><stop offset=".372962" stop-color="#c0c0c0"/><stop offset=".708052" stop-color="#a2a2a2"/><stop offset="1" stop-color="#d9d9d9"/></linearGradient><linearGradient id="b" gradientUnits="userSpaceOnUse" x1="4.83" x2="4.83" y1=".96" y2="21.77"><stop offset="0" stop-color="#3e3e3e"/><stop offset=".21101" stop-color="#525252"/><stop offset=".647485" stop-color="#666"/><stop offset=".651012" stop-color="#272727"/><stop offset="1" stop-color="#585858"/></linearGradient><linearGradient id="c" gradientUnits="userSpaceOnUse" spreadMethod="reflect" x1="16.67" x2="16.67" y1="11.34" y2="7.72"><stop offset="0" stop-color="#505050"/><stop offset="1" stop-color="#0d0d0d"/></linearGradient><path d="m2.38 1.06h28.57c.59 0 1.06.47 1.06 1.06v17.99c0 .59-.47 1.06-1.06 1.06h-28.57c-.59 0-1.06-.47-1.06-1.06v-17.99c0-.59.47-1.06 1.06-1.06zm0 0" fill="url(#a)" stroke="url(#b)" stroke-width=".4" transform="matrix(6.75 0 0 6.75 .02 0)"/><g fill="#ffe600"><path d="m74.71 108.84h15.39v6.34h-15.39zm0 0"/><path d="m135.78 124.16h22.74v6.34h-22.74zm0 0"/><path d="m95.16 108.84h47.37v6.34h-47.37zm0 0"/><path d="m58.72 124.16h69.98v6.34h-69.98zm0 0"/><path d="m173.16 104.25-7.62 31.71h4.32l7.69-31.71zm6.48 2.9v7.42l14.44 5.54-14.44 5.6v7.35l23.82-9.92v-6.2zm-134.28-.06-23.82 9.85v6.2l23.82 9.92v-7.42l-14.44-5.6 14.44-5.53zm0 0"/></g><g fill="url(#c)" stroke="#101010" stroke-width=".26"><path d="m9.83 6.87h-2.07v4.25h-.94v-4.25h-2.08v-.94h5.09zm0 0" transform="matrix(6.75 0 0 6.75 .02 0)"/><path d="m15.48 6.87h-2.07v4.25h-.94v-4.25h-2.08v-.94h5.09zm0 0" transform="matrix(6.75 0 0 6.75 .02 0)"/><path d="m22.47 11.12h-.94v-3.09l-1.67 2.93c-.04.07-.1.13-.17.17s-.15.06-.24.06c-.08 0-.16-.02-.23-.06s-.12-.1-.17-.17l-1.67-2.93v3.09h-.94v-4.79c0-.11.03-.2.09-.29.07-.09.15-.14.25-.17.05-.01.1-.02.15-.01.05 0 .1.01.14.03.05.02.09.05.13.08s.07.07.1.12l2.14 3.72 2.14-3.72c.05-.09.13-.16.23-.2s.2-.05.31-.02c.1.03.18.08.25.17s.1.18.1.29zm0 0" transform="matrix(6.75 0 0 6.75 .02 0)"/><path d="m28.6 11.12h-4.29c-.07 0-.13-.01-.19-.04s-.11-.06-.15-.1c-.04-.05-.07-.1-.1-.15-.03-.06-.04-.12-.04-.19v-4.71h.94v4.25h3.82zm0 0" transform="matrix(6.75 0 0 6.75 .02 0)"/></g></svg>