<svg height="150" viewBox="0 0 225 150" width="225" xmlns="http://www.w3.org/2000/svg"><linearGradient id="a" gradientUnits="userSpaceOnUse" spreadMethod="reflect" x1="18.25" x2="18.25" y1="22.26" y2="1.26"><stop offset="0" stop-color="#afafaf"/><stop offset=".259658" stop-color="#928f8f"/><stop offset=".337191" stop-color="#969696"/><stop offset=".370242" stop-color="#888"/><stop offset=".372962" stop-color="#c0c0c0"/><stop offset=".708052" stop-color="#a2a2a2"/><stop offset="1" stop-color="#d9d9d9"/></linearGradient><linearGradient id="b" gradientUnits="userSpaceOnUse" x1="4.83" x2="4.83" y1=".96" y2="21.77"><stop offset="0" stop-color="#3e3e3e"/><stop offset=".21101" stop-color="#525252"/><stop offset=".647485" stop-color="#666"/><stop offset=".651012" stop-color="#272727"/><stop offset="1" stop-color="#585858"/></linearGradient><linearGradient id="c" gradientUnits="userSpaceOnUse" spreadMethod="reflect" x1="16.67" x2="16.67" y1="11.34" y2="7.72"><stop offset="0" stop-color="#505050"/><stop offset="1" stop-color="#0d0d0d"/></linearGradient><path d="m2.38 1.06h28.57c.59 0 1.06.47 1.06 1.06v17.99c0 .59-.47 1.06-1.06 1.06h-28.57c-.59 0-1.06-.47-1.06-1.06v-17.99c0-.59.47-1.06 1.06-1.06zm0 0" fill="url(#a)" stroke="url(#b)" stroke-width=".4" transform="matrix(6.75 0 0 6.75 .02 0)"/><g fill="#ffe600"><path d="m74.71 108.84h15.39v6.34h-15.39zm0 0"/><path d="m135.78 124.16h22.74v6.34h-22.74zm0 0"/><path d="m95.16 108.84h47.37v6.34h-47.37zm0 0"/><path d="m58.72 124.16h69.98v6.34h-69.98zm0 0"/><path d="m173.16 104.25-7.62 31.71h4.32l7.69-31.71zm6.48 2.9v7.42l14.44 5.54-14.44 5.6v7.35l23.82-9.92v-6.2zm-134.28-.06-23.82 9.85v6.2l23.82 9.92v-7.42l-14.44-5.6 14.44-5.53zm0 0"/></g><g fill="url(#c)" stroke="#101010" stroke-width=".26"><path d="m8.63 6.88-1.79 3.66c-.03.05-.07.1-.13.13-.05.03-.11.05-.18.05s-.13-.02-.18-.05-.1-.08-.13-.13l-1.79-3.66h.77l1.33 2.73 1.34-2.73zm0 0" transform="matrix(6.75 0 0 6.75 .02 0)"/><path d="m12.13 9.71c0 .12-.01.23-.04.32s-.07.18-.12.25-.1.13-.17.18-.14.09-.21.12-.15.06-.22.07-.14.02-.21.02h-1.23c-.09 0-.2-.02-.31-.05-.12-.03-.23-.09-.32-.16-.09-.08-.17-.18-.24-.3-.07-.13-.1-.28-.1-.45v-.93c0-.17.03-.32.1-.45.07-.12.15-.22.24-.3.1-.08.2-.14.31-.17s.22-.05.31-.05h1.24c.17 0 .32.03.45.1.12.07.22.15.3.24.07.09.13.2.16.31s.05.22.05.31zm-.69-.93c0-.09-.02-.16-.07-.21s-.12-.07-.21-.07h-1.23c-.09 0-.16.02-.21.07s-.07.11-.07.2v.93c0 .09.02.16.07.21s.12.07.21.07h1.23c.09 0 .16-.02.21-.07s.07-.12.07-.21zm0 0" transform="matrix(6.75 0 0 6.75 .02 0)"/><path d="m16.13 9.71c0 .07-.01.14-.02.21s-.04.15-.07.22-.07.14-.12.2c-.05.07-.11.12-.18.17s-.16.09-.25.12-.2.04-.32.04h-1.24c-.07 0-.14-.01-.21-.02s-.15-.04-.22-.07-.14-.07-.2-.12c-.07-.05-.12-.11-.17-.18s-.09-.16-.12-.25c-.03-.1-.05-.21-.05-.32v-3.1h.69v3.1c0 .09.03.15.08.2s.12.07.2.07h1.24c.09 0 .15-.03.2-.08s.07-.12.07-.2v-.92c0-.09-.03-.15-.08-.2s-.12-.07-.2-.07h-1.23v-.7h1.24c.07 0 .14.01.21.02s.14.04.21.07.14.07.21.12.12.11.17.18.09.16.12.25.04.2.04.32zm0 0" transform="matrix(6.75 0 0 6.75 .02 0)"/><path d="m20.69 9.56c0 .13-.02.26-.05.37s-.08.2-.13.29c-.05.08-.12.15-.2.21-.07.06-.15.11-.24.14-.08.04-.16.07-.25.08-.08.02-.16.03-.24.03h-2.64v-.7h2.65c.13 0 .24-.04.31-.12s.11-.18.11-.31c0-.07-.01-.12-.03-.17s-.05-.1-.08-.14-.08-.07-.13-.09-.11-.03-.17-.03h-1.58c-.11 0-.23-.02-.36-.06s-.26-.1-.37-.19-.2-.2-.27-.34c-.07-.15-.11-.32-.11-.53s.04-.38.11-.52.16-.26.27-.35.23-.15.36-.19.25-.06.36-.06h2.34v.69h-2.34c-.13 0-.24.04-.31.12s-.11.18-.11.31.04.24.11.31.18.11.31.11h1.59c.07 0 .15.01.24.03.08.02.16.05.25.08.08.04.16.09.24.15.07.06.14.13.2.21s.11.18.14.29.05.23.05.36zm0 0" transform="matrix(6.75 0 0 6.75 .02 0)"/><path d="m24.57 10.32c0 .05-.01.09-.03.14-.02.04-.04.08-.07.11s-.06.05-.11.07c-.04.02-.08.03-.13.03h-1.55c-.09 0-.18-.01-.27-.03s-.19-.05-.28-.09c-.09-.05-.18-.1-.27-.16-.09-.07-.16-.15-.23-.24s-.12-.2-.16-.33c-.04-.12-.06-.26-.06-.42v-1.59h.69v1.58c0 .09.01.17.04.24s.08.13.13.18.11.09.18.12.15.04.23.04h1.21v-2.16h.69zm0 0" transform="matrix(6.75 0 0 6.75 .02 0)"/><path d="m28.63 9.71c0 .07-.01.14-.02.21s-.04.15-.07.22-.07.14-.12.2c-.05.07-.11.12-.18.17s-.16.09-.25.12-.2.04-.32.04h-1.24c-.07 0-.14-.01-.21-.02s-.15-.04-.22-.07-.14-.07-.2-.12c-.07-.05-.12-.11-.17-.18s-.09-.16-.12-.25-.04-.2-.04-.32v-3.1h.69v3.1c0 .09.03.15.08.2s.12.07.2.07h1.24c.09 0 .15-.03.2-.08s.07-.12.07-.2v-.92c0-.09-.03-.15-.08-.2s-.12-.07-.2-.07h-1.24v-.7h1.24c.07 0 .14.01.21.02s.14.04.21.07.14.07.21.12.12.11.17.18.09.16.12.25.04.2.04.32zm0 0" transform="matrix(6.75 0 0 6.75 .02 0)"/></g></svg>