<svg height="150" viewBox="0 0 225 150" width="225" xmlns="http://www.w3.org/2000/svg"><linearGradient id="a" gradientUnits="userSpaceOnUse" spreadMethod="reflect" x1="18.25" x2="18.25" y1="22.26" y2="1.26"><stop offset="0" stop-color="#afafaf"/><stop offset=".259658" stop-color="#928f8f"/><stop offset=".337191" stop-color="#969696"/><stop offset=".370242" stop-color="#888"/><stop offset=".372962" stop-color="#c0c0c0"/><stop offset=".708052" stop-color="#a2a2a2"/><stop offset="1" stop-color="#d9d9d9"/></linearGradient><linearGradient id="b" gradientUnits="userSpaceOnUse" x1="4.83" x2="4.83" y1=".96" y2="21.77"><stop offset="0" stop-color="#3e3e3e"/><stop offset=".21101" stop-color="#525252"/><stop offset=".647485" stop-color="#666"/><stop offset=".651012" stop-color="#272727"/><stop offset="1" stop-color="#585858"/></linearGradient><linearGradient id="c" gradientUnits="userSpaceOnUse" spreadMethod="reflect" x1="16.67" x2="16.67" y1="11.34" y2="7.72"><stop offset="0" stop-color="#505050"/><stop offset="1" stop-color="#0d0d0d"/></linearGradient><path d="m2.38 1.06h28.57c.59 0 1.06.47 1.06 1.06v17.99c0 .59-.47 1.06-1.06 1.06h-28.57c-.59 0-1.06-.47-1.06-1.06v-17.99c0-.59.47-1.06 1.06-1.06zm0 0" fill="url(#a)" stroke="url(#b)" stroke-width=".4" transform="matrix(6.75 0 0 6.75 .02 0)"/><g fill="#ffe600"><path d="m74.71 108.84h15.39v6.34h-15.39zm0 0"/><path d="m135.78 124.16h22.74v6.34h-22.74zm0 0"/><path d="m95.16 108.84h47.37v6.34h-47.37zm0 0"/><path d="m58.72 124.16h69.98v6.34h-69.98zm0 0"/><path d="m173.16 104.25-7.62 31.71h4.32l7.69-31.71zm6.48 2.9v7.42l14.44 5.54-14.44 5.6v7.35l23.82-9.92v-6.2zm-134.28-.06-23.82 9.85v6.2l23.82 9.92v-7.42l-14.44-5.6 14.44-5.53zm0 0"/></g><g fill="url(#c)" stroke="#101010" stroke-width=".26"><path d="m9.23 6.78-1.52 3.11c-.03.05-.06.08-.11.11s-.1.04-.15.04-.1-.01-.15-.04-.09-.06-.12-.11l-1.52-3.11h.65l1.13 2.32 1.14-2.32zm0 0" transform="matrix(6.75 0 0 6.75 .02 0)"/><path d="m12.99 8.13c0 .13-.02.25-.05.36s-.08.2-.13.28-.12.15-.19.2c-.07.06-.15.11-.23.14s-.16.06-.24.08c-.08.01-.16.02-.23.02h-1.33v-.58h1.32c.07-.01.14-.02.2-.04.06-.03.11-.06.16-.1s.08-.09.1-.15c.03-.06.04-.13.04-.2v-.27c-.01-.07-.02-.14-.05-.2s-.06-.11-.1-.16-.09-.08-.15-.1c-.06-.03-.13-.04-.2-.04h-1.32c-.08 0-.14.02-.18.06s-.06.1-.06.18v2.39h-.58v-2.4c0-.15.03-.27.08-.38s.12-.19.2-.25c.08-.07.17-.11.27-.14.09-.03.18-.04.27-.04h1.32c.13 0 .25.02.35.05.11.03.2.08.28.13s.15.12.2.19c.06.07.11.15.14.23.04.08.07.16.08.24s.02.16.02.23zm0 0" transform="matrix(6.75 0 0 6.75 .02 0)"/><path d="m14.76 10h-.26c-.09 0-.18-.01-.27-.04s-.18-.07-.27-.14c-.08-.07-.15-.15-.2-.25-.05-.11-.08-.24-.08-.39v-2.63h.58v2.63c0 .07.02.13.07.17s.1.06.17.06h.26zm0 0" transform="matrix(6.75 0 0 6.75 .02 0)"/><path d="m17.9 9.2c0 .08-.01.17-.04.26s-.07.18-.14.26c-.06.08-.14.15-.25.2-.1.05-.22.08-.37.08h-1.05c-.08 0-.17-.01-.26-.04s-.18-.07-.26-.14-.15-.15-.2-.25-.08-.23-.08-.38c0-.08.01-.17.04-.26s.07-.18.14-.26.15-.15.25-.2.23-.08.38-.08h1.05v.56h-1.05c-.08 0-.14.02-.18.07-.05.05-.07.11-.07.18s.02.13.07.18c.05.04.11.06.18.06h1.05c.08 0 .14-.02.18-.07.05-.05.07-.11.07-.18v-.81c0-.07-.02-.13-.07-.18s-.11-.07-.18-.07h-1.29v-.55h1.28c.08 0 .17.01.26.04s.18.07.26.14c.08.06.15.14.2.25.05.1.08.22.08.37zm0 0" transform="matrix(6.75 0 0 6.75 .02 0)"/><path d="m21.34 10.24c0 .1-.01.19-.04.27s-.06.15-.1.21-.09.11-.15.15c-.05.05-.11.08-.18.11-.06.03-.12.05-.18.06s-.12.02-.18.02h-1.05v-.58h1.05c.08 0 .14-.02.18-.06s.06-.1.06-.18v-2.66h.58zm-.81-.24h-1.05c-.09 0-.18-.01-.27-.04s-.18-.07-.27-.14c-.08-.07-.15-.15-.2-.25-.05-.11-.08-.23-.08-.38v-1.61h.58v1.61c0 .07.02.13.06.18.04.04.1.06.18.06h1.05zm0 0" transform="matrix(6.75 0 0 6.75 .02 0)"/><path d="m24.78 8.38c0 .08-.01.17-.04.26s-.07.18-.14.26c-.06.08-.14.15-.25.2-.1.05-.22.08-.37.08h-1.06v-.55h1.05c.08 0 .14-.02.18-.07.05-.05.07-.11.07-.18s-.02-.13-.07-.18-.11-.07-.18-.07h-1.05c-.08 0-.14.02-.18.07-.05.05-.07.11-.07.18v.82c0 .08.02.14.07.18.05.05.11.07.18.07h1.05v.55h-1.05c-.08 0-.17-.01-.26-.04s-.18-.07-.26-.14c-.08-.06-.15-.14-.2-.25-.05-.1-.08-.22-.08-.37v-.82c0-.08.01-.17.04-.26s.07-.18.14-.26.15-.15.25-.2.23-.08.38-.08h1.05c.08 0 .17.01.26.04s.18.07.26.14c.08.06.15.14.2.25.05.1.08.22.08.37zm0 0" transform="matrix(6.75 0 0 6.75 .02 0)"/><path d="m27.56 8.16h-1.31c-.08 0-.14.02-.18.06s-.06.1-.06.17v1.61h-.59v-1.61c0-.1.01-.19.04-.27s.06-.15.1-.21c.05-.06.1-.11.15-.15.05-.05.11-.08.17-.11s.12-.05.18-.06.12-.02.18-.02h1.32zm0 0" transform="matrix(6.75 0 0 6.75 .02 0)"/></g></svg>