<svg height="150" viewBox="0 0 225 150" width="225" xmlns="http://www.w3.org/2000/svg"><linearGradient id="a" gradientUnits="userSpaceOnUse" spreadMethod="reflect" x1="18.25" x2="18.25" y1="22.26" y2="1.26"><stop offset="0" stop-color="#afafaf"/><stop offset=".259658" stop-color="#928f8f"/><stop offset=".337191" stop-color="#969696"/><stop offset=".370242" stop-color="#888"/><stop offset=".372962" stop-color="#c0c0c0"/><stop offset=".708052" stop-color="#a2a2a2"/><stop offset="1" stop-color="#d9d9d9"/></linearGradient><linearGradient id="b" gradientUnits="userSpaceOnUse" x1="4.83" x2="4.83" y1=".96" y2="21.77"><stop offset="0" stop-color="#3e3e3e"/><stop offset=".21101" stop-color="#525252"/><stop offset=".647485" stop-color="#666"/><stop offset=".651012" stop-color="#272727"/><stop offset="1" stop-color="#585858"/></linearGradient><linearGradient id="c" gradientUnits="userSpaceOnUse" spreadMethod="reflect" x1="16.67" x2="16.67" y1="11.34" y2="7.72"><stop offset="0" stop-color="#505050"/><stop offset="1" stop-color="#0d0d0d"/></linearGradient><path d="m2.38 1.06h28.57c.59 0 1.06.47 1.06 1.06v17.99c0 .59-.47 1.06-1.06 1.06h-28.57c-.59 0-1.06-.47-1.06-1.06v-17.99c0-.59.47-1.06 1.06-1.06zm0 0" fill="url(#a)" stroke="url(#b)" stroke-width=".4" transform="matrix(6.75 0 0 6.75 .02 0)"/><g fill="#ffe600"><path d="m74.71 108.84h15.39v6.34h-15.39zm0 0"/><path d="m135.78 124.16h22.74v6.34h-22.74zm0 0"/><path d="m95.16 108.84h47.37v6.34h-47.37zm0 0"/><path d="m58.72 124.16h69.98v6.34h-69.98zm0 0"/><path d="m173.16 104.25-7.62 31.71h4.32l7.69-31.71zm6.48 2.9v7.42l14.44 5.54-14.44 5.6v7.35l23.82-9.92v-6.2zm-134.28-.06-23.82 9.85v6.2l23.82 9.92v-7.42l-14.44-5.6 14.44-5.53zm0 0"/></g><g fill="url(#c)" stroke="#101010" stroke-width=".26"><path d="m8.9 6.88-.63 3.55c-.01.07-.05.13-.1.18s-.11.09-.18.1-.14.01-.21-.02-.12-.07-.15-.13l-1.25-2.07-1.26 2.07c-.03.05-.07.09-.12.12s-.11.04-.17.04c-.08 0-.15-.03-.22-.08s-.11-.12-.12-.21l-.64-3.55h.7l.46 2.5 1.08-1.72c.03-.05.07-.09.12-.12s.11-.04.17-.04.12.01.17.04.1.07.13.12l1.07 1.72.46-2.5zm0 0" transform="matrix(6.75 0 0 6.75 .02 0)"/><path d="m12.68 8.76c0 .09-.02.2-.05.31s-.09.21-.16.31c-.07.09-.17.17-.29.24s-.27.1-.44.1h-1.25v-.67h1.24c.09 0 .17-.03.22-.08.05-.06.08-.13.08-.21 0-.09-.03-.16-.09-.21-.05-.05-.12-.08-.21-.08h-1.24c-.09 0-.17.03-.22.09-.05.05-.08.12-.08.21v.96c0 .09.03.16.08.21.06.05.13.08.21.08h1.23v.65h-1.22c-.09 0-.2-.02-.31-.05s-.21-.09-.3-.16-.17-.17-.24-.29c-.07-.13-.1-.28-.1-.45v-.96c0-.09.02-.2.05-.31s.09-.22.16-.31.17-.17.29-.24.27-.1.44-.1h1.24c.09 0 .2.02.31.05s.22.09.31.16.17.17.24.29.1.27.1.44zm0 0" transform="matrix(6.75 0 0 6.75 .02 0)"/><path d="m16.55 9.71c0 .07-.01.14-.02.21s-.04.15-.07.22-.07.14-.12.2c-.05.07-.11.12-.18.17s-.16.09-.25.12-.2.04-.32.04h-1.24c-.07 0-.14-.01-.21-.02s-.15-.04-.22-.07-.14-.07-.2-.12c-.07-.05-.12-.11-.17-.18s-.09-.16-.12-.25-.04-.2-.04-.32v-3.1h.69v3.1c0 .09.03.15.08.2s.12.07.2.07h1.24c.09 0 .15-.03.2-.08s.07-.12.07-.2v-.92c0-.09-.03-.15-.08-.2s-.12-.07-.2-.07h-1.24v-.7h1.24c.07 0 .14.01.21.02s.14.04.21.07.14.07.21.12.12.11.17.18.09.16.12.25.04.2.04.32zm0 0" transform="matrix(6.75 0 0 6.75 .02 0)"/><path d="m21.27 6.88-1.79 3.65c-.03.05-.07.1-.13.13-.05.03-.11.05-.18.05s-.13-.02-.18-.05-.1-.08-.13-.13l-1.79-3.65h.77l1.33 2.73 1.34-2.73zm0 0" transform="matrix(6.75 0 0 6.75 .02 0)"/><path d="m25.37 7.57h-1.51v3.1h-.69v-3.1h-1.51v-.69h3.72zm0 0" transform="matrix(6.75 0 0 6.75 .02 0)"/><path d="m29.57 7.57h-1.52v3.1h-.68v-3.1h-1.52v-.69h3.72zm0 0" transform="matrix(6.75 0 0 6.75 .02 0)"/></g></svg>