<svg viewBox="0 0 126 84" xmlns="http://www.w3.org/2000/svg"><path d="m40.8 33.3c-.987 0-1.78.795-1.78 1.78v.713c0 .987.795 1.78 1.78 1.78h9.15c.987 0 1.78-.795 1.78-1.78v-.713c0-.987-.795-1.78-1.78-1.78zm-13.4-.006c-.987 0-1.78.795-1.78 1.78v.713c0 .987.795 1.78 1.78 1.78h9.15c.987 0 1.78-.795 1.78-1.78v-.713c0-.987-.795-1.78-1.78-1.78zm-14.3.003c-.987 0-1.78.795-1.78 1.78v.713c0 .987.795 1.78 1.78 1.78h9.15c.987 0 1.78-.795 1.78-1.78v-.713c0-.987-.795-1.78-1.78-1.78zm27.7 4.96c-.987 0-1.78.795-1.78 1.78v.713c0 .987.795 1.78 1.78 1.78h9.15c.987 0 1.78-.795 1.78-1.78v-.713c0-.987-.795-1.78-1.78-1.78zm-27.7.039c-.987 0-1.78.795-1.78 1.78v.713c0 .987.795 1.78 1.78 1.78h9.15c.987 0 1.78-.795 1.78-1.78v-.713c0-.987-.795-1.78-1.78-1.78zm14.1.059c-.987 0-1.78.795-1.78 1.78v.713c0 .987.795 1.78 1.78 1.78h9.15c.987 0 1.78-.795 1.78-1.78v-.713c0-.987-.795-1.78-1.78-1.78zm13.5 4.89c-.987 0-1.78.795-1.78 1.78v.713c0 .987.795 1.78 1.78 1.78h9.15c.987 0 1.78-.795 1.78-1.78v-.713c0-.987-.795-1.78-1.78-1.78zm-27.7.039c-.987 0-1.78.795-1.78 1.78v.713c0 .987.795 1.78 1.78 1.78h9.15c.987 0 1.78-.795 1.78-1.78v-.713c0-.987-.795-1.78-1.78-1.78zm14.1.059c-.987 0-1.78.795-1.78 1.78v.713c0 .987.795 1.78 1.78 1.78h9.15c.987 0 1.78-.795 1.78-1.78v-.713c0-.987-.795-1.78-1.78-1.78zm13.6 4.81c-.987 0-1.78.795-1.78 1.78v.713c0 .987.795 1.78 1.78 1.78h9.15c.987 0 1.78-.795 1.78-1.78v-.713c0-.987-.795-1.78-1.78-1.78zm-27.7.039c-.987 0-1.78.795-1.78 1.78v.713c0 .987.795 1.78 1.78 1.78h9.15c.987 0 1.78-.795 1.78-1.78v-.713c0-.987-.795-1.78-1.78-1.78zm14.1.059c-.987 0-1.78.795-1.78 1.78v.713c0 .987.795 1.78 1.78 1.78h9.15c.987 0 1.78-.795 1.78-1.78v-.713c0-.987-.795-1.78-1.78-1.78zm13.5 4.89c-.987 0-1.78.795-1.78 1.78v.713c0 .987.795 1.78 1.78 1.78h9.15c.987 0 1.78-.795 1.78-1.78v-.713c0-.987-.795-1.78-1.78-1.78zm-27.7.039c-.987 0-1.78.795-1.78 1.78v.713c0 .987.795 1.78 1.78 1.78h9.15c.987 0 1.78-.795 1.78-1.78v-.713c0-.987-.795-1.78-1.78-1.78zm14.1.059c-.987 0-1.78.795-1.78 1.78v.713c0 .987.795 1.78 1.78 1.78h9.15c.987 0 1.78-.795 1.78-1.78v-.713c0-.987-.795-1.78-1.78-1.78z" fill="#555"/><path d="m68.6 27.8c-5.51 0-10.4 4.47-10.4 14.9 0 10.5 4.85 14.6 10.3 14.6l.051.041c2.62 0 5.08-1.12 6.97-3.43l-3.23-3.43c-.886 1.23-1.92 1.92-3.2 1.92-2.7 0-5-2.58-5-9.89 0-7.16 2.43-9.82 4.74-9.82 1.35 0 2.19.694 3.16 1.81l3.23-3.54c-1.54-1.69-3.73-3.16-6.62-3.16zm9.65.537v28.6h6.89c5.2 0 8.97-2.66 8.97-8.39 0-3.97-1.85-6.04-5-6.78v-.154c2.85-.924 4.12-3.58 4.12-6.2 0-5.35-3.62-7.08-8.59-7.08zm19.1.033v28.6h5.7v-10.8h1.54l3.81 10.8 6.01-.029-4.7-11.9c2.39-1.35 3.97-3.97 3.97-8.01 0-6.54-3.89-8.66-8.82-8.66zm-13.4 4.32h.77c1.89 0 2.89.885 2.89 3.54 0 2.62-.962 3.81-3 3.81h-.66zm19.1.15h1.27c2.35 0 3.77 1.04 3.77 4.12s-1.42 4.66-3.77 4.66h-1.27zm-19.1 11.3h.961c2.43 0 3.66 1.27 3.66 4.08 0 2.93-1.27 4.35-3.77 4.35h-.852z"/></svg>