<?xml version="1.0" encoding="UTF-8"?>
<svg version="1.1" viewBox="0 0 126 84" xmlns="http://www.w3.org/2000/svg">
	<defs>
		<linearGradient id="linearGradient904" x1="31.4" x2="32.3" y1="57.3" y2="40.8" gradientTransform="matrix(.957 0 0 .957 1.61 2.46)" gradientUnits="userSpaceOnUse" spreadMethod="reflect">
			<stop stop-color="#ffd000" offset="0"/>
			<stop stop-color="#ffeea0" stop-opacity=".998" offset="1"/>
		</linearGradient>
		<linearGradient id="linearGradient860" x1="89.2" x2="90.5" y1="56.7" y2="64.1" gradientTransform="matrix(1.83,0,0,1.83,-86.7,-65.3)" gradientUnits="userSpaceOnUse" spreadMethod="reflect">
			<stop stop-color="#fff" offset="0"/>
			<stop stop-color="#a8a8a8" offset="1"/>
		</linearGradient>
	</defs>
	<linearGradient id="f" x1="116" x2="109" y1="72.4" y2="11.2" gradientTransform="matrix(.98 0 0 .97 1.04 1.08)" gradientUnits="userSpaceOnUse" spreadMethod="reflect">
		<stop offset="0"/>
		<stop stop-color="#292929" offset="1"/>
	</linearGradient>
	<rect x="4.98" y="4.98" width="116" height="74" ry="5.43" fill="url(#f)" stroke="#000" stroke-width="1.95"/>
	<path d="m40.8 33.3c-0.987 0-1.78 0.795-1.78 1.78v0.713c0 0.987 0.795 1.78 1.78 1.78h9.15c0.987 0 1.78-0.795 1.78-1.78v-0.713c0-0.987-0.795-1.78-1.78-1.78zm-13.4-0.0064c-0.987 0-1.78 0.795-1.78 1.78v0.713c0 0.987 0.795 1.78 1.78 1.78h9.15c0.987 0 1.78-0.795 1.78-1.78v-0.713c0-0.987-0.795-1.78-1.78-1.78zm-14.3 0.0032c-0.987 0-1.78 0.795-1.78 1.78v0.713c0 0.987 0.795 1.78 1.78 1.78h9.15c0.987 0 1.78-0.795 1.78-1.78v-0.713c0-0.987-0.795-1.78-1.78-1.78zm27.7 4.96c-0.987 0-1.78 0.795-1.78 1.78v0.713c0 0.987 0.795 1.78 1.78 1.78h9.15c0.987 0 1.78-0.795 1.78-1.78v-0.713c0-0.987-0.795-1.78-1.78-1.78zm-27.7 0.0389c-0.987 0-1.78 0.795-1.78 1.78v0.713c0 0.987 0.795 1.78 1.78 1.78h9.15c0.987 0 1.78-0.795 1.78-1.78v-0.713c0-0.987-0.795-1.78-1.78-1.78zm14.1 0.059c-0.987 0-1.78 0.795-1.78 1.78v0.713c0 0.987 0.795 1.78 1.78 1.78h9.15c0.987 0 1.78-0.795 1.78-1.78v-0.713c0-0.987-0.795-1.78-1.78-1.78zm13.5 4.89c-0.987 0-1.78 0.795-1.78 1.78v0.713c0 0.987 0.795 1.78 1.78 1.78h9.15c0.987 0 1.78-0.795 1.78-1.78v-0.713c0-0.987-0.795-1.78-1.78-1.78zm-27.7 0.0389c-0.987 0-1.78 0.795-1.78 1.78v0.713c0 0.987 0.795 1.78 1.78 1.78h9.15c0.987 0 1.78-0.795 1.78-1.78v-0.713c0-0.987-0.795-1.78-1.78-1.78zm14.1 0.059c-0.987 0-1.78 0.795-1.78 1.78v0.713c0 0.987 0.795 1.78 1.78 1.78h9.15c0.987 0 1.78-0.795 1.78-1.78v-0.713c0-0.987-0.795-1.78-1.78-1.78zm13.6 4.81c-0.987 0-1.78 0.795-1.78 1.78v0.713c0 0.987 0.795 1.78 1.78 1.78h9.15c0.987 0 1.78-0.795 1.78-1.78v-0.713c0-0.987-0.795-1.78-1.78-1.78zm-27.7 0.039c-0.987 0-1.78 0.795-1.78 1.78v0.713c0 0.987 0.795 1.78 1.78 1.78h9.15c0.987 0 1.78-0.795 1.78-1.78v-0.713c0-0.987-0.795-1.78-1.78-1.78zm14.1 0.059c-0.987 0-1.78 0.795-1.78 1.78v0.713c0 0.987 0.795 1.78 1.78 1.78h9.15c0.987 0 1.78-0.795 1.78-1.78v-0.713c0-0.987-0.795-1.78-1.78-1.78zm13.5 4.89c-0.987 0-1.78 0.795-1.78 1.78v0.713c0 0.987 0.795 1.78 1.78 1.78h9.15c0.987 0 1.78-0.795 1.78-1.78v-0.713c0-0.987-0.795-1.78-1.78-1.78zm-27.7 0.039c-0.987 0-1.78 0.795-1.78 1.78v0.713c0 0.987 0.795 1.78 1.78 1.78h9.15c0.987 0 1.78-0.795 1.78-1.78v-0.713c0-0.987-0.795-1.78-1.78-1.78zm14.1 0.059c-0.987 0-1.78 0.795-1.78 1.78v0.713c0 0.987 0.795 1.78 1.78 1.78h9.15c0.987 0 1.78-0.795 1.78-1.78v-0.713c0-0.987-0.795-1.78-1.78-1.78z" fill="url(#linearGradient904)"/>
	<path d="m68.6 27.8c-5.51 0-10.4 4.47-10.4 14.9 0 10.5 4.85 14.6 10.3 14.6l0.0508 0.041c2.62 0 5.08-1.12 6.97-3.43l-3.23-3.43c-0.886 1.23-1.92 1.92-3.2 1.92-2.7 0-5-2.58-5-9.89 0-7.16 2.43-9.82 4.74-9.82 1.35 0 2.19 0.694 3.16 1.81l3.23-3.54c-1.54-1.69-3.73-3.16-6.62-3.16zm9.65 0.537v28.6h6.89c5.2 0 8.97-2.66 8.97-8.39 0-3.97-1.85-6.04-5-6.78v-0.154c2.85-0.924 4.12-3.58 4.12-6.2 0-5.35-3.62-7.08-8.59-7.08zm19.1 0.0332v28.6h5.7v-10.8h1.54l3.81 10.8 6.01-0.0293-4.7-11.9c2.39-1.35 3.97-3.97 3.97-8.01 0-6.54-3.89-8.66-8.82-8.66zm-13.4 4.32h0.77c1.89 0 2.89 0.885 2.89 3.54 0 2.62-0.962 3.81-3 3.81h-0.66zm19.1 0.15h1.27c2.35 0 3.77 1.04 3.77 4.12s-1.42 4.66-3.77 4.66h-1.27zm-19.1 11.3h0.961c2.43 0 3.66 1.27 3.66 4.08 0 2.93-1.27 4.35-3.77 4.35h-0.852z" fill="url(#linearGradient860)" opacity=".995" stroke-width="0"/>
</svg>
