<?xml version="1.0" encoding="UTF-8"?>
<svg version="1.1" viewBox="0 0 126 84" xmlns="http://www.w3.org/2000/svg">
	<defs>
		<linearGradient id="linearGradient904" x1="31.4" x2="32.3" y1="57.3" y2="40.8" gradientTransform="matrix(.957 0 0 .957 1.61 2.46)" gradientUnits="userSpaceOnUse" spreadMethod="reflect">
			<stop stop-color="#ffd000" offset="0"/>
			<stop stop-color="#ffeea0" stop-opacity=".998" offset="1"/>
		</linearGradient>
		<linearGradient id="linearGradient860" x1="89.2" x2="90.5" y1="56.7" y2="64.1" gradientTransform="matrix(1.83,0,0,1.83,-86.7,-65.3)" gradientUnits="userSpaceOnUse" spreadMethod="reflect">
			<stop stop-color="#fff" offset="0"/>
			<stop stop-color="#a8a8a8" offset="1"/>
		</linearGradient>
	</defs>
	<linearGradient id="f" x1="116" x2="109" y1="72.4" y2="11.2" gradientTransform="matrix(.98 0 0 .97 1.04 1.08)" gradientUnits="userSpaceOnUse" spreadMethod="reflect">
		<stop offset="0"/>
		<stop stop-color="#292929" offset="1"/>
	</linearGradient>
	<rect x="4.98" y="4.98" width="116" height="74" ry="5.43" fill="url(#f)" stroke="#000" stroke-width="1.95"/>
	<path d="m27.4 23.4c-0.987 0-1.78 0.795-1.78 1.78v0.713c0 0.987 0.795 1.78 1.78 1.78h9.15c0.987 0 1.78-0.795 1.78-1.78v-0.713c0-0.987-0.795-1.78-1.78-1.78zm0.0297 4.91c-0.987 0-1.78 0.795-1.78 1.78v0.713c0 0.987 0.795 1.78 1.78 1.78h9.15c0.987 0 1.78-0.795 1.78-1.78v-0.713c0-0.987-0.795-1.78-1.78-1.78zm-0.0594 4.99c-0.987 0-1.78 0.795-1.78 1.78v0.713c0 0.987 0.795 1.78 1.78 1.78h9.15c0.987 0 1.78-0.795 1.78-1.78v-0.713c0-0.987-0.795-1.78-1.78-1.78zm-14.3 0.0032c-0.987 0-1.78 0.795-1.78 1.78v0.713c0 0.987 0.795 1.78 1.78 1.78h9.15c0.987 0 1.78-0.795 1.78-1.78v-0.713c0-0.987-0.795-1.78-1.78-1.78zm27.7 4.96c-0.987 0-1.78 0.795-1.78 1.78v0.713c0 0.987 0.795 1.78 1.78 1.78h9.15c0.987 0 1.78-0.795 1.78-1.78v-0.713c0-0.987-0.795-1.78-1.78-1.78zm-27.7 0.0389c-0.987 0-1.78 0.795-1.78 1.78v0.713c0 0.987 0.795 1.78 1.78 1.78h9.15c0.987 0 1.78-0.795 1.78-1.78v-0.713c0-0.987-0.795-1.78-1.78-1.78zm14.1 0.059c-0.987 0-1.78 0.795-1.78 1.78v0.713c0 0.987 0.795 1.78 1.78 1.78h9.15c0.987 0 1.78-0.795 1.78-1.78v-0.713c0-0.987-0.795-1.78-1.78-1.78zm13.5 4.89c-0.987 0-1.78 0.795-1.78 1.78v0.713c0 0.987 0.795 1.78 1.78 1.78h9.15c0.987 0 1.78-0.795 1.78-1.78v-0.713c0-0.987-0.795-1.78-1.78-1.78zm-27.7 0.0389c-0.987 0-1.78 0.795-1.78 1.78v0.713c0 0.987 0.795 1.78 1.78 1.78h9.15c0.987 0 1.78-0.795 1.78-1.78v-0.713c0-0.987-0.795-1.78-1.78-1.78zm14.1 0.059c-0.987 0-1.78 0.795-1.78 1.78v0.713c0 0.987 0.795 1.78 1.78 1.78h9.15c0.987 0 1.78-0.795 1.78-1.78v-0.713c0-0.987-0.795-1.78-1.78-1.78zm13.6 4.81c-0.987 0-1.78 0.795-1.78 1.78v0.713c0 0.987 0.795 1.78 1.78 1.78h9.15c0.987 0 1.78-0.795 1.78-1.78v-0.713c0-0.987-0.795-1.78-1.78-1.78zm-27.7 0.039c-0.987 0-1.78 0.795-1.78 1.78v0.713c0 0.987 0.795 1.78 1.78 1.78h9.15c0.987 0 1.78-0.795 1.78-1.78v-0.713c0-0.987-0.795-1.78-1.78-1.78zm14.1 0.059c-0.987 0-1.78 0.795-1.78 1.78v0.713c0 0.987 0.795 1.78 1.78 1.78h9.15c0.987 0 1.78-0.795 1.78-1.78v-0.713c0-0.987-0.795-1.78-1.78-1.78zm13.5 4.89c-0.987 0-1.78 0.795-1.78 1.78v0.713c0 0.987 0.795 1.78 1.78 1.78h9.15c0.987 0 1.78-0.795 1.78-1.78v-0.713c0-0.987-0.795-1.78-1.78-1.78zm-27.7 0.039c-0.987 0-1.78 0.795-1.78 1.78v0.713c0 0.987 0.795 1.78 1.78 1.78h9.15c0.987 0 1.78-0.795 1.78-1.78v-0.713c0-0.987-0.795-1.78-1.78-1.78zm14.1 0.059c-0.987 0-1.78 0.795-1.78 1.78v0.713c0 0.987 0.795 1.78 1.78 1.78h9.15c0.987 0 1.78-0.795 1.78-1.78v-0.713c0-0.987-0.795-1.78-1.78-1.78z" fill="url(#linearGradient904)"/>
	<path d="m78.2 28.3v28.6h6.89c5.2 0 8.97-2.66 8.97-8.39 0-3.97-1.85-6.04-5-6.78v-0.154c2.85-0.924 4.12-3.58 4.12-6.2 0-5.35-3.62-7.08-8.59-7.08h-6.39zm-21.2 0.0039 5.66 28.6h7.16l5.66-28.6h-5.78l-1.85 13.9c-0.462 3.27-0.847 6.31-1.42 9.55h-0.193c-0.5-3.23-0.924-6.28-1.35-9.55l-1.92-13.9h-5.97zm40.3 0.0293v28.6h5.7v-10.8h1.54l3.81 10.8 6.01-0.0293-4.7-11.9c2.39-1.35 3.97-3.97 3.97-8.01 0-6.54-3.89-8.66-8.82-8.66h-7.51zm-13.4 4.32h0.77c1.89 0 2.89 0.885 2.89 3.54 0 2.62-0.962 3.81-3 3.81h-0.66zm19.1 0.15h1.27c2.35 0 3.77 1.04 3.77 4.12s-1.42 4.66-3.77 4.66h-1.27zm-19.1 11.3h0.961c2.43 0 3.66 1.27 3.66 4.08 0 2.93-1.27 4.35-3.77 4.35h-0.852v-8.43z" fill="url(#linearGradient860)" opacity=".995" stroke-width="0"/>
</svg>
