<svg height="150" viewBox="0 0 150 150" width="150" xmlns="http://www.w3.org/2000/svg"><g stroke-width="1.17"><path d="m33.08 8.86c-6.47.04-11.69 4.56-11.72 10.11v53.89c0 5.53 9.44 11.03 9.44 11.03-1.24 8.53-5.86 11.17-1.4 17.33 2.26 2.66 43.89-18.3 43.89-18.3h45.83c6.42 0 11.72-4.58 11.72-10.08v-53.89c0-5.53-5.33-10.08-11.72-10.08zm0 6.72h86.11c2.19 0 3.92 1.48 3.92 3.36v53.89c.01 1.86-1.74 3.36-3.92 3.36h-48.05l-37.22 17.25 5.22-12.78c-3.5-2.14-8.03-6.25-9.92-7.86v-53.89c0-1.88 1.72-3.36 3.92-3.36zm40.83 6.19v8.86h-17.19v8.86h24.75c-.85 1.71-1.97 3.47-3.25 5.33-.62.88-1.39 1.61-2.08 2.4-3.08-2.94-5.39-5.5-5.39-5.5l-6.56 5.67s2.32 2.66 5.61 5.78c-3.86 2.69-8.42 4.11-13.08 4.06v8.86c8 0 14.61-3 19.78-7.08 4.97 3.72 11 7.08 17.78 7.08v-8.86c-3.42 0-7.64-1.95-11.42-4.44l2.22-2.66c2.34-3.33 4.36-6.92 6.03-10.67h8.58v-8.86h-17.19v-8.86z"/><path d="m40.34 112.9c-3.15 0-5.53 1.19-7.14 3.57s-2.4 5.91-2.4 10.56c0 4.64.8 8.16 2.4 10.54 1.62 2.38 4 3.57 7.14 3.57 3.16 0 5.54-1.19 7.14-3.57 1.62-2.38 2.43-5.89 2.43-10.54 0-4.66-.81-8.18-2.43-10.56-1.61-2.38-3.99-3.57-7.14-3.57zm47.85 0c-3.68 0-6.48 1.21-8.4 3.63-1.94 2.42-2.89 5.92-2.89 10.5 0 4.57.97 8.06 2.89 10.48 1.94 2.42 4.74 3.63 8.4 3.63 1.03 0 2.02-.11 2.95-.33s1.83-.55 2.68-.99v-5.98c-.92.85-1.82 1.48-2.7 1.88-.86.39-1.76.58-2.68.58-1.97 0-3.45-.78-4.47-2.33-1-1.56-1.49-3.89-1.49-6.94 0-3.08.5-5.39 1.49-6.94 1.01-1.56 2.5-2.36 4.47-2.36.92 0 1.82.2 2.68.6.88.39 1.77 1.01 2.7 1.86v-5.98c-.83-.44-1.72-.77-2.66-.99s-1.94-.33-2.98-.33zm-78.19.49v27.19h5.38v-11.9h10.54v-4.74h-10.54v-5.87h11.58v-4.74h-16.92zm44.12 0v27.19h5.38v-10.76h1.72c1.3 0 2.43 1.03 3.4 3.08.16.34.29.61.38.8l3.28 6.87h5.91l-4.93-9.79c-.57-1.14-1.06-1.91-1.46-2.3-.39-.4-.85-.66-1.39-.77 1.72-.22 3.02-.88 3.94-1.98.91-1.11 1.37-2.59 1.37-4.47 0-2.8-.77-4.81-2.3-6.06-1.52-1.24-4.03-1.86-7.53-1.86h-7.77zm45.63 0v27.19h16.92v-4.74h-11.58v-7.13h10.48v-4.74h-10.48v-5.87h11.58v-4.74h-16.92zm21.94 0v27.19h5.77c4.45 0 7.66-1.06 9.6-3.19 1.96-2.14 2.94-5.63 2.94-10.45 0-4.81-.98-8.27-2.94-10.4-1.96-2.12-5.16-3.19-9.6-3.19h-5.77zm-81.23 4.34c1.39 0 2.39.74 3.02 2.21.63 1.46.95 3.83.95 7.1 0 3.26-.32 5.63-.95 7.1-.63 1.46-1.65 2.19-3.02 2.19s-2.38-.73-3.01-2.19c-.63-1.47-.95-3.84-.95-7.1 0-3.27.32-5.64.95-7.1.63-1.47 1.63-2.21 3.01-2.21zm19.02.18h2.53c1.48 0 2.54.29 3.17.86s.95 1.52.95 2.85-.32 2.28-.97 2.86c-.63.57-1.68.86-3.15.86h-2.53v-7.42zm67.57.33h1.46c2.11 0 3.62.66 4.53 1.98.9 1.33 1.35 3.57 1.35 6.75 0 3.2-.45 5.46-1.35 6.8-.9 1.33-2.4 1.98-4.53 1.98h-1.46z"/></g></svg>