<svg height="180" viewBox="0 0 135 135" width="180" xmlns="http://www.w3.org/2000/svg"><g transform="matrix(.01 0 0 -.01 5.25 131.49)"><path d="m8452 10502c609.67-528.89 1151.4-1234.1 1442-1912 26-63 55-126 66-140l19-25c896.64 880.97 1792.5 1773.4 2501 2477 59.52 1978.6-185.85 1897.8-1825 1896-726.45-771.58-1500.1-1507.4-2203-2296z"/><path d="m2177.9 8344.5c-177.39-307.59-208.22-668.2 56.87-847.75 516.59-284.84 596.3 530.61 719.34 846.87 487.4 1008 1513.6 1794.2 2647.2 1814.5 1642.1 169.56 3252.2-1225.3 3328.4-2873.2 99.05-936.34-237.66-1908.4-932.31-2551.2-507.67-531.48-1050.7-1043.8-1394.3-1704.2-473.88-1091.8-1048.2-2290.3-2321.3-1442-463.57 262.01-557.83-426.55-106.81-630.44 733.33-453.6 1756.9-226.6 2271.1 453.27 355.33 471.14 480.95 1076.4 864.01 1533.4 647.4 928.15 1719.3 1552.1 2075.6 2676.3 219.26 519.83 248.93 1085.1 223.71 1641.5-240.18 2339.3-1886.5 3583.5-3938.2 3594.4-1617.7 21.98-3084.7-1403.2-3493.3-2511.5z"/><path d="m5615 9684c-930.14-89.37-1834.9-672.08-2191.9-1553.1-51.44-309.64 469.54-468.84 591.74-174.84 482.03 1037.6 1935.3 1439.4 2886.9 807.49 837.26-507.12 1276.4-1644.4 885.09-2562.5-60.03-256.11-441.21-518.87-193.34-783.63 279.73-201.13 561.68 127.89 634.98 384.84 424.81 925.64 328.58 2092.3-329.76 2886.6-545.48 667.6-1421.2 1059.1-2283.7 995.16z"/><path d="m0 1955c-128.49-1862.3-19.5-1955 1757-1955 1002.8 1031.4 2515.9 2552 3429.3 3581-784.94 508.26-1567.6 974.54-2215 1339.1-1093.9-1031.8-2155.7-2137.7-2971.4-2965.2z"/></g></svg>