<svg height="462.86" width="462.86" xmlns="http://www.w3.org/2000/svg"><path d="m22.86 405.239v-34.762h15.759 15.758v-139.048-139.047h-15.758-15.759v-34.762-34.762h34.762 34.762v15.759 15.758h8.806 8.807v-15.758-15.759h34.761 34.762v15.759 15.758h8.575 8.575v-15.758-15.759h34.761 34.762v15.759 15.758h8.807 8.806v-15.758-15.759h34.762 34.762v15.759 15.758h8.574 8.575v-15.758-15.759h34.762 34.762v34.762 34.762h-15.759-15.759v139.047 139.048h15.759 15.759v34.762 34.762h-34.762-34.762v-15.759-15.759h-139.048-139.047v15.759 15.759h-34.762-34.762zm347.619-19.003v-15.759h15.759 15.759v-139.048-139.047h-15.759-15.759v-15.759-15.759h-8.575-8.574v15.759 15.759h-34.762-34.762v-15.759-15.759h-8.806-8.807v15.759 15.759h-34.762-34.761v-15.759-15.759h-8.575-8.575v15.759 15.759h-34.762-34.761v-15.759-15.759h-8.807-8.806v15.759 15.759h-15.759-15.759v139.047 139.048h15.759 15.759v15.759 15.758h139.047 139.048zm-177.054-154.807v-38.006h38.006 38.007v38.006 38.007h-38.007-38.006zm69.524 0v-31.517h-31.518-31.517v31.517 31.518h31.517 31.518z"/></svg>