<svg height="84" viewBox="0 0 126 84" width="126" xmlns="http://www.w3.org/2000/svg"><g stroke-width="0" transform="matrix(1.2 0 0 .95 -13.09 2.73)"><path d="m59.4 42.4c-4.75 0-8.43 1.32-11 3.95-2.59 2.61-3.89 6.36-3.89 11.3 0 3.67.739 6.69 2.21 9.03 1.48 2.35 3.23 3.99 5.26 4.93 2.04.923 4.67 1.38 7.88 1.38 2.64 0 4.82-.382 6.53-1.15 1.72-.766 3.16-1.9 4.32-3.4 1.15-1.5 1.99-3.37 2.53-5.61l-8-2.42c-.403 1.87-1.06 3.29-1.96 4.27-.884.982-2.2 1.47-3.95 1.47-1.8 0-3.19-.603-4.18-1.81-.992-1.22-1.49-3.47-1.49-6.75 0-2.64.418-4.58 1.25-5.82 1.1-1.67 2.69-2.51 4.76-2.51.914 0 1.74.187 2.48.56.737.373 1.36.908 1.87 1.61.305.413.599 1.07.884 1.98l8.06-1.8c-1.04-3.11-2.63-5.42-4.76-6.93-2.12-1.5-5.04-2.25-8.77-2.25zm-45.2.515v29.5h9.17v-11h4.99c3.67 0 6.4-.841 8.19-2.52 1.8-1.67 2.7-4 2.7-6.98 0-2.9-.826-5.13-2.48-6.7-1.64-1.57-4.11-2.36-7.41-2.36zm64.8 0v29.5h7.47v-22.5l5.76 22.5h6.75l5.78-22.5v22.5h7.46v-29.5h-12l-4.61 18-4.62-18zm-55.6 5.98h2.59c1.71 0 2.87.324 3.49.972.619.648.93 1.44.93 2.36 0 .953-.354 1.74-1.06 2.36-.717.609-1.96.912-3.71.912h-2.24z"/><g transform="scale(.98 1.02)"><text fill="none" stroke="#000" stroke-width="0" x="8.36" y="80.49"><tspan fill="#000" stroke="none" x="8.36" y="80.49"/></text><path d="m52.7 31.7h-9.35l-1.29 4.39h-8.39l9.99-26.6h8.95l9.99 26.6h-8.59zm-1.72-5.75-2.94-9.55-2.92 9.55z"/><path d="m71.1 9.53h12.2q3.61 0 5.82.979 2.23.979 3.68 2.81 1.45 1.831 2.1 4.26.653 2.43.653 5.15 0 4.26-.979 6.62-.961 2.34-2.68 3.93-1.72 1.58-3.7 2.1-2.7.725-4.89.725h-12.2zm8.21 6.02v14.5h2.01q2.57 0 3.66-.562 1.09-.58 1.7-1.99.616-1.43.616-4.62 0-4.22-1.38-5.78-1.38-1.56-4.57-1.56z"/></g></g></svg>