<svg height="84" viewBox="0 0 126 84" width="126" xmlns="http://www.w3.org/2000/svg"><path d="m52.933 12.752v8.6h6.791v-8.6zm35.464 0c-4.65 0-8.045 1.059-10.185 3.175-2.14 2.091-3.211 5.436-3.211 10.037v2.878h-6.496v5.277h6.496v36.054h6.826v-36.054h11.182v-5.277h-11.181v-3.653c0-2.559.467-4.33 1.402-5.314.959-.984 2.657-1.477 5.093-1.477h6.496v-5.646zm27.181.006c-4.65 0-8.045 1.059-10.185 3.175-2.14 2.091-3.211 5.436-3.211 10.037v2.878h-6.496v5.277h6.496v36.056h6.826v-36.056h11.182v-5.277h-11.182v-3.653c0-2.559.467-4.33 1.402-5.314.959-.984 2.657-1.477 5.093-1.477h6.496v-5.646zm-94.492 15.086c-2.214 0-4.491.247-6.828.739-2.337.467-4.747 1.18-7.232 2.139v6.275c2.067-1.132 4.218-1.982 6.457-2.548s4.54-.848 6.902-.848c3.715 0 6.593.864 8.635 2.586 2.067 1.698 3.1 4.107 3.1 7.232v.664h-9.521c-6.175 0-10.825 1.181-13.949 3.543-3.1 2.362-4.65 5.866-4.65 10.515 0 3.986 1.242 7.172 3.727 9.559 2.509 2.362 5.881 3.543 10.112 3.543 3.346 0 6.174-.59 8.487-1.771 2.313-1.206 4.245-3.064 5.794-5.573v6.275h6.791v-23.579c0-6.298-1.476-11-4.428-14.1s-7.418-4.65-13.396-4.65zm31.847.998v41.33h6.791v-41.33zm-27.567 20.554h6.753v1.512c0 4.428-1.144 7.982-3.432 10.664-2.263 2.657-5.277 3.986-9.041 3.986-2.731 0-4.897-.701-6.496-2.104-1.575-1.427-2.361-3.346-2.361-5.757 0-3.026 1.057-5.166 3.173-6.421s5.917-1.88 11.403-1.88z" stroke-width="1.012"/></svg>