<?xml version="1.0" encoding="UTF-8"?>
<svg width="126" height="84" version="1.1" viewBox="0 0 126 84" xmlns="http://www.w3.org/2000/svg">
	<g transform="matrix(.766 0 0 .766 4.99 -43.8)">
		<path d="m65.7 62.5v8.6h6.79v-8.6zm35.5 0c-4.65 0-8.04 1.06-10.2 3.18-2.14 2.09-3.21 5.44-3.21 10v2.88h-6.5v5.28h6.5v36.1h6.83v-36.1h11.2v-5.28h-11.2v-3.65c0-2.56 0.467-4.33 1.4-5.31 0.959-0.984 2.66-1.48 5.09-1.48h6.5v-5.65zm27.2 6e-3c-4.65 0-8.04 1.06-10.2 3.18-2.14 2.09-3.21 5.44-3.21 10v2.88h-6.5v5.28h6.5v36.1h6.83v-36.1h11.2v-5.28h-11.2v-3.65c0-2.56 0.467-4.33 1.4-5.31 0.959-0.984 2.66-1.48 5.09-1.48h6.5v-5.65zm-94.5 15.1c-2.21 0-4.49 0.247-6.83 0.739-2.34 0.467-4.75 1.18-7.23 2.14v6.27c2.07-1.13 4.22-1.98 6.46-2.55s4.54-0.848 6.9-0.848c3.71 0 6.59 0.864 8.64 2.59 2.07 1.7 3.1 4.11 3.1 7.23v0.664h-9.52c-6.18 0-10.8 1.18-13.9 3.54-3.1 2.36-4.65 5.87-4.65 10.5 0 3.99 1.24 7.17 3.73 9.56 2.51 2.36 5.88 3.54 10.1 3.54 3.35 0 6.17-0.59 8.49-1.77 2.31-1.21 4.24-3.06 5.79-5.57v6.27h6.79v-23.6c0-6.3-1.48-11-4.43-14.1-2.95-3.1-7.42-4.65-13.4-4.65zm31.8 0.998v41.3h6.79v-41.3zm-27.6 20.6h6.75v1.51c0 4.43-1.14 7.98-3.43 10.7-2.26 2.66-5.28 3.99-9.04 3.99-2.73 0-4.9-0.701-6.5-2.1-1.57-1.43-2.36-3.35-2.36-5.76 0-3.03 1.06-5.17 3.17-6.42s5.92-1.88 11.4-1.88z" stroke-width="1.01"/>
		<path d="m87 133v4.48c-1.35-0.747-2.72-1.3-4.09-1.67-1.35-0.382-2.73-0.573-4.11-0.573-3.11 0-6.33 0.359-8.05 2.34-1.8 1.8 2.22 3.5 2.05 4.79-0.139 1.06-3.99 0.292-4.2 1.03-0.38 1.32 4.16 1.69 4.16 3.37 0 1.88-3.27 1.75-3.24 3.26 0.0232 1.29 3.48 0.913 3.26 2.03 0.129 1.21-2.99 2.2-2.36 2.94 1.1 1.3 6.41 2.75 8.39 2.75 1.39 0 2.76-0.182 4.11-0.547 1.37-0.382 2.73-0.946 4.09-1.69v4.43c-1.34 0.625-2.73 1.09-4.17 1.41-1.42 0.312-2.94 0.469-4.56 0.469-4.39 0-9.46-3.59-12-6.35-0.525-0.797 3.05-1.46 2.48-2.99-0.458-1.21-3.61-1.54-3.56-2.47 0.103-1.89 3.01-1.33 3.01-3.59 0-1.96-4.01-0.915-3.57-2.53 0.279-1.02 5.53-1.37 5.57-2.41 0.0244-0.548-6.79-1.56-3.86-4.75 2.62-2.73 7.74-5.53 12.3-5.53 1.48 0 2.92 0.156 4.32 0.469 1.41 0.295 2.77 0.747 4.09 1.35z"/>
	</g>
</svg>
