<svg height="84" viewBox="0 0 126 84" width="126" xmlns="http://www.w3.org/2000/svg"><path d="m105.804 31.558c-1.581 2.5-3.766 6.901.526 5.301 4.784-2 11.626-1.4 15.619.9v-5.101c-5.014-2.3-10.882-2.8-16.145-1.1zm.526 5.301c-.761-2.1 2.025-7.201-2.151-4.6-8.21 3.7-10.041 14.301-7.786 22.202 1.783 7.101 9.088 11.801 16.26 11.101 2.913-.4 8.309-.1 9.296-3.1-.257-1.6.938-5.501-1.731-3.2-5.469 2.5-13.494 2.8-16.945-3-2.781-5.301-2.788-12.301.645-17.202.665-.9 1.492-1.6 2.412-2.2zm-62.765-18.502v46.405h5.484v-46.405zm-25.72 12.201c-3.664.3-9.205.4-11.355 3.1.358 1.3-.974 5.401 1.265 3.6 5.077-2.2 11.684-3.4 16.498 0 1.805 1.2 4.606 7.501.471 6.401-6.213.1-13.453-.8-18.199 4-4.505 5.201-2.888 15.102 4.093 17.202 5.716 1.9 13.053.4 16.139-5.201v5.101h5.484c-.102-7.6.23-15.101-.224-22.602-.363-5.5-4.426-10.601-10.003-11.201-1.373-.3-2.772-.4-4.168-.4zm54.361 0c-3.664.3-9.205.4-11.355 3.1.358 1.3-.974 5.401 1.265 3.6 5.077-2.2 11.684-3.4 16.498 0 1.805 1.2 4.606 7.501.471 6.401-6.213.1-13.453-.8-18.199 4-4.505 5.201-2.888 15.102 4.093 17.202 5.716 1.9 13.053.4 16.139-5.201v5.101h5.484c-.102-7.601.231-15.102-.224-22.602-.364-5.501-4.426-10.601-10.003-11.201-1.373-.3-2.772-.4-4.168-.4zm-50.904 17.402h5.454c.476 5.301-2.034 11.801-7.907 12.801-3.862 1-9.125-.8-9.289-5.401-1.001-5.501 4.991-7.601 9.394-7.401h2.349zm54.361 0h5.454c.476 5.301-2.034 11.801-7.907 12.801-3.862 1-9.125-.8-9.289-5.401-1.001-5.501 4.991-7.601 9.394-7.401h2.349z" stroke-width=".954"/></svg>