<svg height=".88in" viewBox="0 0 1.31 .875" width="1.31in" xmlns="http://www.w3.org/2000/svg"><g transform="matrix(.27 0 0 .29 .04 .04)"><path d="m4.06.308c0 .013-.001.023-.001.027-.003.029 0 .042-.083.042s-.08-.014-.083-.042c-.001-.009-.002-.061-.002-.085s.001-.075.002-.085c.003-.029 0-.042.083-.042s.08.014.083.042c0 .004.001.015.001.029h.114c-.001-.026-.002-.047-.003-.059-.007-.058.016-.113-.195-.113s-.188.055-.195.113c-.002.019-.004.066-.004.114s.002.096.004.114c.007.058-.016.113.195.113s.188-.055.195-.113c.001-.011.002-.032.003-.057h-.113z"/><path d="m2.72.034-.11.324-.12-.324-.16-.001v.435h.11v-.324l.11.324h.11l.11-.324v.324h.11v-.435z"/><path d="m4.31.468v-.324h-.11v-.111h.32v.111h-.1v.324z"/><path d="m3.64.033.13.435h-.11l-.03-.09h-.14l.02-.07h.1l-.05-.178-.1.338h-.11l.13-.435z"/><path d="m2.06.123c.083 0 .08.014.083.042.001.009.002.061.002.085s-.001.075-.002.085c-.003.029 0 .042-.083.042s-.08-.014-.083-.042c-.001-.009-.002-.061-.002-.085s.001-.075.002-.085c.003-.029 0-.042.083-.042v-.1c-.211 0-.188.055-.195.113-.002.019-.004.066-.004.114s.002.096.004.114c.007.058-.016.113.195.113s.188-.055.195-.113c.002-.019.004-.066.004-.114s-.002-.096-.004-.114c-.007-.058.016-.113-.195-.113z"/><path d="m1.69.308c0 .013-.001.023-.001.027-.003.029 0 .042-.083.042s-.08-.014-.083-.042c-.001-.009-.002-.061-.002-.085s.001-.075.002-.085c.003-.029 0-.042.083-.042s.08.014.083.042c0 .004.001.015.001.029h.114c-.001-.026-.002-.047-.003-.059-.007-.058.016-.113-.195-.113s-.188.055-.195.113c-.002.019-.004.066-.004.114s.002.096.004.114c.007.058-.016.113.195.113s.188-.055.195-.113c.001-.011.002-.032.003-.057h-.113z"/><path d="m3.15.369h-.067v-.099h.067c.083 0 .081-.014.084-.042.001-.009.001-.002.001-.026s0-.016-.001-.025c-.003-.029-.001-.042-.084-.042h-.067v.334h-.111v-.434h.178c.211 0 .188.055.195.113.001.007.001.038.001.055 0 .014 0 .045-.001.055-.005.058.015.112-.195.112z"/><path d="m4.33 2.42c.083 0 .08.014.083.042.001.009.002.061.002.085s-.001.075-.002.085c-.003.029 0 .042-.083.042s-.08-.014-.083-.042c-.001-.009-.002-.061-.002-.085s.001-.075.002-.085c.003-.029 0-.042.083-.042v-.1c-.211 0-.188.055-.195.113-.002.019-.004.066-.004.114s.002.096.004.114c.007.058-.016.113.195.113s.188-.055.195-.113c.002-.019.004-.066.004-.114s-.002-.096-.004-.114c-.007-.058.016-.113-.195-.113z"/><path d="m2.86 2.33.13.43h-.11l-.03-.09h-.14l.02-.07h.1l-.05-.17-.1.33h-.11l.13-.43z"/><path d="m1.94 2.33.13.43h-.11l-.03-.09h-.15l.03-.07h.1l-.05-.17-.1.33h-.11l.12-.43z"/><path d="m.626 2.77h-.111v-.44h.111z"/><path d="m1.27 2.77h-.11v-.44h.11z"/><path d="m1.44 2.77v-.33h-.11v-.11h.32v.11h-.1v.33z"/><path d="m2.24 2.33h-.11v.44h.28v-.11h-.17z"/><path d="m4.06 2.77h-.11v-.44h.11z"/><path d="m3.62 2.33h.06c.211 0 .188.055.195.113.002.019.004.052.004.1s-.002.09-.004.108c-.007.058.016.113-.195.113h-.193v-.435h.133l-.002.1h-.02v.236l.082-.001c.083 0 .08-.014.083-.042.001-.009.002-.055.002-.079s-.001-.061-.002-.071c-.003-.029 0-.042-.083-.042h-.062z"/><path d="m3.42 2.55v-.217h-.113v.217c0 .024-.001.075-.002.085-.003.029 0 .042-.083.042s-.08-.014-.083-.042c-.001-.009-.002-.061-.002-.085v-.217h-.114v.217c0 .048.002.096.004.114.007.058-.016.113.195.113s.188-.055.195-.113c.002-.019.004-.066.004-.114z"/><path d="m.979 2.61c0 .013-.001.023-.001.027-.003.029 0 .042-.083.042s-.08-.014-.083-.042c-.001-.009-.002-.061-.002-.085s.001-.075.002-.085c.003-.029 0-.042.083-.042s.08.014.083.042c0 .004.001.001.001.015h.114c-.001-.026-.002-.033-.003-.045-.007-.058.016-.113-.195-.113s-.188.055-.195.113c-.002.019-.004.066-.004.114s.002.096.004.114c.007.058-.016.113.195.113s.188-.055.195-.113c.001-.011.002-.032.003-.057h-.113z"/><path d="m.894 2.61h.196v-.07h-.196z"/><path d="m.185 2.33h.06c.211 0 .188.055.195.113.002.019.004.052.004.1s-.002.09-.004.108c-.007.058.016.113-.195.113h-.193v-.435h.133l-.002.1h-.02v.236l.082-.001c.083 0 .08-.014.083-.042.001-.009.002-.055.002-.079s-.001-.061-.002-.071c-.003-.029 0-.042-.083-.042h-.062z"/><path d="m.996 2.11-.694-.001c-.1 0-.182-.081-.182-.182v-1.06c0-.1.081-.182.182-.182h.434c.052 0 .095-.042.095-.095l.001-.422c0-.022.018-.04.04-.04h.255c.022 0 .04.018.04.04l.003 1.9c0 .022-.018.04-.04.04h-.133l-.003.094h.174c.052 0 .095-.042.095-.095v-1.98c0-.052-.042-.095-.095-.095h-.334c-.052 0-.095.042-.095.095v.424c0 .022-.018.04-.04.04l-.397-.001c-.153 0-.277.124-.277.277v1.06c0 .153.124.277.277.277h.691z"/><path d="m.738 1.72v-.684c0-.057-.046-.104-.104-.104-.057 0-.104.046-.104.104v.738c0 .057.046.104.104.104.057 0 .104-.047.104-.104v-.054l.094.003v.051c0 .109-.089.198-.198.198s-.198-.089-.198-.198v-.738c0-.109.089-.198.198-.198s.198.089.198.198v.687z"/><path d="m1.66 2.11h-.13c-.022 0-.04-.018-.04-.04l.002-1.34c0-.022.018-.04.04-.04h.255c.022 0 .04.018.04.04l.003 1.34c0 .022-.018.04-.04.04h-.129v.094h.167c.052 0 .095-.042.095-.095v-1.42c0-.052-.042-.095-.095-.095h-.334c-.052 0-.095.042-.095.095v1.42c0 .052.042.095.094.095h.168z"/><path d="m2.86.949h-.28c-.086 0-.156.07-.156.156s.07.156.156.156l.383.001c.1 0 .182.081.182.182l-.001.477c0 .1-.081.182-.182.182l-.761.001c-.022 0-.04-.018-.04-.04v-.185c0-.022.018-.04.04-.04l.519-.002c.086 0 .156-.07.156-.156s-.07-.156-.156-.156l-.376-.001c-.1 0-.182-.081-.182-.182v-.477c0-.1.081-.182.182-.182l.705-.003c.022 0 .04.018.04.04v.189c0 .022-.018.04-.04.04h-.19l-.003.093h.232c.052 0 .095-.042.095-.094v-.265c0-.052-.042-.095-.095-.095h-.745c-.153 0-.277.124-.277.277v.477c0 .153.124.277.277.277l.376-.001c.035 0 .063.028.063.063s-.028.063-.063.063h-.559c-.052 0-.095.042-.095.095v.264c0 .052.042.095.095.095h.801c.153 0 .277-.124.277-.277l.001-.477c0-.153-.124-.277-.277-.277l-.383.001c-.035 0-.063-.028-.063-.063s.028-.063.063-.063h.277l.003-.093z"/><path d="m4.27 1.21h.12c.022 0 .04-.018.04-.04l-.001-.305c0-.1-.081-.182-.182-.182h-.601c-.1 0-.182.081-.182.182v1.06c0 .1.081.182.182.182h.601c.1 0 .182-.081.182-.182l.001-.29c0-.022-.018-.04-.04-.04h-.227c-.022 0-.04.018-.04.04l.001.138c0 .109-.069.198-.178.198s-.178-.089-.178-.198v-.738c0-.109.069-.198.178-.198s.178.089.178.198l-.001.139c0 .022.018.04.04.04h.107l-.003.095h-.143c-.052 0-.095-.042-.095-.095l.001-.179c0-.057-.027-.104-.084-.104s-.084.046-.084.104v.738c0 .057.027.104.084.104s.084-.047.084-.104l-.001-.179c0-.052.042-.095.095-.095h.306c.052 0 .095.042.095.095v.331c0 .153-.124.277-.277.277h-.601c-.153 0-.277-.124-.277-.277v-1.06c0-.153.124-.277.277-.277h.601c.153 0 .277.124.277.277v.346c0 .052-.042.095-.095.095h-.164l.003-.095z"/></g></svg>