<svg height="84" viewBox="0 0 33.37 22.247" width="126" xmlns="http://www.w3.org/2000/svg">
    <g transform="matrix(.99 0 0 1 75.74 193.29)">
        <path clip-rule="evenodd"
              d="m-75.1-182h1.24c.886 0 1.42.555 1.42 1.48 0 .976-.536 1.51-1.42 1.51h-1.24zm.753 2.32h.356c.57-.01.798-.245.798-.841 0-.543-.284-.807-.798-.807h-.356zm5.54-2.32v2.98h-.755v-2.98zm5.65 2.99h-.488l-.041-.323c-.198.288-.542.387-.806.387-.872 0-1.44-.693-1.44-1.56 0-.866.567-1.55 1.44-1.55.6 0 1.24.331 1.3 1.08h-.75c-.024-.252-.269-.409-.568-.409-.486 0-.675.442-.675.884 0 .448.189.894.675.894.372 0 .622-.184.661-.456h-.525v-.575h1.21v1.63zm3.7-2.99v2.98h-.755v-2.98zm5.28.669h-.862v2.32h-.751v-2.32h-.861v-.669h2.47zm3.52-.669h.764l1.08 2.99h-.787l-.177-.535h-1l-.186.535h-.771zm.049 1.87h.655l-.319-1.04h-.01zm4.62-1.87h.752v2.32h1.35v.668h-2.1z"
              fill-rule="evenodd" stroke-width=".312">
        </path>
        <path d="m-62.1-177c-.817 0-1.22.576-1.22 1.33s.403 1.33 1.22 1.33c.753 0 1.22-.576 1.22-1.33s-.467-1.33-1.22-1.33zm-11.9.001c-.506 0-.983.216-.983.789 0 .552.399.644.806.739l.273.064c.251.057.46.109.46.311 0 .262-.304.325-.523.325-.276 0-.548-.102-.548-.406h-.509c0 .605.485.845 1.03.845.781 0 1.06-.4 1.06-.806 0-.523-.403-.637-.665-.7l-.619-.152c-.113-.025-.276-.056-.276-.258 0-.23.24-.311.453-.311.29 0 .517.113.517.385h.509c0-.697-.647-.824-.983-.824zm1.82.063v1.68c.007.255.06.46.198.615.226.251.573.307.806.307.64 0 1.04-.286 1.04-.955l-.001-1.65h-.53v1.67c0 .308-.149.485-.523.485-.258 0-.463-.156-.463-.509v-1.64zm12.2 0v1.68c.007.255.06.46.198.615.226.251.573.307.806.307.64 0 1.04-.286 1.04-.955v-1.65h-.53v1.67c0 .308-.149.485-.523.485-.258 0-.463-.156-.463-.509v-1.64zm3.06 0v2.54h.509v-1.72h.007l1 1.72h.537v-2.54h-.509v1.73h-.007l-1-1.73zm-12.2.001v2.54h.52v-.993h.548c.393 0 .414.134.414.48 0 .262.021.393.056.513h.587v-.067c-.113-.043-.113-.134-.113-.506 0-.474-.113-.551-.322-.643.251-.085.393-.325.393-.605 0-.219-.124-.718-.799-.718zm3.02 0v2.54h.52v-.993h.548c.393 0 .414.134.414.48 0 .262.021.393.056.513h.587v-.067c-.113-.043-.113-.134-.113-.506 0-.474-.114-.551-.322-.643.251-.085.393-.325.393-.605 0-.219-.124-.718-.799-.718zm12.3 0v2.54h1.1c.838 0 1.05-.785 1.05-1.33 0-.481-.177-1.21-1.03-1.21zm5.32 0v2.54h1.92v-.46h-1.41v-.64h1.24v-.438h-1.24v-.563h1.35v-.438zm2.53 0 .778 1.24-.824 1.3h.622l.513-.866.481.866h.651l-.831-1.32.778-1.22h-.612l-.466.82-.456-.82zm-16 .396c.431 0 .689.368.689.873s-.258.873-.689.873-.689-.368-.689-.873.258-.873.689-.873zm-6.57.042h.661c.311 0 .371.198.371.333 0 .251-.135.346-.411.346h-.622zm3.02 0h.661c.311 0 .371.198.371.333 0 .251-.134.346-.41.346h-.623zm12.3 0h.509c.226 0 .584.06.584.81 0 .417-.145.852-.577.852h-.516zm3.11.195a.638.638 0 0 0 -.638.639.638.638 0 0 0 .639.638.638.638 0 0 0 .638-.638.638.638 0 0 0 -.638-.639.638.638 0 0 1 -.001 0z"
              stroke-width=".041"/>
        <path d="m-65.1-190c-.984 0-1.7.135-2.25.495-.574.37-.842.995-.842 1.97v2.11c0 .979.279 1.64.837 1.97.45.315 1.18.466 2.25.466 1.05 0 1.81-.154 2.24-.458.558-.349.85-1.03.85-1.97v-2.11c0-.926-.284-1.59-.847-1.97-.46-.32-1.24-.489-2.24-.489zm-10.1.116v6.72h3.58c1.77 0 2.42-.725 2.42-2.67v-1.48c0-1.85-.745-2.57-2.66-2.57zm14.3 0v6.72h4.29v-1.12h-2.79v-5.61zm5.13 0v6.72h3.16c.973 0 1.38-.192 1.57-.323.321-.217.737-.696.737-1.46 0-.902-.31-1.81-1.8-1.77 1.19-.108 1.44-.693 1.44-1.53 0-.743-.31-1.12-.652-1.33-.287-.18-.626-.302-1.34-.302zm5.6 0c.282.513 2.26 4.26 2.26 4.26v2.47h1.63v-2.46s2.05-3.76 2.34-4.26h-1.43l-1.67 3.04-1.62-3.04zm-14.9.942c1.16 0 1.58.251 1.58 1.41v2.01c0 1.19-.413 1.47-1.58 1.47-1.16 0-1.58-.275-1.58-1.47v-2.01c0-1.16.416-1.41 1.58-1.41zm10.8.022h1.48c.505 0 .818.402.818.95 0 .841-.408.863-1.57.905v.781c1.03-.004 1.86-.067 1.86 1.01 0 .54-.345 1.14-1.24 1.14h-1.36zm-19.4.023h1.85c.524 0 1.15.296 1.15 1.39v1.83c0 1.18-.626 1.47-1.15 1.47h-1.85z"
              stroke-width=".372"/>
    </g>
</svg>