<svg enable-background="new 0 0 273.375 55.021" height="84" viewBox="0 0 126 84" width="126" xmlns="http://www.w3.org/2000/svg"><path d="m42.38 14.498c-3.638 0-6.277.522-8.306 1.87-2.119 1.41-3.108 3.77-3.108 7.45v8c0 3.69 1.029 6.19 3.088 7.43 1.659 1.19 4.368 1.76 8.326 1.76 3.898 0 6.687-.582 8.286-1.73 2.059-1.32 3.138-3.88 3.138-7.46v-8c0-3.51-1.059-6.02-3.128-7.46-1.699-1.22-4.568-1.86-8.286-1.86zm-25.887.924v.002h-12.493v23.9h13.393c6.597 0 9.055-2.57 9.055-9.5v-5.25c.001-6.57-2.789-9.13-9.935-9.13zm41.579 0v24.2h16.692v-4.04h-10.794v-20.2zm19.59 0v24.2h12.294c3.788 0 5.357-.696 6.097-1.16 1.249-.782 2.869-2.51 2.869-5.27-.001-3.26-1.209-6.52-7.006-6.39l-.002-.002c4.608-.394 5.607-2.5 5.607-5.53 0-2.67-1.219-4.02-2.539-4.79-1.109-.655-2.419-1.09-5.187-1.09zm22.189.002c.998 1.88 7.986 15.6 7.986 15.6v9.02h5.747c.004-1.23 0-8.99 0-8.99s7.256-13.7 8.286-15.6h-5.067l-5.907 11.1-5.707-11.1zm-57.571 3.07c4.298 0 5.827.953 5.827 5.35v7.61c0 4.51-1.529 5.54-5.827 5.54s-5.827-1.03-5.827-5.54v-7.61c0-4.4 1.529-5.35 5.827-5.35zm41.179.402h5.777c1.949 0 3.168 1.44 3.168 3.43 0 3.04-1.579 3.11-6.077 3.26v2.81c4.018-.018 7.236-.242 7.236 3.64-.001 1.95-1.329 4.1-4.808 4.1h-5.305zm-73.862.031h6.916c1.959 0 4.288 1.05 4.288 4.94v6.51c0 4.18-2.329 5.24-4.288 5.24h-6.916z" fill="#010101" stroke-width=".923"/><path d="m4 49.398v3.26h6.067v16.7h4.478v-16.7h6.007v-3.26zm39.88.014v14.7c0 4.24 1.719 5.39 5.297 5.39h4.977c3.588 0 5.267-1.15 5.267-5.39v-14.7h-3.728v15c0 1.26-.568 1.68-1.569 1.68h-4.497c-1.009 0-1.569-.424-1.569-1.68v-15zm-19.49.037v19.9h4.118v-6.98h2.119l4.228 6.98h4.728l-4.778-7.21h.527c.832 0 1.509-.157 2.019-.474.512-.316.915-.712 1.209-1.19.287-.477.481-1 .579-1.58.101-.57.146-1.13.146-1.67v-2.67c0-.675-.066-1.3-.213-1.93-.142-.611-.389-1.15-.756-1.62-.361-.474-.855-.841-1.479-1.12-.616-.279-1.399-.417-2.359-.417zm81.259 0v19.8h10.595c3.928 0 5.757-1.17 5.757-5.49v-9.27c0-3.23-1.469-5-5.547-5zm-21.289.319v19.4h4.868v-7.5l6.467-.063v7.56h5.177v-19.4h-4.917l-.22 7.79-6.537-.035-.02-7.75zm-19.79.037v19.4l14.193.008v-2.75h-10.894v-6.32l8.406.014v-2.75l-8.256-.002.039-4.86h10.793l.024-2.72zm-36.082 2.89h4.957c.564 0 .999.134 1.309.417.297.268.449.723.449 1.33l.002 2.84c0 1.19-.571 1.79-1.709 1.79h-5.017zm82.558.791 4.118.026s1.899-.12 1.889 1.66l-.033 7.64c-.006 1.39-.734 1.94-1.939 1.94l-4.028-.029z" stroke-width="1.04"/></svg>