<svg enable-background="new 0 0 273.375 55.021" height="84" viewBox="0 0 126 84" width="126" xmlns="http://www.w3.org/2000/svg"><path d="m42.378 16.166c-3.636 0-6.285.52-8.309 1.865-2.116 1.408-3.111 3.767-3.111 7.449v8.002c0 3.692 1.033 6.188 3.092 7.43 1.66 1.19 4.369 1.756 8.33 1.756 3.901 0 6.686-.582 8.283-1.727 2.063-1.318 3.139-3.885 3.139-7.459v-8.002c0-3.506-1.056-6.017-3.129-7.457-1.7-1.222-4.568-1.857-8.295-1.857zm-38.378.922v23.883h13.401c6.604 0 9.063-2.575 9.063-9.5v-5.25c.001-6.571-2.791-9.133-9.942-9.133zm54.104 0v24.236h16.651v-4.035h-10.801v-20.201zm19.631 0v24.236h12.313c3.787 0 5.359-.694 6.096-1.16 1.247-.782 2.869-2.511 2.869-5.27-.001-3.258-1.21-6.521-7.006-6.393 4.61-.394 5.611-2.501 5.611-5.529 0-2.667-1.215-4.027-2.543-4.793-1.108-.655-2.425-1.092-5.188-1.092zm22.229.002c.999 1.884 7.992 15.566 7.992 15.566v9.021h5.75c.004-1.226 0-8.986 0-8.986s7.264-13.71 8.293-15.602h-5.068l-5.908 11.123-5.709-11.123zm-57.585 3.072c4.297 0 5.83.953 5.83 5.354v7.613c0 4.51-1.531 5.537-5.83 5.537-4.298 0-5.824-1.026-5.824-5.537v-7.613c0-4.399 1.526-5.354 5.824-5.354zm41.212.403h5.777c1.948 0 3.174 1.442 3.174 3.426 0 3.04-1.58 3.114-6.076 3.266v2.808c4.017-.018 7.24-.242 7.24 3.639-.001 1.952-1.332 4.1-4.807 4.1h-5.308zm-73.946.029h6.924c1.959 0 4.293 1.053 4.293 4.945v6.508c0 4.18-2.335 5.238-4.293 5.238h-6.924z" fill="#010101" stroke-width=".923"/><path d="m37.452 46.318c-2.952 0-5.103.423-6.746 1.516-1.717 1.143-2.525 3.057-2.525 6.047v6.498c0 2.997.84 5.021 2.512 6.029 1.348.966 3.546 1.426 6.762 1.426 3.167 0 5.428-.473 6.725-1.402 1.407-.899 2.24-2.522 2.473-4.736h-4.578c-.37 2.305-1.714 2.891-4.619 2.891-3.489 0-4.729-.834-4.729-4.496v-6.18c0-3.571 1.239-4.346 4.729-4.346 3.049 0 4.384.592 4.672 3.125h4.539c-.213-2.227-1.042-3.865-2.479-4.863-1.38-.992-3.709-1.508-6.734-1.508zm37.27.279-9.088 13.303v3.516h8.574v4.215h3.887v-4.215h2.602v-3.529h-2.602v-13.289zm-63.144.393-7.332 20.701h4.067l1.723-5.279h8.008l1.723 5.279h4.664l-7.427-20.701zm2.371 2.756h.088l.275 1.213 2.604 8.014h-5.817l2.553-8.014zm60.259 2.98v7.16h-4.816zm-21.364 1.674v3.424h6.723v-3.424z"/></svg>