<svg enable-background="new 0 0 273.375 55.021" height="84" viewBox="0 0 126 84" width="126" xmlns="http://www.w3.org/2000/svg"><path d="m42.4 13.637c-3.64 0-6.28.522-8.31 1.87-2.12 1.41-3.11 3.77-3.11 7.45v8c0 3.69 1.03 6.19 3.09 7.43 1.66 1.19 4.37 1.76 8.33 1.76 3.9 0 6.69-.582 8.29-1.73 2.06-1.32 3.14-3.88 3.14-7.46v-8c0-3.51-1.06-6.02-3.13-7.46-1.7-1.22-4.57-1.86-8.29-1.86zm-25.9.924v.002h-12.5v23.9h13.4c6.6 0 9.06-2.57 9.06-9.5v-5.25c.001-6.57-2.79-9.13-9.94-9.13zm41.6 0v24.2h16.7v-4.04h-10.8v-20.2zm19.6 0v24.2h12.3c3.79 0 5.36-.696 6.1-1.16 1.25-.782 2.87-2.51 2.87-5.27-.001-3.26-1.21-6.52-7.01-6.39l-.002-.002c4.61-.394 5.61-2.5 5.61-5.53 0-2.67-1.22-4.02-2.54-4.79-1.11-.655-2.42-1.09-5.19-1.09zm22.2.002c.999 1.88 7.99 15.6 7.99 15.6v9.02h5.75c.004-1.23 0-8.99 0-8.99s7.26-13.7 8.29-15.6h-5.07l-5.91 11.1-5.71-11.1zm-57.6 3.07c4.3 0 5.83.953 5.83 5.35v7.61c0 4.51-1.53 5.54-5.83 5.54s-5.83-1.03-5.83-5.54v-7.61c0-4.4 1.53-5.35 5.83-5.35zm41.2.402h5.78c1.95 0 3.17 1.44 3.17 3.43 0 3.04-1.58 3.11-6.08 3.26v2.81c4.02-.018 7.24-.242 7.24 3.64-.001 1.95-1.33 4.1-4.81 4.1h-5.31zm-73.9.031h6.92c1.96 0 4.29 1.05 4.29 4.94v6.51c0 4.18-2.33 5.24-4.29 5.24h-6.92z" fill="#010101" stroke-width=".923"/><path d="m81.023 46.732c-2.932 0-5.051.461-6.685 1.671-1.705 1.248-2.542 3.322-2.542 6.604v7.16c0 3.305.884 5.498 2.542 6.604 1.347 1.062 3.506 1.591 6.685 1.591 3.147 0 5.402-.491 6.685-1.511 1.665-1.174 2.542-3.491 2.542-6.684v-7.16c0-3.126-.868-5.318-2.542-6.604-1.378-1.083-3.681-1.671-6.685-1.671zm31.432.476v1.115h1.434v3.977h1.108v-3.977h1.434v-1.115zm4.542 0v5.092h1.028v-3.341l1.195 2.546h.478l1.275-2.864.072 3.659h.956v-5.092h-1.267l-1.283 2.627-1.187-2.627zm-71.621.081v22.916h4.693v-14.879l5.179 11.139h2.303l5.808-12.653.159 16.393h4.462v-22.915h-5.817l-5.808 12.013-5.33-12.013zm-20.525.079v5.014h6.446v17.902h5.091v-17.901h6.366v-5.015zm-12.652.079-8.199 22.758h4.693l1.912-5.092h8.597l1.912 5.092h4.613l-8.039-22.758zm87.213.079c-4.079 0-5.649 1.821-5.649 4.935v3.34c0 3.083 1.283 4.11 4.685 4.616l4.852.716c1.187.188 1.514.565 1.514 1.59v2.15c0 .884-.382 1.352-1.275 1.352h-9.705v2.385c.853.993 2.693 1.278 4.056 1.273h5.976c3.832 0 5.163-1.609 5.163-4.853v-3.422c0-3.233-.98-4.208-3.976-4.614l-5.641-.794c-.94-.124-1.522-.457-1.522-1.513v-1.99c0-1.097.247-1.431 1.195-1.431h9.155v-2.468c-.741-.939-2.701-1.273-4.056-1.273zm-19.584 2.785c.367-.03.765 0 1.195 0 3.466 0 4.701.856 4.701 4.775v6.762c0 4.018-1.235 4.934-4.701 4.934-3.458 0-4.693-.916-4.693-4.934v-6.761c0-3.43.948-4.558 3.498-4.775zm-64.928 3.423 2.39 6.365-4.932.08z" stroke-width=".797"/></svg>