<svg enable-background="new 0 0 308.25 76.25" height="84" viewBox="0 0 126 84" width="126" xmlns="http://www.w3.org/2000/svg"><path d="m42.98 47.064c-2.859 0-6.982.064-6.982 5.56v10.577c0 4.502 2.195 5.756 6.217 5.756h2.316c3.236 0 4.573-.887 5.275-1.792l.489 1.422h3.535v-11.94h-8.995v3.105h4.42v4.907c-.765.396-2.437.771-3.315.771h-3.264c-1.126 0-1.99-.341-1.99-1.712v-11.005c0-1.714.763-2.025 2.017-2.025h10.636v-2.706c-.913-.517-2.737-.917-4.848-.917zm47.582.239-7.52 21.285h4.176l1.757-5.415h8.229l1.769 5.415h4.786l-7.617-21.285zm-64.164.183v21.1h4.694v-21.1zm32.477 0v21.1h4.694v-21.1zm7.317 0v3.456h6.343v17.646h4.691v-17.645h6.269v-3.456zm-62.18.008v21.092h11.522c4.082 0 5.973-1.245 5.973-5.862v-9.89c0-3.449-1.529-5.34-5.763-5.34zm103.786 0v21.095h14.391v-3.589h-9.701v-17.506zm-14.799 2.656h.097l.277 1.254 2.683 8.234h-5.976l2.62-8.234zm-84.266.819h6.249c1.369 0 1.825.525 1.825 1.928v10.365c0 1.482-.609 1.871-1.863 1.871h-6.212z" stroke-width=".267"/><g stroke-width=".192"><path d="m116.58 15.668-6.312 11.424-6.098-11.424h-5.716c1.07 1.936 8.548 15.993 8.548 15.993v9.274h6.133c.005-1.252 0-9.234 0-9.234s7.768-14.088 8.864-16.033z"/><path d="m50.51 17.075c-1.742-1.212-4.676-1.842-8.486-1.842-3.718 0-6.418.509-8.495 1.852-2.17 1.396-3.193 3.739-3.193 7.407v7.954c0 3.673 1.065 6.156 3.168 7.387 1.699 1.184 4.476 1.747 8.52 1.747 3.994 0 6.847-.572 8.476-1.716 2.109-1.314 3.21-3.859 3.21-7.417v-7.955c0-3.489-1.069-5.978-3.199-7.416m-2.522 15.017c0 4.48-1.564 5.512-5.965 5.512-4.391 0-5.96-1.032-5.96-5.512v-7.57c0-4.371 1.569-5.316 5.96-5.316 4.402 0 5.965.945 5.965 5.316z"/><path d="m16.653 15.668h-12.653v25.279h13.547c6.671 0 9.154-2.728 9.154-10.058v-5.556c0-6.958-2.817-9.666-10.048-9.666m4.394 15.827c0 4.429-2.364 5.545-4.346 5.545h-6.994v-17.663h6.994c1.982 0 4.346 1.119 4.346 5.237z"/></g><path d="m62.667 36.575v-20.923h-5.664v25.101h16.128v-4.178z" stroke-width=".63"/><path d="m88.115 37.26h-5.144v-17.975h5.608c1.9 0 3.081 1.511 3.081 3.571 0 3.174-1.528 3.25-5.904 3.413v2.927c3.902-.011 7.036-.252 7.036 3.797.001 2.028-1.293 4.267-4.676 4.267m3.026-9.697c4.482-.407 5.457-2.607 5.457-5.764 0-2.787-1.176-4.2-2.472-4.997-1.08-.68-2.359-1.139-5.043-1.139h-11.823v25.279h11.976c3.678 0 5.211-.731 5.919-1.22 1.223-.81 2.802-2.613 2.802-5.499 0-3.39-1.182-6.793-6.816-6.661" stroke-width=".192"/></svg>