<svg height="84" overflow="auto" viewBox="0 0 126 84" width="126" xmlns="http://www.w3.org/2000/svg"><g transform="matrix(.39 0 0 1 4 20.1)"><path d="m96.1-2.68c-9.35 0-16.3.531-21.5 1.9-5.42 1.45-8.04 3.88-8.04 7.61v8.22c0 3.8 2.81 6.31 8.04 7.61 4.3 1.22 11.2 1.83 21.5 1.83 10.1 0 17.4-.607 21.5-1.75 5.24-1.37 8.04-3.96 8.04-7.61v-8.29c0-3.58-2.62-6.16-8.04-7.61-4.49-1.29-11.8-1.9-21.5-1.9zm189 .305v.15l-15.9 11.7-15.3-11.8h-14.4c2.62 1.98 21.7 16.4 21.7 16.4v9.51h15.5v-9.51s19.6-14.5 22.4-16.5zm-285 .15v26h34.2c16.8 0 23.2-2.82 23.2-10.3v-5.71c0-7.15-7.11-9.97-25.4-9.97zm185 0v26h30.3c9.35 0 13.1-.76 15-1.22 2.99-.837 7.11-2.74 7.11-5.63 0-3.58-2.99-7.08-17.2-6.92 11.4-.457 13.7-2.66 13.7-5.93 0-2.89-3-4.34-6.18-5.18-2.81-.685-5.98-1.14-12.7-1.14zm-49 .002v26h41.1v-4.34h-26.7v-21.7zm-40.2 3.65c11 0 15.2.988 15.2 5.48v7.76c0 4.64-3.93 5.63-15.2 5.63-11.2 0-15.1-1.07-15.1-5.63v-7.76c0-4.49 3.92-5.48 15.1-5.48zm104 .075h14.2c4.86 0 7.85 1.6 7.85 3.65 0 3.27-3.93 3.35-15 3.5v3.04c9.91 0 17.8-.229 17.8 3.96 0 2.05-3.37 4.34-11.8 4.34h-13.1zm-185 .077h17.8c5.05 0 11 1.14 11 5.4v7.08c0 4.57-5.98 5.7-11 5.7h-17.8z" stroke-width="1.88"/><path d="m69 30.1c-3.71 0-6.77.458-9.03 1.38-2.26.918-3.38 2.23-3.38 3.94v5.84c0 1.71 1.13 3.02 3.55 3.94 2.26.853 5.48 1.31 9.51 1.31h4.36c1.94 0 3.87-.133 5.48-.329.968-.131 1.93-.262 2.74-.459l.323.459h5.81v-8.79h-17.7v2.56h10.3v3.67c-.323.066-.967.066-1.45.131-1.29.131-3.07.131-5 .131h-5.48c-1.77 0-3.06-.196-3.87-.59-.968-.459-1.29-1.12-1.29-1.9v-6.03c0-.787.485-1.38 1.29-1.84.806-.394 2.1-.657 3.87-.657h18.9v-1.9l-.487-.198c-.484-.131-1.13-.263-1.77-.394-.645-.066-1.13-.13-1.77-.196-.645-.066-1.29-.065-1.77-.065h-1.61zm90.6.196-13.9 16h7.26l3.55-4.2h14.2l3.71 4.2h7.58l-14.4-16zm-160 .131v15.9h17.1c2.1 0 3.87-.066 5.48-.263s3.07-.524 4.36-.917c1.13-.459 2.1-.984 2.74-1.71.645-.656.805-1.44.805-2.43v-5.38c0-1.84-1.13-3.15-3.55-4-2.26-.722-5.48-1.18-9.68-1.18zm39.5 0v15.9h7.26v-15.9zm59 0v15.9h7.26v-15.9zm14.7 0v2.56h12.6v13.3h7.09v-13.3h12.6v-2.56zm75.5 0v15.9h27.6v-2.49h-20.5v-13.4zm45.3 0v15.9h27.6v-2.76h-18.9v-3.93h13.7v-2.76h-13.7v-3.74h18.9v-2.76zm34 0 10.8 7.61-12.3 8.33h8.38l7.9-5.77 7.9 5.77h9.35l-11.8-8.2 11.1-7.74h-8.23l-6.93 5.25-6.93-5.25zm-261 2.56h9.68c2.26 0 4.03.198 5 .657.968.459 1.45 1.18 1.45 2.23v5.12c0 1.05-.483 1.84-1.45 2.23-.806.394-2.58.592-5 .592h-9.68zm156 .853 4.84 5.71h-9.68z" stroke-width="1.03"/></g></svg>