<svg height="84" width="126" xmlns="http://www.w3.org/2000/svg"><g fill="#110f0e" transform="matrix(.24 0 0 1 -29 -243)"><path d="m322 307c-7.22 0-14.4 1.13-14.4 3.66 0 2.28 6.38 2.86 12.7 3.29 6.33.433 12.7.733 12.7 2.45 0 1.79-5.27 2.26-10.1 2.26-6.01 0-11.6-.909-11.6-3h-4.99c0 3.04 7.51 4.39 16.4 4.39 7.23 0 15.5-1.06 15.5-3.71 0-2.44-6.34-3.14-12.7-3.59-6.37-.456-12.7-.687-12.7-2.22 0-1.62 4.45-2.13 8.88-2.13 5.44 0 9.22.763 9.82 2.55h5c-.34-2.73-6.5-3.95-14.6-3.95zm306 .3v12.5h4.72v-12.5zm-472 .003v12.5h13.6c13.2 0 19-2.36 19-6.52 0-4.02-6.82-5.94-19-5.94zm337 0v12.5h13.6c13.2 0 19-2.36 19-6.52 0-4.02-6.83-5.94-19-5.94zm-212 .733v2.71h-4.88v1.31h4.88v5.74c0 1.66 1.94 1.98 6.84 1.98h3.61v-1.32h-2.17c-2.95 0-3.55-.104-3.55-.794v-5.6h5.72v-1.31h-5.72v-2.71zm63.8 0v2.71h-4.89v1.31h4.89v5.74c0 1.66 1.93 1.98 6.83 1.98h3.61v-1.32h-2.18c-2.91 0-3.57-.104-3.57-.794v-5.6h5.75v-1.31h-5.75v-2.71zm240 0v2.71h-4.88v1.31h4.88v5.74c0 1.66 1.96 1.98 6.83 1.98h3.62v-1.32h-2.18c-2.92 0-3.55-.104-3.55-.794v-5.6h5.73v-1.31h-5.73v-2.71zm-424 .661h8.88c9.73 0 13.2 1.8 13.2 4.77 0 4.59-9.74 4.9-13.3 4.9h-8.8v-5.05zm337 0h8.86c9.71 0 13.2 1.8 13.2 4.77 0 4.59-9.71 4.9-13.3 4.9h-8.74v-5.05zm-280 1.83c-4.56.039-7.47.753-9.6 2.11h-.118v-1.9h-4.44v9.02h4.72v-4.02c0-2.28 2.78-3.65 10.4-3.65v-1.57c-.319-.004-.628-.005-.932-.002zm155 0c-4.57.039-7.5.753-9.64 2.11h-.087v-1.9h-4.44v9.02h4.72v-4.02c0-2.28 2.77-3.65 10.4-3.65v-1.57c-.319-.004-.627-.005-.932-.002zm-141 .002c-7.83 0-13.5 1.99-13.5 4.69.285 2.76 4.64 4.75 13.8 4.75 6.44 0 11-1.08 12.3-3.08h-4.66c-.827 1.18-3.55 1.77-7.44 1.77-6.27 0-9.1-1.4-8.94-2.97h21.5c.284-2.18-2.82-5.16-13-5.16zm29.9 0c-9.1 0-13.5 2.12-13.5 4.83 0 2.69 4.65 4.61 13.4 4.61 7.2 0 11.6-1.31 12.7-3.51h-4.84c-.615 1.37-3.34 2.2-7.86 2.2-6.01 0-8.38-1.64-8.38-3.29 0-1.83 2.09-3.53 8.92-3.53 3.89 0 6.38.658 7.1 1.79h4.89c-.661-2.14-5.88-3.1-12.4-3.1zm126 0c-7.81 0-13.5 1.99-13.5 4.69.257 2.76 4.6 4.75 13.7 4.75 6.46 0 11-1.08 12.3-3.08h-4.68c-.827 1.18-3.53 1.77-7.43 1.77-6.26 0-9.1-1.4-8.93-2.97h21.5c.284-2.18-2.83-5.16-13-5.16zm29.2 0c-6.37 0-11.9.785-12.2 3.01h4.71c.248-1.31 3.17-1.7 7.17-1.7 3 0 6.39.208 6.39 1.5 0 1.12-4.44 1.01-9.65 1.33-4.9.295-9.72.742-9.72 2.77 0 1.8 4.28 2.53 9.51 2.53 3.98 0 7.47-.436 10.1-1.39 0 .976 1.53 1.39 3.99 1.39 1.49 0 2.57-.092 3.39-.245v-1.15c-.606.065-1.07.081-1.45.081-1.51 0-1.51-.314-1.51-1.01v-4.63c0-2.11-5.59-2.48-10.8-2.48zm30.5 0c-3.93 0-7.15.522-9.28 1.53h-.095v-1.32h-4.44v9.02h4.72v-5.62c0-.676 2.07-2.3 7.67-2.3 4.21 0 5.38.837 5.38 2v5.92h4.73v-5.62c0-1.39 2.92-2.3 7.49-2.3 4.59 0 5.53.892 5.53 2v5.92h4.72v-6.62c0-1.87-3.82-2.62-9.55-2.62-3.65 0-7.04.568-8.96 1.53-1.18-1.1-4.4-1.53-7.9-1.53zm105 0c-9.92 0-13.3 2.63-13.3 4.76 0 2.45 4.3 4.56 12.8 4.56 3.61 0 7.39-.531 8.94-1.63h.111v.583c0 2.03-2.45 3.42-8.62 3.42-3.09 0-7.19-.376-7.42-1.46h-4.7c.248 1.97 6.48 2.65 11.9 2.65 9.03 0 13.3-1.5 13.3-4.43v-8.25h-4.44v1.3h-.063c-1.73-1-4.93-1.51-8.56-1.51zm58.3 0c-6.37 0-11.9.785-12.1 3.01h4.7c.239-1.31 3.15-1.7 7.18-1.7 2.99 0 6.38.208 6.38 1.5 0 1.12-4.44 1.01-9.68 1.33-4.88.295-9.7.742-9.7 2.77 0 1.8 4.27 2.53 9.5 2.53 3.98 0 7.5-.436 10.1-1.39 0 .976 1.56 1.39 4 1.39 1.48 0 2.54-.092 3.39-.245v-1.15c-.625.065-1.07.081-1.44.081-1.5 0-1.5-.314-1.5-1.01v-4.63c0-2.11-5.61-2.48-10.8-2.48zm-418 .208v9.02h4.74v-9.02zm337 0v9.02h4.72v-9.02zm42 0v9.02h4.72v-9.02zm-340 1.1c4.67 0 8.05 1.13 8.27 2.54h-16.5c.331-1.37 3.28-2.54 8.21-2.54zm156 0c4.65 0 8.04 1.13 8.26 2.54h-16.5c.322-1.37 3.27-2.54 8.21-2.54zm165 0c5.93 0 8.16 1.64 8.16 3.23 0 1.69-2.33 3.48-8.54 3.48-6.22 0-8.1-1.81-8.1-3.43 0-1.73 2.43-3.28 8.49-3.28zm-130 3.27v1.52c0 .811-2.55 2.04-8.77 2.04-2.88 0-5.56-.341-5.56-1.33 0-1.1 2.67-1.44 5.78-1.63 3.17-.17 6.72-.185 8.55-.603zm194 0v1.52c0 .811-2.54 2.04-8.77 2.04-2.88 0-5.56-.341-5.56-1.33 0-1.1 2.68-1.44 5.78-1.63 3.17-.17 6.72-.185 8.55-.603z"/><path d="m193 309v-1.82h4.73v1.82z"/><path d="m530 309v-1.82h4.72v1.82z"/><path d="m572 309v-1.82h4.72v1.82z"/><path d="m406 248c-29 0-51 2.74-51 9.68 0 13.7 93.2 13.4 93.2 27.6 0 1.31-.239 1.91-.505 2.63-.229.722 2.4.997 3.28.156 1.5-1.42 2.57-3.52 2.57-6.76 0-14.8-73.2-15.1-73.2-24.4 0-3.98 11.2-5.34 24.7-5.34 16.8 0 30.1 3.46 37.6 7.33 1.6.606 3.32.531 3.32-.37v-8.01c-5.86-.8-22.5-2.49-39.9-2.49zm-195 1.22c4.14 13.3 3.13 38.1 0 50.5h38.8c49.2 0 78.8-8.25 78.8-25.5 0-20.7-35-25-79.2-25zm261 0c4.12 13.3 3.14 38.1 0 50.5h38.8c49.2 0 78.8-8.25 78.8-25.5 0-20.7-35-25-79.2-25zm-215 3.61c25.6 0 38.9 7.08 38.9 20.4 0 15.2-13.2 23-38.9 23-9.56 0-12.6-1.43-13-4.41-1.34-9.83-1.34-23.6 0-34.6.413-3.36 4.73-4.37 13-4.37zm261 0c25.6 0 38.9 7.08 38.9 20.4 0 15.2-13.2 23-38.9 23-9.54 0-12.6-1.43-13-4.41-1.33-9.83-1.33-23.6 0-34.6.404-3.36 4.74-4.37 13-4.37zm-172 6.04c-.757-.016-1.6.174-1.93.58-.331.39-1.23 2.22-1.23 3.38 0 15.5 70.9 15.6 70.9 26.3 0 4.9-8.41 8.13-26.5 8.13-16.7 0-31.8-4.37-40.9-9.71-1.35-.782-3.08-.765-3.08.093v10.3c8.6 1.1 23.4 2.69 47.9 2.69 34.6 0 48.6-4.65 48.6-12.8 0-13.5-92.4-13-92.4-28.4 0-.416-.672-.636-1.43-.652z"/></g></svg>