<svg height="84" viewBox="0 0 33.37 22.247" width="126" xmlns="http://www.w3.org/2000/svg"><path d="m13.79 13.94c-2.48 0-4.42.039-4.42.039-2.41.066-3.59.033-3.59.033-2.52 0-4.63-1.71-4.69-4.04-.053-2.18 1.7-3.96 4.38-4.11 0 0 1.19-.113 3.23.165l-.007-.234.002-4.37 5.08-.015v4.71h2.49v-1.56l4.94-2.17.005 3.73 1.78-.006-.017 1.3c-.964-.029-1.77-.026-1.77-.026v2.42c0 .12-.005 1.27.041 1.55 0 0 .069.67.61 1.11 0 0 .311.287.997.347 0 0 .227.024.655.021h1.17l.038-.003c.875-.004 1.14-.165 1.14-.165.375-.177.602-.533.602-.934 0-.304-.134-.564-.337-.77l-.01-.008-1.28-1.23c-.402-.375-.612-.681-.693-.818l-.01-.014c-.16-.263-.253-.574-.253-.906 0-.643.359-1.21.88-1.51l.036-.019c.474-.299 2.92-1.17 7.35-.151l-.036 1.12-.091-.007s-1.18-.11-1.66-.019h-.012c-.366.062-.646.34-.646.715 0 .182.077.378.196.5l.029.029 1.77 1.74.014.014c.361.364.586.865.586 1.42 0 .877-.653 1.68-1.44 1.95 0 0-.504.198-1.33.251 0 0-.392.029-1.51.05h-.06c-4.02.043-8.21-.033-8.21-.033l-.103-.003c-2.68-.085-3.22-2.09-3.22-2.09-.151-.375-.17-1.3-.17-1.3l.007-3.26-2.49.003zm-7.97-3.86c.026 1.36.638 2.07.638 2.07.409.559 1.19.619 1.19.619.44.055 1.05-.043 1.05-.043l.007-5.44s-.593-.069-1.06-.014c0 0-.76.036-1.23.674 0 0-.588.754-.602 2.02v.12z" stroke-width=".054"/><path d="m15.95 16.14c-.576 0-.989.302-.989.908 0 .633.39.839.887 1.15.332.2.629.337.629.788 0 .361-.161.587-.554.587-.472 0-.573-.307-.573-.707v-.04h-.441v.04c0 .707.287 1.05 1.01 1.05.599 0 .995-.318.995-.962 0-.647-.342-.809-.767-1.08-.372-.239-.75-.366-.75-.848 0-.337.196-.543.533-.543.422 0 .522.231.522.572v.087h.431v-.122c0-.616-.34-.878-.939-.878zm14.6.07v1.34c-.125-.195-.281-.295-.572-.295-.672 0-.773.663-.773 1.29 0 .618.054 1.35.783 1.35.276 0 .443-.107.592-.338l.005.292h.387c-.005-.122-.019-.358-.019-.478v-3.15zm-28.2 0v3.63h.889c.417 0 .693-.101.873-.278.303-.286.353-.799.353-1.6 0-.868-.056-1.29-.406-1.55-.183-.135-.443-.21-.82-.21zm10.5 0v3.63h.395v-3.63zm-7.84.049v.433h.436v-.433zm3.3 0v.433h.437v-.433zm-5.54.287h.443c.241 0 .467.05.597.22.175.231.2.663.2 1.24 0 .738-.05 1.17-.306 1.37-.109.08-.281.126-.437.126h-.497zm7.09.119-.397.176v.467h-.377v.292h.377v1.64c0 .441.096.626.573.626.095 0 .196-.008.291-.022v-.313c-.066.011-.125.02-.181.02-.215 0-.286-.071-.286-.356v-1.59h.453v-.292h-.453zm-3.14.589c-.687 0-.769.703-.769 1.35 0 .562.056 1.21.764 1.21.262 0 .432-.08.588-.297v.347c0 .406-.055.703-.477.703-.302 0-.391-.191-.391-.461h-.424c.007.51.278.732.795.732.629 0 .905-.261.905-.885v-2.22c0-.14.015-.286.015-.422h-.399v.297c-.13-.247-.299-.352-.606-.352zm16.5 0c-.809 0-.904.612-.904 1.34 0 .779.079 1.3.875 1.3.763 0 .887-.501.887-1.34 0-.767-.06-1.31-.859-1.31zm-11.8 0c-.448 0-.835.175-.835.668v.024h.397v-.024c0-.252.191-.382.422-.382.393 0 .393.331.393.632v.111c-.644.005-1.31.056-1.31.854 0 .417.2.75.653.75.316 0 .502-.122.677-.377l.005.332h.387c-.022-.273-.026-.54-.026-.81v-.933c0-.568-.164-.844-.767-.844zm16.5 0c-.321 0-.547.191-.658.401v-.346h-.391c.015.185.02.367.02.552v1.98h.398v-1.52c0-.342.14-.763.512-.763.397 0 .392.362.392.668v1.62h.396v-1.8c0-.478-.161-.788-.668-.788zm-7.27.005c-.286 0-.507.131-.644.382v-.333h-.39c.01.111.015.347.015.462v2.07h.401v-1.57c0-.372.176-.642.573-.642.031 0 .055.003.086.01v-.382zm1.41 0c-.287 0-.509.131-.644.382v-.333h-.391c.01.111.015.347.015.462v2.07h.401v-1.57c0-.372.176-.642.573-.642.031 0 .056.003.085.01v-.382zm-17.1.049v2.53h.395v-2.53zm3.3 0v2.53h.395v-2.53zm9.02 0v1.79c0 .467.181.785.677.785.287 0 .494-.132.639-.368l.005.323h.397c-.014-.186-.02-.367-.02-.558v-1.97h-.401v1.54c0 .341-.071.738-.498.738-.398 0-.401-.363-.401-.66v-1.62zm7.26 0v1.79c0 .467.18.785.677.785.287 0 .493-.132.639-.368l.005.323h.397c-.016-.186-.02-.367-.02-.558v-1.97h-.403v1.54c0 .341-.069.738-.497.738-.396 0-.401-.363-.401-.66v-1.62zm-1.39.231c.478 0 .458.523.458.905v.385c0 .347-.029.773-.47.773-.469 0-.474-.446-.474-.788v-.363c0-.352-.014-.913.486-.913zm6.81.005c.446 0 .48.493.48 1.06 0 .47-.019.989-.496.989-.397 0-.458-.483-.458-1.04 0-.451.026-1 .474-1zm-23.2.005c.458 0 .483.524.483.945 0 .382.013 1.04-.509 1.04-.437 0-.448-.518-.448-.934 0-.459.006-1.05.473-1.05zm4.92 1.01h.101v.302c0 .326-.106.728-.523.728-.282 0-.372-.241-.372-.488 0-.467.398-.543.794-.543z" stroke-width=".036"/></svg>