<svg height="84" viewBox="0 0 33.338 22.225" width="126" xmlns="http://www.w3.org/2000/svg"><g fill="#010101"><path d="m13.758 11.695c-2.486 0-4.422.039-4.422.039-2.404.065-3.586.033-3.586.033-2.523 0-4.635-1.712-4.69-4.035-.055-2.18 1.702-3.965 4.385-4.107 0 0 1.185-.113 3.228.163l-.007-.234.004-4.373 5.083-.014v4.711h2.491v-1.561l4.938-2.172.004 3.73 1.781-.005-.015 1.303c-.964-.029-1.77-.026-1.77-.026v2.424c0 .12-.005 1.266.039 1.546 0 0 .07.669.61 1.109 0 0 .313.289.997.346 0 0 .229.024.657.021h1.21c.877-.005 1.143-.164 1.143-.164.377-.177.601-.534.601-.936 0-.304-.133-.565-.336-.769l-.007-.007-1.282-1.229c-.402-.377-.612-.683-.694-.819l-.01-.015c-.161-.263-.255-.573-.255-.905 0-.645.36-1.212.882-1.513l.036-.019c.474-.298 2.921-1.171 7.348-.149l-.035 1.121-.092-.007s-1.181-.11-1.656-.02l-.011.003c-.366.061-.647.34-.647.714 0 .183.076.377.196.5l.028.03 1.776 1.737.015.015c.361.363.583.864.583 1.416 0 .879-.655 1.679-1.44 1.952 0 0-.504.198-1.331.249 0 0-.391.03-1.506.051h-.062c-4.023.044-8.206-.032-8.206-.032l-.103-.003c-2.68-.086-3.216-2.093-3.216-2.093-.149-.373-.169-1.299-.169-1.299l.005-3.256-2.49.003-.003 6.547m-7.972-3.863c.028 1.356.638 2.066.638 2.066.412.56 1.193.62 1.193.62.44.054 1.05-.044 1.05-.044l.007-5.438s-.593-.07-1.057-.014c0 0-.759.035-1.227.674 0 0-.589.753-.603 2.015z" stroke-width=".057"/><path d="m2.381 12.922v8.014h3.771v-.768h-2.826v-2.986h2.599v-.743h-2.599v-2.749h2.75v-.768zm18.511 2.284c-1.905 0-1.983 1.639-1.983 3.135 0 1.462.21 2.692 1.916 2.692 1.363 0 1.828-.732 1.872-1.873h-.864c-.021.654-.177 1.23-1.008 1.23-.941 0-1.019-.853-1.019-1.772v-.377h2.925v-.255c0-1.351-.045-2.78-1.839-2.78zm4.341.001c-.942 0-1.662.454-1.662 1.45 0 .964.655 1.241 1.418 1.65.644.345 1.007.543 1.007 1.219 0 .542-.287.864-.841.864-.576 0-.775-.343-.819-.875-.012-.088-.012-.21-.012-.311h-.874c0 .144 0 .288.011.388.078.953.631 1.429 1.672 1.429 1.075 0 1.751-.521 1.751-1.639 0-.942-.633-1.296-1.33-1.673-.631-.342-1.108-.575-1.108-1.13 0-.454.288-.764.743-.764.532 0 .708.289.764.687.011.111.023.233.023.354h.874c0-.155-.01-.311-.033-.443-.133-.842-.621-1.207-1.584-1.207zm4.072 0c-.941 0-1.661.454-1.661 1.45 0 .964.653 1.241 1.418 1.65.643.345 1.007.543 1.007 1.219 0 .542-.287.864-.841.864-.575 0-.776-.343-.82-.875-.011-.088-.01-.21-.01-.311h-.876c0 .144.001.288.012.388.076.952.63 1.429 1.672 1.429 1.074 0 1.75-.521 1.75-1.639 0-.942-.633-1.296-1.331-1.673-.63-.342-1.107-.575-1.107-1.13 0-.454.289-.764.744-.764.531 0 .708.289.763.687.012.111.023.233.023.354h.874c0-.155-.011-.311-.032-.443-.134-.842-.62-1.207-1.585-1.207zm-10.847.021c-.632 0-1.12.288-1.418.841v-.731h-.864c.022.244.034.764.034 1.02v4.564h.885v-3.455c0-.819.388-1.418 1.262-1.418l.001-.001c.067 0 .122.012.188.022v-.841zm-4.98.001c-.587 0-1.063.266-1.385.786v-.666h-.864c.033.311.044.986.044 1.297v6.412h.875v-2.67c.321.455.719.633 1.273.633 1.64 0 1.706-1.606 1.706-2.98 0-1.35-.11-2.813-1.65-2.813zm-6.794.123 1.349 2.623-1.561 2.961h.928l1.097-2.337 1.071 2.337h1.021l-1.552-2.97 1.4-2.614h-.919l-.92 2.024-.886-2.024zm14.197.486c.664 0 .886.521.942 1.096.022.245.022.477.022.71h-2.039c0-.255.022-.488.045-.721.078-.62.332-1.086 1.03-1.086zm-7.659.054c.998 0 1.008 1.22 1.008 2.139 0 .853.033 2.338-1.008 2.338-1.096 0-1.095-1.185-1.095-2.172 0-1.163.143-2.305 1.095-2.305z" stroke-width=".084"/></g></svg>