<svg height="84" width="126" xmlns="http://www.w3.org/2000/svg"><g stroke-width=".118"><g fill="#333"><path d="m90.837 59.648c1.442-1.812 2.672-3.311 2.733-3.33s1.312 1.467 2.779 3.302l2.667 3.337h11.478c11.105 0 11.473-.007 11.332-.2-.08-.11-2.174-2.738-4.653-5.839l-4.507-5.639-.791.197c-1.286.321-4.47.939-6.09 1.183-4.441.667-7.316.894-12.231.965-6.825.099-11.887-.333-17.218-1.468-1.012-.216-1.92-.397-2.018-.404-.108-.007-1.716 1.912-4.115 4.913-2.166 2.709-4.186 5.232-4.49 5.609l-.552.684 23.054-.014 2.621-3.295z"/><path d="m102.8 50.805c2.766-.164 8.436-.823 8.615-1.001.034-.034-2.281-2.971-2.554-3.24-.118-.117-.423-.093-1.696.133-8.404 1.493-18.618 1.68-26.762.49-.798-.117-1.655-.241-1.906-.277l-.456-.065-.637.804-.637.804.982.246c3.876.972 9.549 1.796 14.423 2.095 2.209.135 8.415.141 10.629.01z"/><path d="m104.95 44.96c1.166-.1 2.187-.204 2.269-.231.157-.051.103-.131-1.249-1.84l-.653-.826.343-.409c.189-.225.332-.418.319-.43-.014-.011-.652.07-1.419.181-6.508.944-14.521 1.128-20.958.481-2.094-.21-2.055-.211-1.893.043.112.176.042.311-.493.957-.342.414-.614.76-.603.77s.923.168 2.027.353c3.202.535 6.471.899 9.928 1.106 2.473.148 9.937.054 12.382-.156z"/><path d="m104.11 39.316c.828-.07 2.005-.184 2.614-.253l1.108-.127 1.759-2.189c.967-1.204 1.761-2.231 1.764-2.283s-.082-.061-.19-.02c-.335.126-4.474.917-5.996 1.146-1.799.27-4.897.61-7.251.794-2.641.207-10.157.175-12.841-.055-3.015-.258-6.287-.697-8.399-1.126l-.381-.077.686.865c1.268 1.599 1.02 1.434 2.698 1.794 3.809.816 8.266 1.367 13.663 1.686 1.371.081 9.313-.034 10.764-.156z"/><path d="m101.71 33.737c2.46-.13 4.055-.27 6.279-.553 1.558-.198 4.496-.686 4.954-.823.147-.044 8.692-10.596 9.054-11.181.068-.109-2.271-.136-11.551-.132l-11.635.005-2.566 3.223c-1.411 1.773-2.616 3.207-2.677 3.187-.061-.019-1.262-1.472-2.668-3.228l-2.557-3.192h-23.294l.205.27c.112.149 1.736 2.187 3.607 4.53l3.402 4.259 1.617.503c7.799 2.427 18.456 3.626 27.831 3.131z"/></g><path d="m13.509 43.993c.116 3.015 1.391 4.525 1.391 4.525.812 1.175 2.319 1.339 2.319 1.339.927.171 2.202-.164 2.202-.164v-11.901s-1.275-.167-2.202 0c0 0-1.507.169-2.435 1.51 0 0-1.159 1.676-1.275 4.357v.335m16.113 8.378c-4.985 0-8.927.171-8.927.171-4.867.164-7.187 0-7.187 0-5.101 0-9.39-3.689-9.506-8.716-.116-4.861 3.478-8.714 8.811-9.051 0 0 2.434-.335 6.606.336v-10.058l10.203-.167v10.391h4.985v-3.353l9.97-4.859v8.212h3.591v2.849h-3.591v5.194c0 .336 0 2.849.116 3.522 0 0 .116 1.339 1.157 2.344 0 0 .696.67 2.086.84h1.276 2.437c1.851 0 2.315-.335 2.315-.335.812-.335 1.276-1.175 1.276-2.012 0-.673-.348-1.342-.696-1.677v-.167l-2.666-2.682c-.809-.837-1.157-1.508-1.389-1.676v-.167c-.348-.502-.464-1.173-.464-1.843 0-1.508.696-2.682 1.738-3.353h.116c.928-.67 5.799-2.682 14.837-.335l-.116 2.347h-.232s-2.315-.167-3.359 0c-.696.167-1.276.67-1.276 1.508 0 .502.116.837.348 1.173h.116l3.591 3.853c.696.839 1.16 1.846 1.16 3.185 0 1.845-1.273 3.686-2.895 4.188 0 0-1.044.505-2.669.67h-3.014-.116c-8.113.171-16.577 0-16.577 0h-.232c-5.33-.164-6.49-4.69-6.49-4.69-.231-.837-.347-2.849-.347-2.849v-7.039h-4.985z"/></g></svg>