<svg height="84" viewBox="0 0 33.37 22.247" width="126" xmlns="http://www.w3.org/2000/svg"><path d="m7.48 11.89c-1.43 0-2.54.024-2.54.024-1.38.036-2.06.018-2.06.018-1.45 0-2.66-.984-2.69-2.31-.031-1.25.977-2.27 2.52-2.36 0 0 .68-.065 1.85.093l-.004-.134.001-2.51 2.92-.009v2.7h1.43v-.895l2.83-1.24.001 2.14 1.02-.001-.01.747c-.552-.017-1.01-.015-1.01-.015v1.39c0 .069-.003.727.022.888 0 0 .04.384.35.635 0 0 .179.167.572.198 0 0 .132.014.377.013h.672l.022-.001c.504-.001.656-.093.656-.093.215-.101.344-.306.344-.537 0-.175-.076-.325-.193-.441l-.004-.004-.735-.705c-.23-.215-.351-.393-.398-.469l-.005-.009c-.092-.151-.146-.329-.146-.519 0-.371.207-.697.506-.869l.019-.011c.272-.171 1.68-.672 4.22-.086l-.021.642-.053-.003s-.679-.064-.95-.011h-.005c-.211.036-.37.196-.37.411 0 .104.043.217.111.286l.017.018 1.02.995.009.01c.207.208.334.495.334.812 0 .504-.375.963-.826 1.12 0 0-.289.114-.765.143 0 0-.223.018-.863.029h-.035c-2.31.026-4.71-.018-4.71-.018l-.058-.001c-1.54-.05-1.85-1.2-1.85-1.2-.085-.214-.096-.745-.096-.745l.003-1.87-1.43.001v3.76zm-4.57-2.22c.015.777.366 1.18.366 1.18.236.322.684.357.684.357.251.03.602-.025.602-.025l.004-3.12s-.34-.04-.606-.009c0 0-.437.021-.705.387 0 0-.338.43-.345 1.16z" stroke-width="1.08"/><path d="m20.48 7.89v1.88h-2.37v.741h2.37v2.05h1.96v-2.05h.841v2.05h1.96v-4.67h-1.93l-.031 1.88h-.841v-1.88zm5.63.006v4.68h2.2s.381-.003.678-.029c0 0 .401-.023.727-.132 0 0 .551-.161.871-.552 0 0 .316-.359.43-.858 0 0 .086-.341.086-.745v-.046c0-.404-.086-.745-.086-.745-.114-.499-.43-.858-.43-.858-.32-.392-.871-.552-.871-.552-.326-.108-.727-.133-.727-.133-.297-.025-.678-.029-.678-.029zm1.96.766h.158s.181 0 .272.018c0 0 .129.016.234.1 0 0 .106.071.175.226 0 0 .098.206.134.673 0 0 .02.199.021.541v.031c-.001.34-.021.541-.021.541-.036.466-.134.671-.134.671-.07.156-.175.228-.175.228-.105.085-.234.098-.234.098-.092.019-.272.02-.272.02h-.158z" fill="#939598" stroke-width=".287"/><path d="m.48 13.89v2.87h.346v-1.35h.981v1.35h.317v-2.87h-.317v1.25h-.981v-1.25zm4.79 0v2.87h.315v-1.22c0-.33.095-.592.405-.592.314 0 .31.294.31.527v1.28h.315v-1.42c0-.361-.12-.629-.525-.629-.23 0-.382.103-.504.275v-1.1zm2.75 0v2.87h.337v-1.34h.338c.474 0 .446.179.47.668.007.122.016.254.016.376 0 .116.012.203.028.298h.349c-.009-.063-.02-.123-.024-.183-.004-.091-.015-.222-.019-.353-.008-.184-.007-.346-.02-.482-.023-.257-.083-.429-.397-.456.361-.096.452-.342.452-.692 0-.544-.265-.706-.761-.706zm16.4 0-.843 2.87h.338l.203-.727h.997l.203.727h.351l-.831-2.87zm4.29 0v1.06c-.1-.154-.223-.233-.453-.233-.532 0-.611.524-.611 1.02 0 .488.044 1.06.619 1.06.218 0 .351-.084.469-.266l.004.23h.305c-.004-.095-.016-.281-.016-.378v-2.49zm-13.9.002v2.87h.314v-2.87zm-12.3.04v.343h.346v-.343zm16 0v.343h.345v-.343zm10.9 0v.343h.345v-.343zm-21.2.228h.383c.313 0 .464.112.464.454 0 .433-.146.54-.564.54h-.283zm16.3.048.417 1.56h-.834zm-6.71.043-.314.14v.369h-.298v.231h.298v1.29c0 .35.076.497.453.497.075 0 .154-.007.23-.02v-.247c-.051.008-.099.017-.143.017-.171 0-.226-.056-.226-.283v-1.26h.357v-.231h-.357zm4.01.465c-.256 0-.434.152-.521.319v-.275h-.31c.012.148.017.291.017.438v1.56h.314v-1.2c0-.27.11-.604.405-.604.315 0 .31.285.31.527v1.28h.314v-1.42c0-.378-.127-.624-.528-.624zm-9.76.001c-.338 0-.595.163-.595.52 0 .347.234.446.508.592.231.123.362.195.362.438 0 .194-.104.31-.302.31-.207 0-.277-.123-.294-.315-.004-.031-.004-.076-.004-.11h-.314c0 .052 0 .103.004.138.028.342.228.513.6.513.386 0 .628-.187.628-.589 0-.338-.226-.463-.477-.6-.226-.123-.397-.207-.397-.405 0-.163.103-.275.266-.275.19 0 .254.105.275.247.003.04.008.083.008.127h.313c0-.055-.003-.11-.012-.158-.048-.303-.223-.435-.569-.435zm-8.21.003c-.545 0-.609.556-.609 1.06 0 .446.045.958.605.958.207 0 .342-.064.465-.235v.274c0 .321-.044.556-.378.556-.239 0-.31-.152-.31-.366h-.334c.004.406.218.58.628.58.496 0 .714-.206.714-.7v-1.76c0-.11.013-.226.013-.334h-.315v.235c-.103-.195-.238-.278-.48-.278zm6.64.001c-.683 0-.712.589-.712 1.12 0 .526.076.966.688.966.488 0 .655-.263.672-.671h-.311c-.008.234-.063.441-.361.441-.338 0-.366-.306-.366-.636v-.135h1.05v-.091c0-.485-.017-.998-.66-.998zm3.18.003c-.64 0-.715.486-.715 1.06 0 .615.063 1.03.691 1.03.605 0 .704-.397.704-1.06 0-.609-.048-1.03-.68-1.03zm6.25 0c-.64 0-.716.486-.716 1.06 0 .615.063 1.03.692 1.03.602 0 .703-.397.703-1.06 0-.609-.047-1.03-.679-1.03zm11 0c-.64 0-.716.486-.716 1.06 0 .615.063 1.03.691 1.03.604 0 .704-.397.704-1.06 0-.609-.047-1.03-.679-1.03zm-15.3.037v1.42c0 .37.143.62.536.62.227 0 .389-.102.505-.29l.004.254h.315c-.013-.147-.017-.289-.017-.44v-1.56h-.317v1.22c0 .27-.055.584-.393.584-.315 0-.318-.286-.318-.522v-1.28zm10.2 0v1.42c0 .37.144.62.537.62.227 0 .389-.102.505-.29l.004.254h.313c-.012-.147-.016-.289-.016-.44v-1.56h-.317v1.22c0 .27-.055.584-.393.584-.314 0-.319-.286-.319-.522v-1.28zm-23.3.003v2h.313v-2zm16 0v2h.313v-2zm10.9 0v2h.314v-2zm-18.9.184c.239 0 .318.186.338.393h-.001c.008.087.008.171.008.254h-.731c0-.091.007-.174.016-.259.028-.222.12-.388.37-.388zm17.8 0c.353 0 .382.39.382.834 0 .374-.016.784-.393.784-.313 0-.361-.381-.361-.822 0-.358.019-.796.372-.796zm-14.6.003c.378 0 .361.412.361.714v.308c0 .274-.024.611-.373.611-.37 0-.373-.354-.373-.624v-.285c0-.279-.012-.723.385-.723zm6.25 0c.378 0 .361.412.361.714v.308c0 .274-.023.611-.374.611-.369 0-.372-.354-.372-.624v-.285c0-.279-.013-.723.385-.723zm11 0c.378 0 .361.412.361.714v.308c0 .274-.023.611-.374.611-.368 0-.372-.354-.372-.624v-.285c0-.279-.013-.723.385-.723zm-26.9.003c.362 0 .382.415.382.747 0 .302.012.824-.401.824-.346 0-.353-.41-.353-.74 0-.361.002-.831.372-.831z" stroke-width=".029"/></svg>