<svg height="84" viewBox="0 0 33.338 22.225" width="126" xmlns="http://www.w3.org/2000/svg"><path d="m8.97 14.88c-1.555 0-2.765.024-2.765.024-1.504.041-2.243.02-2.243.02-1.577 0-2.896-1.069-2.932-2.522-.035-1.362 1.065-2.477 2.741-2.566 0 0 .74-.072 2.018.102l-.004-.149.001-2.733 3.179-.009v2.945h1.556v-.975l3.088-1.358.002 2.331 1.115-.003-.011.815c-.603-.018-1.106-.016-1.106-.016v1.516c0 .075-.003.791.024.966 0 0 .043.419.381.694 0 0 .196.18.623.216 0 0 .143.016.41.013h.758c.547-.003.715-.103.715-.103.235-.111.375-.333.375-.585 0-.19-.084-.353-.209-.48l-.006-.005-.801-.768c-.251-.237-.383-.427-.434-.513l-.006-.008c-.1-.166-.158-.36-.158-.566 0-.403.224-.758.552-.945l.021-.013c.297-.187 1.827-.731 4.595-.092l-.023.699-.058-.003s-.739-.07-1.035-.013l-.007.002c-.227.037-.404.212-.404.447 0 .114.048.236.124.312l.016.018 1.109 1.085.009.011c.226.227.365.538.365.885 0 .549-.408 1.048-.9 1.219 0 0-.314.126-.831.157 0 0-.245.018-.942.032h-.039c-2.515.028-5.13-.02-5.13-.02l-.064-.002c-1.676-.054-2.01-1.308-2.01-1.308-.094-.234-.106-.812-.106-.812l.003-2.036-1.557.001v4.094zm-4.986-2.417c.018.849.401 1.292.401 1.292.257.351.745.389.745.389.275.033.656-.028.656-.028l.004-3.398s-.371-.045-.661-.009c0 0-.474.021-.769.422 0 0-.368.47-.377 1.259z" stroke-width=".034"/><path d="m94.06 32.246h-2.38v2.422h2.31v.651h-2.31v2.639h2.45v.672h-3.29v-7.056h3.22z" stroke-width=".07"/><path d="m30.45 15.18c-1.318 0-1.835-.622-1.835-1.905v-.07h.803v.07c0 .731.18 1.283 1.033 1.283.713 0 1.004-.407 1.004-1.062 0-.82-.535-1.065-1.14-1.431-.896-.552-1.608-.925-1.608-2.074 0-1.099.747-1.646 1.795-1.646 1.079 0 1.702.474 1.702 1.594v.218h-.782v-.153c0-.62-.183-1.039-.945-1.039-.611 0-.966.372-.966.983 0 .872.681 1.099 1.355 1.539.774.489 1.394.779 1.394 1.955 0 1.163-.719 1.739-1.806 1.739z" stroke-width=".065"/></svg>