<svg height="84" viewBox="0 0 33.37 22.247" width="126" xmlns="http://www.w3.org/2000/svg"><path d="m8.4 11.85c-1.43 0-2.54.023-2.54.023-1.38.036-2.06.018-2.06.018-1.45 0-2.66-.984-2.69-2.32-.031-1.25.977-2.27 2.52-2.36 0 0 .68-.065 1.85.093l-.004-.135.001-2.51 2.92-.008v2.7h1.43v-.897l2.83-1.25.002 2.14 1.02-.002-.01.747c-.553-.017-1.01-.015-1.01-.015v1.39c0 .071-.003.727.022.888 0 0 .04.384.35.636 0 0 .181.167.572.198 0 0 .132.014.377.013h.672l.022-.002c.504-.001.655-.093.655-.093.216-.102.346-.307.346-.537 0-.175-.076-.323-.193-.441l-.004-.004-.736-.704c-.23-.216-.351-.393-.398-.471l-.006-.008c-.092-.151-.146-.329-.146-.519 0-.369.207-.695.507-.868l.02-.011c.272-.171 1.68-.672 4.22-.086l-.02.643-.054-.003s-.678-.064-.95-.013l-.006.001c-.211.035-.372.195-.372.409 0 .106.044.216.113.287l.017.017 1.02.995.01.01c.207.208.335.495.335.812 0 .504-.375.963-.826 1.12 0 0-.289.114-.764.144 0 0-.225.017-.865.029h-.035c-2.31.027-4.71-.018-4.71-.018l-.058-.003c-1.54-.049-1.85-1.2-1.85-1.2-.086-.214-.097-.744-.097-.744l.003-1.87-1.43.001zm-4.57-2.22c.017.778.366 1.18.366 1.18.236.322.684.357.684.357.253.031.602-.025.602-.025l.004-3.12s-.34-.041-.607-.007c0 0-.436.02-.704.386 0 0-.339.432-.347 1.16z" stroke-width=".031"/><path d="m21.7 7.25v1.88h-2.34v.742h2.34v2.05h1.96v-2.05h.872v2.05h1.96v-4.67h-1.96v1.88h-.872v-1.88zm5.65 0v4.68h2.2s.38-.004.677-.029c0 0 .403-.024.728-.133 0 0 .551-.16.872-.551 0 0 .316-.359.43-.857 0 0 .086-.342.086-.744v-.048c0-.404-.086-.745-.086-.745-.114-.499-.43-.858-.43-.858-.321-.392-.872-.551-.872-.551-.325-.11-.728-.133-.728-.133-.297-.025-.677-.029-.677-.029zm1.96.766h.157s.182 0 .273.018c0 0 .128.016.235.099 0 0 .104.072.174.228 0 0 .1.205.134.671 0 0 .02.201.021.542v.031c-.001.34-.021.541-.021.541-.035.467-.134.672-.134.672-.07.155-.174.228-.174.228-.107.085-.235.098-.235.098-.092.018-.273.018-.273.018h-.157z" fill="#939598" stroke-width=".265"/><path d="m2.5 13.15v4.37h.482v-3.99l1.1 3.99h.57l1.14-3.99v3.99h.482v-4.37h-.833l-1.05 3.85-1.05-3.85zm17.6.007-1.28 4.37h.513l.309-1.11h1.52l.309 1.11h.531l-1.26-4.37zm6.52 0v1.61c-.15-.237-.338-.358-.688-.358-.811 0-.932.799-.932 1.55 0 .744.066 1.62.943 1.62.332 0 .532-.127.713-.404l.006.35h.465c-.006-.145-.026-.428-.026-.575v-3.79zm1.21.06v.52h.526v-.52zm-7.43.425.635 2.37h-1.27zm-7.82.066-.477.21v.563h-.453v.35h.453v1.97c0 .532.116.756.688.756.115 0 .236-.013.351-.031v-.375c-.08.011-.152.026-.218.026-.258 0-.344-.084-.344-.43v-1.91h.543v-.35h-.543zm17.5.705c-.973 0-1.09.739-1.09 1.61 0 .936.096 1.57 1.05 1.57v-.001c.918 0 1.07-.604 1.07-1.61 0-.924-.072-1.57-1.03-1.57zm-22 .001c-.537 0-1 .213-1 .804v.03h.476v-.03c0-.303.229-.459.508-.459.471 0 .471.398.471.76v.133c-.774.008-1.57.069-1.57 1.03 0 .502.242.9.785.9.381 0 .604-.144.815-.453l.008.399.465-.001c-.026-.326-.031-.646-.031-.972v-1.12c0-.682-.199-1.02-.924-1.02zm6.5 0c-1.04 0-1.08.895-1.08 1.71 0 .797.115 1.47 1.04 1.47.742 0 .997-.398 1.02-1.02h-.471c-.012.356-.096.67-.549.67-.514 0-.556-.465-.556-.967v-.205h1.6v-.139c0-.737-.026-1.52-1-1.52zm-4.05.001c-.512 0-.905.248-.905.791 0 .527.356.677.772.9.352.188.551.297.551.665 0 .297-.159.472-.46.472-.315 0-.424-.188-.447-.476-.006-.049-.006-.115-.006-.17h-.476c0 .078 0 .157.006.212.041.519.344.78.912.78.586 0 .954-.284.954-.895 0-.514-.344-.706-.725-.913-.344-.188-.604-.313-.604-.615 0-.248.156-.416.404-.416.289 0 .387.156.418.373.004.061.012.127.012.194h.477c0-.084-.006-.168-.017-.243-.074-.457-.338-.658-.865-.658zm6.89.007c-.346 0-.612.157-.774.46v-.399h-.473c.014.133.02.417.02.555v2.49h.482v-1.89c0-.446.212-.772.69-.772.035 0 .066.006.101.012v-.46zm10.5.06v3.04h.477v-3.04zm-5.52.001v2.16c0 .563.219.943.817.943.344 0 .592-.156.767-.441l.006.387h.477c-.018-.223-.023-.441-.023-.67v-2.37h-.485v1.85c0 .41-.083.887-.597.887-.477 0-.483-.434-.483-.791v-1.94zm-7.79.277c.363 0 .484.284.513.598.012.133.012.26.012.388h-1.11c0-.139.012-.266.026-.393.041-.338.18-.593.561-.593zm15.5 0c.574 0 .549.627.549 1.09v.465c0 .418-.035.932-.567.932-.563 0-.569-.537-.569-.949v-.434c0-.424-.017-1.1.586-1.1zm-3.98.007c.539 0 .58.592.58 1.27 0 .569-.024 1.19-.598 1.19-.477 0-.549-.58-.549-1.25 0-.543.029-1.21.567-1.21zm-17.7 1.22h.121v.361c0 .392-.127.877-.629.877-.338 0-.447-.29-.447-.588 0-.561.478-.651.955-.651z" stroke-width=".044"/></svg>