<svg height="84" viewBox="0 0 33.3 22.2" width="126" xmlns="http://www.w3.org/2000/svg"><path d="m8.871 20.83c-1.175 0-1.703-.562-1.703-1.755h.862c0 .642.166 1.101.872 1.101.954 0 1.028-1.174 1.028-2.977-.303.393-.666.625-1.268.625-1.365 0-1.599-1.082-1.599-2.34 0-1.326.406-2.392 1.872-2.392 1.729 0 1.82 1.456 1.82 3.12v.935c0 2.288-.156 3.679-1.885 3.679zm.07-7.072c-.902 0-1.009.901-1.009 1.729 0 .891.106 1.69.939 1.69.975 0 1.048-.975 1.048-1.781 0-.794-.126-1.638-.978-1.638z" stroke-width=".075"/><path d="m13.59 20.83c-1.729 0-1.859-1.547-1.859-3.12v-1.443c0-1.43.166-3.068 1.937-3.068 1.191 0 1.677.572 1.677 1.703h-.852c0-.593-.196-1.052-.862-1.052-.985 0-1.069 1.258-1.069 2.444v.477c.299-.456.675-.706 1.297-.706 1.255 0 1.573.988 1.573 2.236 0 1.313-.28 2.522-1.846 2.522zm.03-4.108c-.915 0-1.037.952-1.037 1.729 0 .848.123 1.729 1.028 1.729.935 0 .975-1.07.975-1.846 0-.789-.103-1.612-.965-1.612z" stroke-width=".075"/><path d="m10.831 10.57-2.445 7.781h-.667l2.445-7.781z" stroke-width=".074"/><path d="m22.17 16.93-2.028 3.068h2.808v.662h-3.705v-.755l2.418-3.731c.269-.416.416-.945.416-1.391 0-.582-.322-.954-.924-.954-.582 0-.862.332-.956.797-.03.147-.04.309-.04.48h-.852c0-.127.01-.25.02-.364.103-1.071.809-1.586 1.872-1.586 1.175 0 1.768.572 1.768 1.69 0 .807-.469 1.573-.792 2.08z" stroke-width=".075"/><path d="m26.98 18.88v1.794h-.809v-1.794h-2.418v-.811l2.067-4.771h1.161v4.927h.798v.655zm-.802-4.836-1.755 4.186h1.755z" stroke-width=".075"/><path d="m14.788 10.06c-1.892 0-3.359.031-3.359.031-1.832.047-2.728.024-2.728.024-1.915 0-3.519-1.307-3.564-3.07-.04-1.657 1.292-3.017 3.336-3.124 0 0 .897-.086 2.455.124l-.005-.176.004-3.321 3.861-.011v3.58h1.892v-1.186l3.754-1.649.002 2.835 1.353-.004-.013.988c-.731-.02-1.345-.018-1.345-.018v1.839c0 .093-.004.965.029 1.178 0 0 .053.508.463.844 0 0 .239.22.758.264 0 0 .173.018.498.014h.92c.666-.004.866-.124.866-.124.284-.135.456-.407.456-.712 0-.23-.1-.429-.255-.584l-.005-.006-.973-.935c-.306-.286-.467-.519-.53-.622l-.005-.011c-.122-.2-.193-.436-.193-.687 0-.491.275-.92.671-1.148l.027-.016c.359-.226 2.219-.889 5.586-.113l-.027.851-.071-.005s-.897-.084-1.262-.014h-.009c-.277.047-.492.258-.492.543 0 .138.059.287.15.378l.022.024 1.353 1.315.011.013c.275.275.443.656.443 1.072 0 .667-.496 1.277-1.094 1.482 0 0-.383.153-1.011.192 0 0-.297.022-1.148.04h-.046c-3.055.033-6.24-.026-6.24-.026l-.077-.004c-2.037-.065-2.447-1.588-2.447-1.588-.113-.284-.128-.988-.128-.988l.004-2.478-1.892.002zm-6.057-2.934c.022 1.034.485 1.566.485 1.566.312.426.904.472.904.472.334.04.798-.033.798-.033l.005-4.134s-.451-.053-.806-.01c0 0-.576.026-.935.511 0 0-.447.572-.458 1.535v.093z" stroke-width=".041"/></svg>