<svg clip-rule="evenodd" fill-rule="evenodd" height="84" stroke-linejoin="round" stroke-miterlimit="1.414" viewBox="0 0 126 84" width="126" xmlns="http://www.w3.org/2000/svg"><g stroke-width=".58"><path d="m10.003 69.557-.059-29.806-6.122.118 2.357-10.38 3.698-.052s-1.26-17.272 18.83-16.37l2.676 11.159c-6.167-.299-10.353.186-9.536 5.026l6.413-.085-.156 10.718-6.313.088.081 28.575z"/><path d="m114.96 41.944 6.236-9.047c-4.674-3.326-9.346-4.94-14.017-4.919-4.599.02-9.397.996-13.937 5.073-4.539 4.076-7.118 9.752-7.271 17.453-.18 9.036 9.179 20.228 19.818 20.121 9.711-.096 15.223-4.899 15.223-4.899l-6.356-9.602c-2.646 5.648-16.001 3.941-16.855-6.318-.893-10.725 12.617-13.263 17.161-7.862z"/><path d="m34.838 15.515-.111 54.265 11.914-1.268-.365-54.403z"/><path d="m67.347 50.815c2.898 0 5.251 2.295 5.251 5.121 0 2.827-2.353 5.122-5.251 5.122s-5.251-2.295-5.251-5.122c0-2.826 2.353-5.121 5.251-5.121zm-9.196-21.789-1.532 10.438c8.758-1.602 15.818-1.831 16.126 2.48l.081 4.028c-7.521-5.835-21.898-3.37-22.118 11.713-.202 13.799 17.258 15.825 22.505 8.871l.148 3.225 10.065-.444c.176-9.011.811-24.092.524-28.04-.908-12.464-11.099-14.708-25.798-12.271z"/></g></svg>