<svg height="84" viewBox="0 0 126 84" width="126" xmlns="http://www.w3.org/2000/svg"><path d="m44.406 16.365c-.951-.021-1.918.018-2.895.119-8.813.92-17.33 5.581-22.469 12.297-2.872 3.756-4.844 8.419-5.59 13.264-.239 1.518-.323 5.151-.154 6.639.493 4.477 2.421 8.738 5.434 12.004.676.721 1.591 1.626 2.041 2.01 2.886 2.438 6.703 4.154 10.377 4.676.493.077 1.746.169 2.773.215h.027c1.816.077 2.238.076 4.617-.047 2.407-.123 5.336-.75 7.35-1.578 4.787-1.978 8.306-5.444 11.445-11.316 1.309-2.438 5.604-12.205 6.266-14.229.338-1.058.379-2.269.098-3.035-.253-.675-1.153-1.549-1.928-1.855-2.126-.843-5.449-.443-8.363.982l-.859.427-.211-.321c-.296-.475-1.055-.951-1.914-1.242-.634-.215-.999-.246-2.252-.246-1.619 0-2.787.23-3.998.797-.591.276-.705.262-.775-.121-.042-.23-.14-.231-3.898-.262l-3.857-.031-.775 1.826c-4.604 10.748-6.194 14.581-6.109 14.734.084.138.62.152 3.984.121 2.14-.015 3.927-.075 3.969-.121s1.14-2.577 2.436-5.613c1.295-3.051 2.535-5.811 2.76-6.148.69-1.043 1.648-1.547 2.395-1.24.267.107.295.167.295.643 0 .429-.393 1.427-2.463 6.287-1.352 3.174-2.465 5.858-2.465 5.965 0 .184.254.199 3.984.199h4.012l2.225-5.229c1.225-2.867 2.365-5.504 2.52-5.842.605-1.288 1.352-1.979 2.225-2.086.451-.061.549-.031.76.184.436.445.451.384-1.857 5.873-.577 1.365-1.422 3.451-1.9 4.646-1.408 3.588-2.098 4.86-3.52 6.439-2.633 2.944-6.349 4.753-10.91 5.32-1.633.199-5.211.076-6.646-.23-3.491-.736-6.545-2.362-8.896-4.738-2.238-2.254-3.617-4.875-4.293-8.156-.282-1.319-.267-5.504 0-7.037.971-5.474 3.224-9.998 6.912-13.861 3.463-3.618 7.729-6.225 12.938-7.865 4.575-1.441 8.532-1.764 12.432-.967 3.154.644 6.334 2.315 8.348 4.416 1.605 1.656 2.985 3.972 3.646 6.072.197.613.52.796.646.367.127-.429-1.041-3.081-2.055-4.676-3.307-5.205-9.205-8.285-15.863-8.43zm58.951 10.867c-1.642 0-3.304.174-4.984.521-1.68.337-3.393.854-5.139 1.549l-1.588 9.643c.753-.433 1.826-3.823 2.518-4.166 1.041-.516 2.012-.931 2.914-1.244 1.502-.532 2.862-.799 4.082-.799 1.295 0 2.305.317 3.027.951.723.634 1.084 1.523 1.084 2.668 0 1.073-.351 2.183-1.055 3.328-.695 1.145-1.708 2.275-3.041 3.389l-12.22 10.041-1.084 5.981h20.863l2.168-9.826-5.76 3.893h-7.84l7.182-5.873c3.491-2.852 5.748-5.115 6.771-6.791s1.533-3.538 1.533-5.582c0-2.371-.84-4.242-2.52-5.611-1.68-1.38-3.984-2.07-6.912-2.07zm-21.469 7.896c-1.563.015-2.562.216-3.717.768-.718.353-.747.352-.789-.031l-.027-.307h-4.195-4.195l-2.141 5.029c-2.126 5.014-2.759 6.485-6.561 15.408-1.098 2.576-1.97 4.724-1.928 4.785h.014c.042.061 1.619.105 4.336.105h4.266l.197-.412c.113-.23.999-2.315 1.984-4.615.985-2.315 1.789-4.201 1.803-4.217 0-.015.31.123.662.307 1.126.567 1.843.706 3.35.629 2.731-.138 4.773-.812 6.969-2.346 3.815-2.653 6.715-8.71 5.758-12.021-.605-2.07-2.519-3.097-5.785-3.082zm-2.795 2.977c.117.021.223.066.316.137.155.123.212.322.24.92.056.951-.227 2.192-.889 3.863-1.323 3.388-2.787 5.687-3.955 6.193-.549.245-1.253.215-1.492-.061-.296-.337-.339-1.304-.113-2.27.366-1.579 1.634-4.506 2.676-6.178 1.059-1.704 2.399-2.751 3.217-2.605z" transform="matrix(1.19 0 0 .99 -11.6 -.04)"/></svg>