<svg height="84" width="126" xmlns="http://www.w3.org/2000/svg"><path d="m29.1 73.5c-1.24-.055-2.76-.171-3.36-.258-4.45-.643-9.06-2.76-12.6-5.76-.539-.463-1.65-1.58-2.46-2.48-3.64-4.03-5.98-9.26-6.58-14.8-.201-1.84-.102-6.31.182-8.17.907-5.96 3.28-11.7 6.76-16.3 6.21-8.27 16.5-14 27.2-15.1 9.44-1 18.1 2.91 22.7 10.2 1.22 1.96 2.64 5.24 2.48 5.76-.158.529-.545.299-.78-.462-.798-2.59-2.47-5.43-4.4-7.47-2.44-2.58-6.29-4.65-10.1-5.44-4.71-.972-9.5-.593-15 1.19-6.3 2.03-11.5 5.22-15.6 9.68-4.46 4.75-7.19 10.3-8.36 17.1-.33 1.9-.332 7.03-.004 8.66.82 4.05 2.48 7.27 5.19 10 2.85 2.92 6.54 4.92 10.8 5.83 1.73.374 6.06.522 8.03.275 5.51-.69 10-2.93 13.2-6.54 1.72-1.95 2.55-3.5 4.27-7.92.573-1.48 1.61-4.05 2.29-5.71 2.79-6.75 2.77-6.68 2.26-7.23-.247-.263-.382-.297-.917-.229-1.06.133-1.95.987-2.7 2.57-.196.416-1.57 3.65-3.05 7.19l-2.69 6.44h-4.83c-4.51 0-4.83-.016-4.83-.241 0-.133 1.34-3.44 2.97-7.34 2.51-5.99 2.97-7.2 2.97-7.75 0-.577-.038-.661-.356-.792-.907-.373-2.06.239-2.89 1.53-.266.416-1.77 3.82-3.34 7.56s-2.9 6.85-2.95 6.91c-.056.056-2.22.123-4.81.149-4.08.041-4.72.02-4.82-.159-.108-.189 1.82-4.91 7.4-18.1l.944-2.24 4.66.036c4.55.035 4.66.043 4.71.311.08.475.215.498.936.158 1.46-.689 2.88-.976 4.84-.98 1.51-.003 1.96.047 2.72.3 1.04.349 1.96.953 2.31 1.53l.247.4 1.05-.521c3.53-1.76 7.54-2.24 10.1-1.21.929.37 2.03 1.45 2.33 2.29.342.945.293 2.44-.123 3.75-.797 2.5-5.99 14.5-7.57 17.5-3.8 7.23-8.05 11.5-13.8 13.9-2.44 1.02-5.97 1.79-8.9 1.94-2.87.145-3.39.15-5.59.053zm29.5-8.39c-.044-.075 1.01-2.72 2.33-5.89 4.61-11 5.37-12.8 7.94-19l2.58-6.2h10.2l.041.379c.05.463.077.463.957.034 1.39-.678 2.6-.931 4.5-.937 3.96-.013 6.27 1.24 7 3.79 1.16 4.07-2.35 11.5-6.97 14.8-2.66 1.88-5.12 2.73-8.44 2.88-1.82.087-2.69-.08-4.06-.779-.432-.221-.795-.39-.808-.376s-.995 2.35-2.18 5.19c-1.19 2.84-2.27 5.4-2.41 5.68l-.246.516h-5.16c-3.28 0-5.19-.05-5.24-.137zm19.9-14.2c1.41-.627 3.18-3.45 4.78-7.63.793-2.06 1.14-3.58 1.08-4.75-.038-.729-.105-.988-.295-1.14-.906-.706-2.8.644-4.27 3.04-1.26 2.05-2.79 5.67-3.23 7.6-.269 1.19-.213 2.39.13 2.79.286.336 1.15.375 1.81.082zm19.7 3.98c-1.73-.251-2.69-.548-4.11-1.27-.968-.491-1.42-.826-2.18-1.62-.528-.552-.939-1.07-.913-1.15.081-.249 4.89-4.01 5.13-4.01.122.002.599.15 1.06.331.73.286.836.371.81.652-.179 1.9-.186 2.48-.035 2.87.388.997 1.77 1.42 3.46 1.05 1.56-.339 2.51-.912 3.79-2.28 1.64-1.75 2.53-3.75 2.43-5.43-.062-1.04-.389-1.59-1.18-2-.499-.257-.791-.287-2.78-.287-1.89 0-2.24-.032-2.3-.213-.069-.19.854-2.62 1.16-3.06.085-.12.573-.172 1.63-.172 1.73 0 2.6-.196 4.01-.902 1.98-.994 3.82-3.52 4.18-5.72.125-.774.113-.955-.09-1.41-.319-.716-.981-1.06-2.04-1.06-1.41 0-2.79.56-3.78 1.53-.671.658-1 1.34-1.09 2.25l-.07.684-1.16.384c-.64.211-1.23.358-1.31.325-.181-.074-2.37-3.79-2.37-4.02 0-.216 1.84-1.52 3.09-2.18 3.18-1.69 7.76-2.58 11.7-2.27 4.27.345 6.6 1.91 6.8 4.59.258 3.42-2.53 6.76-7.01 8.42-.569.21-1.08.428-1.14.483-.06.056.255.308.701.561 2.59 1.47 3.35 3.97 2.11 6.97-.922 2.24-3.04 4.43-5.66 5.84-1.19.641-3.6 1.52-4.99 1.82-2.46.528-5.38.636-7.78.289z" stroke-width=".133"/></svg>