<svg enable-background="new -72 -23.757 504 252" height="84" viewBox="-72 -23.757 126 84" width="126" xmlns="http://www.w3.org/2000/svg"><g stroke-width=".328"><path d="m16.357-10.68c-2.429-2.022-6.169-3.376-11.211-4.067l-3.705 11.779c-.08.432-.218.923-.431 1.488-.378.945-.833 1.724-1.368 2.336-.536.614-1.135 1.093-1.799 1.442-.665.347-1.387.587-2.168.719-.781.131-1.589.172-2.423.124-.836-.049-1.546-.162-2.131-.342-.585-.179-1.124-.476-1.614-.892-.363-.408-.574-.943-.632-1.607-.058-.663.103-1.484.482-2.461.339-.85.769-1.59 1.289-2.219.52-.63 1.129-1.118 1.824-1.464.664-.347 1.379-.58 2.143-.697.763-.116 1.611-.147 2.542-.093.771.046 1.489.159 2.155.344.316.087.593.201.833.339l2.844-9.044c-.702-.066-1.42-.124-2.166-.167-7.179-.419-13.212.41-18.103 2.483-4.89 2.075-8.15 5.151-9.779 9.228-.489 1.25-.751 2.428-.79 3.535l-.003-.002c-.467 8.018 4.686 12.536 7.869 14.545 1.277.855 2.413 1.279 2.413 1.279l1.459-4.663.431-1.146c1.921.363 4.056.616 6.416.753 7.229.422 13.288-.404 18.178-2.479 4.889-2.073 8.122-5.126 9.699-9.159 1.575-4.03.824-7.328-2.256-9.893z" fill="#808080"/><path d="m20.348 30.458c-.823 2.53-2.698 4.526-5.623 5.989-2.926 1.463-6.629 2.194-11.109 2.194-4.42 0-7.635-.724-9.647-2.172-2.011-1.447-2.591-3.451-1.737-6.011l2.468-7.634h8.412l-2.377 7.588c-.305.945-.404 1.73-.297 2.354.107.625.343 1.12.709 1.486.457.365.967.616 1.531.754.564.137 1.242.206 2.035.206.792 0 1.554-.084 2.286-.252.731-.167 1.401-.434 2.012-.799.609-.366 1.15-.853 1.623-1.463.472-.609.861-1.372 1.166-2.286l2.469-7.588h8.412z"/><path d="m-39.523 30.754c.823-2.53.244-4.526-1.738-5.989-1.981-1.463-5.211-2.194-9.692-2.194-4.419 0-8.092.724-11.017 2.172-2.926 1.448-4.816 3.452-5.669 6.012-.823 2.531-.237 4.519 1.76 5.966 1.996 1.448 5.219 2.172 9.669 2.172s8.137-.724 11.064-2.172c2.925-1.447 4.799-3.436 5.622-5.966zm-8.549.046c-.305.976-.678 1.737-1.12 2.286s-.998 1.021-1.668 1.417c-.58.366-1.234.617-1.966.755-.732.137-1.463.206-2.195.206-.884 0-1.639-.075-2.263-.228-.625-.152-1.12-.412-1.486-.777-.397-.366-.625-.861-.686-1.486-.062-.624.046-1.349.32-2.172.305-.944.708-1.729 1.212-2.354.503-.624 1.058-1.12 1.668-1.486.701-.365 1.379-.617 2.035-.754.655-.137 1.379-.206 2.172-.206.792 0 1.509.084 2.149.251.64.168 1.143.434 1.509.8.365.366.586.854.662 1.463.076.61-.038 1.372-.343 2.286z"/><path d="m33.66 26.298c.96-.229 2.964-.343 6.011-.343 1.584 0 3.116.16 4.595.48 1.478.32 2.964.724 4.457 1.212l1.28-3.886c-.884-.244-2.172-.487-3.864-.731-1.691-.244-3.497-.366-5.417-.366-5.76 0-9.966.496-12.617 1.486-2.651.991-4.222 2.233-4.709 3.726-.365 1.128-.114 2.08.755 2.857s2.4 1.349 4.594 1.714c.823.153 2.171.275 4.046.366 1.874.091 3.101.183 3.68.274 1.218.122 2.034.274 2.446.458.411.183.556.457.434.823-.153.427-.648.747-1.486.96-.839.214-2.065.32-3.68.32-.252 0-.496-.001-.735-.002-.605-.033-1.265-.089-1.898-.156-.675-.072-1.35-.159-2.02-.261-1.34-.203-2.666-.465-3.952-.799-1.285-.335-2.535-.743-3.691-1.25-.155-.068-.305-.142-.457-.214-.812 1.304-1.936 2.442-3.366 3.408.74.356 1.488.648 2.231.899 1.482.494 2.961.826 4.433 1.071 1.473.243 2.94.394 4.402.482.731.044 1.462.07 2.193.081.644.009 1.272.007 1.935-.015 4.004-.024 7.315-.501 9.93-1.438 2.681-.96 4.282-2.232 4.8-3.817.366-1.098.145-2.012-.662-2.743-.808-.731-2.233-1.264-4.275-1.6-.945-.122-1.891-.236-2.834-.343-.945-.106-1.814-.206-2.606-.297-3.139-.213-4.892-.411-5.257-.594-.366-.183-.488-.457-.366-.823.153-.396.709-.709 1.67-.937z"/><path d="m-11.346 24.789c-1.997-1.447-5.22-2.172-9.669-2.172-4.45 0-8.137.724-11.063 2.172s-4.72 3.414-5.543 5.943l-.034.114-4.16 12.846c-1.724 5.779 5.745 8.067 5.745 8.067l2.485-8.067.215-.69c.194-.65.391-1.299.584-1.95l.553-1.813c.198-.6.396-1.2.606-1.797l1.304-3.565.653-1.782.468-1.219c.017-.056.032-.111.051-.168.274-.822.64-1.547 1.097-2.171.458-.624 1.006-1.12 1.646-1.486.609-.365 1.272-.624 1.989-.777.716-.152 1.516-.228 2.4-.228.731 0 1.418.068 2.058.206.64.137 1.127.389 1.463.754.426.396.678.869.754 1.417.076.549-.038 1.311-.343 2.286-.305.915-.694 1.677-1.166 2.286-.473.61-1.013 1.097-1.623 1.463-.61.365-1.28.633-2.011.8-.731.168-1.494.251-2.286.251-.793 0-1.471-.068-2.035-.206-.564-.137-1.09-.389-1.577-.755-.037-.037-.066-.081-.1-.12l-1.204 3.494c-.068.201-.132.403-.197.604 1.14.232 2.461.37 3.97.412 4.48 0 8.183-.731 11.109-2.194s4.8-3.459 5.623-5.989.235-4.519-1.76-5.967z"/></g></svg>