<svg height="84" viewBox="0 0 126 84" width="126" xmlns="http://www.w3.org/2000/svg"><g stroke-width="0" transform="matrix(1.06 0 0 .95 -4.29 1.78)"><path d="m58.9 16.7c-5.38 0-9.55 1.49-12.5 4.47-2.94 2.96-4.4 7.21-4.4 12.7 0 4.16.837 7.57 2.51 10.2 1.68 2.66 3.66 4.52 5.96 5.59 2.31 1.05 5.29 1.57 8.93 1.57 2.99 0 5.45-.432 7.39-1.3 1.95-.868 3.58-2.15 4.89-3.86 1.3-1.7 2.26-3.82 2.87-6.36l-9.06-2.74c-.456 2.11-1.2 3.73-2.22 4.84-1 1.11-2.49 1.67-4.47 1.67-2.04 0-3.61-.683-4.74-2.05-1.12-1.38-1.69-3.93-1.69-7.64 0-2.99.473-5.19 1.42-6.59 1.25-1.89 3.04-2.84 5.39-2.84 1.03 0 1.97.212 2.8.635.834.423 1.54 1.03 2.12 1.82.345.467.678 1.21 1 2.24l9.13-2.03c-1.18-3.53-2.97-6.14-5.39-7.85-2.4-1.7-5.71-2.55-9.93-2.55zm-51.1.583v33.4h10.4v-12.4h5.66c4.16 0 7.25-.952 9.28-2.85 2.04-1.89 3.05-4.53 3.05-7.91 0-3.28-.936-5.81-2.8-7.59-1.86-1.78-4.65-2.67-8.39-2.67zm73.4 0v33.4h8.46v-25.5l6.52 25.5h7.64l6.54-25.5v25.5h8.44v-33.4h-13.5l-5.22 20.4-5.24-20.4zm-63 6.78h2.94c1.94 0 3.25.367 3.95 1.1.701.734 1.05 1.63 1.05 2.67 0 1.08-.401 1.97-1.2 2.67-.812.69-2.22 1.03-4.21 1.03h-2.53z"/><g transform="scale(.98 1.02)"><path d="m8.54 58.4h2.13q.866 0 1.33.136.468.136.7.393.237.257.317.624.086.363.086 1.13v.71q0 .78-.161 1.14-.161.36-.594.549-.428.191-1.12.191h-.569v3.28h-2.12zm2.12 1.39v2.07q.091.005.156.005.292 0 .403-.141.116-.146.116-.599v-.67q0-.418-.131-.544-.131-.126-.544-.126z"/><path d="m19.1 58.4v5.45q0 .926-.06 1.3-.06.373-.357.77-.297.393-.785.599-.483.201-1.14.201-.73 0-1.29-.242-.559-.242-.836-.629-.277-.387-.327-.816-.05-.433-.05-1.81v-4.82h2.12v6.11q0 .534.055.685.06.146.237.146.201 0 .257-.161.06-.166.06-.775v-6.01z"/><path d="m22.6 58.4v6.52h1.29v1.63h-3.41v-8.15z"/><path d="m29.4 60.8h-1.97v-.604q0-.423-.076-.539-.076-.116-.252-.116-.191 0-.292.156-.096.156-.096.473 0 .408.111.614.106.206.599.498 1.41.841 1.78 1.38.368.539.368 1.74 0 .871-.206 1.28-.201.413-.785.695-.584.277-1.36.277-.851 0-1.46-.322-.599-.322-.785-.821-.186-.498-.186-1.41v-.534h1.97v.992q0 .458.081.589.086.131.297.131.211 0 .312-.166.106-.166.106-.493 0-.72-.196-.942-.201-.222-.992-.74-.79-.524-1.05-.76-.257-.237-.428-.655-.166-.418-.166-1.07 0-.936.237-1.37.242-.433.775-.675.534-.247 1.29-.247.826 0 1.4.267.584.267.77.675.191.403.191 1.37z"/><path d="m30.9 58.4h3.53v1.63h-1.41v1.55h1.32v1.55h-1.32v1.79h1.56v1.63h-3.68z"/><path d="m43.1 61.9h-2.12v-1.42q0-.619-.071-.77-.065-.156-.297-.156-.262 0-.332.186-.071.186-.071.806v3.79q0 .594.071.775.071.181.317.181.237 0 .307-.181.076-.181.076-.851v-1.02h2.12v.317q0 1.26-.181 1.79-.176.529-.79.926-.609.398-1.51.398-.931 0-1.54-.337-.604-.337-.801-.931-.196-.599-.196-1.8v-2.38q0-.881.06-1.32.06-.443.357-.851.302-.408.831-.639.534-.237 1.22-.237.936 0 1.55.363.609.363.801.906.191.539.191 1.68z"/><path d="m49.2 63.1q0 1.23-.06 1.74-.055.509-.363.931-.302.423-.821.65-.519.227-1.21.227-.655 0-1.18-.211-.519-.217-.836-.644-.317-.428-.378-.931-.06-.503-.06-1.76v-1.39q0-1.23.055-1.74.06-.514.363-.936.307-.423.826-.65.519-.227 1.21-.227.655 0 1.17.217.524.211.841.639.317.428.378.931.06.503.06 1.76zm-2.12-2.68q0-.569-.065-.725-.06-.161-.257-.161-.166 0-.257.131-.086.126-.086.755v3.81q0 .71.055.876.06.166.272.166.217 0 .277-.191.06-.191.06-.911z"/><path d="m50.6 58.4h1.59q1.54 0 2.07.141.544.141.826.463.282.322.352.72.071.393.071 1.55v2.85q0 1.1-.106 1.47-.101.368-.357.579-.257.206-.634.292-.378.081-1.14.081h-2.67zm2.12 1.39v5.36q.458 0 .564-.181.106-.186.106-1v-3.17q0-.554-.035-.71-.035-.156-.161-.227-.126-.076-.473-.076z"/><path d="m56.9 58.4h3.53v1.63h-1.41v1.55h1.32v1.55h-1.32v1.79h1.56v1.63h-3.68z"/><path d="m70.7 58.4v8.15h-1.85v-5.5l-.74 5.5h-1.31l-.78-5.38v5.38h-1.85v-8.15h2.74q.121.735.257 1.73l.292 2.07.483-3.81z"/><path d="m77 63.1q0 1.23-.06 1.74-.055.509-.363.931-.302.423-.821.65-.519.227-1.21.227-.655 0-1.18-.211-.519-.217-.836-.644-.317-.428-.378-.931-.06-.503-.06-1.76v-1.39q0-1.23.055-1.74.06-.514.363-.936.307-.423.826-.65.519-.227 1.21-.227.655 0 1.17.217.524.211.841.639.317.428.378.931.06.503.06 1.76zm-2.12-2.68q0-.569-.065-.725-.06-.161-.257-.161-.166 0-.257.131-.086.126-.086.755v3.81q0 .71.055.876.06.166.272.166.217 0 .277-.191.06-.191.06-.911z"/><path d="m78.3 58.4h1.59q1.54 0 2.07.141.544.141.826.463.282.322.352.72.071.393.071 1.55v2.85q0 1.1-.106 1.47-.101.368-.357.579-.257.206-.634.292-.378.081-1.14.081h-2.67zm2.12 1.39v5.36q.458 0 .564-.181.106-.186.106-1v-3.17q0-.554-.035-.71-.035-.156-.161-.227-.126-.076-.473-.076z"/><path d="m89.4 58.4v5.45q0 .926-.06 1.3-.06.373-.357.77-.297.393-.785.599-.483.201-1.14.201-.73 0-1.29-.242-.56-.242-.836-.629-.277-.388-.327-.816-.05-.433-.05-1.81v-4.82h2.12v6.11q0 .534.055.685.06.146.237.146.201 0 .257-.161.06-.166.06-.775v-6.01z"/><path d="m92.9 58.4v6.52h1.29v1.63h-3.41v-8.15z"/><path d="m99.2 58.4 1.21 8.15h-2.17l-.106-1.47h-.76l-.126 1.47h-2.2l1.08-8.15zm-1.12 5.24q-.161-1.38-.322-3.42-.322 2.34-.403 3.42z"/><path d="m105 58.4v1.63h-1.26v6.52h-2.12v-6.52h-1.25v-1.63z"/><path d="m108 58.4v8.15h-2.12v-8.15z"/><path d="m115 63.1q0 1.23-.06 1.74-.055.509-.363.931-.302.423-.821.65-.519.227-1.21.227-.655 0-1.18-.211-.519-.217-.836-.644-.317-.428-.378-.931-.06-.503-.06-1.76v-1.39q0-1.23.055-1.74.06-.514.363-.936.307-.423.826-.65.519-.227 1.21-.227.655 0 1.17.217.524.211.841.639.317.428.378.931.06.503.06 1.76zm-2.12-2.68q0-.569-.066-.725-.06-.161-.257-.161-.166 0-.257.131-.086.126-.086.755v3.81q0 .71.055.876.06.166.272.166.216 0 .277-.191.06-.191.06-.911z"/><path d="m121 58.4v8.15h-1.86l-1.1-3.71v3.71h-1.77v-8.15h1.77l1.19 3.67v-3.67z"/></g></g></svg>