<svg height="84" width="126" xmlns="http://www.w3.org/2000/svg"><g fill="#221f1f"><path d="m101.29 47.84h11.856l8.875-32.894h-11.873z"/><path d="m44.03 33.26c.886-2.538 2.998-4.02 6.167-4.02 3.015 0 4.514 1.431 4.514 3.237 0 .238-.068.562-.119.784zm8.517 7.717c-.596.818-2.095 1.704-4.685 1.704-3.714 0-4.855-2.129-4.855-4.668h22.196c.545-1.465.613-2.862.613-4.157 0-7.512-8.347-10.476-15.246-10.476-7.751 0-18.67 3.611-18.67 14.582 0 5.826 4.446 10.579 15.485 10.579 13.44 0 15.774-5.962 16.558-7.563h-11.396" fill-rule="evenodd"/><path d="m34.27 23.79c-1.073-.273-2.215-.358-4.191-.358-3.066 0-6.95 1.789-9.046 4.327h-.119l1.022-3.731h-11.498l-6.422 23.9h11.873l2.692-9.999c1.38-5.008 3.884-6.678 8.926-6.678.852 0 1.755.068 2.64.204l4.122-7.666"/><path d="m78.66 40.96c0-1.755 1.857-2.538 3.833-2.675 2.163-.136 4.378-.324 6.286-1.056-.715 3.543-2.334 5.792-6.337 5.792-1.925 0-3.782-.409-3.782-2.061zm19.59 3.935c.647-3.015 3.645-11.89 3.645-15.229 0-5.792-9.454-6.354-15.093-6.354-7.598 0-14.003 1.482-15.859 7.836h11.141c.647-1.789 2.334-2.436 4.719-2.436 1.806 0 3.714.409 3.714 2.061 0 2.947-5.332 2.589-8.688 2.777-8.909.494-15.025 2.198-15.025 8.517 0 4.548 4.736 6.354 10.068 6.354 3.475 0 7.478-.971 9.574-2.896h.119c-.051.767-.46 2.3-.46 2.3h11.345l.801-2.93" fill-rule="evenodd"/></g><g fill="#4d4d4d" stroke-width=".3"><path d="m54.644 59.491-4.255-.449q.241-1.116.689-1.75.459-.645 1.313-1.116.613-.339 1.685-.525 1.072-.186 2.319-.186 2.002 0 3.216.23 1.214.219 2.023.93.569.492.897 1.4.328.897.328 1.717v5.13q0 .82.098 1.291.11.459.459 1.181h-4.178q-.252-.449-.328-.678-.077-.241-.153-.744-.875.842-1.739 1.203-1.181.481-2.745.481-2.078 0-3.161-.962-1.072-.962-1.072-2.373 0-1.324.777-2.177.777-.853 2.866-1.269 2.505-.503 3.248-.7.744-.208 1.575-.536 0-.82-.339-1.148-.339-.328-1.192-.328-1.094 0-1.641.35-.427.273-.689 1.028zm3.861 2.341q-.919.328-1.914.58-1.356.361-1.717.711-.372.361-.372.82 0 .525.361.864.372.328 1.083.328.744 0 1.378-.361.645-.361.908-.875.273-.525.273-1.356z"/><path d="m77.786 67.342h-4.156v-1.881q-.93 1.16-1.881 1.652-.941.492-2.319.492-1.838 0-2.888-1.094-1.039-1.105-1.039-3.391v-7.394h4.473v6.388q0 1.094.405 1.553.405.459 1.138.459.799 0 1.302-.613.514-.613.514-2.198v-5.589h4.452z"/><path d="m92.738 51.307v16.034h-4.167v-1.717q-.875 1.094-1.597 1.477-.962.503-2.144.503-2.374 0-3.631-1.805-1.247-1.805-1.247-4.386 0-2.888 1.378-4.419 1.389-1.531 3.522-1.531 1.039 0 1.881.35.853.35 1.509 1.05v-5.556zm-4.463 10.194q0-1.367-.58-2.034-.58-.678-1.466-.678-.777 0-1.302.645-.525.645-.525 2.166 0 1.422.536 2.089.547.656 1.345.656.853 0 1.422-.667.569-.667.569-2.177z"/><path d="m95.636 51.307h4.452v3.03h-4.452zm0 4.419h4.452v11.616h-4.452z"/><path d="m102.407 61.567q0-2.658 1.794-4.375 1.794-1.728 4.845-1.728 3.489 0 5.272 2.023 1.433 1.63 1.433 4.014 0 2.68-1.783 4.397-1.772 1.706-4.911 1.706-2.8 0-4.528-1.422-2.122-1.761-2.122-4.616zm4.463-.011q0 1.553.623 2.297.635.744 1.586.744.962 0 1.575-.733.623-.733.623-2.352 0-1.509-.623-2.242-.623-.744-1.542-.744-.974 0-1.608.755-.635.744-.635 2.275z"/></g></svg>