<svg clip-rule="evenodd" fill-rule="evenodd" height="84" stroke-miterlimit="1.41" viewBox="0 0 126 84" width="126" xmlns="http://www.w3.org/2000/svg"><g fill-opacity="0"><g fill-opacity="1" stroke="#0a0a0a" stroke-opacity=".994" transform="matrix(.51 0 0 -.51 .32 103.34)"><path d="m55.8 128 65.3 65.3 73.8-73.8-73.8-73.8-68.6 68.7" fill="#818181" stroke-width="1.46"/><g stroke-width="1.43"><path d="m81.8 151s23.9 17.3 37 16.6c13.1-.746 25.8-7.34 25.8-7.34l3.39-7.14s9.21-4.2 11.3-6.94c2-2.68.648-5.07 5.96-20 0 0-18.9 1.35-28.5 9.87-8.06 7.15-18.7 13.1-28.4 15-9.44 3.73-26.5-.03-26.5-.03z" fill="#c0c0c0"/><path d="m145 127c4.67 2.13 19.5 3.62 26 6.91 4.95 2.51 26.7 11.2 33.2 6.85 3.51-2.35-8.53-22.8-13-27.9-4.47-5.05-.909-20.5-1.67-22.7-1.58-4.44-12-6.12-14.5-5.22-2.36.844-16.8 5.23-23.2 7.83-5.2 2.12-8.66 5.34-23.5 3.45-14.8-1.88 16.7 30.8 16.7 30.8z" fill="#d5d5d5"/><path d="m100 92.2s12.7-5.25 21-5.14l8.52 1.47s6.95 4.46-.145 9.11" fill="#d0d0d0"/><path d="m117 94.7c-9.32-3.59-38.3-6.49-48.6 1.6-5.8 4.57-13.3 23.5-13.3 23.5s7.12 13.2 7.86 13.5c0 0-3.72 8.88 15 15.1 12 3.96 10.8 4.58 26.7 3.05 9.91-.954 25.9-9.37 29.6-13.1 6.22-6.48 21.7-11.3 27.5-11.9 5.87-.625 9.64-.023 9.64-.023s-1.95-13-7.56-20.3c-5.62-7.24-9.88-7.97-9.88-7.97s-9.16-.219-17.6-.346c-12.6-.181-19.3-3.12-19.3-3.12z" fill="#e9e9e9"/></g><path d="m52.4 122s9.33 25.6 31.8 27.3c20.1 1.43 31.9-14.7 31.9-26.3-.035-14.4-10.7-28.1-24.9-29.7-17.1-1.85-25.3 3.09-25.9 4.89-.514 1.8-16.5 17.4-13 23.9z" fill="#dcdcdc" stroke-width="1.55"/><path d="m69.5 97.4c-1.72-1.35-.27-.777-7.27-1.74-4.94-.685-9.99.145-12.8 3.76-2.45 3.18.858 3.7 5.49 3.99 2.07.135 4.25-.031 3.71.965-2.17 3.98-6.18 8.56-10.9 9.11-10.1 1.17-7.51 8.3-7.51 8.3.594 2.53 7.67 3.04 13.9 1.83l16.2-18.8" fill="#d1d1d1" stroke-width="1.89"/><path d="m94.2 139c.104-7.76-6.02-14.1-13.7-14.3-7.66-.1-13.9 6.12-14 13.9-.103 7.77 6.02 14.2 13.7 14.3 7.66.102 13.9-6.12 14-13.9z" fill="#ececec" fill-rule="nonzero" stroke-width="1.48"/><path d="m83.6 139c.019-1.56-1.21-2.83-2.74-2.86-1.53-.016-2.79 1.23-2.81 2.78-.025 1.56 1.21 2.84 2.74 2.86 1.53.018 2.78-1.23 2.81-2.78z" fill-rule="nonzero"/><path d="m114 120s19.6 1.01 20.8 2.02c1.21 1.01 2.71-.712 2.97-1.95.261-1.24-14.3-14.6-17.7-14.4-3.43.209-17.4-.788-16.9 1.2" fill="#b4b4b4" stroke-width="1.43"/></g><path d="m60.12 29.68h24.07v23.142h-24.07z" fill="none" opacity=".999"/></g></svg>