<svg enable-background="new 0 0 82 38" height="84" viewBox="0 0 20.18 6.234" width="126" xmlns="http://www.w3.org/2000/svg"><g fill="#231f20" transform="matrix(.23 0 0 .21 .64 -.9)"><path d="m45.529 15.836-2.238 5.164h4.451z"/><path d="m77 0h-72c-2.761 0-5 2.238-5 5v28c0 2.762 2.239 5 5 5h72c2.762 0 5-2.238 5-5v-28c0-2.762-2.238-5-5-5zm-47.574 28-3.893-12.363-3.866 12.363h-2.951l-6.207-18h4.299l3.511 10.227 3.154-10.227h4.146l3.129 10.227 3.537-10.227h4.299l-6.207 18zm21.47 0-1.653-4h-7.453l-1.653 4h-4.223l7.682-18h3.842l7.682 18zm11.907 0h-3.358l-7.148-18h4.299l4.528 11.32 4.527-11.32h4.299z"/></g></svg>