<svg height="90" width="132" xmlns="http://www.w3.org/2000/svg"><path d="m21.598 13.283c-5.884 1.47-9.357 4.954-10.761 10.797l-.77 3.206v101.952 101.951l.77 3.206c1.437 5.98 4.941 9.414 11.073 10.852l3.405.798h174.685 174.685l3.405-.798c6.167-1.446 9.607-4.847 11.063-10.937l.78-3.264v-101.808-101.809l-.78-3.264c-1.456-6.09-4.896-9.49-11.063-10.936l-3.405-.799-174.981.037-174.982.036zm353.235 115.955v101.702h-174.833-174.833v-101.702-101.703h174.833 174.833zm-341.238-93.339c.139.614 14.962 110.071 14.962 110.479 0 .099 1.699.18 3.775.18h3.776l17.141-34.271c9.428-18.849 17.183-34.137 17.235-33.975.229.728 8.406 49.964 8.406 50.618 0 .403-1.015 3.168-2.255 6.146-2.398 5.756-2.614 6.273-7.894 18.884-1.875 4.478-5.302 12.672-7.616 18.209-2.314 5.536-5.044 12.065-6.067 14.508-1.023 2.442-4.09 9.77-6.816 16.284-2.725 6.513-5.557 13.279-6.292 15.033-.736 1.755-1.253 3.275-1.15 3.378s3.486.359 7.517.568c4.032.209 8.242.438 9.356.508l2.025.127.594-1.369c.7-1.616 7.206-17.301 8.856-21.354 4.587-11.264 7.005-16.72 7.372-16.637 34.88 7.943 64.466-9.739 67.513-40.348 1.687-16.946-9.623-27.213-31.835-28.899-5.532-.42-6.714-.57-6.605-.839.05-.124 8.451-17.488 18.668-38.587 10.217-21.098 18.659-38.574 18.759-38.835.164-.429-.747-.474-9.548-.474h-9.73l-14.786 31.458c-16.719 35.569-17.389 36.98-17.505 36.864-.046-.046-2.093-15.137-4.549-33.537-2.456-18.399-4.534-33.756-4.618-34.127-.151-.666-.201-.673-4.171-.592l-4.018.082-16.771 34.11c-9.225 18.761-16.851 34.016-16.948 33.901s-1.806-14.998-3.798-33.074c-1.992-18.075-3.696-33.364-3.787-33.975l-.165-1.11h-9.59-9.591zm153.082-.189c-8.626 1.297-17.454 4.54-22.446 8.247-.507.376-.396.829 2.031 8.285l2.566 7.888.93-.764c7.068-5.802 12.888-7.807 21.735-7.485 7.986.29 10.97 3.077 11.263 10.517.088 2.239.028 3.331-.184 3.331-.173 0-1.156-.189-2.184-.42-9.892-2.221-23.963.911-33.993 7.568-18.527 12.298-20.815 36.49-4.24 44.83 8.365 4.208 24.125 1.884 33.482-4.937l1.983-1.446.698 1.373c2.248 4.422 6.692 6.484 14.709 6.823l4.145.176.836-4.852.836-4.851-.83-.593c-4.305-3.074-4.335-4.521-.535-26.054 3.165-17.939 3.657-22.151 3.153-27.002-1.202-11.588-6.751-17.51-18.707-19.964-2.74-.563-12.972-1.012-15.248-.67m33.614.629c.006.288 4.503 18.976 9.993 41.529l9.982 41.007 3.109.082 3.109.082 25.019-41.21c13.76-22.666 25.061-41.389 25.114-41.607.078-.325-1.599-.395-9.327-.39l-9.422.007-13.915 24.754c-7.654 13.614-14.06 24.953-14.235 25.196-.241.334-1.552-5.723-5.343-24.686l-5.025-25.13-9.534-.078c-8.945-.073-9.534-.046-9.525.444m-23.082 42.893c1.535.262 2.85.532 2.921.599.072.068-.496 3.751-1.262 8.185l-1.393 8.061-1.698 1.571c-10.784 9.973-26.999 10.001-27.011.046-.012-9.111 8.895-16.836 21.611-18.746 1.75-.262 4.23-.159 6.832.284m110.863 31.279c-.069.203-4.529 25.418-9.91 56.032-5.381 30.615-9.838 55.898-9.905 56.185-.114.492.405.518 8.805.444l8.927-.078 2.424-13.62c1.334-7.49 2.435-13.637 2.446-13.658.132-.241 11.096-9.647 11.359-9.745.23-.085 3.342 6.514 8.698 18.445l8.341 18.578 9.646.078c5.305.043 9.646.013 9.646-.066s-5.051-11.239-11.225-24.8l-11.226-24.657 10.264-10.049c5.644-5.527 12.927-12.688 16.184-15.912l5.922-5.863-10.758-.002-10.759-.002-16.018 15.833c-8.811 8.709-16.053 15.8-16.093 15.76-.041-.041 2.378-13.995 5.375-31.008s5.502-31.233 5.567-31.599l.117-.666h-8.851c-6.816 0-8.879.085-8.976.37m-176.083 20.198c8.82 1.325 12.074 4.65 12.029 12.296-.078 13.625-9.398 23.134-24.699 25.2-4.604.622-15.368-.202-16.423-1.258-.064-.064.415-1.38 1.064-2.924.648-1.545 3.918-9.471 7.264-17.613 3.347-8.142 6.185-14.911 6.306-15.041.81-.871 10.204-1.299 14.459-.66m53.63 9.196c-5.004.78-11.553 2.804-15.491 4.787-2.823 1.422-5.805 3.33-5.805 3.714 0 .294 4.193 13.451 4.773 14.975.263.691.286.682 2.036-.834 5.515-4.778 12.383-7.026 20.578-6.734 8.213.291 11.468 3.335 11.526 10.777.025 3.306.147 3.182-2.526 2.576-9.77-2.212-25.172 1.451-34.807 8.279-22.447 15.907-17.832 46.33 7.006 46.185 9.054-.053 16.73-2.303 22.858-6.7l2.279-1.635.864 1.531c2.457 4.354 6.73 6.292 14.614 6.626l4.05.172.183-1.005c.101-.553.5-2.737.886-4.854l.704-3.849-.643-.433c-4.518-3.04-4.583-5.023-.842-25.976 4.272-23.931 4.395-28.935.885-36.212-4.326-8.967-18.159-13.723-33.128-11.39m81.59-.261c-22.781 2.641-38.914 17.637-43.51 40.443-6.339 31.461 13.007 49.273 45.696 42.073 6.013-1.324 16.319-5.601 16.319-6.773 0-.612-4.167-14.759-4.429-15.036-.126-.133-1.345.484-2.711 1.371-12.529 8.138-25.597 8.703-32.851 1.419-8.879-8.916-4.466-32.708 7.916-42.668 8.987-7.23 24.627-7.332 31.527-.206l1.377 1.421 4.816-5.418c2.649-2.98 5.219-5.85 5.71-6.377l.893-.958-1.165-1.039c-6.597-5.89-19.332-9.441-29.588-8.252m-69.578 43.501c1.466.255 2.758.554 2.872.665.113.111-.426 3.785-1.199 8.165l-1.406 7.964-1.822 1.712c-7.098 6.672-16.865 9.18-23.404 6.009-4.046-1.961-4.499-8.494-.969-13.956 5.035-7.79 16.051-12.277 25.928-10.559" fill-rule="evenodd" transform="matrix(.31 0 0 .32 3.87 3.3)"/></svg>