<svg height="84" viewBox="0 0 126 84" width="126" xmlns="http://www.w3.org/2000/svg"><g fill="#000102" stroke-width="0" transform="matrix(1.75 0 0 1.54 -78.58 -22.33)"><path d="m47.1 33.2h5.04l1.82 9.6 2.65-9.6h5.03l2.66 9.6 1.82-9.6h5.02l-3.79 17.2h-5.2l-3.01-10.8-3 10.8h-5.2z"/><path d="m73.8 33.2h6.98l2.7 10.5 2.68-10.5h6.96v17.2h-4.34v-13.1l-3.36 13.1h-3.93l-3.35-13.1v13.1h-4.35z"/><path d="m108 47.5h-6.05l-.832 2.84h-5.43l6.46-17.2h5.79l6.46 17.2h-5.55zm-1.11-3.71-1.9-6.18-1.89 6.18z"/></g></svg>