<svg height="84" viewBox="0 0 126 84" width="126" xmlns="http://www.w3.org/2000/svg"><g stroke-width="0" transform="matrix(1.75 0 0 1.48 -78.33 -26.53)"><text font-family="'Arial Black'" font-size="24" letter-spacing="1" word-spacing="0" x="47.12" y="42.25"><tspan font-size="24" x="47.12" y="42.25">WMA</tspan></text><path d="m80.8 67.2v-16.6h6.28q1.66 0 2.53.16 1.23.2 2.05.78.83.57 1.33 1.6.51 1.03.51 2.27 0 2.12-1.35 3.6-1.35 1.46-4.88 1.46h-4.27v6.77zm2.2-8.73h4.3q2.13 0 3.03-.79.9-.79.9-2.24 0-1.04-.53-1.78-.52-.75-1.39-.99-.56-.15-2.05-.15h-4.26z"/><path d="m96.1 67.2v-12.1h1.84v1.83q.7-1.28 1.29-1.69.6-.41 1.32-.41 1.03 0 2.1.66l-.7 1.9q-.75-.44-1.5-.44-.67 0-1.2.41-.53.4-.76 1.11-.34 1.09-.34 2.38v6.31z"/><path d="m103 61.1q0-3.35 1.86-4.96 1.56-1.34 3.79-1.34 2.49 0 4.06 1.63 1.58 1.62 1.58 4.5 0 2.33-.7 3.67-.69 1.33-2.03 2.07-1.33.74-2.91.74-2.53 0-4.1-1.62-1.56-1.62-1.56-4.68zm2.1 0q0 2.32 1.01 3.47 1.01 1.15 2.54 1.15 1.52 0 2.53-1.16 1.01-1.16 1.01-3.53 0-2.24-1.02-3.38-1.01-1.16-2.52-1.16-1.53 0-2.54 1.15-1.01 1.15-1.01 3.46z"/></g></svg>