<svg height="84" viewBox="0 0 126 84" width="126" xmlns="http://www.w3.org/2000/svg"><g stroke-width="0" transform="matrix(1.76 0 0 1.61 -78.77 -27.56)"><text font-family="'Arial Black'" font-size="24" letter-spacing="1" word-spacing="0" x="47.12" y="42.25"><tspan font-size="24" x="47.12" y="42.25">WMA</tspan></text><path d="m49.5 61.3v-12.3h1.63v10.9h6.06v1.45z"/><path d="m58.3 56.9q0-2.48 1.38-3.67 1.15-.99 2.8-.99 1.84 0 3.01 1.21 1.17 1.2 1.17 3.32 0 1.72-.52 2.71-.51.98-1.5 1.53-.98.55-2.15.55-1.87 0-3.03-1.2-1.15-1.2-1.15-3.46zm1.55 0q0 1.71.75 2.57.75.85 1.88.85 1.13 0 1.87-.86.75-.86.75-2.61 0-1.65-.76-2.5-.75-.86-1.86-.86-1.13 0-1.88.85-.75.85-.75 2.56z"/><path d="m67.8 58.7 1.49-.24q.13.9.7 1.38.58.48 1.61.48 1.04 0 1.54-.42.5-.43.5-1 0-.51-.45-.81-.31-.2-1.54-.51-1.66-.42-2.31-.72-.64-.31-.97-.85-.33-.55-.33-1.2 0-.6.27-1.1.28-.51.75-.85.35-.26.96-.44.61-.18 1.31-.18 1.05 0 1.84.3.8.3 1.18.82.38.51.52 1.38l-1.48.2q-.1-.69-.59-1.07-.48-.39-1.36-.39-1.04 0-1.49.34-.45.34-.45.81 0 .29.18.53.18.24.58.4.23.08 1.34.39 1.6.43 2.23.71.64.27 1 .79.36.52.36 1.29 0 .76-.45 1.43-.44.66-1.27 1.03-.83.36-1.88.36-1.74 0-2.65-.72-.91-.72-1.16-2.14z"/><path d="m76.4 58.7 1.49-.24q.13.9.7 1.38.58.48 1.61.48 1.04 0 1.54-.42.5-.43.5-1 0-.51-.45-.81-.31-.2-1.54-.51-1.66-.42-2.31-.72-.64-.31-.97-.85-.33-.55-.33-1.2 0-.6.27-1.1.28-.51.75-.85.35-.26.96-.44.61-.18 1.31-.18 1.05 0 1.84.3.8.3 1.18.82.38.51.52 1.38l-1.48.2q-.1-.68-.58-1.06-.48-.39-1.36-.39-1.04 0-1.49.34-.45.34-.45.81 0 .29.18.53.18.24.58.4.23.08 1.34.39 1.6.43 2.23.71.64.27 1 .79.36.52.36 1.29 0 .76-.45 1.43-.44.66-1.27 1.03-.83.36-1.88.36-1.74 0-2.65-.72-.91-.72-1.16-2.14z"/><path d="m85.6 61.3v-12.3h1.51v12.3z"/><path d="m95.6 58.4 1.56.19q-.37 1.37-1.37 2.12-1 .76-2.55.76-1.96 0-3.11-1.2-1.14-1.21-1.14-3.38 0-2.25 1.16-3.49 1.16-1.24 3.01-1.24 1.79 0 2.92 1.22 1.13 1.22 1.13 3.43 0 .13-.01.4h-6.65q.08 1.47.83 2.25.75.78 1.86.78.83 0 1.42-.44.59-.44.93-1.39zm-4.96-2.44h4.98q-.1-1.13-.57-1.69-.72-.87-1.87-.87-1.04 0-1.75.7-.71.7-.78 1.86z"/><path d="m98.4 58.7 1.49-.24q.13.9.7 1.38.58.48 1.61.48 1.04 0 1.54-.42.5-.43.5-1 0-.51-.45-.81-.31-.2-1.54-.51-1.66-.42-2.31-.72-.64-.31-.97-.85-.33-.55-.33-1.2 0-.6.27-1.1.28-.51.75-.85.35-.26.96-.44.61-.18 1.31-.18 1.05 0 1.84.3.8.3 1.18.82.38.51.52 1.38l-1.48.2q-.1-.69-.59-1.07-.48-.39-1.36-.39-1.04 0-1.49.34-.45.34-.45.81 0 .29.18.53.18.24.58.4.23.08 1.34.39 1.6.43 2.23.71.64.27 1 .79.36.52.36 1.29 0 .76-.45 1.43-.44.66-1.27 1.03-.83.36-1.88.36-1.74 0-2.65-.72-.91-.72-1.16-2.14z"/><path d="m107 58.7 1.49-.24q.13.9.7 1.38.58.48 1.61.48 1.04 0 1.54-.42.5-.43.5-1 0-.51-.45-.81-.31-.2-1.54-.51-1.66-.42-2.31-.72-.64-.31-.97-.85-.33-.55-.33-1.2 0-.6.27-1.1.28-.51.75-.85.35-.26.96-.44.61-.18 1.31-.18 1.05 0 1.84.3.8.3 1.18.82.38.51.52 1.38l-1.48.2q-.1-.69-.59-1.07-.48-.39-1.36-.39-1.04 0-1.49.34-.45.34-.45.81 0 .29.18.53.18.24.58.4.23.08 1.34.39 1.6.43 2.23.71.64.27 1 .79.36.52.36 1.29 0 .76-.45 1.43-.44.66-1.27 1.03-.83.36-1.88.36-1.74 0-2.65-.72-.91-.72-1.16-2.14z"/></g></svg>